<svg width="249" height="46" viewBox="0 0 249 46" fill="none" xmlns="http://www.w3.org/2000/svg">
<path d="M90.851 33.8521V41.2521H88.4309V35.5821H86.1409V41.2521H83.7109V33.8521H90.851Z" fill="#A70230"/>
<path d="M111.951 38.7321L111.171 36.0821L110.421 38.7321H111.951ZM112.421 33.8521L115.071 41.242H112.661L112.371 40.242H109.961L109.681 41.242H107.311L109.961 33.8521H112.421Z" fill="#A70230"/>
<path d="M147.141 36.4321H149.431V33.8521H151.851V41.2521H149.431V38.1621H147.141V41.2521H144.711V33.8521H147.141V36.4321Z" fill="#A70230"/>
<path d="M164.63 33.8521V41.2521H162.31V38.9021L162.43 37.0121L159.76 41.2521H157.49V33.8521H159.81V36.2121L159.69 38.1021L162.36 33.8521H164.63Z" fill="#A70230"/>
<path d="M172.69 36.2521L174.82 33.8521H177.66L174.96 36.6421L177.95 41.2521H175.049L173.27 38.3021L172.69 38.9121V41.2521H170.27V33.8521H172.69V36.2521Z" fill="#A70230"/>
<path d="M207.201 36.2521L209.331 33.8521H212.171L209.471 36.6421L212.461 41.2521H209.551L207.771 38.3021L207.201 38.9121V41.2521H204.781V33.8521H207.201V36.2521Z" fill="#A70230"/>
<path d="M243.39 38.7321L242.61 36.0821L241.86 38.7321H243.39ZM243.86 33.8521L246.51 41.242H244.1L243.81 40.242H241.4L241.12 41.242H238.75L241.4 33.8521H243.86Z" fill="#A70230"/>
<path d="M24.1309 34.2222H24.7509V36.0122H25.2809V34.2222H25.9109V33.7422H24.1309V34.2222Z" fill="white"/>
<path d="M30.2402 36.0122H30.7703V34.2222H31.6603V33.7422H30.2402V36.0122Z" fill="white"/>
<path d="M140.261 8.18185L133.261 27.5118H139.461L140.261 24.9818H146.571L147.321 27.5318H153.631L146.701 8.20184H140.261V8.18185ZM141.441 20.9818L143.441 14.0618L145.441 20.9818H141.441ZM91.1912 15.8518L88.1012 8.22183H80.9512L88.0712 22.2218C87.9703 22.5391 87.7699 22.8154 87.4998 23.0099C87.2296 23.2044 86.904 23.3068 86.5712 23.3018C86.1159 23.296 85.6679 23.1865 85.2612 22.9818V27.3818C86.2188 27.753 87.2343 27.9528 88.2612 27.9718C90.6812 27.9718 92.3212 26.6818 93.9512 23.2218L101.091 8.13184H94.2612L91.1912 15.8518ZM112.191 27.5618H118.531V12.6918H124.531V27.5118H130.871V8.18185H112.201V27.5118L112.191 27.5618ZM219.191 15.1018C218.257 15.3569 217.29 15.4748 216.321 15.4518C214.791 15.4518 213.911 14.7518 213.911 13.2218V8.22183H207.571V14.2218C207.571 18.4118 211.061 20.2218 213.911 20.2218C215.686 20.3302 217.467 20.1854 219.201 19.7918V27.6118H225.541V8.18185H219.261V15.0518L219.191 15.1018ZM197.961 27.5618H204.301V8.18185H197.961V27.5118V27.5618ZM241.341 8.23184H234.901L227.971 27.5618H234.171L234.901 25.0118H241.261L242.011 27.5618H248.261L241.341 8.23184ZM236.141 20.9818L238.141 14.0618L240.141 20.9818H236.141ZM158.431 18.1918C158.431 22.7218 157.711 23.1918 156.431 23.1918C155.94 23.2181 155.449 23.1537 154.981 23.0018V27.5118C156.102 27.7975 157.255 27.9353 158.411 27.9218C162.041 27.9218 164.481 25.9918 164.481 18.2018V12.7018H169.021V27.5219H175.351V8.18185H158.431V18.1819V18.1918ZM188.261 14.9218H185.261V8.18185H178.931V27.5118H188.191C193.191 27.5118 196.251 25.5118 196.251 21.3418C196.251 17.1718 193.161 14.9218 188.251 14.9218H188.261ZM187.591 22.9818H185.261V19.4118H186.841C188.841 19.4118 190.331 19.5119 190.331 21.2119C190.331 22.6619 189.151 22.9818 187.591 22.9818Z" fill="#A70230"/>
<path d="M35.8408 45.392C26.5608 45.392 17.7908 43.592 11.1608 40.322C4.00083 36.792 0.0507812 31.902 0.0507812 26.552C0.0507812 21.202 3.99083 16.322 11.1608 12.792C16.6447 10.2325 22.5329 8.64876 28.5608 8.11196V7.60195C28.6339 5.7813 29.3994 4.05724 30.7008 2.78194C31.7323 1.77086 33.0309 1.07511 34.4441 0.776391C35.8573 0.477673 37.3264 0.588407 38.6788 1.09557C40.0313 1.60274 41.2109 2.48527 42.0792 3.63955C42.9475 4.79383 43.4685 6.17193 43.5808 7.61196V8.15197C49.4464 8.72103 55.1719 10.2868 60.5108 12.7819C67.6708 16.3119 71.6108 21.192 71.6108 26.542C71.6108 31.892 67.6708 36.7719 60.5108 40.3119C53.8808 43.5819 45.1208 45.382 35.8308 45.382" fill="#A70230"/>
<path d="M60.0109 13.8119C54.4781 11.2406 48.5323 9.6729 42.4509 9.18191V7.62192C42.3605 6.01096 41.6477 4.49815 40.4629 3.40289C39.2781 2.30764 37.714 1.71564 36.101 1.75189C35.2504 1.73106 34.4045 1.88244 33.614 2.19693C32.8234 2.51141 32.1047 2.98253 31.5009 3.58191C30.4188 4.64213 29.7731 6.06921 29.6909 7.58191V9.12192C23.4578 9.57697 17.359 11.1593 11.6909 13.7919C4.94092 17.1219 1.21094 21.6419 1.21094 26.5419C1.21094 31.4419 4.93092 35.9619 11.6909 39.2919C18.1709 42.4919 26.7509 44.2919 35.8709 44.2919C44.9909 44.2919 53.5709 42.5319 60.0509 39.2919C66.8009 35.9619 70.5209 31.4419 70.5209 26.5419C70.5209 21.6419 66.8009 17.1219 60.0509 13.7919" fill="#A70230"/>
<path d="M48.6314 16.9821C49.8914 16.7221 50.0514 18.3721 49.0214 18.8921C48.414 19.1323 47.8499 19.4701 47.3514 19.8921C46.8814 20.4121 45.6514 22.9521 47.2914 22.9621C49.1814 22.9621 50.2914 20.9621 50.5114 20.5021C51.1914 18.8121 51.4114 18.3921 52.2714 18.8121C52.8114 19.0721 52.0614 20.4721 51.9114 20.9321C50.5463 24.7243 50.1442 28.7962 50.7414 32.7821C50.8514 33.7821 50.6114 34.4721 49.8214 34.5721C49.0314 34.6721 48.4114 34.4321 48.1614 33.0021C47.4114 28.7221 49.7414 22.8221 49.7414 22.8221C49.7414 22.8221 47.2514 26.1921 45.4114 24.5621C44.1014 23.3421 45.6014 20.5621 45.6514 20.3321C45.2014 20.6821 44.6514 20.7321 44.5514 20.4021C44.2114 19.4921 46.1614 19.5321 46.4914 18.9921C47.1914 17.7021 47.7914 17.1121 48.6414 16.9321" fill="white"/>
<path d="M13.2598 23.152C13.4498 22.042 16.3098 15.322 26.5298 13.612C27.3096 13.4321 28.1201 13.4321 28.8998 13.612C29.5998 13.822 29.3998 14.472 28.8998 14.512C28.3998 14.552 18.6898 15.612 16.1698 23.562C15.2998 25.562 12.9598 24.932 13.2798 23.102" fill="white"/>
<path d="M27.6407 34.382C26.6407 35.082 24.8007 31.622 25.5007 21.762C25.6107 20.192 27.9608 20.082 27.7708 22.142C26.7008 33.662 28.2208 33.942 27.6508 34.382" fill="white"/>
<path d="M14.8608 35.932C16.2808 33.712 17.3108 33.0419 17.8608 30.5519C17.6662 30.9497 17.386 31.2995 17.0402 31.5761C16.6944 31.8527 16.2916 32.0494 15.8608 32.152C15.4159 32.1291 14.9856 31.9859 14.6157 31.7375C14.2459 31.4892 13.9504 31.1451 13.7608 30.7419C13.1716 29.4681 12.9466 28.0559 13.1108 26.6619C13.1108 24.8819 15.9708 25.2019 15.9008 26.4119C15.7008 28.9219 16.2308 29.6119 16.7308 29.8019C17.2308 29.9919 18.2808 29.2719 18.5108 28.0119C18.6708 27.2619 18.7909 26.872 18.7909 26.872C18.7981 26.7827 18.8228 26.6956 18.8636 26.6159C18.9045 26.5362 18.9606 26.4652 19.0289 26.4072C19.0971 26.3492 19.1762 26.3052 19.2614 26.2777C19.3467 26.2502 19.4365 26.2397 19.5258 26.247C19.6151 26.2542 19.7021 26.2789 19.7819 26.3197C19.8616 26.3606 19.9325 26.4167 19.9906 26.485C20.0486 26.5532 20.0926 26.6323 20.1201 26.7175C20.1476 26.8028 20.1581 26.8926 20.1508 26.9819C19.8108 31.1919 19.0008 34.4419 16.9808 37.5919C16.4508 38.4219 13.9108 37.1719 14.8208 35.9419" fill="white"/>
<path d="M24.9297 18.7619C24.8797 19.2319 23.0297 37.4219 22.9297 37.9219C22.7597 39.3619 19.8097 39.6918 20.1297 36.7218C20.2797 35.4218 22.5397 18.7819 22.5797 18.5119C22.8397 16.6919 25.1097 16.8519 24.8797 18.7619" fill="white"/>
<path d="M32.5606 29.7622C32.4285 30.0548 32.2244 30.3092 31.9673 30.5015C31.7102 30.6939 31.4086 30.818 31.0906 30.8622C30.0206 30.8622 30.2906 29.3222 30.7406 28.6522C30.8688 28.3697 31.0715 28.1273 31.327 27.9511C31.5824 27.775 31.8809 27.6717 32.1906 27.6522C33.1306 27.8522 31.6206 28.8222 32.1906 29.1122L32.4906 29.2522C32.4906 29.2522 32.8706 29.3822 32.5606 29.7822V29.7622ZM43.5606 27.0122C43.8706 27.1822 43.0306 28.2222 42.9506 28.3322C42.9506 28.2122 43.2706 26.8522 43.5606 27.0122ZM47.7306 33.3422C46.9806 31.6522 46.5806 30.8022 47.0106 28.9222C47.1206 28.5522 47.0906 27.8522 46.3706 27.9222C45.6506 27.9922 45.7406 28.9222 45.2006 28.7822C43.4906 28.3822 43.7006 29.3522 43.8006 29.5922C44.2306 30.5422 43.9806 31.2022 43.3706 31.2022C42.7606 31.2022 42.1006 30.1222 43.2206 29.0522C43.1506 29.1222 46.0306 26.4422 44.5606 25.6122C43.4506 25.0422 42.4406 26.6622 42.0506 27.6122C40.8406 30.6122 40.4306 31.1822 40.0506 31.2622C39.6706 31.3422 40.1006 29.4222 40.4206 28.5822C40.8606 27.4722 41.0806 26.1422 40.3406 26.1422C38.7406 26.1422 37.1606 29.2922 36.5106 30.2822C35.5106 31.7422 35.6406 30.3722 34.9606 30.4122C34.1006 30.4922 34.2106 31.4622 33.8006 31.4122C33.1606 31.4122 34.3606 28.8622 34.5306 28.2822C34.6125 28.1596 34.6619 28.0182 34.6741 27.8712C34.6864 27.7243 34.6611 27.5767 34.6006 27.4422C34.1406 26.9522 33.7606 27.6122 33.6706 27.7022C33.6706 26.0422 32.6106 25.9922 31.5506 26.4522C30.6423 26.8842 29.8628 27.5461 29.2892 28.3723C28.7156 29.1985 28.3679 30.1602 28.2806 31.1622C28.0706 33.0622 30.1006 35.1622 32.0206 32.0422C32.0206 32.0422 31.8406 33.6222 32.9506 33.6322C33.7206 33.6322 34.5006 31.9822 34.5006 31.9822C34.5006 31.9822 34.5006 33.6322 35.5006 33.6322C36.3206 33.6322 37.1006 31.4322 37.5006 30.4922C37.8193 29.8041 38.18 29.1361 38.5806 28.4922C38.8206 28.1422 38.9506 28.3022 38.8406 28.4922C37.3506 32.0022 38.0906 33.6322 38.8406 33.6322C39.5906 33.6322 40.2106 33.2022 41.0706 31.7322C41.0963 32.2451 41.3183 32.7285 41.6906 33.0822C42.0629 33.4359 42.5571 33.6328 43.0706 33.6322C44.2906 33.6322 45.1606 31.5022 44.8006 30.0722C44.6306 29.3522 45.3606 29.4322 45.3706 29.8422C45.2838 30.5354 45.3869 31.2392 45.6686 31.8785C45.9504 32.5177 46.4004 33.0686 46.9706 33.4722C47.1706 33.6222 47.9706 33.8822 47.6606 33.2722" fill="white"/>
<path d="M55.0103 29.5322C54.5803 29.9022 55.1903 30.1922 55.1903 30.1922C55.3503 30.3222 55.1003 30.6822 54.5403 30.8422C54.3509 30.923 54.1411 30.9433 53.9397 30.9004C53.7383 30.8574 53.5551 30.7533 53.415 30.6024C53.275 30.4514 53.185 30.2609 53.1573 30.0568C53.1296 29.8527 53.1656 29.6451 53.2603 29.4623C53.5503 28.3223 54.8403 27.4022 55.5503 27.6922C56.2603 27.9822 55.6603 28.8723 55.0003 29.5223L55.0103 29.5322ZM57.4803 34.7723C56.8481 33.3374 56.6433 31.7506 56.8903 30.2022C56.9503 29.5022 56.1503 29.7022 56.1503 29.7022C56.5643 29.037 56.7373 28.2498 56.6403 27.4722C56.5503 26.7622 55.7203 26.3323 54.5203 26.6823C52.3203 27.3323 51.3603 29.6823 51.2003 31.4023C51.0403 33.1223 52.6603 35.2522 55.2803 31.9522C55.4753 33.1469 56.0756 34.238 56.9803 35.0422C57.1703 35.1922 57.8103 35.3123 57.4803 34.7723Z" fill="white"/>
<path d="M40.0505 9.69188C38.7805 15.2219 37.1806 17.1019 36.8306 17.4719C36.4806 17.8419 35.8906 17.8019 35.6506 16.9919C35.5806 16.7519 34.7206 13.9119 32.3206 14.6519C32.3206 14.6519 32.1005 14.7319 32.0605 14.5519C32.0716 14.4788 32.1027 14.4102 32.1503 14.3538C32.198 14.2973 32.2604 14.2551 32.3306 14.2319C34.3306 13.1519 36.0305 15.1419 36.0605 15.1719C36.6005 15.7419 37.3405 14.9619 37.5605 14.0819C37.7405 13.3719 37.6905 12.2219 36.0605 12.8819C35.8205 12.9619 33.8606 13.6019 34.5106 11.7819C34.6706 11.2619 35.0305 10.4619 35.2505 9.84188C35.7005 8.58188 35.4705 6.4719 33.6705 7.5819C33.1414 8.00367 32.6824 8.50655 32.3105 9.07189C32.1905 9.24189 31.9906 9.16189 32.0906 8.91189C32.4921 7.87467 33.2091 6.98972 34.1406 6.38189C35.2106 5.83189 37.3106 6.53189 36.1406 9.38189C35.7106 10.4819 35.8305 11.6619 36.7305 11.6619C37.3698 11.6051 37.9817 11.3762 38.5012 10.9993C39.0206 10.6225 39.4282 10.1119 39.6805 9.5219C39.8005 9.2519 40.0906 9.34189 40.0106 9.70189" fill="white"/>
<path d="M35.841 42.0421C17.841 42.0421 3.28101 35.0421 3.28101 26.4921C3.28101 18.9221 14.601 12.6221 29.581 11.2321H29.911V23.8421H42.261V11.2621H42.471C57.291 12.7221 68.471 18.9821 68.471 26.4921C68.471 35.0821 53.891 42.0421 35.911 42.0421H35.841ZM31.911 7.96213C31.9476 6.87283 32.4122 5.84187 33.2042 5.09302C33.9961 4.34416 35.0513 3.93782 36.141 3.96213C37.2341 3.93246 38.2944 4.33642 39.0907 5.08585C39.887 5.83527 40.3544 6.86928 40.391 7.96213V20.9621H31.891V7.98212L31.911 7.96213ZM60.091 13.8021C54.5581 11.2308 48.6124 9.66311 42.531 9.17212V7.61212C42.4406 6.00116 41.7278 4.48835 40.543 3.3931C39.3582 2.29784 37.7941 1.70587 36.181 1.74213C35.3305 1.7213 34.4845 1.87268 33.694 2.18716C32.9035 2.50165 32.1848 2.97273 31.581 3.57211C30.4989 4.63234 29.8531 6.05941 29.771 7.57211V9.11212C23.5379 9.56718 17.4391 11.1495 11.771 13.7821C5.021 17.1121 1.29102 21.6321 1.29102 26.5321C1.29102 31.4321 5.011 35.9521 11.771 39.2821C18.251 42.4821 26.831 44.2821 35.951 44.2821C45.071 44.2821 53.651 42.5221 60.131 39.2821C66.881 35.9521 70.601 31.4321 70.601 26.5321C70.601 21.6321 66.881 17.1121 60.131 13.7821" fill="white"/>
<path d="M45.2609 16.9819C44.9176 16.9702 44.5853 16.8576 44.3055 16.6583C44.0257 16.459 43.8108 16.1817 43.6875 15.8611C43.5642 15.5405 43.538 15.1907 43.6122 14.8552C43.6863 14.5198 43.8575 14.2136 44.1045 13.9749C44.3514 13.7361 44.6632 13.5753 45.001 13.5125C45.3387 13.4497 45.6874 13.4876 46.0037 13.6217C46.32 13.7557 46.5899 13.9799 46.7796 14.2662C46.9694 14.5526 47.0707 14.8884 47.0709 15.2319C47.067 15.4657 47.0171 15.6964 46.924 15.9109C46.8309 16.1253 46.6965 16.3194 46.5284 16.4819C46.3603 16.6444 46.1619 16.7722 45.9444 16.858C45.7269 16.9438 45.4947 16.9859 45.2609 16.9819ZM45.2609 13.1319C44.8459 13.1437 44.4436 13.2777 44.1044 13.5171C43.7652 13.7564 43.5042 14.0905 43.3539 14.4775C43.2037 14.8645 43.171 15.2873 43.2599 15.6928C43.3487 16.0983 43.5552 16.4686 43.8536 16.7573C44.1519 17.046 44.5288 17.2403 44.937 17.3159C45.3452 17.3914 45.7667 17.3449 46.1485 17.182C46.5304 17.0192 46.8558 16.7473 47.0839 16.4004C47.312 16.0536 47.4327 15.6471 47.4309 15.2319C47.4178 14.667 47.1828 14.1299 46.7767 13.7369C46.3705 13.3438 45.826 13.1265 45.2609 13.1319Z" fill="white"/>
<path d="M45.3698 14.9822H44.9298V14.4322H45.3398C45.5198 14.4322 45.7198 14.4322 45.7198 14.6822C45.7198 14.9322 45.5898 14.9822 45.3698 14.9822ZM46.2498 14.6822C46.2498 14.1622 45.9198 13.9822 45.3398 13.9722H44.3398V16.3122H44.8499V15.3122H45.0798L45.2899 15.6722L45.6298 16.2922H46.2598L45.6498 15.2922C45.7294 15.2953 45.8088 15.2815 45.8826 15.2516C45.9565 15.2216 46.023 15.1762 46.0779 15.1185C46.1328 15.0608 46.1748 14.992 46.201 14.9167C46.2272 14.8415 46.237 14.7615 46.2298 14.6822" fill="white"/>
<path d="M218.601 33.8521L219.781 36.7721L220.951 33.8521H223.561L220.831 39.622C220.201 40.942 219.581 41.442 218.651 41.442C218.261 41.4326 217.875 41.3548 217.511 41.212V39.532C217.668 39.603 217.839 39.6372 218.011 39.632C218.139 39.636 218.265 39.5981 218.37 39.5241C218.474 39.4501 218.552 39.3441 218.591 39.222L215.871 33.8521H218.601Z" fill="#A70230"/>
<path d="M232.464 36.8721C232.461 36.7044 232.425 36.5389 232.356 36.3859C232.288 36.2328 232.188 36.0954 232.065 35.9821C231.941 35.8687 231.796 35.7819 231.637 35.7269C231.479 35.6718 231.311 35.6498 231.144 35.6621C230.294 35.6621 229.774 36.3921 229.774 37.8221C229.774 38.8221 230.004 39.8221 231.234 39.8221C231.397 39.8221 231.559 39.7897 231.71 39.7267C231.862 39.6638 231.999 39.5716 232.114 39.4554C232.229 39.3391 232.32 39.2013 232.382 39.0497C232.444 38.8981 232.475 38.7357 232.474 38.5721H234.804C234.74 39.4453 234.332 40.2576 233.67 40.8311C233.009 41.4046 232.147 41.6926 231.274 41.6321C230.242 41.6639 229.24 41.2846 228.488 40.5776C227.736 39.8706 227.295 38.8938 227.264 37.8621C227.232 36.8304 227.611 35.8283 228.318 35.0763C229.025 34.3242 230.002 33.8839 231.034 33.8521C233.294 33.8521 234.554 34.9721 234.754 36.8521H232.454L232.464 36.8721Z" fill="#A70230"/>
<path d="M195.26 39.562H196.32C196.92 39.562 197.32 39.442 197.32 38.882C197.32 38.322 196.76 38.192 195.99 38.192H195.26V39.562ZM195.26 36.8521H196.26C196.358 36.8707 196.459 36.8682 196.556 36.8447C196.653 36.8211 196.744 36.7771 196.823 36.7155C196.902 36.6539 196.966 36.5763 197.012 36.4877C197.058 36.3992 197.085 36.3017 197.09 36.202C197.09 35.622 196.62 35.612 196.09 35.612H195.26V36.842V36.8521ZM192.84 33.8521H196.37C198.03 33.8521 199.37 34.242 199.37 35.712C199.35 36.0422 199.248 36.362 199.073 36.643C198.899 36.924 198.657 37.1573 198.37 37.3221C198.74 37.4204 199.064 37.6433 199.288 37.9531C199.512 38.2628 199.622 38.6404 199.6 39.022C199.6 40.672 198.34 41.252 196.42 41.252H192.82V33.862L192.84 33.8521Z" fill="#A70230"/>
<path d="M134.431 35.582V36.382C134.502 37.4638 134.292 38.5456 133.821 39.522H135.871V35.582H134.421H134.431ZM138.301 33.8521V39.522H138.951V42.952H136.631V41.242H133.181V42.952H130.861V39.522H131.441C131.97 38.3393 132.201 37.0446 132.111 35.752V33.8521H138.261H138.301Z" fill="#A70230"/>
<path d="M121.842 36.712H122.042C122.802 36.712 123.232 36.562 123.232 35.962C123.211 35.8514 123.169 35.7459 123.108 35.6517C123.046 35.5575 122.967 35.4764 122.874 35.4131C122.781 35.3499 122.676 35.3057 122.566 35.2832C122.455 35.2607 122.342 35.2603 122.232 35.282C121.997 35.2594 121.762 35.3203 121.568 35.4538C121.375 35.5874 121.234 35.785 121.172 36.012H119.172C119.302 34.292 120.792 33.562 122.372 33.562C124.232 33.562 125.532 34.452 125.532 35.692C125.528 36.0415 125.424 36.3826 125.233 36.675C125.041 36.9674 124.77 37.1988 124.452 37.342C124.834 37.4393 125.171 37.6676 125.403 37.9873C125.635 38.307 125.748 38.6979 125.722 39.092C125.722 40.492 124.552 41.352 122.332 41.352C120.112 41.352 119.012 40.512 118.852 38.572H120.852C120.861 38.7323 120.903 38.8889 120.977 39.0316C121.051 39.1742 121.154 39.2997 121.279 39.3998C121.405 39.4999 121.55 39.5722 121.706 39.6123C121.861 39.6523 122.023 39.659 122.182 39.632C123.002 39.632 123.412 39.292 123.412 38.852C123.412 38.182 122.782 38.072 122.022 38.072H121.822V36.722L121.842 36.712Z" fill="#A70230"/>
<path d="M99.7017 37.1219H100.702C100.827 37.1505 100.957 37.1492 101.081 37.1183C101.206 37.0875 101.321 37.0278 101.419 36.9442C101.516 36.8605 101.592 36.7552 101.641 36.6367C101.691 36.5182 101.711 36.3899 101.702 36.2619C101.702 35.5719 100.922 35.4819 100.412 35.4819H99.7217V37.1219H99.7017ZM99.7017 41.1219H97.2617V33.7319H100.822C102.952 33.7319 103.972 34.7319 103.972 36.2319C103.972 37.7319 103.032 38.8319 100.902 38.8319H99.6817V41.1319L99.7017 41.1219Z" fill="#A70230"/>
</svg>
