<svg width="422" height="240" viewBox="0 0 422 240" fill="none" xmlns="http://www.w3.org/2000/svg">
<path d="M65.8462 181V53M80.5 142.6H2L47.5 79" stroke="#A70230" stroke-width="4" stroke-linecap="round" stroke-linejoin="round" fill="white"/>
<path d="M404.846 181V53M419.5 142.6H341L386.5 79" stroke="#A70230" stroke-width="4" stroke-linecap="round" stroke-linejoin="round" fill="white" />
<circle cx="212" cy="119" r="117" stroke="#A70230" stroke-width="4" fill="white"/>
<circle cx="212" cy="119" r="96" stroke="#A70230" stroke-width="4" fill="white"/>
<path d="M322.5 7V22M315 14.5H330" stroke="#A70230" stroke-width="4" stroke-linecap="round" stroke-linejoin="round" fill="white"/>
<path d="M92.5 211V238M79 224.5H106" stroke="#A70230" stroke-width="4" stroke-linecap="round" stroke-linejoin="round" fill="white"/>
<circle cx="334.5" cy="36.5" r="4.5" stroke="#A70230" stroke-width="4" fill="white" />
<path d="M243.88 153.424C242.086 148.063 239.993 143.005 237.452 138.173C237.527 138.097 237.601 137.946 237.751 137.871C243.506 131.302 245.972 122.091 241.563 113.031C237.751 105.179 229.305 98.6109 218.244 94.383C207.556 90.2305 194.401 88.2675 180.798 89.249C179.752 89.3245 178.93 90.2305 179.005 91.2875C179.079 91.816 179.304 92.3445 179.752 92.6465C186.628 98.6109 189.095 107.595 191.636 116.58C193.131 121.865 194.551 127.074 196.942 131.906C196.942 131.982 197.017 131.982 197.017 132.057C202.772 143.307 211.592 147.384 219.963 146.855C223.401 146.629 226.689 145.647 229.754 144.137C231.473 143.231 233.117 142.174 234.612 140.966C236.779 145.345 238.722 149.875 240.292 154.707C240.591 155.689 241.712 156.217 242.684 155.915C243.73 155.462 244.253 154.405 243.88 153.424ZM229.006 124.734C222.504 116.353 214.432 109.181 204.417 103.518C203.52 102.99 202.324 103.292 201.875 104.273C201.352 105.179 201.651 106.387 202.623 106.84C212.115 112.276 219.888 119.071 226.091 127.074C228.558 130.321 230.8 133.718 232.818 137.267C231.323 138.701 229.754 139.834 228.035 140.664C225.419 142.023 222.653 142.854 219.738 143.005C212.713 143.458 205.313 139.985 200.306 130.245V130.17C198.138 125.64 196.718 120.581 195.298 115.447C192.981 107.293 190.739 99.1394 185.283 92.722C196.793 92.42 207.78 94.3075 216.898 97.8559C227.063 101.782 234.836 107.671 238.199 114.617C241.712 121.789 239.918 129.113 235.509 134.473C233.565 131.076 231.398 127.829 229.006 124.734Z" fill="#A70230"/>
</svg>
