<svg width="63" height="61" viewBox="0 0 63 61" fill="none" xmlns="http://www.w3.org/2000/svg">
<path d="M62.7843 33.6818C62.22 28.0054 59.684 22.6539 55.6433 18.6131C52.1902 15.1601 47.9637 12.9411 43.5164 11.9545V8.83524C45.3328 8.38334 46.683 6.73915 46.683 4.78485C46.683 2.48325 44.8106 0.61084 42.509 0.61084H33.6699C31.3683 0.61084 29.4959 2.48325 29.4959 4.78485C29.4959 6.73903 30.846 8.38322 32.6623 8.83524V11.9632C28.2287 12.954 24.0161 15.1699 20.5728 18.6132C19.8193 19.3668 19.1244 20.1572 18.4884 20.9788C18.4576 20.9765 18.4267 20.9741 18.3953 20.9741H9.64696C8.96905 20.9741 8.41931 21.5237 8.41931 22.2018C8.41931 22.8798 8.96905 23.4294 9.64696 23.4294H16.8179C15.9178 24.9364 15.192 26.5189 14.6396 28.148H1.27843C0.600523 28.148 0.0507812 28.6976 0.0507812 29.3757C0.0507812 30.0537 0.600523 30.6033 1.27843 30.6033H13.9458C13.592 32.1564 13.389 33.737 13.3365 35.322H7.90775C7.22984 35.322 6.68009 35.8717 6.68009 36.5497C6.68009 37.2277 7.22984 37.7773 7.90775 37.7773H13.3757C13.4793 39.3664 13.7348 40.9471 14.1422 42.4961H6.18903C5.51113 42.4961 4.96138 43.0457 4.96138 43.7237C4.96138 44.4018 5.51113 44.9514 6.18903 44.9514H14.9257C16.1301 48.1372 18.0122 51.1233 20.5728 53.6839C24.6174 57.7285 29.9744 60.2651 35.6567 60.8265C36.4677 60.9065 37.2793 60.9462 38.0898 60.9462C42.8803 60.9462 47.61 59.5598 51.6232 56.9464C52.1913 56.5764 52.352 55.8158 51.982 55.2477C51.612 54.6795 50.8515 54.5188 50.2833 54.8888C41.4986 60.6093 29.7337 59.3725 22.3089 51.9478C13.5973 43.2361 13.5973 29.0613 22.3089 20.3495C31.0205 11.638 45.1953 11.638 53.9071 20.3495C61.322 27.7645 62.5656 39.5194 56.864 48.2998C56.4947 48.8684 56.6564 49.6288 57.2249 49.998C57.7938 50.3673 58.554 50.2056 58.9231 49.6369C61.9694 44.9455 63.3407 39.2793 62.7843 33.6818ZM31.9512 4.78497C31.9512 3.83723 32.7221 3.06626 33.6699 3.06626H42.509C43.4567 3.06626 44.2277 3.83723 44.2277 4.78497C44.2277 5.73272 43.4567 6.50369 42.509 6.50369H42.2887H33.89H33.6699C32.7221 6.50369 31.9512 5.7326 31.9512 4.78497ZM35.1176 11.5411V8.95899H41.0611V11.5367C39.0875 11.302 37.0908 11.3034 35.1176 11.5411Z" fill="#A70230"/>
<path d="M54.7755 51.5874C54.4514 51.5874 54.1359 51.7188 53.9077 51.9471C53.6781 52.1754 53.5479 52.4922 53.5479 52.815C53.5479 53.1379 53.6781 53.4546 53.9077 53.683C54.1359 53.9125 54.4515 54.0427 54.7755 54.0427C55.0984 54.0427 55.4139 53.9125 55.6434 53.683C55.8718 53.4546 56.0031 53.1379 56.0031 52.815C56.0031 52.4922 55.8719 52.1754 55.6434 51.9471C55.4139 51.7188 55.0982 51.5874 54.7755 51.5874Z" fill="#A70230"/>
<path d="M38.1079 17.1038C27.6068 17.1038 19.0635 25.647 19.0635 36.1482C19.0635 46.6494 27.6068 55.1926 38.1079 55.1926C48.609 55.1926 57.1523 46.6494 57.1523 36.1482C57.1523 25.647 48.609 17.1038 38.1079 17.1038ZM38.1079 52.7373C28.9606 52.7373 21.5188 45.2954 21.5188 36.1482C21.5188 27.001 28.9606 19.5591 38.1079 19.5591C47.2552 19.5591 54.697 27.001 54.697 36.1482C54.697 45.2954 47.2552 52.7373 38.1079 52.7373Z" fill="#A70230"/>
<path d="M45.8733 26.6467L39.7928 32.7271C39.2843 32.4757 38.7123 32.3336 38.1077 32.3336C37.503 32.3336 36.9311 32.4757 36.4226 32.7271L33.7013 30.0058C33.2218 29.5264 32.4447 29.5264 31.965 30.0058C31.4856 30.4852 31.4856 31.2625 31.965 31.7419L34.6863 34.4632C34.4348 34.9717 34.2929 35.5437 34.2929 36.1483C34.2929 38.2518 36.0041 39.9631 38.1077 39.9631C40.2113 39.9631 41.9225 38.2518 41.9225 36.1483C41.9225 35.5437 41.7805 34.9717 41.529 34.4632L47.4311 28.5612L47.6095 28.3828C48.0889 27.9034 48.0889 27.1261 47.6095 26.6467C47.1301 26.1673 46.353 26.1673 45.8733 26.6467ZM38.1077 37.5079C37.3581 37.5079 36.7482 36.898 36.7482 36.1484C36.7482 35.3988 37.3581 34.7889 38.1077 34.7889C38.8573 34.7889 39.4672 35.3988 39.4672 36.1484C39.4672 36.898 38.8573 37.5079 38.1077 37.5079Z" fill="#A70230"/>
<path d="M51.2342 34.9355H50.0968C49.4189 34.9355 48.8691 35.4852 48.8691 36.1632C48.8691 36.8412 49.4189 37.3908 50.0968 37.3908H51.2342C51.9121 37.3908 52.4618 36.8412 52.4618 36.1632C52.4618 35.4852 51.9121 34.9355 51.2342 34.9355Z" fill="#A70230"/>
<path d="M26.1198 34.9058H24.9825C24.3046 34.9058 23.7549 35.4554 23.7549 36.1334C23.7549 36.8114 24.3046 37.361 24.9825 37.361H26.1198C26.7977 37.361 27.3474 36.8114 27.3474 36.1334C27.3474 35.4554 26.7977 34.9058 26.1198 34.9058Z" fill="#A70230"/>
<path d="M38.1231 25.3875C38.801 25.3875 39.3508 24.8379 39.3508 24.1598V23.0226C39.3508 22.3445 38.801 21.7949 38.1231 21.7949C37.4452 21.7949 36.8955 22.3445 36.8955 23.0226V24.1598C36.8955 24.8379 37.4452 25.3875 38.1231 25.3875Z" fill="#A70230"/>
<path d="M38.0929 46.9092C37.415 46.9092 36.8652 47.4588 36.8652 48.1368V49.2741C36.8652 49.9521 37.415 50.5017 38.0929 50.5017C38.7708 50.5017 39.3205 49.9521 39.3205 49.2741V48.1368C39.3205 47.4588 38.7708 46.9092 38.0929 46.9092Z" fill="#A70230"/>
<path d="M1.27841 42.4956C0.955546 42.4956 0.638817 42.627 0.410477 42.8553C0.182138 43.0836 0.0507812 43.4004 0.0507812 43.7232C0.0507812 44.0473 0.182015 44.3628 0.410477 44.5912C0.63894 44.8195 0.955546 44.9509 1.27841 44.9509C1.60128 44.9509 1.91801 44.8195 2.14623 44.5912C2.37457 44.3628 2.50604 44.0461 2.50604 43.7232C2.50604 43.4004 2.37469 43.0836 2.14623 42.8553C1.91801 42.627 1.60128 42.4956 1.27841 42.4956Z" fill="#A70230"/>
</svg>
