<svg width="20" height="10" viewBox="0 0 20 10" xmlns="http://www.w3.org/2000/svg">
<path fill-rule="evenodd" clip-rule="evenodd" d="M15.3002 0.46967C14.9874 0.176777 14.4803 0.176777 14.1676 0.46967C13.8548 0.762563 13.8548 1.23744 14.1676 1.53033L17.0527 4.23218L0.851665 4.23218C0.409349 4.23218 0.0507812 4.56797 0.0507812 4.98218C0.0507812 5.39639 0.409349 5.73218 0.851665 5.73218L17.0908 5.73218L14.1676 8.46967C13.8548 8.76256 13.8548 9.23744 14.1676 9.53033C14.4803 9.82322 14.9874 9.82322 15.3002 9.53033L19.5716 5.53033C19.733 5.37916 19.8111 5.17952 19.8059 4.98144C19.8056 4.72534 19.6683 4.49928 19.4589 4.36415L15.3002 0.46967Z" />
</svg>
