<svg width="18" height="18" viewBox="0 0 18 18" fill="none" xmlns="http://www.w3.org/2000/svg">
<g clip-path="url(#clip0)">
<path fill-rule="evenodd" clip-rule="evenodd" d="M9.67097 1.10588C9.28045 0.715357 8.64728 0.715357 8.25676 1.10588C7.86624 1.49641 7.86624 2.12957 8.25676 2.5201L13.5497 7.81299H1.96387C1.41158 7.81299 0.963867 8.2607 0.963867 8.81299C0.963867 9.36527 1.41158 9.81299 1.96387 9.81299H13.5497L8.25676 15.1059C7.86624 15.4964 7.86624 16.1296 8.25676 16.5201C8.64728 16.9106 9.28045 16.9106 9.67097 16.5201L16.6703 9.52081C16.6727 9.5184 16.6751 9.51597 16.6775 9.51354C16.854 9.33378 16.9631 9.08762 16.9639 8.81599C16.9639 8.81499 16.9639 8.81399 16.9639 8.81299C16.9639 8.81199 16.9639 8.81099 16.9639 8.80999C16.9635 8.67549 16.9365 8.54724 16.888 8.4302C16.8403 8.31494 16.7701 8.20678 16.6775 8.11244C16.6751 8.11004 16.6727 8.10765 16.6704 8.10527M9.67097 1.10588L16.6704 8.10527Z" fill="#A70230"/>
</g>
<defs>
<clipPath id="clip0">
<rect width="17" height="17" fill="white" transform="translate(0.959961 0.396973)"/>
</clipPath>
</defs>
</svg>
