<svg width="16" height="17" viewBox="0 0 16 17" fill="none" xmlns="http://www.w3.org/2000/svg">
<path fill-rule="evenodd" clip-rule="evenodd" d="M11.8423 1C11.8423 0.447715 11.3946 0 10.8423 0C10.29 0 9.84229 0.447715 9.84229 1V1.40369H6.22729V1C6.22729 0.447715 5.77958 0 5.22729 0C4.67501 0 4.22729 0.447715 4.22729 1V1.40369H3.12243C1.79491 1.40369 0.71875 2.47986 0.71875 3.80738V6.61472V13.6332C0.71875 14.9607 1.79491 16.0369 3.12243 16.0369H12.9482C14.2757 16.0369 15.3519 14.9607 15.3519 13.6332V3.80738C15.3519 2.47986 14.2757 1.40369 12.9482 1.40369H11.8423V1ZM2.71875 7.61472V13.6332C2.71875 13.8562 2.89949 14.0369 3.12243 14.0369H12.9482C13.1711 14.0369 13.3519 13.8562 13.3519 13.6332V7.61472H2.71875ZM13.3519 5.61472H2.71875V3.80738C2.71875 3.58442 2.89949 3.40369 3.12243 3.40369H4.22729V3.80731C4.22729 4.35959 4.67501 4.80731 5.22729 4.80731C5.77958 4.80731 6.22729 4.35959 6.22729 3.80731V3.40369H9.84229V3.80731C9.84229 4.35959 10.29 4.80731 10.8423 4.80731C11.3946 4.80731 11.8423 4.35959 11.8423 3.80731V3.40369H12.9482C13.1711 3.40369 13.3519 3.58442 13.3519 3.80738V5.61472Z" fill="#A70230"/>
</svg>
