<svg width="17" height="17" viewBox="0 0 17 17" fill="none" xmlns="http://www.w3.org/2000/svg">
<path fill-rule="evenodd" clip-rule="evenodd" d="M9.155 0.505394C9.42253 0.503602 9.67962 0.609086 9.8688 0.798264L16.3213 7.25073C16.5112 7.4407 16.6168 7.6991 16.6141 7.96774C16.6115 8.23638 16.5008 8.49264 16.3071 8.67881L8.45827 16.2228C8.272 16.4019 8.02366 16.5019 7.7653 16.5019H1.56909C1.30387 16.5019 1.04952 16.3965 0.86198 16.209C0.674444 16.0214 0.569088 15.7671 0.569092 15.5018L0.569171 9.30404C0.569175 9.04347 0.670888 8.79318 0.852657 8.60648L8.44518 0.807798C8.63181 0.616104 8.88747 0.507185 9.155 0.505394ZM9.17123 2.92912L2.56917 9.71045L2.5691 14.5019H7.36264L14.1858 7.9437L9.17123 2.92912Z" fill="#A70230"/>
<path d="M5.78432 12.3106C5.78432 12.8629 5.3366 13.3106 4.78432 13.3106C4.23203 13.3106 3.78432 12.8629 3.78432 12.3106C3.78432 11.7583 4.23203 11.3106 4.78432 11.3106C5.3366 11.3106 5.78432 11.7583 5.78432 12.3106Z" fill="#A70230"/>
</svg>
