<svg width="29" height="20" viewBox="0 0 29 20" xmlns="http://www.w3.org/2000/svg">
<path fill-rule="evenodd" clip-rule="evenodd" d="M4.5 0C3.94772 0 3.5 0.447715 3.5 1C3.5 1.55228 3.94772 2 4.5 2H18V7C18 8.10457 18.8954 9 20 9H25.5194L27 10.8508V15H24.8551C24.4248 13.5543 23.0855 12.5 21.5 12.5C19.9145 12.5 18.5752 13.5543 18.1449 15H13.8551C13.4248 13.5543 12.0855 12.5 10.5 12.5C8.91449 12.5 7.57521 13.5543 7.14494 15H4C3.44772 15 3 15.4477 3 16C3 16.5523 3.44772 17 4 17H7.14494C7.57521 18.4457 8.91449 19.5 10.5 19.5C12.0855 19.5 13.4248 18.4457 13.8551 17H18.1449C18.5752 18.4457 19.9145 19.5 21.5 19.5C23.0855 19.5 24.4248 18.4457 24.8551 17H27C28.1046 17 29 16.1046 29 15V10.8508C29 10.3966 28.8454 9.95602 28.5617 9.60139L26.8358 7.44396L24.1622 2.5423C23.8117 1.89977 23.1383 1.5 22.4064 1.5H19.937C19.715 0.637387 18.9319 0 18 0H4.5ZM20 16C20 16.8284 20.6716 17.5 21.5 17.5C22.3284 17.5 23 16.8284 23 16C23 15.1716 22.3284 14.5 21.5 14.5C20.6716 14.5 20 15.1716 20 16ZM9 16C9 16.8284 9.67157 17.5 10.5 17.5C11.3284 17.5 12 16.8284 12 16C12 15.1716 11.3284 14.5 10.5 14.5C9.67157 14.5 9 15.1716 9 16ZM20 7V3.5H22.4064L24.3155 7H20ZM0 5.5C0 4.94772 0.447715 4.5 1 4.5H9C9.55229 4.5 10 4.94772 10 5.5C10 6.05228 9.55229 6.5 9 6.5H1C0.447715 6.5 0 6.05228 0 5.5ZM1 8.5C0.447715 8.5 0 8.94771 0 9.5C0 10.0523 0.447715 10.5 1 10.5H9C9.55229 10.5 10 10.0523 10 9.5C10 8.94771 9.55229 8.5 9 8.5H1Z" />
</svg>
