<svg width="82" height="71" viewBox="0 0 82 71" fill="none" xmlns="http://www.w3.org/2000/svg">
<path fill-rule="evenodd" clip-rule="evenodd" d="M58.1806 14.207C61.3191 14.207 63.8633 11.6627 63.8633 8.52418C63.8633 5.38566 61.3191 2.84139 58.1806 2.84139C55.042 2.84139 52.4978 5.38566 52.4978 8.52418C52.4978 11.6627 55.042 14.207 58.1806 14.207ZM58.1806 17.0484C62.8883 17.0484 66.7047 13.232 66.7047 8.52418C66.7047 3.8164 62.8883 0 58.1806 0C53.4728 0 49.6564 3.8164 49.6564 8.52418C49.6564 13.232 53.4728 17.0484 58.1806 17.0484Z" fill="white"/>
<path fill-rule="evenodd" clip-rule="evenodd" d="M50.2247 7.76689C50.2247 6.98226 50.8608 6.34619 51.6454 6.34619H72.4823C73.2669 6.34619 73.903 6.98226 73.903 7.76689C73.903 8.55152 73.2669 9.18758 72.4823 9.18758H51.6454C50.8608 9.18758 50.2247 8.55152 50.2247 7.76689Z" fill="white"/>
<path fill-rule="evenodd" clip-rule="evenodd" d="M5.42468 14.9651C5.42468 14.1805 6.06075 13.5444 6.84538 13.5444H8.17136C8.95599 13.5444 9.59206 14.1805 9.59206 14.9651C9.59206 15.7498 8.95599 16.3858 8.17136 16.3858H6.84538C6.06075 16.3858 5.42468 15.7498 5.42468 14.9651Z" fill="white"/>
<path fill-rule="evenodd" clip-rule="evenodd" d="M0.5 47.3567C0.5 46.5721 1.13607 45.936 1.9207 45.936L12.9074 45.936C13.692 45.936 14.3281 46.5721 14.3281 47.3567C14.3281 48.1414 13.692 48.7774 12.9074 48.7774L1.9207 48.7774C1.13607 48.7774 0.5 48.1414 0.5 47.3567Z" fill="white"/>
<path fill-rule="evenodd" clip-rule="evenodd" d="M3.72034 8.71367C3.72034 7.92904 4.3564 7.29297 5.14103 7.29297H18.022C18.8066 7.29297 19.4427 7.92904 19.4427 8.71367C19.4427 9.49829 18.8066 10.1344 18.022 10.1344H5.14103C4.3564 10.1344 3.72034 9.49829 3.72034 8.71367Z" fill="white"/>
<path fill-rule="evenodd" clip-rule="evenodd" d="M37.438 2.08378C37.438 1.29915 38.0741 0.663086 38.8587 0.663086L43.9732 0.663087C44.7578 0.663087 45.3939 1.29915 45.3939 2.08378C45.3939 2.86841 44.7578 3.50448 43.9732 3.50448L38.8587 3.50448C38.0741 3.50448 37.438 2.86841 37.438 2.08378Z" fill="white"/>
<path d="M46.9063 18.917L35.2944 37.136L33.601 39.7936C32.1822 42.0213 29.2252 42.6767 26.9976 41.256L17.7725 35.3762C15.5449 33.9574 14.8895 31.0005 16.3101 28.7728L17.8767 26.3141L27.7894 10.7603L29.6154 7.89618C31.0342 5.66852 33.9912 5.01311 36.2188 6.4338L45.4439 12.3136C47.6716 13.7324 48.327 16.6893 46.9063 18.917Z" stroke="white" stroke-width="3" stroke-miterlimit="10" fill="transparent"/>
<path fill-rule="evenodd" clip-rule="evenodd" d="M26.096 11.9431C26.5093 11.2761 27.385 11.0705 28.052 11.4837L43.4902 21.0498C44.1572 21.463 44.3628 22.3388 43.9495 23.0057C43.5363 23.6727 42.6606 23.8783 41.9936 23.4651L26.5554 13.8991C25.8884 13.4858 25.6827 12.6101 26.096 11.9431ZM17.4036 25.2645C17.8352 24.6092 18.7163 24.4279 19.3715 24.8595L35.1886 35.2779C35.8439 35.7095 36.0252 36.5906 35.5936 37.2459C35.162 37.9011 34.2809 38.0824 33.6256 37.6508L17.8086 27.2324C17.1533 26.8008 16.972 25.9197 17.4036 25.2645Z" fill="white"/>
<path fill-rule="evenodd" clip-rule="evenodd" d="M38.1041 6.75624C38.7667 7.17645 38.9633 8.05425 38.5431 8.71688L33.618 16.4834C33.1978 17.146 32.32 17.3425 31.6573 16.9223C30.9947 16.5021 30.7982 15.6243 31.2184 14.9617L36.1435 7.19519C36.5637 6.53257 37.4415 6.33604 38.1041 6.75624ZM44.0605 10.6329C44.7268 11.0473 44.931 11.9233 44.5166 12.5896L39.6862 20.3561C39.2718 21.0223 38.3958 21.2265 37.7295 20.8121C37.0632 20.3978 36.859 19.5217 37.2734 18.8554L42.1038 11.089C42.5182 10.4227 43.3942 10.2185 44.0605 10.6329ZM53.6881 24.8526C54.4519 24.6732 55.2165 25.1471 55.3959 25.9109L57.9531 36.8029C58.1325 37.5668 57.6586 38.3314 56.8948 38.5108C56.1309 38.6901 55.3663 38.2163 55.1869 37.4524L52.6297 26.5604C52.4503 25.7965 52.9242 25.0319 53.6881 24.8526ZM34.0096 36.764C34.2628 36.0213 35.0701 35.6245 35.8127 35.8777L52.4822 41.5605C53.2249 41.8136 53.6217 42.6209 53.3685 43.3636C53.1153 44.1062 52.308 44.5031 51.5654 44.2499L34.8959 38.5671C34.1532 38.3139 33.7564 37.5066 34.0096 36.764Z" fill="white"/>
<path fill-rule="evenodd" clip-rule="evenodd" d="M60.6876 17.3456C61.4534 17.8995 62.228 18.5468 62.6266 19.1675C62.833 19.4886 62.9651 19.8805 63.0564 20.1976C63.1573 20.5479 63.2488 20.9565 63.3327 21.3934C63.5008 22.2692 63.6538 23.3435 63.7899 24.4655C64.0011 26.2073 64.1777 28.1163 64.3076 29.6785L76.3343 30.1276C79.2967 30.2359 81.6046 32.7263 81.4964 35.6852L81.4964 35.6864C81.3856 38.6472 78.8961 40.956 75.9359 40.8453C75.9358 40.8453 75.9359 40.8453 75.9359 40.8453L59.7949 40.2429C58.3025 40.1871 56.9794 39.5275 56.0468 38.5095L53.5241 42.731L57.7477 46.9547C59.1725 48.3794 60.0746 50.1207 60.0746 52.1866C60.0746 53.0646 59.7823 53.9123 59.4089 54.6162C59.0303 55.33 58.5194 55.9894 57.9655 56.5036L57.9652 56.5038L44.3971 69.0946C44.3969 69.0947 44.3968 69.0948 44.3966 69.095C42.2265 71.11 38.8332 70.9834 36.8183 68.812C34.8026 66.6417 34.9293 63.2476 37.1014 61.2326L37.104 61.2302L46.1343 52.9374L40.3765 48.4409L20.5294 66.8574C20.5292 66.8576 20.5291 66.8577 20.5289 66.8579C18.3588 68.8729 14.9654 68.7463 12.9506 66.5749C10.9349 64.4046 11.0616 61.0105 13.2337 58.9955L29.2738 44.1126L47.0489 16.0801L47.0521 16.0751L48.2455 16.846C47.0521 16.0751 47.0526 16.0744 47.0531 16.0737L47.054 16.0721L47.0561 16.069L47.0604 16.0624C47.0634 16.0579 47.0667 16.053 47.0701 16.0478C47.0771 16.0375 47.0851 16.0259 47.0941 16.0131C47.1121 15.9876 47.1342 15.9574 47.1605 15.9231C47.2133 15.8546 47.2835 15.7698 47.373 15.6733C47.5522 15.4801 47.8083 15.2412 48.1565 14.9943C48.8587 14.4966 49.9058 13.988 51.3951 13.7398C52.3845 13.5749 53.5287 13.82 54.543 14.1492C55.6069 14.4946 56.74 15.0047 57.7946 15.5633C58.8516 16.1232 59.8642 16.75 60.6876 17.3456ZM49.4203 17.6462C49.4276 17.6374 49.4394 17.6237 49.456 17.6058C49.5115 17.5459 49.6217 17.4386 49.7997 17.3124C50.1497 17.0643 50.7943 16.7205 51.8622 16.5425C52.1514 16.4943 52.7521 16.5553 53.6658 16.8519C54.5298 17.1323 55.5079 17.5675 56.4646 18.0742C57.4188 18.5796 58.3175 19.138 59.0224 19.6479C59.7591 20.1807 60.13 20.5519 60.2269 20.6896C60.2276 20.6944 60.2659 20.7753 60.326 20.9839C60.394 21.2202 60.4669 21.5367 60.5422 21.9289C60.6924 22.7114 60.8363 23.712 60.9692 24.8077C61.2344 26.9944 61.4456 29.4734 61.5758 31.1604L61.6733 32.4235L76.2306 32.9671C77.6212 33.0179 78.7078 34.1872 78.6569 35.5812M49.4203 17.6462L31.4763 45.9451L15.1662 61.0785C14.1446 62.0262 14.0856 63.6217 15.0325 64.6413L15.0331 64.6419C15.9808 65.6635 17.5761 65.7224 18.5958 64.7755L18.5962 64.775L40.2178 44.7119L50.5261 52.7619L39.0338 63.3157C39.033 63.3165 39.0322 63.3173 39.0313 63.318C38.0121 64.266 37.9541 65.8596 38.9002 66.8784L38.9008 66.879C39.8485 67.9006 41.4439 67.9595 42.4635 67.0126L42.4639 67.0122L56.0322 54.4212C56.0323 54.4212 56.0324 54.4211 56.0325 54.421C56.3518 54.1245 56.6682 53.7194 56.8988 53.2848C57.1346 52.8401 57.2332 52.4553 57.2332 52.1866C57.2332 51.0323 56.7536 49.9789 55.7386 48.9638L49.9491 43.1744L55.3158 34.1936H57.3017L57.5198 35.3512C57.7337 36.4859 58.7057 37.3588 59.9008 37.4035C59.9008 37.4035 59.9008 37.4035 59.9008 37.4035L76.0418 38.0059C77.4341 38.058 78.6042 36.9728 78.6569 35.5812" fill="white"/>
</svg>
