<svg width="15" height="17" viewBox="0 0 15 17" xmlns="http://www.w3.org/2000/svg">
<path d="M4.25195 3.48041C5.19925 2.5331 6.48407 2.00092 7.82376 2.00092C9.16345 2.00092 10.4483 2.5331 11.3956 3.48041C12.3429 4.42771 12.8751 5.71253 12.8751 7.05221C12.8751 9.00356 11.5965 10.9449 10.1235 12.4998C9.40738 13.2557 8.68792 13.8756 8.14635 14.3068C8.02954 14.3998 7.92138 14.4838 7.82376 14.5581C7.72614 14.4838 7.61798 14.3998 7.50117 14.3068C6.9596 13.8756 6.24013 13.2557 5.52406 12.4998C4.05102 10.9449 2.77246 9.00356 2.77246 7.05221C2.77246 5.71253 3.30465 4.42771 4.25195 3.48041ZM7.26855 16.6247C7.26882 16.6249 7.26906 16.625 7.82376 15.793L7.26906 16.625C7.60496 16.849 8.04256 16.849 8.37846 16.625L7.82376 15.793C8.37846 16.625 8.3787 16.6249 8.37897 16.6247L8.37961 16.6243L8.38132 16.6231L8.38639 16.6197L8.40298 16.6085C8.41687 16.5991 8.43637 16.5857 8.46109 16.5686C8.51052 16.5344 8.58091 16.4849 8.66927 16.4211C8.84588 16.2936 9.09488 16.1081 9.3922 15.8714C9.98525 15.3991 10.7786 14.7163 11.5754 13.8753C13.128 12.2364 14.8751 9.80744 14.8751 7.05221C14.8751 5.18209 14.1322 3.38857 12.8098 2.06619C11.4874 0.743818 9.69388 0.000915527 7.82376 0.000915527C5.95364 0.000915527 4.16011 0.743818 2.83774 2.06619C1.51536 3.38857 0.772461 5.18209 0.772461 7.05221C0.772461 9.80744 2.51955 12.2364 4.07216 13.8753C4.86891 14.7163 5.66227 15.3991 6.25532 15.8714C6.55263 16.1081 6.80164 16.2936 6.97825 16.4211C7.06661 16.4849 7.137 16.5344 7.18643 16.5686C7.21115 16.5857 7.23064 16.5991 7.24454 16.6085L7.26113 16.6197L7.2662 16.6231L7.26791 16.6243L7.26855 16.6247ZM6.80662 7.05221C6.80662 6.49048 7.26199 6.03511 7.82372 6.03511C8.38544 6.03511 8.84082 6.49048 8.84082 7.05221C8.84082 7.61394 8.38544 8.06931 7.82372 8.06931C7.26199 8.06931 6.80662 7.61394 6.80662 7.05221ZM7.82372 4.03511C6.15742 4.03511 4.80662 5.38591 4.80662 7.05221C4.80662 8.71851 6.15742 10.0693 7.82372 10.0693C9.49001 10.0693 10.8408 8.71851 10.8408 7.05221C10.8408 5.38591 9.49001 4.03511 7.82372 4.03511Z" />
</svg>
