<svg width="227" height="46" viewBox="0 0 227 46" fill="none" xmlns="http://www.w3.org/2000/svg">
<path d="M78.0359 11.7363V27.3699H72.8573V15.3844H67.9505V27.3699H62.7719V11.7363H78.0683H78.0359Z" fill="#009580"/>
<path d="M90.7818 11.7364L96.4525 27.37H91.2738L90.6265 25.3064H85.4478L84.8523 27.37H79.816L85.4931 11.73H90.7754L90.7818 11.7364ZM89.772 22.0544L88.1019 16.4514L86.4965 22.0544H89.7785H89.772Z" fill="#009580"/>
<path d="M113.691 11.7363V27.3699H108.512V15.3844H104.79V19.8566C104.79 26.1561 102.79 27.7213 99.8186 27.7213C98.8696 27.7335 97.9231 27.624 97.0027 27.3955V23.7219C97.3843 23.846 97.7862 23.898 98.1873 23.8752C99.223 23.8752 99.8186 23.4599 99.8186 19.7927V11.7363H113.704H113.691Z" fill="#009580"/>
<path d="M121.964 17.186H124.43C128.437 17.186 130.968 18.9685 130.968 22.3802C130.968 25.7919 128.482 27.3763 124.365 27.3763H116.772V11.7363H121.951V17.186H121.964ZM121.964 23.7219H123.906C125.2 23.7219 126.152 23.4599 126.152 22.2908C126.152 20.9235 124.942 20.8341 123.291 20.8341H121.996V23.7219H121.964ZM138.406 27.3699H133.227V11.7363H138.406V27.3699Z" fill="#009580"/>
<path d="M146.465 11.7363V15.7741C146.465 17.0136 147.19 17.5758 148.446 17.5758C149.241 17.5932 150.035 17.4985 150.803 17.2947V11.7363H155.981V27.3699H150.803V21.0833C149.877 21.3005 149.217 21.4283 146.465 21.4283C144.135 21.4283 141.287 19.9972 141.287 16.6047V11.7363H146.465Z" fill="#009580"/>
<path d="M158.337 21.1919H168.552V23.428H158.337V21.1919Z" fill="#009580"/>
<path d="M179.195 11.7363L181.991 21.4858L184.787 11.7363H191.06V27.3699H186.393V22.5911C186.406 20.8337 186.516 19.0784 186.723 17.333H186.678L183.797 27.3699H180.185L177.304 17.333H177.259C177.414 18.7002 177.589 20.8086 177.589 22.0672V27.3636H172.922V11.7363H179.195Z" fill="#009580"/>
<path d="M203.8 11.7363L209.477 27.3763H204.298L203.651 25.3127H198.472L197.876 27.3763H192.84L198.517 11.7363H203.8ZM202.79 22.0544L201.12 16.4513L199.514 22.0544H202.796H202.79Z" fill="#009580"/>
<path d="M223.582 11.7363V15.3844H216.461V27.3699H211.283V11.7363H223.582Z" fill="#009580"/>
<path d="M62.9595 37.3942C62.9288 37.717 62.9816 38.0422 63.1129 38.3395C63.2442 38.6367 63.4498 38.8961 63.7104 39.0936C64.2871 39.4216 64.9496 39.5729 65.6136 39.528C66.1678 39.5443 66.718 39.4304 67.219 39.1958C67.4814 39.085 67.7042 38.8992 67.8588 38.6624C68.0133 38.4256 68.0926 38.1486 68.0864 37.8669C68.1055 37.5909 68.051 37.3147 67.9284 37.0658C67.8057 36.817 67.6191 36.6042 67.3873 36.4486C66.8824 36.1568 66.3013 36.019 65.7172 36.0525H64.7332V35.0303H65.4453C65.9761 35.0466 66.5022 34.9277 66.973 34.6853C67.1877 34.5916 67.3704 34.4386 67.4991 34.2448C67.6277 34.0509 67.6968 33.8245 67.698 33.5928C67.7165 33.3235 67.6539 33.0548 67.5179 32.8206C67.382 32.5864 67.1789 32.3971 66.9341 32.2767C66.4536 32.0761 65.9342 31.9824 65.4129 32.0023C64.8915 32.0222 64.381 32.1551 63.9176 32.3917C63.6643 32.544 63.4573 32.7608 63.3184 33.0194C63.1794 33.278 63.1136 33.5687 63.1278 33.8611H61.9367C61.9274 33.171 62.1816 32.5027 62.6488 31.9892C63.0393 31.5987 63.5118 31.2974 64.0329 31.1064C64.5541 30.9155 65.1113 30.8395 65.6654 30.8839C66.5248 30.8485 67.3717 31.0957 68.0734 31.5867C68.3702 31.7984 68.6102 32.0784 68.7727 32.4024C68.9351 32.7263 69.0151 33.0845 69.0056 33.4458C69.0098 33.7089 68.9592 33.97 68.8567 34.213C68.7542 34.4559 68.6022 34.6754 68.4101 34.8578C68.1261 35.1571 67.7553 35.3624 67.3484 35.4455C67.9193 35.5473 68.4391 35.8352 68.8243 36.2633C69.2131 36.7149 69.4163 37.2939 69.394 37.8861C69.4133 38.3202 69.3096 38.751 69.0946 39.1301C68.8797 39.5093 68.5619 39.8219 68.177 40.0328C67.4027 40.4581 66.525 40.6658 65.6395 40.6333C64.1031 40.6333 63.0243 40.2968 62.4028 39.6239C61.9195 38.9806 61.6895 38.1859 61.7555 37.3878H62.9466L62.9595 37.3942Z" fill="#009580"/>
<path d="M78.7156 37.6945H74.9611L73.9772 40.4034H72.6825L76.2169 31.1267H77.654L81.046 40.4034H79.6219L78.7156 37.6945ZM75.3495 36.5828H78.2625L76.8772 32.5067L75.3495 36.5828Z" fill="#009580"/>
<path d="M86.3153 37.1385V40.3968H85.0206V31.1201H86.3153V35.5923L90.8466 31.1201H92.5944L88.7104 34.864L92.7239 40.3968H91.0797L87.7912 35.7776L86.3153 37.1385Z" fill="#009580"/>
<path d="M101.851 37.6943H98.0967L97.0998 40.3968H95.8052L99.3396 31.1201H100.777L104.169 40.3968H102.783L101.851 37.6943ZM98.4851 36.5826H101.398L100.013 32.5065L98.4851 36.5826Z" fill="#009580"/>
<path d="M108.946 37.3942C108.915 37.717 108.968 38.0422 109.099 38.3395C109.231 38.6367 109.436 38.8961 109.697 39.0936C110.274 39.4216 110.936 39.5729 111.6 39.528C112.154 39.5443 112.704 39.4304 113.205 39.1958C113.468 39.085 113.691 38.8992 113.845 38.6624C114 38.4256 114.079 38.1486 114.073 37.8669C114.092 37.5909 114.037 37.3147 113.915 37.0658C113.792 36.817 113.606 36.6042 113.374 36.4486C112.869 36.1568 112.288 36.019 111.704 36.0525H110.694V35.0303H111.406C111.937 35.0466 112.463 34.9277 112.934 34.6853C113.148 34.5916 113.331 34.4386 113.46 34.2448C113.588 34.0509 113.657 33.8245 113.659 33.5928C113.677 33.3235 113.614 33.0548 113.478 32.8206C113.343 32.5864 113.139 32.3971 112.895 32.2767C112.414 32.0761 111.895 31.9824 111.373 32.0023C110.852 32.0222 110.342 32.1551 109.878 32.3917C109.63 32.5472 109.428 32.7654 109.294 33.0238C109.159 33.2821 109.097 33.5712 109.114 33.8611H107.923C107.914 33.171 108.168 32.5027 108.635 31.9892C109.026 31.5987 109.498 31.2974 110.019 31.1064C110.541 30.9155 111.098 30.8395 111.652 30.8839C112.511 30.8485 113.358 31.0957 114.06 31.5867C114.357 31.7984 114.597 32.0784 114.759 32.4024C114.922 32.7263 115.002 33.0845 114.992 33.4458C114.996 33.7089 114.946 33.97 114.843 34.213C114.741 34.4559 114.589 34.6754 114.397 34.8578C114.113 35.1571 113.742 35.3624 113.335 35.4455C113.906 35.5473 114.426 35.8352 114.811 36.2633C115.2 36.7149 115.403 37.2939 115.38 37.8861C115.4 38.3202 115.296 38.751 115.081 39.1301C114.866 39.5093 114.548 39.8219 114.163 40.0328C113.389 40.4581 112.511 40.6658 111.626 40.6333C110.09 40.6333 109.011 40.2968 108.389 39.6239C107.906 38.9806 107.676 38.1859 107.742 37.3878H108.933L108.946 37.3942Z" fill="#009580"/>
<path d="M126.178 40.397V31.1203H130.308C130.668 31.1007 131.028 31.1515 131.368 31.2699C131.708 31.3883 132.021 31.572 132.289 31.8103C132.631 32.1615 132.855 32.6086 132.929 33.0903C133.003 33.5719 132.924 34.0644 132.703 34.5001C132.475 34.9129 132.115 35.2405 131.68 35.4328C132.08 35.5773 132.449 35.7939 132.768 36.0717C132.986 36.2844 133.156 36.5399 133.268 36.8216C133.379 37.1034 133.429 37.4051 133.415 37.7073C133.423 38.0653 133.354 38.421 133.214 38.7512C133.073 39.0814 132.864 39.3787 132.6 39.624C131.945 40.1939 131.089 40.4876 130.217 40.4417H126.178V40.397ZM127.473 32.1937V35.0431H129.764C130.265 35.0785 130.765 34.9673 131.201 34.7237C131.381 34.5863 131.522 34.4067 131.612 34.2012C131.703 33.9958 131.74 33.7712 131.719 33.5481C131.731 33.3557 131.696 33.1632 131.616 32.9874C131.536 32.8115 131.413 32.6575 131.26 32.5387C130.814 32.2726 130.296 32.1519 129.777 32.1937H127.473ZM127.473 36.0653V39.3237H130.178C130.713 39.36 131.241 39.1982 131.661 38.8701C131.837 38.7083 131.975 38.5096 132.064 38.2885C132.152 38.0673 132.189 37.8295 132.172 37.5923C132.193 37.334 132.136 37.0754 132.01 36.8484C131.883 36.6214 131.692 36.4358 131.46 36.3145C130.996 36.097 130.485 35.9961 129.971 36.0206H127.473V36.0653Z" fill="#009580"/>
<path d="M153.198 40.3968H151.968V34.9151L152.007 32.5832L149.34 40.3776H148.084L145.443 32.5832V40.3776H144.213V31.1201H146.025L148.692 38.9721L151.398 31.1265H153.198V40.3968Z" fill="#009580"/>
<path d="M163.218 37.6945H159.464L158.48 40.4034H157.185L160.72 31.1267H162.157L165.549 40.4034H164.163L163.218 37.6945ZM159.852 36.5828H162.765L161.38 32.5067L159.852 36.5828Z" fill="#009580"/>
<path d="M170.818 32.2318V40.3968H169.523V31.1201H175.673V32.2318H170.792H170.818Z" fill="#009580"/>
<path d="M183.985 37.6945H180.23L179.246 40.4034H177.952L181.486 31.1267H182.923L186.315 40.4034H184.93L183.985 37.6945ZM180.606 36.5764H183.519L182.133 32.5003L180.606 36.5764Z" fill="#009580"/>
<path d="M191.08 37.3942C191.049 37.717 191.102 38.0422 191.233 38.3395C191.364 38.6367 191.57 38.8961 191.83 39.0936C192.407 39.4216 193.07 39.5729 193.734 39.528C194.288 39.5443 194.838 39.4304 195.339 39.1958C195.601 39.085 195.824 38.8992 195.979 38.6624C196.133 38.4256 196.213 38.1486 196.206 37.8669C196.224 37.5897 196.168 37.3127 196.043 37.0637C195.918 36.8148 195.729 36.6026 195.494 36.4486C194.989 36.1568 194.408 36.019 193.824 36.0525H192.84V35.0303H193.552C194.083 35.0466 194.609 34.9277 195.08 34.6853C195.295 34.5916 195.477 34.4386 195.606 34.2448C195.735 34.0509 195.804 33.8245 195.805 33.5928C195.824 33.3235 195.761 33.0548 195.625 32.8206C195.489 32.5864 195.286 32.3971 195.041 32.2767C194.561 32.0761 194.041 31.9824 193.52 32.0023C192.999 32.0222 192.488 32.1551 192.025 32.3917C191.774 32.5456 191.569 32.7631 191.433 33.0216C191.296 33.2801 191.232 33.57 191.248 33.8611H190.057C190.047 33.171 190.302 32.5027 190.769 31.9892C191.159 31.5987 191.632 31.2974 192.153 31.1064C192.674 30.9155 193.231 30.8395 193.785 30.8839C194.645 30.8485 195.492 31.0957 196.193 31.5867C196.49 31.7984 196.73 32.0784 196.893 32.4024C197.055 32.7263 197.135 33.0845 197.126 33.4458C197.13 33.7089 197.079 33.97 196.977 34.213C196.874 34.4559 196.722 34.6754 196.53 34.8578C196.246 35.1571 195.875 35.3624 195.468 35.4455C196.039 35.5473 196.559 35.8352 196.944 36.2633C197.333 36.7149 197.536 37.2939 197.514 37.8861C197.533 38.3202 197.43 38.751 197.215 39.1301C197 39.5093 196.682 39.8219 196.297 40.0328C195.523 40.4581 194.645 40.6658 193.759 40.6333C192.223 40.6333 191.144 40.2968 190.523 39.6239C190.04 38.9806 189.809 38.1859 189.875 37.3878H191.067L191.08 37.3942Z" fill="#009580"/>
<path d="M203.107 31.1201V38.7101H203.159L207.923 31.1201H209.373V40.3968H208.078V32.909L203.275 40.3968H201.838V31.1201H203.133H203.107Z" fill="#009580"/>
<path d="M220.365 34.9534V31.1201H221.659V40.3968H220.365V36.0651H215.458V40.3968H214.163V31.1201H215.458V34.9534H220.365Z" fill="#009580"/>
<path d="M43.3713 23.8945H9.19215C8.95232 23.8962 8.72279 23.991 8.5532 24.1584C8.38361 24.3257 8.28758 24.5523 8.28589 24.789V37.4645C8.29423 37.6968 8.39319 37.9168 8.56207 38.0788C8.73096 38.2407 8.95671 38.3319 9.19215 38.3334H43.3713C43.6111 38.3317 43.8407 38.237 44.0103 38.0696C44.1798 37.9022 44.2759 37.6757 44.2776 37.439V24.789C44.2759 24.5523 44.1798 24.3257 44.0103 24.1584C43.8407 23.991 43.6111 23.8962 43.3713 23.8945ZM26.2688 37.2473C22.4236 35.7268 19.9249 33.1393 19.9249 29.5806C19.9249 26.8079 23.3882 23.8754 26.2688 27.0251C29.1494 23.8306 32.6126 26.7759 32.6126 29.5806C32.6126 33.1456 30.1204 35.7268 26.2688 37.2473Z" fill="#009580"/>
<path d="M46.9769 40.103H5.56706C5.1595 40.103 4.8291 40.4291 4.8291 40.8314V40.9016C4.8291 41.3039 5.1595 41.63 5.56706 41.63H46.9769C47.3845 41.63 47.7149 41.3039 47.7149 40.9016V40.8314C47.7149 40.4291 47.3845 40.103 46.9769 40.103Z" fill="#009580"/>
<path d="M9.20511 13.1675H12.9985L11.5873 19.863C11.5873 19.863 11.2701 22.3611 7.96871 22.3611C5.1787 22.3611 5.70952 19.863 5.70952 19.863L7.412 14.5411C7.412 14.5411 8.08523 13.1675 9.20511 13.1675Z" fill="#009580"/>
<path d="M19.2776 13.1675H13.8271L12.7266 19.6522C12.5518 21.1153 13.7429 22.2908 15.413 22.2908C16.1863 22.3186 16.9431 22.0653 17.5397 21.5789C18.1363 21.0925 18.5313 20.4069 18.6497 19.6522L19.2776 13.1675Z" fill="#009580"/>
<path d="M25.7638 13.1675H20.3133L19.9573 19.6522C19.9661 20.0176 20.0497 20.3774 20.2031 20.71C20.3564 21.0426 20.5764 21.3412 20.8498 21.5877C21.1231 21.8342 21.4442 22.0236 21.7937 22.1444C22.1431 22.2653 22.5137 22.3151 22.8832 22.2908C23.2567 22.3141 23.6312 22.2643 23.9851 22.144C24.339 22.0238 24.6653 21.8356 24.9451 21.5903C25.225 21.345 25.4528 21.0475 25.6156 20.7148C25.7783 20.3822 25.8727 20.021 25.8933 19.6522L25.7638 13.1675Z" fill="#009580"/>
<path d="M43.3324 13.1675H39.5455L41.3516 19.863C41.3516 19.863 41.8177 22.3611 45.1191 22.3611C47.9026 22.3611 47.2553 19.863 47.2553 19.863L45.2421 14.5411C45.2421 14.5411 44.4588 13.1675 43.3324 13.1675Z" fill="#009580"/>
<path d="M33.2664 13.1675H38.7169L40.1993 19.6522C40.4582 21.1153 39.3383 22.2908 37.6682 22.2908C36.8861 22.2998 36.1248 22.0421 35.5127 21.5615C34.9007 21.0808 34.4754 20.4064 34.3086 19.6522L33.2664 13.1675Z" fill="#009580"/>
<path d="M26.7802 13.1675H32.2307L32.9686 19.6522C33.0981 21.1153 31.8747 22.2908 30.2045 22.2908C29.439 22.3237 28.689 22.0702 28.1046 21.581C27.5201 21.0918 27.1442 20.403 27.052 19.6522L26.7802 13.1675Z" fill="#009580"/>
<path d="M20.5139 8.60586C20.5403 8.97591 20.4865 9.34725 20.3561 9.69518C20.2257 10.0431 20.0218 10.3597 19.7579 10.6238C19.4939 10.8879 19.1761 11.0935 18.8254 11.227C18.4747 11.3604 18.0992 11.4187 17.7239 11.3978C17.3456 11.4278 16.9653 11.3754 16.6098 11.2442C16.2543 11.113 15.9324 10.9063 15.6668 10.6387C15.4012 10.3711 15.1985 10.0492 15.073 9.69567C14.9474 9.34217 14.9022 8.96576 14.9404 8.59309C14.9151 8.22703 14.97 7.8599 15.1013 7.51665C15.2326 7.1734 15.4373 6.86207 15.7014 6.60385C15.9655 6.34563 16.2828 6.14655 16.6318 6.02017C16.9808 5.89379 17.3533 5.84305 17.7239 5.87142C18.0943 5.85031 18.4649 5.90643 18.8118 6.03612C19.1587 6.16581 19.474 6.36616 19.7372 6.62413C20.0004 6.8821 20.2056 7.1919 20.3395 7.53334C20.4733 7.87479 20.5327 8.24023 20.5139 8.60586ZM16.6817 8.60586C16.6817 9.24475 16.8889 10.1136 17.7239 10.1136C18.559 10.1136 18.7726 9.47475 18.7726 8.60586C18.7726 7.89031 18.4813 7.15559 17.711 7.15559C16.9407 7.15559 16.6817 7.94781 16.6817 8.60586Z" fill="#009580"/>
<path d="M23.0644 11.2636H21.3167V6.01196H23.906C25.4337 6.01196 26.1716 6.70196 26.1716 7.78169C26.1716 8.86141 25.5243 9.62807 23.9642 9.62807H23.0644V11.2636ZM23.0644 8.4078H23.7895C23.8804 8.42415 23.974 8.41938 24.0627 8.39388C24.1515 8.36837 24.233 8.32281 24.3008 8.26083C24.3687 8.19884 24.4209 8.12212 24.4535 8.03674C24.4861 7.95135 24.4981 7.85966 24.4886 7.76891C24.4886 7.28335 23.9254 7.21307 23.5564 7.21307H23.0644V8.38224V8.4078Z" fill="#009580"/>
<path d="M31.2921 6.01196V7.23863H28.7028V7.98613H30.8972V9.2128H28.6963V10.037H31.3957V11.2636H26.955V6.01196H31.2921Z" fill="#009580"/>
<path d="M33.8749 6.01196L35.7716 8.88057L35.7069 7.66669V6.01196H37.377V11.2636H35.7457L33.849 8.4078L33.9138 9.58335V11.2445H32.2437V6.01196H33.8749Z" fill="#009580"/>
</svg>
