<svg width="47" height="16" viewBox="0 0 47 16" fill="none" xmlns="http://www.w3.org/2000/svg">
<path fill-rule="evenodd" clip-rule="evenodd" d="M7.29289 15.7071C7.68342 16.0976 8.31658 16.0976 8.70711 15.7071C9.09763 15.3166 9.09763 14.6834 8.70711 14.2929L3.44546 9.03124L46 9.03124C46.5523 9.03124 47 8.58352 47 8.03124C47 7.47895 46.5523 7.03124 46 7.03124L3.38297 7.03124L8.70711 1.7071C9.09763 1.31658 9.09763 0.683414 8.70711 0.29289C8.31658 -0.0976348 7.68342 -0.0976349 7.29289 0.29289L0.292893 7.29289C0.0936821 7.4921 -0.00390934 7.75446 0.000122768 8.01553C4.26592e-05 8.02076 6.97109e-07 8.02599 6.96651e-07 8.03124C6.6588e-07 8.38322 0.181851 8.69273 0.456723 8.87093L7.29289 15.7071Z" fill="white"/>
</svg>
