<svg width="16" height="14" viewBox="0 0 16 14" fill="none" xmlns="http://www.w3.org/2000/svg">
<g opacity="0.9">
<path fill-rule="evenodd" clip-rule="evenodd" d="M2.81398 2.14276C2.67862 2.14276 2.4942 2.27477 2.4942 2.51776V10.7678C2.4942 11.0108 2.67862 11.1428 2.81398 11.1428H13.3722C13.5075 11.1428 13.692 11.0108 13.692 10.7678V2.51776C13.692 2.27477 13.5075 2.14276 13.3722 2.14276H2.81398ZM0.494202 2.51776C0.494202 1.24826 1.49758 0.142761 2.81398 0.142761H13.3722C14.6886 0.142761 15.692 1.24826 15.692 2.51776V10.7678C15.692 12.0373 14.6886 13.1428 13.3722 13.1428H2.81398C1.49758 13.1428 0.494202 12.0373 0.494202 10.7678V2.51776Z"/>
<path fill-rule="evenodd" clip-rule="evenodd" d="M0.68625 1.92859C1.01168 1.48237 1.63722 1.38444 2.08345 1.70987L8.09309 6.09265L14.1027 1.70987C14.549 1.38444 15.1745 1.48237 15.4999 1.92859C15.8254 2.37482 15.7274 3.00036 15.2812 3.32579L8.68233 8.13829C8.33123 8.39435 7.85495 8.39435 7.50385 8.13829L0.904973 3.32579C0.458749 3.00036 0.360823 2.37482 0.68625 1.92859Z"/>
</g>
</svg>
