<svg width="17" height="14" viewBox="0 0 17 14" xmlns="http://www.w3.org/2000/svg">
<path fill-rule="evenodd" clip-rule="evenodd" d="M0.0507812 1.08582C0.0507812 0.486138 0.536919 0 1.1366 0H14.965C15.5646 0 16.0508 0.486138 16.0508 1.08582C16.0508 1.6855 15.5646 2.17164 14.965 2.17164H1.1366C0.536919 2.17164 0.0507812 1.6855 0.0507812 1.08582ZM0.0507812 6.51426C0.0507812 5.91456 0.536936 5.42841 1.13664 5.42841H14.9649C15.5646 5.42841 16.0508 5.91456 16.0508 6.51426C16.0508 7.11397 15.5646 7.60012 14.9649 7.60012H1.13664C0.536936 7.60012 0.0507812 7.11397 0.0507812 6.51426ZM1.1366 10.8568C0.536919 10.8568 0.0507812 11.343 0.0507812 11.9426C0.0507812 12.5423 0.536919 13.0285 1.1366 13.0285H14.965C15.5646 13.0285 16.0508 12.5423 16.0508 11.9426C16.0508 11.343 15.5646 10.8568 14.965 10.8568H1.1366Z" />
</svg>
