<svg width="18" height="18" viewBox="0 0 18 18" fill="none" xmlns="http://www.w3.org/2000/svg">
<path fill-rule="evenodd" clip-rule="evenodd" d="M14.1992 2.56445C14.052 2.56445 13.9062 2.59346 13.7701 2.64981C13.6341 2.70616 13.5105 2.78876 13.4063 2.89288L3.46913 12.8301L2.87446 15.0106L5.05492 14.4159L14.9921 4.47867C15.0963 4.37454 15.1789 4.25093 15.2352 4.11488C15.2916 3.97884 15.3206 3.83303 15.3206 3.68577C15.3206 3.53852 15.2916 3.3927 15.2352 3.25666C15.1789 3.12062 15.0963 2.99701 14.9921 2.89288C14.888 2.78876 14.7644 2.70616 14.6284 2.64981C14.4923 2.59346 14.3465 2.56445 14.1992 2.56445ZM13.0048 0.802049C13.3835 0.645188 13.7893 0.564453 14.1992 0.564453C14.6091 0.564453 15.015 0.645188 15.3937 0.802049C15.7724 0.95891 16.1165 1.18883 16.4063 1.47867C16.6962 1.76851 16.9261 2.1126 17.083 2.4913C17.2398 2.86999 17.3206 3.27588 17.3206 3.68577C17.3206 4.09567 17.2398 4.50155 17.083 4.88025C16.9261 5.25895 16.6962 5.60304 16.4063 5.89288L6.28135 16.0179C6.15829 16.1409 6.00525 16.2297 5.83736 16.2755L1.71236 17.4005C1.36615 17.495 0.995885 17.3966 0.742135 17.1429C0.488385 16.8891 0.390057 16.5189 0.484478 16.1727L1.60948 12.0477C1.65527 11.8798 1.74408 11.7267 1.86713 11.6037L11.9921 1.47867C12.282 1.18883 12.6261 0.95891 13.0048 0.802049Z" fill="#A70230"/>
</svg>
