<svg width="82" height="68" viewBox="0 0 82 68" fill="none" xmlns="http://www.w3.org/2000/svg">
<g clip-path="url(#clip0)">
<path d="M77.3939 26.1627H75.1483C73.2674 26.0759 71.7547 24.4738 70.0046 22.6201C68.835 21.3815 67.5828 20.0553 66.0744 19.0723V5.71544C66.0744 3.36279 64.1604 1.44873 61.8079 1.44873H10.8433C8.49061 1.44873 6.57671 3.36279 6.57671 5.71544V16.5542C6.57671 17.4171 7.27624 18.1167 8.1392 18.1167C9.00217 18.1167 9.7017 17.4171 9.7017 16.5542V5.71544C9.7017 5.09669 10.2245 4.57372 10.8433 4.57372H28.1337V18.3982C28.1337 18.9662 28.442 19.4895 28.9387 19.7649C29.1746 19.8957 29.4356 19.9607 29.696 19.9607C29.984 19.9607 30.2714 19.8812 30.5243 19.7232L36.3274 16.0962L42.1263 19.7231C42.608 20.0242 43.2151 20.0404 43.7121 19.7651C44.2091 19.4898 44.5174 18.9665 44.5174 18.3984V4.57372H61.808C62.4268 4.57372 62.9496 5.09654 62.9496 5.71544V17.7476C62.4413 17.6412 61.9077 17.5773 61.3435 17.5673C61.3343 17.5671 61.3252 17.5671 61.316 17.5671H57.3575H54.283H52.5122C52.5041 17.5671 52.4962 17.5671 52.488 17.5673C50.6044 17.5965 49.6366 18.4504 49.1563 19.1615C48.4108 20.2653 48.3418 21.7601 48.9612 23.369C49.1054 23.7446 49.2812 24.0999 49.4837 24.4338H37.6354C35.0898 24.4338 33.0187 26.5049 33.0187 29.0505C33.0187 29.574 33.1062 30.0774 33.267 30.5468H32.8523C30.3067 30.5468 28.2356 32.6179 28.2356 35.1637C28.2356 37.7094 30.3067 39.7805 32.8523 39.7805H33.2659C33.1057 40.2487 33.0185 40.7505 33.0185 41.2724C33.0185 43.7385 34.9582 45.7594 37.3906 45.8872C37.2288 46.3572 37.141 46.8611 37.141 47.3855C37.141 49.9313 39.2121 52.0024 41.7577 52.0024H61.1161C61.7829 52.0024 62.3897 51.9208 62.9491 51.7811V56.6771C62.9491 57.2983 62.4263 57.823 61.8075 57.823H25.6154C25.922 56.7314 26.0895 55.5822 26.0895 54.3939C26.0895 47.3946 20.3953 41.7002 13.3961 41.7002C12.1112 41.7002 10.8709 41.8937 9.70123 42.2504V30.6021C9.70123 29.7391 9.0017 29.0396 8.13874 29.0396C7.27577 29.0396 6.57624 29.7391 6.57624 30.6021V43.6963C3.04859 45.9538 0.703125 49.9039 0.703125 54.3941C0.703125 61.396 6.39733 67.0923 13.3965 67.0923C18.0001 67.0923 22.0387 64.6275 24.2643 60.9481H61.808C64.1605 60.9481 66.0746 59.0322 66.0746 56.6772V50.2439C66.4196 49.9974 66.7494 49.7444 67.0692 49.4979C68.4491 48.4346 69.6406 47.5163 71.5381 47.5163H77.3941C79.2186 47.5163 80.7031 46.0338 80.7031 44.2116V29.472C80.703 27.6471 79.2186 26.1627 77.3939 26.1627ZM41.3924 15.5781L37.1563 12.9286C36.6496 12.6118 36.0067 12.6117 35.4996 12.9284L31.2587 15.579V4.57372H41.3924V15.5781ZM13.3965 63.9674C8.12045 63.9674 3.82812 59.6728 3.82812 54.3941C3.82812 49.1179 8.12045 44.8254 13.3965 44.8254C18.6726 44.8254 22.965 49.1179 22.965 54.3941C22.965 59.6728 18.6726 63.9674 13.3965 63.9674ZM77.578 44.2116C77.578 44.3074 77.492 44.3913 77.3939 44.3913H71.538C68.576 44.3913 66.7621 45.7891 65.1616 47.0225C63.8168 48.0589 62.7546 48.8775 61.1163 48.8775H41.758C40.9356 48.8775 40.2663 48.2083 40.2663 47.3857C40.2663 46.563 40.9356 45.8938 41.758 45.8938H46.9446C47.8076 45.8938 48.5071 45.1943 48.5071 44.3313C48.5071 43.4683 47.8076 42.7688 46.9446 42.7688H37.6356C36.8129 42.7688 36.1438 42.0977 36.1438 41.2726C36.1438 40.4499 36.8131 39.7807 37.6356 39.7807H46.9446C47.8076 39.7807 48.5071 39.0812 48.5071 38.2182C48.5071 37.3552 47.8076 36.6557 46.9446 36.6557H32.8524C32.0299 36.6557 31.3607 35.9865 31.3607 35.1638C31.3607 34.3412 32.0299 33.6719 32.8524 33.6719H46.9446C47.8076 33.6719 48.5071 32.9724 48.5071 32.1095C48.5071 31.2465 47.8076 30.547 46.9446 30.547H37.6356C36.8129 30.547 36.1438 29.8757 36.1438 29.0507C36.1438 28.2281 36.8131 27.559 37.6356 27.559H55.0701H58.4611H60.7264C61.5894 27.559 62.2889 26.8595 62.2889 25.9965C62.2889 25.1335 61.5894 24.434 60.7264 24.434H58.4611H55.0701C53.6408 24.434 52.3882 23.5763 51.8782 22.2479C51.581 21.4757 51.6619 21.0354 51.7463 20.9104C51.831 20.7851 52.1362 20.6996 52.5255 20.6923H57.3575H61.3016C63.9364 20.7449 65.7805 22.6981 67.7327 24.7656C69.7749 26.9285 71.8864 29.1651 75.0558 29.2866C75.0756 29.2874 75.0956 29.2877 75.1156 29.2877H77.3942C77.4939 29.2877 77.5783 29.3721 77.5783 29.4718V44.2116H77.578Z" fill="#A70230"/>
<path d="M8.14062 25.143C9.00359 25.143 9.70312 24.4391 9.70312 23.5762C9.70312 22.7132 9.00359 22.0137 8.14062 22.0137C7.27765 22.0137 6.57812 22.7132 6.57812 23.5762V23.5851C6.57812 24.4479 7.27765 25.143 8.14062 25.143Z" fill="#A70230"/>
</g>
<defs>
<clipPath id="clip0">
<rect width="81" height="67" fill="white" transform="translate(0.351562 0.731445)"/>
</clipPath>
</defs>
</svg>
