<svg width="81" height="67" viewBox="0 0 81 67" fill="none" xmlns="http://www.w3.org/2000/svg">
<g clip-path="url(#clip0)">
<path d="M77.1908 25.6995H74.9452C73.0642 25.6127 71.5516 24.0106 69.8014 22.1569C68.6319 20.9183 67.3797 19.5921 65.8713 18.6091V5.25225C65.8713 2.89959 63.9572 0.985535 61.6047 0.985535H10.6401C8.28749 0.985535 6.37358 2.89959 6.37358 5.25225V16.091C6.37358 16.9539 7.07311 17.6535 7.93608 17.6535C8.79905 17.6535 9.49858 16.9539 9.49858 16.091V5.25225C9.49858 4.6335 10.0214 4.11053 10.6401 4.11053H27.9306V17.935C27.9306 18.503 28.2389 19.0263 28.7356 19.3017C28.9715 19.4325 29.2324 19.4975 29.4929 19.4975C29.7809 19.4975 30.0682 19.418 30.3212 19.26L36.1243 15.633L41.9232 19.2599C42.4049 19.561 43.0119 19.5772 43.509 19.3019C44.006 19.0266 44.3143 18.5033 44.3143 17.9352V4.11053H61.6049C62.2236 4.11053 62.7464 4.63334 62.7464 5.25225V17.2844C62.2382 17.178 61.7046 17.1141 61.1404 17.1041C61.1311 17.1039 61.1221 17.1039 61.1129 17.1039H57.1544H54.0799H52.3091C52.301 17.1039 52.293 17.1039 52.2849 17.1041C50.4013 17.1333 49.4335 17.9872 48.9532 18.6983C48.2077 19.8021 48.1387 21.2969 48.758 22.9058C48.9022 23.2814 49.078 23.6367 49.2805 23.9706H37.4323C34.8867 23.9706 32.8156 26.0417 32.8156 28.5874C32.8156 29.1108 32.9031 29.6142 33.0638 30.0836H32.6492C30.1035 30.0836 28.0324 32.1547 28.0324 34.7005C28.0324 37.2462 30.1035 39.3173 32.6492 39.3173H33.0627C32.9026 39.7855 32.8154 40.2873 32.8154 40.8092C32.8154 43.2753 34.7551 45.2962 37.1874 45.424C37.0257 45.894 36.9379 46.3979 36.9379 46.9223C36.9379 49.4681 39.009 51.5392 41.5546 51.5392H60.913C61.5797 51.5392 62.1866 51.4576 62.746 51.3179V56.2139C62.746 56.8351 62.2232 57.3598 61.6044 57.3598H25.4123C25.7189 56.2682 25.8864 55.119 25.8864 53.9307C25.8864 46.9314 20.1922 41.237 13.1929 41.237C11.9081 41.237 10.6678 41.4305 9.49811 41.7872V30.1389C9.49811 29.2759 8.79858 28.5764 7.93561 28.5764C7.07264 28.5764 6.37311 29.2759 6.37311 30.1389V43.2331C2.84546 45.4906 0.5 49.4407 0.5 53.9309C0.5 60.9328 6.19421 66.6292 13.1934 66.6292C17.797 66.6292 21.8356 64.1643 24.0612 60.4849H61.6049C63.9574 60.4849 65.8714 58.569 65.8714 56.214V49.7808C66.2164 49.5342 66.5463 49.2812 66.8661 49.0347C68.246 47.9714 69.4375 47.0531 71.335 47.0531H77.1909C79.0155 47.0531 80.5 45.5706 80.5 43.7484V29.0088C80.4998 27.1839 79.0155 25.6995 77.1908 25.6995ZM41.1893 15.1149L36.9532 12.4654C36.4465 12.1486 35.8035 12.1485 35.2965 12.4652L31.0556 15.1158V4.11053H41.1893V15.1149ZM13.1934 63.5042C7.91733 63.5042 3.62499 59.2096 3.62499 53.9309C3.62499 48.6547 7.91733 44.3622 13.1934 44.3622C18.4695 44.3622 22.7618 48.6547 22.7618 53.9309C22.7618 59.2096 18.4695 63.5042 13.1934 63.5042ZM77.3749 43.7484C77.3749 43.8442 77.2889 43.9281 77.1908 43.9281H71.3349C68.3728 43.9281 66.5589 45.3259 64.9585 46.5593C63.6136 47.5958 62.5514 48.4143 60.9132 48.4143H41.5549C40.7324 48.4143 40.0632 47.7451 40.0632 46.9225C40.0632 46.0998 40.7324 45.4306 41.5549 45.4306H46.7415C47.6044 45.4306 48.304 44.7311 48.304 43.8681C48.304 43.0051 47.6044 42.3056 46.7415 42.3056H37.4324C36.6098 42.3056 35.9407 41.6345 35.9407 40.8094C35.9407 39.9867 36.6099 39.3175 37.4324 39.3175H46.7415C47.6044 39.3175 48.304 38.618 48.304 37.755C48.304 36.892 47.6044 36.1925 46.7415 36.1925H32.6493C31.8268 36.1925 31.1576 35.5233 31.1576 34.7006C31.1576 33.878 31.8268 33.2088 32.6493 33.2088H46.7415C47.6044 33.2088 48.304 32.5092 48.304 31.6463C48.304 30.7833 47.6044 30.0838 46.7415 30.0838H37.4324C36.6098 30.0838 35.9407 29.4125 35.9407 28.5875C35.9407 27.7649 36.6099 27.0958 37.4324 27.0958H54.8669H58.258H60.5233C61.3863 27.0958 62.0858 26.3963 62.0858 25.5333C62.0858 24.6703 61.3863 23.9708 60.5233 23.9708H58.258H54.8669C53.4377 23.9708 52.1851 23.1131 51.6751 21.7847C51.3779 21.0125 51.4588 20.5722 51.5432 20.4472C51.6279 20.3219 51.933 20.2364 52.3224 20.2291H57.1544H61.0985C63.7333 20.2817 65.5774 22.2349 67.5296 24.3024C69.5717 26.4653 71.6833 28.7019 74.8527 28.8234C74.8725 28.8242 74.8925 28.8245 74.9125 28.8245H77.1911C77.2908 28.8245 77.3752 28.9089 77.3752 29.0086V43.7484H77.3749Z" fill="#A70230"/>
<path d="M7.93676 24.6797C8.79973 24.6797 9.49926 23.9758 9.49926 23.1129C9.49926 22.2499 8.79973 21.5504 7.93676 21.5504C7.0738 21.5504 6.37427 22.2499 6.37427 23.1129V23.1218C6.37427 23.9846 7.0738 24.6797 7.93676 24.6797Z" fill="#A70230"/>
<path d="M15.75 50.7499L10.25 56.2499" stroke="#A70230" stroke-width="2.5" stroke-linecap="round" stroke-linejoin="round"/>
<path d="M10.25 50.7499L15.75 56.2499" stroke="#A70230" stroke-width="2.5" stroke-linecap="round" stroke-linejoin="round"/>
</g>
<defs>
<clipPath id="clip0">
<rect width="80" height="67" fill="white" transform="translate(0.5)"/>
</clipPath>
</defs>
</svg>
