<svg width="19" height="28" viewBox="0 0 19 28" fill="none" xmlns="http://www.w3.org/2000/svg">
<path fill-rule="evenodd" clip-rule="evenodd" d="M16.7906 7.09107C16.7906 10.9948 13.4773 14.1658 9.41955 14.1658C5.36067 14.1658 2.04731 10.9948 2.04731 7.09107C2.04731 3.17103 5.36067 0 9.41955 0C13.4773 0 16.7906 3.17103 16.7906 7.09107ZM13.0398 7.09107C13.0398 5.15672 11.4134 3.5922 9.41955 3.5922C7.42453 3.5922 5.79818 5.15555 5.79934 7.09107C5.79934 9.00909 7.42569 10.5736 9.41955 10.5736C11.4134 10.5736 13.0398 9.00909 13.0398 7.09107ZM2.87774 18.2538C1.02505 17.1058 0.213045 16.4338 0.928219 15.028C1.34939 14.23 2.50207 13.5568 4.02925 14.7165C4.02925 14.7165 6.09194 16.2973 9.42164 16.2973C12.7502 16.2973 14.814 14.7165 14.814 14.7165C16.3424 13.5626 17.4904 14.23 17.9162 15.028C18.6209 16.4338 17.8089 17.1047 15.9562 18.2585L15.9574 18.2597C14.401 19.2117 12.2578 19.5885 10.8427 19.7309C10.6463 19.5417 12.3599 21.1851 13.9297 22.6906C15.1673 23.8776 16.3156 24.9789 16.368 25.0287C17.9536 26.5921 15.374 29.0363 13.771 27.5266C12.7036 26.4832 11.146 24.9848 9.51497 23.4157L9.43447 23.3382L5.09793 27.5208C3.49608 29.0246 0.915385 26.5594 2.5184 25.0229C7.29709 20.4264 8.00638 19.744 8.02614 19.725C8.01582 19.7349 7.82644 19.9171 8.02629 19.725C8.02624 19.725 8.02619 19.725 8.02614 19.725C6.62845 19.5827 4.4527 19.2268 2.87774 18.2538Z" fill="#FFB800"/>
</svg>
