<svg width="20" height="14" viewBox="0 0 20 14" xmlns="http://www.w3.org/2000/svg">
<path fill-rule="evenodd" clip-rule="evenodd" d="M9.67652 0.25C10.0692 0.25 10.4129 0.531104 10.5148 0.9356L10.8242 2.16409H18.0394C18.5649 2.16409 19.0442 2.42353 19.3543 2.87592C19.6539 3.31295 19.7416 3.85213 19.6012 4.39403L18.5534 8.43949C18.2728 9.52249 17.3538 10.25 16.2666 10.25H12.8959C11.7999 10.25 10.8726 9.49175 10.5883 8.36313L9.01096 2.10181H7.53454C7.05515 2.10181 6.6665 1.68725 6.6665 1.1759C6.6665 0.664558 7.05515 0.25 7.53454 0.25H9.67652ZM16.88 7.94623L17.898 4.01583L11.2907 4.01577L12.2648 7.88247C12.3437 8.19573 12.5914 8.39813 12.8958 8.39813H16.2666C16.5681 8.39813 16.8089 8.22073 16.88 7.94623ZM10.6665 12.5C10.6665 11.8116 11.228 11.25 11.9165 11.25C12.605 11.25 13.1665 11.8116 13.1665 12.5C13.1665 13.1884 12.605 13.75 11.9165 13.75C11.228 13.75 10.6665 13.1885 10.6665 12.5ZM16.9165 11.25C16.228 11.25 15.6665 11.8116 15.6665 12.5C15.6665 13.1885 16.228 13.75 16.9165 13.75C17.605 13.75 18.1665 13.1884 18.1665 12.5C18.1665 11.8116 17.6049 11.25 16.9165 11.25ZM5.6665 5.25C5.6665 4.69772 5.21879 4.25 4.6665 4.25C4.11422 4.25 3.6665 4.69772 3.6665 5.25V7.25H1.6665C1.11422 7.25 0.666504 7.69772 0.666504 8.25C0.666504 8.80228 1.11422 9.25 1.6665 9.25H3.6665V11.25C3.6665 11.8023 4.11422 12.25 4.6665 12.25C5.21879 12.25 5.6665 11.8023 5.6665 11.25V9.25H7.6665C8.21879 9.25 8.6665 8.80228 8.6665 8.25C8.6665 7.69772 8.21879 7.25 7.6665 7.25H5.6665V5.25Z"/>
</svg>
