<svg width="19" height="19" viewBox="0 0 19 19" xmlns="http://www.w3.org/2000/svg">
<path fill-rule="evenodd" clip-rule="evenodd" d="M13.8736 6.79289C14.2641 7.18342 14.2641 7.81658 13.8736 8.20711L9.87361 12.2071C9.48309 12.5976 8.84992 12.5976 8.4594 12.2071L5.9594 9.70711C5.56887 9.31658 5.56887 8.68342 5.9594 8.29289C6.34992 7.90237 6.98309 7.90237 7.37361 8.29289L9.1665 10.0858L12.4594 6.79289C12.8499 6.40237 13.4831 6.40237 13.8736 6.79289Z" />
<path fill-rule="evenodd" clip-rule="evenodd" d="M9.6665 16.8C13.6982 16.8 16.9665 13.5317 16.9665 9.5C16.9665 5.46832 13.6982 2.2 9.6665 2.2C5.63483 2.2 2.3665 5.46832 2.3665 9.5C2.3665 13.5317 5.63483 16.8 9.6665 16.8ZM9.6665 18.5C14.6371 18.5 18.6665 14.4706 18.6665 9.5C18.6665 4.52944 14.6371 0.5 9.6665 0.5C4.69594 0.5 0.666504 4.52944 0.666504 9.5C0.666504 14.4706 4.69594 18.5 9.6665 18.5Z" />
</svg>
