<svg width="22" height="22" viewBox="0 0 22 22" fill="none" xmlns="http://www.w3.org/2000/svg">
<path d="M11.173 0.5H11.1678C5.37835 0.5 0.67041 5.20925 0.67041 11C0.67041 13.2969 1.41066 15.4257 2.66935 17.1543L1.36079 21.0551L5.39672 19.7649C7.05704 20.8647 9.0376 21.5 11.173 21.5C16.9625 21.5 21.6704 16.7894 21.6704 11C21.6704 5.21056 16.9625 0.5 11.173 0.5ZM17.2827 15.3273C17.0294 16.0426 16.024 16.6359 15.2221 16.8091C14.6735 16.9259 13.9568 17.0191 11.5445 16.019C8.45879 14.7406 6.47166 11.6051 6.31679 11.4016C6.16847 11.1982 5.06991 9.74131 5.06991 8.23456C5.06991 6.72781 5.8351 5.99412 6.14354 5.67913C6.39685 5.42056 6.81554 5.30244 7.21716 5.30244C7.3471 5.30244 7.46391 5.309 7.56891 5.31425C7.87735 5.32737 8.03222 5.34575 8.23566 5.83269C8.48897 6.443 9.10585 7.94975 9.17935 8.10463C9.25416 8.2595 9.32897 8.4695 9.22397 8.67294C9.12554 8.88294 9.03891 8.97612 8.88404 9.15462C8.72916 9.33313 8.58216 9.46963 8.42729 9.66125C8.28553 9.82794 8.12541 10.0064 8.30391 10.3149C8.48241 10.6167 9.09929 11.6234 10.0075 12.4319C11.1796 13.4754 12.1298 13.8088 12.4698 13.9505C12.7231 14.0555 13.025 14.0306 13.21 13.8337C13.445 13.5804 13.735 13.1604 14.0303 12.7469C14.2403 12.4503 14.5055 12.4136 14.7837 12.5186C15.0672 12.617 16.5674 13.3586 16.8758 13.5121C17.1843 13.667 17.3877 13.7405 17.4625 13.8704C17.536 14.0004 17.536 14.6107 17.2827 15.3273Z" fill="#46C831"/>
</svg>
