<svg width="15" height="15" viewBox="0 0 15 15" xmlns="http://www.w3.org/2000/svg">
<path fill-rule="evenodd" clip-rule="evenodd" d="M6.5 1.75C3.87665 1.75 1.75 3.87665 1.75 6.5C1.75 9.12335 3.87665 11.25 6.5 11.25C9.12335 11.25 11.25 9.12335 11.25 6.5C11.25 3.87665 9.12335 1.75 6.5 1.75ZM0.25 6.5C0.25 3.04822 3.04822 0.25 6.5 0.25C9.95178 0.25 12.75 3.04822 12.75 6.5C12.75 9.95178 9.95178 12.75 6.5 12.75C3.04822 12.75 0.25 9.95178 0.25 6.5Z" />
<path fill-rule="evenodd" clip-rule="evenodd" d="M10.4697 10.4697C10.7626 10.1768 11.2374 10.1768 11.5303 10.4697L14.5303 13.4697C14.8232 13.7626 14.8232 14.2374 14.5303 14.5303C14.2374 14.8232 13.7626 14.8232 13.4697 14.5303L10.4697 11.5303C10.1768 11.2374 10.1768 10.7626 10.4697 10.4697Z" />
</svg>
