<svg width="17" height="19" viewBox="0 0 17 19" fill="none" xmlns="http://www.w3.org/2000/svg">
<path fill-rule="evenodd" clip-rule="evenodd" d="M14.7734 3.97852C14.7734 4.5308 14.3257 4.97852 13.7734 4.97852C13.2212 4.97852 12.7734 4.5308 12.7734 3.97852C12.7734 3.42623 13.2212 2.97852 13.7734 2.97852C14.3257 2.97852 14.7734 3.42623 14.7734 3.97852ZM16.7734 3.97852C16.7734 5.63537 15.4303 6.97852 13.7734 6.97852C13.1906 6.97852 12.6466 6.81233 12.1863 6.52475L6.77344 9.90777V9.97852V10.0493L12.1863 13.4323C12.6466 13.1447 13.1906 12.9785 13.7734 12.9785C15.4303 12.9785 16.7734 14.3217 16.7734 15.9785C16.7734 17.6354 15.4303 18.9785 13.7734 18.9785C12.1166 18.9785 10.7734 17.6354 10.7734 15.9785C10.7734 15.6389 10.8299 15.3124 10.9339 15.008L6.03695 11.9475C5.48696 12.5792 4.67683 12.9785 3.77344 12.9785C2.11658 12.9785 0.773438 11.6354 0.773438 9.97852C0.773438 8.32166 2.11658 6.97852 3.77344 6.97852C4.67683 6.97852 5.48696 7.37782 6.03696 8.00957L10.9339 4.949C10.8299 4.6446 10.7734 4.31815 10.7734 3.97852C10.7734 2.32166 12.1166 0.978516 13.7734 0.978516C15.4303 0.978516 16.7734 2.32166 16.7734 3.97852ZM4.77344 9.97852C4.77344 9.42623 4.32572 8.97852 3.77344 8.97852C3.22115 8.97852 2.77344 9.42623 2.77344 9.97852C2.77344 10.5308 3.22115 10.9785 3.77344 10.9785C4.32572 10.9785 4.77344 10.5308 4.77344 9.97852ZM14.7734 15.9785C14.7734 16.5308 14.3257 16.9785 13.7734 16.9785C13.2212 16.9785 12.7734 16.5308 12.7734 15.9785C12.7734 15.4262 13.2212 14.9785 13.7734 14.9785C14.3257 14.9785 14.7734 15.4262 14.7734 15.9785Z" fill="#A70230"/>
</svg>
