<svg width="12" height="10" viewBox="0 0 12 10" xmlns="http://www.w3.org/2000/svg">
<path fill-rule="evenodd" clip-rule="evenodd" d="M11.1237 3.77716C11.0404 3.53353 10.7923 3.36614 10.443 3.31789L7.59608 2.92472L6.32279 0.473312C6.16661 0.172577 5.92239 0 5.65283 0C5.38327 0 5.13905 0.172577 4.98287 0.473392L3.70975 2.92472L0.86274 3.31789C0.513367 3.36614 0.265206 3.53353 0.181954 3.77716C0.0987016 4.0208 0.195885 4.29482 0.448662 4.52888L2.50881 6.43704L2.02239 9.13153C1.9602 9.47613 2.0662 9.6826 2.16607 9.7952C2.28323 9.92727 2.45409 10 2.6472 10C2.79247 10 2.94698 9.95957 3.10651 9.8799L5.65283 8.60782L8.19932 9.87998C8.35877 9.95965 8.51327 10 8.65854 10C8.85157 10 9.0226 9.92727 9.13976 9.7952C9.23955 9.68268 9.34562 9.47613 9.28335 9.13153L8.79702 6.43704L10.8571 4.52888C11.1098 4.29482 11.207 4.0208 11.1237 3.77716ZM4.04222 7.51211L5.65283 6.70748L7.2636 7.51218L6.95865 5.82263L8.15167 4.71759L6.49266 4.48848L5.65289 2.8717L4.81321 4.48847L3.15414 4.71759L4.34721 5.82263L4.04222 7.51211Z" />
</svg>
