<svg width="29" height="30" viewBox="0 0 29 30" fill="none" xmlns="http://www.w3.org/2000/svg">
<path fill-rule="evenodd" clip-rule="evenodd" d="M18.0339 11.9663C21.4047 15.3371 22.5671 20.88 19.1881 24.259C15.8091 27.638 10.2662 26.4757 6.89534 23.1048C3.5245 19.734 2.36213 14.1911 5.74116 10.8121C9.12018 7.43304 14.6631 8.59541 18.0339 11.9663ZM17.7739 22.8448C20.0687 20.55 19.5519 16.3127 16.6197 13.3805C13.6875 10.4482 9.45015 9.9315 7.15537 12.2263C4.86059 14.5211 5.37734 18.7584 8.30955 21.6906C11.2418 24.6228 15.4791 25.1396 17.7739 22.8448Z" fill="#A70230"/>
<path fill-rule="evenodd" clip-rule="evenodd" d="M20.5316 5.84508C18.015 4.56175 14.2523 6.04484 12.3084 9.85698C12.0575 10.349 11.4552 10.5444 10.9632 10.2936C10.4712 10.0427 10.2758 9.44042 10.5266 8.94842C12.7524 4.58367 17.5575 2.08346 21.4402 4.06336C25.3228 6.04326 26.121 11.4008 23.8953 15.7656C23.1645 17.1987 22.1815 18.4053 21.0573 19.325C20.6299 19.6747 19.9998 19.6117 19.6501 19.1842C19.3004 18.7568 19.3634 18.1267 19.7909 17.777C20.6956 17.0369 21.5053 16.0499 22.1136 14.857C24.0575 11.0449 23.0483 7.12841 20.5316 5.84508Z" fill="#A70230"/>
<path fill-rule="evenodd" clip-rule="evenodd" d="M7.26516 10.4189C7.81319 10.3505 8.31292 10.7393 8.38133 11.2874C8.42946 11.6729 8.67938 13.1361 9.79444 14.4915C10.6231 15.4989 11.3457 15.8814 12.2442 16.2938C12.332 16.3341 12.4218 16.3747 12.5135 16.4162C13.4103 16.8224 14.4941 17.3131 15.7883 18.4016C17.1027 19.5069 18.3774 21.4348 18.8324 22.345C19.0794 22.839 18.8791 23.4397 18.3851 23.6866C17.8912 23.9336 17.2905 23.7334 17.0435 23.2394C16.6666 22.4854 15.5426 20.8081 14.5011 19.9323C13.4235 19.0261 12.5626 18.6352 11.6822 18.2355C11.5918 18.1945 11.5011 18.1533 11.41 18.1115C10.3838 17.6405 9.35256 17.1025 8.2499 15.7621C6.79388 13.9922 6.46733 12.1006 6.39674 11.5351C6.32832 10.9871 6.71713 10.4873 7.26516 10.4189Z" fill="#A70230"/>
<path fill-rule="evenodd" clip-rule="evenodd" d="M22.976 5.84565C23.174 6.36124 22.9165 6.93968 22.4009 7.13763C21.9745 7.30136 20.4592 7.97093 19.4421 9.51121C18.6454 10.7177 18.5647 11.6052 18.4917 12.7821C18.4575 13.3333 17.9829 13.7524 17.4317 13.7182C16.8805 13.684 16.4613 13.2094 16.4955 12.6582C16.5747 11.3835 16.681 10.063 17.7731 8.40912C19.1276 6.35804 21.1019 5.49401 21.6841 5.27052C22.1996 5.07256 22.7781 5.33006 22.976 5.84565Z" fill="#A70230"/>
</svg>
