<svg xmlns="http://www.w3.org/2000/svg" width="25.47" height="22.84" viewBox="0 0 25.47 22.84">
  <title>IconFrozen-pelmen</title>
  <g>
    <g>
      <path d="M59.61-34.9a4.53,4.53,0,0,1,2.19,3.65c0,2.83-3.31,5.12-7.38,5.12A9,9,0,0,1,48.73-28" transform="translate(-37.34 47.96)" fill="none" stroke="#a71e34" stroke-linecap="round" stroke-miterlimit="10" stroke-width="2"/>
      <path d="M57.71-36.95a3.58,3.58,0,0,1,2.18,3c0,2.1-2.45,3.8-5.47,3.8a7.17,7.17,0,0,1-3.3-.77" transform="translate(-37.34 47.96)" fill="none" stroke="#a71e34" stroke-linecap="round" stroke-miterlimit="10" stroke-width="2"/>
    </g>
    <g>
      <path d="M47.61-38A4.51,4.51,0,0,1,51.4-36c1.51,2.4-.06,6.1-3.51,8.27s-7.47,2-9-.4a4.45,4.45,0,0,1-.15-4.11" transform="translate(-37.34 47.96)" fill="none" stroke="#a71e34" stroke-miterlimit="10" stroke-width="2"/>
      <path d="M38.79-32.15c-.49-1.74.68-4,2.92-5.43,2.56-1.61,5.54-1.48,6.66.3s0,4.52-2.61,6.13A7.07,7.07,0,0,1,42.57-30" transform="translate(-37.34 47.96)" fill="none" stroke="#a71e34" stroke-linecap="round" stroke-miterlimit="10" stroke-width="2"/>
    </g>
    <g>
      <path d="M44.85-39a4.19,4.19,0,0,1-.66-3.35,4.46,4.46,0,0,1,2.89-2.93" transform="translate(-37.34 47.96)" fill="none" stroke="#a71e34" stroke-linecap="round" stroke-miterlimit="10" stroke-width="2"/>
      <path d="M57.28-42.69a4.53,4.53,0,0,1,1.2,4.08c-.6,2.34-3.43,3.69-6.7,3.41" transform="translate(-37.34 47.96)" fill="none" stroke="#a71e34" stroke-linecap="round" stroke-miterlimit="10" stroke-width="2"/>
      <path d="M46.87-45.12c.93-1.55,3.4-2.26,6-1.59,2.92.75,4.87,3,4.34,5.05s-3.32,3.06-6.25,2.3a7.1,7.1,0,0,1-3-1.57" transform="translate(-37.34 47.96)" fill="none" stroke="#a71e34" stroke-linecap="round" stroke-miterlimit="10" stroke-width="2"/>
    </g>
  </g>
</svg>
