<svg width="25" height="17" viewBox="0 0 25 17" fill="none" xmlns="http://www.w3.org/2000/svg">
<path d="M4 16C2.34315 16 1 14.433 1 12.5C1 10.567 2.34315 9 4 9" stroke="#A70230" stroke-width="2" stroke-linecap="round" stroke-linejoin="round"/>
<path d="M4 16H21" stroke="#A70230" stroke-width="2"/>
<path d="M21 16C22.6569 16 24 14.433 24 12.5C24 10.567 22.6569 9 21 9" stroke="#A70230" stroke-width="2" stroke-linecap="round" stroke-linejoin="round"/>
<path d="M4.0297 8.53109C3.19279 6.85706 3.68945 4.7165 5.13901 3.75C6.58857 2.7835 8.44212 3.35706 9.27902 5.03109" stroke="#A70230" stroke-width="2" stroke-linecap="round" stroke-linejoin="round"/>
<path d="M20.9703 8.53109C21.8072 6.85706 21.3106 4.7165 19.861 3.75C18.4114 2.7835 16.5579 3.35706 15.721 5.03109" stroke="#A70230" stroke-width="2" stroke-linecap="round" stroke-linejoin="round"/>
<path d="M9 4C9 2.34315 10.567 1 12.5 1C14.433 1 16 2.34315 16 4" stroke="#A70230" stroke-width="2" stroke-linecap="round" stroke-linejoin="round"/>
<path d="M8 11C8.9 9.5 10.0147 8 12.5 8C14.9853 8 16.1 9.5 17 11" stroke="#A70230" stroke-width="2" stroke-linecap="round" stroke-linejoin="round"/>
</svg>
