<svg width="30" height="30" viewBox="0 0 40 40" fill="none" xmlns="http://www.w3.org/2000/svg">
<path d="M20 3.84615L20 20" stroke="#99002B" stroke-width="2" stroke-linecap="round"/>
<path d="M15.3846 5.38463L20 9.23078L24.6154 5.38463" stroke="#99002B" stroke-width="2" stroke-linecap="round"/>
<path d="M20 36.1539L20 20" stroke="#99002B" stroke-width="2" stroke-linecap="round"/>
<path d="M24.6154 34.6154L20 30.7692L15.3846 34.6154" stroke="#99002B" stroke-width="2" stroke-linecap="round"/>
<path d="M33.9897 11.9231L20 20" stroke="#99002B" stroke-width="2" stroke-linecap="round"/>
<path d="M30.3496 8.69528L29.3264 14.6154L34.965 16.6894" stroke="#99002B" stroke-width="2" stroke-linecap="round"/>
<path d="M6.01032 28.0769L20 20" stroke="#99002B" stroke-width="2" stroke-linecap="round"/>
<path d="M9.65039 31.3047L10.6736 25.3846L5.03501 23.3107" stroke="#99002B" stroke-width="2" stroke-linecap="round"/>
<path d="M33.9897 28.0769L20 20" stroke="#99002B" stroke-width="2" stroke-linecap="round"/>
<path d="M34.965 23.3106L29.3265 25.3846L30.3496 31.3047" stroke="#99002B" stroke-width="2" stroke-linecap="round"/>
<path d="M6.01031 11.9231L20 20" stroke="#99002B" stroke-width="2" stroke-linecap="round"/>
<path d="M5.03497 16.6894L10.6735 14.6154L9.65036 8.69531" stroke="#99002B" stroke-width="2" stroke-linecap="round"/>
<path d="M13.7071 16.3668L20 12.7336L26.2928 16.3668V23.6332L20 27.2664L13.7071 23.6332V16.3668Z" stroke="#99002B" stroke-width="2"/>
</svg>
