<svg xmlns="http://www.w3.org/2000/svg" width="25.97" height="18.69" viewBox="0 0 25.97 18.69">
  <title>IconFrozen-hinkal</title>
  <g>
    <g>
      <path d="M41.6-37.53S37-35.48,37-31.59s6.91,3.88,6.91,3.88,6.9,0,6.9-3.86-4.63-6-4.63-6V-40l-4.51,0Z" transform="translate(-25.81 45.4)" fill="none" stroke="#a71d33" stroke-linecap="round" stroke-linejoin="round" stroke-width="2"/>
      <line x1="17.3" y1="9.86" x2="16.76" y2="11.24" fill="none" stroke="#a71d33" stroke-linecap="round" stroke-linejoin="round" stroke-width="2"/>
      <line x1="18.83" y1="9.87" x2="19.44" y2="11.23" fill="none" stroke="#a71d33" stroke-linecap="round" stroke-linejoin="round" stroke-width="2"/>
    </g>
    <g>
      <path d="M40.53-36.91C39.87-40.18,36-42,36-42v-2.37l-4.51,0,0,2.49s-4.63,2-4.63,5.93,6.92,3.88,6.92,3.88a14.83,14.83,0,0,0,3.19-.41" transform="translate(-25.81 45.4)" fill="none" stroke="#a71d33" stroke-linecap="round" stroke-linejoin="round" stroke-width="2"/>
      <line x1="7.14" y1="5.47" x2="6.6" y2="6.85" fill="none" stroke="#a71d33" stroke-linecap="round" stroke-linejoin="round" stroke-width="2"/>
      <line x1="8.68" y1="5.48" x2="9.28" y2="6.84" fill="none" stroke="#a71d33" stroke-linecap="round" stroke-linejoin="round" stroke-width="2"/>
    </g>
  </g>
</svg>
