<svg width="21" height="18" viewBox="0 0 21 18" fill="none" xmlns="http://www.w3.org/2000/svg">
<path d="M2.13346 11.1035C1.41039 11.6679 1 12.3137 1 12.9999C1 15.2091 5.25329 16.9999 10.5 16.9999C15.7467 16.9999 20 15.2091 20 12.9999C20 12.3571 19.6399 11.7498 19 11.2116" stroke="#A70230" stroke-width="2"/>
<path d="M2.13346 7C1.41039 7.56436 1 8.21021 1 8.89642C1 10.8906 4.46602 12.544 9 12.8468M12.6736 12.7912C14.6686 12.5946 16.4216 12.1333 17.7123 11.5" stroke="#A70230" stroke-width="2"/>
<path fill-rule="evenodd" clip-rule="evenodd" d="M2 5C2 4.79225 2.09575 4.50642 2.45206 4.15173C2.81218 3.79323 3.38395 3.4244 4.17054 3.09321C5.73966 2.43253 7.97684 2 10.5 2C13.0232 2 15.2603 2.43253 16.8295 3.09321C17.616 3.4244 18.1878 3.79323 18.5479 4.15173C18.9042 4.50642 19 4.79225 19 5V9.8C19 9.87643 18.9645 10.0394 18.862 10.1636C18.793 10.2472 18.6277 10.4 18.1667 10.4C17.7056 10.4 17.5403 10.2472 17.4714 10.1636C17.3689 10.0394 17.3333 9.87642 17.3333 9.8V8.73333C17.3333 8.27643 17.1855 7.63935 16.738 7.09695C16.257 6.51387 15.5056 6.13333 14.5 6.13333C13.4944 6.13333 12.743 6.51387 12.262 7.09695C11.8145 7.63935 11.6667 8.27643 11.6667 8.73333V12.5C11.6667 12.5764 11.6311 12.7394 11.5286 12.8636C11.4597 12.9472 11.2944 13.1 10.8333 13.1C10.3723 13.1 10.207 12.9472 10.138 12.8636C10.0355 12.7394 10 12.5764 10 12.5V10.0667V8C10 7.44772 9.55229 7 9 7C8.48496 7 8.06086 7.38936 8.00601 7.8898C7.92704 7.85694 7.84252 7.83374 7.75371 7.82187C5.91619 7.57613 4.3944 7.09767 3.36368 6.51384C2.28041 5.90025 2 5.33574 2 5ZM8 9.73869C7.84342 9.80294 7.6684 9.82827 7.48861 9.80422C5.48678 9.53651 3.69798 9.00175 2.37797 8.25406C1.1105 7.53614 0 6.45085 0 5C0 4.10318 0.435909 3.33672 1.04105 2.73431C1.64239 2.1357 2.46186 1.6426 3.39443 1.24994C5.26364 0.462902 7.77646 0 10.5 0C13.2235 0 15.7364 0.462902 17.6056 1.24994C18.5381 1.6426 19.3576 2.1357 19.9589 2.73431C20.5641 3.33672 21 4.10318 21 5V9.8C21 10.2569 20.8522 10.894 20.4047 11.4364C19.9237 12.0195 19.1723 12.4 18.1667 12.4C17.161 12.4 16.4097 12.0195 15.9286 11.4364C15.4811 10.894 15.3333 10.2569 15.3333 9.8V8.73333C15.3333 8.65691 15.2978 8.49398 15.1953 8.36972C15.1263 8.28613 14.961 8.13333 14.5 8.13333C14.039 8.13333 13.8737 8.28613 13.8047 8.36972C13.7022 8.49398 13.6667 8.65691 13.6667 8.73333V12.5C13.6667 12.9569 13.5189 13.594 13.0714 14.1364C12.5903 14.7195 11.839 15.1 10.8333 15.1C9.82771 15.1 9.07634 14.7195 8.59529 14.1364C8.14781 13.594 8 12.9569 8 12.5V10.0667V9.73869Z" fill="#A70230"/>
</svg>
