<svg width="21" height="20" viewBox="0 0 21 20" fill="none" xmlns="http://www.w3.org/2000/svg">
<path d="M4 19H17" stroke="#A70230" stroke-width="2" stroke-linecap="round" stroke-linejoin="round"/>
<path d="M19.9417 10C19.418 14.4648 15.4303 18 10.5 18C5.56967 18 1.58195 14.4648 1.05832 10H19.9417Z" stroke="#A70230" stroke-width="2"/>
<path d="M3 14H18" stroke="#A70230" stroke-width="2" stroke-linecap="round" stroke-linejoin="round"/>
<path d="M2 9C2 6.23858 4.23858 4 7 4C9.76142 4 12 6.23858 12 9" stroke="#A70230" stroke-width="2" stroke-linecap="round" stroke-linejoin="round"/>
<path d="M12 9C12 6.79086 13.567 5 15.5 5C17.433 5 19 6.79086 19 9" stroke="#A70230" stroke-width="2" stroke-linecap="round" stroke-linejoin="round"/>
<path d="M15 4C15 2.34315 13.6275 1 11.9345 1C10.5508 1 9.38119 1.89719 9 3.12956" stroke="#A70230" stroke-width="2" stroke-linecap="round" stroke-linejoin="round"/>
</svg>
