<svg xmlns="http://www.w3.org/2000/svg" width="22.91" height="25.78" viewBox="0 0 22.91 25.78">
  <title>IconFrozen-kolbas</title>
  <g>
    <g>
      <g>
        <path d="M27,6.12H27a29,29,0,0,0-12.59,6.62h0a2.37,2.37,0,0,1-3.2-1l-.11-.2c-.61-1.16,0-2.28,1-3.21h0a28.86,28.86,0,0,1,12.6-6.61h0c1.31-.34,2.6-.16,3.2,1l.11.2A2.38,2.38,0,0,1,27,6.12Z" transform="translate(-8.5 -0.56)" fill="none" stroke="#a71d33" stroke-linecap="round" stroke-linejoin="round" stroke-width="2"/>
        <line x1="21.79" y1="3.9" x2="20.24" y2="3.36" fill="none" stroke="#a71d33" stroke-linecap="round" stroke-linejoin="round" stroke-width="2"/>
        <line x1="21.46" y1="1.76" x2="20.14" y2="2.72" fill="none" stroke="#a71d33" stroke-linecap="round" stroke-linejoin="round" stroke-width="2"/>
        <line x1="2.58" y1="13.91" x2="3.02" y2="12.33" fill="none" stroke="#a71d33" stroke-linecap="round" stroke-linejoin="round" stroke-width="2"/>
        <line x1="1" y1="12.42" x2="2.55" y2="11.89" fill="none" stroke="#a71d33" stroke-linecap="round" stroke-linejoin="round" stroke-width="2"/>
      </g>
      <g>
        <path d="M27,6.12H27a29,29,0,0,0-12.59,6.62h0a2.37,2.37,0,0,1-3.2-1l-.11-.2c-.61-1.16,0-2.28,1-3.21h0a28.86,28.86,0,0,1,12.6-6.61h0c1.31-.34,2.6-.16,3.2,1l.11.2A2.38,2.38,0,0,1,27,6.12Z" transform="translate(-8.5 -0.56)" fill="none" stroke="#a71d33" stroke-linecap="round" stroke-linejoin="round" stroke-width="2"/>
        <line x1="21.79" y1="3.9" x2="20.24" y2="3.36" fill="none" stroke="#a71d33" stroke-linecap="round" stroke-linejoin="round" stroke-width="2"/>
        <line x1="21.46" y1="1.76" x2="20.14" y2="2.72" fill="none" stroke="#a71d33" stroke-linecap="round" stroke-linejoin="round" stroke-width="2"/>
        <line x1="2.58" y1="13.91" x2="3.02" y2="12.33" fill="none" stroke="#a71d33" stroke-linecap="round" stroke-linejoin="round" stroke-width="2"/>
        <line x1="1" y1="12.42" x2="2.55" y2="11.89" fill="none" stroke="#a71d33" stroke-linecap="round" stroke-linejoin="round" stroke-width="2"/>
      </g>
    </g>
    <g>
      <g>
        <path d="M27.84,12.39l0,0a29,29,0,0,0-9.87,10.25h0a2.37,2.37,0,0,1-3.35.06l-.17-.16c-.94-.9-.69-2.16-.06-3.35v0A28.9,28.9,0,0,1,24.23,9l0,0c1.14-.74,2.41-1,3.35-.06l.17.16A2.37,2.37,0,0,1,27.84,12.39Z" transform="translate(-8.5 -0.56)" fill="none" stroke="#a71d33" stroke-linecap="round" stroke-linejoin="round" stroke-width="2"/>
        <line x1="21.91" y1="9.23" x2="20.28" y2="9.21" fill="none" stroke="#a71d33" stroke-linecap="round" stroke-linejoin="round" stroke-width="2"/>
        <line x1="20.93" y1="7.3" x2="19.98" y2="8.63" fill="none" stroke="#a71d33" stroke-linecap="round" stroke-linejoin="round" stroke-width="2"/>
        <line x1="6.84" y1="24.78" x2="6.76" y2="23.15" fill="none" stroke="#a71d33" stroke-linecap="round" stroke-linejoin="round" stroke-width="2"/>
        <line x1="4.87" y1="23.87" x2="6.17" y2="22.87" fill="none" stroke="#a71d33" stroke-linecap="round" stroke-linejoin="round" stroke-width="2"/>
      </g>
      <g>
        <path d="M27.84,12.39l0,0a29,29,0,0,0-9.87,10.25h0a2.37,2.37,0,0,1-3.35.06l-.17-.16c-.94-.9-.69-2.16-.06-3.35v0A28.9,28.9,0,0,1,24.23,9l0,0c1.14-.74,2.41-1,3.35-.06l.17.16A2.37,2.37,0,0,1,27.84,12.39Z" transform="translate(-8.5 -0.56)" fill="none" stroke="#a71d33" stroke-linecap="round" stroke-linejoin="round" stroke-width="2"/>
        <line x1="21.91" y1="9.23" x2="20.28" y2="9.21" fill="none" stroke="#a71d33" stroke-linecap="round" stroke-linejoin="round" stroke-width="2"/>
        <line x1="20.93" y1="7.3" x2="19.98" y2="8.63" fill="none" stroke="#a71d33" stroke-linecap="round" stroke-linejoin="round" stroke-width="2"/>
        <line x1="6.84" y1="24.78" x2="6.76" y2="23.15" fill="none" stroke="#a71d33" stroke-linecap="round" stroke-linejoin="round" stroke-width="2"/>
        <line x1="4.87" y1="23.87" x2="6.17" y2="22.87" fill="none" stroke="#a71d33" stroke-linecap="round" stroke-linejoin="round" stroke-width="2"/>
      </g>
    </g>
  </g>
</svg>
