<svg width="25" height="21" viewBox="0 0 25 21" fill="none" xmlns="http://www.w3.org/2000/svg">
<path d="M5 9C5 8.44772 5.44772 8 6 8H19C19.5523 8 20 8.44772 20 9V20H5V9Z" stroke="#A70230" stroke-width="2"/>
<path d="M1 20H24" stroke="#A70230" stroke-width="2" stroke-linecap="round" stroke-linejoin="round"/>
<path d="M11.5 7L12.2071 6.29289L11.5 7ZM9.5 1.99998L8.79289 1.29288L8.79289 1.29288L9.5 1.99998ZM13.5 7L12.7929 6.29289L13.5 7ZM15.5 1.99998L14.7929 2.70709L14.7929 2.70709L15.5 1.99998ZM12.5 1.99998L11.7929 2.70709L12.5 3.4142L13.2071 2.70709L12.5 1.99998ZM12.2071 6.29289C11.694 5.77976 10.9091 4.98811 10.42 4.173C10.1757 3.76578 10.0562 3.43381 10.0355 3.18898C10.0187 2.99097 10.0613 2.85293 10.2071 2.70709L8.79289 1.29288C8.18873 1.89704 7.98129 2.634 8.04264 3.35787C8.10001 4.03491 8.38683 4.6717 8.70501 5.20199C9.34094 6.26188 10.306 7.22024 10.7929 7.70711L12.2071 6.29289ZM13.5 9C13.5 8.39607 13.1908 7.27659 12.2071 6.29289L10.7929 7.70711C11.0936 8.00782 11.2736 8.31285 11.3776 8.56114C11.4297 8.68581 11.4617 8.79378 11.4801 8.8763C11.4995 8.96382 11.5 9.0061 11.5 9L13.5 9ZM13.5 9C13.5 9.0061 13.5005 8.96382 13.5199 8.87631C13.5383 8.79378 13.5703 8.68581 13.6224 8.56114C13.7264 8.31285 13.9064 8.00782 14.2071 7.70711L12.7929 6.29289C11.8092 7.27659 11.5 8.39607 11.5 9L13.5 9ZM14.2071 7.70711C14.694 7.22024 15.6591 6.26188 16.295 5.20199C16.6132 4.6717 16.9 4.03491 16.9574 3.35787C17.0187 2.634 16.8113 1.89704 16.2071 1.29288L14.7929 2.70709C14.9387 2.85293 14.9813 2.99097 14.9645 3.18898C14.9438 3.43381 14.8243 3.76578 14.58 4.173C14.0909 4.98811 13.306 5.77976 12.7929 6.29289L14.2071 7.70711ZM16.2071 1.29288C15.3766 0.462417 14.4275 0.236995 13.5768 0.375477C12.7882 0.503863 12.156 0.929724 11.7929 1.29288L13.2071 2.70709C13.344 2.57024 13.6118 2.39611 13.8982 2.34949C14.1225 2.31297 14.4234 2.33755 14.7929 2.70709L16.2071 1.29288ZM10.2071 2.70709C10.5766 2.33755 10.8775 2.31297 11.1018 2.34949C11.3882 2.39611 11.656 2.57024 11.7929 2.70709L13.2071 1.29288C12.844 0.929724 12.2118 0.503863 11.4232 0.375477C10.5725 0.236995 9.62335 0.462417 8.79289 1.29288L10.2071 2.70709Z" fill="#A70230"/>
<path d="M5 15.5C5.16667 15.6667 5.7 15.7 6.5 14.5C7.5 13 8.5 12 9 12C9.5 12 10 12.5 11 14C12 15.5 12 15.5 12.5 15.5C13 15.5 13 15.5 14 14C15 12.5 15.5 12 16 12C16.5 12 17.5 14 18 14.5C18.5 15 19 15.5 19.5 15.5" stroke="#A70230" stroke-width="2" stroke-linecap="round" stroke-linejoin="round"/>
</svg>
