<svg xmlns="http://www.w3.org/2000/svg" width="25.49" height="14.21" viewBox="0 0 25.49 14.21">
  <title>IconFrozen-kutlets</title>
  <g>
    <path d="M4.1,13.34,3.46,13a19.75,19.75,0,0,1-4.22.41c-4.41,0-6.76-1.12-6.94-1.52V10A18,18,0,0,0-.76,11.16c.4,0,.79,0,1.19,0a11.27,11.27,0,0,1-2.14-2c-3.59-.14-5.61-1-6-1.47.16-.28,1.09-.79,2.79-1.15h0l1-.16.19,0,1.06-.1.24,0c.17-.35.6-1.22,1-2h-.22c-4.18.12-8.15,1.22-8.15,3.5a2.13,2.13,0,0,0,0,.25V12c.12,2.37,4.58,3.43,8.94,3.43a17.82,17.82,0,0,0,7-1.18C5.5,14,4.79,13.67,4.1,13.34Z" transform="translate(9.73 -1.21)" fill="#a81d33"/>
    <path d="M15.31,8V8A3.41,3.41,0,0,0,15,7.6l-.13-.17a3.65,3.65,0,0,0-.26-.32,7.44,7.44,0,0,0-.55-.58l0,0,0,0a20.72,20.72,0,0,0-5-3.27,18.5,18.5,0,0,0-6.52-2H2.31a3.23,3.23,0,0,0-.44,0l-.32,0-.23,0L1,1.34l-.07,0A2.11,2.11,0,0,0-.55,2.44a2.09,2.09,0,0,0-.11.3c-.49,1-1.73,3.55-1.77,3.62-.93,2.19,2.62,5.09,6.54,7a17.58,17.58,0,0,0,6.9,2,2.74,2.74,0,0,0,2.65-1.19l0-.06.93-1.91.79-1.64a1.83,1.83,0,0,0,.16-.26A2.33,2.33,0,0,0,15.31,8ZM6.85,7.73C3.06,5.89,1.41,4,1.28,3.35a1.66,1.66,0,0,1,.8-.13,6.31,6.31,0,0,1,.9.07l.24,0,.44.08.49.11.41.1.87.26L5.78,4l.8.3.36.14c.4.17.81.35,1.24.56s.94.48,1.36.72c.12.06.22.13.34.2l.81.5.45.31.5.36c.25.19.48.38.68.55,0,0,0,0,0,.05A4.32,4.32,0,0,1,13.76,9.4h0C13.23,9.68,10.67,9.59,6.85,7.73ZM5,11.56C1,9.63-.6,7.59-.59,7.15c0,0,.42-.85.84-1.71A8.41,8.41,0,0,0,1,6.23a20.74,20.74,0,0,0,5,3.3,20.42,20.42,0,0,0,5.68,1.89,7,7,0,0,0,1.07.09l-.82,1.69C11.49,13.51,8.9,13.47,5,11.56Zm6.93,1.63Z" transform="translate(9.73 -1.21)" fill="#a81d33"/>
  </g>
</svg>
