<svg width="24" height="25" viewBox="0 0 24 25" fill="none" xmlns="http://www.w3.org/2000/svg">
<path d="M1 20.8749C2.16667 20.0416 4.5 17.6749 4.5 14.8749C4.5 11.3749 4 8.87495 5 6.87495C6 4.87495 7.5 4.87495 8 5.37495C8.4 5.77495 8.5 6.54165 8.5 6.875C8.66667 6.04167 9.3 3.975 10.5 2.375C12 0.375 14 0.875 14.5 1.875C14.9 2.675 15 3.54167 15 3.875C15.5 3.20833 16.3 2.275 17.5 1.875C19 1.375 20.7094 1.58443 21.5 2.375C22.5 3.375 23 4.875 22.5 6.375C22.1 7.575 20.6667 8.54167 20 8.875C20.6667 9.04167 22.1 9.675 22.5 10.875C23 12.375 22 13.875 20.5 14.875C19.3 15.675 17.8333 15.375 17.5 15.375C18 15.5417 19.4 16.675 19 17.875C18.5 19.375 17.5 19.875 13.5 19.875C9.5 19.875 8 20.375 6 21.375C4.4 22.175 3.66667 23.0417 3.5 23.375" stroke="#A70230" stroke-width="2" stroke-linecap="round" stroke-linejoin="round"/>
<path d="M8 16.875C9.16667 16.375 11.8 14.675 13 11.875C14.2 9.075 16.8333 7.375 18 6.875" stroke="#A70230" stroke-width="2" stroke-linecap="round" stroke-linejoin="round"/>
<path d="M9.5 11.375C10.5 12.375 10.5 13.075 10.5 13.875C10.5 14.675 10.5 15.375 9 16.375" stroke="#A70230" stroke-width="2" stroke-linecap="round" stroke-linejoin="round"/>
<path d="M13 11.875C14 10.8751 14.7 10.875 15.5 10.875C16.3 10.875 17.1667 11.2082 17.5 11.3749" stroke="#A70230" stroke-width="2" stroke-linecap="round" stroke-linejoin="round"/>
</svg>
