<svg xmlns="http://www.w3.org/2000/svg" width="23.78" height="24.07" viewBox="0 0 23.78 24.07">
  <title>Вторые блюда</title>
  <g>
    <path d="M21.55,3.21A8.46,8.46,0,0,0,7.1,10.05v0a6.53,6.53,0,0,1-1.43,3.38,1,1,0,0,0,0,1.42l.43.43-.89.88a1,1,0,0,1-1.07.22A2.88,2.88,0,0,0,.55,17.75,2.88,2.88,0,0,0,2.91,22a2.9,2.9,0,0,0,4.2,2.44A2.89,2.89,0,0,0,8.5,20.82a.89.89,0,0,1,.21-.93L9.66,19l.47.47a1,1,0,0,0,.72.3,1.08,1.08,0,0,0,.72-.31,6.24,6.24,0,0,1,2.88-1.86l.07,0a8.45,8.45,0,0,0,7-14.33Zm-15,16a1.45,1.45,0,0,0,0,2,.89.89,0,0,1-.06,1.19.9.9,0,0,1-1.28,0,.81.81,0,0,1-.25-.56,1.85,1.85,0,0,0-.46-1.24l-.18-.17A1.83,1.83,0,0,0,3,20a.86.86,0,0,1-.56-.26.9.9,0,0,1,1.2-1.33,1.46,1.46,0,0,0,2.07,0l1.73-1.7.79.8Zm13.54-5.49a6.42,6.42,0,0,1-5.48,1.78,3.33,3.33,0,0,0-2.4.77,10,10,0,0,0-1.3,1L7.7,14.11A7.46,7.46,0,0,0,8.51,13a3.9,3.9,0,0,0,.65-2.63A6.49,6.49,0,0,1,11,4.48a6.58,6.58,0,0,1,9,.06A6.48,6.48,0,0,1,20.05,13.76Z" transform="translate(-0.2 -0.68)" fill="#a81d33"/>
    <circle cx="11.4" cy="7.47" r="0.98" fill="#a81d33"/>
    <circle cx="12.97" cy="4.36" r="0.98" fill="#a81d33"/>
    <circle cx="16.26" cy="4.66" r="0.98" fill="#a81d33"/>
  </g>
</svg>
