<svg xmlns="http://www.w3.org/2000/svg" width="25.8" height="16.48" viewBox="0 0 25.8 16.48">
  <title>IconFrozen-varenik</title>
  <g>
    <g>
      <path d="M36.4-28.3a2.22,2.22,0,0,1-2-2.37,2.22,2.22,0,0,1,2-2.37" transform="translate(-25.12 43.77)" fill="none" stroke="#a71d33" stroke-linecap="round" stroke-linejoin="round" stroke-width="2"/>
      <path d="M40.09-35.14a2.08,2.08,0,0,1,2.14-2,2.08,2.08,0,0,1,2.14,2" transform="translate(-25.12 43.77)" fill="none" stroke="#a71d33" stroke-linecap="round" stroke-linejoin="round" stroke-width="2"/>
      <path d="M47.89-28.31a2.22,2.22,0,0,0,2-2.37,2.22,2.22,0,0,0-2-2.37" transform="translate(-25.12 43.77)" fill="none" stroke="#a71d33" stroke-linecap="round" stroke-linejoin="round" stroke-width="2"/>
      <path d="M47.87-33.06a2,2,0,0,0-.75-2.77,2.06,2.06,0,0,0-2.8.74" transform="translate(-25.12 43.77)" fill="none" stroke="#a71d33" stroke-linecap="round" stroke-linejoin="round" stroke-width="2"/>
      <path d="M36.29-28.31h11.5" transform="translate(-25.12 43.77)" fill="none" stroke="#a71d33" stroke-width="2"/>
      <path d="M40.05-35.1a2,2,0,0,0-2.76-.82,2.06,2.06,0,0,0-.84,2.77" transform="translate(-25.12 43.77)" fill="none" stroke="#a71d33" stroke-linecap="round" stroke-linejoin="round" stroke-width="2"/>
    </g>
    <g>
      <path d="M28.15-33.9a2.22,2.22,0,0,1-2-2.37,2.22,2.22,0,0,1,2-2.37" transform="translate(-25.12 43.77)" fill="none" stroke="#a71d33" stroke-linecap="round" stroke-linejoin="round" stroke-width="2"/>
      <path d="M31.84-40.74a2.08,2.08,0,0,1,2.14-2,2.09,2.09,0,0,1,2.15,2" transform="translate(-25.12 43.77)" fill="none" stroke="#a71d33" stroke-linecap="round" stroke-linejoin="round" stroke-width="2"/>
      <path d="M41.43-37.42a2,2,0,0,0-1.78-1.23" transform="translate(-25.12 43.77)" fill="none" stroke="#a71d33" stroke-linecap="round" stroke-linejoin="round" stroke-width="2"/>
      <path d="M39.63-38.66a2,2,0,0,0-.76-2.77,2.05,2.05,0,0,0-2.8.74" transform="translate(-25.12 43.77)" fill="none" stroke="#a71d33" stroke-linecap="round" stroke-linejoin="round" stroke-width="2"/>
      <path d="M28-33.92h8.14" transform="translate(-25.12 43.77)" fill="none" stroke="#a71d33" stroke-width="2"/>
      <path d="M31.8-40.7a2,2,0,0,0-2.75-.82,2.05,2.05,0,0,0-.84,2.77" transform="translate(-25.12 43.77)" fill="none" stroke="#a71d33" stroke-linecap="round" stroke-linejoin="round" stroke-width="2"/>
    </g>
  </g>
</svg>
