<svg width="193" height="34" viewBox="0 0 193 34" fill="none" xmlns="http://www.w3.org/2000/svg">
<path d="M56.4359 21.1823C56.3446 21.2052 56.3218 21.365 56.2305 21.268C56.3218 21.0967 56.4188 20.9426 56.4987 20.7771C56.5329 20.7086 56.5444 20.6287 56.5672 20.5545C56.5729 20.5374 56.5957 20.5203 56.6129 20.5146C56.6243 20.5146 56.6528 20.5374 56.6528 20.5488C56.6528 20.6915 56.767 20.7543 56.8469 20.8285C57.1437 21.0967 57.4461 21.3593 57.7429 21.6218C57.8171 21.6903 57.9084 21.7816 57.9941 21.7303C58.0454 21.7017 58.0397 21.559 58.0397 21.4734C58.034 21.3022 57.9655 21.1652 57.8171 21.0511C57.5432 20.8342 57.2864 20.5888 57.0238 20.3548C56.9667 20.3034 56.9211 20.2463 56.9496 20.1607C56.9782 20.0808 57.0352 20.0066 57.1208 20.0123C57.1836 20.0123 57.2521 20.0523 57.3035 20.0922C57.5318 20.2863 57.7544 20.486 57.977 20.6858C58.0683 20.6173 58.0625 20.526 58.0283 20.4518C57.9541 20.292 57.8742 20.1379 57.8628 19.9552C57.8628 19.9267 57.8057 19.8867 57.7658 19.8753C57.6174 19.8297 57.4975 19.7555 57.4462 19.5957C57.3834 19.4016 57.4404 19.2304 57.6859 19.1219C57.9256 19.0192 58.1767 19.0306 58.4164 19.1219C58.582 19.1847 58.7303 19.2761 58.8959 19.356C58.9244 19.3103 58.9586 19.2646 58.8901 19.179C58.7931 19.0535 58.7075 18.9108 58.6561 18.7624C58.5648 18.5055 58.679 18.0946 59.0785 17.9519C58.9701 17.8834 58.873 17.8149 58.7931 17.7636C58.6276 17.8891 58.4906 18.0147 58.3251 18.1117C58.1082 18.2373 57.8685 18.2772 57.6288 18.1631C57.4633 18.0832 57.3777 17.9462 57.3834 17.7636C57.3834 17.5923 57.4747 17.4725 57.6174 17.3869C57.9199 17.2099 58.2395 17.2727 58.5591 17.3355C58.6048 17.3469 58.6505 17.364 58.7018 17.3755C58.8217 17.404 58.8559 17.3755 58.8787 17.2442C58.8959 17.13 58.9187 17.0159 58.9415 16.8789C59.0785 17.0958 58.9187 17.2727 58.9301 17.4611C59.3068 17.6095 59.6435 17.8378 59.9346 18.1231C60.1743 18.3571 60.3684 18.6197 60.4768 18.945C60.5682 19.2247 60.4882 19.5101 60.2542 19.6071C60.1115 19.6642 59.9346 19.6585 59.7748 19.6527C59.4837 19.6413 59.2611 19.4701 59.0328 19.3217C59.0157 19.3674 58.9929 19.4073 58.9701 19.4587C59.1641 19.6585 59.3353 19.8753 59.3981 20.155C59.4552 20.4118 59.3981 20.6915 59.147 20.857C58.9986 20.954 58.8274 20.9655 58.6676 20.8913C58.4906 20.8114 58.3194 20.7143 58.1482 20.623C58.1311 20.6573 58.1082 20.72 58.0854 20.7828C58.2338 20.9141 58.3822 21.0397 58.5249 21.1709C58.5991 21.2337 58.6333 21.3136 58.5934 21.4106C58.5591 21.4906 58.4963 21.5533 58.405 21.5362C58.3479 21.5305 58.2909 21.4906 58.2395 21.462C58.1996 21.4392 58.1653 21.3992 58.1482 21.3878C58.1482 21.5134 58.1539 21.6618 58.1482 21.8045C58.1425 21.9186 58.1482 22.0442 58.034 22.1184C57.9256 22.1869 57.8 22.1697 57.6688 22.0556C57.4804 21.8901 57.292 21.7189 57.1094 21.5476C56.9325 21.3878 56.7498 21.2223 56.5729 21.0568C56.5272 21.0168 56.4987 21.0111 56.4816 21.0511C56.7727 21.4221 57.0752 21.7702 57.3377 22.1412C57.5889 22.4951 57.7886 22.8832 57.8171 23.3341C57.8457 23.8135 57.4804 24.1559 57.0466 24.1959C56.7898 24.2187 56.5558 24.1559 56.3617 23.979C56.3389 23.9562 56.3275 23.9162 56.3161 23.8877C56.3218 23.882 56.3332 23.8763 56.3389 23.8706C56.396 23.9048 56.4531 23.9391 56.5101 23.9676C56.824 24.1388 57.1322 24.1559 57.4347 23.9448C57.6345 23.8078 57.7486 23.4996 57.7144 23.2599C57.6516 22.8603 57.4861 22.5122 57.2464 22.1983C57.0409 21.9186 56.8183 21.6504 56.6014 21.3764C56.5558 21.3079 56.493 21.2451 56.4359 21.1823ZM59.7063 18.4028C59.615 18.3172 59.5408 18.2544 59.4666 18.1916C59.4038 18.1403 59.3467 18.0946 59.2782 18.0547C59.1755 18.0033 59.0956 18.0718 59.0043 18.1117C58.8045 18.203 58.8159 18.4199 58.8959 18.5398C58.9929 18.6825 59.1071 18.8137 59.2383 18.9279C59.3753 19.0535 59.5294 19.1619 59.6778 19.2589C59.8433 19.3674 60.0145 19.4587 60.22 19.4587C60.3341 19.4587 60.4026 19.4073 60.3912 19.2989C60.3798 19.219 60.3399 19.1334 60.2942 19.0592C60.1344 18.7966 59.9232 18.5854 59.7063 18.4028ZM58.1539 19.9495C58.1539 19.9495 58.1596 19.9724 58.1653 19.9781C58.3251 20.1379 58.4735 20.3148 58.6504 20.4575C58.7874 20.5659 58.9472 20.6573 59.1356 20.6744C59.2611 20.6858 59.3068 20.6458 59.2897 20.5203C59.284 20.4917 59.2783 20.4575 59.2611 20.429C59.1299 20.2064 58.9643 20.018 58.7874 19.8354C58.7189 19.7612 58.6561 19.7555 58.5648 19.8011C58.4392 19.8639 58.2966 19.8982 58.1539 19.9495ZM58.6961 17.678C58.4792 17.5923 58.2852 17.501 58.0797 17.444C57.9827 17.4154 57.8571 17.4211 57.7601 17.4497C57.6117 17.4953 57.5204 17.5923 57.6174 17.7236C57.7487 17.9005 57.937 18.009 58.1596 18.009C58.3822 18.009 58.5249 17.8606 58.6961 17.678ZM58.5819 19.6927C58.5819 19.6813 58.5819 19.6642 58.5819 19.6527C58.502 19.5957 58.4221 19.5386 58.3479 19.4758C58.1767 19.3502 57.9884 19.2703 57.7829 19.2361C57.6288 19.2133 57.5146 19.3274 57.5318 19.4872C57.5489 19.647 57.6916 19.7669 57.8571 19.7726C57.897 19.6584 57.937 19.55 57.977 19.4416C57.9827 19.4473 57.9884 19.4473 57.9941 19.453C58.0226 19.5728 58.0454 19.6984 58.0797 19.8468C58.2566 19.7954 58.4164 19.7441 58.5819 19.6927Z" fill="white"/>
<path d="M55.3384 22.4325C55.3498 22.2727 55.3441 22.13 55.3783 21.993C55.4525 21.6848 55.7036 21.5364 56.0175 21.6391C56.5712 21.8218 56.9365 22.1985 57.0906 22.7578C57.1476 22.9576 57.1476 23.163 56.9707 23.3172C56.8109 23.4484 56.6282 23.4998 56.4228 23.4598C56.1888 23.4085 55.9776 23.3114 55.7892 23.163C55.5724 22.9918 55.344 22.832 55.1386 22.6437C54.8646 22.3868 54.6135 22.1015 54.4708 21.7419C54.351 21.4394 54.3395 21.1312 54.4594 20.823C54.5507 20.589 54.7334 20.4463 54.956 20.3378C55.1272 20.2579 55.2927 20.1495 55.4525 20.0468C55.561 19.9783 55.5952 19.807 55.5381 19.6529C55.5153 19.5959 55.4924 19.5388 55.4924 19.4646C55.5153 19.4817 55.5495 19.4874 55.5666 19.5103C55.6922 19.6872 55.6694 19.8984 55.5324 20.0696C55.4125 20.218 55.247 20.2922 55.0815 20.3835C54.9788 20.4406 54.8817 20.4977 54.779 20.5604C54.5678 20.6917 54.5051 20.9086 54.5108 21.1369C54.5165 21.4736 54.6592 21.7476 54.8989 21.9816C55.0473 22.1186 55.19 22.2784 55.3384 22.4325ZM56.5312 22.3754C56.4456 22.3126 56.3828 22.2556 56.3086 22.2156C56.1203 22.1072 55.9319 21.993 55.7322 21.9131C55.5667 21.8446 55.4696 21.9017 55.4525 22.0957C55.4297 22.3583 55.4982 22.5752 55.7265 22.735C56.0175 22.9405 56.3086 23.1402 56.6568 23.2315C56.7481 23.2544 56.868 23.2487 56.9422 23.203C57.0278 23.1459 57.0278 23.0261 56.9821 22.9233C56.8965 22.6779 56.6625 22.5581 56.5312 22.3754Z" fill="white"/>
<path d="M60.7427 17.3189C60.5885 17.3932 60.4629 17.4617 60.3372 17.5017C60.2002 17.5416 60.0745 17.4845 59.9832 17.3818C59.8975 17.279 59.8689 17.1533 59.9146 17.0277C59.9603 16.9021 60.1659 16.7764 60.3258 16.7935C60.48 16.8107 60.6342 16.8449 60.8055 16.8735C60.7998 16.7764 60.7941 16.6565 60.7883 16.5366C60.7998 16.5309 60.8112 16.5309 60.8226 16.5251C60.8455 16.5708 60.874 16.6108 60.8797 16.6565C60.8911 16.7364 60.874 16.8221 60.8854 16.902C60.8911 16.942 60.914 16.9934 60.9425 17.0163C61.3366 17.2961 61.5536 17.6559 61.5079 18.1527C61.4851 18.3925 61.2566 18.5582 61.0282 18.5353C60.6284 18.4896 60.3086 18.3126 60.0345 18.0156C59.7718 17.7301 59.6576 17.3989 59.6062 17.0334C59.5891 16.9021 59.6234 16.765 59.6405 16.6336C59.6405 16.6165 59.6748 16.6051 59.6748 16.6051C59.6919 16.765 59.6976 16.9249 59.7262 17.0848C59.7604 17.2675 59.8746 17.4217 60.006 17.5474C60.143 17.6787 60.2858 17.8101 60.44 17.9243C60.6799 18.107 60.9425 18.2669 61.2452 18.324C61.388 18.3526 61.4279 18.3069 61.3822 18.1698C61.3194 17.9871 61.2338 17.8101 61.0967 17.673C60.9711 17.5474 60.8454 17.4217 60.7427 17.3189ZM60.5942 17.239C60.4571 17.0962 60.223 16.982 60.0859 17.0048C60.0517 17.0106 59.9946 17.0505 59.9946 17.0677C60.006 17.1476 60.0117 17.2447 60.0631 17.2961C60.2116 17.4674 60.4514 17.4331 60.5942 17.239Z" fill="white"/>
<path d="M50.4692 31.2849C57.5931 31.2849 63.3681 25.5098 63.3681 18.386C63.3681 11.2621 57.5931 5.48706 50.4692 5.48706C43.3453 5.48706 37.5703 11.2621 37.5703 18.386C37.5703 25.5098 43.3453 31.2849 50.4692 31.2849Z" fill="#00447A"/>
<path d="M55.1884 21.7075C55.2398 21.9016 55.3083 22.1128 55.3482 22.3296C55.4053 22.655 55.1941 22.8547 54.8745 22.7634C54.6804 22.7063 54.4921 22.6036 54.3323 22.4837C54.0184 22.2497 53.733 21.9758 53.4248 21.7361C53.2193 21.5763 52.991 21.445 52.7627 21.3194C52.5972 21.2281 52.5401 21.2738 52.5515 21.4564C52.563 21.7132 52.6429 21.9244 52.8597 22.1013C53.3278 22.4895 53.7787 22.9004 54.2353 23.3056C54.2866 23.3513 54.3323 23.4084 54.3665 23.4654C54.4636 23.6081 54.3722 23.7052 54.2752 23.7908C54.1782 23.8764 54.0869 23.825 54.0069 23.7565C53.4819 23.2942 52.9682 22.8262 52.4317 22.381C52.289 22.2612 52.0892 22.1984 51.9123 22.1185C51.7982 22.0728 51.724 22.1128 51.724 22.2497C51.724 22.5808 51.7582 22.8947 52.0379 23.1344C52.3518 23.4027 52.6657 23.6823 52.9739 23.9563C53.1451 24.1104 53.3106 24.2816 53.4819 24.4414C53.596 24.5556 53.5332 24.6412 53.4476 24.7382C53.362 24.8409 53.2764 24.8352 53.1908 24.7553C52.8883 24.4871 52.5915 24.2188 52.289 23.9449C51.9009 23.5967 51.5128 23.2428 51.1247 22.8947C50.9991 22.7805 50.982 22.6892 51.0733 22.5865C51.176 22.4609 51.2674 22.4552 51.3986 22.5637C51.4614 22.615 51.5242 22.6721 51.6041 22.7463C51.5984 22.5351 51.5813 22.3639 51.5984 22.1984C51.6155 22.01 51.6669 21.8103 51.8666 21.7475C52.0036 21.7018 52.1692 21.7361 52.3176 21.7418C52.3518 21.7418 52.3918 21.7703 52.426 21.7817C52.4146 21.6562 52.4089 21.5363 52.3918 21.4165C52.3233 20.977 52.7114 20.7943 53.0595 20.9313C53.2821 21.0169 53.4876 21.1539 53.6759 21.3023C53.9613 21.5249 54.2181 21.7874 54.4978 22.0157C54.6462 22.1356 54.8231 22.2383 54.9944 22.3296C55.1313 22.4038 55.2226 22.3239 55.1827 22.1755C55.1313 21.9929 55.0571 21.816 54.9772 21.6448C54.9487 21.5877 54.8688 21.5477 54.806 21.5078C54.4464 21.308 54.1668 21.0169 53.9613 20.6688C53.6531 20.1437 53.5047 19.5786 53.693 18.9737C53.7045 18.928 53.733 18.888 53.773 18.8424C53.7216 19.2248 53.8072 19.5786 53.9613 19.9097C54.0869 20.1779 54.2409 20.4233 54.4635 20.6288C54.8117 20.9541 55.1884 21.2281 55.6564 21.3537C55.8276 21.3993 56.0103 21.405 56.1929 21.405C56.3014 21.405 56.3698 21.3251 56.3527 21.1939C56.3185 20.9256 56.1758 20.703 56.0274 20.4918C55.9361 20.3663 55.8219 20.2578 55.7249 20.138C55.6735 20.0809 55.6222 20.0866 55.5537 20.1094C55.1713 20.2236 54.7832 20.275 54.4008 20.0866C54.2181 19.9953 54.064 19.8583 54.0412 19.6528C54.0184 19.4245 54.1611 19.2704 54.3494 19.1563C54.6348 18.9794 54.9259 19.0307 55.2055 19.1563C55.4624 19.2761 55.7021 19.4417 55.9703 19.6015C55.9989 19.5501 56.0502 19.4759 56.0845 19.3903C56.0959 19.3618 56.0788 19.3104 56.056 19.2876C55.8162 19.0821 55.5594 18.8995 55.3368 18.6769C55.2284 18.5684 55.04 18.4885 55.08 18.2716C55.1028 18.1518 55.2227 18.0719 55.3368 18.1175C55.4281 18.1575 55.5137 18.2031 55.5765 18.2374C55.5936 18.0605 55.5936 17.855 55.6336 17.6609C55.7135 17.3071 56.0559 17.1872 56.3756 17.2671C56.815 17.3813 57.1404 17.6495 57.4486 17.9634C57.734 18.2545 57.9851 18.557 58.1392 18.9394C58.2533 19.2362 58.1791 19.4702 57.9566 19.6757C57.7796 19.8355 57.5741 19.8012 57.3572 19.7613C57.517 19.9154 57.6654 20.0752 57.8253 20.2179C58.1791 20.5432 58.533 20.8799 58.7099 21.3308C58.9782 22.0157 58.8241 22.7634 57.9965 23.0031C57.5855 23.123 57.1746 23.026 56.8493 22.7178C56.8265 22.6949 56.8093 22.6607 56.7808 22.615C56.9977 22.7006 57.1803 22.7863 57.3744 22.849C57.7682 22.986 58.1278 22.9118 58.4302 22.6207C58.6985 22.3639 58.7213 21.8445 58.4816 21.5306C58.3161 21.3137 58.1278 21.1197 57.9394 20.9256C57.7282 20.7087 57.5056 20.509 57.283 20.3035C56.9463 20.001 56.6039 19.6985 56.2557 19.396C56.1872 19.5273 56.1358 19.6243 56.0845 19.7327C56.3699 19.9953 56.5239 20.3434 56.5696 20.7144C56.6324 21.2281 56.4555 21.6448 55.8162 21.7132C55.5879 21.7475 55.3767 21.7132 55.1884 21.7075ZM56.9806 18.1746C56.855 18.0833 56.7408 17.9805 56.6096 17.9064C56.4098 17.7979 56.2043 17.6895 55.9875 17.6096C55.8277 17.5525 55.7192 17.6495 55.7192 17.8207C55.7192 17.9406 55.7135 18.0662 55.742 18.1803C55.7877 18.3687 55.8619 18.5342 56.0274 18.6654C56.2443 18.8367 56.4383 19.0364 56.6552 19.2077C56.8778 19.3846 57.089 19.5958 57.3858 19.6471C57.5228 19.67 57.6769 19.7213 57.791 19.5786C57.888 19.4531 57.8481 19.3389 57.791 19.2134C57.6141 18.791 57.2831 18.4999 56.9806 18.1746ZM55.4567 19.8926C55.3654 19.8184 55.3083 19.7556 55.2341 19.7213C54.9944 19.6015 54.7603 19.4702 54.5092 19.3789C54.3266 19.3161 54.1382 19.4588 54.1725 19.6072C54.1953 19.7156 54.2581 19.8355 54.338 19.8983C54.6633 20.1323 55.0229 20.1551 55.3996 20.0295C55.5023 19.9953 55.5765 19.9553 55.4567 19.8926Z" fill="white"/>
<path d="M58.9735 15.8572C58.905 15.9428 58.8537 16.0113 58.7966 16.0855C59.0877 16.3651 59.3217 16.6848 59.453 17.0557C59.5728 17.3982 59.6071 17.7578 59.4016 18.0888C59.2931 18.26 59.1219 18.3513 58.9221 18.3799C58.534 18.4312 58.2087 18.3 57.9062 18.066C57.5524 17.792 57.3469 17.4381 57.2613 17.0101C57.2556 16.9701 57.1871 16.9245 57.1357 16.9131C57.0444 16.8845 56.9474 16.8788 56.8618 16.8503C56.4565 16.7361 56.3253 16.3252 56.565 15.9713C56.8789 15.509 57.2727 15.4634 57.775 15.5832C58.0603 15.6517 58.3172 15.8286 58.5854 15.9599C58.6596 15.9942 58.711 16.0113 58.7681 15.9371C58.808 15.88 58.8651 15.84 58.9221 15.783C58.8308 15.606 58.7167 15.4177 58.6425 15.2179C58.5169 14.8869 58.4884 14.5559 58.6539 14.2248C58.7909 13.9509 59.0991 13.7797 59.3616 13.8596C59.5214 13.9052 59.647 14.065 59.6584 14.2362C59.7041 14.7214 59.4758 15.1152 59.2703 15.5261C59.5957 15.8857 59.9952 16.1597 60.4518 16.3138C60.7714 16.4222 61.1138 16.485 61.462 16.3994C61.6332 16.3594 61.8558 16.1026 61.8672 15.8629C61.8786 15.6346 61.8387 15.4063 61.8273 15.178C61.8273 15.1437 61.8444 15.1038 61.8501 15.0695C61.8786 15.0924 61.9243 15.1095 61.93 15.138C62.0499 15.606 62.0499 16.0455 61.6903 16.4222C61.3878 16.7475 61.0111 16.856 60.583 16.8274C59.9723 16.7932 59.5214 16.4565 59.1048 16.0512C59.0591 15.9942 59.0249 15.9314 58.9735 15.8572ZM57.4268 16.9302C57.6437 17.1471 57.8377 17.3811 58.066 17.5751C58.3229 17.7977 58.6197 17.9575 58.9678 17.9918C59.0934 18.0032 59.2646 18.0774 59.3217 17.9176C59.3616 17.8091 59.3103 17.6607 59.2989 17.5295C59.2989 17.5181 59.2817 17.5066 59.276 17.4895C59.0877 17.2041 58.905 16.9131 58.711 16.6277C58.6539 16.5421 58.5626 16.4622 58.4656 16.4279C58.4199 16.4108 58.3343 16.4964 58.2658 16.5364C58.2316 16.5535 58.1973 16.582 58.1631 16.5934C57.9291 16.7076 57.695 16.8103 57.4268 16.9302ZM58.3115 16.3708C58.3115 16.348 58.3058 16.3309 58.3058 16.3081C57.9119 15.9827 57.4496 15.8572 56.936 15.9085C56.7761 15.9257 56.6506 16.0113 56.6049 16.1768C56.5592 16.3594 56.5992 16.5307 56.759 16.6277C56.8903 16.7076 57.0558 16.7475 57.1985 16.7989C57.2385 16.5706 57.2727 16.3766 57.3012 16.1825C57.3298 16.1825 57.364 16.1882 57.3925 16.1882C57.3925 16.3823 57.3925 16.5706 57.3925 16.8103C57.7293 16.6562 58.0204 16.5135 58.3115 16.3708ZM59.179 15.4462C59.2246 15.3492 59.2646 15.2579 59.3103 15.1723C59.4929 14.8127 59.3788 14.3732 59.0477 14.1449C58.945 14.0707 58.8537 14.105 58.7966 14.1792C58.7452 14.2477 58.711 14.339 58.6939 14.4246C58.6197 14.8641 58.8422 15.1723 59.179 15.4462Z" fill="white"/>
<path d="M49.293 29.076C48.9848 28.7735 48.6994 28.4539 48.6423 28.003C48.591 27.5977 48.7965 27.2325 49.2473 27.1697C49.6126 27.1183 49.9437 27.2211 50.2519 27.4151C50.3774 27.495 50.503 27.5749 50.6 27.6834C50.737 27.8375 50.7256 27.9744 50.6057 28.1C50.5087 28.197 50.3375 28.1913 50.1948 28.0943C49.9665 27.9345 49.7496 27.7633 49.5099 27.6263C49.3957 27.5578 49.2359 27.5178 49.1104 27.5407C48.7965 27.5977 48.7222 27.7804 48.8307 28.1228C48.9677 28.5566 49.2587 28.8933 49.6468 29.1388C49.955 29.3328 50.2804 29.4698 50.64 29.5098C51.011 29.5554 51.3648 29.4926 51.6388 29.213C51.8899 28.9618 51.8956 28.5281 51.7586 28.2484C51.536 27.7861 51.2107 27.398 50.8511 27.0384C50.4973 26.6788 50.1491 26.3193 49.7952 25.9654C49.6297 25.7999 49.4528 25.6401 49.2759 25.4803C48.6538 24.9381 48.0259 24.4016 47.3981 23.8593C47.3582 23.8251 47.3182 23.7794 47.2839 23.7395C47.1698 23.6139 47.2611 23.5283 47.3467 23.4427C47.4266 23.3571 47.5123 23.3514 47.6036 23.4313C47.8376 23.631 48.0659 23.8422 48.2999 24.042C48.5795 24.2817 48.8649 24.5043 49.1389 24.7497C49.6583 25.212 50.1834 25.6629 50.6742 26.1538C51.1593 26.6332 51.6274 27.1354 51.8842 27.7861C52.0668 28.2427 52.1011 28.6993 51.8899 29.1502C51.7872 29.3728 51.5703 29.4869 51.3591 29.5782C50.9596 29.7609 50.5486 29.7038 50.1491 29.5668C49.8238 29.4584 49.5327 29.31 49.293 29.076Z" fill="white"/>
<path d="M49.5987 23.7906C49.7642 23.431 50.0439 23.2769 50.3977 23.3112C50.6203 23.334 50.8487 23.4025 51.0598 23.4824C51.4023 23.608 51.7105 23.8134 51.973 24.0646C52.3897 24.4584 52.7435 24.9036 52.852 25.4857C52.9319 25.9366 52.909 26.3818 52.578 26.7357C52.3269 27.0039 51.9901 27.0781 51.6306 27.0268C51.602 27.0211 51.5735 26.9868 51.5449 26.964C51.5735 26.9411 51.602 26.8955 51.6363 26.8898C51.8361 26.8441 52.0358 26.8099 52.2356 26.7642C52.578 26.6843 52.7321 26.1935 52.6294 25.8967C52.5152 25.5656 52.3383 25.286 52.0986 25.0348C51.8874 24.8123 51.6762 24.5782 51.4422 24.3842C51.134 24.1217 50.7916 23.9048 50.4092 23.7735C49.924 23.6023 49.6843 23.7792 49.6215 24.3043C49.6101 24.407 49.5873 24.5098 49.5473 24.6068C49.5302 24.6582 49.4788 24.6924 49.4389 24.7324C49.4218 24.7266 49.4047 24.7209 49.3875 24.7209C49.3761 24.641 49.3533 24.5611 49.3533 24.4812C49.359 24.3899 49.3761 24.2986 49.4161 24.2187C49.5416 23.9219 49.3761 23.705 49.222 23.4938C48.9537 23.1285 48.5713 22.9288 48.1547 22.7975C47.9321 22.729 47.6867 22.6548 47.4698 22.8375C47.4299 22.8717 47.4013 22.9174 47.3728 22.963C47.0303 23.5966 46.9733 24.2415 47.4527 24.8294C47.6696 25.0976 47.9778 25.2517 48.3088 25.3316C48.4401 25.3659 48.5257 25.4743 48.4972 25.5771C48.4686 25.6798 48.3431 25.7369 48.2118 25.7083C47.6068 25.5771 47.2529 25.1832 47.0589 24.6182C46.8705 24.076 46.9504 23.5566 47.1673 23.0486C47.2929 22.7633 47.4584 22.5064 47.7266 22.3238C48.0748 22.0898 48.4344 22.1412 48.7426 22.3752C49.1878 22.7119 49.4332 23.1742 49.5588 23.7107C49.5759 23.7278 49.5816 23.745 49.5987 23.7906Z" fill="white"/>
<path d="M42.7722 10.1724C38.5258 14.2784 38.5144 20.9229 42.7322 25.0454L58.1481 10.1338C53.8847 6.05546 47.0129 6.0665 42.7722 10.1724Z" fill="white"/>
<path d="M38.7485 25.0691C38.9083 25.2118 39.051 25.3431 39.1994 25.4686C39.2907 25.5428 39.3991 25.5314 39.4733 25.4515C39.5361 25.383 39.5247 25.2746 39.4505 25.1947C39.3306 25.0748 39.2165 24.9435 39.0852 24.8408C38.9368 24.7324 38.8969 24.6125 38.9711 24.4698C39.1309 24.5668 39.2964 24.6696 39.4619 24.7609C39.6388 24.8579 39.8386 24.8808 40.0269 24.818C40.221 24.7552 40.4208 24.4184 40.4094 24.2187C40.3979 23.9733 40.3352 23.745 40.2153 23.5395C40.1126 23.3683 39.9813 23.197 39.8329 23.0658C39.753 22.9973 39.7416 22.963 39.7815 22.8831C39.7987 22.8546 39.8158 22.8204 39.8272 22.7975C39.8843 22.8432 39.9299 22.8831 39.9813 22.9174C40.3123 23.14 40.6319 23.3854 41.0657 23.3626C41.2369 23.3511 41.3739 23.2998 41.4709 23.1685C41.6536 22.9345 41.625 22.672 41.5509 22.4094C41.4652 22.1126 41.2826 21.8615 41.0714 21.6503C40.7119 21.2965 40.3237 20.9597 39.8614 20.7371C39.9813 20.4175 40.0098 20.0979 39.9185 19.7726C39.8443 19.5043 39.6902 19.2817 39.5019 19.0762C39.2736 18.8308 39.0167 18.6539 38.6914 18.574C38.6629 18.5683 38.6286 18.5968 38.5944 18.6139C38.6172 18.6368 38.64 18.671 38.6686 18.6824C38.7656 18.7224 38.8798 18.7338 38.9654 18.7909C39.2622 18.9735 39.5076 19.2075 39.6731 19.51C39.8614 19.8525 39.9071 20.212 39.7758 20.5887C39.753 20.6572 39.7245 20.6629 39.6617 20.6401C39.3535 20.5259 39.0396 20.4403 38.7085 20.5259C38.4802 20.583 38.269 20.6743 38.1492 20.8912C37.9608 21.2451 38.2747 21.6332 38.6686 21.6218C39.0395 21.6104 39.3477 21.4506 39.5932 21.1709C39.6274 21.1309 39.6959 21.0853 39.7244 21.0967C39.8044 21.1309 39.8729 21.1937 39.9642 21.2565C39.6331 21.3592 39.3991 21.696 39.4162 22.0099C39.4277 22.2325 39.5304 22.4208 39.656 22.5921C39.7473 22.7233 39.753 22.7747 39.6446 22.906C39.5932 22.8717 39.5361 22.8375 39.479 22.8032C39.2393 22.6605 38.9768 22.5635 38.6971 22.5578C38.4916 22.5521 38.309 22.6263 38.1948 22.8032C38.0236 23.0715 38.2291 23.3683 38.4745 23.4824C38.5544 23.5167 38.5772 23.5623 38.6001 23.6422C38.6572 23.8192 38.7085 23.9961 38.7998 24.1616C38.8683 24.2929 38.8797 24.4127 38.8284 24.5668C38.7256 24.4755 38.6286 24.3899 38.5316 24.3043C38.3261 24.1217 38.1207 23.939 37.9152 23.7564C37.801 23.6536 37.7211 23.6594 37.6241 23.7735C37.5271 23.8819 37.5328 23.9504 37.6469 24.0532C37.9266 24.3043 38.2063 24.5497 38.4916 24.8008C38.5202 24.8237 38.5601 24.8465 38.5715 24.8808C38.6743 25.149 38.7713 25.4173 38.8854 25.7198C38.817 25.6969 38.7827 25.6912 38.7599 25.6741C38.6229 25.5714 38.4802 25.4743 38.3489 25.3659C38.0008 25.0805 37.6583 24.7837 37.3102 24.4984C37.2702 24.4641 37.2246 24.4356 37.1732 24.4184C37.1275 24.407 37.0419 24.4013 37.0248 24.4242C36.9906 24.4755 36.9677 24.5554 36.9849 24.6068C37.0134 24.7038 37.0648 24.8008 37.1276 24.8922C37.2931 25.1376 37.47 25.3773 37.6298 25.6284C37.9209 26.085 38.2234 26.5302 38.4231 27.0382C38.5373 27.3236 38.6001 27.6032 38.5373 27.9C38.4916 28.1283 38.349 28.3167 38.1435 28.4137C37.9323 28.5107 37.6869 28.4822 37.4529 28.4308C37.1789 28.3623 36.9392 28.2196 36.728 28.0313C36.6881 27.997 36.631 27.9856 36.5796 27.9628C36.5739 27.9799 36.5682 27.9913 36.5625 28.0085C36.9164 28.368 37.333 28.602 37.8524 28.5906C38.2063 28.5849 38.4574 28.4137 38.5887 28.0827C38.7428 27.7117 38.6857 27.3464 38.5316 26.9982C38.3832 26.6672 38.2063 26.3533 38.0236 26.0451C37.898 25.8339 37.744 25.6341 37.6013 25.4287C37.5214 25.3088 37.4415 25.189 37.3616 25.0748C37.4072 25.0862 37.4358 25.1205 37.4643 25.1433C37.7325 25.3716 38.0008 25.6056 38.269 25.8282C38.4174 25.9481 38.5715 26.0565 38.7314 26.1649C38.8056 26.2106 38.914 26.2277 38.9539 26.1421C39.0395 25.9652 38.9939 25.7711 38.9425 25.5942C38.8855 25.4116 38.817 25.2517 38.7485 25.0691ZM38.5202 21.1823C38.446 21.1138 38.3718 21.0396 38.3147 20.954C38.2576 20.8741 38.2919 20.8113 38.3889 20.7828C38.6914 20.6858 38.9768 20.7371 39.2564 20.8741C39.3592 20.9198 39.4562 20.9711 39.5589 21.0225C39.3135 21.4506 38.8227 21.4506 38.5202 21.1823ZM39.6446 21.8957C39.616 21.8558 39.616 21.7816 39.6274 21.7302C39.7188 21.3707 40.0098 21.2508 40.3237 21.4962C40.6205 21.7245 40.8888 21.9871 41.1456 22.2553C41.2769 22.398 41.3796 22.5749 41.4652 22.7576C41.568 22.9859 41.431 23.1571 41.1913 23.1C41.0143 23.0544 40.8431 22.9745 40.6719 22.8945C40.5749 22.8489 40.4835 22.7861 40.3865 22.729L40.3922 22.7233C40.2553 22.5978 40.1069 22.4836 39.9813 22.3466C39.85 22.2039 39.7473 22.0498 39.6446 21.8957ZM38.6743 23.1856C38.6686 23.1343 38.6743 23.0772 38.6743 23.0258C38.6572 23.0258 38.64 23.0258 38.6229 23.0201C38.6058 23.1457 38.583 23.2655 38.5658 23.3911C38.3375 23.3511 38.2006 23.1457 38.2633 22.9174C38.2919 22.8089 38.3889 22.7462 38.5031 22.7576C38.7542 22.7861 38.9654 22.9003 39.1594 23.0544C39.2222 23.1057 39.2793 23.1628 39.382 23.2484C39.2507 23.3112 39.1366 23.3797 39.0167 23.4196C38.7199 23.5167 38.6914 23.4881 38.6743 23.1856ZM38.7941 23.6708C38.777 23.6422 38.7713 23.6023 38.7599 23.5623C39.0053 23.5566 39.2108 23.4767 39.4048 23.3397C39.4334 23.3226 39.5019 23.3283 39.5304 23.3511C39.6331 23.4311 39.7359 23.511 39.8215 23.608C39.9528 23.7621 40.0726 23.9162 40.1753 24.0874C40.2267 24.1787 40.2381 24.2986 40.2552 24.4013C40.2609 24.4299 40.2096 24.4926 40.1811 24.4926C40.0555 24.4984 39.9185 24.5155 39.7987 24.4812C39.5761 24.4127 39.3649 24.3214 39.1879 24.1502C39.0281 24.0132 38.8854 23.8648 38.7941 23.6708Z" fill="white"/>
<path d="M37.5939 27.5007C37.7595 27.4208 37.8508 27.301 37.828 27.1126C37.828 27.0841 37.8337 27.0556 37.8337 27.027C37.828 26.8273 37.8223 26.6389 37.7138 26.4563C37.5369 26.1481 37.28 25.9141 37.0004 25.7029C36.8063 25.5602 36.5952 25.4346 36.344 25.4232C36.2413 25.4175 36.1157 25.4289 36.0472 25.486C35.916 25.5944 35.8532 25.76 35.8703 25.9369C35.8817 26.0967 35.9103 26.2565 35.9331 26.4391C35.8361 26.3364 35.7619 26.2451 35.6762 26.1652C35.4251 25.9141 35.2311 25.623 35.1112 25.2862C35.037 25.0808 35.0655 24.8696 35.1397 24.6755C35.2425 24.413 35.4536 24.2361 35.6934 24.1048C36.1157 23.8765 36.5267 23.6254 36.9033 23.3286C37.1716 23.1231 37.3257 22.8549 37.3428 22.5238C37.3485 22.3868 37.2915 22.2556 37.1887 22.1528C37.1716 22.1585 37.1545 22.1642 37.1374 22.1642C37.1488 22.2099 37.1602 22.2613 37.1773 22.3069C37.1887 22.3412 37.2116 22.3697 37.2173 22.404C37.2858 22.6551 37.1944 22.8606 37.0403 23.0489C36.8862 23.2373 36.6922 23.3799 36.481 23.4998C36.2013 23.6596 35.9274 23.8251 35.6591 23.9963C35.311 24.2189 34.9856 24.4472 34.8886 24.8981C34.803 25.3091 34.8658 25.6801 35.077 26.0225C35.3224 26.4163 35.6306 26.7531 36.0073 27.0327C36.2812 27.2382 36.5609 27.4208 36.8862 27.5293C37.1316 27.6149 37.3656 27.6092 37.5939 27.5007ZM36.0016 26.1538C35.973 26.0739 35.9787 25.9768 35.9844 25.8855C35.9902 25.7828 36.0529 25.7257 36.1671 25.7371C36.3383 25.7485 36.4867 25.8342 36.6237 25.9255C36.812 26.051 36.989 26.188 37.2287 26.3592C37.3485 26.5133 37.5141 26.7017 37.6567 26.9129C37.7081 26.9928 37.7024 27.1183 37.6967 27.2268C37.6967 27.2553 37.6168 27.3181 37.5768 27.3124C37.4056 27.2896 37.2287 27.2553 37.0632 27.204C36.7378 27.1012 36.4582 26.9129 36.2413 26.6617C36.11 26.5362 36.0644 26.3307 36.0016 26.1538Z" fill="white"/>
<path d="M42.6373 20.8063C42.5402 20.5607 42.3746 20.3437 42.1461 20.1896C42.0662 20.1382 42.0662 20.0753 42.0719 19.9954C42.0719 19.9212 42.0548 19.8469 42.0433 19.7727C42.0262 19.7727 42.0091 19.7727 41.992 19.7727C41.9805 19.8755 41.9634 19.9783 41.952 20.0639C41.8263 20.0297 41.7293 20.0011 41.6265 19.9725C41.4152 19.9154 41.221 19.944 41.044 20.0696C40.7927 20.2409 40.9241 20.6236 41.1011 20.7206C41.3352 20.8406 41.6379 20.7835 41.8549 20.555C41.9748 20.6864 42.1005 20.8063 42.2032 20.9434C42.3346 21.1204 42.4602 21.3088 42.5687 21.503C42.603 21.5658 42.603 21.68 42.563 21.7314C42.5288 21.7714 42.4031 21.7885 42.346 21.76C42.0719 21.6229 41.7864 21.4916 41.5408 21.3088C41.2667 21.109 41.0097 20.8748 40.8384 20.5665C40.7013 20.3266 40.6328 20.081 40.6899 19.8012C40.6956 19.767 40.6956 19.7327 40.7013 19.6984C40.6899 19.6927 40.6785 19.687 40.6671 19.687C40.6442 19.727 40.61 19.767 40.5928 19.8126C40.53 19.9954 40.5586 20.1781 40.5814 20.3609C40.6328 20.8577 40.8727 21.2574 41.221 21.5944C41.4437 21.8114 41.7178 21.9542 42.0205 22.0398C42.2318 22.1026 42.5402 22.0113 42.6601 21.7885C42.8429 21.4516 42.7629 21.1261 42.6373 20.8063ZM41.3124 20.6578C41.181 20.6464 41.044 20.5893 41.0211 20.4237C41.0097 20.3609 41.0268 20.2866 41.0611 20.2352C41.084 20.2067 41.1696 20.1953 41.2153 20.2124C41.3524 20.2695 41.4837 20.3437 41.615 20.4123C41.6493 20.4294 41.6836 20.458 41.7236 20.4865C41.6265 20.6578 41.4609 20.6692 41.3124 20.6578Z" fill="white"/>
<path d="M32.4642 32.1349C40.0577 32.1349 46.2135 25.9791 46.2135 18.3856C46.2135 10.792 40.0577 4.63623 32.4642 4.63623C24.8706 4.63623 18.7148 10.792 18.7148 18.3856C18.7148 25.9791 24.8706 32.1349 32.4642 32.1349Z" fill="white"/>
<path d="M32.3559 31.2844C39.4798 31.2844 45.2549 25.5094 45.2549 18.3855C45.2549 11.2616 39.4798 5.48657 32.3559 5.48657C25.2321 5.48657 19.457 11.2616 19.457 18.3855C19.457 25.5094 25.2321 31.2844 32.3559 31.2844Z" fill="#00447A"/>
<path d="M43.5817 16.0003C43.5703 15.9661 43.5303 15.9375 43.5018 15.909C43.4904 15.9147 43.4789 15.9261 43.4618 15.9318C43.4904 16.0574 43.5303 16.1772 43.5531 16.3028C43.6045 16.6167 43.5303 16.9192 43.4333 17.2103C43.3591 17.4272 43.2107 17.6041 42.9938 17.7125C42.794 17.8153 42.6114 17.7925 42.4059 17.7525C41.9322 17.6555 41.5213 17.45 41.1446 17.1532C41.1103 17.1247 41.0761 17.0676 41.0818 17.0334C41.0989 16.9021 41.1275 16.7765 41.1617 16.651C41.2702 16.2172 41.2587 15.7891 41.0476 15.3953C40.8307 15.0015 40.3912 15.0015 40.1287 15.3154C39.9746 15.5095 39.9004 15.7549 39.9289 16.006C39.9803 16.514 40.1686 16.9649 40.5339 17.3244C40.6024 17.3929 40.688 17.4557 40.5453 17.5527C40.4939 17.5014 40.4369 17.4557 40.3855 17.4043C40.1401 17.1589 39.8604 16.9763 39.518 16.9021C39.107 16.8108 38.873 16.9991 38.8045 17.313C38.7589 17.5299 38.9757 17.9009 39.1869 18.0036C39.5008 18.1577 39.8261 18.1235 40.1344 17.9979C40.2314 17.958 40.2885 17.958 40.357 18.0322C40.4369 18.1178 40.5168 18.1977 40.5852 18.289C40.7165 18.4659 40.8535 18.6429 40.9619 18.8369C41.0247 18.9454 41.0533 19.0938 40.9677 19.2022C40.882 19.3163 40.7394 19.3221 40.6081 19.2764C40.4483 19.225 40.2827 19.168 40.1344 19.0938C39.809 18.9282 39.5065 18.7228 39.2782 18.426C39.1527 18.2662 39.01 18.1178 38.8844 17.9637C38.6105 17.6269 38.4392 17.2502 38.5077 16.7993C38.5134 16.7423 38.4963 16.6738 38.4849 16.6167C38.4621 16.6167 38.4392 16.6167 38.4107 16.6167C38.3936 16.7537 38.365 16.8907 38.3536 17.0276C38.3023 17.6212 38.4506 18.1691 38.8159 18.6315C39.0842 18.9739 39.3924 19.2878 39.7862 19.499C40.1172 19.6702 40.4597 19.7901 40.825 19.5846C40.9106 19.5389 40.9848 19.459 41.0361 19.3791C41.2416 19.0652 41.1617 18.7342 41.0361 18.4203C40.9448 18.2034 40.8193 17.9979 40.7051 17.7925C40.6651 17.724 40.648 17.6555 40.7279 17.6212C40.7679 17.6041 40.8421 17.6269 40.8877 17.6555C40.9676 17.7011 41.0361 17.7696 41.116 17.821C41.4585 18.0436 41.8066 18.2433 42.2404 18.2205C42.6228 18.1977 42.9481 18.0436 43.2107 17.781C43.4162 17.5756 43.5646 17.313 43.6273 17.0105C43.6958 16.6738 43.7072 16.337 43.5817 16.0003ZM39.3867 17.9408C39.2326 17.8552 39.107 17.7011 38.9872 17.5642C38.9529 17.5299 38.9586 17.4043 38.9872 17.3815C39.0442 17.3359 39.1527 17.2959 39.2097 17.3244C39.4495 17.4272 39.6835 17.547 39.9175 17.6726C40.0031 17.7183 40.0716 17.781 40.1629 17.8495C39.8889 17.9523 39.6378 18.0778 39.3867 17.9408ZM40.9734 16.7822C40.9562 16.8336 40.9448 16.8907 40.9334 16.9649C40.591 16.5825 40.2428 16.2286 40.1229 15.7263C40.1058 15.6407 40.1515 15.538 40.18 15.4467C40.1857 15.4238 40.2599 15.401 40.2828 15.4181C40.4026 15.4866 40.5225 15.5608 40.6252 15.6521C40.7108 15.7321 40.7679 15.8405 40.8421 15.9318C41.0476 16.1887 41.0761 16.474 40.9734 16.7822Z" fill="white"/>
<path d="M38.0787 18.4544C37.6278 18.2261 37.1027 18.4487 37.0456 18.9909C37.0285 19.1336 37.0171 19.2763 37.0057 19.419C37 19.4133 36.9942 19.4133 36.9885 19.4076C36.8059 19.2192 36.6233 19.0309 36.4463 18.8368C36.4235 18.8083 36.4292 18.7341 36.4463 18.6941C36.5377 18.4316 36.6689 18.1805 36.7203 17.9065C36.7602 17.701 36.7089 17.4841 36.686 17.2673C36.6347 16.7993 36.395 16.4397 36.024 16.1657C35.7158 15.9374 35.3505 16.1315 35.2306 16.3883C35.0708 16.7365 35.1051 17.1075 35.2021 17.4499C35.3619 18.0149 35.6359 18.5343 36.024 18.9909C36.0069 19.0138 35.9897 19.0423 35.9726 19.0537C35.6473 19.2649 35.3277 19.4875 34.9909 19.6758C34.7512 19.8128 34.4887 19.9098 34.2318 20.024C33.9465 20.1495 33.7752 20.3607 33.7695 20.6746C33.7695 20.8516 33.7924 21.0285 33.8323 21.1997C33.8437 21.2511 33.9293 21.2853 33.9807 21.3253C34.0092 21.2625 34.072 21.194 34.0663 21.1369C34.0549 21.0171 33.9864 20.8972 33.975 20.7774C33.9636 20.6461 33.9465 20.4806 34.0092 20.3778C34.1348 20.1724 34.3517 20.0639 34.5914 19.984C34.8654 19.8927 35.1336 19.7728 35.3847 19.6302C35.6473 19.4818 35.8813 19.2934 36.1324 19.1222C36.3036 19.3105 36.4749 19.5217 36.6746 19.6987C37.0513 20.0411 37.4452 20.3721 37.839 20.6975C38.1643 20.9657 38.5296 21.1769 38.9576 21.2225C39.3629 21.2625 39.6825 20.9714 39.614 20.5605C39.5455 20.161 39.4371 19.7729 39.1974 19.4247C38.912 18.9966 38.5353 18.6827 38.0787 18.4544ZM36.0925 18.3745C35.8927 18.0435 35.6758 17.7182 35.4989 17.3757C35.4019 17.1874 35.3619 16.9648 35.3048 16.7536C35.2763 16.6394 35.2706 16.5025 35.3905 16.4283C35.5217 16.3427 35.653 16.394 35.7557 16.4968C35.9384 16.6737 36.1381 16.8392 36.2865 17.039C36.4463 17.2616 36.5262 17.5298 36.5548 17.8095C36.5833 18.1177 36.4692 18.3802 36.2922 18.677C36.2123 18.5629 36.1496 18.4715 36.0925 18.3745ZM39.4542 20.6061C39.4827 20.8516 39.3457 20.9372 39.1174 20.8573C38.5124 20.6404 38.0159 20.2694 37.525 19.8642C37.2397 19.6245 37.1826 19.3448 37.1826 19.0195C37.1826 18.8482 37.2739 18.7798 37.4394 18.814C37.7705 18.8882 38.0787 19.0195 38.3526 19.2249C38.4953 19.3277 38.638 19.4304 38.8035 19.5503C39.0261 19.8242 39.3058 20.0868 39.4199 20.4692C39.4313 20.5148 39.4485 20.5605 39.4542 20.6061Z" fill="white"/>
<path d="M34.0533 25.446C33.8421 25.2006 33.5967 24.9837 33.3684 24.7554C33.1115 24.5042 32.8661 24.2474 32.6036 24.002C32.1413 23.5739 31.679 23.1401 31.3137 22.6265C31.2452 22.5352 31.1653 22.4495 31.0854 22.3696C31.0283 22.3126 30.9769 22.2954 30.897 22.3582C30.7715 22.4553 30.7543 22.6151 30.8742 22.7749C31.0625 23.0203 31.2623 23.2657 31.4621 23.5054C31.5191 23.5739 31.5933 23.6196 31.6561 23.6824C31.9872 24.0134 32.3125 24.3444 32.6435 24.6812C32.8718 24.9095 33.1058 25.1321 33.3227 25.3775C33.6423 25.7314 33.9562 26.0966 34.2644 26.4676C34.5042 26.7587 34.7382 27.0612 34.9551 27.3694C35.1776 27.6833 35.2005 28.0543 35.1548 28.4253C35.1206 28.7278 34.9722 28.9618 34.7382 29.1673C34.5327 29.3442 34.293 29.4298 34.0419 29.4241C33.5795 29.4127 33.1971 29.1787 32.849 28.8876C32.5579 28.6422 32.3182 28.3511 32.1812 27.9972C32.0671 27.7004 31.9872 27.3922 31.913 27.084C31.873 26.9185 32.0043 26.7701 32.1698 26.7815C32.3639 26.7929 32.575 26.8044 32.7406 26.89C33.0145 27.0269 33.2771 27.2096 33.5225 27.3979C33.6766 27.5121 33.7964 27.6719 33.9277 27.8146C34.0361 27.9287 34.1218 27.9287 34.1903 27.7975C34.2473 27.689 34.2074 27.4664 34.1218 27.3808C34.0533 27.3123 33.9848 27.2495 33.9106 27.1868L33.9163 27.1753C33.785 27.0783 33.6652 26.9642 33.5282 26.8786C33.2086 26.6845 32.8832 26.4847 32.5065 26.4448C32.0557 26.3934 31.9244 26.4505 31.8045 26.8671C31.7132 27.1982 31.8159 27.5064 31.9301 27.8032C32.1527 28.3739 32.5065 28.8476 33.0259 29.1958C33.414 29.4583 33.8193 29.6296 34.2987 29.5382C34.624 29.4755 34.9322 29.3556 35.1206 29.0759C35.6 28.3568 35.5829 27.4778 35.1149 26.7416C34.8181 26.2564 34.4185 25.8683 34.0533 25.446Z" fill="white"/>
<path d="M37.9921 23.1515C37.8038 22.9803 37.6383 22.7805 37.4499 22.5864C37.5298 22.6036 37.5983 22.6264 37.6668 22.6264C38.0492 22.6378 38.209 22.6321 38.2889 22.2554C38.3175 22.1299 38.2946 21.9929 38.2775 21.8616C38.2261 21.4735 37.9921 21.1824 37.7353 20.9199C37.5241 20.703 37.2958 20.5032 37.0504 20.332C36.805 20.1608 36.5424 20.0181 36.2399 19.9496C35.9203 19.8811 35.6977 20.0352 35.6692 20.3605C35.6521 20.5546 35.6349 20.7486 35.6178 20.9427C35.5379 20.8799 35.4523 20.8171 35.3667 20.7601C35.3439 20.7429 35.3039 20.7258 35.2754 20.7372C35.0813 20.7829 35.0185 20.9826 35.1555 21.1253C35.1783 21.1539 35.2069 21.1767 35.2354 21.1995C35.8518 21.7703 36.4739 22.3353 37.0789 22.9232C37.4842 23.317 37.8723 23.7279 38.249 24.1446C38.4659 24.3843 38.6827 24.6411 38.8483 24.9208C39.0252 25.229 39.1736 25.56 39.2763 25.8968C39.3791 26.2335 39.1508 26.5703 38.7969 26.6331C38.4145 26.6958 38.0892 26.5931 37.7638 26.4219C37.6554 26.3648 37.5584 26.2849 37.4271 26.1936C37.4442 26.3819 37.5584 26.4447 37.6725 26.5132C38.0093 26.7244 38.3803 26.8157 38.7684 26.7986C39.2078 26.7814 39.4989 26.4219 39.5617 25.971C39.6245 25.5258 39.4761 25.1092 39.2592 24.7325C38.911 24.1503 38.5001 23.6138 37.9921 23.1515ZM37.0447 22.2269C36.7821 21.9986 36.5367 21.7589 36.2856 21.5249C36.1829 21.4278 36.0516 21.3479 35.9717 21.2338C35.8176 21.0169 35.7776 20.7601 35.8062 20.4975C35.8176 20.3834 35.9317 20.3776 36.0002 20.4062C36.2514 20.5032 36.5025 20.6059 36.7365 20.7315C36.8906 20.8171 37.0219 20.9484 37.1588 21.0568C37.1703 21.0511 37.176 21.0454 37.1874 21.0397C37.4556 21.3822 37.7296 21.7246 37.9921 22.0671C38.0321 22.1241 38.0492 22.1983 38.0663 22.2668C38.1063 22.3981 38.0435 22.478 37.9179 22.4837C37.5983 22.5065 37.2958 22.4438 37.0447 22.2269Z" fill="white"/>
<path d="M37.6663 24.6073C37.6377 24.3905 37.5578 24.1793 37.5008 23.9681C37.4722 23.9738 37.438 23.9795 37.4094 23.9852C37.4266 24.0708 37.4323 24.1507 37.4551 24.2364C37.5293 24.5274 37.5807 24.8128 37.535 25.1153C37.4836 25.4635 37.1754 25.7146 36.9186 25.7089C36.6104 25.6975 36.3193 25.6233 36.0454 25.4806C35.4803 25.1724 34.9838 24.7614 34.5043 24.3391C33.9336 23.8368 33.3857 23.3003 32.8263 22.781C32.6323 22.604 32.4439 22.4214 32.2499 22.2444C32.1528 22.1531 32.0387 22.1189 31.9246 22.2045C31.8047 22.2901 31.7933 22.41 31.8846 22.5469C31.9474 22.6383 32.0159 22.7239 32.0958 22.7924C32.3355 23.0092 32.5923 23.2204 32.832 23.4373C33.4485 24.0081 34.0591 24.5845 34.6756 25.1496C34.7954 25.2637 34.9495 25.3379 35.0808 25.4463C35.4461 25.7545 35.8456 25.9886 36.2965 26.1484C36.9072 26.3595 37.2839 25.9829 37.5464 25.5377C37.7119 25.258 37.7062 24.9213 37.6663 24.6073Z" fill="white"/>
<path d="M35.0989 21.496C34.9848 21.359 34.7165 21.2506 34.5396 21.2962C34.2085 21.3819 34.0887 21.6558 34.0316 21.9412C33.9574 22.3179 33.9859 22.6946 34.2485 23.0142C34.3056 23.0827 34.3455 23.1626 34.4083 23.2254C34.6423 23.4765 34.882 23.7219 35.1331 23.9845C35.1103 24.0644 34.922 24.11 35.0076 24.3098C35.0989 24.2128 35.1731 24.1329 35.253 24.0472C35.2872 24.0701 35.3158 24.0872 35.3443 24.1043C35.3786 24.1272 35.4128 24.1443 35.4528 24.1671C35.7838 24.3726 36.1262 24.5438 36.5201 24.5495C36.7883 24.5552 36.9995 24.384 37.0109 24.0929C37.0223 23.7847 36.9253 23.505 36.8168 23.2254C36.7712 23.1112 36.7027 23.0142 36.6399 22.9058C36.6228 22.9115 36.6 22.9229 36.5828 22.9286C36.5885 22.9685 36.5943 23.0028 36.6057 23.0427C36.6742 23.2539 36.7541 23.4594 36.8226 23.6706C36.9025 23.9274 36.7484 24.0016 36.5429 23.9673C36.189 23.916 35.8808 23.7448 35.584 23.5507C35.5498 23.5279 35.5327 23.4651 35.527 23.4194C35.527 23.2082 35.5384 22.9971 35.5384 22.7916C35.527 22.3122 35.4185 21.8727 35.0989 21.496ZM35.3729 23.3852C34.9676 23.0713 34.648 22.7288 34.414 22.3179C34.3227 22.1581 34.317 21.9412 34.2941 21.7528C34.2827 21.6501 34.4368 21.5816 34.5396 21.6501C34.7051 21.7643 34.8706 21.8898 35.0076 22.0439C35.2587 22.3179 35.3614 22.666 35.3843 23.0256C35.3957 23.1341 35.3786 23.2482 35.3729 23.3852Z" fill="white"/>
<path d="M31.293 24.9611C31.1845 24.9897 31.0647 25.0011 30.9562 24.9897C30.6652 24.9611 30.4369 24.8184 30.2143 24.6187C29.9118 24.339 29.6778 24.0308 29.5693 23.6313C29.5065 23.3859 29.4894 23.1176 29.615 22.9179C29.7976 22.6211 30.0259 22.3414 30.2885 22.1188C30.6138 21.8506 30.9848 21.6394 31.3501 21.4225C31.7096 21.2113 32.0863 21.0287 32.4573 20.8403C32.9196 20.6063 33.342 20.3209 33.6844 19.9271C33.77 19.8358 33.8556 19.7559 33.9298 19.6589C34.1182 19.4192 34.2951 19.1737 34.3693 18.8598C34.4264 18.6201 34.3978 18.3918 34.3522 18.1578C34.3122 17.9466 34.2038 17.7925 34.0497 17.667C34.0212 17.6441 33.9527 17.6384 33.9298 17.6613C33.8956 17.6898 33.8671 17.7526 33.8785 17.7925C33.8899 17.8382 33.947 17.8724 33.9869 17.9067C34.1353 18.038 34.2609 18.1864 34.2837 18.3975C34.3294 18.7913 34.1638 19.1167 33.9412 19.4135C33.6616 19.7902 33.3534 20.1554 32.9367 20.4009C32.5886 20.6063 32.2347 20.8175 31.8809 21.0173C31.5498 21.1999 31.2131 21.3711 30.882 21.5481C30.2771 21.8677 29.8033 22.3414 29.4095 22.8893C29.3182 23.0149 29.2611 23.1804 29.2269 23.3345C29.147 23.6827 29.1641 24.0308 29.3125 24.3561C29.3981 24.5388 29.5065 24.7214 29.6435 24.8698C29.7577 25.0011 29.9118 25.0981 30.0545 25.1951C30.4711 25.4748 30.9848 25.509 31.4186 25.2979C31.5213 25.2465 31.5669 25.1552 31.527 25.0582C31.487 24.9725 31.4071 24.9269 31.293 24.9611Z" fill="white"/>
<path d="M24.6781 10.0412C20.4374 14.2819 20.426 21.1537 24.6381 25.4115L40.054 9.99557C35.7906 5.78345 28.9244 5.79487 24.6781 10.0412Z" fill="white"/>
<path d="M14.3548 32.1349C21.9484 32.1349 28.1041 25.9791 28.1041 18.3856C28.1041 10.792 21.9484 4.63623 14.3548 4.63623C6.76127 4.63623 0.605469 10.792 0.605469 18.3856C0.605469 25.9791 6.76127 32.1349 14.3548 32.1349Z" fill="white"/>
<path d="M15.4297 17.7637H27.1471C26.9873 14.3335 25.4806 11.2571 23.1405 9.04834L15.4297 17.7637Z" fill="#00447A"/>
<path d="M13.8653 17.0331V5.54395C10.9773 5.64668 8.32902 6.69115 6.23438 8.40339L13.8653 17.0331Z" fill="#00447A"/>
<path d="M13.8647 31.2048V19.533L6.13672 28.2711C8.24849 30.0233 10.931 31.102 13.8647 31.2048Z" fill="#00447A"/>
<path d="M14.7773 5.54395V17.0331L22.4082 8.40339C20.3136 6.69115 17.6653 5.64668 14.7773 5.54395Z" fill="#00447A"/>
<path d="M15.4297 18.803L23.2318 27.621C25.5605 25.3723 27.0444 22.2617 27.1586 18.803H15.4297Z" fill="#00447A"/>
<path d="M13.2154 18.8027H1.49219C1.60634 22.2615 3.08458 25.3778 5.41894 27.6208L13.2154 18.8027Z" fill="#00447A"/>
<path d="M14.7773 19.533V31.2048C17.7053 31.102 20.3935 30.0233 22.5053 28.2711L14.7773 19.533Z" fill="#00447A"/>
<path d="M13.2136 17.7637L5.50276 9.04834C3.16269 11.2628 1.66161 14.3392 1.49609 17.7637H13.2136Z" fill="#00447A"/>
<path fill-rule="evenodd" clip-rule="evenodd" d="M4.45498 13.0434C4.44927 13.0491 4.44356 13.0548 4.43214 13.0605C3.97555 13.4715 3.67305 14.0765 3.39338 14.6415C3.2564 14.9155 3.14225 15.2122 3.12513 15.5204C3.11942 15.6745 3.11372 15.8229 3.15367 15.9713C3.23358 16.2967 3.71871 16.6962 4.03833 16.5992C4.50634 16.4622 4.7004 15.9028 4.87733 15.4919C5.18553 14.7671 5.48803 14.065 6.16722 13.6484C6.26425 13.5913 6.58957 13.3801 6.74938 13.6941C6.77221 13.7454 6.78934 13.8539 6.79505 13.9281C6.81217 14.2191 6.73226 14.4303 6.61241 14.6757C6.43548 15.041 5.95034 16.1825 5.93893 16.4051C5.92181 16.6277 5.9218 16.7875 6.13298 16.8959C6.39553 17.0329 6.71515 16.8617 6.93774 16.7133C7.42287 16.3937 7.76532 15.88 8.32465 15.6688C8.47875 15.6118 8.86115 15.4862 8.99813 15.6061C9.15223 15.7373 8.96389 16.0056 8.91252 16.1426C8.80408 16.4336 8.71276 16.8103 9.11229 16.8674C9.41478 16.9074 9.70587 16.6905 9.96841 16.5706C10.1339 16.4964 10.3851 16.3366 10.5563 16.4565C10.7275 16.5706 10.5563 16.5706 10.5848 16.7133C10.6191 16.8617 10.7446 16.7875 10.8131 16.7247C10.9786 16.5706 10.8531 16.3937 10.699 16.2738C10.4935 16.1197 10.3508 16.2111 10.1567 16.3195C9.92845 16.4508 9.26067 16.6791 9.33487 16.1483C9.37482 15.8629 9.5803 15.6118 9.55176 15.3036C9.52322 14.9611 9.18078 14.6529 8.86116 14.71C8.54725 14.7671 8.26757 15.0068 8.05069 15.2294C7.93083 15.3492 7.8281 15.4976 7.71395 15.6118C7.57126 15.7602 7.42857 15.8857 7.2973 16.0398C7.18885 16.1654 6.99481 16.348 6.82358 16.2453C6.63523 16.1311 6.67519 15.8458 6.71514 15.6631C6.81217 15.2065 7.04616 14.7899 7.20597 14.3675C7.38861 13.8995 7.61122 13.4715 7.40004 12.9692C7.2916 12.7067 7.03476 12.387 6.73797 12.4213C6.4526 12.4555 6.14439 12.758 5.94462 12.9521C5.73345 13.1575 5.59077 13.4201 5.40242 13.637C5.16842 13.9109 5.07139 14.2819 4.91728 14.6015C4.82026 14.8127 4.7004 15.0182 4.58055 15.2237C4.48923 15.3778 4.318 15.6974 4.10112 15.549C3.96414 15.452 3.98125 15.1323 4.01549 14.9839C4.10681 14.5445 4.28946 14.0536 4.52347 13.6655C4.64332 13.4658 4.75177 13.2774 4.90016 13.129C5.05426 12.9692 5.21407 12.8379 5.37388 12.6724C5.67637 12.3585 5.77911 11.8734 5.59076 11.4567C5.49944 11.257 5.34534 11.0058 5.11134 11.0001C4.89445 10.9944 4.70611 11.1942 4.65475 11.3882C4.60338 11.5652 4.62621 11.9019 4.81455 11.9818C4.91158 12.0218 5.02572 11.9875 5.07138 11.8905C5.13987 11.725 4.99148 11.7935 4.99148 11.6622C4.98578 11.491 5.19124 11.5595 5.24831 11.6451C5.29397 11.7136 5.29397 11.8391 5.28827 11.9247C5.27114 12.3585 4.72323 12.798 4.45498 13.0434Z" fill="white"/>
<path fill-rule="evenodd" clip-rule="evenodd" d="M19.0937 7.87251C19.088 7.8668 19.0823 7.85538 19.0765 7.84968C18.677 7.38166 18.0948 7.07346 17.5526 6.78809C17.2901 6.65111 17.0047 6.53696 16.7136 6.52554C16.571 6.51983 16.4226 6.51983 16.2856 6.56549C15.9774 6.65681 15.6121 7.17049 15.7091 7.51294C15.8461 7.99807 16.3826 8.19784 16.7764 8.37477C17.4727 8.68297 18.1462 8.98547 18.5514 9.6989C18.6085 9.80164 18.814 10.1384 18.5172 10.3153C18.4715 10.3438 18.3688 10.361 18.3003 10.3667C18.0264 10.3895 17.8209 10.3096 17.5869 10.1897C17.233 10.0071 16.1429 9.52768 15.9317 9.51056C15.7205 9.49914 15.5721 9.49914 15.4694 9.72744C15.3438 10.0071 15.5151 10.3438 15.6578 10.5721C15.9717 11.0744 16.4682 11.4226 16.6737 12.0104C16.7308 12.1702 16.8563 12.5698 16.7479 12.7182C16.628 12.8837 16.3712 12.6896 16.2399 12.644C15.9603 12.5355 15.6064 12.4442 15.5607 12.8723C15.5265 13.1919 15.7434 13.4944 15.8632 13.7683C15.9374 13.9453 16.0915 14.2021 15.9831 14.3847C15.8746 14.5674 15.8746 14.3847 15.7377 14.419C15.595 14.4589 15.6749 14.5902 15.7319 14.6587C15.8803 14.8299 16.0459 14.693 16.1543 14.5274C16.297 14.3048 16.2057 14.1564 16.0972 13.9567C15.966 13.717 15.7377 13.0207 16.2456 13.0891C16.5196 13.1234 16.7593 13.3346 17.0504 13.3003C17.3757 13.2604 17.6611 12.8951 17.5983 12.5583C17.5355 12.2273 17.3072 11.9419 17.0903 11.7194C16.9705 11.5995 16.8335 11.4911 16.7194 11.3769C16.5767 11.2285 16.4568 11.0858 16.3084 10.9488C16.1828 10.8347 16.0116 10.6406 16.1029 10.4523C16.2057 10.2525 16.4739 10.2868 16.6509 10.3267C17.0846 10.418 17.4899 10.6521 17.8894 10.8176C18.3346 11.0002 18.7455 11.2228 19.2192 10.9945C19.4647 10.8746 19.7672 10.6007 19.7215 10.2811C19.6815 9.97857 19.3905 9.66466 19.2021 9.45348C19.0023 9.2366 18.7512 9.0882 18.54 8.89415C18.2775 8.65443 17.9236 8.55741 17.6154 8.4033C17.4157 8.30057 17.2159 8.18642 17.0218 8.06086C16.8735 7.96383 16.5652 7.79261 16.7022 7.5586C16.7878 7.4102 17.096 7.42162 17.2387 7.45586C17.6611 7.54718 18.1291 7.72412 18.5001 7.96383C18.6884 8.08369 18.8711 8.19784 19.0138 8.35194C19.1679 8.51175 19.2991 8.67727 19.4589 8.84278C19.7671 9.15669 20.2294 9.25372 20.6176 9.04825C20.8059 8.94552 21.0399 8.78 21.0399 8.53458C21.0399 8.30628 20.8516 8.11222 20.6575 8.06086C20.4863 8.0152 20.1667 8.04373 20.0982 8.23779C20.0582 8.34052 20.0925 8.46038 20.1895 8.50604C20.3436 8.57453 20.2808 8.42043 20.4064 8.41472C20.5662 8.40901 20.5091 8.62019 20.4292 8.68297C20.3664 8.72863 20.2409 8.73434 20.161 8.73434C19.7671 8.72292 19.3334 8.15217 19.0937 7.87251Z" fill="white"/>
<path fill-rule="evenodd" clip-rule="evenodd" d="M24.1627 23.3797C24.1684 23.374 24.1741 23.3683 24.1798 23.3626C24.6136 22.9288 24.8875 22.3067 25.1501 21.7302C25.2756 21.4506 25.3784 21.1481 25.3784 20.8399C25.3784 20.6858 25.3726 20.5374 25.3327 20.389C25.2357 20.0694 24.7391 19.6927 24.4195 19.8068C23.9629 19.9666 23.786 20.5374 23.6319 20.954C23.3579 21.696 23.0897 22.4094 22.4276 22.8603C22.3363 22.9231 22.0167 23.1457 21.8454 22.8432C21.8169 22.7975 21.7941 22.6891 21.7884 22.6149C21.7598 22.3295 21.8283 22.1069 21.9368 21.8558C22.0966 21.4791 22.5303 20.3205 22.536 20.0922C22.5417 19.8696 22.536 19.7098 22.3191 19.6128C22.0509 19.4872 21.737 19.6755 21.5201 19.8354C21.0521 20.1778 20.7325 20.7086 20.1846 20.9483C20.0362 21.0111 19.6595 21.1595 19.5111 21.0453C19.3513 20.9198 19.5282 20.6458 19.5681 20.5088C19.6652 20.2121 19.7394 19.8354 19.3341 19.7954C19.0316 19.7669 18.7463 20.0066 18.4894 20.1379C18.3239 20.2235 18.0842 20.389 17.9073 20.2805C17.7303 20.1721 17.9073 20.1664 17.8673 20.0237C17.8274 19.8753 17.7018 19.9609 17.639 20.0237C17.4849 20.1892 17.6162 20.3547 17.776 20.4632C17.9872 20.6059 18.1299 20.5088 18.3125 20.389C18.5351 20.2463 19.1914 19.9838 19.1401 20.5203C19.1115 20.8056 18.9175 21.0682 18.9631 21.3764C19.0088 21.7188 19.3627 22.0099 19.6766 21.9357C19.9905 21.8615 20.253 21.6104 20.4585 21.3764C20.5726 21.2508 20.6697 21.0967 20.7781 20.9769C20.9151 20.8228 21.0464 20.6915 21.1719 20.5317C21.2747 20.4004 21.4573 20.2063 21.6343 20.3034C21.8283 20.4061 21.7998 20.6915 21.7712 20.8798C21.6913 21.3421 21.4801 21.7702 21.3375 22.1983C21.1776 22.672 20.9722 23.1115 21.2062 23.608C21.3261 23.8648 21.5943 24.173 21.8968 24.1217C22.1822 24.0703 22.4733 23.7564 22.6673 23.5509C22.8671 23.334 22.9983 23.0658 23.1753 22.8375C23.3979 22.5521 23.4778 22.1811 23.6147 21.8501C23.7061 21.6332 23.8145 21.422 23.9229 21.2109C24.0086 21.0511 24.1684 20.72 24.391 20.8627C24.5336 20.954 24.5279 21.2736 24.5051 21.422C24.4309 21.8672 24.2711 22.3695 24.0599 22.769C23.9515 22.9745 23.8487 23.1685 23.7061 23.3226C23.5577 23.4881 23.4036 23.6308 23.2552 23.8021C22.9641 24.1331 22.8842 24.6239 23.0897 25.0292C23.1924 25.2232 23.3579 25.4686 23.5919 25.4629C23.8088 25.4572 23.9857 25.2518 24.0314 25.052C24.0713 24.8751 24.0371 24.5383 23.8487 24.4641C23.7517 24.4242 23.6376 24.4641 23.5976 24.5726C23.5348 24.7381 23.6775 24.6639 23.6889 24.7952C23.7004 24.9664 23.4949 24.9093 23.4378 24.8294C23.3921 24.7609 23.3864 24.6354 23.3864 24.5497C23.375 24.1103 23.9001 23.6423 24.1627 23.3797Z" fill="white"/>
<path fill-rule="evenodd" clip-rule="evenodd" d="M10.0266 28.7165C10.0323 28.7222 10.038 28.728 10.0495 28.7337C10.4946 29.156 11.0996 29.4014 11.6704 29.6297C11.9443 29.7382 12.2411 29.8238 12.5322 29.801C12.6749 29.7895 12.8176 29.7724 12.9546 29.7153C13.2514 29.5898 13.5653 29.0362 13.434 28.7108C13.2456 28.2428 12.6977 28.1001 12.2868 27.9689C11.5619 27.7348 10.8656 27.5066 10.3919 26.8445C10.3234 26.7532 10.0894 26.4335 10.3634 26.2281C10.409 26.1938 10.5061 26.1653 10.5746 26.1482C10.8428 26.0968 11.054 26.1539 11.3051 26.2509C11.6761 26.3936 12.8062 26.7532 13.0174 26.7475C13.2285 26.736 13.3769 26.7189 13.4568 26.4849C13.5539 26.1938 13.3541 25.8799 13.1829 25.663C12.8233 25.195 12.2925 24.9039 12.03 24.3446C11.9558 24.1905 11.7902 23.8081 11.8873 23.6483C11.9957 23.4714 12.264 23.6312 12.4009 23.6711C12.692 23.7453 13.0516 23.7967 13.0573 23.3686C13.063 23.049 12.8176 22.7693 12.6692 22.5068C12.5779 22.3413 12.4009 22.1016 12.4865 21.9075C12.5722 21.7135 12.595 21.8961 12.7263 21.8447C12.8632 21.7934 12.7719 21.6678 12.7091 21.605C12.5436 21.4509 12.3895 21.605 12.3039 21.7819C12.1841 22.016 12.2868 22.1529 12.4124 22.3413C12.5665 22.5639 12.8632 23.2316 12.3496 23.2202C12.0756 23.2145 11.8131 23.0319 11.5277 23.0947C11.2081 23.1689 10.957 23.5627 11.054 23.888C11.151 24.2076 11.4078 24.4702 11.6419 24.6699C11.7731 24.7784 11.9215 24.8697 12.0471 24.9724C12.2012 25.1037 12.3382 25.235 12.498 25.3548C12.635 25.4519 12.8233 25.6288 12.7491 25.8228C12.6635 26.034 12.3952 26.0283 12.2183 26.0112C11.7788 25.9655 11.3508 25.7772 10.9398 25.6573C10.4775 25.5261 10.0495 25.3434 9.59856 25.6288C9.36456 25.7772 9.09061 26.0797 9.16481 26.3936C9.2333 26.6847 9.55291 26.9758 9.76409 27.1584C9.98097 27.3524 10.2435 27.4723 10.4775 27.6435C10.7629 27.8547 11.1225 27.9118 11.4478 28.0316C11.659 28.1115 11.8644 28.2086 12.0756 28.3113C12.2354 28.3912 12.555 28.5282 12.4409 28.7736C12.3667 28.9277 12.0642 28.9505 11.9158 28.9334C11.4877 28.8878 11.0026 28.7622 10.6088 28.5681C10.409 28.4654 10.215 28.3741 10.0609 28.2428C9.89535 28.1001 9.74697 27.9517 9.57003 27.8033C9.23329 27.5237 8.76529 27.478 8.40001 27.7234C8.22307 27.8433 8.00618 28.0373 8.02901 28.2828C8.05184 28.5111 8.25732 28.6823 8.45137 28.7165C8.6226 28.7451 8.9422 28.6823 8.99357 28.4768C9.02211 28.3684 8.97645 28.2542 8.87372 28.22C8.71391 28.1686 8.79382 28.3113 8.66826 28.3341C8.50845 28.357 8.54268 28.1401 8.61688 28.0716C8.67395 28.0145 8.79952 28.0031 8.87372 27.9917C9.27895 27.9403 9.76408 28.4597 10.0266 28.7165Z" fill="white"/>
<path d="M6.97941 21.9761C6.98512 21.7821 6.71116 21.6166 6.37442 21.5994C6.60842 21.3483 6.69974 21.0344 6.56847 20.8917C6.4372 20.749 6.1347 20.8404 5.88928 21.0858C5.88357 20.7319 5.72947 20.4465 5.54683 20.4465C5.3756 20.4465 5.23862 20.6805 5.21009 20.9945C4.99891 20.7833 4.74778 20.7034 4.62222 20.8175C4.47953 20.9431 4.54231 21.2684 4.7649 21.5424C4.42816 21.5253 4.14849 21.6679 4.13708 21.862C4.12566 22.056 4.38821 22.2387 4.72495 22.2615C4.47953 22.5012 4.3768 22.8094 4.50236 22.9578C4.62793 23.1062 4.93042 23.032 5.18725 22.7923C5.18154 23.1462 5.31853 23.4373 5.50117 23.4487C5.68952 23.4544 5.84933 23.1747 5.87216 22.8208C6.10616 23.0777 6.40295 23.1747 6.53423 23.0377C6.67121 22.9008 6.59131 22.5868 6.36301 22.3186C6.70546 22.3243 6.97941 22.1702 6.97941 21.9761ZM5.55825 22.1245C5.55825 22.1245 5.50117 22.1702 5.42697 22.2501C5.43839 22.1474 5.43838 22.0732 5.43838 22.0732C5.43838 22.0732 5.36419 22.0618 5.26145 22.0618C5.34136 21.999 5.38702 21.9419 5.38702 21.9419C5.38702 21.9419 5.34137 21.8791 5.27288 21.8049C5.36991 21.822 5.4441 21.8163 5.4441 21.8163C5.4441 21.8163 5.4555 21.7593 5.4555 21.6679C5.50687 21.7307 5.55254 21.765 5.55254 21.765C5.55254 21.765 5.60961 21.7136 5.6781 21.6337C5.6724 21.7364 5.6781 21.8106 5.6781 21.8106C5.6781 21.8106 5.7523 21.8163 5.85503 21.8106C5.77513 21.8791 5.72947 21.9362 5.72947 21.9362C5.72947 21.9362 5.77512 21.999 5.84932 22.0675C5.75229 22.056 5.6781 22.0618 5.6781 22.0618C5.6781 22.0618 5.66668 22.1359 5.67239 22.2444C5.60961 22.1759 5.55825 22.1245 5.55825 22.1245Z" fill="white"/>
<path d="M12.5849 9.1507C12.5906 8.95664 12.3166 8.79113 11.9799 8.774C12.2139 8.52287 12.3052 8.20896 12.1739 8.06628C12.0427 7.92359 11.7402 8.01491 11.4947 8.26033C11.489 7.90647 11.3349 7.62109 11.1523 7.62109C10.9811 7.62109 10.8441 7.8551 10.8156 8.16901C10.6044 7.95783 10.3533 7.87793 10.2277 7.99208C10.085 8.11764 10.1478 8.44297 10.3704 8.71693C10.0336 8.69981 9.75396 8.84249 9.74255 9.03655C9.73113 9.2306 9.99367 9.41324 10.3304 9.43607C10.085 9.67579 9.98227 9.98399 10.1078 10.1324C10.2334 10.2808 10.5359 10.2066 10.7927 9.96687C10.787 10.3207 10.924 10.6118 11.1066 10.6232C11.295 10.6289 11.4548 10.3493 11.4776 9.9954C11.7116 10.2522 12.0084 10.3493 12.1397 10.2123C12.2767 10.0753 12.1968 9.7614 11.9685 9.49315C12.3109 9.49885 12.5792 9.34475 12.5849 9.1507ZM11.158 9.29909C11.158 9.29909 11.1009 9.34475 11.0267 9.42466C11.0381 9.32192 11.0381 9.24773 11.0381 9.24773C11.0381 9.24773 10.9639 9.23631 10.8612 9.23631C10.9411 9.17353 10.9868 9.11645 10.9868 9.11645C10.9868 9.11645 10.9411 9.05367 10.8726 8.97947C10.9697 8.9966 11.0439 8.99089 11.0439 8.99089C11.0439 8.99089 11.0553 8.93381 11.0553 8.84249C11.1066 8.90528 11.1523 8.93952 11.1523 8.93952C11.1523 8.93952 11.2094 8.88815 11.2779 8.80825C11.2722 8.91098 11.2779 8.98518 11.2779 8.98518C11.2779 8.98518 11.3521 8.99089 11.4548 8.98518C11.3749 9.05367 11.3292 9.11075 11.3292 9.11075C11.3292 9.11075 11.3749 9.17353 11.4491 9.24202C11.3521 9.2306 11.2779 9.23631 11.2779 9.23631C11.2779 9.23631 11.2664 9.31051 11.2721 9.41895C11.2151 9.35046 11.158 9.29909 11.158 9.29909Z" fill="white"/>
<path d="M24.5224 14.1795C24.5281 13.9855 24.2541 13.8199 23.9174 13.8028C24.1514 13.5517 24.2427 13.2378 24.1114 13.0951C23.9802 12.9524 23.6777 13.0437 23.4322 13.2891C23.4265 12.9353 23.2724 12.6499 23.0898 12.6499C22.9186 12.6499 22.7816 12.8839 22.7531 13.1978C22.5419 12.9866 22.2908 12.9067 22.1652 13.0209C22.0225 13.1465 22.0853 13.4718 22.3079 13.7457C21.9711 13.7286 21.6915 13.8713 21.68 14.0654C21.6686 14.2594 21.9312 14.4421 22.2679 14.4649C22.0225 14.7046 21.9198 15.0128 22.0453 15.1612C22.1709 15.3096 22.4734 15.2354 22.7302 14.9957C22.7245 15.3495 22.8615 15.6406 23.0441 15.652C23.2325 15.6577 23.3923 15.3781 23.4151 15.0242C23.6491 15.281 23.9459 15.3781 24.0772 15.2411C24.2142 15.1041 24.1343 14.7902 23.906 14.522C24.2484 14.5277 24.5167 14.3736 24.5224 14.1795ZM23.0955 14.3336C23.0955 14.3336 23.0384 14.3793 22.9642 14.4592C22.9756 14.3564 22.9756 14.2822 22.9756 14.2822C22.9756 14.2822 22.9014 14.2708 22.7987 14.2708C22.8786 14.208 22.9243 14.151 22.9243 14.151C22.9243 14.151 22.8786 14.0882 22.8101 14.014C22.9072 14.0311 22.9814 14.0254 22.9814 14.0254C22.9814 14.0254 22.9928 13.9683 22.9928 13.877C23.0441 13.9398 23.0898 13.974 23.0898 13.974C23.0898 13.974 23.1469 13.9227 23.2154 13.8428C23.2097 13.9455 23.2154 14.0197 23.2154 14.0197C23.2154 14.0197 23.2896 14.0254 23.3923 14.0197C23.3124 14.0882 23.2667 14.1453 23.2667 14.1453C23.2667 14.1453 23.3124 14.208 23.3866 14.2765C23.2896 14.2651 23.2154 14.2708 23.2154 14.2708C23.2154 14.2708 23.2039 14.345 23.2096 14.4535C23.1526 14.385 23.0955 14.3336 23.0955 14.3336Z" fill="white"/>
<path d="M18.9911 27.2037C18.9968 27.0096 18.7229 26.8441 18.3861 26.827C18.6201 26.5759 18.7115 26.2619 18.5802 26.1193C18.4489 25.9766 18.1464 26.0679 17.901 26.3133C17.8953 25.9594 17.7412 25.6741 17.5585 25.6741C17.3873 25.6741 17.2503 25.9081 17.2218 26.222C17.0106 26.0108 16.7595 25.9309 16.6339 26.0451C16.4912 26.1706 16.554 26.4959 16.7766 26.7699C16.4399 26.7528 16.1602 26.8955 16.1488 27.0895C16.1374 27.2836 16.3999 27.4662 16.7367 27.4891C16.4912 27.7288 16.3885 28.037 16.5141 28.1854C16.6396 28.3338 16.9421 28.2596 17.199 28.0198C17.1933 28.3737 17.3303 28.6648 17.5129 28.6762C17.7012 28.6819 17.861 28.4022 17.8839 28.0484C18.1179 28.3052 18.4147 28.4022 18.5459 28.2653C18.6829 28.1283 18.603 27.8144 18.3747 27.5461C18.7172 27.5518 18.9854 27.3977 18.9911 27.2037ZM17.57 27.3578C17.57 27.3578 17.5129 27.4034 17.4387 27.4833C17.4501 27.3806 17.4501 27.3064 17.4501 27.3064C17.4501 27.3064 17.3759 27.295 17.2732 27.295C17.3531 27.2322 17.3987 27.1751 17.3987 27.1751C17.3987 27.1751 17.3531 27.1124 17.2846 27.0382C17.3816 27.0553 17.4558 27.0496 17.4558 27.0496C17.4558 27.0496 17.4672 26.9925 17.4672 26.9012C17.5186 26.964 17.5643 26.9982 17.5643 26.9982C17.5643 26.9982 17.6213 26.9468 17.6898 26.8669C17.6841 26.9697 17.6898 27.0439 17.6898 27.0439C17.6898 27.0439 17.764 27.0496 17.8668 27.0439C17.7868 27.1124 17.7412 27.1694 17.7412 27.1694C17.7412 27.1694 17.7868 27.2322 17.861 27.3007C17.764 27.2893 17.6898 27.295 17.6898 27.295C17.6898 27.295 17.6784 27.3692 17.6841 27.4776C17.6213 27.4034 17.57 27.3578 17.57 27.3578Z" fill="white"/>
<path d="M83.8526 18.231H80.5351V7.0311H75.5921V18.231H72.2747V4.46979H83.8526V18.231ZM93.7387 15.6602H89.1926L88.3987 18.231H84.8544L89.9014 4.46979H93.0204L98.1052 18.231H94.542L93.7387 15.6602ZM89.9865 13.0989H92.9448L91.4609 8.32594L89.9865 13.0989ZM110.865 4.46979V18.231H107.547V7.0311H104.457L104.23 11.6528C104.135 13.2469 103.915 14.5197 103.568 15.4712C103.222 16.4226 102.727 17.1188 102.084 17.5599C101.448 17.9947 100.578 18.2184 99.4756 18.231H98.5872V15.6791L99.0503 15.6318C99.7119 15.5373 100.191 15.1341 100.487 14.4221C100.783 13.7038 100.975 12.4971 101.063 10.8022L101.3 4.46979H110.865ZM116.252 9.20491H117.962C119.053 9.20491 120.017 9.39079 120.855 9.76254C121.693 10.1343 122.335 10.6604 122.783 11.3409C123.236 12.0151 123.463 12.7901 123.463 13.666C123.463 15.0206 122.959 16.1202 121.951 16.9645C120.949 17.8088 119.601 18.231 117.906 18.231H112.925V4.46979H116.252V9.20491ZM127.773 18.231H124.465V4.46979H127.773V18.231ZM116.252 11.7568V15.6791H117.953C118.627 15.6791 119.16 15.4901 119.55 15.112C119.947 14.734 120.146 14.2456 120.146 13.6471C120.146 13.08 119.95 12.6232 119.56 12.2766C119.169 11.9301 118.627 11.7568 117.934 11.7568H116.252ZM141.014 4.46979V18.231H137.706V13.1461L136.733 13.269L135.514 13.3446C133.661 13.3446 132.243 12.9445 131.261 12.1443C130.278 11.3378 129.78 10.1973 129.767 8.7229V4.46979H133.085V8.67564C133.085 9.42545 133.264 9.96732 133.623 10.3013C133.989 10.6289 134.619 10.7927 135.514 10.7927L135.797 10.7833C136.572 10.7455 137.209 10.6856 137.706 10.6037V4.46979H141.014ZM149.161 13.5336H143.481V11.0668H149.161V13.5336ZM156.155 4.46979L159.227 14.044L162.289 4.46979H166.656V18.231H163.329V15.0175L163.65 8.43936L160.323 18.231H158.131L154.794 8.4299L155.116 15.0175V18.231H151.798V4.46979H156.155ZM176.759 15.6602H172.213L171.419 18.231H167.875L172.922 4.46979H176.041L181.126 18.231H177.563L176.759 15.6602ZM173.007 13.0989H175.965L174.482 8.32594L173.007 13.0989ZM191.418 7.0311H185.436V18.231H182.118V4.46979H191.418V7.0311Z" fill="#00447A"/>
<path d="M78.1939 26.5096C78.1939 26.7874 78.1091 27.0439 77.9393 27.2793C77.7734 27.5108 77.538 27.696 77.2332 27.8349C77.9509 28.0857 78.3097 28.5699 78.3097 29.2876C78.3097 29.8625 78.0763 30.3216 77.6094 30.665C77.1425 31.0046 76.5175 31.1743 75.7342 31.1743C75.2558 31.1743 74.8198 31.0952 74.4262 30.9371C74.0327 30.775 73.7259 30.5474 73.506 30.2541C73.2861 29.957 73.1761 29.6059 73.1761 29.2008H74.5767C74.5767 29.4554 74.6905 29.6696 74.9182 29.8432C75.1458 30.013 75.4333 30.0979 75.7805 30.0979C76.1239 30.0979 76.3959 30.0188 76.5966 29.8606C76.8011 29.6985 76.9033 29.4882 76.9033 29.2297C76.9033 28.9249 76.8146 28.705 76.6371 28.5699C76.4596 28.4349 76.1857 28.3674 75.8152 28.3674H74.8082V27.3545H75.85C76.4789 27.3468 76.7933 27.0883 76.7933 26.579C76.7933 26.3244 76.7027 26.1256 76.5213 25.9829C76.34 25.8401 76.0911 25.7687 75.7747 25.7687C75.4661 25.7687 75.2056 25.8459 74.9934 26.0002C74.7812 26.1507 74.6751 26.3417 74.6751 26.5732H73.2745C73.2745 26.0215 73.506 25.57 73.969 25.2189C74.432 24.864 75.0204 24.6865 75.7342 24.6865C76.5098 24.6865 77.1136 24.8447 77.5457 25.161C77.9779 25.4774 78.1939 25.9269 78.1939 26.5096ZM85.3208 31.0586C85.259 30.939 85.205 30.7441 85.1587 30.474C84.7111 30.9409 84.1633 31.1743 83.515 31.1743C82.8861 31.1743 82.373 30.9949 81.9755 30.6361C81.5781 30.2773 81.3794 29.8336 81.3794 29.305C81.3794 28.6375 81.6264 28.1262 82.1202 27.7712C82.618 27.4124 83.3279 27.233 84.2501 27.233H85.1124V26.8221C85.1124 26.498 85.0217 26.2395 84.8404 26.0465C84.6591 25.8498 84.3832 25.7514 84.0128 25.7514C83.6925 25.7514 83.4302 25.8324 83.2257 25.9945C83.0212 26.1527 82.9189 26.3552 82.9189 26.6022H81.5125C81.5125 26.2588 81.6264 25.9385 81.854 25.6414C82.0817 25.3405 82.3903 25.1051 82.78 24.9353C83.1736 24.7656 83.6115 24.6807 84.0938 24.6807C84.8269 24.6807 85.4114 24.8659 85.8474 25.2363C86.2834 25.6028 86.5072 26.1199 86.5188 26.7874V29.6117C86.5188 30.175 86.5979 30.6245 86.7561 30.9602V31.0586H85.3208ZM83.7755 30.0458C84.0533 30.0458 84.3137 29.9782 84.5568 29.8432C84.8037 29.7082 84.9889 29.5268 85.1124 29.2992V28.1185H84.3542C83.8334 28.1185 83.4417 28.2092 83.1794 28.3905C82.917 28.5719 82.7858 28.8284 82.7858 29.1603C82.7858 29.4304 82.8746 29.6464 83.052 29.8085C83.2334 29.9667 83.4745 30.0458 83.7755 30.0458ZM92.2913 28.5815H91.5795V31.0586H90.1731V24.7964H91.5795V27.2967H92.1987L93.9292 24.7964H95.6655L93.4025 27.7944L95.8565 31.0586H94.0276L92.2913 28.5815ZM102.445 31.0586C102.383 30.939 102.329 30.7441 102.283 30.474C101.835 30.9409 101.288 31.1743 100.639 31.1743C100.01 31.1743 99.4973 30.9949 99.0998 30.6361C98.7024 30.2773 98.5037 29.8336 98.5037 29.305C98.5037 28.6375 98.7507 28.1262 99.2445 27.7712C99.7423 27.4124 100.452 27.233 101.374 27.233H102.237V26.8221C102.237 26.498 102.146 26.2395 101.965 26.0465C101.783 25.8498 101.507 25.7514 101.137 25.7514C100.817 25.7514 100.554 25.8324 100.35 25.9945C100.145 26.1527 100.043 26.3552 100.043 26.6022H98.6368C98.6368 26.2588 98.7507 25.9385 98.9783 25.6414C99.2059 25.3405 99.5146 25.1051 99.9043 24.9353C100.298 24.7656 100.736 24.6807 101.218 24.6807C101.951 24.6807 102.536 24.8659 102.972 25.2363C103.408 25.6028 103.632 26.1199 103.643 26.7874V29.6117C103.643 30.175 103.722 30.6245 103.88 30.9602V31.0586H102.445ZM100.9 30.0458C101.178 30.0458 101.438 29.9782 101.681 29.8432C101.928 29.7082 102.113 29.5268 102.237 29.2992V28.1185H101.479C100.958 28.1185 100.566 28.2092 100.304 28.3905C100.041 28.5719 99.9101 28.8284 99.9101 29.1603C99.9101 29.4304 99.9988 29.6464 100.176 29.8085C100.358 29.9667 100.599 30.0458 100.9 30.0458ZM111.933 26.5096C111.933 26.7874 111.848 27.0439 111.679 27.2793C111.513 27.5108 111.277 27.696 110.972 27.8349C111.69 28.0857 112.049 28.5699 112.049 29.2876C112.049 29.8625 111.816 30.3216 111.349 30.665C110.882 31.0046 110.257 31.1743 109.473 31.1743C108.995 31.1743 108.559 31.0952 108.166 30.9371C107.772 30.775 107.465 30.5474 107.245 30.2541C107.025 29.957 106.915 29.6059 106.915 29.2008H108.316C108.316 29.4554 108.43 29.6696 108.657 29.8432C108.885 30.013 109.173 30.0979 109.52 30.0979C109.863 30.0979 110.135 30.0188 110.336 29.8606C110.54 29.6985 110.643 29.4882 110.643 29.2297C110.643 28.9249 110.554 28.705 110.376 28.5699C110.199 28.4349 109.925 28.3674 109.555 28.3674H108.547V27.3545H109.589C110.218 27.3468 110.533 27.0883 110.533 26.579C110.533 26.3244 110.442 26.1256 110.261 25.9829C110.079 25.8401 109.83 25.7687 109.514 25.7687C109.205 25.7687 108.945 25.8459 108.733 26.0002C108.52 26.1507 108.414 26.3417 108.414 26.5732H107.014C107.014 26.0215 107.245 25.57 107.708 25.2189C108.171 24.864 108.76 24.6865 109.473 24.6865C110.249 24.6865 110.853 24.8447 111.285 25.161C111.717 25.4774 111.933 25.9269 111.933 26.5096ZM120.451 31.0586V24.7964H122.992C123.849 24.7964 124.501 24.9469 124.948 25.2479C125.396 25.545 125.62 25.9732 125.62 26.5327C125.62 26.8221 125.529 27.0825 125.348 27.314C125.17 27.5417 124.906 27.7172 124.555 27.8407C124.964 27.9256 125.288 28.0973 125.527 28.3558C125.766 28.6143 125.886 28.9191 125.886 29.2702C125.886 29.8528 125.67 30.2966 125.238 30.6014C124.809 30.9062 124.192 31.0586 123.386 31.0586H120.451ZM121.858 28.3905V29.9474H123.397C124.119 29.9474 124.48 29.6889 124.48 29.1718C124.48 28.651 124.113 28.3905 123.38 28.3905H121.858ZM121.858 27.3835H123.015C123.814 27.3835 124.213 27.1481 124.213 26.6774C124.213 26.1835 123.835 25.9289 123.079 25.9134H121.858V27.3835ZM137.923 29.3281L139.775 24.7964H141.534V31.0586H140.128V26.9147L138.403 31.0586H137.448L135.718 26.8915V31.0586H134.311V24.7964H136.082L137.923 29.3281ZM148.933 31.0586C148.871 30.939 148.817 30.7441 148.771 30.474C148.324 30.9409 147.776 31.1743 147.127 31.1743C146.499 31.1743 145.985 30.9949 145.588 30.6361C145.191 30.2773 144.992 29.8336 144.992 29.305C144.992 28.6375 145.239 28.1262 145.733 27.7712C146.23 27.4124 146.94 27.233 147.863 27.233H148.725V26.8221C148.725 26.498 148.634 26.2395 148.453 26.0465C148.272 25.8498 147.996 25.7514 147.625 25.7514C147.305 25.7514 147.043 25.8324 146.838 25.9945C146.634 26.1527 146.531 26.3552 146.531 26.6022H145.125C145.125 26.2588 145.239 25.9385 145.466 25.6414C145.694 25.3405 146.003 25.1051 146.392 24.9353C146.786 24.7656 147.224 24.6807 147.706 24.6807C148.439 24.6807 149.024 24.8659 149.46 25.2363C149.896 25.6028 150.12 26.1199 150.131 26.7874V29.6117C150.131 30.175 150.21 30.6245 150.369 30.9602V31.0586H148.933ZM147.388 30.0458C147.666 30.0458 147.926 29.9782 148.169 29.8432C148.416 29.7082 148.601 29.5268 148.725 29.2992V28.1185H147.967C147.446 28.1185 147.054 28.2092 146.792 28.3905C146.529 28.5719 146.398 28.8284 146.398 29.1603C146.398 29.4304 146.487 29.6464 146.664 29.8085C146.846 29.9667 147.087 30.0458 147.388 30.0458ZM157.848 25.9308H155.128V31.0586H153.728V24.7964H157.848V25.9308ZM164.46 31.0586C164.398 30.939 164.344 30.7441 164.298 30.474C163.851 30.9409 163.303 31.1743 162.654 31.1743C162.025 31.1743 161.512 30.9949 161.115 30.6361C160.718 30.2773 160.519 29.8336 160.519 29.305C160.519 28.6375 160.766 28.1262 161.26 27.7712C161.757 27.4124 162.467 27.233 163.389 27.233H164.252V26.8221C164.252 26.498 164.161 26.2395 163.98 26.0465C163.798 25.8498 163.523 25.7514 163.152 25.7514C162.832 25.7514 162.57 25.8324 162.365 25.9945C162.161 26.1527 162.058 26.3552 162.058 26.6022H160.652C160.652 26.2588 160.766 25.9385 160.993 25.6414C161.221 25.3405 161.53 25.1051 161.919 24.9353C162.313 24.7656 162.751 24.6807 163.233 24.6807C163.966 24.6807 164.551 24.8659 164.987 25.2363C165.423 25.6028 165.647 26.1199 165.658 26.7874V29.6117C165.658 30.175 165.737 30.6245 165.895 30.9602V31.0586H164.46ZM162.915 30.0458C163.193 30.0458 163.453 29.9782 163.696 29.8432C163.943 29.7082 164.128 29.5268 164.252 29.2992V28.1185H163.494C162.973 28.1185 162.581 28.2092 162.319 28.3905C162.056 28.5719 161.925 28.8284 161.925 29.1603C161.925 29.4304 162.014 29.6464 162.191 29.8085C162.373 29.9667 162.614 30.0458 162.915 30.0458ZM173.948 26.5096C173.948 26.7874 173.863 27.0439 173.694 27.2793C173.528 27.5108 173.292 27.696 172.988 27.8349C173.705 28.0857 174.064 28.5699 174.064 29.2876C174.064 29.8625 173.831 30.3216 173.364 30.665C172.897 31.0046 172.272 31.1743 171.489 31.1743C171.01 31.1743 170.574 31.0952 170.181 30.9371C169.787 30.775 169.48 30.5474 169.26 30.2541C169.04 29.957 168.93 29.6059 168.93 29.2008H170.331C170.331 29.4554 170.445 29.6696 170.673 29.8432C170.9 30.013 171.188 30.0979 171.535 30.0979C171.878 30.0979 172.15 30.0188 172.351 29.8606C172.555 29.6985 172.658 29.4882 172.658 29.2297C172.658 28.9249 172.569 28.705 172.391 28.5699C172.214 28.4349 171.94 28.3674 171.57 28.3674H170.563V27.3545H171.604C172.233 27.3468 172.548 27.0883 172.548 26.579C172.548 26.3244 172.457 26.1256 172.276 25.9829C172.094 25.8401 171.845 25.7687 171.529 25.7687C171.22 25.7687 170.96 25.8459 170.748 26.0002C170.536 26.1507 170.429 26.3417 170.429 26.5732H169.029C169.029 26.0215 169.26 25.57 169.723 25.2189C170.186 24.864 170.775 24.6865 171.489 24.6865C172.264 24.6865 172.868 24.8447 173.3 25.161C173.732 25.4774 173.948 25.9269 173.948 26.5096ZM181.243 24.7964H182.644V31.0586H181.243V26.88L178.789 31.0586H177.388V24.7964H178.789V28.9751L181.243 24.7964ZM191.518 31.0586H190.112V28.5294H187.675V31.0586H186.269V24.7964H187.675V27.4066H190.112V24.7964H191.518V31.0586Z" fill="#00447A"/>
</svg>
