<svg width="141" height="25" viewBox="0 0 141 25" fill="none" xmlns="http://www.w3.org/2000/svg">
<path d="M14.2305 0V13.4992H9.66716V3.14277H5.43243V13.4992H0.916016V0H14.2305Z" fill="#009580"/>
<path d="M25.3211 0L30.26 13.4992H25.7624L25.2272 11.7165H20.7202L20.2038 13.4992H15.7812L20.7202 0H25.3211ZM24.4385 8.9045L22.9831 4.07089L21.584 8.9045H24.4009H24.4385Z" fill="#009580"/>
<path d="M45.2574 0V13.4992H40.7316V3.14276H37.4922V6.98392C37.4922 12.424 35.7457 13.7657 33.1636 13.7657C32.3375 13.7751 31.5137 13.6793 30.7129 13.4808V10.3472C31.046 10.4526 31.3963 10.4962 31.7457 10.4759C32.6847 10.4759 33.1636 10.1175 33.1636 6.94716V0H45.2574Z" fill="#009580"/>
<path d="M52.457 4.70496H54.5978C58.0814 4.70496 60.2879 6.23958 60.2879 9.18937C60.2879 12.1392 58.1189 13.4992 54.5415 13.4992H47.9688V0H52.4946V4.70496H52.457ZM52.457 10.3472H54.119C55.2269 10.3472 56.072 10.1267 56.072 9.10667C56.072 7.92124 55.0204 7.84773 53.5837 7.84773H52.457V10.338V10.3472ZM66.7668 13.4992H62.2504V0H66.7668V13.4992Z" fill="#009580"/>
<path d="M73.7795 0V3.48277C73.7586 3.70405 73.7902 3.92706 73.8718 4.13441C73.9535 4.34177 74.083 4.52786 74.2502 4.67818C74.4174 4.8285 74.6179 4.93898 74.8359 5.00101C75.054 5.06304 75.2837 5.07494 75.5072 5.03578C76.1976 5.05148 76.8868 4.97103 77.5541 4.79685V0H82.0705V13.4992H77.5541V8.0407C76.3227 8.31216 75.0585 8.41423 73.7983 8.34395C73.2172 8.38043 72.6347 8.29977 72.0868 8.10697C71.5389 7.91417 71.0373 7.61333 70.613 7.22308C70.1887 6.83283 69.8508 6.36149 69.6202 5.83824C69.3896 5.315 69.2713 4.751 69.2725 4.18117V0H73.7983H73.7795Z" fill="#009580"/>
<path d="M84.1094 8.15155H93.0014V10.0813H84.1094V8.15155Z" fill="#009580"/>
<path d="M102.263 0L104.695 8.41747L107.127 0H112.582V13.4992H108.516V9.37316C108.529 7.85591 108.626 6.34045 108.808 4.83361L106.301 13.49H103.155L100.648 4.83361C100.779 6.01904 100.939 7.82935 100.939 8.92288V13.5176H96.8076V0H102.263Z" fill="#009580"/>
<path d="M123.676 0L128.615 13.4992H124.117L123.582 11.7165H119.084L118.587 13.4992H114.164L119.103 0H123.704H123.676ZM122.793 8.9045L121.338 4.07089L119.939 8.9045H122.756H122.793Z" fill="#009580"/>
<path d="M140.9 0V3.15196H134.694V13.4992H130.168V0H140.891H140.9Z" fill="#009580"/>
<path d="M1.10714 22.1474C1.08019 22.4269 1.12638 22.7085 1.24137 22.9657C1.35636 23.223 1.53636 23.4473 1.76441 23.6177C2.26502 23.9006 2.84016 24.0317 3.41698 23.9944C3.89979 24.0092 4.37929 23.9115 4.81603 23.7096C5.04447 23.6138 5.23823 23.4531 5.37218 23.2483C5.50613 23.0435 5.57407 22.804 5.5672 22.5609C5.58681 22.323 5.54254 22.0842 5.43878 21.8682C5.33502 21.6522 5.17537 21.4665 4.97566 21.3295C4.52971 21.0859 4.01997 20.9771 3.51088 21.0171H2.65642V20.0981H3.27614C3.73902 20.1139 4.19823 20.0126 4.60946 19.8041C4.79215 19.7245 4.94814 19.596 5.05944 19.4334C5.17075 19.2708 5.23284 19.0808 5.23856 18.8851C5.25453 18.652 5.19977 18.4195 5.08116 18.2168C4.96255 18.0141 4.78538 17.8502 4.5719 17.7456C4.1531 17.572 3.70029 17.4911 3.24582 17.5086C2.79134 17.526 2.34641 17.6415 1.94281 17.8467C1.71723 17.973 1.53085 18.1567 1.40353 18.3784C1.27621 18.6001 1.21272 18.8515 1.21982 19.1057H0.186962C0.179301 18.5096 0.400446 17.9325 0.806672 17.4883C1.15023 17.1572 1.56346 16.9035 2.01754 16.7448C2.47162 16.5861 2.95562 16.5262 3.43576 16.5694C4.18324 16.5379 4.92009 16.7513 5.52964 17.1759C5.78766 17.3595 5.99605 17.6019 6.13676 17.8822C6.27747 18.1624 6.34625 18.4719 6.33714 18.784C6.34104 19.0115 6.29722 19.2373 6.2084 19.4475C6.11957 19.6578 5.98762 19.8479 5.82072 20.0062C5.56919 20.2663 5.24091 20.443 4.88176 20.5116C5.37979 20.5989 5.8331 20.8482 6.16813 21.2192C6.50593 21.6079 6.68339 22.106 6.66579 22.616C6.6791 22.9883 6.58707 23.3569 6.39983 23.6812C6.2126 24.0056 5.93745 24.2729 5.60476 24.4539C4.93109 24.8195 4.16795 24.9975 3.3982 24.9685C2.89233 25.0253 2.3799 24.977 1.89446 24.8265C1.40903 24.6761 0.961547 24.427 0.581324 24.0955C0.157997 23.5413 -0.0455159 22.8556 0.00855772 22.1657H1.04141L1.10714 22.1474Z" fill="#009580"/>
<path d="M14.8281 22.395H11.5512L10.6967 24.6924H9.56055L12.6404 16.6884H13.8892L16.8375 24.6924H15.6356L14.8281 22.395ZM11.8986 21.4761H14.4338L13.2319 17.9565L11.8986 21.4761Z" fill="#009580"/>
<path d="M21.4341 21.9357V24.6925H20.3262V16.7345H21.4341V20.6124L25.3966 16.7345H26.9177L23.5186 19.9692L27.0116 24.6925H25.575L22.7581 20.6767L21.4341 21.9357Z" fill="#009580"/>
<path d="M34.9531 22.395H31.6855L30.8311 24.6924H29.6855L32.7653 16.6884H34.0142L36.9719 24.6924H35.77L34.9531 22.395ZM32.0236 21.4761H34.5588L33.3569 17.9565L32.0236 21.4761Z" fill="#009580"/>
<path d="M41.1239 22.1466C41.0969 22.4261 41.1431 22.7078 41.2581 22.965C41.3731 23.2222 41.5531 23.4466 41.7812 23.6169C42.2818 23.8998 42.8569 24.0309 43.4337 23.9937C43.9165 24.0084 44.396 23.9108 44.8328 23.7088C45.0612 23.6131 45.255 23.4524 45.3889 23.2475C45.5229 23.0427 45.5908 22.8032 45.584 22.5601C45.5999 22.322 45.5519 22.084 45.4448 21.8696C45.3378 21.6552 45.1754 21.4719 44.9736 21.3379C44.5334 21.0865 44.027 20.9682 43.5182 20.9979H42.6638V20.0974H43.2835C43.7464 20.1131 44.2056 20.0118 44.6168 19.8033C44.7995 19.7237 44.9555 19.5952 45.0668 19.4326C45.1781 19.27 45.2402 19.08 45.2459 18.8844C45.2619 18.6513 45.2071 18.4188 45.0885 18.216C44.9699 18.0133 44.7927 17.8494 44.5793 17.7449C44.1605 17.5713 43.7076 17.4903 43.2532 17.5078C42.7987 17.5253 42.3538 17.6407 41.9502 17.846C41.7301 17.9777 41.5504 18.1649 41.4298 18.388C41.3091 18.6112 41.2521 18.862 41.2647 19.1141H40.2319C40.2242 18.5181 40.4454 17.9409 40.8516 17.4968C41.1951 17.1657 41.6084 16.9119 42.0625 16.7532C42.5165 16.5945 43.0005 16.5346 43.4807 16.5778C44.2282 16.5463 44.965 16.7597 45.5746 17.1843C45.8326 17.368 46.041 17.6104 46.1817 17.8906C46.3224 18.1708 46.3912 18.4804 46.3821 18.7925C46.386 19.0199 46.3421 19.2457 46.2533 19.456C46.1645 19.6662 46.0325 19.8563 45.8656 20.0147C45.6141 20.2748 45.2858 20.4515 44.9267 20.5201C45.4247 20.6073 45.878 20.8566 46.2131 21.2277C46.5508 21.6164 46.7283 22.1144 46.7107 22.6244C46.724 22.9967 46.632 23.3653 46.4448 23.6897C46.2575 24.014 45.9824 24.2814 45.6497 24.4623C44.976 24.8279 44.2129 25.0059 43.4431 24.9769C42.9373 25.0338 42.4248 24.9854 41.9394 24.8349C41.454 24.6845 41.0065 24.4354 40.6262 24.1039C40.2029 23.5497 39.9994 22.8641 40.0535 22.1742H41.0863L41.1239 22.1466Z" fill="#009580"/>
<path d="M56.1328 24.692V16.734H59.729C60.0431 16.7167 60.3575 16.7606 60.6541 16.8631C60.9507 16.9656 61.2235 17.1248 61.4567 17.3313C61.7526 17.6301 61.9481 18.0104 62.0169 18.421C62.0857 18.8316 62.0246 19.253 61.8417 19.6287C61.6442 19.9876 61.3304 20.2721 60.9497 20.4374C61.2933 20.5574 61.6116 20.738 61.8886 20.9703C62.0768 21.1549 62.2227 21.3766 62.3166 21.6206C62.4104 21.8646 62.4502 22.1253 62.4332 22.3855C62.4426 22.6965 62.3838 23.0059 62.2607 23.2928C62.1376 23.5798 61.9531 23.8375 61.7196 24.0488C61.1495 24.5418 60.4043 24.7959 59.6445 24.7564H56.1328V24.692ZM57.2408 17.6162V20.0973H59.2314C59.6663 20.1282 60.1009 20.0323 60.4802 19.8217C60.6359 19.7037 60.7589 19.5493 60.8376 19.3727C60.9164 19.196 60.9485 19.0028 60.9309 18.8108C60.941 18.6442 60.9095 18.4776 60.8392 18.3255C60.7688 18.1735 60.6618 18.0404 60.5272 17.9378C60.1405 17.7102 59.6905 17.6073 59.2408 17.6438H57.2314L57.2408 17.6162ZM57.2408 20.9611V23.7731H59.5976C60.0616 23.8018 60.5199 23.661 60.884 23.378C61.0333 23.2412 61.1503 23.0741 61.2266 22.8883C61.3028 22.7025 61.3365 22.5027 61.3253 22.3028C61.3409 22.0814 61.2908 21.8603 61.1808 21.6663C61.0708 21.4722 60.9058 21.3135 60.7056 21.2093C60.3049 21.0467 59.8702 20.9805 59.438 21.0163H57.2596L57.2408 20.9611Z" fill="#009580"/>
<path d="M79.635 24.6925H78.5646V20.0059V18.0118L76.2736 24.6925H75.1844L72.8839 17.9659V24.6925H71.8135V16.7345H73.3909L75.7102 23.5071L78.067 16.7345H79.635V24.6925Z" fill="#009580"/>
<path d="M88.3604 22.395H85.0928L84.2383 24.6924H83.0928L86.1726 16.6884H87.4214L90.4167 24.6924H89.2148L88.3604 22.395ZM85.4308 21.4761H87.966L86.7641 17.9565L85.4308 21.4761Z" fill="#009580"/>
<path d="M94.9674 17.6902V24.6925H93.8594V16.7345H99.2114V17.6534H94.9674V17.6902Z" fill="#009580"/>
<path d="M106.437 22.395H103.169L102.305 24.6924H101.169L104.249 16.6884H105.498L108.446 24.6924H107.244L106.437 22.395ZM103.507 21.4761H106.042L104.84 17.9565L103.507 21.4761Z" fill="#009580"/>
<path d="M112.607 22.1466C112.58 22.4261 112.627 22.7078 112.742 22.965C112.857 23.2222 113.037 23.4466 113.265 23.6169C113.765 23.8998 114.34 24.0309 114.917 23.9937C115.4 24.0084 115.879 23.9108 116.316 23.7088C116.545 23.6131 116.738 23.4524 116.872 23.2475C117.006 23.0427 117.074 22.8032 117.067 22.5601C117.083 22.322 117.035 22.084 116.928 21.8696C116.821 21.6552 116.659 21.4719 116.457 21.3379C116.017 21.0865 115.51 20.9682 115.002 20.9979H114.147V20.0974H114.767C115.23 20.1131 115.689 20.0118 116.1 19.8033C116.283 19.7237 116.439 19.5952 116.55 19.4326C116.662 19.27 116.724 19.08 116.729 18.8844C116.745 18.6513 116.691 18.4188 116.572 18.216C116.453 18.0133 116.276 17.8494 116.063 17.7449C115.644 17.5713 115.191 17.4903 114.737 17.5078C114.282 17.5253 113.837 17.6407 113.434 17.846C113.214 17.9777 113.034 18.1649 112.913 18.388C112.793 18.6112 112.736 18.862 112.748 19.1141H111.715C111.708 18.5181 111.929 17.9409 112.335 17.4968C112.679 17.1657 113.092 16.9119 113.546 16.7532C114 16.5945 114.484 16.5346 114.964 16.5778C115.712 16.5463 116.448 16.7597 117.058 17.1843C117.316 17.368 117.524 17.6104 117.665 17.8906C117.806 18.1708 117.875 18.4804 117.865 18.7925C117.869 19.0199 117.826 19.2457 117.737 19.456C117.648 19.6662 117.516 19.8563 117.349 20.0147C117.098 20.2748 116.769 20.4515 116.41 20.5201C116.908 20.6073 117.361 20.8566 117.696 21.2277C118.034 21.6164 118.212 22.1144 118.194 22.6244C118.207 22.9967 118.115 23.3653 117.928 23.6897C117.741 24.014 117.466 24.2814 117.133 24.4623C116.459 24.8279 115.696 25.0059 114.927 24.9769C114.421 25.0338 113.908 24.9854 113.423 24.8349C112.937 24.6845 112.49 24.4354 112.11 24.1039C111.686 23.5497 111.483 22.8641 111.537 22.1742H112.57L112.607 22.1466Z" fill="#009580"/>
<path d="M123.079 16.7345V23.2865L127.229 16.7345H128.487V24.6925H127.379V18.2599L123.285 24.6925H121.971V16.7345H123.079Z" fill="#009580"/>
<path d="M138.097 20.0427V16.7345H139.242V24.6925H138.134V21.0167H133.862V24.6925H132.754V16.7345H133.862V20.0427H138.134H138.097Z" fill="#009580"/>
</svg>
