<svg width="143" height="25" viewBox="0 0 143 25" fill="none" xmlns="http://www.w3.org/2000/svg">
<path d="M50.5091 14.4528H48.1256V6.40596H44.5741V14.4528H42.1907V4.56571H50.5091V14.4528ZM57.6121 12.6058H54.3458L53.7754 14.4528H51.2289L54.8551 4.56571H57.096L60.7493 14.4528H58.1892L57.6121 12.6058ZM54.9162 10.7655H57.0416L55.9755 7.33627L54.9162 10.7655ZM69.9166 4.56571V14.4528H67.5331V6.40596H65.3126L65.1496 9.72655C65.0817 10.8719 64.9232 11.7864 64.6742 12.4699C64.4253 13.1535 64.0699 13.6538 63.6081 13.9707C63.1509 14.283 62.5262 14.4437 61.7339 14.4528H61.0956V12.6193L61.4284 12.5854C61.9037 12.5175 62.2477 12.2277 62.4605 11.7162C62.6733 11.2001 62.8114 10.3332 62.8747 9.1154L63.0445 4.56571H69.9166ZM73.7872 7.96779H75.0163C75.7995 7.96779 76.4921 8.10134 77.0942 8.36844C77.6963 8.63553 78.1581 9.01354 78.4795 9.50246C78.8054 9.98686 78.9684 10.5437 78.9684 11.1729C78.9684 12.1463 78.6062 12.9362 77.8819 13.5429C77.1621 14.1495 76.1933 14.4528 74.9755 14.4528H71.3969V4.56571H73.7872V7.96779ZM82.0649 14.4528H79.6882V4.56571H82.0649V14.4528ZM73.7872 9.80125V12.6193H75.0095C75.4939 12.6193 75.8764 12.4835 76.1571 12.2119C76.4423 11.9403 76.5849 11.5894 76.5849 11.1594C76.5849 10.7519 76.4446 10.4237 76.1639 10.1747C75.8832 9.92574 75.4939 9.80125 74.9959 9.80125H73.7872ZM91.5785 4.56571V14.4528H89.2018V10.7995L88.5024 10.8877L87.6264 10.9421C86.2954 10.9421 85.2769 10.6546 84.5706 10.0797C83.8644 9.5002 83.5068 8.6808 83.4977 7.62147V4.56571H85.8812V7.58752C85.8812 8.12624 86.0102 8.51556 86.2683 8.7555C86.5308 8.9909 86.9835 9.10861 87.6264 9.10861L87.8301 9.10182C88.3869 9.07465 88.8442 9.03165 89.2018 8.9728V4.56571H91.5785ZM97.432 11.0779H93.3508V9.30553H97.432V11.0779ZM99.3265 14.4528V4.56571H102.878C104.15 4.56571 105.117 4.79886 105.778 5.26514C106.443 5.73143 106.776 6.40822 106.776 7.29552C106.776 7.80708 106.658 8.24394 106.423 8.60611C106.187 8.96827 105.841 9.23537 105.384 9.40739C105.9 9.5432 106.296 9.79672 106.572 10.1679C106.848 10.5392 106.986 10.9919 106.986 11.5261C106.986 12.4948 106.678 13.2237 106.063 13.7126C105.452 14.197 104.544 14.4437 103.34 14.4528H99.3265ZM101.71 10.2494V12.6193H103.272C103.702 12.6193 104.032 12.522 104.263 12.3273C104.494 12.1281 104.61 11.8497 104.61 11.4921C104.61 10.6682 104.2 10.254 103.381 10.2494H101.71ZM101.71 8.68759H102.953C103.473 8.68307 103.845 8.588 104.066 8.40239C104.288 8.21678 104.399 7.94289 104.399 7.58073C104.399 7.16424 104.279 6.86545 104.039 6.68437C103.799 6.49876 103.412 6.40596 102.878 6.40596H101.71V8.68759ZM114.436 10.263H110.687V12.6193H115.115V14.4528H108.304V4.56571H115.128V6.40596H110.687V8.49067H114.436V10.263ZM120.9 7.30911C120.9 6.99674 120.778 6.74549 120.534 6.55535C120.294 6.36522 119.968 6.27015 119.556 6.27015C119.171 6.27015 118.861 6.36295 118.625 6.54856C118.394 6.72964 118.279 6.96958 118.279 7.26836H115.902C115.902 6.72512 116.056 6.23846 116.364 5.80839C116.676 5.37832 117.116 5.04332 117.681 4.80338C118.247 4.55892 118.872 4.43669 119.556 4.43669C120.733 4.43669 121.647 4.68342 122.299 5.17687C122.955 5.67031 123.284 6.36069 123.284 7.24799C123.284 7.7007 123.15 8.11492 122.883 8.49067C122.62 8.86188 122.256 9.15614 121.79 9.37344C122.324 9.56358 122.731 9.85331 123.012 10.2426C123.297 10.6274 123.44 11.1073 123.44 11.6822C123.44 12.5695 123.087 13.2758 122.381 13.8009C121.674 14.3215 120.733 14.5818 119.556 14.5818C118.465 14.5818 117.559 14.326 116.839 13.8145C116.12 13.2984 115.76 12.5967 115.76 11.7094H118.15C118.15 12.0037 118.281 12.2526 118.544 12.4564C118.806 12.6556 119.144 12.7551 119.556 12.7551C119.999 12.7551 120.359 12.651 120.635 12.4428C120.912 12.2345 121.05 11.9629 121.05 11.6279C121.05 11.139 120.932 10.7949 120.696 10.5957C120.461 10.392 120.117 10.2902 119.664 10.2902H118.394V8.52462H119.746C120.515 8.50198 120.9 8.09681 120.9 7.30911ZM130.977 10.263H127.229V12.6193H131.656V14.4528H124.846V4.56571H131.67V6.40596H127.229V8.49067H130.977V10.263ZM140.525 6.40596H137.557V14.4528H135.174V6.40596H132.261V4.56571H140.525V6.40596Z" fill="#A70230"/>
<path d="M43.1256 22.8948V18.3733H44.9601C45.5786 18.3733 46.0494 18.4819 46.3726 18.6992C46.6957 18.9138 46.8573 19.223 46.8573 19.6269C46.8573 19.8359 46.7919 20.0239 46.6609 20.1911C46.5328 20.3554 46.3419 20.4822 46.0884 20.5714C46.3837 20.6326 46.6177 20.7566 46.7905 20.9433C46.9632 21.1299 47.0496 21.35 47.0496 21.6035C47.0496 22.0242 46.8935 22.3446 46.5815 22.5646C46.2723 22.7847 45.8266 22.8948 45.2443 22.8948H43.1256ZM44.1411 20.9683V22.0924H45.2527C45.7736 22.0924 46.0341 21.9058 46.0341 21.5325C46.0341 21.1564 45.7694 20.9683 45.2401 20.9683H44.1411ZM44.1411 20.2412H44.9769C45.5535 20.2412 45.8419 20.0713 45.8419 19.7314C45.8419 19.3748 45.5689 19.191 45.0228 19.1798H44.1411V20.2412ZM52.06 22.9784C51.4164 22.9784 50.8941 22.7764 50.4929 22.3724C50.0945 21.9657 49.8953 21.4252 49.8953 20.751V20.6257C49.8953 20.1744 49.9817 19.7718 50.1544 19.418C50.3299 19.0614 50.5751 18.7842 50.8899 18.5864C51.2047 18.3886 51.5557 18.2897 51.9429 18.2897C52.5586 18.2897 53.0336 18.4861 53.3679 18.8789C53.705 19.2717 53.8736 19.8275 53.8736 20.5463V20.9558H50.9191C50.9498 21.3291 51.0738 21.6244 51.2911 21.8417C51.5111 22.059 51.7869 22.1677 52.1185 22.1677C52.5837 22.1677 52.9626 21.9796 53.2551 21.6035L53.8025 22.1259C53.6214 22.3961 53.3791 22.6064 53.0754 22.7569C52.7745 22.9045 52.436 22.9784 52.06 22.9784ZM51.9388 19.1046C51.6602 19.1046 51.4345 19.2021 51.2618 19.3971C51.0919 19.5921 50.9832 19.8637 50.9359 20.212H52.8706V20.1368C52.8484 19.7969 52.7578 19.5406 52.599 19.3679C52.4402 19.1923 52.2201 19.1046 51.9388 19.1046ZM60.2295 19.6102C60.2295 19.8108 60.1682 19.9961 60.0457 20.166C59.9259 20.3332 59.7559 20.4669 59.5359 20.5672C60.054 20.7483 60.3131 21.0979 60.3131 21.6161C60.3131 22.0312 60.1446 22.3627 59.8075 22.6106C59.4704 22.8558 59.0191 22.9784 58.4535 22.9784C58.1081 22.9784 57.7933 22.9212 57.5091 22.807C57.225 22.69 57.0035 22.5256 56.8447 22.3139C56.6859 22.0994 56.6065 21.8459 56.6065 21.5534H57.6178C57.6178 21.7372 57.7 21.8919 57.8643 22.0172C58.0287 22.1398 58.2362 22.2011 58.487 22.2011C58.7349 22.2011 58.9313 22.144 59.0762 22.0298C59.2238 21.9128 59.2977 21.7609 59.2977 21.5743C59.2977 21.3542 59.2336 21.1954 59.1054 21.0979C58.9773 21.0004 58.7795 20.9516 58.512 20.9516H57.7849V20.2203H58.5371C58.9912 20.2148 59.2183 20.0281 59.2183 19.6604C59.2183 19.4765 59.1528 19.333 59.0219 19.23C58.8909 19.1269 58.7112 19.0753 58.4828 19.0753C58.2599 19.0753 58.0719 19.1311 57.9187 19.2425C57.7654 19.3511 57.6888 19.489 57.6888 19.6562H56.6775C56.6775 19.2578 56.8447 18.9319 57.179 18.6784C57.5133 18.4221 57.9382 18.2939 58.4535 18.2939C59.0135 18.2939 59.4495 18.4081 59.7615 18.6366C60.0735 18.865 60.2295 19.1896 60.2295 19.6102ZM65.3068 22.9784C64.6633 22.9784 64.1409 22.7764 63.7397 22.3724C63.3414 21.9657 63.1422 21.4252 63.1422 20.751V20.6257C63.1422 20.1744 63.2285 19.7718 63.4013 19.418C63.5768 19.0614 63.8219 18.7842 64.1367 18.5864C64.4515 18.3886 64.8026 18.2897 65.1898 18.2897C65.8055 18.2897 66.2805 18.4861 66.6148 18.8789C66.9519 19.2717 67.1204 19.8275 67.1204 20.5463V20.9558H64.166C64.1966 21.3291 64.3206 21.6244 64.5379 21.8417C64.758 22.059 65.0338 22.1677 65.3653 22.1677C65.8305 22.1677 66.2094 21.9796 66.5019 21.6035L67.0494 22.1259C66.8683 22.3961 66.6259 22.6064 66.3222 22.7569C66.0214 22.9045 65.6829 22.9784 65.3068 22.9784ZM65.1856 19.1046C64.907 19.1046 64.6814 19.2021 64.5086 19.3971C64.3387 19.5921 64.2301 19.8637 64.1827 20.212H66.1175V20.1368C66.0952 19.7969 66.0047 19.5406 65.8459 19.3679C65.6871 19.1923 65.467 19.1046 65.1856 19.1046ZM63.6353 17.1865C63.6353 17.0472 63.6812 16.9302 63.7732 16.8355C63.8679 16.7408 63.9974 16.6934 64.1618 16.6934C64.3262 16.6934 64.4557 16.7408 64.5504 16.8355C64.6451 16.9302 64.6925 17.0472 64.6925 17.1865C64.6925 17.3258 64.6451 17.4428 64.5504 17.5375C64.4557 17.6323 64.3262 17.6796 64.1618 17.6796C63.9974 17.6796 63.8679 17.6323 63.7732 17.5375C63.6812 17.4428 63.6353 17.3258 63.6353 17.1865ZM65.545 17.1907C65.545 17.0514 65.591 16.9344 65.6829 16.8397C65.7776 16.745 65.9072 16.6976 66.0715 16.6976C66.2359 16.6976 66.3654 16.745 66.4601 16.8397C66.5549 16.9344 66.6022 17.0514 66.6022 17.1907C66.6022 17.33 66.5549 17.447 66.4601 17.5417C66.3654 17.6364 66.2359 17.6838 66.0715 17.6838C65.9072 17.6838 65.7776 17.6364 65.6829 17.5417C65.591 17.447 65.545 17.33 65.545 17.1907ZM72.7367 21.6453L74.0739 18.3733H75.3443V22.8948H74.3289V19.9027L73.0836 22.8948H72.3941L71.1446 19.886V22.8948H70.1291V18.3733H71.4079L72.7367 21.6453ZM85.0266 18.624C85.5949 18.624 86.0504 18.8149 86.3931 19.1965C86.7358 19.5754 86.9071 20.0908 86.9071 20.7427V20.7928C86.9071 21.4447 86.7204 21.9727 86.3471 22.3766C85.9766 22.7806 85.4724 22.9825 84.8344 22.9825C84.2131 22.9825 83.7117 22.7764 83.33 22.3641C82.9484 21.9518 82.7575 21.389 82.7575 20.6758V20.3833C82.7575 19.4083 82.9302 18.6366 83.2757 18.0682C83.6211 17.4999 84.1365 17.1447 84.8219 17.0026C85.2063 16.9246 85.4543 16.8425 85.5657 16.7561C85.6799 16.6669 85.737 16.5472 85.737 16.3967H86.5561C86.5561 16.6781 86.5101 16.9065 86.4182 17.082C86.3262 17.2576 86.1855 17.401 85.9961 17.5125C85.8067 17.6211 85.4807 17.7242 85.0183 17.8217C84.5948 17.9108 84.2716 18.0696 84.0488 18.2981C83.8287 18.5265 83.681 18.8427 83.6058 19.2467C84.0098 18.8316 84.4834 18.624 85.0266 18.624ZM84.826 19.4389C84.4973 19.4389 84.2396 19.5503 84.053 19.7732C83.8663 19.9933 83.773 20.3332 83.773 20.7928C83.773 21.2274 83.8649 21.5659 84.0488 21.8083C84.2326 22.0507 84.4945 22.1718 84.8344 22.1718C85.1715 22.1718 85.432 22.0507 85.6158 21.8083C85.8025 21.5631 85.8958 21.1954 85.8958 20.7051C85.8958 20.3151 85.8025 20.0072 85.6158 19.7816C85.432 19.5531 85.1687 19.4389 84.826 19.4389ZM91.8339 22.9784C91.1904 22.9784 90.668 22.7764 90.2669 22.3724C89.8685 21.9657 89.6693 21.4252 89.6693 20.751V20.6257C89.6693 20.1744 89.7556 19.7718 89.9284 19.418C90.1039 19.0614 90.349 18.7842 90.6638 18.5864C90.9786 18.3886 91.3297 18.2897 91.7169 18.2897C92.3326 18.2897 92.8076 18.4861 93.1419 18.8789C93.479 19.2717 93.6475 19.8275 93.6475 20.5463V20.9558H90.6931C90.7237 21.3291 90.8477 21.6244 91.065 21.8417C91.2851 22.059 91.5609 22.1677 91.8924 22.1677C92.3577 22.1677 92.7365 21.9796 93.029 21.6035L93.5765 22.1259C93.3954 22.3961 93.153 22.6064 92.8494 22.7569C92.5485 22.9045 92.21 22.9784 91.8339 22.9784ZM91.7127 19.1046C91.4341 19.1046 91.2085 19.2021 91.0358 19.3971C90.8658 19.5921 90.7572 19.8637 90.7098 20.212H92.6446V20.1368C92.6223 19.7969 92.5318 19.5406 92.373 19.3679C92.2142 19.1923 91.9941 19.1046 91.7127 19.1046ZM98.4364 22.1677C98.6899 22.1677 98.9003 22.0938 99.0674 21.9462C99.2346 21.7985 99.3237 21.6161 99.3349 21.3988H100.292C100.281 21.6801 100.193 21.9434 100.029 22.1886C99.8642 22.4309 99.6413 22.6232 99.36 22.7652C99.0786 22.9073 98.7749 22.9784 98.449 22.9784C97.8166 22.9784 97.3151 22.7736 96.9446 22.3641C96.5741 21.9545 96.3888 21.389 96.3888 20.6675V20.563C96.3888 19.8749 96.5727 19.3247 96.9404 18.9124C97.3082 18.4973 97.8096 18.2897 98.4448 18.2897C98.9825 18.2897 99.4198 18.4471 99.7569 18.7619C100.097 19.0739 100.275 19.4849 100.292 19.9947H99.3349C99.3237 19.7356 99.2346 19.5225 99.0674 19.3553C98.9031 19.1882 98.6927 19.1046 98.4364 19.1046C98.1077 19.1046 97.8542 19.2244 97.6759 19.464C97.4976 19.7008 97.4071 20.0615 97.4043 20.5463V20.7093C97.4043 21.1996 97.492 21.5659 97.6675 21.8083C97.8458 22.0479 98.1021 22.1677 98.4364 22.1677ZM107.032 22.8948H106.017V19.1923H104.253V22.8948H103.238V18.3733H107.032V22.8948ZM114.094 18.3733V22.8948H113.079V19.1923H111.8L111.717 20.7678C111.664 21.5255 111.518 22.0702 111.278 22.4017C111.041 22.7304 110.678 22.8948 110.187 22.8948H109.874L109.87 22.0507L110.079 22.0298C110.301 21.9991 110.463 21.864 110.563 21.6244C110.666 21.382 110.732 20.9419 110.76 20.3039L110.843 18.3733H114.094ZM120.016 22.8948C119.971 22.8084 119.932 22.6677 119.899 22.4727C119.576 22.8098 119.18 22.9784 118.712 22.9784C118.258 22.9784 117.887 22.8488 117.6 22.5897C117.314 22.3306 117.17 22.0103 117.17 21.6286C117.17 21.1466 117.348 20.7775 117.705 20.5212C118.064 20.2621 118.577 20.1326 119.243 20.1326H119.865V19.8359C119.865 19.6019 119.8 19.4152 119.669 19.2759C119.538 19.1338 119.339 19.0628 119.071 19.0628C118.84 19.0628 118.651 19.1213 118.503 19.2383C118.355 19.3525 118.282 19.4988 118.282 19.6771H117.266C117.266 19.4291 117.348 19.1979 117.513 18.9834C117.677 18.7661 117.9 18.5962 118.181 18.4736C118.465 18.351 118.782 18.2897 119.13 18.2897C119.659 18.2897 120.081 18.4234 120.396 18.6909C120.711 18.9555 120.872 19.3289 120.881 19.8108V21.8501C120.881 22.2568 120.938 22.5814 121.052 22.8237V22.8948H120.016ZM118.9 22.1635C119.101 22.1635 119.289 22.1147 119.464 22.0172C119.643 21.9197 119.776 21.7888 119.865 21.6244V20.7719H119.318C118.942 20.7719 118.659 20.8374 118.47 20.9683C118.28 21.0993 118.186 21.2845 118.186 21.5241C118.186 21.7191 118.25 21.8751 118.378 21.9922C118.509 22.1064 118.683 22.1635 118.9 22.1635ZM127.575 19.1798H126.109V22.8948H125.093V19.1798H123.643V18.3733H127.575V19.1798ZM134.224 22.8948H133.208V21.0686H131.449V22.8948H130.434V18.3733H131.449V20.2579H133.208V18.3733H134.224V22.8948ZM137.258 20.5922C137.258 20.1493 137.345 19.7509 137.521 19.3971C137.696 19.0405 137.943 18.7675 138.261 18.5781C138.578 18.3858 138.943 18.2897 139.355 18.2897C139.965 18.2897 140.46 18.4861 140.839 18.8789C141.221 19.2717 141.427 19.7927 141.457 20.4418L141.462 20.68C141.462 21.1257 141.375 21.5241 141.202 21.8751C141.032 22.2262 140.787 22.4978 140.467 22.69C140.149 22.8822 139.782 22.9784 139.364 22.9784C138.726 22.9784 138.215 22.7666 137.83 22.3432C137.448 21.9169 137.258 21.35 137.258 20.6424V20.5922ZM138.273 20.68C138.273 21.1452 138.369 21.5102 138.561 21.7749C138.754 22.0367 139.021 22.1677 139.364 22.1677C139.706 22.1677 139.972 22.0339 140.162 21.7665C140.354 21.4991 140.45 21.1076 140.45 20.5922C140.45 20.1354 140.351 19.7732 140.154 19.5058C139.959 19.2383 139.692 19.1046 139.355 19.1046C139.024 19.1046 138.761 19.2369 138.566 19.5016C138.371 19.7635 138.273 20.1563 138.273 20.68Z" fill="#A70230"/>
<path d="M26.223 21.3102H13.3172V20.1257H25.6282V5.99765H5.11511V4.81314H26.223C26.5517 4.81314 26.8178 5.07897 26.8178 5.40735V20.7199C26.8178 21.0444 26.5517 21.3102 26.223 21.3102Z" fill="#A70230"/>
<path d="M8.79326 20.1218H5.33008V21.3075H8.79326V20.1218Z" fill="#A70230"/>
<path d="M28.1323 20.1218H26.2227V21.3075H28.1323V20.1218Z" fill="#A70230"/>
<path d="M34.8985 21.3102H32.6562V20.1257H34.8985C35.1137 20.1257 35.2976 19.9419 35.2976 19.7269V15.3759C35.2976 15.157 35.1176 14.9772 34.8985 14.9772H34.5659C33.7793 14.9772 32.9458 14.4025 32.664 13.6715L31.7718 11.3377C31.6662 11.0562 31.2787 10.7943 30.9813 10.7943H26.219V9.6098H30.9813C31.7679 9.6098 32.6015 10.1845 32.8832 10.9155L33.7754 13.2493C33.881 13.5308 34.2685 13.7927 34.5659 13.7927H34.8985C35.7711 13.7927 36.4833 14.5042 36.4833 15.3759V19.723C36.4873 20.5987 35.775 21.3102 34.8985 21.3102Z" fill="#A70230"/>
<path d="M31.2905 15.0312H28.1287V13.847H30.2183L29.4865 12.6745L30.4922 12.0453L31.7914 14.1245C31.9049 14.3081 31.9128 14.5387 31.8071 14.7263C31.7053 14.9139 31.5097 15.0312 31.2905 15.0312Z" fill="#A70230"/>
<path d="M11.0549 23.5697C9.47788 23.5697 8.19824 22.2914 8.19824 20.716C8.19824 19.1445 9.47788 17.8622 11.0549 17.8622C12.628 17.8622 13.9115 19.1406 13.9115 20.716C13.9115 22.2914 12.628 23.5697 11.0549 23.5697ZM11.0549 19.0507C10.1353 19.0507 9.38396 19.7973 9.38396 20.716C9.38396 21.6347 10.1314 22.3813 11.0549 22.3813C11.9745 22.3813 12.7219 21.6347 12.7219 20.716C12.7219 19.7973 11.9745 19.0507 11.0549 19.0507Z" fill="#A70230"/>
<path d="M30.3945 23.5697C28.8213 23.5697 27.5378 22.2914 27.5378 20.716C27.5378 19.1445 28.8174 17.8622 30.3945 17.8622C31.9676 17.8622 33.2511 19.1406 33.2511 20.716C33.2511 22.2914 31.9715 23.5697 30.3945 23.5697ZM30.3945 19.0507C29.4749 19.0507 28.7236 19.7973 28.7236 20.716C28.7236 21.6347 29.4709 22.3813 30.3945 22.3813C31.3141 22.3813 32.0615 21.6347 32.0615 20.716C32.0654 19.7973 31.3141 19.0507 30.3945 19.0507Z" fill="#A70230"/>
<path d="M10.3826 8.26889H0.349121V9.45459H10.3826V8.26889Z" fill="#A70230"/>
<path d="M9.28682 12.4675H3.13525V13.6532H9.28682V12.4675Z" fill="#A70230"/>
<path d="M5.91756 16.2242H1.47607V17.4099H5.91756V16.2242Z" fill="#A70230"/>
<path d="M15.9082 19.4025C21.0973 19.4025 25.3038 15.1739 25.3038 9.95775C25.3038 4.74156 21.0973 0.513 15.9082 0.513C10.7191 0.513 6.51257 4.74156 6.51257 9.95775C6.51257 15.1739 10.7191 19.4025 15.9082 19.4025Z" fill="white"/>
<path d="M16.7417 9.65969H24.5877C24.4781 7.36496 23.4724 5.30869 21.9071 3.82709L16.7417 9.65969Z" fill="#A70230"/>
<path d="M15.6926 9.17289V1.4834C13.7594 1.55376 11.9868 2.25352 10.578 3.39502L15.6926 9.17289Z" fill="#A70230"/>
<path d="M15.6929 18.6557V10.8451L10.5157 16.6933C11.9323 17.8661 13.7285 18.5854 15.6929 18.6557Z" fill="#A70230"/>
<path d="M16.3075 1.4834V9.16898L21.4221 3.39502C20.0133 2.25352 18.2406 1.55376 16.3075 1.4834Z" fill="#A70230"/>
<path d="M16.7417 10.3525L21.9658 16.2555C23.5272 14.7504 24.5172 12.6668 24.5955 10.3525H16.7417Z" fill="#A70230"/>
<path d="M15.2586 10.3525H7.40479C7.48305 12.6668 8.47313 14.7504 10.0345 16.2555L15.2586 10.3525Z" fill="#A70230"/>
<path d="M16.3075 10.8451V18.6557C18.268 18.5854 20.0681 17.8661 21.4847 16.6933L16.3075 10.8451Z" fill="#A70230"/>
<path d="M15.2591 9.65969L10.0936 3.82709C8.52444 5.30869 7.51875 7.36496 7.40918 9.65969H15.2591Z" fill="#A70230"/>
<path fill-rule="evenodd" clip-rule="evenodd" d="M9.38827 6.50189C9.38436 6.5058 9.38043 6.50971 9.3726 6.51362C9.06737 6.79118 8.86387 7.19383 8.67604 7.57303C8.58212 7.75676 8.50779 7.95614 8.49605 8.15942C8.49213 8.26106 8.48824 8.3627 8.51563 8.46043C8.57042 8.67935 8.89131 8.94518 9.11045 8.87872C9.42351 8.78881 9.55653 8.41352 9.67393 8.13596C9.88133 7.65121 10.0809 7.1821 10.5387 6.90064C10.6053 6.86155 10.8244 6.72472 10.9301 6.93191C10.9457 6.9671 10.9575 7.03746 10.9614 7.08828C10.9731 7.27983 10.9183 7.42448 10.8361 7.58867C10.7148 7.83495 10.394 8.59725 10.3822 8.74581C10.3705 8.89436 10.3705 8.99991 10.5114 9.07418C10.6875 9.168 10.9027 9.05073 11.0514 8.953C11.3762 8.73799 11.6031 8.39397 11.9788 8.25324C12.0806 8.21415 12.3388 8.13205 12.4328 8.21415C12.5345 8.30406 12.4093 8.47998 12.378 8.5738C12.3075 8.76926 12.2449 9.01945 12.5149 9.05854C12.7145 9.08591 12.9141 8.93736 13.0902 8.85917C13.2036 8.80835 13.368 8.7028 13.4854 8.78099C13.5989 8.85917 13.4854 8.85917 13.505 8.953C13.5285 9.05464 13.6146 8.9999 13.6576 8.96081C13.7672 8.85526 13.685 8.73799 13.5793 8.6598C13.4423 8.55816 13.3445 8.6168 13.2154 8.69108C13.0628 8.77708 12.6167 8.93345 12.6675 8.57771C12.6949 8.38615 12.8319 8.21806 12.8123 8.01477C12.7928 7.78804 12.5619 7.57694 12.3506 7.61603C12.1392 7.65512 11.9514 7.8154 11.8105 7.96396C11.7323 8.04605 11.6618 8.14378 11.5875 8.22196C11.4936 8.3197 11.3997 8.40179 11.3097 8.50734C11.2353 8.59334 11.1101 8.71453 10.9927 8.64416C10.8675 8.56989 10.891 8.37834 10.9184 8.25715C10.9849 7.95223 11.1375 7.67076 11.247 7.38929C11.3684 7.07655 11.517 6.79118 11.3762 6.45107C11.3018 6.27516 11.1335 6.06015 10.9301 6.08751C10.7383 6.11097 10.5309 6.31034 10.3979 6.44326C10.257 6.58008 10.1592 6.756 10.034 6.90455C9.87743 7.08828 9.81088 7.33456 9.70913 7.54957C9.64261 7.69031 9.56436 7.82713 9.48219 7.96396C9.41957 8.0695 9.30606 8.2806 9.16128 8.18287C9.06736 8.12032 9.07914 7.90531 9.10262 7.80367C9.16523 7.50657 9.28653 7.17819 9.44306 6.92018C9.52133 6.78727 9.59568 6.66217 9.69351 6.56053C9.79917 6.45498 9.9048 6.36507 10.0105 6.25561C10.2139 6.04451 10.2805 5.72004 10.1552 5.44249C10.0926 5.30957 9.99091 5.14148 9.83438 5.13757C9.6896 5.13366 9.56436 5.26657 9.52914 5.39948C9.49784 5.51676 9.50958 5.7435 9.63481 5.79823C9.70133 5.82559 9.77566 5.80214 9.80697 5.73568C9.85392 5.62622 9.75609 5.66922 9.75217 5.58322C9.74826 5.46985 9.88525 5.51285 9.92438 5.57149C9.95569 5.6184 9.95175 5.70441 9.95175 5.75914C9.9361 6.0406 9.56828 6.3377 9.38827 6.50189Z" fill="white"/>
<path fill-rule="evenodd" clip-rule="evenodd" d="M19.1954 3.04277C19.1914 3.03886 19.1876 3.03495 19.1837 3.02713C18.9136 2.71439 18.5262 2.5072 18.1623 2.31565C17.9862 2.22182 17.7944 2.14755 17.5988 2.13973C17.501 2.13582 17.407 2.13582 17.3131 2.16318C17.1057 2.22573 16.8631 2.56975 16.9257 2.79648C17.0196 3.12095 17.3796 3.25387 17.6418 3.37114C18.1075 3.57833 18.5575 3.78161 18.8315 4.25463C18.8706 4.32109 19.0075 4.54783 18.808 4.6651C18.7766 4.68465 18.7062 4.69638 18.6632 4.70029C18.4792 4.71593 18.3423 4.6612 18.1858 4.5791C17.951 4.45791 17.2192 4.13345 17.0783 4.12563C16.9375 4.11781 16.8357 4.11781 16.7692 4.27027C16.687 4.45791 16.8005 4.68074 16.8944 4.83711C17.1057 5.17331 17.4383 5.40786 17.5753 5.79879C17.6144 5.90434 17.7005 6.17408 17.6223 6.27572C17.5401 6.38518 17.3679 6.26008 17.2818 6.2249C17.094 6.15453 16.8553 6.09198 16.824 6.37736C16.8005 6.58846 16.9453 6.79565 17.0236 6.97938C17.0744 7.09666 17.1762 7.26867 17.1057 7.39376C17.0353 7.51495 17.0313 7.39376 16.9413 7.41722C16.8474 7.44067 16.8983 7.53058 16.9375 7.5775C17.0392 7.69086 17.1488 7.60095 17.2192 7.48758C17.3131 7.33903 17.2544 7.2413 17.1801 7.10839C17.094 6.94811 16.9375 6.48291 17.2779 6.52591C17.4579 6.54936 17.6223 6.6901 17.8179 6.66664C18.0332 6.63928 18.2288 6.3969 18.1858 6.17017C18.1427 5.94734 17.9901 5.75579 17.8453 5.60724C17.7671 5.52514 17.6731 5.45477 17.5949 5.37659C17.5009 5.27886 17.4188 5.18113 17.317 5.09121C17.2349 5.01694 17.1175 4.88402 17.1801 4.75893C17.2505 4.62601 17.4305 4.64947 17.5479 4.67292C17.8375 4.73547 18.1075 4.89184 18.3775 5.0013C18.6749 5.12249 18.9528 5.27495 19.2697 5.11858C19.4341 5.03648 19.6376 4.85275 19.6063 4.64165C19.5789 4.44228 19.3871 4.22727 19.258 4.08653C19.1249 3.94189 18.9567 3.84416 18.8119 3.71516C18.6358 3.55488 18.3971 3.48842 18.1897 3.38678C18.0527 3.32032 17.9236 3.24214 17.7905 3.15613C17.6888 3.09359 17.4853 2.97631 17.5753 2.81994C17.634 2.72221 17.8375 2.73002 17.9353 2.74957C18.2171 2.80821 18.5301 2.9294 18.7806 3.08968C18.9097 3.17177 19.031 3.24605 19.1249 3.34769C19.2267 3.45715 19.3167 3.56661 19.4224 3.67606C19.6258 3.88716 19.935 3.94971 20.1972 3.81289C20.3224 3.74643 20.4789 3.63306 20.4789 3.46887C20.4789 3.31641 20.3498 3.18741 20.2245 3.15223C20.1111 3.12095 19.8958 3.1405 19.8489 3.27341C19.8215 3.34378 19.845 3.42196 19.9115 3.45324C20.0172 3.50015 19.9702 3.39851 20.0563 3.3946C20.1659 3.39069 20.1267 3.53533 20.0719 3.57442C20.0289 3.6057 19.9467 3.6057 19.8958 3.6057C19.6454 3.60961 19.3558 3.23041 19.1954 3.04277Z" fill="white"/>
<path fill-rule="evenodd" clip-rule="evenodd" d="M22.5888 13.4174C22.5928 13.4135 22.5967 13.4096 22.6006 13.4057C22.8902 13.1164 23.078 12.6981 23.2501 12.3111C23.3323 12.1234 23.4028 11.9201 23.4028 11.7169C23.4028 11.6152 23.3989 11.5136 23.3715 11.4158C23.305 11.2008 22.9723 10.9506 22.761 11.0249C22.4558 11.1305 22.3384 11.5136 22.2327 11.795C22.0488 12.2915 21.8688 12.7684 21.4227 13.0695C21.3601 13.1125 21.1488 13.261 21.0314 13.0577C21.0118 13.0265 21.0001 12.9522 20.9923 12.9053C20.9727 12.7137 21.0197 12.5652 21.094 12.3971C21.2036 12.1469 21.4892 11.3689 21.4931 11.2165C21.497 11.0679 21.4931 10.9624 21.3483 10.892C21.1683 10.8099 20.957 10.935 20.8122 11.0406C20.4992 11.2712 20.284 11.6269 19.9161 11.7833C19.8144 11.8263 19.5639 11.9241 19.4661 11.8459C19.3604 11.7638 19.4778 11.58 19.5052 11.4862C19.5678 11.2868 19.6187 11.0367 19.3487 11.0093C19.1452 10.9897 18.9535 11.15 18.7852 11.236C18.6756 11.2908 18.5152 11.4041 18.3939 11.3338C18.2765 11.2634 18.3939 11.2556 18.3665 11.1617C18.3391 11.064 18.2569 11.1187 18.2138 11.1617C18.1082 11.2712 18.1982 11.3846 18.3039 11.4588C18.4448 11.5566 18.5387 11.4901 18.6639 11.408C18.8126 11.3142 19.2509 11.1383 19.2196 11.494C19.2 11.6856 19.0708 11.8615 19.0982 12.0648C19.1295 12.2915 19.3644 12.4909 19.5796 12.4401C19.787 12.3893 19.967 12.2212 20.104 12.0648C20.1783 11.9788 20.2448 11.8771 20.3152 11.795C20.4052 11.6934 20.4953 11.6035 20.5814 11.494C20.6518 11.4041 20.7731 11.279 20.8905 11.3416C21.0197 11.4119 21.004 11.6035 20.9805 11.7247C20.9296 12.0335 20.7888 12.3228 20.6909 12.6082C20.5814 12.9248 20.4483 13.2219 20.6049 13.5503C20.687 13.7223 20.867 13.9295 21.0666 13.8943C21.2544 13.8591 21.454 13.6519 21.5832 13.5112C21.7162 13.3666 21.8062 13.1867 21.9236 13.0343C22.0723 12.8427 22.1271 12.5925 22.2171 12.3736C22.2758 12.229 22.3501 12.0882 22.4245 11.9475C22.4832 11.842 22.5888 11.6191 22.7375 11.713C22.8315 11.7716 22.8314 11.9866 22.8119 12.0882C22.761 12.3853 22.6554 12.7215 22.5106 12.9874C22.4362 13.1242 22.3697 13.2532 22.2758 13.3587C22.1779 13.4682 22.0723 13.5659 21.9745 13.6793C21.7788 13.9021 21.7279 14.2266 21.8649 14.5002C21.9314 14.6332 22.0449 14.7934 22.2014 14.7895C22.3462 14.7856 22.4675 14.6488 22.4949 14.512C22.5223 14.3908 22.4988 14.168 22.3697 14.1171C22.3032 14.0937 22.2288 14.1171 22.2014 14.1875C22.1584 14.3009 22.2562 14.2501 22.2641 14.34C22.2719 14.4533 22.1349 14.4182 22.0958 14.3634C22.0645 14.3204 22.0606 14.2344 22.0606 14.1758C22.0645 13.906 22.4167 13.5933 22.5888 13.4174Z" fill="white"/>
<path fill-rule="evenodd" clip-rule="evenodd" d="M13.1217 16.9904C13.1257 16.9943 13.1295 16.9982 13.1335 17.0021C13.4309 17.2875 13.8378 17.4478 14.2174 17.6002C14.4013 17.6745 14.6009 17.7292 14.7927 17.7136C14.8905 17.7058 14.9844 17.694 15.0744 17.6589C15.274 17.5729 15.4853 17.2054 15.3992 16.9865C15.274 16.6737 14.9062 16.5799 14.6322 16.49C14.147 16.3336 13.6813 16.1812 13.3644 15.7394C13.3174 15.6769 13.1609 15.4658 13.3448 15.3289C13.3722 15.3055 13.4426 15.2859 13.4857 15.2781C13.6657 15.2429 13.8065 15.282 13.9748 15.3446C14.2213 15.4384 14.9805 15.6808 15.1214 15.6769C15.2623 15.669 15.364 15.6573 15.4149 15.501C15.4814 15.3055 15.3444 15.0944 15.2348 14.9497C14.9922 14.637 14.64 14.4415 14.464 14.0663C14.417 13.9646 14.3035 13.7066 14.37 13.5971C14.4405 13.4799 14.6244 13.5854 14.7144 13.6128C14.9062 13.6636 15.1488 13.6988 15.1527 13.4134C15.1566 13.1984 14.9922 13.0108 14.8944 12.8388C14.8318 12.7293 14.7144 12.5651 14.7731 12.4361C14.8318 12.3071 14.8435 12.4283 14.9335 12.3931C15.0235 12.3579 14.9649 12.2719 14.9218 12.2328C14.8083 12.1312 14.7105 12.2328 14.6479 12.3501C14.5657 12.5065 14.6361 12.6003 14.7222 12.7254C14.824 12.8739 15.0236 13.3235 14.6831 13.3157C14.4992 13.3118 14.3231 13.1906 14.1313 13.2336C13.92 13.2844 13.7478 13.5463 13.8143 13.7652C13.877 13.9803 14.0491 14.1562 14.2096 14.2891C14.2957 14.3595 14.3974 14.422 14.4796 14.4924C14.5853 14.5784 14.6753 14.6683 14.7849 14.7465C14.8749 14.8129 15.004 14.9302 14.9531 15.0592C14.8983 15.1999 14.7144 15.196 14.597 15.1843C14.2996 15.153 14.0179 15.0279 13.74 14.9458C13.4309 14.8559 13.1413 14.7347 12.84 14.9263C12.6834 15.024 12.5034 15.2273 12.5504 15.4384C12.5973 15.6339 12.8087 15.8254 12.9495 15.9505C13.0943 16.0795 13.2743 16.1616 13.4269 16.275C13.6187 16.4157 13.8613 16.4548 14.0766 16.533C14.2174 16.5838 14.3583 16.6503 14.4952 16.7167C14.6009 16.7675 14.8161 16.8614 14.7418 17.0256C14.6909 17.1311 14.4875 17.1428 14.3896 17.135C14.104 17.1077 13.7792 17.0216 13.5131 16.8887C13.38 16.8223 13.2509 16.7597 13.1452 16.6698C13.0317 16.5721 12.9339 16.4744 12.8165 16.3766C12.5935 16.189 12.2765 16.1577 12.0339 16.3258C11.9126 16.4079 11.7717 16.5369 11.7873 16.7011C11.803 16.8536 11.9439 16.9669 12.073 16.9904C12.1865 17.0099 12.4017 16.9669 12.4369 16.8301C12.4565 16.7597 12.4252 16.6815 12.3586 16.6581C12.2491 16.6229 12.3039 16.7206 12.2217 16.7324C12.116 16.748 12.1395 16.6034 12.1865 16.5564C12.2256 16.5213 12.3078 16.5095 12.3586 16.5056C12.6208 16.4704 12.9417 16.8184 13.1217 16.9904Z" fill="white"/>
<path d="M11.0832 12.4789C11.0872 12.3461 10.9072 12.2366 10.6763 12.2288C10.8328 12.0608 10.8915 11.8497 10.8054 11.7559C10.7193 11.6621 10.5158 11.7207 10.3515 11.8849C10.3476 11.6465 10.2458 11.4589 10.1206 11.4589C10.0071 11.4589 9.91322 11.6152 9.89366 11.8263C9.75278 11.6856 9.58451 11.6309 9.49842 11.709C9.4045 11.795 9.44754 12.01 9.59233 12.1936C9.36537 12.1819 9.18142 12.2757 9.17359 12.4086C9.16576 12.5415 9.34186 12.6587 9.56883 12.6783C9.40447 12.8424 9.33795 13.0456 9.42013 13.1433C9.5023 13.241 9.70581 13.1902 9.87799 13.0339C9.87408 13.2723 9.96801 13.4677 10.0893 13.4716C10.2145 13.4755 10.3241 13.2879 10.3358 13.0495C10.4923 13.2215 10.6919 13.284 10.7819 13.1941C10.8719 13.1043 10.8211 12.8893 10.6685 12.7134C10.8993 12.7095 11.0793 12.6079 11.0832 12.4789ZM10.1284 12.5806C10.1284 12.5806 10.0893 12.6118 10.0423 12.6665C10.0501 12.5962 10.0501 12.5454 10.0501 12.5454C10.0501 12.5454 10.0032 12.5376 9.93278 12.5376C9.98756 12.4946 10.0189 12.4594 10.0189 12.4594C10.0189 12.4594 9.99149 12.4164 9.94061 12.3656C10.0071 12.3773 10.0541 12.3734 10.0541 12.3734C10.0541 12.3734 10.0619 12.3343 10.0619 12.2757C10.0971 12.3187 10.1245 12.3422 10.1245 12.3422C10.1245 12.3422 10.1636 12.3109 10.2067 12.2523C10.2028 12.3226 10.2067 12.3734 10.2067 12.3734C10.2067 12.3734 10.2537 12.3773 10.3241 12.3734C10.2732 12.4203 10.2419 12.4555 10.2419 12.4555C10.2419 12.4555 10.2732 12.4946 10.3241 12.5454C10.2576 12.5376 10.2106 12.5415 10.2106 12.5415C10.2106 12.5415 10.2028 12.5923 10.2067 12.6665C10.1636 12.6118 10.1284 12.5806 10.1284 12.5806Z" fill="white"/>
<path d="M14.836 3.89352C14.8399 3.76064 14.6599 3.65121 14.4291 3.64339C14.5856 3.47534 14.6443 3.2643 14.5582 3.1705C14.4721 3.0767 14.2686 3.13532 14.1042 3.29947C14.1003 3.06107 13.9986 2.87347 13.8734 2.87347C13.7599 2.87347 13.666 3.0298 13.6464 3.24085C13.5055 3.10015 13.3373 3.04544 13.2512 3.1236C13.1573 3.20958 13.2003 3.42453 13.3451 3.60822C13.1181 3.59649 12.9342 3.69029 12.9264 3.82317C12.9186 3.95605 13.0946 4.0733 13.3216 4.09284C13.1572 4.25698 13.0907 4.46021 13.1729 4.55792C13.2551 4.65562 13.4586 4.60481 13.6307 4.44848C13.6268 4.68688 13.7208 4.8823 13.8421 4.8862C13.9673 4.89011 14.0769 4.70252 14.0886 4.46412C14.2451 4.63608 14.4447 4.69861 14.5347 4.60872C14.6247 4.51883 14.5738 4.30388 14.4212 4.12801C14.6521 4.12801 14.836 4.0264 14.836 3.89352ZM13.8812 3.99904C13.8812 3.99904 13.8421 4.0303 13.7951 4.08502C13.8029 4.01467 13.803 3.96387 13.803 3.96387C13.803 3.96387 13.756 3.95605 13.6855 3.95605C13.7403 3.91306 13.7716 3.87788 13.7716 3.87788C13.7716 3.87788 13.7442 3.83489 13.6934 3.78409C13.7599 3.79581 13.8069 3.7919 13.8069 3.7919C13.8069 3.7919 13.8147 3.75282 13.8147 3.6942C13.8499 3.73719 13.8773 3.76064 13.8773 3.76064C13.8773 3.76064 13.9164 3.72937 13.9594 3.67075C13.9555 3.7411 13.9594 3.7919 13.9594 3.7919C13.9594 3.7919 14.0064 3.79581 14.0769 3.7919C14.026 3.8388 13.9947 3.87398 13.9947 3.87398C13.9947 3.87398 14.026 3.91306 14.0769 3.96387C14.0103 3.95605 13.9634 3.95996 13.9634 3.95996C13.9634 3.95996 13.9555 4.01076 13.9594 4.08502C13.9164 4.0303 13.8812 3.99904 13.8812 3.99904Z" fill="white"/>
<path d="M22.8306 7.26397C22.8345 7.13109 22.6544 7.02166 22.4236 7.01385C22.5801 6.84579 22.6388 6.63475 22.5527 6.54095C22.4666 6.44716 22.2631 6.50578 22.0988 6.66992C22.0949 6.43152 21.9931 6.24393 21.8679 6.24393C21.7544 6.24393 21.6605 6.40026 21.6409 6.6113C21.5 6.4706 21.3318 6.41589 21.2457 6.49405C21.1518 6.58003 21.1949 6.79498 21.3396 6.97867C21.1127 6.96695 20.9287 7.06074 20.9209 7.19362C20.9131 7.3265 21.0892 7.44375 21.3161 7.46329C21.1518 7.62744 21.0853 7.83066 21.1674 7.92837C21.2496 8.02607 21.4531 7.97527 21.6253 7.81894C21.6214 8.05734 21.7153 8.25275 21.8366 8.25666C21.9618 8.26057 22.0714 8.07297 22.0831 7.83457C22.2396 8.00653 22.4392 8.06907 22.5292 7.97918C22.6192 7.88929 22.5684 7.67433 22.4158 7.49846C22.6467 7.49456 22.8266 7.39294 22.8306 7.26397ZM21.8758 7.36559C21.8758 7.36559 21.8366 7.39685 21.7896 7.45156C21.7975 7.38122 21.7975 7.33041 21.7975 7.33041C21.7975 7.33041 21.7505 7.3226 21.6801 7.3226C21.7349 7.27961 21.7662 7.24443 21.7662 7.24443C21.7662 7.24443 21.7388 7.20144 21.6879 7.15063C21.7544 7.16236 21.8014 7.15845 21.8014 7.15845C21.8014 7.15845 21.8092 7.11937 21.8092 7.06074C21.8444 7.10373 21.8718 7.12718 21.8718 7.12718C21.8718 7.12718 21.911 7.09592 21.954 7.03729C21.9501 7.10764 21.954 7.15845 21.954 7.15845C21.954 7.15845 22.001 7.16236 22.0714 7.15845C22.0205 7.20535 21.9892 7.24052 21.9892 7.24052C21.9892 7.24052 22.0205 7.2796 22.0714 7.33041C22.0049 7.32259 21.9579 7.3265 21.9579 7.3265C21.9579 7.3265 21.9501 7.37731 21.954 7.45156C21.911 7.39685 21.8758 7.36559 21.8758 7.36559Z" fill="white"/>
<path d="M19.1289 15.9776C19.1328 15.8447 18.9528 15.7353 18.7219 15.7275C18.8784 15.5594 18.9371 15.3484 18.851 15.2546C18.7649 15.1608 18.5615 15.2194 18.3971 15.3835C18.3932 15.1451 18.2914 14.9576 18.1662 14.9576C18.0527 14.9576 17.9588 15.1139 17.9393 15.3249C17.7984 15.1842 17.6301 15.1295 17.544 15.2077C17.4501 15.2937 17.4931 15.5086 17.6379 15.6923C17.411 15.6806 17.2271 15.7744 17.2192 15.9072C17.2114 16.0401 17.3875 16.1574 17.6145 16.1769C17.4501 16.3411 17.3836 16.5443 17.4658 16.642C17.548 16.7397 17.7514 16.6889 17.9236 16.5326C17.9197 16.771 18.0097 16.9664 18.1349 16.9703C18.2601 16.9742 18.3697 16.7866 18.3815 16.5482C18.538 16.7202 18.7376 16.7827 18.8276 16.6928C18.9176 16.6029 18.8667 16.388 18.7141 16.2121C18.941 16.2082 19.125 16.1066 19.1289 15.9776ZM18.174 16.0792C18.174 16.0792 18.1349 16.1105 18.088 16.1652C18.0958 16.0948 18.0958 16.044 18.0958 16.044C18.0958 16.044 18.0488 16.0362 17.9784 16.0362C18.0332 15.9932 18.0645 15.9581 18.0645 15.9581C18.0645 15.9581 18.0371 15.9151 17.9862 15.8643C18.0527 15.876 18.0997 15.8721 18.0997 15.8721C18.0997 15.8721 18.1076 15.833 18.1076 15.7744C18.1428 15.8174 18.1701 15.8408 18.1701 15.8408C18.1701 15.8408 18.2093 15.8095 18.2523 15.7509C18.2484 15.8213 18.2523 15.8721 18.2523 15.8721C18.2523 15.8721 18.2993 15.876 18.3697 15.8721C18.3188 15.919 18.2875 15.9541 18.2875 15.9541C18.2875 15.9541 18.3188 15.9932 18.3697 16.044C18.3032 16.0362 18.2563 16.0401 18.2563 16.0401C18.2563 16.0401 18.2484 16.0909 18.2523 16.1652C18.2093 16.1105 18.174 16.0792 18.174 16.0792Z" fill="white"/>
</svg>
