<svg width="225" height="37" viewBox="0 0 225 37" fill="none" xmlns="http://www.w3.org/2000/svg">
<path d="M76.1904 8.62964V21.9496H71.8329V11.7366H67.7042V21.9496H63.3467V8.62964H76.2176H76.1904Z" fill="#154679"/>
<path d="M87.1003 8.62964L91.8771 21.9496H87.5197L86.975 20.1921H82.6175L82.1164 21.9496H77.8896L82.6665 8.62964H87.1112H87.1003ZM86.2506 17.4117L84.8453 12.6398L83.489 17.4117H86.2506Z" fill="#154679"/>
<path d="M106.562 8.62964V21.9496H102.204V11.7366H99.0726V15.5454C99.0726 20.9104 97.3895 22.2435 94.8894 22.2435C94.0909 22.2538 93.2945 22.1606 92.52 21.966V18.8427C92.8411 18.9484 93.1793 18.9927 93.5168 18.9733C94.3883 18.9733 94.8894 18.6196 94.8894 15.4964V8.62964H106.573H106.562Z" fill="#154679"/>
<path d="M113.714 13.2764H115.789C119.161 13.2764 121.291 14.7945 121.291 17.7001C121.291 20.6057 119.199 21.9551 115.735 21.9551H109.34V8.62964H113.698V13.2764H113.714ZM113.714 18.8427H115.348C116.438 18.8427 117.238 18.6196 117.238 17.6239C117.238 16.4595 116.22 16.3833 114.831 16.3833H113.741V18.8427H113.714ZM127.549 21.9496H123.192V8.62964H127.549V21.9496Z" fill="#154679"/>
<path d="M134.51 8.62964V12.0685C134.51 13.1241 135.12 13.6029 136.177 13.6029C136.846 13.6177 137.514 13.5371 138.16 13.3635V8.62964H142.517V21.9496H138.16V16.5683C137.381 16.7533 136.825 16.8621 134.51 16.8621C132.549 16.8621 130.153 15.6433 130.153 12.7541V8.62964H134.51Z" fill="#154679"/>
<path d="M144.685 16.688H153.28V18.5924H144.685V16.688Z" fill="#154679"/>
<path d="M156.956 8.62964H163.323C166.325 8.62964 168.71 9.33155 168.71 11.976C168.689 12.568 168.518 13.145 168.214 13.6531C167.909 14.1613 167.48 14.5839 166.967 14.8816C167.639 15.0549 168.229 15.4568 168.635 16.018C169.042 16.5791 169.24 17.2645 169.195 17.9558C169.195 20.9321 166.918 21.9714 163.454 21.9714H156.956V8.62964ZM161.314 13.9566H163.127C163.999 13.9566 164.625 13.5702 164.625 12.7921C164.625 11.7583 163.776 11.7366 162.85 11.7366H161.314V13.9566ZM161.314 18.8536H163.22C164.309 18.8536 165.11 18.6305 165.11 17.6348C165.11 16.4704 164.091 16.3942 162.702 16.3942H161.314V18.8536Z" fill="#154679"/>
<path d="M181.271 8.62964V11.7366H174.773V13.641H180.291V16.7479H174.789V18.8373H181.549V21.9442H170.405V8.62964H181.298H181.271Z" fill="#154679"/>
<path d="M187.437 13.9566H187.807C189.18 13.9566 189.953 13.6791 189.953 12.6072C189.953 11.8291 189.174 11.3884 188.085 11.3884C187.142 11.3884 186.342 11.7965 186.178 12.6997H182.551C182.79 9.59282 185.476 8.28149 188.33 8.28149C191.68 8.28149 194.033 9.91385 194.033 12.0903C194.028 12.7203 193.842 13.3356 193.497 13.8632C193.152 14.3907 192.663 14.8084 192.088 15.0666C193.439 15.6108 194.387 16.3616 194.387 18.2116C194.387 20.7255 192.273 22.2816 188.275 22.2816C184.424 22.2816 182.284 20.7636 181.995 17.2703H185.683C185.851 18.5272 186.57 19.1747 188.09 19.1747C189.61 19.1747 190.312 18.5653 190.312 17.7709C190.312 16.5684 189.185 16.3671 187.812 16.3671H187.442V13.9566H187.437Z" fill="#154679"/>
<path d="M206.348 8.62964V11.7366H199.844V13.641H205.346V16.7479H199.844V18.8373H206.604V21.9442H195.476V8.62964H206.37H206.348Z" fill="#154679"/>
<path d="M215.385 21.9496H211.027V11.7366H207.089V8.62964H219.312V11.7366H215.385V21.9496Z" fill="#154679"/>
<path d="M62.8291 33.0442V25.1437H66.3042C66.6071 25.1269 66.9103 25.1702 67.1964 25.271C67.4824 25.3719 67.7457 25.5283 67.9709 25.7313C68.2566 26.0257 68.4453 26.4004 68.5115 26.805C68.5777 27.2097 68.5183 27.6249 68.3413 27.9948C68.149 28.3464 67.8468 28.6255 67.4807 28.7892C67.8169 28.9122 68.1272 29.0968 68.3958 29.3334C68.5792 29.5145 68.7224 29.7321 68.8162 29.972C68.9101 30.212 68.9524 30.469 68.9405 30.7263C68.947 31.0312 68.8892 31.3341 68.771 31.6153C68.6527 31.8965 68.4767 32.1498 68.2542 32.3587C67.7031 32.8441 66.9834 33.0942 66.2497 33.0551H62.8509L62.8291 33.0442ZM63.9185 26.0578V28.4845H65.8467C66.2677 28.5146 66.6883 28.42 67.0559 28.2125C67.2067 28.0955 67.3257 27.9425 67.4019 27.7675C67.478 27.5926 67.5089 27.4013 67.4916 27.2113C67.5018 27.0474 67.4719 26.8835 67.4045 26.7337C67.3372 26.584 67.2343 26.4528 67.1049 26.3516C66.7304 26.125 66.2939 26.0222 65.8576 26.0578H63.9185ZM63.9185 29.3551V32.1029H66.1953C66.6447 32.1338 67.0895 31.9961 67.4426 31.7166C67.5912 31.5789 67.7069 31.4096 67.7814 31.2213C67.8559 31.0329 67.8871 30.8303 67.8729 30.6284C67.8901 30.4084 67.8425 30.1882 67.7361 29.9948C67.6296 29.8015 67.4689 29.6434 67.2737 29.5401C66.8831 29.3549 66.4528 29.2689 66.021 29.2898H63.9185V29.3551Z" fill="#154679"/>
<path d="M79.6276 32.1028V33.0496H73.7886V25.1436H79.5513V26.0903H74.8562V28.5171H79.181V29.4639H74.8562V32.1028H79.6276Z" fill="#154679"/>
<path d="M85.1504 30.4707C85.1245 30.7456 85.169 31.0226 85.2795 31.2757C85.39 31.5289 85.5629 31.7499 85.7822 31.918C86.2674 32.1974 86.8249 32.3262 87.3836 32.288C87.8499 32.3019 88.3129 32.2049 88.7344 32.0051C88.9552 31.9107 89.1427 31.7525 89.2728 31.5508C89.4028 31.3491 89.4695 31.1132 89.4643 30.8733C89.4804 30.6382 89.4345 30.403 89.3313 30.191C89.2281 29.9791 89.0711 29.7979 88.876 29.6654C88.4512 29.4169 87.9622 29.2995 87.4707 29.328H86.6428V28.4574H87.242C87.6886 28.4713 88.1313 28.3701 88.5274 28.1636C88.7081 28.0838 88.8619 27.9535 88.9701 27.7884C89.0784 27.6234 89.1365 27.4305 89.1375 27.2332C89.152 27.0047 89.0987 26.7771 88.9844 26.5787C88.8701 26.3803 88.6998 26.22 88.4948 26.1177C88.0904 25.9469 87.6534 25.8672 87.2147 25.8841C86.776 25.901 86.3465 26.0142 85.9565 26.2157C85.7426 26.3458 85.5679 26.5314 85.4509 26.7527C85.3339 26.9739 85.279 27.2227 85.292 27.4726H84.2898C84.2819 26.8848 84.4958 26.3157 84.8889 25.8783C85.2175 25.5458 85.6151 25.2892 86.0536 25.1265C86.4921 24.9639 86.9609 24.8992 87.4272 24.937C88.1503 24.9069 88.863 25.1174 89.4534 25.5355C89.7031 25.7159 89.9051 25.9543 90.0418 26.2302C90.1784 26.5061 90.2457 26.8112 90.2378 27.1189C90.2413 27.343 90.1987 27.5654 90.1125 27.7722C90.0263 27.9791 89.8983 28.1661 89.7366 28.3214C89.4977 28.5763 89.1857 28.7512 88.8434 28.822C89.3237 28.9086 89.7611 29.1539 90.0852 29.5185C90.4123 29.9031 90.5834 30.3962 90.5646 30.9005C90.5808 31.2702 90.4935 31.6371 90.3127 31.96C90.1318 32.2829 89.8644 32.5491 89.5406 32.7288C88.889 33.091 88.1505 33.2679 87.4054 33.2402C86.1127 33.2402 85.2049 32.9537 84.682 32.3805C84.2753 31.8327 84.0817 31.1559 84.1373 30.4761H85.1395L85.1504 30.4707Z" fill="#154679"/>
<path d="M99.1326 29.6054H96.2894V32.2498H99.4703V33.0442H95.3198V25.7095H99.296V26.5039H96.2785V28.8381H99.1326V29.6217V29.6054Z" fill="#154679"/>
<path d="M110.353 29.8232C110.298 28.8003 110.233 27.5597 110.233 26.6564C109.972 27.5053 109.688 28.4303 109.307 29.4423L108.011 33.0009H107.292L106.093 29.5076C105.745 28.4629 105.462 27.527 105.255 26.6564C105.255 27.5706 105.178 28.7894 105.113 29.9211L104.917 33.0661H104.013L104.525 25.7314H105.669L106.921 29.2791C107.226 30.1823 107.466 30.9876 107.662 31.7494C107.858 31.0094 108.12 30.2041 108.446 29.2791L109.754 25.7314H110.963L111.42 33.0661H110.484L110.353 29.8232Z" fill="#154679"/>
<path d="M128.545 26.0903H124.046V28.4736H126.661C127.002 28.4505 127.343 28.5029 127.662 28.6271C127.98 28.7512 128.267 28.9441 128.502 29.1918C128.884 29.6473 129.078 30.2307 129.046 30.8241C129.05 31.1253 128.987 31.4235 128.863 31.698C128.739 31.9724 128.556 32.2164 128.327 32.413C127.873 32.8382 127.272 33.0721 126.65 33.0659H122.968V25.1436H128.545V26.0903ZM124.019 29.3822V32.1028H126.367C126.753 32.121 127.135 32.0142 127.456 31.7981C127.61 31.6755 127.732 31.5174 127.812 31.3374C127.892 31.1573 127.926 30.9607 127.914 30.7643C127.929 30.5606 127.897 30.3561 127.82 30.1671C127.742 29.9781 127.621 29.8099 127.467 29.6761C127.12 29.4547 126.711 29.3516 126.301 29.3822H124.003H124.019Z" fill="#154679"/>
<path d="M139.728 32.1028V33.0496H133.889V25.1436H139.651V26.0903H134.956V28.5171H139.281V29.4639H134.956V32.1028H139.728Z" fill="#154679"/>
<path d="M151.188 27.527H150.153C150.107 27.2511 149.999 26.9889 149.839 26.7594C149.679 26.5298 149.47 26.3385 149.227 26.1993C148.832 25.989 148.389 25.8841 147.942 25.8946C147.599 25.8805 147.257 25.9419 146.941 26.0745C146.625 26.207 146.342 26.4076 146.112 26.6618C145.576 27.3218 145.307 28.1588 145.36 29.007C145.303 29.822 145.493 30.6354 145.905 31.3412C146.137 31.6605 146.447 31.9151 146.805 32.0808C147.164 32.2465 147.559 32.3178 147.953 32.288C148.402 32.2955 148.841 32.1581 149.205 31.8962C149.757 31.4569 150.116 30.821 150.208 30.1224H151.243C151.174 30.9169 150.856 31.6693 150.333 32.2717C149.937 32.6715 149.44 32.9572 148.895 33.0987C148.541 33.2 148.174 33.2512 147.806 33.2511C147.353 33.2679 146.902 33.1916 146.48 33.0269C146.059 32.8621 145.675 32.6125 145.355 32.2934C144.963 31.8499 144.665 31.3324 144.478 30.7715C144.291 30.2107 144.219 29.618 144.265 29.0287C144.214 27.948 144.567 26.887 145.256 26.0524C145.91 25.3964 146.78 25.0004 147.704 24.9383C148.628 24.8762 149.543 25.1523 150.278 25.715C150.804 26.1794 151.13 26.8285 151.188 27.527Z" fill="#154679"/>
<path d="M162.316 25.1436V33.0441H161.227V26.0903H157.098V33.0441H156.009V25.1436H162.316Z" fill="#154679"/>
<path d="M172.398 26.0903H169.397V29.3822C169.397 30.8332 169.227 31.8525 168.885 32.4402C168.757 32.6807 168.563 32.8799 168.326 33.0147C168.088 33.1496 167.818 33.2145 167.545 33.2019C167.435 33.208 167.324 33.208 167.213 33.2019L166.815 33.1475V32.2389C166.891 32.2549 166.967 32.2658 167.044 32.2715H167.317C167.519 32.2647 167.712 32.1849 167.86 32.0469C168.009 31.9089 168.102 31.7219 168.123 31.5206C168.291 30.7048 168.36 29.8718 168.33 29.0394V25.1436H173.482V33.0441H172.393V26.0903H172.398Z" fill="#154679"/>
<path d="M183.014 30.7371H179.855L179.027 33.0441H177.938L180.911 25.1436H182.121L184.975 33.0441H183.809L183.014 30.7371ZM180.182 29.7903H182.633L181.467 26.3188L180.182 29.7903Z" fill="#154679"/>
<path d="M188.738 26.0903V25.1436H195.155V26.0903H192.475V33.0441H191.418V26.0903H188.738Z" fill="#154679"/>
<path d="M204.84 28.4083V25.1436H205.929V33.0441H204.84V29.355H200.711V33.0441H199.622V25.1436H200.711V28.4083H204.84Z" fill="#154679"/>
<path d="M218.358 29.0994C218.386 30.0688 218.104 31.0218 217.552 31.82C217.184 32.2686 216.722 32.63 216.197 32.8782C215.672 33.1264 215.099 33.2552 214.518 33.2552C213.938 33.2552 213.365 33.1264 212.84 32.8782C212.315 32.63 211.852 32.2686 211.485 31.82C210.953 31.0118 210.67 30.0662 210.67 29.0994C210.67 28.1326 210.953 27.1869 211.485 26.3788C211.852 25.9302 212.315 25.5687 212.84 25.3205C213.365 25.0723 213.938 24.9436 214.518 24.9436C215.099 24.9436 215.672 25.0723 216.197 25.3205C216.722 25.5687 217.184 25.9302 217.552 26.3788C218.105 27.1764 218.387 28.1298 218.358 29.0994ZM217.269 29.0994C217.306 28.2649 217.044 27.4447 216.528 26.7869C216.273 26.5063 215.962 26.2822 215.615 26.1288C215.268 25.9754 214.892 25.8962 214.513 25.8962C214.133 25.8962 213.758 25.9754 213.411 26.1288C213.064 26.2822 212.753 26.5063 212.498 26.7869C211.982 27.4447 211.72 28.2649 211.757 29.0994C211.72 29.9338 211.982 30.7541 212.498 31.4119C212.753 31.6924 213.064 31.9166 213.411 32.07C213.758 32.2233 214.133 32.3026 214.513 32.3026C214.892 32.3026 215.268 32.2233 215.615 32.07C215.962 31.9166 216.273 31.6924 216.528 31.4119C217.044 30.7541 217.306 29.9338 217.269 29.0994Z" fill="#154679"/>
<path fill-rule="evenodd" clip-rule="evenodd" d="M45.6332 18.1953L44.2333 19.0713L45.2519 20.7037H42.3433V22.336H46.7389C46.8862 22.3358 47.0309 22.2963 47.1578 22.2215C47.2848 22.1468 47.3895 22.0396 47.4611 21.9109C47.5327 21.7822 47.5687 21.6368 47.5652 21.4896C47.5618 21.3425 47.5191 21.1989 47.4415 21.0737L45.6332 18.1953Z" fill="#154679"/>
<path d="M11.4224 24.012H5.24023V25.6606H11.4224V24.012Z" fill="#154679"/>
<path fill-rule="evenodd" clip-rule="evenodd" d="M14.3635 8.12378H10.311V9.75613H13.4539C13.7179 9.19115 14.0219 8.64566 14.3635 8.12378Z" fill="#154679"/>
<path fill-rule="evenodd" clip-rule="evenodd" d="M51.7445 20.6276H51.3033C51.072 20.6058 50.8501 20.5247 50.6593 20.3922C50.4685 20.2597 50.3151 20.0803 50.214 19.8713L48.9721 16.6066C48.7444 16.0826 48.3719 15.6343 47.8982 15.3143C47.4245 14.9944 46.8693 14.816 46.2977 14.8001H40.5131V8.95084C40.5131 8.73149 40.4259 8.52112 40.2706 8.36602C40.1154 8.21092 39.9048 8.12378 39.6852 8.12378H36.2918C36.6334 8.64566 36.9374 9.19115 37.2014 9.75613H38.8627V29.4369H22.4623C22.3438 28.8983 22.1137 28.3904 21.7869 27.946C20.5141 27.5878 19.3036 27.0374 18.1974 26.3136C17.3596 26.3985 16.5703 26.7465 15.943 27.3077C15.3156 27.8689 14.8825 28.6143 14.706 29.4369H10.6045V31.0692H14.706C14.8956 31.9591 15.3853 32.757 16.0932 33.3294C16.8011 33.9019 17.6842 34.2142 18.595 34.2142C19.5058 34.2142 20.3889 33.9019 21.0968 33.3294C21.8047 32.757 22.2944 31.9591 22.4841 31.0692H41.6079C41.7976 31.9591 42.2873 32.757 42.9952 33.3294C43.7031 33.9019 44.5862 34.2142 45.497 34.2142C46.4078 34.2142 47.2909 33.9019 47.9988 33.3294C48.7067 32.757 49.1964 31.9591 49.386 31.0692H51.7445C52.3291 31.0678 52.8894 30.8351 53.3028 30.4222C53.7162 30.0092 53.9491 29.4496 53.9505 28.8655V22.853C53.9526 22.562 53.8972 22.2734 53.7874 22.0039C53.6776 21.7343 53.5155 21.4891 53.3105 21.2823C53.1055 21.0755 52.8616 20.9112 52.5929 20.7989C52.3242 20.6865 52.0358 20.6283 51.7445 20.6276ZM18.5569 32.5982C18.098 32.5982 17.6493 32.4622 17.2678 32.2075C16.8862 31.9528 16.5888 31.5908 16.4132 31.1673C16.2375 30.7437 16.1916 30.2777 16.2811 29.828C16.3706 29.3784 16.5916 28.9654 16.9161 28.6412C17.2407 28.317 17.6541 28.0963 18.1042 28.0068C18.5543 27.9174 19.0209 27.9633 19.4448 28.1387C19.8688 28.3142 20.2312 28.6113 20.4862 28.9925C20.7412 29.3737 20.8772 29.8218 20.8772 30.2802C20.873 30.8899 20.629 31.4734 20.198 31.905C19.767 32.3365 19.1835 32.5816 18.5732 32.5873L18.5569 32.5982ZM45.4752 32.5982C45.0163 32.5982 44.5677 32.4622 44.1861 32.2075C43.8045 31.9528 43.5071 31.5908 43.3315 31.1673C43.1558 30.7437 43.1099 30.2777 43.1994 29.828C43.289 29.3784 43.5099 28.9654 43.8345 28.6412C44.159 28.317 44.5724 28.0963 45.0225 28.0068C45.4726 27.9174 45.9392 27.9633 46.3632 28.1387C46.7872 28.3142 47.1495 28.6113 47.4045 28.9925C47.6595 29.3737 47.7956 29.8218 47.7956 30.2802C47.7913 30.8899 47.5474 31.4734 47.1163 31.905C46.6853 32.3365 46.1018 32.5816 45.4915 32.5873L45.4752 32.5982ZM52.3001 28.8982C52.3001 29.0425 52.2427 29.1809 52.1406 29.2829C52.0384 29.385 51.8999 29.4423 51.7554 29.4423H49.3806C49.1909 28.5524 48.7012 27.7546 47.9934 27.1821C47.2855 26.6096 46.4023 26.2973 45.4915 26.2973C44.5808 26.2973 43.6976 26.6096 42.9897 27.1821C42.2818 27.7546 41.7921 28.5524 41.6025 29.4423H40.5131V16.4488H46.2977C46.529 16.4706 46.7509 16.5517 46.9417 16.6841C47.1325 16.8166 47.2859 16.9961 47.387 17.2051L48.6289 20.4698C48.853 20.9918 49.2207 21.4395 49.6892 21.7612C50.1578 22.0829 50.708 22.2652 51.2761 22.2872H51.7445C51.889 22.2872 52.0275 22.3445 52.1297 22.4465C52.2318 22.5486 52.2892 22.687 52.2892 22.8313V28.8873L52.3001 28.8982Z" fill="#154679"/>
<path fill-rule="evenodd" clip-rule="evenodd" d="M12.4626 12.9392H3.67139V14.5716H12.272C12.3016 14.024 12.3653 13.4789 12.4626 12.9392Z" fill="#154679"/>
<path fill-rule="evenodd" clip-rule="evenodd" d="M7.5498 20.4317H13.2908C13.0736 19.9001 12.8917 19.3548 12.7461 18.7993H7.57159V20.4317H7.5498Z" fill="#154679"/>
<path fill-rule="evenodd" clip-rule="evenodd" d="M26.4878 14.8763H37.4087C37.2633 11.7888 35.9237 8.87824 33.6722 6.75806L26.4878 14.8763Z" fill="#154679"/>
<path fill-rule="evenodd" clip-rule="evenodd" d="M25.0277 3.49316C22.4276 3.58009 19.9274 4.51455 17.9087 6.1539L25.0277 14.1905V3.49316Z" fill="#154679"/>
<path fill-rule="evenodd" clip-rule="evenodd" d="M17.1525 24.0555L24.424 15.8394H13.4922C13.5924 18.9503 14.9059 21.8988 17.1525 24.0555Z" fill="#154679"/>
<path fill-rule="evenodd" clip-rule="evenodd" d="M25.8833 16.5249V27.4073C28.5205 27.3219 31.0549 26.3651 33.0895 24.6867L25.8833 16.5249Z" fill="#154679"/>
<path fill-rule="evenodd" clip-rule="evenodd" d="M25.028 16.5249L17.8218 24.6867C19.8563 26.3651 22.3907 27.3219 25.028 27.4073V16.5249ZM22.1466 25.2308C21.8772 25.2308 21.614 25.151 21.39 25.0015C21.1661 24.8521 20.9916 24.6396 20.8885 24.3911C20.7854 24.1425 20.7585 23.869 20.811 23.6051C20.8636 23.3412 20.9933 23.0989 21.1837 22.9086C21.3741 22.7184 21.6168 22.5888 21.8809 22.5363C22.1451 22.4838 22.4189 22.5108 22.6677 22.6137C22.9165 22.7167 23.1292 22.8911 23.2788 23.1148C23.4284 23.3384 23.5083 23.6014 23.5083 23.8705C23.5104 24.0505 23.4768 24.2291 23.4094 24.3961C23.3419 24.563 23.2419 24.7149 23.1153 24.8429C22.9886 24.971 22.8378 25.0726 22.6715 25.142C22.5052 25.2114 22.3268 25.2471 22.1466 25.2471V25.2308Z" fill="#154679"/>
<path fill-rule="evenodd" clip-rule="evenodd" d="M25.8833 3.49316V14.1905L33.0023 6.1539C30.9836 4.51455 28.4834 3.58009 25.8833 3.49316ZM28.8682 8.19434C28.5989 8.19434 28.3356 8.11456 28.1116 7.96509C27.8877 7.81562 27.7132 7.60317 27.6101 7.35461C27.507 7.10605 27.4801 6.83254 27.5326 6.56867C27.5852 6.3048 27.7149 6.06241 27.9053 5.87217C28.0957 5.68193 28.3384 5.55238 28.6025 5.49989C28.8667 5.4474 29.1405 5.47434 29.3893 5.5773C29.6381 5.68026 29.8508 5.85461 30.0004 6.07831C30.15 6.30201 30.2299 6.56501 30.2299 6.83405C30.2299 7.19482 30.0864 7.54082 29.831 7.79592C29.5757 8.05102 29.2293 8.19434 28.8682 8.19434Z" fill="#154679"/>
<path fill-rule="evenodd" clip-rule="evenodd" d="M33.7702 24.0555C36.0168 21.8988 37.3303 18.9503 37.4305 15.8394H26.4878L33.7702 24.0555ZM33.1275 17.4445C33.3968 17.4445 33.6601 17.5243 33.884 17.6738C34.108 17.8232 34.2825 18.0357 34.3856 18.2842C34.4886 18.5328 34.5156 18.8063 34.463 19.0702C34.4105 19.334 34.2808 19.5764 34.0904 19.7667C33.8999 19.9569 33.6573 20.0865 33.3931 20.139C33.129 20.1914 32.8552 20.1645 32.6064 20.0615C32.3576 19.9586 32.1449 19.7842 31.9953 19.5605C31.8456 19.3368 31.7658 19.0738 31.7658 18.8048C31.7658 18.444 31.9092 18.098 32.1646 17.8429C32.42 17.5878 32.7663 17.4445 33.1275 17.4445Z" fill="#154679"/>
<path fill-rule="evenodd" clip-rule="evenodd" d="M24.4239 14.8763L17.2341 6.75806C14.9821 8.8779 13.6424 11.7886 13.4976 14.8763H24.4239ZM17.1524 10.2839C17.4219 10.2829 17.6858 10.3617 17.9104 10.5105C18.135 10.6594 18.3104 10.8714 18.4143 11.1199C18.5182 11.3684 18.546 11.642 18.494 11.9063C18.4421 12.1705 18.3129 12.4134 18.1226 12.6042C17.9324 12.795 17.6898 12.925 17.4255 12.978C17.1612 13.0309 16.8871 13.0043 16.638 12.9015C16.3889 12.7987 16.1759 12.6243 16.026 12.4005C15.8761 12.1767 15.7961 11.9135 15.7961 11.6442C15.7961 11.2844 15.9388 10.9392 16.193 10.6843C16.4472 10.4293 16.7922 10.2854 17.1524 10.2839Z" fill="#154679"/>
</svg>
