<svg width="198" height="40" viewBox="0 0 198 40" fill="none" xmlns="http://www.w3.org/2000/svg">
<path d="M67.8571 10.2056V23.8H63.3539V13.3778H59.0872V23.8H54.584V10.2056H67.8852H67.8571Z" fill="#009580"/>
<path d="M78.9408 10.2055L83.8717 23.7999H79.3686L78.8057 22.0055H74.3025L73.7846 23.7999H69.4053L74.3419 10.2H78.9351L78.9408 10.2055ZM78.0626 19.1777L76.6104 14.3055L75.2144 19.1777H78.0683H78.0626Z" fill="#009580"/>
<path d="M98.8616 10.2056V23.8H94.3584V13.3778H91.1218V17.2667C91.1218 22.7445 89.3824 24.1056 86.7987 24.1056C85.9735 24.1162 85.1504 24.0209 84.3501 23.8222V20.6278C84.6819 20.7357 85.0314 20.7809 85.3802 20.7611C86.2808 20.7611 86.7987 20.4 86.7987 17.2111V10.2056H98.8728H98.8616Z" fill="#009580"/>
<path d="M106.055 14.9445H108.2C111.684 14.9445 113.885 16.4945 113.885 19.4611C113.885 22.4278 111.724 23.8056 108.144 23.8056H101.541V10.2056H106.044V14.9445H106.055ZM106.055 20.6278H107.744C108.87 20.6278 109.697 20.4 109.697 19.3833C109.697 18.1945 108.645 18.1167 107.209 18.1167H106.084V20.6278H106.055ZM120.353 23.8H115.85V10.2056H120.353V23.8Z" fill="#009580"/>
<path d="M127.362 10.2056V13.7167C127.362 14.7945 127.992 15.2833 129.084 15.2833C129.775 15.2985 130.465 15.2162 131.133 15.0389V10.2056H135.636V23.8H131.133V18.3333C130.328 18.5222 129.754 18.6333 127.362 18.6333C125.335 18.6333 122.858 17.3889 122.858 14.4389V10.2056H127.362Z" fill="#009580"/>
<path d="M137.685 18.4277H146.568V20.3722H137.685V18.4277Z" fill="#009580"/>
<path d="M155.821 10.2056L158.253 18.6833L160.685 10.2056H166.139V23.8H162.081V19.6445C162.092 18.1164 162.187 16.59 162.368 15.0722H162.328L159.823 23.8H156.682L154.178 15.0722H154.138C154.273 16.2611 154.425 18.0945 154.425 19.1889V23.7945H150.367V10.2056H155.821Z" fill="#009580"/>
<path d="M177.217 10.2056L182.154 23.8056H177.65L177.087 22.0111H172.584L172.066 23.8056H167.687L172.624 10.2056H177.217ZM176.339 19.1778L174.886 14.3056L173.49 19.1778H176.344H176.339Z" fill="#009580"/>
<path d="M194.42 10.2056V13.3778H188.228V23.8H183.725V10.2056H194.42Z" fill="#009580"/>
<path d="M54.7471 32.5168C54.7204 32.7975 54.7663 33.0803 54.8805 33.3388C54.9947 33.5972 55.1734 33.8229 55.4 33.9946C55.9015 34.2798 56.4775 34.4113 57.055 34.3723C57.5369 34.3865 58.0153 34.2875 58.4509 34.0834C58.6791 33.9871 58.8729 33.8255 59.0073 33.6196C59.1417 33.4137 59.2106 33.1728 59.2052 32.9279C59.2218 32.6878 59.1745 32.4476 59.0678 32.2313C58.9611 32.0149 58.7989 31.8298 58.5973 31.6946C58.1582 31.4408 57.6529 31.321 57.145 31.3501H56.2894V30.4612H56.9086C57.3702 30.4754 57.8276 30.3721 58.237 30.1612C58.4238 30.0798 58.5826 29.9467 58.6945 29.7782C58.8064 29.6096 58.8664 29.4127 58.8675 29.2112C58.8836 28.9771 58.8291 28.7434 58.7109 28.5398C58.5927 28.3361 58.4161 28.1715 58.2033 28.0668C57.7854 27.8924 57.3338 27.8109 56.8804 27.8282C56.4271 27.8455 55.9831 27.9611 55.5802 28.1668C55.3599 28.2992 55.18 28.4878 55.0591 28.7126C54.9383 28.9375 54.881 29.1903 54.8934 29.4446H53.8577C53.8496 28.8445 54.0706 28.2633 54.4769 27.8168C54.8165 27.4772 55.2273 27.2152 55.6805 27.0492C56.1336 26.8832 56.6182 26.8171 57.1 26.8557C57.8473 26.8249 58.5838 27.0398 59.194 27.4668C59.452 27.6509 59.6607 27.8944 59.802 28.1761C59.9432 28.4578 60.0128 28.7692 60.0045 29.0834C60.0082 29.3122 59.9642 29.5393 59.8751 29.7505C59.786 29.9618 59.6538 30.1526 59.4867 30.3112C59.2398 30.5715 58.9173 30.7501 58.5635 30.8223C59.06 30.9108 59.5119 31.1612 59.8469 31.5334C60.185 31.9262 60.3617 32.4296 60.3423 32.9446C60.359 33.322 60.2689 33.6966 60.0819 34.0263C59.895 34.356 59.6187 34.6278 59.284 34.8112C58.6107 35.181 57.8475 35.3617 57.0775 35.3334C55.7415 35.3334 54.8034 35.0409 54.263 34.4557C53.8427 33.8963 53.6427 33.2053 53.7001 32.5112H54.7358L54.7471 32.5168Z" fill="#009580"/>
<path d="M68.4483 32.7778H65.1835L64.3279 35.1333H63.2021L66.2756 27.0667H67.5252L70.4748 35.1333H69.2364L68.4483 32.7778ZM65.5213 31.8111H68.0543L66.8497 28.2667L65.5213 31.8111Z" fill="#009580"/>
<path d="M75.0569 32.2944V35.1277H73.9312V27.061H75.0569V30.9499L78.9972 27.061H80.517L77.1397 30.3166L80.6296 35.1277H79.1999L76.3404 31.111L75.0569 32.2944Z" fill="#009580"/>
<path d="M88.5665 32.7777H85.3017L84.4349 35.1277H83.3091L86.3825 27.061H87.6321L90.5817 35.1277H89.3771L88.5665 32.7777ZM85.6395 31.811H88.1725L86.9679 28.2666L85.6395 31.811Z" fill="#009580"/>
<path d="M94.7358 32.5168C94.7091 32.7975 94.755 33.0803 94.8692 33.3388C94.9834 33.5972 95.1622 33.8229 95.3888 33.9946C95.8902 34.2798 96.4663 34.4113 97.0437 34.3723C97.5257 34.3865 98.0041 34.2875 98.4397 34.0834C98.6679 33.9871 98.8616 33.8255 98.9961 33.6196C99.1305 33.4137 99.1994 33.1728 99.194 32.9279C99.2106 32.6878 99.1632 32.4476 99.0566 32.2313C98.9499 32.0149 98.7877 31.8298 98.5861 31.6946C98.147 31.4408 97.6417 31.321 97.1338 31.3501H96.2557V30.4612H96.8749C97.3364 30.4754 97.7939 30.3721 98.2033 30.1612C98.39 30.0798 98.5489 29.9467 98.6608 29.7782C98.7726 29.6096 98.8327 29.4127 98.8337 29.2112C98.8498 28.9771 98.7954 28.7434 98.6772 28.5398C98.559 28.3361 98.3823 28.1715 98.1695 28.0668C97.7517 27.8924 97.3 27.8109 96.8467 27.8282C96.3933 27.8455 95.9494 27.9611 95.5464 28.1668C95.3304 28.302 95.1549 28.4918 95.0381 28.7164C94.9213 28.9411 94.8675 29.1925 94.8822 29.4446H93.8465C93.8384 28.8445 94.0594 28.2633 94.4657 27.8168C94.8052 27.4772 95.2161 27.2152 95.6692 27.0492C96.1224 26.8832 96.6069 26.8171 97.0887 26.8557C97.836 26.8249 98.5726 27.0398 99.1827 27.4668C99.4408 27.6509 99.6495 27.8944 99.7908 28.1761C99.932 28.4578 100.002 28.7692 99.9933 29.0834C99.997 29.3122 99.9529 29.5393 99.8638 29.7505C99.7747 29.9618 99.6425 30.1526 99.4754 30.3112C99.2285 30.5715 98.9061 30.7501 98.5523 30.8223C99.0487 30.9108 99.5007 31.1612 99.8357 31.5334C100.174 31.9262 100.35 32.4296 100.331 32.9446C100.348 33.322 100.258 33.6966 100.071 34.0263C99.8838 34.356 99.6075 34.6278 99.2728 34.8112C98.5994 35.181 97.8363 35.3617 97.0662 35.3334C95.7303 35.3334 94.7921 35.0409 94.2517 34.4557C93.8315 33.8963 93.6314 33.2053 93.6889 32.5112H94.7246L94.7358 32.5168Z" fill="#009580"/>
<path d="M109.72 35.1276V27.061H113.311C113.624 27.0438 113.937 27.0881 114.233 27.191C114.529 27.294 114.801 27.4537 115.033 27.661C115.331 27.9663 115.525 28.3551 115.59 28.7739C115.654 29.1928 115.586 29.621 115.394 29.9999C115.195 30.3589 114.883 30.6438 114.504 30.811C114.852 30.9366 115.173 31.125 115.45 31.3665C115.64 31.5514 115.788 31.7736 115.885 32.0186C115.982 32.2636 116.025 32.526 116.013 32.7887C116.02 33.1001 115.96 33.4093 115.838 33.6965C115.716 33.9836 115.534 34.2422 115.304 34.4554C114.734 34.951 113.99 35.2064 113.232 35.1665H109.72V35.1276ZM110.846 27.9943V30.4721H112.838C113.273 30.5028 113.708 30.4062 114.088 30.1943C114.244 30.0749 114.367 29.9186 114.445 29.74C114.524 29.5614 114.556 29.3661 114.538 29.1721C114.549 29.0047 114.518 28.8374 114.448 28.6845C114.379 28.5315 114.272 28.3976 114.138 28.2943C113.751 28.0629 113.3 27.958 112.849 27.9943H110.846ZM110.846 31.361V34.1943H113.198C113.663 34.2259 114.123 34.0852 114.487 33.7999C114.641 33.6592 114.761 33.4864 114.838 33.2941C114.915 33.1018 114.947 32.895 114.932 32.6887C114.95 32.4641 114.901 32.2393 114.791 32.0419C114.681 31.8445 114.515 31.6831 114.313 31.5776C113.909 31.3885 113.465 31.3007 113.018 31.3221H110.846V31.361Z" fill="#009580"/>
<path d="M133.215 35.1277H132.146V30.361L132.18 28.3333L129.86 35.111H128.768L126.472 28.3333V35.111H125.402V27.061H126.978L129.298 33.8888L131.651 27.0666H133.215V35.1277Z" fill="#009580"/>
<path d="M141.929 32.7778H138.665L137.809 35.1333H136.683L139.757 27.0667H141.006L143.956 35.1333H142.751L141.929 32.7778ZM139.002 31.8111H141.535L140.331 28.2667L139.002 31.8111Z" fill="#009580"/>
<path d="M148.537 28.0277V35.1277H147.412V27.061H152.759V28.0277H148.515H148.537Z" fill="#009580"/>
<path d="M159.986 32.7778H156.722L155.866 35.1333H154.74L157.814 27.0667H159.063L162.013 35.1333H160.808L159.986 32.7778ZM157.048 31.8055H159.581L158.377 28.2611L157.048 31.8055Z" fill="#009580"/>
<path d="M166.156 32.5168C166.13 32.7975 166.175 33.0803 166.29 33.3388C166.404 33.5972 166.583 33.8229 166.809 33.9946C167.311 34.2798 167.887 34.4113 168.464 34.3723C168.946 34.3865 169.425 34.2875 169.86 34.0834C170.088 33.9871 170.282 33.8255 170.416 33.6196C170.551 33.4137 170.62 33.1728 170.614 32.9279C170.63 32.6868 170.581 32.4459 170.472 32.2294C170.363 32.013 170.199 31.8285 169.995 31.6946C169.556 31.4408 169.051 31.321 168.543 31.3501H167.687V30.4612H168.307C168.768 30.4754 169.226 30.3721 169.635 30.1612C169.822 30.0798 169.981 29.9467 170.092 29.7782C170.204 29.6096 170.264 29.4127 170.265 29.2112C170.282 28.9771 170.227 28.7434 170.109 28.5398C169.991 28.3361 169.814 28.1715 169.601 28.0668C169.183 27.8924 168.732 27.8109 168.278 27.8282C167.825 27.8455 167.381 27.9611 166.978 28.1668C166.76 28.3006 166.582 28.4898 166.463 28.7146C166.345 28.9393 166.289 29.1914 166.303 29.4446H165.267C165.259 28.8445 165.48 28.2633 165.886 27.8168C166.226 27.4772 166.636 27.2152 167.09 27.0492C167.543 26.8832 168.027 26.8171 168.509 26.8557C169.256 26.8249 169.993 27.0398 170.603 27.4668C170.861 27.6509 171.07 27.8944 171.211 28.1761C171.352 28.4578 171.422 28.7692 171.414 29.0834C171.417 29.3122 171.373 29.5393 171.284 29.7505C171.195 29.9618 171.063 30.1526 170.896 30.3112C170.649 30.5715 170.326 30.7501 169.973 30.8223C170.469 30.9108 170.921 31.1612 171.256 31.5334C171.594 31.9262 171.771 32.4296 171.751 32.9446C171.768 33.322 171.678 33.6966 171.491 34.0263C171.304 34.356 171.028 34.6278 170.693 34.8112C170.02 35.181 169.257 35.3617 168.487 35.3334C167.151 35.3334 166.213 35.0409 165.672 34.4557C165.252 33.8963 165.052 33.2053 165.109 32.5112H166.145L166.156 32.5168Z" fill="#009580"/>
<path d="M176.615 27.061V33.661H176.66L180.802 27.061H182.063V35.1277H180.938V28.6166L176.761 35.1277H175.511V27.061H176.637H176.615Z" fill="#009580"/>
<path d="M191.622 30.3944V27.061H192.747V35.1277H191.622V31.361H187.355V35.1277H186.229V27.061H187.355V30.3944H191.622Z" fill="#009580"/>
<path d="M37.7141 20.7778H7.99313C7.78458 20.7793 7.58499 20.8617 7.43752 21.0072C7.29005 21.1528 7.20655 21.3498 7.20508 21.5556V32.5778C7.21233 32.7798 7.29838 32.9711 7.44524 33.1119C7.59209 33.2527 7.7884 33.3321 7.99313 33.3334H37.7141C37.9227 33.3319 38.1223 33.2495 38.2697 33.104C38.4172 32.9584 38.5007 32.7614 38.5022 32.5556V21.5556C38.5007 21.3498 38.4172 21.1528 38.2697 21.0072C38.1223 20.8617 37.9227 20.7793 37.7141 20.7778ZM22.8424 32.3889C19.4988 31.0667 17.326 28.8167 17.326 25.7223C17.326 23.3112 20.3375 20.7612 22.8424 23.5001C25.3473 20.7223 28.3588 23.2834 28.3588 25.7223C28.3588 28.8223 26.1916 31.0667 22.8424 32.3889Z" fill="#009580"/>
<path d="M40.8495 34.8723H4.84092C4.48652 34.8723 4.19922 35.1559 4.19922 35.5056V35.5668C4.19922 35.9165 4.48652 36.2001 4.84092 36.2001H40.8495C41.2039 36.2001 41.4912 35.9165 41.4912 35.5668V35.5056C41.4912 35.1559 41.2039 34.8723 40.8495 34.8723Z" fill="#009580"/>
<path d="M8.0044 11.45H11.303L10.0759 17.2722C10.0759 17.2722 9.80004 19.4444 6.92927 19.4444C4.50318 19.4444 4.96475 17.2722 4.96475 17.2722L6.44517 12.6444C6.44517 12.6444 7.03059 11.45 8.0044 11.45Z" fill="#009580"/>
<path d="M16.7631 11.45H12.0235L11.0666 17.0888C10.9146 18.3611 11.9503 19.3833 13.4026 19.3833C14.075 19.4074 14.7331 19.1872 15.2518 18.7642C15.7706 18.3413 16.1141 17.7451 16.2171 17.0888L16.7631 11.45Z" fill="#009580"/>
<path d="M22.4032 11.45H17.6636L17.354 17.0888C17.3616 17.4065 17.4343 17.7194 17.5677 18.0087C17.7011 18.2979 17.8924 18.5575 18.1301 18.7719C18.3678 18.9862 18.647 19.1509 18.9509 19.256C19.2547 19.3611 19.577 19.4044 19.8983 19.3833C20.2231 19.4036 20.5488 19.3602 20.8565 19.2556C21.1642 19.1511 21.4479 18.9875 21.6913 18.7742C21.9346 18.5609 22.1327 18.3021 22.2742 18.0129C22.4158 17.7236 22.4978 17.4096 22.5158 17.0888L22.4032 11.45Z" fill="#009580"/>
<path d="M37.6802 11.45H34.3872L35.9577 17.2722C35.9577 17.2722 36.363 19.4444 39.2337 19.4444C41.6542 19.4444 41.0913 17.2722 41.0913 17.2722L39.3407 12.6444C39.3407 12.6444 38.6596 11.45 37.6802 11.45Z" fill="#009580"/>
<path d="M28.9272 11.45H33.6668L34.9559 17.0888C35.181 18.3611 34.2072 19.3833 32.755 19.3833C32.0748 19.3911 31.4128 19.1671 30.8806 18.7491C30.3484 18.3311 29.9786 17.7447 29.8335 17.0888L28.9272 11.45Z" fill="#009580"/>
<path d="M23.2871 11.45H28.0267L28.6684 17.0888C28.781 18.3611 27.7171 19.3833 26.2648 19.3833C25.5991 19.4118 24.947 19.1914 24.4388 18.7661C23.9306 18.3407 23.6037 17.7417 23.5235 17.0888L23.2871 11.45Z" fill="#009580"/>
<path d="M17.8385 7.48331C17.8614 7.80509 17.8146 8.12799 17.7012 8.43054C17.5879 8.73309 17.4105 9.00835 17.181 9.23802C16.9515 9.46768 16.6751 9.64649 16.3701 9.76254C16.0652 9.87859 15.7387 9.92923 15.4124 9.91109C15.0834 9.93717 14.7527 9.89156 14.4435 9.77749C14.1344 9.66342 13.8545 9.48368 13.6235 9.25099C13.3926 9.0183 13.2163 8.73835 13.1072 8.43096C12.998 8.12357 12.9587 7.79626 12.9919 7.4722C12.9699 7.15389 13.0177 6.83464 13.1318 6.53616C13.246 6.23768 13.424 5.96697 13.6536 5.74243C13.8833 5.51788 14.1592 5.34478 14.4627 5.23488C14.7662 5.12498 15.0901 5.08086 15.4124 5.10553C15.7344 5.08717 16.0567 5.13597 16.3584 5.24875C16.66 5.36152 16.9342 5.53574 17.1631 5.76006C17.3919 5.98438 17.5704 6.25377 17.6867 6.55068C17.8031 6.84759 17.8548 7.16537 17.8385 7.48331ZM14.5061 7.48331C14.5061 8.03886 14.6862 8.79442 15.4124 8.79442C16.1385 8.79442 16.3243 8.23886 16.3243 7.48331C16.3243 6.86108 16.071 6.2222 15.4011 6.2222C14.7313 6.2222 14.5061 6.91108 14.5061 7.48331Z" fill="#009580"/>
<path d="M20.056 9.79445H18.5361V5.22778H20.7877C22.1162 5.22778 22.7579 5.82778 22.7579 6.76667C22.7579 7.70556 22.195 8.37223 20.8384 8.37223H20.056V9.79445ZM20.056 7.31112H20.6864C20.7655 7.32534 20.8468 7.32119 20.924 7.29901C21.0012 7.27683 21.0721 7.23722 21.1311 7.18332C21.1901 7.12941 21.2355 7.0627 21.2639 6.98846C21.2922 6.91421 21.3026 6.83447 21.2943 6.75556C21.2943 6.33334 20.8046 6.27223 20.4838 6.27223H20.056V7.28889V7.31112Z" fill="#009580"/>
<path d="M27.2109 5.22778V6.29445H24.9593V6.94445H26.8675V8.01112H24.9536V8.72778H27.3009V9.79445H23.4395V5.22778H27.2109Z" fill="#009580"/>
<path d="M29.4566 5.22778L31.1059 7.72223L31.0496 6.66667V5.22778H32.5019V9.79445H31.0834L29.4341 7.31112L29.4904 8.33334V9.77778H28.0381V5.22778H29.4566Z" fill="#009580"/>
</svg>
