<svg width="148" height="30" viewBox="0 0 148 30" fill="none" xmlns="http://www.w3.org/2000/svg">
<path d="M26.2385 3.99194H17.3714C16.5552 3.99194 15.8936 4.63949 15.8936 5.43827V6.0168C15.8936 6.81558 16.5552 7.46312 17.3714 7.46312H26.2385C27.0547 7.46312 27.7163 6.81558 27.7163 6.0168V5.43827C27.7163 4.63949 27.0547 3.99194 26.2385 3.99194Z" fill="#009580"/>
<path d="M53.1116 7.79736V17.2403H49.9194V9.99578H46.9572V17.2403H43.7979V7.79736H53.1116Z" fill="#009580"/>
<path d="M60.8676 7.79736L64.3225 17.2403H61.1763L60.8019 15.9932H57.6492L57.288 17.2403H54.1943L57.6492 7.79736H60.8676ZM60.2502 14.0262L59.2321 10.645L58.2535 14.0262H60.2239H60.2502Z" fill="#009580"/>
<path d="M74.8118 7.79736V17.2403H71.646V9.99578H69.3799V12.6827C69.3799 16.4882 68.1582 17.4267 66.352 17.4267C65.7741 17.4332 65.1979 17.3663 64.6377 17.2274V15.0354C64.8707 15.1091 65.1157 15.1396 65.3602 15.1254C66.017 15.1254 66.352 14.8747 66.352 12.657V7.79736H74.8118Z" fill="#009580"/>
<path d="M79.8476 11.0886H81.3452C83.782 11.0886 85.3255 12.1621 85.3255 14.2255C85.3255 16.2889 83.8082 17.2403 81.3057 17.2403H76.708V7.79736H79.8739V11.0886H79.8476ZM79.8476 15.0354H81.0102C81.7852 15.0354 82.3764 14.8811 82.3764 14.1676C82.3764 13.3384 81.6407 13.287 80.6358 13.287H79.8476V15.029V15.0354ZM89.8575 17.2403H86.6982V7.79736H89.8575V17.2403Z" fill="#009580"/>
<path d="M94.766 7.79736V10.2336C94.7514 10.3884 94.7735 10.5444 94.8306 10.6895C94.8877 10.8345 94.9783 10.9647 95.0953 11.0698C95.2123 11.175 95.3525 11.2523 95.505 11.2956C95.6575 11.339 95.8182 11.3474 95.9746 11.32C96.4575 11.331 96.9397 11.2747 97.4064 11.1528V7.79736H100.566V17.2403H97.4064V13.422C96.545 13.6119 95.6607 13.6832 94.7792 13.6341C94.3727 13.6596 93.9652 13.6032 93.582 13.4683C93.1987 13.3334 92.8478 13.123 92.551 12.85C92.2542 12.577 92.0178 12.2473 91.8565 11.8813C91.6953 11.5153 91.6125 11.1208 91.6133 10.7222V7.79736H94.7792H94.766Z" fill="#009580"/>
<path d="M101.99 13.499H108.21V14.8489H101.99V13.499Z" fill="#009580"/>
<path d="M114.688 7.79736L116.389 13.6855L118.091 7.79736H121.907V17.2403H119.063V14.354C119.071 13.2927 119.139 12.2326 119.266 11.1786L117.513 17.2338H115.312L113.558 11.1786C113.65 12.0078 113.762 13.2741 113.762 14.0391V17.2531H110.872V7.79736H114.688Z" fill="#009580"/>
<path d="M129.671 7.79736L133.126 17.2403H129.98L129.605 15.9932H126.459L126.111 17.2403H123.018L126.472 7.79736H129.691H129.671ZM129.054 14.0262L128.036 10.645L127.057 14.0262H129.027H129.054Z" fill="#009580"/>
<path d="M141.715 7.79736V10.0022H137.374V17.2403H134.208V7.79736H141.709H141.715Z" fill="#009580"/>
<path d="M43.9288 23.2891C43.9099 23.4846 43.9422 23.6816 44.0227 23.8616C44.1031 24.0415 44.229 24.1984 44.3885 24.3176C44.7387 24.5155 45.141 24.6072 45.5445 24.5811C45.8823 24.5914 46.2177 24.5232 46.5232 24.3819C46.683 24.3149 46.8185 24.2025 46.9122 24.0592C47.0059 23.9159 47.0534 23.7484 47.0486 23.5783C47.0624 23.4119 47.0314 23.2449 46.9588 23.0938C46.8862 22.9427 46.7745 22.8128 46.6348 22.717C46.3229 22.5466 45.9663 22.4705 45.6102 22.4984H45.0125V21.8556H45.446C45.7698 21.8666 46.091 21.7958 46.3787 21.6499C46.5065 21.5942 46.6156 21.5044 46.6935 21.3906C46.7713 21.2769 46.8148 21.1439 46.8188 21.0071C46.8299 20.844 46.7916 20.6814 46.7087 20.5396C46.6257 20.3978 46.5017 20.2831 46.3524 20.21C46.0595 20.0886 45.7427 20.0319 45.4248 20.0442C45.1069 20.0564 44.7956 20.1372 44.5133 20.2807C44.3555 20.369 44.2251 20.4976 44.1361 20.6526C44.047 20.8077 44.0026 20.9835 44.0076 21.1614H43.2851C43.2797 20.7444 43.4344 20.3407 43.7186 20.03C43.9589 19.7984 44.248 19.6209 44.5656 19.5099C44.8832 19.3989 45.2218 19.357 45.5577 19.3872C46.0805 19.3652 46.596 19.5145 47.0224 19.8115C47.2029 19.9399 47.3486 20.1095 47.4471 20.3055C47.5455 20.5015 47.5936 20.7181 47.5872 20.9364C47.59 21.0955 47.5593 21.2535 47.4972 21.4005C47.435 21.5476 47.3427 21.6806 47.226 21.7913C47.05 21.9733 46.8204 22.0969 46.5692 22.1449C46.9175 22.2059 47.2346 22.3803 47.469 22.6398C47.7053 22.9118 47.8294 23.2602 47.8171 23.6169C47.8264 23.8773 47.7621 24.1352 47.6311 24.3621C47.5001 24.5889 47.3076 24.776 47.0749 24.9025C46.6037 25.1583 46.0698 25.2828 45.5314 25.2625C45.1775 25.3023 44.8191 25.2684 44.4795 25.1632C44.1399 25.058 43.8269 24.8837 43.5609 24.6518C43.2648 24.2642 43.1225 23.7845 43.1603 23.3019H43.8828L43.9288 23.2891Z" fill="#009580"/>
<path d="M53.5256 23.4626H51.2333L50.6356 25.0696H49.8408L51.9952 19.4707H52.8688L54.9312 25.0696H54.0904L53.5256 23.4626ZM51.4763 22.8197H53.2497L52.409 20.3578L51.4763 22.8197Z" fill="#009580"/>
<path d="M58.1471 23.1412V25.0697H57.3721V19.5029H58.1471V22.2156L60.9189 19.5029H61.9829L59.6053 21.7656L62.0486 25.0697H61.0437L59.0732 22.2606L58.1471 23.1412Z" fill="#009580"/>
<path d="M67.6047 23.4626H65.3189L64.7212 25.0696H63.9199L66.0743 19.4707H66.9479L69.0168 25.0696H68.1761L67.6047 23.4626ZM65.5554 22.8197H67.3288L66.4881 20.3578L65.5554 22.8197Z" fill="#009580"/>
<path d="M71.9227 23.289C71.9039 23.4845 71.9362 23.6815 72.0166 23.8615C72.0971 24.0414 72.223 24.1983 72.3825 24.3175C72.7327 24.5154 73.135 24.6071 73.5385 24.5811C73.8762 24.5914 74.2116 24.5231 74.5172 24.3818C74.6769 24.3148 74.8125 24.2024 74.9062 24.0591C74.9999 23.9159 75.0474 23.7483 75.0426 23.5783C75.0537 23.4117 75.0202 23.2452 74.9453 23.0952C74.8704 22.9453 74.7568 22.8171 74.6157 22.7233C74.3077 22.5474 73.9535 22.4647 73.5976 22.4855H72.9999V21.8555H73.4334C73.7572 21.8665 74.0784 21.7957 74.3661 21.6498C74.4939 21.5942 74.603 21.5043 74.6809 21.3905C74.7587 21.2768 74.8022 21.1439 74.8062 21.007C74.8173 20.844 74.779 20.6813 74.696 20.5395C74.6131 20.3977 74.4891 20.283 74.3398 20.2099C74.0469 20.0885 73.7301 20.0319 73.4122 20.0441C73.0943 20.0563 72.783 20.1371 72.5007 20.2806C72.3468 20.3728 72.221 20.5037 72.1367 20.6598C72.0523 20.8159 72.0124 20.9914 72.0212 21.1677H71.2988C71.2934 20.7508 71.4481 20.3471 71.7322 20.0364C71.9726 19.8048 72.2616 19.6273 72.5793 19.5162C72.8969 19.4052 73.2355 19.3633 73.5713 19.3936C74.0942 19.3715 74.6097 19.5208 75.036 19.8178C75.2165 19.9463 75.3623 20.1158 75.4607 20.3119C75.5592 20.5079 75.6073 20.7244 75.6009 20.9427C75.6036 21.1018 75.573 21.2598 75.5108 21.4069C75.4487 21.5539 75.3564 21.6869 75.2397 21.7977C75.0637 21.9796 74.8341 22.1032 74.5828 22.1512C74.9312 22.2122 75.2483 22.3866 75.4827 22.6462C75.719 22.9181 75.8431 23.2665 75.8308 23.6233C75.8401 23.8837 75.7757 24.1415 75.6448 24.3684C75.5138 24.5953 75.3213 24.7823 75.0886 24.9089C74.6173 25.1646 74.0835 25.2891 73.5451 25.2689C73.1912 25.3086 72.8327 25.2748 72.4932 25.1695C72.1536 25.0643 71.8406 24.8901 71.5746 24.6582C71.2785 24.2705 71.1361 23.7909 71.174 23.3083H71.8965L71.9227 23.289Z" fill="#009580"/>
<path d="M82.4189 25.0696V19.5028H84.9346C85.1542 19.4907 85.3742 19.5214 85.5817 19.5931C85.7891 19.6648 85.98 19.7762 86.1431 19.9207C86.3501 20.1297 86.4868 20.3956 86.535 20.6829C86.5831 20.9701 86.5403 21.2649 86.4124 21.5277C86.2743 21.7787 86.0548 21.9777 85.7884 22.0934C86.0288 22.1773 86.2514 22.3037 86.4452 22.4662C86.5769 22.5953 86.6789 22.7504 86.7446 22.921C86.8103 23.0917 86.8381 23.2741 86.8262 23.4561C86.8328 23.6737 86.7916 23.8901 86.7055 24.0908C86.6194 24.2915 86.4903 24.4718 86.327 24.6196C85.9282 24.9645 85.4069 25.1422 84.8754 25.1146H82.4189V25.0696ZM83.194 20.1199V21.8555H84.5864C84.8907 21.8771 85.1947 21.81 85.46 21.6627C85.569 21.5802 85.6549 21.4721 85.71 21.3486C85.7651 21.225 85.7876 21.0899 85.7753 20.9556C85.7823 20.839 85.7603 20.7225 85.7111 20.6161C85.6619 20.5097 85.587 20.4166 85.4929 20.3449C85.2224 20.1856 84.9076 20.1137 84.593 20.1392H83.1874L83.194 20.1199ZM83.194 22.4598V24.4268H84.8426C85.1672 24.4468 85.4878 24.3483 85.7424 24.1503C85.8469 24.0547 85.9288 23.9378 85.9821 23.8078C86.0354 23.6779 86.059 23.5381 86.0511 23.3983C86.0621 23.2434 86.027 23.0887 85.9501 22.953C85.8732 22.8172 85.7577 22.7062 85.6177 22.6333C85.3374 22.5196 85.0333 22.4733 84.7309 22.4983H83.2071L83.194 22.4598Z" fill="#009580"/>
<path d="M98.8639 25.0697H98.1151V21.7913V20.3964L96.5125 25.0697H95.7506L94.1414 20.3643V25.0697H93.3926V19.5029H94.496L96.1184 24.2404L97.767 19.5029H98.8639V25.0697Z" fill="#009580"/>
<path d="M104.965 23.4626H102.679L102.082 25.0696H101.28L103.435 19.4707H104.308L106.403 25.0696H105.563L104.965 23.4626ZM102.916 22.8197H104.689L103.848 20.3578L102.916 22.8197Z" fill="#009580"/>
<path d="M109.59 20.1715V25.0697H108.814V19.5029H112.558V20.1457H109.59V20.1715Z" fill="#009580"/>
<path d="M117.612 23.4626H115.326L114.722 25.0696H113.927L116.081 19.4707H116.955L119.017 25.0696H118.176L117.612 23.4626ZM115.562 22.8197H117.336L116.495 20.3578L115.562 22.8197Z" fill="#009580"/>
<path d="M121.925 23.289C121.906 23.4845 121.938 23.6815 122.019 23.8615C122.099 24.0414 122.225 24.1983 122.384 24.3175C122.735 24.5154 123.137 24.6071 123.54 24.5811C123.878 24.5914 124.214 24.5231 124.519 24.3818C124.679 24.3148 124.814 24.2024 124.908 24.0591C125.002 23.9159 125.049 23.7483 125.045 23.5783C125.056 23.4117 125.022 23.2452 124.947 23.0952C124.872 22.9453 124.759 22.8171 124.618 22.7233C124.31 22.5474 123.955 22.4647 123.6 22.4855H123.002V21.8555H123.435C123.759 21.8665 124.08 21.7957 124.368 21.6498C124.496 21.5942 124.605 21.5043 124.683 21.3905C124.761 21.2768 124.804 21.1439 124.808 21.007C124.819 20.844 124.781 20.6813 124.698 20.5395C124.615 20.3977 124.491 20.283 124.342 20.2099C124.049 20.0885 123.732 20.0319 123.414 20.0441C123.096 20.0563 122.785 20.1371 122.503 20.2806C122.349 20.3728 122.223 20.5037 122.139 20.6598C122.054 20.8159 122.014 20.9914 122.023 21.1677H121.301C121.295 20.7508 121.45 20.3471 121.734 20.0364C121.975 19.8048 122.264 19.6273 122.581 19.5162C122.899 19.4052 123.237 19.3633 123.573 19.3936C124.096 19.3715 124.612 19.5208 125.038 19.8178C125.218 19.9463 125.364 20.1158 125.463 20.3119C125.561 20.5079 125.609 20.7244 125.603 20.9427C125.606 21.1018 125.575 21.2598 125.513 21.4069C125.451 21.5539 125.358 21.6869 125.242 21.7977C125.066 21.9796 124.836 22.1032 124.585 22.1512C124.933 22.2122 125.25 22.3866 125.485 22.6462C125.721 22.9181 125.845 23.2665 125.833 23.6233C125.842 23.8837 125.778 24.1415 125.647 24.3684C125.516 24.5953 125.323 24.7823 125.091 24.9089C124.619 25.1646 124.085 25.2891 123.547 25.2689C123.193 25.3086 122.835 25.2748 122.495 25.1695C122.156 25.0643 121.843 24.8901 121.577 24.6582C121.28 24.2705 121.138 23.7909 121.176 23.3083H121.898L121.925 23.289Z" fill="#009580"/>
<path d="M129.25 19.5029V24.0862L132.153 19.5029H133.033V25.0697H132.258V20.57L129.394 25.0697H128.475V19.5029H129.25Z" fill="#009580"/>
<path d="M139.757 21.817V19.5029H140.558V25.0697H139.783V22.4984H136.795V25.0697H136.02V19.5029H136.795V21.817H139.783H139.757Z" fill="#009580"/>
<path d="M31.9872 15.1382H11.166C11.0197 15.1382 10.8793 15.1951 10.7759 15.2963C10.6724 15.3976 10.6143 15.5349 10.6143 15.6781V23.334C10.6143 23.4772 10.6724 23.6146 10.7759 23.7158C10.8793 23.8171 11.0197 23.874 11.166 23.874H31.9872C32.1335 23.874 32.2738 23.8171 32.3773 23.7158C32.4808 23.6146 32.5389 23.4772 32.5389 23.334V15.6781C32.5389 15.5349 32.4808 15.3976 32.3773 15.2963C32.2738 15.1951 32.1335 15.1382 31.9872 15.1382ZM21.5897 23.199C19.2514 22.2798 17.7342 20.7242 17.7342 18.5644C17.7342 16.8866 19.8426 15.1189 21.5963 17.0409C23.35 15.1125 25.4584 16.8931 25.4584 18.5644C25.4518 20.7242 23.9346 22.2798 21.5897 23.199Z" fill="#009580"/>
<path d="M34.1737 24.9216H9.011C8.74982 24.9216 8.53809 25.1288 8.53809 25.3845C8.53809 25.6401 8.74982 25.8473 9.011 25.8473H34.1737C34.4349 25.8473 34.6467 25.6401 34.6467 25.3845C34.6467 25.1288 34.4349 24.9216 34.1737 24.9216Z" fill="#009580"/>
<path d="M11.2056 8.66504H13.511L12.6506 12.7083C12.6506 12.7083 12.4536 14.2061 10.4437 14.2061C10.2431 14.2314 10.0391 14.2086 9.84949 14.1396C9.65985 14.0707 9.49019 13.9577 9.3551 13.8103C9.22002 13.6629 9.12357 13.4856 9.07407 13.2936C9.02457 13.1017 9.02349 12.9008 9.07094 12.7083L10.1087 9.49427C10.2093 9.27946 10.3617 9.09177 10.5527 8.94733C10.7438 8.80289 10.9678 8.70602 11.2056 8.66504Z" fill="#009580"/>
<path d="M17.3353 8.66504H14.0183L13.3615 12.5798C13.3476 12.7906 13.3803 13.002 13.4572 13.1994C13.5342 13.3968 13.6537 13.5757 13.8077 13.7239C13.9616 13.8721 14.1463 13.9861 14.3493 14.0582C14.5522 14.1303 14.7686 14.1588 14.9839 14.1418C15.4548 14.1582 15.9155 14.005 16.2787 13.7112C16.6418 13.4174 16.8822 13.0034 16.9543 12.5476L17.3353 8.66504Z" fill="#009580"/>
<path d="M21.2812 8.66504H17.9643L17.7344 12.5733C17.7426 12.793 17.796 13.0087 17.8914 13.2076C17.9869 13.4066 18.1224 13.5846 18.2898 13.7311C18.4573 13.8775 18.6532 13.9894 18.8659 14.06C19.0785 14.1306 19.3036 14.1584 19.5275 14.1418C19.7544 14.1548 19.9818 14.1239 20.1964 14.0508C20.4111 13.9776 20.609 13.8638 20.7786 13.7157C20.9482 13.5676 21.0863 13.3881 21.185 13.1877C21.2836 12.9873 21.3409 12.7698 21.3534 12.5476L21.2812 8.66504Z" fill="#009580"/>
<path d="M31.9822 8.66504H29.6768L30.7736 12.7083C30.7736 12.7083 31.0626 14.2061 33.0725 14.2061C33.2727 14.2396 33.4784 14.2218 33.6695 14.1543C33.8605 14.0869 34.0305 13.9722 34.1628 13.8213C34.2951 13.6705 34.3852 13.4887 34.4244 13.2936C34.4635 13.0986 34.4503 12.8969 34.3862 12.7083L33.1579 9.49427C33.0414 9.27601 32.8745 9.08738 32.6704 8.94342C32.4663 8.79945 32.2306 8.70413 31.9822 8.66504Z" fill="#009580"/>
<path d="M25.8545 8.66504H29.1714L30.0713 12.5798C30.1 12.7865 30.0806 12.9969 30.0145 13.1953C29.9483 13.3936 29.8371 13.5747 29.6892 13.725C29.5414 13.8753 29.3606 13.9908 29.1606 14.063C28.9606 14.1352 28.7465 14.1621 28.5343 14.1418C28.0551 14.151 27.5874 13.9971 27.2113 13.7063C26.8351 13.4156 26.5738 13.006 26.4719 12.5476L25.8545 8.66504Z" fill="#009580"/>
<path d="M21.8984 8.66504H25.2219L25.6752 12.5798C25.6815 12.7943 25.6414 13.0078 25.5576 13.2062C25.4737 13.4045 25.348 13.5833 25.1886 13.7308C25.0292 13.8783 24.8398 13.9911 24.6328 14.062C24.4257 14.1328 24.2057 14.16 23.9871 14.1418C23.5211 14.1613 23.0647 14.0079 22.7091 13.7124C22.3535 13.4168 22.125 13.0009 22.0692 12.5476L21.8984 8.66504Z" fill="#009580"/>
</svg>
