<svg width="250" height="36" viewBox="0 0 250 36" fill="none" xmlns="http://www.w3.org/2000/svg">
<path d="M63.5765 7.98975V20.7484H59.3807V10.9449H55.4052V20.7484H51.2095V7.98975H63.6027H63.5765Z" fill="#E85F27"/>
<path d="M74.0765 7.98975L78.6709 20.7484H74.4751L73.9507 19.0649H69.7549L69.2724 20.7484H65.1553L69.7549 7.98975H74.0346H74.0765ZM73.2584 16.4069L71.9052 11.8361L70.6045 16.4069H73.2636H73.2584Z" fill="#E85F27"/>
<path d="M92.8314 7.98975V20.7484H88.6356V10.9449H85.6199V14.5932C85.6199 19.7321 83.9993 21.009 81.592 21.009C80.8231 21.0189 80.0562 20.9295 79.3105 20.7432V17.7724C79.6197 17.8736 79.9453 17.9161 80.2703 17.8975C81.1095 17.8975 81.592 17.5587 81.592 14.5671V7.98975H92.8314Z" fill="#E85F27"/>
<path d="M99.7019 12.4355H101.7C104.947 12.4355 106.997 13.8896 106.997 16.6727C106.997 19.4558 104.983 20.7484 101.648 20.7484H95.4956V7.98975H99.6914V12.4355H99.7019ZM99.7019 17.7672H101.275C102.324 17.7672 103.095 17.5535 103.095 16.5997C103.095 15.4844 102.114 15.4114 100.777 15.4114H99.7281V17.7724L99.7019 17.7672ZM113.023 20.7432H108.828V7.98975H113.023V20.7484V20.7432Z" fill="#E85F27"/>
<path d="M119.726 7.99V11.2839C119.726 12.295 120.314 12.7536 121.331 12.7536C121.98 12.7637 122.626 12.6813 123.251 12.5087V7.97437H127.447V20.7486H123.251V15.5941C122.501 15.7713 121.966 15.8755 119.737 15.8755C117.849 15.8755 115.541 14.7081 115.541 11.9406V7.99H119.737H119.726Z" fill="#E85F27"/>
<path d="M129.544 15.7085H137.821V17.5326H129.544V15.7085Z" fill="#E85F27"/>
<path d="M140.558 12.8627C140.899 9.58448 143.092 7.65088 147.015 7.65088C150.597 7.65088 153.418 10.2203 153.418 14.3481C153.418 18.4759 150.849 21.0818 146.6 21.0818C143.212 21.0818 140.831 19.0961 140.469 15.8022H144.518C144.681 17.027 145.321 17.9651 146.674 17.9651C148.42 17.9651 149.029 16.8133 149.17 15.4113H146.422V13.0921H149.081C148.798 11.5702 147.995 10.7728 146.836 10.7728C146.547 10.7522 146.256 10.7906 145.982 10.8857C145.708 10.9808 145.456 11.1305 145.243 11.3258C145.029 11.521 144.858 11.7576 144.74 12.021C144.621 12.2844 144.558 12.5691 144.555 12.8575H140.558V12.8627Z" fill="#E85F27"/>
<path d="M158.695 12.1175L162.366 7.98975H167.306L162.618 12.7899L167.831 20.7484H162.785L159.702 15.6616L158.705 16.704V20.7432H154.509V7.98975H158.705V12.1175H158.695Z" fill="#E85F27"/>
<path d="M175.866 12.8629C175.863 12.5742 175.801 12.2892 175.683 12.0254C175.565 11.7617 175.394 11.5248 175.18 11.3294C174.966 11.134 174.714 10.9843 174.44 10.8894C174.165 10.7946 173.874 10.7568 173.584 10.7782C172.105 10.7782 171.214 12.0342 171.214 14.4994C171.214 16.2871 171.607 17.9705 173.747 17.9705C175.1 17.9705 175.745 17.0324 175.903 15.8076H179.952C179.579 19.1015 177.203 21.0872 173.815 21.0872C169.572 21.0872 166.997 18.4813 166.997 14.3535C166.997 10.2257 169.813 7.65625 173.396 7.65625C177.319 7.65625 179.511 9.58985 179.852 12.8681H175.855L175.866 12.8629Z" fill="#E85F27"/>
<path d="M193.231 7.98975V20.7484H189.036V10.9449H185.06V20.7484H180.864V7.98975H193.258H193.231Z" fill="#E85F27"/>
<path d="M199.047 20.7484H194.852V7.98975H201.04C204.712 7.98975 206.516 9.67317 206.516 12.2947C206.516 15.0414 204.874 16.7769 201.182 16.7769H199.084V20.7484H199.047ZM199.047 13.801H200.794C201.775 13.801 202.488 13.4101 202.488 12.3104C202.488 11.1221 201.135 10.9657 200.243 10.9657H199.047V13.801Z" fill="#E85F27"/>
<path d="M218.017 7.98975V10.9449H211.76V12.769H217.058V15.745H211.76V17.7724H218.269V20.7484H207.554V7.98975H218.044H218.017Z" fill="#E85F27"/>
<path d="M227.736 12.8629C227.732 12.5745 227.67 12.2898 227.551 12.0264C227.433 11.763 227.262 11.5264 227.048 11.3312C226.834 11.1359 226.583 10.9861 226.309 10.891C226.035 10.7959 225.744 10.7575 225.454 10.7782C223.975 10.7782 223.084 12.0342 223.084 14.4994C223.084 16.2871 223.477 17.9705 225.617 17.9705C226.97 17.9705 227.615 17.0324 227.773 15.8076H231.816C231.444 19.1015 229.068 21.0872 225.68 21.0872C221.437 21.0872 218.862 18.4813 218.862 14.3535C218.862 10.2257 221.678 7.65625 225.266 7.65625C229.189 7.65625 231.381 9.58985 231.722 12.8681H227.725L227.736 12.8629Z" fill="#E85F27"/>
<path d="M241.021 12.8629C241.018 12.5745 240.955 12.2898 240.836 12.0264C240.718 11.763 240.547 11.5264 240.333 11.3312C240.12 11.1359 239.868 10.9861 239.594 10.891C239.32 10.7959 239.029 10.7575 238.74 10.7782C237.261 10.7782 236.369 12.0342 236.369 14.4994C236.369 16.2871 236.762 17.9705 238.902 17.9705C240.255 17.9705 240.901 17.0324 241.058 15.8076H245.107C244.734 19.1015 242.359 21.0872 238.97 21.0872C234.727 21.0872 232.152 18.4813 232.152 14.3535C232.152 10.2257 234.963 7.65625 238.561 7.65625C242.484 7.65625 244.677 9.58985 245.018 12.8681H241.021V12.8629Z" fill="#E85F27"/>
<path d="M50.7849 30.4684C51.1056 29.8263 51.3317 29.1418 51.4562 28.4357C51.5543 27.6964 51.5964 26.9507 51.5821 26.2051V23.8076H56.5646V30.4684H57.2359V33.0117H56.3023V31.3752H51.0576V33.0117H50.145V30.4684H50.7849ZM52.61 24.7353V26.424C52.6241 27.1492 52.5785 27.8743 52.4737 28.5921C52.3501 29.2523 52.131 29.8913 51.8233 30.4892H55.5366V24.7562H52.61V24.7353Z" fill="#E85F27"/>
<path d="M71.3862 27.5966C71.4129 28.5252 71.141 29.438 70.61 30.2025C70.2558 30.6322 69.81 30.9785 69.3048 31.2162C68.7996 31.4539 68.2476 31.5772 67.6887 31.5772C67.1297 31.5772 66.5777 31.4539 66.0725 31.2162C65.5673 30.9785 65.1215 30.6322 64.7673 30.2025C64.2559 29.4284 63.9834 28.5226 63.9834 27.5966C63.9834 26.6706 64.2559 25.7648 64.7673 24.9907C65.1215 24.561 65.5673 24.2147 66.0725 23.977C66.5777 23.7393 67.1297 23.616 67.6887 23.616C68.2476 23.616 68.7996 23.7393 69.3048 23.977C69.81 24.2147 70.2558 24.561 70.61 24.9907C71.142 25.7547 71.414 26.6679 71.3862 27.5966ZM70.3372 27.5966C70.3732 26.7973 70.1202 26.0116 69.624 25.3816C69.3782 25.1128 69.0786 24.8981 68.7444 24.7512C68.4102 24.6043 68.0488 24.5284 67.6834 24.5284C67.318 24.5284 66.9566 24.6043 66.6224 24.7512C66.2882 24.8981 65.9887 25.1128 65.7429 25.3816C65.2485 26.0123 64.9974 26.798 65.0348 27.5966C64.9989 28.3959 65.2519 29.1816 65.7481 29.8116C65.9939 30.0804 66.2935 30.2951 66.6277 30.442C66.9618 30.5889 67.3232 30.6648 67.6887 30.6648C68.0541 30.6648 68.4155 30.5889 68.7497 30.442C69.0838 30.2951 69.3834 30.0804 69.6292 29.8116C70.1235 29.1809 70.3747 28.3952 70.3372 27.5966Z" fill="#E85F27"/>
<path d="M85.0328 26.0906H84.0363C83.9915 25.8263 83.8883 25.5752 83.7341 25.3553C83.58 25.1354 83.3787 24.9522 83.1447 24.8189C82.7643 24.6175 82.338 24.5169 81.907 24.527C81.5758 24.5154 81.246 24.5767 80.9414 24.7064C80.6368 24.8362 80.3647 25.0312 80.1448 25.2775C79.6287 25.9097 79.3704 26.7114 79.421 27.5238C79.366 28.3046 79.5488 29.0836 79.9455 29.7597C80.169 30.0655 80.4676 30.3094 80.8127 30.4681C81.1579 30.6269 81.5382 30.6952 81.9175 30.6666C82.3497 30.6738 82.7728 30.5422 83.1238 30.2913C83.6547 29.8705 84.0006 29.2614 84.0888 28.5923H85.0853C85.0061 29.3521 84.6866 30.0673 84.1727 30.6353C83.7912 31.0183 83.3129 31.292 82.7881 31.4275C82.447 31.5245 82.0939 31.5736 81.7392 31.5735C81.3035 31.5896 80.8691 31.5165 80.4631 31.3587C80.0571 31.2009 79.6881 30.9617 79.379 30.6562C79.0023 30.2313 78.7154 29.7356 78.5352 29.1984C78.355 28.6612 78.2852 28.0935 78.3301 27.5291C78.2807 26.4939 78.621 25.4776 79.2846 24.6782C79.9136 24.0498 80.7513 23.6705 81.6412 23.611C82.531 23.5515 83.4123 23.816 84.1203 24.355C84.6399 24.7937 84.9673 25.4162 85.0328 26.0906Z" fill="#E85F27"/>
<path d="M91.7827 24.7145V23.8076H97.961V24.7145H95.3806V31.3752H94.3631V24.7145H91.7827Z" fill="#E85F27"/>
<path d="M108.445 29.1864H105.419L104.622 31.3962H103.573L106.436 23.8286H107.601L110.349 31.3962H109.227L108.445 29.1864ZM105.718 28.2795H108.078L106.956 24.9544L105.718 28.2795Z" fill="#E85F27"/>
<path d="M117.319 31.3754V23.8078H120.665C120.957 23.7918 121.249 23.8332 121.525 23.9298C121.8 24.0264 122.053 24.1763 122.27 24.3707C122.545 24.6527 122.727 25.0116 122.791 25.3992C122.855 25.7868 122.797 26.1845 122.627 26.5388C122.442 26.8756 122.151 27.1429 121.798 27.2998C122.122 27.4176 122.421 27.5943 122.679 27.8209C122.856 27.9944 122.994 28.2028 123.084 28.4327C123.175 28.6625 123.215 28.9087 123.204 29.1552C123.21 29.4473 123.155 29.7374 123.041 30.0067C122.927 30.2761 122.757 30.5187 122.543 30.7187C122.012 31.1837 121.319 31.4232 120.613 31.3858H117.34L117.319 31.3754ZM118.368 24.6834V27.0079H120.225C120.63 27.0367 121.035 26.9461 121.389 26.7473C121.535 26.6353 121.649 26.4887 121.722 26.3211C121.796 26.1535 121.825 25.9703 121.809 25.7883C121.819 25.6313 121.79 25.4743 121.725 25.3309C121.66 25.1874 121.561 25.0618 121.436 24.9648C121.076 24.7478 120.656 24.6493 120.235 24.6834H118.368ZM118.368 27.8418V30.4998H120.561C120.993 30.5295 121.422 30.3975 121.762 30.1298C121.905 29.9979 122.016 29.8357 122.088 29.6553C122.16 29.475 122.19 29.2809 122.176 29.0874C122.193 28.8767 122.147 28.6658 122.044 28.4806C121.942 28.2954 121.787 28.144 121.599 28.0451C121.223 27.8676 120.809 27.7853 120.393 27.8053H118.368V27.8418Z" fill="#E85F27"/>
<path d="M131.49 23.8076V29.9993H131.532L135.392 23.8076H136.567V31.3752H135.518V25.2669L131.642 31.3752H130.457V23.8076H131.506H131.49Z" fill="#E85F27"/>
<path d="M151.483 31.3752H150.487V26.9035L150.523 25.0168L148.363 31.3752H147.345L145.2 25.0168V31.3752H144.204V23.8076H145.672L147.833 30.2286L149.999 23.8076H151.457V31.3752H151.483Z" fill="#E85F27"/>
<path d="M173.522 24.7145H169.19V26.9973H171.707C172.035 26.9752 172.364 27.0254 172.671 27.1443C172.977 27.2632 173.253 27.4479 173.48 27.6852C173.848 28.1216 174.035 28.6804 174.004 29.2488C174.006 29.5329 173.945 29.8141 173.828 30.0731C173.71 30.3321 173.538 30.5629 173.322 30.7498C172.885 31.1571 172.306 31.3811 171.707 31.3752H168.162V23.8076H173.522V24.7145ZM169.19 27.8729V30.4788H171.445C171.817 30.4962 172.185 30.3939 172.494 30.1869C172.642 30.0695 172.76 29.9181 172.837 29.7456C172.913 29.5732 172.947 29.3848 172.934 29.1967C172.95 29.0016 172.919 28.8057 172.844 28.6246C172.769 28.4436 172.653 28.2825 172.504 28.1543C172.171 27.9423 171.777 27.8436 171.382 27.8729H169.169H169.19Z" fill="#E85F27"/>
<path d="M182.333 23.8076V26.9973H184.85C185.178 26.9779 185.505 27.0337 185.807 27.1602C186.109 27.2867 186.377 27.4807 186.592 27.7269C186.945 28.1551 187.131 28.6954 187.116 29.2488C187.127 29.5321 187.078 29.8145 186.973 30.0782C186.869 30.3419 186.71 30.5812 186.508 30.7811C186.287 30.9845 186.028 31.1419 185.745 31.244C185.462 31.346 185.161 31.3907 184.861 31.3752H181.315V23.8076H182.364H182.333ZM182.333 27.8729V30.4788H184.536C184.905 30.4974 185.271 30.4028 185.585 30.2078C185.736 30.0925 185.855 29.9414 185.932 29.7684C186.009 29.5954 186.041 29.406 186.025 29.2175C186.043 29.0241 186.015 28.8293 185.944 28.6484C185.873 28.4674 185.761 28.3054 185.616 28.1752C185.281 27.9451 184.879 27.8332 184.473 27.8572H182.312L182.333 27.8729ZM189.078 23.8076V31.3752H188.029V23.8076H189.078Z" fill="#E85F27"/>
<path d="M203.112 26.0906H202.116C202.071 25.8263 201.967 25.5752 201.813 25.3553C201.659 25.1354 201.458 24.9522 201.224 24.8189C200.843 24.6175 200.417 24.5169 199.986 24.527C199.655 24.5154 199.325 24.5767 199.021 24.7064C198.716 24.8362 198.444 25.0312 198.224 25.2775C197.708 25.9097 197.45 26.7114 197.5 27.5238C197.445 28.3046 197.628 29.0836 198.025 29.7597C198.248 30.0655 198.547 30.3094 198.892 30.4681C199.237 30.6269 199.617 30.6952 199.997 30.6666C200.429 30.6738 200.852 30.5422 201.203 30.2913C201.734 29.8705 202.08 29.2614 202.168 28.5923H203.164C203.085 29.3521 202.766 30.0673 202.252 30.6353C201.872 31.0175 201.395 31.2911 200.873 31.4275C200.531 31.5245 200.178 31.5736 199.824 31.5735C199.388 31.5896 198.954 31.5165 198.548 31.3587C198.142 31.2009 197.773 30.9617 197.464 30.6562C197.087 30.2313 196.8 29.7356 196.62 29.1984C196.439 28.6612 196.37 28.0935 196.415 27.5291C196.365 26.4939 196.705 25.4776 197.369 24.6782C197.998 24.0498 198.836 23.6705 199.726 23.611C200.615 23.5515 201.497 23.816 202.205 24.355C202.722 24.7946 203.048 25.417 203.112 26.0906Z" fill="#E85F27"/>
<path d="M209.857 24.7145V23.8076H216.035V24.7145H213.46V31.3752H212.411V24.7145H209.831H209.857Z" fill="#E85F27"/>
<path d="M224.207 28.1856V31.3753H223.158V23.8077H226.588C226.888 23.7922 227.189 23.8369 227.472 23.9389C227.755 24.041 228.014 24.1984 228.235 24.4018C228.437 24.6017 228.595 24.841 228.7 25.1047C228.805 25.3684 228.854 25.6508 228.843 25.9341C228.855 26.4871 228.669 27.0264 228.319 27.456C228.103 27.704 227.833 27.899 227.529 28.0256C227.225 28.1523 226.896 28.207 226.567 28.1856H224.165H224.207ZM224.207 24.6833V27.2892H226.252C226.648 27.3173 227.043 27.2148 227.374 26.9973C227.526 26.8646 227.644 26.6982 227.719 26.5116C227.793 26.3251 227.823 26.1236 227.805 25.9237C227.821 25.742 227.792 25.5591 227.721 25.391C227.65 25.2229 227.538 25.0747 227.395 24.9595C227.07 24.746 226.684 24.6419 226.294 24.6624H224.196L224.207 24.6833Z" fill="#E85F27"/>
<path d="M243.245 27.5966C243.271 28.5252 242.999 29.438 242.468 30.2025C242.114 30.6322 241.668 30.9785 241.163 31.2162C240.658 31.4539 240.106 31.5772 239.547 31.5772C238.988 31.5772 238.436 31.4539 237.931 31.2162C237.426 30.9785 236.98 30.6322 236.626 30.2025C236.114 29.4284 235.842 28.5226 235.842 27.5966C235.842 26.6706 236.114 25.7648 236.626 24.9907C236.98 24.561 237.426 24.2147 237.931 23.977C238.436 23.7393 238.988 23.616 239.547 23.616C240.106 23.616 240.658 23.7393 241.163 23.977C241.668 24.2147 242.114 24.561 242.468 24.9907C243 25.7547 243.272 26.6679 243.245 27.5966ZM242.196 27.5966C242.232 26.7973 241.979 26.0116 241.482 25.3816C241.237 25.1128 240.937 24.8981 240.603 24.7512C240.269 24.6043 239.907 24.5284 239.542 24.5284C239.176 24.5284 238.815 24.6043 238.481 24.7512C238.147 24.8981 237.847 25.1128 237.601 25.3816C237.105 26.0116 236.852 26.7973 236.888 27.5966C236.848 28.3939 237.095 29.1794 237.586 29.8116C237.831 30.0804 238.131 30.2951 238.465 30.442C238.799 30.5889 239.161 30.6648 239.526 30.6648C239.891 30.6648 240.253 30.5889 240.587 30.442C240.921 30.2951 241.221 30.0804 241.467 29.8116C241.968 29.1837 242.227 28.3978 242.196 27.5966Z" fill="#E85F27"/>
<path d="M22.1586 32.3604C19.7233 32.3538 17.327 31.7516 15.1813 30.6069C13.0356 29.4622 11.2064 27.8103 9.8552 25.7969C8.50396 23.7836 7.67221 21.4706 7.43336 19.0622C7.1945 16.6538 7.55588 14.224 8.4856 11.9872C9.32526 9.97749 10.6031 8.17785 12.227 6.71799C13.8509 5.25813 15.7804 4.17439 17.8766 3.54488C19.9727 2.91536 22.1833 2.75574 24.349 3.07751C26.5148 3.39928 28.5817 4.19443 30.4009 5.40567C32.2201 6.6169 33.7463 8.21407 34.8695 10.0821C35.9928 11.9501 36.685 14.0424 36.8964 16.2083C37.1078 18.3742 36.8332 20.5598 36.0922 22.6075C35.3512 24.6552 34.1623 26.5141 32.6113 28.0502C31.2425 29.4199 29.6138 30.5062 27.8195 31.246C26.0253 31.9859 24.1012 32.3647 22.1586 32.3604ZM22.1586 4.43525C19.5375 4.44283 16.9774 5.22133 14.8009 6.67261C12.6244 8.12389 10.9289 10.183 9.92826 12.5904C8.92761 14.9977 8.66653 17.6456 9.17794 20.2002C9.68935 22.7548 10.9504 25.1018 12.802 26.9453C14.0258 28.1735 15.4834 29.1476 17.0898 29.8106C18.6961 30.4736 20.4192 30.8124 22.1586 30.8072C25.6314 30.7386 28.9387 29.3195 31.3703 26.8546C33.8019 24.3897 35.1639 21.0756 35.1639 17.6239C35.1639 14.1721 33.8019 10.858 31.3703 8.39309C28.9387 5.9282 25.6314 4.50908 22.1586 4.44046V4.43525Z" fill="#E85F27"/>
<path d="M22.1588 4.44043C19.5388 4.44903 16.9799 5.22789 14.8046 6.67891C12.6292 8.12994 10.9345 10.1882 9.93409 12.5945C8.93365 15.0008 8.67215 17.6475 9.18253 20.2012C9.69291 22.7549 10.9523 25.1015 12.8022 26.9452C14.026 28.1735 15.4836 29.1475 17.09 29.8106C18.6963 30.4736 20.4194 30.8124 22.1588 30.8072C25.6316 30.7386 28.9389 29.3195 31.3705 26.8546C33.8021 24.3897 35.1641 21.0756 35.1641 17.6238C35.1641 14.1721 33.8021 10.858 31.3705 8.39306C28.9389 5.92816 25.6316 4.50905 22.1588 4.44043Z" fill="white"/>
<path d="M22.1589 6.77569C21.9516 6.77569 21.7529 6.69387 21.6063 6.54824C21.4598 6.4026 21.3774 6.20508 21.3774 5.99912V4.82646C21.3774 4.61912 21.4603 4.42027 21.6079 4.27366C21.7554 4.12704 21.9555 4.04468 22.1641 4.04468C22.3728 4.04468 22.5729 4.12704 22.7204 4.27366C22.868 4.42027 22.9509 4.61912 22.9509 4.82646V5.9887C22.9523 6.09244 22.9327 6.1954 22.8935 6.29152C22.8542 6.38763 22.7959 6.47495 22.722 6.54831C22.6482 6.62167 22.5604 6.67959 22.4636 6.71864C22.3669 6.75769 22.2633 6.77709 22.1589 6.77569Z" fill="#E85F27"/>
<path d="M22.1589 31.2138C21.9517 31.2138 21.7529 31.1319 21.6063 30.9863C21.4598 30.8407 21.3774 30.6431 21.3774 30.4372V29.2749C21.3774 29.0676 21.4603 28.8688 21.6079 28.7221C21.7554 28.5755 21.9555 28.4932 22.1642 28.4932C22.3728 28.4932 22.5729 28.5755 22.7204 28.7221C22.868 28.8688 22.9509 29.0676 22.9509 29.2749V30.4372C22.9509 30.5401 22.9303 30.6419 22.8904 30.7368C22.8505 30.8317 22.792 30.9178 22.7183 30.99C22.6446 31.0623 22.5572 31.1193 22.4612 31.1577C22.3652 31.1961 22.2624 31.2151 22.1589 31.2138Z" fill="#E85F27"/>
<path d="M35.0085 18.4029H33.8389C33.6303 18.4029 33.4302 18.3205 33.2827 18.1739C33.1351 18.0273 33.0522 17.8285 33.0522 17.6211C33.0522 17.4138 33.1351 17.2149 33.2827 17.0683C33.4302 16.9217 33.6303 16.8394 33.8389 16.8394H35.0085C35.2172 16.8394 35.4173 16.9217 35.5648 17.0683C35.7123 17.2149 35.7952 17.4138 35.7952 17.6211C35.7952 17.8285 35.7123 18.0273 35.5648 18.1739C35.4173 18.3205 35.2172 18.4029 35.0085 18.4029Z" fill="#E85F27"/>
<path d="M26.832 21.0872C26.6939 21.0876 26.5581 21.0516 26.4386 20.9829L21.7656 18.2988C21.6473 18.2304 21.5492 18.1322 21.4811 18.0142C21.4129 17.8962 21.3772 17.7625 21.3774 17.6265V10.6426C21.3774 10.4353 21.4603 10.2364 21.6079 10.0898C21.7554 9.94321 21.9555 9.86084 22.1642 9.86084C22.3728 9.86084 22.5729 9.94321 22.7204 10.0898C22.868 10.2364 22.9509 10.4353 22.9509 10.6426V17.1991L27.2305 19.6591C27.3702 19.749 27.4774 19.8808 27.5365 20.0354C27.5956 20.19 27.6034 20.3593 27.5589 20.5186C27.5145 20.6779 27.42 20.819 27.2892 20.9213C27.1585 21.0235 26.9983 21.0817 26.832 21.0872Z" fill="#E85F27"/>
<path d="M20.3654 16.3809V5.63403C17.9571 5.74047 15.6636 6.68717 13.8882 8.30771L20.3654 16.3809Z" fill="#E85F27"/>
<path d="M19.8146 18.0383H9.84961C9.91491 21.0991 11.0987 24.0316 13.18 26.2887L19.8146 18.0383Z" fill="#E85F27"/>
<path fill-rule="evenodd" clip-rule="evenodd" d="M13.8042 26.8983C15.5922 28.5605 17.9193 29.5328 20.3653 29.6397V18.6948L13.8042 26.8983ZM17.8898 27.4195C17.6409 27.4195 17.3975 27.3461 17.1905 27.2087C16.9835 27.0712 16.8222 26.8759 16.7269 26.6473C16.6316 26.4187 16.6067 26.1672 16.6553 25.9246C16.7039 25.682 16.8237 25.4591 16.9998 25.2841C17.1758 25.1092 17.4001 24.9901 17.6443 24.9418C17.8884 24.8935 18.1415 24.9183 18.3715 25.013C18.6015 25.1077 18.7981 25.268 18.9364 25.4737C19.0747 25.6794 19.1486 25.9212 19.1486 26.1686C19.15 26.3342 19.1183 26.4984 19.0553 26.6517C18.9923 26.805 18.8994 26.9444 18.7818 27.0617C18.6642 27.179 18.5243 27.272 18.3703 27.3352C18.2163 27.3984 18.0512 27.4306 17.8846 27.4299L17.8898 27.4195Z" fill="#E85F27"/>
<path fill-rule="evenodd" clip-rule="evenodd" d="M13.2692 8.91235C11.1813 11.1335 9.97393 14.0312 9.87061 17.0689H19.8356L13.2692 8.91235ZM13.3479 15.276C13.0989 15.276 12.8555 15.2027 12.6485 15.0652C12.4415 14.9278 12.2802 14.7324 12.1849 14.5039C12.0897 14.2753 12.0647 14.0238 12.1133 13.7812C12.1619 13.5385 12.2818 13.3156 12.4578 13.1407C12.6338 12.9658 12.8581 12.8466 13.1023 12.7984C13.3465 12.7501 13.5995 12.7749 13.8295 12.8696C14.0596 12.9642 14.2561 13.1245 14.3945 13.3302C14.5328 13.5359 14.6066 13.7778 14.6066 14.0252C14.6066 14.1899 14.5739 14.353 14.5103 14.5051C14.4467 14.6572 14.3535 14.7953 14.2361 14.9115C14.1186 15.0277 13.9792 15.1198 13.8259 15.1823C13.6726 15.2449 13.5083 15.2767 13.3426 15.276H13.3479Z" fill="#E85F27"/>
</svg>
