<svg width="192" height="25" viewBox="0 0 192 25" fill="none" xmlns="http://www.w3.org/2000/svg">
<path d="M13.1849 0.333984V12.9026H9.04937V3.26866H5.15408V12.9026H1.01855V0.333984H13.1849Z" fill="#E85F27"/>
<path d="M23.4877 0.333984L28.0351 12.9026H23.891L23.4019 11.2428H19.2921L18.8202 12.9026H14.7705L19.2835 0.333984H23.4877ZM22.6812 8.62465L21.3599 4.12425L20.0815 8.62465H22.6555H22.6812Z" fill="#E85F27"/>
<path d="M41.8928 0.333984V12.9026H37.7573V3.26866H34.7972V6.84502C34.7972 11.9101 33.2014 13.1593 30.8419 13.1593C30.0871 13.168 29.3343 13.0789 28.6025 12.894V9.96792C28.9069 10.066 29.227 10.1066 29.5463 10.0877C30.4043 10.0877 30.8419 9.75403 30.8419 6.80224V0.333984H41.8843H41.8928Z" fill="#E85F27"/>
<path d="M48.6325 4.7146H50.5887C53.7718 4.7146 55.7881 6.14344 55.7881 8.88988C55.7881 11.6363 53.8061 12.9026 50.5372 12.9026H44.5312V0.333984H48.6325V4.7146ZM48.6325 9.96793H50.1511C51.1635 9.96793 51.9357 9.76258 51.9357 8.81288C51.9357 7.70917 50.9748 7.64072 49.662 7.64072H48.6325V9.95937V9.96793ZM61.7083 12.9026H57.5813V0.333984H61.7083V12.9026Z" fill="#E85F27"/>
<path d="M68.3029 0.333984V3.61089C68.2838 3.81691 68.3127 4.02455 68.3873 4.21761C68.4619 4.41067 68.5802 4.58394 68.7331 4.72389C68.8859 4.86385 69.069 4.96672 69.2682 5.02447C69.4675 5.08222 69.6774 5.0933 69.8816 5.05684C70.5125 5.07146 71.1423 4.99656 71.7521 4.83439V0.333984H75.879V12.9026H71.7521V7.82039C70.6268 8.07314 69.4717 8.16817 68.3201 8.10274C67.7891 8.13671 67.2569 8.06161 66.7562 7.88209C66.2555 7.70258 65.7972 7.42248 65.4095 7.05913C65.0218 6.69579 64.713 6.25694 64.5023 5.76976C64.2916 5.28259 64.1835 4.75747 64.1846 4.22692V0.333984H68.3201H68.3029Z" fill="#E85F27"/>
<path d="M77.9258 7.94067H86.051V9.73741H77.9258V7.94067Z" fill="#E85F27"/>
<path d="M88.7657 5.13354C89.1003 1.90797 91.2539 0 95.0977 0C98.6155 0 101.378 2.56677 101.378 6.5966C101.378 10.6264 98.8557 13.2274 94.6944 13.2274C91.3654 13.2274 89.0403 11.2681 88.6885 8.02543H92.661C92.8154 9.23181 93.4503 10.1558 94.7802 10.1558C96.4962 10.1558 97.0882 9.01791 97.2341 7.64041H94.54V5.32177H97.114C96.8308 3.82449 96.0415 3.03734 94.9089 3.03734C94.6239 3.01622 94.3375 3.05378 94.0676 3.14769C93.7977 3.2416 93.5501 3.38984 93.3401 3.58322C93.13 3.77659 92.9621 4.01097 92.8468 4.27178C92.7315 4.53259 92.6711 4.81427 92.6696 5.09931H88.7485L88.7657 5.13354Z" fill="#E85F27"/>
<path d="M106.543 4.40659L110.164 0.34254H115.011L110.404 5.0654L115.5 12.9026H110.55L107.53 7.88884L106.552 8.91555V12.894H102.416V0.333984H106.552V4.39804L106.543 4.40659Z" fill="#E85F27"/>
<path d="M123.402 5.13354C123.4 4.84849 123.34 4.56682 123.225 4.306C123.109 4.04519 122.941 3.81082 122.731 3.61744C122.521 3.42407 122.274 3.27582 122.004 3.18191C121.734 3.08801 121.448 3.05045 121.162 3.07157C119.712 3.07157 118.837 4.31217 118.837 6.73349C118.837 8.496 119.223 10.1558 121.326 10.1558C122.655 10.1558 123.29 9.23181 123.445 8.02543H127.417C127.048 11.2681 124.723 13.2274 121.411 13.2274C117.241 13.2274 114.728 10.6606 114.728 6.5966C114.728 2.53255 117.49 0 121.008 0C124.86 0 127.014 1.89941 127.349 5.13354H123.428H123.402Z" fill="#E85F27"/>
<path d="M140.435 0.333984V12.9026H136.317V3.26866H132.413V12.9026H128.277V0.333984H140.435Z" fill="#E85F27"/>
<path d="M146.155 12.9026H142.02V0.333984H148.094C151.715 0.333984 153.465 1.99383 153.465 4.61193C153.465 7.23004 151.852 9.02678 148.231 9.02678H146.146V12.9368L146.155 12.9026ZM146.155 6.05788H147.871C148.832 6.05788 149.536 5.67286 149.536 4.59482C149.536 3.51678 148.206 3.26866 147.296 3.26866H146.121V6.05788H146.155Z" fill="#E85F27"/>
<path d="M164.779 0.333984V3.26866H158.636V5.0654H163.835V8.00007H158.636V9.96793H165.028V12.9026H154.509V0.333984H164.805H164.779Z" fill="#E85F27"/>
<path d="M174.316 5.13354C174.314 4.84849 174.254 4.56682 174.139 4.306C174.023 4.04519 173.855 3.81082 173.645 3.61744C173.435 3.42407 173.188 3.27582 172.918 3.18191C172.648 3.08801 172.362 3.05045 172.077 3.07157C170.627 3.07157 169.751 4.31217 169.751 6.73349C169.751 8.496 170.137 10.1558 172.24 10.1558C173.569 10.1558 174.204 9.23181 174.359 8.02543H178.331C177.962 11.2681 175.637 13.2274 172.325 13.2274C168.156 13.2274 165.642 10.6606 165.642 6.5966C165.642 2.53255 168.404 0 171.922 0C175.775 0 177.928 1.89941 178.263 5.13354H174.342H174.316Z" fill="#E85F27"/>
<path d="M187.36 5.13354C187.358 4.84849 187.298 4.56682 187.183 4.306C187.067 4.04519 186.899 3.81082 186.689 3.61744C186.479 3.42407 186.232 3.27582 185.962 3.18191C185.692 3.08801 185.406 3.05045 185.12 3.07157C183.67 3.07157 182.795 4.31217 182.795 6.73349C182.795 8.496 183.181 10.1558 185.284 10.1558C186.613 10.1558 187.248 9.23181 187.403 8.02543H191.375C191.006 11.2681 188.681 13.2274 185.369 13.2274C181.199 13.2274 178.686 10.6606 178.686 6.5966C178.686 2.53255 181.448 0 184.966 0C188.818 0 190.972 1.89941 191.307 5.13354H187.386H187.36Z" fill="#E85F27"/>
<path d="M0.626337 22.4332C0.941982 21.801 1.16449 21.1267 1.28699 20.4311C1.39168 19.7172 1.4433 18.9965 1.44143 18.275V15.9136H6.33198V22.4332H6.99264V24.9999H6.04885V23.3658H0.900895V24.9999H0V22.4332H0.626337ZM2.41954 16.7692V18.429C2.43214 19.1445 2.38623 19.8599 2.28226 20.568C2.16191 21.217 1.94805 21.8452 1.64734 22.4332H5.29381V16.8119H2.41954V16.7692Z" fill="#E85F27"/>
<path d="M20.8488 19.6448C20.8762 20.5598 20.6085 21.4595 20.0852 22.2116C19.7375 22.6342 19.3001 22.9747 18.8046 23.2085C18.309 23.4423 17.7677 23.5635 17.2195 23.5635C16.6713 23.5635 16.1299 23.4423 15.6344 23.2085C15.1388 22.9747 14.7015 22.6342 14.3538 22.2116C13.8522 21.449 13.585 20.5568 13.585 19.6448C13.585 18.7328 13.8522 17.8406 14.3538 17.078C14.7015 16.6554 15.1388 16.3149 15.6344 16.0811C16.1299 15.8473 16.6713 15.7261 17.2195 15.7261C17.7677 15.7261 18.309 15.8473 18.8046 16.0811C19.3001 16.3149 19.7375 16.6554 20.0852 17.078C20.6085 17.8301 20.8762 18.7298 20.8488 19.6448ZM19.8192 19.6448C19.8533 18.8571 19.6038 18.0832 19.1156 17.463C18.8744 17.1984 18.5803 16.9869 18.2523 16.8422C17.9243 16.6975 17.5696 16.6227 17.2109 16.6227C16.8522 16.6227 16.4975 16.6975 16.1695 16.8422C15.8415 16.9869 15.5474 17.1984 15.3061 17.463C14.818 18.0832 14.5684 18.8571 14.6026 19.6448C14.5684 20.4325 14.818 21.2064 15.3061 21.8266C15.5474 22.0912 15.8415 22.3027 16.1695 22.4474C16.4975 22.5921 16.8522 22.6669 17.2109 22.6669C17.5696 22.6669 17.9243 22.5921 18.2523 22.4474C18.5803 22.3027 18.8744 22.0912 19.1156 21.8266C19.6038 21.2064 19.8533 20.4325 19.8192 19.6448Z" fill="#E85F27"/>
<path d="M34.2451 18.1553H33.267C33.2255 17.8957 33.1271 17.6484 32.9788 17.431C32.8305 17.2136 32.636 17.0315 32.409 16.8976C32.0342 16.7001 31.6144 16.6029 31.1907 16.6153C30.8681 16.6052 30.5472 16.6659 30.2507 16.793C29.9542 16.9202 29.6893 17.1107 29.4747 17.3511C28.9668 17.9744 28.7126 18.7655 28.7625 19.5671C28.7128 20.3395 28.8982 21.1089 29.2945 21.7745C29.5185 22.0693 29.814 22.3025 30.1531 22.4522C30.4923 22.6018 30.8641 22.6631 31.2336 22.6301C31.6576 22.6375 32.0728 22.5085 32.4176 22.2622C32.946 21.8381 33.2852 21.2231 33.3614 20.551H34.3395C34.272 21.2943 33.9718 21.9977 33.4815 22.5616C33.1078 22.9377 32.6396 23.2066 32.1259 23.3402C31.7967 23.4349 31.456 23.4839 31.1134 23.4857C30.6861 23.5025 30.2599 23.4315 29.8614 23.2769C29.4628 23.1224 29.1005 22.8876 28.7969 22.5873C28.4286 22.1728 28.147 21.689 27.9687 21.1645C27.7904 20.64 27.719 20.0853 27.7587 19.5328C27.7102 18.514 28.0435 17.5137 28.6939 16.7265C29.3095 16.105 30.132 15.7296 31.0061 15.6713C31.8802 15.613 32.7454 15.8757 33.4386 16.4099C33.924 16.8656 34.2131 17.4913 34.2451 18.1553Z" fill="#E85F27"/>
<path d="M40.9129 16.8136V15.958H46.9189V16.8136H44.3449V23.376H43.4011V16.8136H40.8271H40.9129Z" fill="#E85F27"/>
<path d="M57.2139 21.1926H54.2281L53.4473 23.3658H52.4092L55.2234 15.9136H56.3559L59.05 23.3658H57.9518L57.2139 21.1926ZM54.537 20.337H56.8536L55.7553 17.0601L54.537 20.337Z" fill="#E85F27"/>
<path d="M65.9346 23.3675V15.9153H69.2207C69.5076 15.8992 69.7949 15.94 70.066 16.0355C70.337 16.1309 70.5863 16.2791 70.7994 16.4714C71.0698 16.7496 71.2484 17.1036 71.3113 17.486C71.3741 17.8683 71.3183 18.2607 71.1512 18.6104C70.9707 18.9446 70.684 19.2094 70.3361 19.3633C70.6501 19.4751 70.9409 19.6433 71.1941 19.8596C71.366 20.0314 71.4993 20.2378 71.5851 20.465C71.6709 20.6921 71.7072 20.9349 71.6917 21.1772C71.7003 21.4668 71.6465 21.7548 71.534 22.022C71.4215 22.2891 71.2529 22.5291 71.0396 22.7258C70.5186 23.1848 69.8377 23.4214 69.1435 23.3846H65.9346V23.3675ZM66.947 16.7794V19.0724H68.7659C69.1634 19.1012 69.5605 19.0119 69.9071 18.8158C70.0494 18.7059 70.1617 18.5622 70.2337 18.3977C70.3056 18.2332 70.3349 18.0533 70.3189 17.8746C70.3281 17.7194 70.2994 17.5644 70.2351 17.4228C70.1708 17.2812 70.073 17.1573 69.95 17.0618C69.5967 16.8498 69.1854 16.754 68.7745 16.788H66.9384L66.947 16.7794ZM66.947 19.8938V22.5119H69.1006C69.5245 22.5386 69.9434 22.4075 70.276 22.144C70.4125 22.0167 70.5194 21.8611 70.5891 21.6881C70.6587 21.5152 70.6895 21.3291 70.6793 21.143C70.6905 20.9332 70.6395 20.7248 70.5327 20.5437C70.4259 20.3626 70.268 20.2169 70.0787 20.1248C69.7098 19.9488 69.3031 19.8665 68.8946 19.8852H66.9041L66.947 19.8938Z" fill="#E85F27"/>
<path d="M79.8462 15.9136V22.0139L83.6385 15.9136H84.7882V23.3658H83.8101V17.3766L79.9921 23.3658H78.8252V15.9136H79.8376H79.8462Z" fill="#E85F27"/>
<path d="M99.4677 23.3658H98.4896V18.9595V17.1028L96.3704 23.3658H95.3751L93.273 17.1028V23.3658H92.2949V15.9136H93.7364L95.8556 22.2193L98.0092 15.9136H99.442V23.3658H99.4677Z" fill="#E85F27"/>
<path d="M121.099 16.8119H116.809V19.0621H119.28C119.598 19.0434 119.916 19.0942 120.213 19.2109C120.509 19.3277 120.776 19.5076 120.996 19.7381C121.355 20.1623 121.542 20.7059 121.519 21.261C121.522 21.5447 121.463 21.8257 121.346 22.0843C121.229 22.3429 121.057 22.5729 120.841 22.7583C120.412 23.1602 119.843 23.3809 119.254 23.3743H115.771V15.9136H121.03V16.7692L121.099 16.8119ZM116.809 19.9263V22.4931H119.022C119.394 22.5117 119.761 22.4096 120.069 22.2022C120.214 22.0863 120.329 21.9371 120.404 21.7672C120.479 21.5973 120.511 21.4118 120.498 21.2268C120.516 21.032 120.487 20.8358 120.414 20.6542C120.341 20.4727 120.226 20.3112 120.078 20.183C119.751 19.9758 119.366 19.8798 118.979 19.9092H116.809V19.9263Z" fill="#E85F27"/>
<path d="M129.738 15.9136V19.0536H132.209C132.531 19.0333 132.854 19.0876 133.152 19.2123C133.449 19.337 133.714 19.5286 133.925 19.7723C134.269 20.1947 134.448 20.7261 134.431 21.2696C134.441 21.5483 134.392 21.8258 134.289 22.0849C134.185 22.344 134.029 22.5791 133.831 22.7754C133.615 22.9749 133.36 23.1292 133.083 23.2291C132.806 23.329 132.512 23.3726 132.218 23.3572H128.734V15.9136H129.747H129.738ZM129.738 19.9177V22.4845H131.9C132.268 22.5066 132.634 22.4139 132.947 22.2193C133.095 22.1054 133.211 21.9565 133.286 21.7861C133.361 21.6157 133.392 21.4293 133.376 21.2439C133.395 21.0519 133.368 20.8582 133.298 20.6784C133.228 20.4986 133.117 20.3377 132.973 20.2086C132.644 19.9804 132.249 19.8689 131.849 19.8921H129.73L129.738 19.9177ZM136.362 15.9136V23.3658H135.349V15.9136H136.362Z" fill="#E85F27"/>
<path d="M150.152 18.1553H149.174C149.133 17.8957 149.034 17.6484 148.886 17.431C148.738 17.2136 148.543 17.0315 148.316 16.8976C147.941 16.7001 147.522 16.6029 147.098 16.6153C146.775 16.6052 146.454 16.6659 146.158 16.793C145.861 16.9202 145.597 17.1107 145.382 17.3511C144.874 17.9744 144.62 18.7655 144.67 19.5671C144.62 20.3395 144.805 21.1089 145.202 21.7745C145.426 22.0693 145.721 22.3025 146.06 22.4522C146.4 22.6018 146.771 22.6631 147.141 22.6301C147.565 22.6375 147.98 22.5085 148.325 22.2622C148.853 21.8381 149.192 21.2231 149.269 20.551H150.247C150.179 21.2943 149.879 21.9977 149.389 22.5616C149.015 22.9377 148.547 23.2066 148.033 23.3402C147.704 23.4349 147.363 23.4839 147.021 23.4857C146.593 23.5025 146.167 23.4315 145.769 23.2769C145.37 23.1224 145.008 22.8876 144.704 22.5873C144.336 22.1728 144.054 21.689 143.876 21.1645C143.698 20.64 143.626 20.0853 143.666 19.5328C143.617 18.514 143.951 17.5137 144.601 16.7265C145.217 16.105 146.039 15.7296 146.913 15.6713C147.787 15.613 148.653 15.8757 149.346 16.4099C149.831 16.8656 150.12 17.4913 150.152 18.1553Z" fill="#E85F27"/>
<path d="M156.737 16.8136V15.958H162.803V16.8136H160.229V23.376H159.311V16.8136H156.737Z" fill="#E85F27"/>
<path d="M170.853 20.2271V23.3671H169.841V15.9149H173.204C173.498 15.8995 173.793 15.943 174.07 16.043C174.347 16.1429 174.601 16.2972 174.817 16.4967C175.016 16.693 175.172 16.9281 175.275 17.1872C175.378 17.4463 175.427 17.7238 175.418 18.0025C175.435 18.5446 175.258 19.0751 174.92 19.4998C174.71 19.744 174.445 19.936 174.147 20.0607C173.849 20.1854 173.526 20.2394 173.204 20.2185H170.845L170.853 20.2271ZM170.853 16.8047V19.3715H172.861C173.249 19.397 173.635 19.2949 173.959 19.0806C174.108 18.9493 174.224 18.7847 174.297 18.6004C174.37 18.416 174.398 18.217 174.38 18.0196C174.395 17.8406 174.366 17.6604 174.296 17.4949C174.226 17.3294 174.116 17.1835 173.976 17.0699C173.656 16.8609 173.277 16.759 172.895 16.779H170.845L170.853 16.8047Z" fill="#E85F27"/>
<path d="M189.534 19.6448C189.562 20.5598 189.294 21.4595 188.771 22.2116C188.423 22.6342 187.986 22.9747 187.49 23.2085C186.995 23.4423 186.453 23.5635 185.905 23.5635C185.357 23.5635 184.815 23.4423 184.32 23.2085C183.824 22.9747 183.387 22.6342 183.039 22.2116C182.538 21.449 182.271 20.5568 182.271 19.6448C182.271 18.7328 182.538 17.8406 183.039 17.078C183.387 16.6554 183.824 16.3149 184.32 16.0811C184.815 15.8473 185.357 15.7261 185.905 15.7261C186.453 15.7261 186.995 15.8473 187.49 16.0811C187.986 16.3149 188.423 16.6554 188.771 17.078C189.294 17.8301 189.562 18.7298 189.534 19.6448ZM188.505 19.6448C188.539 18.8571 188.289 18.0832 187.801 17.463C187.56 17.1984 187.266 16.9869 186.938 16.8422C186.61 16.6975 186.255 16.6227 185.896 16.6227C185.538 16.6227 185.183 16.6975 184.855 16.8422C184.527 16.9869 184.233 17.1984 183.992 17.463C183.504 18.0832 183.254 18.8571 183.288 19.6448C183.254 20.4325 183.504 21.2064 183.992 21.8266C184.233 22.0912 184.527 22.3027 184.855 22.4474C185.183 22.5921 185.538 22.6669 185.896 22.6669C186.255 22.6669 186.61 22.5921 186.938 22.4474C187.266 22.3027 187.56 22.0912 187.801 21.8266C188.28 21.2028 188.52 20.4293 188.479 19.6448H188.505Z" fill="#E85F27"/>
</svg>
