<svg width="168" height="28" viewBox="0 0 168 28" fill="none" xmlns="http://www.w3.org/2000/svg">
<path d="M57.927 6.19336V16H54.7136V8.48003H51.687V16H48.4736V6.19336H57.927Z" fill="#154679"/>
<path d="M65.9337 6.19336L69.447 16H66.247L65.867 14.6667H62.667L62.307 16H59.167L62.667 6.19336H65.9337ZM65.3337 12.6667L64.3003 9.16003L63.287 12.6667H65.287H65.3337Z" fill="#154679"/>
<path d="M80.2339 6.19336V16H77.0206V8.48003H74.7206V11.2667C74.7206 15.2134 73.4806 16.1867 71.6472 16.1867C71.0607 16.1935 70.4758 16.124 69.9072 15.98V13.7C70.1437 13.7764 70.3924 13.8081 70.6406 13.7934C71.3072 13.7934 71.6472 13.5334 71.6472 11.2334V6.19336H80.2272H80.2339Z" fill="#154679"/>
<path d="M85.4796 9.60669H86.9996C89.473 9.60669 91.0396 10.72 91.0396 12.86C91.0396 15 89.5063 16 86.9596 16H82.293V6.19336H85.5063V9.60669H85.4796ZM85.4796 13.7H86.6663C87.453 13.7 88.053 13.54 88.053 12.8C88.053 11.94 87.3063 11.8867 86.2863 11.8867H85.4863V13.6934L85.4796 13.7ZM95.6396 16H92.433V6.19336H95.6396V16Z" fill="#154679"/>
<path d="M100.753 6.19336V8.72003C100.737 8.88309 100.758 9.04782 100.817 9.20093C100.876 9.35404 100.969 9.49126 101.091 9.60153C101.212 9.7118 101.357 9.79204 101.515 9.83578C101.673 9.87952 101.839 9.88554 102 9.85336C102.49 9.86475 102.98 9.80639 103.453 9.68003V6.19336H106.667V16H103.46V12C102.586 12.197 101.688 12.271 100.793 12.22C100.381 12.2465 99.9673 12.188 99.5783 12.0481C99.1892 11.9082 98.8331 11.69 98.5318 11.4069C98.2306 11.1237 97.9907 10.7818 97.827 10.4022C97.6633 10.0226 97.5792 9.61342 97.5801 9.20003V6.19336H100.793H100.753Z" fill="#154679"/>
<path d="M108.227 12.1199H114.54V13.5199H108.227V12.1199Z" fill="#154679"/>
<path d="M117.233 6.19336H121.9C124.1 6.19336 125.86 6.71336 125.86 8.65336C125.844 9.08802 125.718 9.51152 125.494 9.8845C125.27 10.2575 124.956 10.5678 124.58 10.7867C125.07 10.914 125.501 11.2076 125.799 11.6174C126.097 12.0271 126.243 12.5276 126.213 13.0334C126.213 15.22 124.54 15.9867 122 15.9867H117.227V6.19336H117.233ZM120.447 10.1134H121.78C121.91 10.1383 122.044 10.1351 122.172 10.1041C122.301 10.073 122.421 10.0148 122.525 9.93334C122.63 9.85187 122.715 9.74904 122.776 9.63175C122.837 9.51446 122.873 9.38544 122.88 9.25336C122.88 8.49336 122.253 8.48003 121.547 8.48003H120.42V10.1134H120.447ZM120.447 13.7067H121.847C122.633 13.7067 123.233 13.5467 123.233 12.8067C123.233 11.9467 122.487 11.8934 121.467 11.8934H120.447V13.7V13.7067Z" fill="#154679"/>
<path d="M135.093 6.19336V8.48003H130.32V9.88003H134.36V12.1667H130.32V13.7H135.286V16H127.106V6.19336H135.106H135.093Z" fill="#154679"/>
<path d="M139.619 10.1133H139.893C140.899 10.1133 141.473 9.90668 141.473 9.12002C141.473 8.54668 140.899 8.22002 140.099 8.22002C139.788 8.17862 139.472 8.25466 139.213 8.43332C138.954 8.61199 138.771 8.88052 138.699 9.18668H136.033C136.213 6.90002 138.179 5.93335 140.279 5.93335C142.739 5.93335 144.466 7.11335 144.466 8.74668C144.463 9.21056 144.328 9.66392 144.075 10.0528C143.822 10.4416 143.462 10.7496 143.039 10.94C143.547 11.067 143.994 11.3681 144.302 11.7909C144.61 12.2137 144.76 12.7313 144.726 13.2533C144.726 15.1 143.173 16.2467 140.239 16.2467C137.413 16.2467 135.846 15.1334 135.626 12.56H138.333C138.453 13.4867 138.999 13.96 140.099 13.96C141.199 13.96 141.733 13.5133 141.733 12.9267C141.733 12.04 140.899 11.8934 139.899 11.8934H139.626V10.1133H139.619Z" fill="#154679"/>
<path d="M153.507 6.19336V8.48003H148.734V9.88003H152.774V12.1667H148.734V13.7H153.701V16H145.527V6.19336H153.527H153.507Z" fill="#154679"/>
<path d="M160.147 16H156.934V8.48003H154.054V6.19336H163.027V8.48003H160.147V16Z" fill="#154679"/>
<path d="M48.1123 24.1399V18.3332H50.6656C50.8886 18.3207 51.1119 18.3525 51.3224 18.4269C51.533 18.5013 51.7267 18.6167 51.8923 18.7666C52.1024 18.9833 52.2412 19.2592 52.2901 19.5571C52.3389 19.855 52.2955 20.1607 52.1656 20.4332C52.0254 20.6936 51.8026 20.9 51.5323 21.0199C51.7763 21.107 52.0022 21.238 52.199 21.4066C52.3326 21.5405 52.4361 21.7013 52.5028 21.8783C52.5695 22.0553 52.5977 22.2445 52.5856 22.4332C52.5923 22.6589 52.5505 22.8834 52.4631 23.0915C52.3757 23.2996 52.2447 23.4866 52.079 23.6399C51.6742 23.9976 51.1451 24.1819 50.6056 24.1532H48.1123V24.1399ZM48.899 19.0066V20.7932H50.3123C50.6211 20.8157 50.9297 20.7461 51.199 20.5932C51.3096 20.5077 51.3968 20.3956 51.4527 20.2675C51.5087 20.1393 51.5314 19.9992 51.519 19.8599C51.5261 19.739 51.5038 19.6182 51.4538 19.5078C51.4039 19.3975 51.3279 19.301 51.2323 19.2266C50.9578 19.0614 50.6383 18.9868 50.319 19.0132H48.899V19.0066ZM48.899 21.4332V23.4732H50.5723C50.9017 23.494 51.2272 23.3919 51.4856 23.1866C51.5917 23.0874 51.6747 22.9661 51.7289 22.8314C51.783 22.6966 51.8069 22.5516 51.799 22.4066C51.8077 22.2431 51.7681 22.0807 51.6851 21.9396C51.6021 21.7986 51.4794 21.685 51.3323 21.6132C51.0457 21.4761 50.7297 21.412 50.4123 21.4266H48.899V21.4332Z" fill="#154679"/>
<path d="M60.4468 23.4466V24.1133H56.1602V18.3333H60.3935V18.9999H56.9468V20.7866H60.1202V21.4533H56.9468V23.3866H60.4535L60.4468 23.4466Z" fill="#154679"/>
<path d="M64.5073 22.26C64.4882 22.4628 64.5209 22.6671 64.6026 22.8537C64.6842 23.0403 64.812 23.2031 64.974 23.3267C65.3294 23.5319 65.7377 23.627 66.1473 23.6C66.4901 23.6107 66.8305 23.5399 67.1406 23.3933C67.3028 23.3239 67.4404 23.2073 67.5355 23.0587C67.6306 22.9101 67.6788 22.7364 67.674 22.56C67.6852 22.3873 67.6512 22.2146 67.5752 22.059C67.4992 21.9035 67.3838 21.7705 67.2406 21.6733C66.9281 21.4909 66.5685 21.4051 66.2073 21.4267H65.6006V20.76H66.0406C66.3693 20.7714 66.6953 20.6979 66.9873 20.5467C67.117 20.4889 67.2277 20.3957 67.3068 20.2778C67.3858 20.1598 67.4299 20.0219 67.434 19.88C67.4453 19.7109 67.4064 19.5422 67.3222 19.3951C67.238 19.2481 67.1122 19.1291 66.9606 19.0533C66.6633 18.9274 66.3418 18.8686 66.0191 18.8813C65.6964 18.894 65.3805 18.9778 65.094 19.1267C64.9377 19.2222 64.8101 19.358 64.7244 19.5199C64.6388 19.6818 64.5983 19.8637 64.6073 20.0467H63.874C63.8685 19.6142 64.0255 19.1955 64.314 18.8733C64.5579 18.6331 64.8513 18.449 65.1737 18.3339C65.4961 18.2187 65.8397 18.1753 66.1806 18.2067C66.7113 18.1838 67.2345 18.3386 67.6673 18.6467C67.8505 18.7799 67.9984 18.9557 68.0983 19.159C68.1982 19.3623 68.2471 19.5869 68.2406 19.8133C68.2434 19.9783 68.2123 20.1422 68.1492 20.2947C68.0861 20.4472 67.9925 20.5851 67.874 20.7C67.6954 20.8887 67.4623 21.0169 67.2073 21.0667C67.5609 21.1299 67.8827 21.3108 68.1206 21.58C68.3605 21.862 68.4864 22.2233 68.474 22.5933C68.4834 22.8634 68.4181 23.1308 68.2851 23.3661C68.1522 23.6014 67.9568 23.7954 67.7206 23.9267C67.2423 24.1919 66.7005 24.321 66.154 24.3C65.7948 24.3412 65.431 24.3061 65.0863 24.197C64.7416 24.0879 64.4239 23.9071 64.154 23.6667C63.8534 23.2646 63.7089 22.7672 63.7473 22.2667H64.4806L64.5073 22.26Z" fill="#154679"/>
<path d="M74.7533 21.6134H72.6666V23.5534H75V24.1401H71.96V18.7534H74.88V19.3334H72.6666V21.0334H74.7533V21.6068V21.6134Z" fill="#154679"/>
<path d="M83.007 21.7732C82.967 21.0199 82.9203 20.1066 82.9203 19.4466C82.727 20.0732 82.5137 20.7799 82.2537 21.4932L81.3003 24.1066H80.7737L79.8937 21.5399C79.6403 20.7732 79.427 20.0866 79.2803 19.4466C79.2803 20.1132 79.227 21.0132 79.1737 21.8266L79.027 24.1399H78.3604L78.667 18.7532H79.5537L80.507 21.3332C80.7337 21.9999 80.907 22.5866 81.0537 23.1466C81.2004 22.5999 81.387 22.0132 81.627 21.3332L82.587 18.7266H83.4737L83.807 24.1132H83.1403L83.007 21.7732Z" fill="#154679"/>
<path d="M96.3533 19.0333H93.0199V20.7866H94.9399C95.1871 20.772 95.4345 20.8115 95.6648 20.9025C95.8951 20.9935 96.1028 21.1337 96.2733 21.3133C96.5528 21.6438 96.6979 22.0674 96.6799 22.4999C96.6823 22.721 96.6364 22.9399 96.5454 23.1414C96.4544 23.3429 96.3206 23.5221 96.1533 23.6666C95.8195 23.9797 95.3776 24.1517 94.9199 24.1466H92.2666V18.3333H96.3533V18.9999V19.0333ZM93.0199 21.4599V23.4599H94.7399C95.0284 23.4745 95.3139 23.3949 95.5533 23.2333C95.6662 23.143 95.7555 23.0267 95.8135 22.8943C95.8716 22.7619 95.8967 22.6174 95.8866 22.4733C95.9006 22.3215 95.8783 22.1686 95.8215 22.0271C95.7647 21.8857 95.675 21.7598 95.5599 21.6599C95.306 21.4985 95.0066 21.4237 94.7066 21.4466H93.0199V21.4599Z" fill="#154679"/>
<path d="M104.586 23.4466V24.1133H100.3V18.3333H104.533V18.9999H101.086V20.7866H104.26V21.4533H101.086V23.3866H104.593L104.586 23.4466Z" fill="#154679"/>
<path d="M113 20.0867H112.24C112.208 19.8844 112.132 19.6917 112.016 19.5223C111.901 19.3529 111.75 19.211 111.574 19.1067C111.282 18.9529 110.956 18.8771 110.627 18.8867C110.376 18.8789 110.127 18.9262 109.897 19.0252C109.666 19.1243 109.46 19.2727 109.294 19.4601C108.899 19.9458 108.702 20.5621 108.74 21.1867C108.702 21.7886 108.846 22.3881 109.154 22.9067C109.328 23.1365 109.557 23.3182 109.821 23.4348C110.084 23.5514 110.373 23.5991 110.66 23.5734C110.99 23.5792 111.313 23.4787 111.58 23.2867C111.991 22.9563 112.255 22.4771 112.314 21.9534H113.074C113.021 22.5326 112.788 23.0807 112.407 23.5201C112.117 23.8131 111.753 24.0226 111.354 24.1267C111.098 24.2005 110.833 24.2386 110.567 24.2401C110.235 24.2532 109.904 24.1978 109.594 24.0774C109.285 23.957 109.003 23.7741 108.767 23.5401C108.481 23.2171 108.262 22.8402 108.124 22.4314C107.985 22.0227 107.93 21.5905 107.96 21.1601C107.929 20.3846 108.18 19.6241 108.667 19.0201C109.145 18.5358 109.784 18.2433 110.464 18.1979C111.143 18.1524 111.815 18.3571 112.354 18.7734C112.728 19.1137 112.959 19.583 113 20.0867Z" fill="#154679"/>
<path d="M121.18 18.3333V24.1399H120.394V19.0333H117.334V24.1466H116.547V18.3333H121.147H121.18Z" fill="#154679"/>
<path d="M128.58 19.0333H126.367V21.4599C126.422 22.2278 126.294 22.9977 125.993 23.7066C125.899 23.8838 125.756 24.0306 125.581 24.1297C125.407 24.2288 125.207 24.2763 125.007 24.2666H124.76L124.467 24.2266V23.5599H124.633H124.833C124.982 23.5544 125.124 23.4954 125.233 23.3938C125.342 23.2922 125.411 23.1547 125.427 23.0066C125.551 22.406 125.602 21.7927 125.58 21.1799V18.3333H129.333V24.1399H128.547V19.0333H128.58Z" fill="#154679"/>
<path d="M136.367 22.4466H134.047L133.44 24.1399H132.634L134.82 18.3333H135.707L137.8 24.1399H136.947L136.367 22.4466ZM134.287 21.7799H136.087L135.234 19.2266L134.287 21.7799Z" fill="#154679"/>
<path d="M140.58 19.0334V18.3667H145.293V19.0334H143.293V24.1467H142.52V19.0334H140.52H140.58Z" fill="#154679"/>
<path d="M152.4 20.7333V18.3333H153.187V24.1399H152.4V21.4333H149.367V24.1466H148.58V18.3333H149.367V20.7333H152.4Z" fill="#154679"/>
<path d="M162.327 21.24C162.348 21.9529 162.14 22.6539 161.733 23.24C161.463 23.5693 161.123 23.8346 160.738 24.0167C160.353 24.1989 159.933 24.2934 159.507 24.2934C159.081 24.2934 158.66 24.1989 158.275 24.0167C157.89 23.8346 157.55 23.5693 157.28 23.24C156.89 22.6457 156.683 21.9506 156.683 21.24C156.683 20.5293 156.89 19.8342 157.28 19.24C157.55 18.9106 157.89 18.6453 158.275 18.4632C158.66 18.281 159.081 18.1865 159.507 18.1865C159.933 18.1865 160.353 18.281 160.738 18.4632C161.123 18.6453 161.463 18.9106 161.733 19.24C162.14 19.826 162.348 20.527 162.327 21.24ZM161.527 21.24C161.553 20.6262 161.359 20.0232 160.98 19.54C160.793 19.3337 160.564 19.1689 160.309 19.0562C160.054 18.9434 159.779 18.8852 159.5 18.8852C159.221 18.8852 158.946 18.9434 158.691 19.0562C158.436 19.1689 158.207 19.3337 158.02 19.54C157.641 20.0232 157.447 20.6262 157.473 21.24C157.447 21.8537 157.641 22.4567 158.02 22.94C158.207 23.1462 158.436 23.311 158.691 23.4237C158.946 23.5365 159.221 23.5947 159.5 23.5947C159.779 23.5947 160.054 23.5365 160.309 23.4237C160.564 23.311 160.793 23.1462 160.98 22.94C161.359 22.4567 161.553 21.8537 161.527 21.24Z" fill="#154679"/>
<path d="M10.3603 17.5H5.82031V18.7133H10.3603V17.5Z" fill="#154679"/>
<path d="M12.5267 5.82666H9.54004V7.03999H11.86C12.0529 6.62012 12.2757 6.21463 12.5267 5.82666Z" fill="#154679"/>
<path d="M39.9999 15.0133H39.6466C39.4751 14.9979 39.3106 14.9382 39.1692 14.84C39.0278 14.7418 38.9143 14.6086 38.8399 14.4533L37.9266 12.0667C37.7621 11.684 37.4925 11.3557 37.1492 11.1197C36.8059 10.8837 36.4029 10.7498 35.9866 10.7333H31.7266V6.43333C31.7266 6.27243 31.6627 6.11812 31.5489 6.00435C31.4351 5.89058 31.2808 5.82666 31.1199 5.82666H28.6199C28.8709 6.21463 29.0937 6.62012 29.2866 7.03999H30.5133V21.4933H18.4666C18.3788 21.0904 18.2061 20.7109 17.9599 20.38C17.0435 20.1184 16.1715 19.7207 15.3733 19.2C14.7515 19.2526 14.1629 19.503 13.6938 19.9145C13.2247 20.326 12.8997 20.877 12.7666 21.4867H9.7666V22.7H12.7666C12.9082 23.3514 13.2685 23.9348 13.7876 24.3531C14.3067 24.7715 14.9533 24.9996 15.6199 24.9996C16.2866 24.9996 16.9332 24.7715 17.4523 24.3531C17.9713 23.9348 18.3316 23.3514 18.4733 22.7H32.5266C32.6682 23.3514 33.0285 23.9348 33.5476 24.3531C34.0667 24.7715 34.7133 24.9996 35.3799 24.9996C36.0466 24.9996 36.6932 24.7715 37.2123 24.3531C37.7313 23.9348 38.0916 23.3514 38.2333 22.7H39.9999C40.4296 22.7 40.8416 22.5293 41.1454 22.2255C41.4493 21.9217 41.6199 21.5096 41.6199 21.08V16.6667C41.6244 16.4511 41.5857 16.2369 41.5063 16.0365C41.4269 15.8361 41.3083 15.6535 41.1574 15.4995C41.0065 15.3456 40.8264 15.2232 40.6277 15.1398C40.4289 15.0563 40.2155 15.0133 39.9999 15.0133ZM15.6133 23.8067C15.2763 23.804 14.9477 23.7017 14.6688 23.5126C14.3899 23.3235 14.1732 23.056 14.0461 22.7439C13.9189 22.4318 13.887 22.0891 13.9544 21.7589C14.0217 21.4288 14.1853 21.1259 14.4245 20.8886C14.6637 20.6512 14.9678 20.49 15.2985 20.4252C15.6292 20.3604 15.9717 20.395 16.2828 20.5246C16.5938 20.6541 16.8596 20.8729 17.0465 21.1532C17.2335 21.4336 17.3333 21.763 17.3333 22.1C17.3333 22.3252 17.2887 22.5483 17.2021 22.7562C17.1155 22.9641 16.9886 23.1529 16.8287 23.3115C16.6688 23.4702 16.4791 23.5956 16.2705 23.6806C16.0619 23.7656 15.8385 23.8084 15.6133 23.8067ZM35.3799 23.8067C35.0424 23.8067 34.7124 23.7066 34.4318 23.519C34.1511 23.3315 33.9324 23.065 33.8032 22.7531C33.674 22.4413 33.6402 22.0981 33.7061 21.767C33.7719 21.436 33.9345 21.1319 34.1731 20.8932C34.4118 20.6545 34.7159 20.492 35.047 20.4261C35.378 20.3603 35.7212 20.3941 36.0331 20.5232C36.3449 20.6524 36.6114 20.8712 36.799 21.1518C36.9865 21.4325 37.0866 21.7625 37.0866 22.1C37.0866 22.5526 36.9068 22.9867 36.5867 23.3068C36.2667 23.6269 35.8326 23.8067 35.3799 23.8067ZM40.3933 21.0867C40.3916 21.194 40.3482 21.2964 40.2723 21.3723C40.1964 21.4482 40.0939 21.4916 39.9866 21.4933H38.2333C38.0916 20.8419 37.7313 20.2585 37.2123 19.8402C36.6932 19.4218 36.0466 19.1937 35.3799 19.1937C34.7133 19.1937 34.0667 19.4218 33.5476 19.8402C33.0285 20.2585 32.6682 20.8419 32.5266 21.4933H31.7266V11.9467H35.9999C36.1714 11.9621 36.3359 12.0218 36.4773 12.12C36.6187 12.2182 36.7322 12.3514 36.8066 12.5067L37.7199 14.8933C37.8845 15.276 38.154 15.6043 38.4973 15.8403C38.8406 16.0762 39.2437 16.2102 39.6599 16.2267H39.9999C40.1078 16.2267 40.2112 16.2695 40.2875 16.3458C40.3638 16.422 40.4066 16.5255 40.4066 16.6333V21.08L40.3933 21.0867Z" fill="#154679"/>
<path d="M11.1337 9.33325H4.66699V10.5466H10.9937C11.0149 10.1396 11.0617 9.73437 11.1337 9.33325Z" fill="#154679"/>
<path d="M7.51367 14.8732H11.7337C11.5737 14.4781 11.44 14.0728 11.3337 13.6599H7.51367V14.8732Z" fill="#154679"/>
<path d="M21.4199 10.7866H29.4199C29.3225 8.50619 28.3395 6.35366 26.6799 4.78662L21.4199 10.7866Z" fill="#154679"/>
<path d="M20.3526 2.41992C18.444 2.48345 16.6085 3.16943 15.126 4.37326L20.3526 10.2799V2.41992Z" fill="#154679"/>
<path d="M20.3529 12L15.0596 18C16.5539 19.2343 18.4157 19.9378 20.3529 20V12Z" fill="#154679"/>
<path d="M20.9805 2.41992V10.2866L26.2071 4.37992C24.7255 3.17369 22.8899 2.48535 20.9805 2.41992Z" fill="#154679"/>
<path d="M26.7669 17.5334C28.409 15.9445 29.3658 13.7773 29.4336 11.4934H21.4336L26.7669 17.5334Z" fill="#154679"/>
<path d="M14.5661 17.5334L19.8994 11.4934H11.8994C11.9672 13.7773 12.924 15.9445 14.5661 17.5334Z" fill="#154679"/>
<path d="M20.9805 12V20C22.9176 19.9373 24.7792 19.2339 26.2738 18L20.9805 12Z" fill="#154679"/>
<path d="M19.9077 10.7866L14.6277 4.78662C12.9681 6.35366 11.9851 8.50619 11.8877 10.7866H19.8877H19.9077Z" fill="#154679"/>
</svg>
