<svg width="285" height="40" viewBox="0 0 285 40" fill="none" xmlns="http://www.w3.org/2000/svg">
<path d="M72.4771 9.01758V23.4176H67.6939V12.3529H63.1618V23.4176H58.3787V9.01758H72.507H72.4771Z" fill="#E85F27"/>
<path d="M84.4471 9.01758L89.6847 23.4176H84.9015L84.3036 21.5176H79.5204L78.9704 23.4176H74.2769L79.5204 9.01758H84.3993H84.4471ZM83.5144 18.5176L81.9718 13.3588L80.489 18.5176H83.5204H83.5144Z" fill="#E85F27"/>
<path d="M105.828 9.01758V23.4176H101.045V12.3529H97.6068V16.4705C97.6068 22.2705 95.7593 23.7117 93.0149 23.7117C92.1384 23.7229 91.2642 23.6221 90.4141 23.4117V20.0588C90.7665 20.173 91.1377 20.2209 91.5082 20.1999C92.4649 20.1999 93.0149 19.8176 93.0149 16.4411V9.01758H105.828Z" fill="#E85F27"/>
<path d="M113.661 14.0352H115.939C119.64 14.0352 121.977 15.6764 121.977 18.8176C121.977 21.9588 119.681 23.4176 115.879 23.4176H108.865V9.01758H113.649V14.0352H113.661ZM113.661 20.0529H115.454C116.65 20.0529 117.529 19.8117 117.529 18.7352C117.529 17.4764 116.411 17.394 114.886 17.394H113.691V20.0588L113.661 20.0529ZM128.847 23.4117H124.064V9.01758H128.847V23.4176V23.4117Z" fill="#E85F27"/>
<path d="M136.488 9.01789V12.7355C136.488 13.8767 137.158 14.3944 138.318 14.3944C139.057 14.4058 139.794 14.3127 140.506 14.1179V9.00024H145.289V23.4179H140.506V17.6002C139.651 17.8002 139.041 17.9179 136.5 17.9179C134.348 17.9179 131.717 16.6002 131.717 13.4767V9.01789H136.5H136.488Z" fill="#E85F27"/>
<path d="M147.681 17.7295H157.116V19.7883H147.681V17.7295Z" fill="#E85F27"/>
<path d="M160.237 14.5176C160.625 10.8176 163.125 8.63525 167.597 8.63525C171.68 8.63525 174.897 11.5353 174.897 16.1941C174.897 20.8529 171.967 23.7941 167.124 23.7941C163.262 23.7941 160.548 21.5529 160.135 17.8353H164.751C164.936 19.2176 165.666 20.2764 167.208 20.2764C169.199 20.2764 169.893 18.9764 170.054 17.3941H166.921V14.7764H169.953C169.63 13.0588 168.715 12.1588 167.393 12.1588C167.063 12.1355 166.732 12.1789 166.42 12.2862C166.107 12.3935 165.82 12.5626 165.577 12.7829C165.333 13.0033 165.138 13.2703 165.003 13.5676C164.868 13.8649 164.797 14.1862 164.793 14.5117H160.237V14.5176Z" fill="#E85F27"/>
<path d="M180.912 13.6764L185.097 9.01758H190.729L185.384 14.4352L191.327 23.4176H185.575L182.06 17.6764L180.924 18.8529V23.4117H176.141V9.01758H180.924V13.6764H180.912Z" fill="#E85F27"/>
<path d="M200.487 14.5176C200.484 14.1918 200.413 13.8701 200.278 13.5724C200.144 13.2747 199.948 13.0073 199.705 12.7868C199.461 12.5663 199.174 12.3973 198.861 12.2903C198.548 12.1832 198.216 12.1405 197.886 12.1646C196.2 12.1646 195.184 13.5823 195.184 16.3646C195.184 18.3823 195.632 20.2823 198.071 20.2823C199.614 20.2823 200.349 19.2235 200.529 17.8411H205.145C204.72 21.5588 202.012 23.7999 198.149 23.7999C193.312 23.7999 190.376 20.8588 190.376 16.1999C190.376 11.5411 193.587 8.64111 197.671 8.64111C202.143 8.64111 204.642 10.8235 205.031 14.5235H200.475L200.487 14.5176Z" fill="#E85F27"/>
<path d="M220.283 9.01758V23.4176H215.5V12.3529H210.968V23.4176H206.185V9.01758H220.313H220.283Z" fill="#E85F27"/>
<path d="M226.914 23.4176H222.131V9.01758H229.186C233.372 9.01758 235.428 10.9176 235.428 13.8764C235.428 16.9764 233.557 18.9352 229.348 18.9352H226.956V23.4176H226.914ZM226.914 15.5764H228.905C230.023 15.5764 230.837 15.1352 230.837 13.894C230.837 12.5529 229.294 12.3764 228.278 12.3764H226.914V15.5764V15.5764Z" fill="#E85F27"/>
<path d="M248.54 9.01758V12.3529H241.407V14.4117H247.446V17.7705H241.407V20.0588H248.827V23.4176H236.612V9.01758H248.57H248.54Z" fill="#E85F27"/>
<path d="M259.619 14.5176C259.615 14.1921 259.543 13.8708 259.409 13.5735C259.274 13.2762 259.079 13.0091 258.835 12.7888C258.591 12.5684 258.305 12.3994 257.992 12.2921C257.68 12.1847 257.348 12.1414 257.018 12.1646C255.332 12.1646 254.316 13.5823 254.316 16.3646C254.316 18.3823 254.764 20.2823 257.204 20.2823C258.746 20.2823 259.482 19.2235 259.661 17.8411H264.271C263.846 21.5588 261.138 23.7999 257.275 23.7999C252.438 23.7999 249.503 20.8588 249.503 16.1999C249.503 11.5411 252.713 8.64111 256.803 8.64111C261.275 8.64111 263.775 10.8235 264.163 14.5235H259.607L259.619 14.5176Z" fill="#E85F27"/>
<path d="M274.764 14.5176C274.76 14.1921 274.688 13.8708 274.553 13.5735C274.419 13.2762 274.223 13.0091 273.98 12.7888C273.736 12.5684 273.449 12.3994 273.137 12.2921C272.825 12.1847 272.493 12.1414 272.163 12.1646C270.477 12.1646 269.461 13.5823 269.461 16.3646C269.461 18.3823 269.909 20.2823 272.349 20.2823C273.891 20.2823 274.626 19.2235 274.806 17.8411H279.422C278.997 21.5588 276.289 23.7999 272.426 23.7999C267.589 23.7999 264.654 20.8588 264.654 16.1999C264.654 11.5411 267.858 8.64111 271.96 8.64111C276.432 8.64111 278.931 10.8235 279.32 14.5235H274.764V14.5176Z" fill="#E85F27"/>
<path d="M57.8945 34.388C58.2602 33.6634 58.5179 32.8908 58.6598 32.0939C58.7717 31.2594 58.8196 30.4178 58.8033 29.5762V26.8704H64.4833V34.388H65.2486V37.2586H64.1844V35.4115H58.2054V37.2586H57.165V34.388H57.8945ZM59.9752 27.9174V29.8233C59.9911 30.6418 59.9392 31.4602 59.8197 32.2704C59.6788 33.0155 59.4291 33.7367 59.0783 34.4115H63.3114V27.9409H59.9752V27.9174Z" fill="#E85F27"/>
<path d="M81.3801 31.147C81.4106 32.1951 81.1006 33.2253 80.4952 34.0882C80.0914 34.5732 79.5832 34.964 79.0073 35.2323C78.4314 35.5006 77.8021 35.6398 77.1649 35.6398C76.5277 35.6398 75.8984 35.5006 75.3225 35.2323C74.7466 34.964 74.2384 34.5732 73.8346 34.0882C73.2516 33.2145 72.9409 32.1922 72.9409 31.147C72.9409 30.1019 73.2516 29.0795 73.8346 28.2059C74.2384 27.7209 74.7466 27.3301 75.3225 27.0618C75.8984 26.7935 76.5277 26.6543 77.1649 26.6543C77.8021 26.6543 78.4314 26.7935 79.0073 27.0618C79.5832 27.3301 80.0914 27.7209 80.4952 28.2059C81.1017 29.0682 81.4118 30.0988 81.3801 31.147V31.147ZM80.1843 31.147C80.2253 30.2449 79.9368 29.3581 79.3712 28.647C79.091 28.3437 78.7494 28.1014 78.3685 27.9356C77.9875 27.7698 77.5755 27.6841 77.1589 27.6841C76.7424 27.6841 76.3304 27.7698 75.9494 27.9356C75.5684 28.1014 75.2269 28.3437 74.9467 28.647C74.3832 29.359 74.0969 30.2456 74.1396 31.147C74.0986 32.0491 74.387 32.9359 74.9527 33.647C75.2329 33.9503 75.5744 34.1926 75.9554 34.3585C76.3363 34.5243 76.7483 34.6099 77.1649 34.6099C77.5815 34.6099 77.9935 34.5243 78.3744 34.3585C78.7554 34.1926 79.0969 33.9503 79.3771 33.647C79.9407 32.9351 80.227 32.0484 80.1843 31.147V31.147Z" fill="#E85F27"/>
<path d="M96.9372 29.447H95.8012C95.7501 29.1488 95.6324 28.8653 95.4567 28.6172C95.2809 28.369 95.0514 28.1622 94.7848 28.0117C94.351 27.7844 93.865 27.6709 93.3737 27.6823C92.9961 27.6692 92.6202 27.7384 92.273 27.8848C91.9257 28.0312 91.6156 28.2513 91.3648 28.5294C90.7765 29.2428 90.482 30.1477 90.5397 31.0647C90.477 31.9458 90.6853 32.8251 91.1376 33.5882C91.3924 33.9333 91.7328 34.2086 92.1263 34.3877C92.5198 34.5669 92.9533 34.644 93.3857 34.6117C93.8784 34.6198 94.3607 34.4713 94.7608 34.1882C95.3661 33.7132 95.7605 33.0258 95.861 32.2705H96.997C96.9068 33.1281 96.5425 33.9354 95.9566 34.5764C95.5218 35.0087 94.9765 35.3175 94.3782 35.4705C93.9893 35.58 93.5868 35.6354 93.1824 35.6353C92.6857 35.6535 92.1906 35.5709 91.7277 35.3928C91.2648 35.2147 90.8442 34.9448 90.4918 34.6C90.0624 34.1205 89.7353 33.561 89.5298 32.9547C89.3244 32.3484 89.2449 31.7077 89.2961 31.0705C89.2397 29.9022 89.6277 28.7551 90.3842 27.8529C91.1013 27.1437 92.0562 26.7156 93.0707 26.6484C94.0851 26.5813 95.0897 26.8798 95.8968 27.4882C96.4893 27.9832 96.8624 28.6858 96.9372 29.447V29.447Z" fill="#E85F27"/>
<path d="M104.632 27.8939V26.8704H111.676V27.8939H108.734V35.4115H107.574V27.8939H104.632Z" fill="#E85F27"/>
<path d="M123.627 32.9411H120.178L119.269 35.4352H118.073L121.338 26.894H122.665L125.798 35.4352H124.518L123.627 32.9411ZM120.518 31.9176H123.209L121.929 28.1646L120.518 31.9176Z" fill="#E85F27"/>
<path d="M133.744 35.4119V26.8707H137.558C137.891 26.8526 138.224 26.8994 138.538 27.0085C138.852 27.1175 139.141 27.2866 139.388 27.506C139.701 27.8243 139.909 28.2294 139.981 28.6668C140.054 29.1043 139.989 29.5532 139.794 29.9531C139.583 30.3332 139.252 30.6349 138.85 30.8119C139.219 30.9449 139.559 31.1444 139.854 31.4002C140.056 31.596 140.213 31.8312 140.316 32.0906C140.419 32.35 140.465 32.6278 140.452 32.906C140.459 33.2357 140.396 33.5632 140.266 33.8672C140.136 34.1712 139.943 34.4449 139.699 34.6707C139.094 35.1955 138.304 35.4659 137.498 35.4237H133.768L133.744 35.4119ZM134.939 27.859V30.4825H137.056C137.518 30.515 137.98 30.4127 138.383 30.1884C138.549 30.0619 138.68 29.8965 138.763 29.7074C138.847 29.5182 138.881 29.3114 138.862 29.106C138.873 28.9289 138.84 28.7517 138.766 28.5897C138.692 28.4278 138.579 28.286 138.437 28.1766C138.026 27.9317 137.547 27.8205 137.068 27.859H134.939ZM134.939 31.4237V34.4237H137.439C137.932 34.4571 138.42 34.3082 138.808 34.006C138.971 33.8571 139.098 33.6741 139.18 33.4706C139.262 33.267 139.296 33.0479 139.28 32.8296C139.299 32.5917 139.247 32.3537 139.13 32.1446C139.013 31.9356 138.837 31.7648 138.623 31.6531C138.194 31.4529 137.721 31.3599 137.247 31.3825H134.939V31.4237Z" fill="#E85F27"/>
<path d="M149.899 26.8704V33.8586H149.947L154.347 26.8704H155.687V35.4115H154.491V28.5174L150.072 35.4115H148.721V26.8704H149.917H149.899Z" fill="#E85F27"/>
<path d="M172.691 35.4115H171.555V30.3645L171.597 28.2351L169.133 35.4115H167.973L165.528 28.2351V35.4115H164.392V26.8704H166.066L168.53 34.1174L170.999 26.8704H172.661V35.4115H172.691Z" fill="#E85F27"/>
<path d="M197.815 27.8939H192.876V30.4704H195.746C196.12 30.4454 196.495 30.5021 196.845 30.6363C197.194 30.7705 197.509 30.979 197.767 31.2468C198.186 31.7393 198.4 32.37 198.365 33.0115C198.366 33.3322 198.298 33.6495 198.164 33.9418C198.029 34.2342 197.833 34.4947 197.587 34.7056C197.089 35.1654 196.429 35.4182 195.746 35.4115H191.704V26.8704H197.815V27.8939V27.8939ZM192.876 31.4586V34.3998H195.447C195.871 34.4194 196.291 34.3039 196.643 34.0704C196.812 33.9378 196.946 33.7669 197.034 33.5723C197.121 33.3776 197.159 33.1651 197.145 32.9527C197.162 32.7325 197.127 32.5114 197.042 32.3071C196.957 32.1028 196.824 31.9209 196.655 31.7762C196.274 31.537 195.825 31.4255 195.375 31.4586H192.852H192.876Z" fill="#E85F27"/>
<path d="M207.859 26.8704V30.4704H210.729C211.102 30.4485 211.475 30.5114 211.819 30.6542C212.164 30.7971 212.47 31.0159 212.714 31.2939C213.117 31.7772 213.329 32.3869 213.312 33.0115C213.324 33.3313 213.269 33.65 213.149 33.9477C213.03 34.2453 212.849 34.5154 212.619 34.741C212.367 34.9706 212.072 35.1482 211.749 35.2634C211.427 35.3786 211.084 35.429 210.741 35.4115H206.699V26.8704H207.895H207.859ZM207.859 31.4586V34.3998H210.371C210.792 34.4208 211.209 34.314 211.566 34.0939C211.738 33.9638 211.875 33.7933 211.962 33.598C212.05 33.4028 212.087 33.189 212.069 32.9762C212.089 32.758 212.058 32.5381 211.977 32.3339C211.896 32.1297 211.767 31.9468 211.602 31.7998C211.221 31.5402 210.762 31.4138 210.299 31.441H207.835L207.859 31.4586ZM215.548 26.8704V35.4115H214.353V26.8704H215.548Z" fill="#E85F27"/>
<path d="M231.548 29.447H230.412C230.361 29.1488 230.243 28.8653 230.067 28.6172C229.892 28.369 229.662 28.1622 229.395 28.0117C228.962 27.7844 228.476 27.6709 227.984 27.6823C227.607 27.6692 227.231 27.7384 226.884 27.8848C226.536 28.0312 226.226 28.2513 225.975 28.5294C225.387 29.2428 225.093 30.1477 225.15 31.0647C225.088 31.9458 225.296 32.8251 225.748 33.5882C226.003 33.9333 226.343 34.2086 226.737 34.3877C227.13 34.5669 227.564 34.644 227.996 34.6117C228.489 34.6198 228.971 34.4713 229.372 34.1882C229.977 33.7132 230.371 33.0258 230.472 32.2705H231.608C231.517 33.1281 231.153 33.9354 230.567 34.5764C230.134 35.0078 229.591 35.3166 228.995 35.4705C228.606 35.58 228.204 35.6354 227.799 35.6353C227.302 35.6535 226.807 35.5709 226.344 35.3928C225.882 35.2147 225.461 34.9448 225.109 34.6C224.679 34.1205 224.352 33.561 224.147 32.9547C223.941 32.3484 223.862 31.7077 223.913 31.0705C223.856 29.9022 224.244 28.7551 225.001 27.8529C225.718 27.1437 226.673 26.7156 227.687 26.6484C228.702 26.5813 229.706 26.8798 230.513 27.4882C231.104 27.9843 231.475 28.6867 231.548 29.447V29.447Z" fill="#E85F27"/>
<path d="M239.237 27.8939V26.8704H246.28V27.8939H243.344V35.4115H242.149V27.8939H239.207H239.237Z" fill="#E85F27"/>
<path d="M255.595 31.8117V35.4117H254.4V26.8706H258.31C258.653 26.8531 258.995 26.9035 259.318 27.0187C259.64 27.1339 259.936 27.3115 260.187 27.5411C260.418 27.7667 260.599 28.0368 260.718 28.3344C260.837 28.6321 260.893 28.9508 260.881 29.2706C260.895 29.8947 260.683 30.5034 260.283 30.9882C260.038 31.2682 259.73 31.4883 259.383 31.6312C259.036 31.7741 258.661 31.8359 258.286 31.8117H255.548H255.595ZM255.595 27.8588V30.8H257.927C258.379 30.8317 258.829 30.716 259.207 30.4706C259.38 30.3207 259.514 30.1329 259.599 29.9224C259.684 29.7118 259.718 29.4845 259.697 29.2588C259.716 29.0537 259.683 28.8473 259.602 28.6575C259.52 28.4678 259.393 28.3006 259.231 28.1706C258.859 27.9296 258.419 27.8121 257.975 27.8353H255.584L255.595 27.8588Z" fill="#E85F27"/>
<path d="M277.299 31.147C277.329 32.1951 277.019 33.2253 276.414 34.0882C276.01 34.5732 275.502 34.964 274.926 35.2323C274.35 35.5006 273.721 35.6398 273.084 35.6398C272.447 35.6398 271.817 35.5006 271.241 35.2323C270.666 34.964 270.157 34.5732 269.754 34.0882C269.171 33.2145 268.86 32.1922 268.86 31.147C268.86 30.1019 269.171 29.0795 269.754 28.2059C270.157 27.7209 270.666 27.3301 271.241 27.0618C271.817 26.7935 272.447 26.6543 273.084 26.6543C273.721 26.6543 274.35 26.7935 274.926 27.0618C275.502 27.3301 276.01 27.7209 276.414 28.2059C277.021 29.0682 277.331 30.0988 277.299 31.147ZM276.103 31.147C276.144 30.2449 275.856 29.3581 275.29 28.647C275.01 28.3437 274.668 28.1014 274.287 27.9356C273.906 27.7698 273.494 27.6841 273.078 27.6841C272.661 27.6841 272.249 27.7698 271.868 27.9356C271.487 28.1014 271.146 28.3437 270.866 28.647C270.3 29.3581 270.012 30.2449 270.053 31.147C270.006 32.0469 270.288 32.9335 270.848 33.647C271.128 33.9503 271.469 34.1926 271.85 34.3585C272.231 34.5243 272.643 34.6099 273.06 34.6099C273.477 34.6099 273.888 34.5243 274.269 34.3585C274.65 34.1926 274.992 33.9503 275.272 33.647C275.844 32.9383 276.139 32.0513 276.103 31.147V31.147Z" fill="#E85F27"/>
<path d="M25.2611 36.5234C22.4849 36.5159 19.7531 35.8362 17.3071 34.5443C14.861 33.2524 12.7757 31.388 11.2353 29.1156C9.69487 26.8432 8.74668 24.2327 8.47438 21.5144C8.20208 18.7962 8.61405 16.0538 9.67394 13.5293C10.6311 11.261 12.0879 9.22981 13.9391 7.58214C15.7903 5.93447 17.99 4.71131 20.3797 4.00081C22.7693 3.29031 25.2893 3.11015 27.7583 3.47332C30.2272 3.83648 32.5835 4.73393 34.6574 6.10099C36.7313 7.46805 38.4712 9.27068 39.7516 11.379C41.0321 13.4873 41.8213 15.8488 42.0623 18.2934C42.3033 20.7379 41.9902 23.2047 41.1454 25.5158C40.3007 27.8269 38.9454 29.9249 37.1772 31.6587C35.6168 33.2046 33.7601 34.4307 31.7146 35.2657C29.6692 36.1007 27.4757 36.5282 25.2611 36.5234V36.5234ZM25.2611 5.00573C22.2731 5.01428 19.3545 5.89293 16.8733 7.53092C14.3921 9.16891 12.4593 11.4929 11.3186 14.21C10.1778 16.9271 9.88019 19.9156 10.4632 22.7988C11.0462 25.6821 12.4838 28.331 14.5946 30.4116C15.9898 31.7979 17.6514 32.8972 19.4827 33.6456C21.3139 34.3939 23.2782 34.7763 25.2611 34.7704C29.2201 34.693 32.9905 33.0913 35.7625 30.3093C38.5345 27.5273 40.0872 23.7868 40.0872 19.891C40.0872 15.9952 38.5345 12.2547 35.7625 9.47274C32.9905 6.69074 29.2201 5.08906 25.2611 5.01161V5.00573Z" fill="#E85F27"/>
<path d="M25.2611 5.01172C22.2743 5.02142 19.3572 5.90048 16.8772 7.53818C14.3973 9.17588 12.4654 11.499 11.3249 14.2148C10.1844 16.9307 9.8863 19.9179 10.4681 22.8001C11.05 25.6824 12.4857 28.3308 14.5946 30.4117C15.9897 31.798 17.6513 32.8974 19.4826 33.6457C21.3138 34.394 23.2781 34.7764 25.2611 34.7705C29.2201 34.6931 32.9904 33.0914 35.7624 30.3094C38.5344 27.5274 40.0872 23.7869 40.0872 19.8911C40.0872 15.9953 38.5344 12.2548 35.7624 9.47285C32.9904 6.69085 29.2201 5.08917 25.2611 5.01172V5.01172Z" fill="white"/>
<path d="M25.2612 7.64729C25.025 7.64729 24.7984 7.55495 24.6313 7.39058C24.4642 7.22621 24.3704 7.00328 24.3704 6.77082V5.44729C24.3704 5.21328 24.4649 4.98885 24.633 4.82338C24.8012 4.6579 25.0293 4.56494 25.2672 4.56494C25.5051 4.56494 25.7332 4.6579 25.9014 4.82338C26.0696 4.98885 26.1641 5.21328 26.1641 5.44729V6.75906C26.1657 6.87614 26.1434 6.99235 26.0986 7.10084C26.0538 7.20932 25.9874 7.30786 25.9032 7.39066C25.8191 7.47346 25.7189 7.53883 25.6086 7.58291C25.4984 7.62698 25.3802 7.64888 25.2612 7.64729V7.64729Z" fill="#E85F27"/>
<path d="M25.2612 35.2295C25.025 35.2295 24.7984 35.1372 24.6313 34.9728C24.4642 34.8084 24.3704 34.5855 24.3704 34.3531V33.0413C24.3704 32.8073 24.4649 32.5828 24.633 32.4174C24.8012 32.2519 25.0294 32.1589 25.2672 32.1589C25.5051 32.1589 25.7332 32.2519 25.9014 32.4174C26.0696 32.5828 26.1641 32.8073 26.1641 33.0413V34.3531C26.1641 34.4692 26.1406 34.5841 26.0951 34.6912C26.0496 34.7983 25.9829 34.8955 25.8989 34.977C25.8149 35.0586 25.7153 35.1229 25.6058 35.1662C25.4964 35.2096 25.3792 35.2311 25.2612 35.2295V35.2295Z" fill="#E85F27"/>
<path d="M39.9096 20.7706H38.5763C38.3384 20.7706 38.1103 20.6776 37.9421 20.5121C37.7739 20.3467 37.6794 20.1222 37.6794 19.8882C37.6794 19.6542 37.7739 19.4298 37.9421 19.2643C38.1103 19.0988 38.3384 19.0059 38.5763 19.0059H39.9096C40.1475 19.0059 40.3756 19.0988 40.5438 19.2643C40.712 19.4298 40.8064 19.6542 40.8064 19.8882C40.8064 20.1222 40.712 20.3467 40.5438 20.5121C40.3756 20.6776 40.1475 20.7706 39.9096 20.7706V20.7706Z" fill="#E85F27"/>
<path d="M30.5885 23.8C30.4311 23.8004 30.2764 23.7598 30.1401 23.6823L24.8128 20.6529C24.678 20.5756 24.5661 20.4649 24.4885 20.3317C24.4108 20.1985 24.3701 20.0476 24.3704 19.8941V12.0117C24.3704 11.7777 24.4649 11.5533 24.633 11.3878C24.8012 11.2224 25.0294 11.1294 25.2672 11.1294C25.5051 11.1294 25.7332 11.2224 25.9014 11.3878C26.0696 11.5533 26.1641 11.7777 26.1641 12.0117V19.4117L31.0429 22.1882C31.2021 22.2896 31.3243 22.4384 31.3917 22.6129C31.459 22.7874 31.468 22.9784 31.4173 23.1583C31.3666 23.3381 31.2588 23.4973 31.1098 23.6127C30.9607 23.7282 30.7781 23.7938 30.5885 23.8V23.8Z" fill="#E85F27"/>
<path d="M23.2166 18.4883V6.35889C20.4711 6.47901 17.8565 7.54751 15.8325 9.37653L23.2166 18.4883Z" fill="#E85F27"/>
<path d="M22.5886 20.3589H11.2285C11.303 23.8134 12.6525 27.1232 15.0252 29.6706L22.5886 20.3589Z" fill="#E85F27"/>
<path fill-rule="evenodd" clip-rule="evenodd" d="M15.7368 30.3587C17.7751 32.2348 20.428 33.3322 23.2165 33.4528V21.0999L15.7368 30.3587ZM20.3944 30.9469C20.1106 30.9469 19.8332 30.8641 19.5972 30.709C19.3612 30.5539 19.1773 30.3334 19.0687 30.0754C18.9601 29.8174 18.9317 29.5336 18.9871 29.2597C19.0424 28.9859 19.1791 28.7343 19.3798 28.5369C19.5805 28.3394 19.8361 28.205 20.1145 28.1505C20.3928 28.096 20.6814 28.124 20.9436 28.2308C21.2058 28.3377 21.4299 28.5187 21.5876 28.7508C21.7452 28.983 21.8294 29.2559 21.8294 29.5351C21.831 29.722 21.7948 29.9074 21.7231 30.0804C21.6513 30.2534 21.5453 30.4107 21.4113 30.5431C21.2772 30.6755 21.1178 30.7805 20.9422 30.8518C20.7666 30.9231 20.5784 30.9595 20.3885 30.9587L20.3944 30.9469Z" fill="#E85F27"/>
<path fill-rule="evenodd" clip-rule="evenodd" d="M15.1268 10.0588C12.7466 12.5657 11.3702 15.8362 11.2524 19.2647H22.6125L15.1268 10.0588ZM15.2165 17.2412C14.9327 17.2412 14.6553 17.1584 14.4193 17.0033C14.1833 16.8481 13.9994 16.6276 13.8908 16.3697C13.7822 16.1117 13.7538 15.8279 13.8091 15.554C13.8645 15.2801 14.0012 15.0286 14.2018 14.8312C14.4025 14.6337 14.6582 14.4993 14.9366 14.4448C15.2149 14.3903 15.5034 14.4183 15.7656 14.5251C16.0278 14.632 16.252 14.8129 16.4096 15.0451C16.5673 15.2773 16.6515 15.5502 16.6515 15.8294C16.6515 16.0153 16.6141 16.1994 16.5417 16.371C16.4692 16.5427 16.3629 16.6986 16.2291 16.8298C16.0952 16.9609 15.9363 17.0648 15.7615 17.1354C15.5867 17.206 15.3995 17.242 15.2105 17.2412H15.2165Z" fill="#E85F27"/>
</svg>
