<svg width="228" height="35" viewBox="0 0 228 35" fill="none" xmlns="http://www.w3.org/2000/svg">
<path d="M60.0111 18.8577H56.6776V7.60373H51.7107V18.8577H48.3772V5.03004H60.0111V18.8577ZM69.9449 16.2745H65.3769L64.5791 18.8577H61.0177L66.0891 5.03004H69.2231L74.3325 18.8577H70.7522L69.9449 16.2745ZM66.1746 13.7008H69.1472L67.6561 8.90481L66.1746 13.7008ZM87.1535 5.03004V18.8577H83.82V7.60373H80.7145L80.4866 12.2478C80.3916 13.8496 80.17 15.1285 79.8218 16.0845C79.4736 17.0406 78.9766 17.7402 78.3308 18.1834C77.6913 18.6202 76.8176 18.845 75.7096 18.8577H74.8169V16.2935L75.2822 16.246C75.947 16.151 76.4282 15.7458 76.7258 15.0304C77.0233 14.3086 77.2164 13.0962 77.3051 11.393L77.5425 5.03004H87.1535ZM92.5668 9.78804H94.2857C95.381 9.78804 96.3497 9.97481 97.1918 10.3484C98.0339 10.7219 98.6797 11.2506 99.1292 11.9344C99.585 12.6118 99.813 13.3906 99.813 14.2706C99.813 15.6319 99.3065 16.7367 98.2934 17.5851C97.2868 18.4335 95.9319 18.8577 94.2287 18.8577H89.2238V5.03004H92.5668V9.78804ZM104.144 18.8577H100.82V5.03004H104.144V18.8577ZM92.5668 12.3522V16.2935H94.2762C94.9537 16.2935 95.4887 16.1035 95.8812 15.7237C96.2801 15.3438 96.4795 14.8531 96.4795 14.2516C96.4795 13.6818 96.2832 13.2228 95.8907 12.8746C95.4982 12.5263 94.9537 12.3522 94.2572 12.3522H92.5668ZM117.449 5.03004V18.8577H114.125V13.7483L113.147 13.8717L111.922 13.9477C110.06 13.9477 108.636 13.5457 107.648 12.7416C106.66 11.9312 106.16 10.7852 106.147 9.30369V5.03004H109.481V9.2562C109.481 10.0096 109.661 10.5541 110.022 10.8897C110.389 11.2189 111.023 11.3835 111.922 11.3835L112.207 11.374C112.985 11.336 113.625 11.2759 114.125 11.1936V5.03004H117.449ZM125.635 14.1377H119.928V11.6589H125.635V14.1377ZM130.726 14.1851C130.776 15.73 131.574 16.5024 133.119 16.5024C133.91 16.5024 134.505 16.2523 134.904 15.7521C135.31 15.252 135.55 14.4099 135.626 13.2259H131.808V10.6523H135.626C135.537 9.51262 135.287 8.68955 134.876 8.18304C134.464 7.67021 133.895 7.41379 133.166 7.41379C132.35 7.41379 131.739 7.60373 131.333 7.98361C130.935 8.35715 130.723 8.96813 130.697 9.81653H127.383C127.522 8.26535 128.101 7.04974 129.121 6.16968C130.14 5.28329 131.489 4.8401 133.166 4.8401C134.319 4.8401 135.335 5.11235 136.215 5.65684C137.101 6.20134 137.782 6.98642 138.257 8.0121C138.738 9.03144 138.979 10.2217 138.979 11.583V12.3332C138.979 14.4479 138.456 16.0972 137.412 17.2812C136.367 18.4651 134.936 19.0571 133.119 19.0571C132.024 19.0571 131.049 18.8577 130.194 18.4588C129.345 18.0536 128.681 17.4838 128.199 16.7493C127.718 16.0086 127.452 15.1538 127.402 14.1851H130.726ZM145.541 13.3874H143.964V18.8577H140.631V5.03004H143.964V10.3768H145.247L147.906 5.03004H151.942L148.143 11.412L152.417 18.8577H148.476L145.541 13.3874ZM164.127 14.1756C164.082 15.138 163.823 15.9896 163.348 16.7303C162.873 17.4648 162.205 18.0346 161.344 18.4398C160.489 18.845 159.511 19.0476 158.409 19.0476C156.592 19.0476 155.161 18.4556 154.117 17.2717C153.072 16.0877 152.55 14.4162 152.55 12.2573V11.5735C152.55 10.2186 152.784 9.03461 153.253 8.02159C153.727 7.00225 154.408 6.21717 155.294 5.66634C156.181 5.10918 157.206 4.8306 158.371 4.8306C160.049 4.8306 161.398 5.2738 162.417 6.16018C163.437 7.04024 164.016 8.25585 164.155 9.80703H160.831C160.806 8.96496 160.594 8.36032 160.195 7.9931C159.796 7.62589 159.188 7.44228 158.371 7.44228C157.542 7.44228 156.934 7.75251 156.548 8.37298C156.162 8.99345 155.959 9.98431 155.94 11.3455V12.3237C155.94 13.7989 156.124 14.8531 156.491 15.4862C156.865 16.1194 157.504 16.4359 158.409 16.4359C159.176 16.4359 159.761 16.2555 160.166 15.8946C160.572 15.5337 160.787 14.9607 160.812 14.1756H164.127ZM177.318 18.8577H173.984V7.60373H169.018V18.8577H165.684V5.03004H177.318V18.8577ZM182.731 14.1662V18.8577H179.398V5.03004H184.916C185.973 5.03004 186.907 5.22631 187.717 5.61885C188.534 6.00507 189.164 6.55906 189.607 7.28083C190.057 7.99627 190.281 8.80985 190.281 9.72156C190.281 11.0701 189.797 12.1496 188.828 12.96C187.866 13.7641 186.543 14.1662 184.859 14.1662H182.731ZM182.731 11.5925H184.916C185.561 11.5925 186.052 11.431 186.388 11.1081C186.729 10.7852 186.9 10.3294 186.9 9.74055C186.9 9.09475 186.726 8.57875 186.378 8.19254C186.03 7.80633 185.555 7.61006 184.954 7.60373H182.731V11.5925ZM200.643 12.998H195.4V16.2935H201.592V18.8577H192.067V5.03004H201.611V7.60373H195.4V10.5193H200.643V12.998ZM214.138 14.1756C214.093 15.138 213.834 15.9896 213.359 16.7303C212.884 17.4648 212.216 18.0346 211.355 18.4398C210.5 18.845 209.522 19.0476 208.421 19.0476C206.604 19.0476 205.173 18.4556 204.128 17.2717C203.083 16.0877 202.561 14.4162 202.561 12.2573V11.5735C202.561 10.2186 202.795 9.03461 203.264 8.02159C203.739 7.00225 204.419 6.21717 205.306 5.66634C206.192 5.10918 207.218 4.8306 208.383 4.8306C210.06 4.8306 211.409 5.2738 212.428 6.16018C213.448 7.04024 214.027 8.25585 214.166 9.80703H210.842C210.817 8.96496 210.605 8.36032 210.206 7.9931C209.807 7.62589 209.199 7.44228 208.383 7.44228C207.553 7.44228 206.945 7.75251 206.559 8.37298C206.173 8.99345 205.97 9.98431 205.951 11.3455V12.3237C205.951 13.7989 206.135 14.8531 206.502 15.4862C206.876 16.1194 207.515 16.4359 208.421 16.4359C209.187 16.4359 209.772 16.2555 210.178 15.8946C210.583 15.5337 210.798 14.9607 210.823 14.1756H214.138ZM226.902 14.1756C226.857 15.138 226.598 15.9896 226.123 16.7303C225.648 17.4648 224.98 18.0346 224.119 18.4398C223.264 18.845 222.286 19.0476 221.185 19.0476C219.367 19.0476 217.937 18.4556 216.892 17.2717C215.847 16.0877 215.325 14.4162 215.325 12.2573V11.5735C215.325 10.2186 215.559 9.03461 216.028 8.02159C216.503 7.00225 217.183 6.21717 218.07 5.66634C218.956 5.10918 219.982 4.8306 221.147 4.8306C222.824 4.8306 224.173 5.2738 225.192 6.16018C226.212 7.04024 226.791 8.25585 226.93 9.80703H223.606C223.581 8.96496 223.369 8.36032 222.97 7.9931C222.571 7.62589 221.963 7.44228 221.147 7.44228C220.317 7.44228 219.709 7.75251 219.323 8.37298C218.937 8.99345 218.734 9.98431 218.715 11.3455V12.3237C218.715 13.7989 218.899 14.8531 219.266 15.4862C219.64 16.1194 220.279 16.4359 221.185 16.4359C221.951 16.4359 222.536 16.2555 222.941 15.8946C223.347 15.5337 223.562 14.9607 223.587 14.1756H226.902Z" fill="#E95E27"/>
<path d="M4.18413 25.6925L6.21355 30.7575L8.24298 25.6925H9.30459V31.9001H8.486V29.4827L8.56274 26.8735L6.52479 31.9001H5.89805L3.86437 26.8863L3.94537 29.4827V31.9001H3.12678V25.6925H4.18413ZM14.6638 25.6925H15.4824V31.9001H14.6638V27.1165L11.6069 31.9001H10.784V25.6925H11.6069V30.4761L14.6638 25.6925ZM21.7455 31.9001H20.9226V29.0308H17.7932V31.9001H16.9746V25.6925H17.7932V28.3614H20.9226V25.6925H21.7455V31.9001ZM25.3311 29.2952L26.7593 25.6925H27.7101L25.5144 30.8641C25.3666 31.1938 25.2287 31.4283 25.1008 31.5676C24.9729 31.704 24.8223 31.8092 24.6489 31.8831C24.4784 31.9542 24.2638 31.9897 24.0051 31.9897C23.7806 31.9897 23.637 31.9769 23.5745 31.9513L23.6001 31.3033L23.9881 31.3203C24.2865 31.3203 24.5082 31.1768 24.6532 30.8897L24.7598 30.668L24.9218 30.2885L22.8071 25.6925H23.7237L25.3311 29.2952ZM33.0565 26.3661H31.0612V31.9001H30.2469V26.3661H28.2558V25.6925H33.0565V26.3661Z" fill="#E95E27"/>
<path d="M28.7266 11.9374H38.7482C38.6074 9.00968 37.323 6.37469 35.3232 4.48291L28.7266 11.9374Z" fill="#E95E27"/>
<path d="M27.3884 11.3127V1.49341C24.921 1.58349 22.6564 2.47871 20.8594 3.93696L27.3884 11.3127Z" fill="#E95E27"/>
<path d="M27.383 23.4291V13.4521L20.7695 20.9236C22.5835 22.4212 24.8818 23.339 27.383 23.4291Z" fill="#E95E27"/>
<path d="M28.1719 1.49365V11.3129L34.7009 3.93721C32.9038 2.47333 30.6393 1.57811 28.1719 1.49365Z" fill="#E95E27"/>
<path d="M28.7266 12.8269L35.3964 20.3659C37.3906 18.446 38.6581 15.7828 38.7539 12.8269H28.7266Z" fill="#E95E27"/>
<path d="M26.832 12.8269H16.8047C16.9005 15.7828 18.1679 18.446 20.1621 20.3659L26.832 12.8269Z" fill="#E95E27"/>
<path d="M28.1719 13.4521V23.4291C30.6787 23.339 32.9771 22.4212 34.7854 20.9236L28.1719 13.4521Z" fill="#E95E27"/>
<path d="M26.8302 11.9374L20.2336 4.48291C18.2338 6.37469 16.9494 9.00405 16.8086 11.9374H26.8302Z" fill="#E95E27"/>
<path fill-rule="evenodd" clip-rule="evenodd" d="M19.3414 7.90566C19.3358 7.91129 19.3301 7.91692 19.3245 7.92255C18.9358 8.27726 18.6767 8.79525 18.4344 9.27382C18.3161 9.5103 18.2204 9.76366 18.2035 10.0227C18.1978 10.1521 18.1922 10.2816 18.226 10.4055C18.2992 10.687 18.7048 11.0248 18.9809 10.9404C19.3808 10.8222 19.5499 10.3436 19.6963 9.9945C19.9611 9.37517 20.2146 8.77272 20.8004 8.41802C20.8849 8.36734 21.161 8.1928 21.2962 8.45743C21.3187 8.50247 21.33 8.59255 21.3356 8.65449C21.3525 8.90222 21.2793 9.08239 21.1779 9.29634C21.0258 9.61164 20.6145 10.5857 20.5976 10.7771C20.5864 10.9685 20.5807 11.1037 20.7666 11.1994C20.992 11.3176 21.268 11.1712 21.4596 11.0417C21.8708 10.7659 22.1637 10.3267 22.6425 10.1522C22.7721 10.1015 23.0988 9.9945 23.2227 10.1015C23.3523 10.2141 23.1946 10.4393 23.1495 10.5575C23.0594 10.8053 22.9749 11.1262 23.3242 11.1769C23.5833 11.2106 23.8312 11.0249 24.0565 10.9235C24.1973 10.8559 24.4114 10.7264 24.5579 10.8278C24.7043 10.9291 24.5579 10.9235 24.5804 11.0474C24.6086 11.1769 24.7212 11.1093 24.7719 11.0586C24.9127 10.9235 24.8057 10.7771 24.6705 10.6758C24.4959 10.5463 24.3719 10.6195 24.2086 10.7152C24.0114 10.8278 23.4424 11.0248 23.5044 10.5688C23.5382 10.3267 23.7129 10.1071 23.6903 9.84811C23.6622 9.55534 23.3749 9.29071 23.0988 9.34139C22.8284 9.39206 22.5918 9.59475 22.4059 9.78618C22.3045 9.89316 22.2144 10.017 22.1186 10.1127C21.9947 10.2366 21.8764 10.3436 21.7637 10.4787C21.668 10.5857 21.5046 10.7433 21.3581 10.6532C21.1948 10.5575 21.2286 10.3154 21.2624 10.1578C21.3469 9.76929 21.544 9.40895 21.6849 9.04861C21.8426 8.64886 22.0285 8.28289 21.8539 7.85498C21.7581 7.62977 21.544 7.35389 21.2849 7.38767C21.0427 7.41582 20.7779 7.67482 20.6033 7.84373C20.423 8.01827 20.2991 8.24348 20.1413 8.42928C19.9442 8.66575 19.8597 8.98104 19.7301 9.25693C19.6456 9.4371 19.5442 9.61164 19.4428 9.78618C19.364 9.92131 19.2175 10.1916 19.0316 10.0621C18.9133 9.97761 18.9302 9.70735 18.9584 9.57786C19.0372 9.20063 19.1949 8.77836 19.3921 8.44617C19.4935 8.27726 19.5893 8.11398 19.7132 7.99011C19.8484 7.85498 19.9836 7.74238 20.1188 7.60162C20.378 7.33137 20.4681 6.91473 20.3047 6.56002C20.2258 6.38548 20.0963 6.17715 19.8935 6.17152C19.7076 6.16589 19.5498 6.3348 19.4991 6.50371C19.4597 6.65573 19.4766 6.94287 19.6343 7.01044C19.7188 7.04422 19.8146 7.01607 19.854 6.93161C19.916 6.79086 19.7864 6.84716 19.7864 6.73455C19.7808 6.58817 19.9554 6.64447 20.0061 6.71766C20.0456 6.77397 20.0456 6.88657 20.0399 6.95977C20.0399 7.31448 19.5724 7.69171 19.3414 7.90566Z" fill="white"/>
<path fill-rule="evenodd" clip-rule="evenodd" d="M31.8602 3.48159C31.8546 3.47596 31.849 3.47033 31.8433 3.4647C31.4997 3.06494 31.004 2.80032 30.542 2.55259C30.3167 2.43435 30.0745 2.33863 29.8266 2.32737C29.7027 2.32174 29.5787 2.32174 29.4604 2.36115C29.1957 2.43998 28.8858 2.87914 28.9647 3.17192C29.083 3.58856 29.5449 3.75747 29.8773 3.90949C30.4744 4.17411 31.049 4.43311 31.3983 5.04118C31.449 5.12563 31.6236 5.41841 31.3701 5.5648C31.3307 5.58732 31.2406 5.60421 31.1842 5.60984C30.9533 5.63236 30.773 5.55917 30.5758 5.45782C30.2716 5.30017 29.3422 4.88916 29.1619 4.8779C28.9816 4.86664 28.8521 4.86664 28.7676 5.0637C28.6605 5.30017 28.807 5.58732 28.9309 5.79001C29.2013 6.21792 29.6238 6.51632 29.8041 7.01742C29.8548 7.15255 29.9618 7.496 29.8661 7.62549C29.759 7.76625 29.5449 7.60297 29.4323 7.55793C29.1957 7.46784 28.8915 7.38902 28.852 7.75499C28.8239 8.02524 29.0098 8.28987 29.1112 8.52071C29.1731 8.67273 29.3083 8.89231 29.2126 9.04996C29.1224 9.20761 29.1224 9.04996 29.0041 9.07811C28.8858 9.11189 28.9478 9.2245 28.9985 9.2808C29.1281 9.42719 29.2689 9.30895 29.359 9.1682C29.483 8.9824 29.4041 8.8529 29.314 8.68399C29.2013 8.4813 29.0042 7.88449 29.4379 7.94079C29.6689 7.96894 29.8773 8.14911 30.1252 8.12096C30.4012 8.08718 30.6491 7.77751 30.5927 7.49036C30.5364 7.20885 30.3449 6.96111 30.1533 6.76968C30.0519 6.66834 29.9336 6.57263 29.8379 6.47691C29.7139 6.35304 29.6126 6.22918 29.483 6.11094C29.376 6.01522 29.2295 5.84631 29.3083 5.68867C29.3985 5.51976 29.6294 5.54791 29.7759 5.58169C30.1477 5.66051 30.4913 5.8632 30.835 6.00396C31.218 6.16161 31.5673 6.35304 31.9729 6.15598C32.1813 6.05464 32.4405 5.81816 32.4067 5.54791C32.3729 5.28891 32.125 5.01866 31.9616 4.83849C31.7926 4.65269 31.5786 4.52882 31.3927 4.35991C31.1673 4.15722 30.8631 4.07277 30.5984 3.94327C30.4237 3.85882 30.2547 3.75747 30.0914 3.65049C29.9618 3.57167 29.7027 3.41965 29.821 3.22259C29.8942 3.09872 30.159 3.10435 30.2773 3.13251C30.6378 3.21133 31.0378 3.36335 31.3589 3.56604C31.5222 3.66739 31.6743 3.76873 31.7983 3.89823C31.9278 4.03336 32.0405 4.17974 32.1757 4.31487C32.4348 4.58512 32.8348 4.66395 33.1672 4.48941C33.3305 4.40496 33.5277 4.25857 33.5277 4.05024C33.5277 3.85318 33.3643 3.68991 33.201 3.64487C33.0545 3.60545 32.7841 3.62797 32.7221 3.79688C32.6883 3.88697 32.7165 3.98832 32.801 4.02773C32.9362 4.08966 32.8799 3.95453 32.9869 3.9489C33.1221 3.94327 33.077 4.12907 33.0094 4.17974C32.9531 4.21916 32.8517 4.22479 32.7841 4.21916C32.4348 4.2079 32.063 3.72369 31.8602 3.48159Z" fill="white"/>
<path fill-rule="evenodd" clip-rule="evenodd" d="M36.1942 16.7397C36.1999 16.7341 36.2055 16.7285 36.2111 16.7228C36.5829 16.3512 36.8195 15.822 37.0392 15.3265C37.1463 15.0844 37.2308 14.8254 37.2364 14.5664C37.2364 14.4369 37.2307 14.3074 37.1969 14.1836C37.1124 13.9077 36.69 13.5924 36.4139 13.6825C36.0196 13.8176 35.8731 14.3074 35.7379 14.6678C35.5013 15.304 35.2704 15.9121 34.707 16.2949C34.6282 16.3512 34.3578 16.5427 34.2057 16.278C34.1831 16.2386 34.1606 16.1429 34.155 16.081C34.1268 15.8332 34.1888 15.6474 34.2845 15.4335C34.4254 15.1126 34.7916 14.1216 34.7972 13.9302C34.8028 13.7388 34.7972 13.6036 34.6113 13.5192C34.3803 13.4122 34.1155 13.5755 33.9296 13.7106C33.5297 14.0034 33.2593 14.4594 32.7861 14.6621C32.6565 14.7184 32.3354 14.8423 32.2115 14.741C32.0763 14.634 32.2228 14.4031 32.2622 14.2793C32.3411 14.0259 32.4086 13.705 32.0594 13.6712C31.8002 13.6487 31.558 13.8514 31.3383 13.964C31.1975 14.0372 30.989 14.1779 30.8369 14.0878C30.6848 13.9978 30.8369 13.9921 30.8031 13.8683C30.7694 13.7444 30.6623 13.812 30.6116 13.8683C30.4764 14.009 30.5891 14.1554 30.7299 14.2455C30.9102 14.3694 31.0285 14.2849 31.1919 14.1836C31.3834 14.0597 31.9411 13.8401 31.9017 14.2962C31.8791 14.5439 31.7157 14.7635 31.7495 15.0281C31.789 15.3209 32.0932 15.5686 32.3636 15.5067C32.6284 15.4448 32.8593 15.2308 33.034 15.0281C33.1297 14.9211 33.2142 14.7916 33.3043 14.6847C33.4226 14.5552 33.5353 14.4426 33.6423 14.3018C33.7325 14.1892 33.8846 14.0259 34.0367 14.1047C34.2 14.1948 34.1775 14.4369 34.155 14.5946C34.0874 14.9887 33.9071 15.3547 33.7832 15.7206C33.648 16.126 33.4734 16.5032 33.6705 16.9255C33.7719 17.1451 34.0029 17.4097 34.262 17.3647C34.5042 17.3196 34.7577 17.055 34.9211 16.8749C35.0901 16.689 35.2084 16.4638 35.3605 16.2668C35.5464 16.0247 35.6196 15.7037 35.7379 15.4222C35.8168 15.2364 35.9069 15.0563 36.0027 14.8761C36.0759 14.741 36.2111 14.4594 36.4027 14.5777C36.5266 14.6509 36.521 14.9268 36.4984 15.0563C36.4365 15.4391 36.3013 15.867 36.1154 16.2048C36.0196 16.3794 35.9351 16.5427 35.8168 16.6778C35.6872 16.8185 35.5577 16.9424 35.4281 17.0888C35.1802 17.3703 35.1126 17.7926 35.2873 18.136C35.3718 18.3049 35.5126 18.5076 35.7154 18.5076C35.9013 18.502 36.0534 18.3275 36.0928 18.1529C36.1266 18.0009 36.0985 17.7138 35.9351 17.6518C35.8506 17.618 35.7548 17.6518 35.721 17.7419C35.6647 17.8827 35.7886 17.8207 35.7999 17.9333C35.8112 18.0797 35.6309 18.0291 35.5858 17.9615C35.5464 17.9052 35.5408 17.7982 35.5408 17.725C35.5183 17.3647 35.9689 16.9649 36.1942 16.7397Z" fill="white"/>
<path fill-rule="evenodd" clip-rule="evenodd" d="M24.1094 21.3006C24.115 21.3062 24.1206 21.3118 24.1263 21.3175C24.5093 21.6778 25.0276 21.8861 25.512 22.0832C25.7486 22.1789 26.0022 22.2465 26.25 22.2296C26.374 22.2183 26.4979 22.207 26.6105 22.1564C26.864 22.0494 27.1345 21.5765 27.0218 21.3006C26.8641 20.9008 26.3908 20.7826 26.0416 20.67C25.4219 20.4729 24.8248 20.2759 24.4192 19.7072C24.3629 19.6284 24.1601 19.3581 24.3967 19.1836C24.4361 19.1554 24.5206 19.1273 24.5769 19.116C24.8079 19.071 24.9882 19.1216 25.2022 19.2005C25.5177 19.3243 26.4866 19.634 26.6669 19.6227C26.8472 19.6115 26.9767 19.6002 27.0443 19.3975C27.1288 19.1498 26.9542 18.8795 26.8134 18.6937C26.5035 18.294 26.0529 18.0462 25.8275 17.562C25.7656 17.4325 25.6247 17.1004 25.7092 16.9652C25.7994 16.8132 26.0303 16.954 26.1486 16.9821C26.3965 17.0497 26.7063 17.0891 26.7119 16.7231C26.7119 16.4529 26.5035 16.2108 26.3796 15.9856C26.3007 15.8448 26.1486 15.6365 26.2275 15.4732C26.3007 15.3043 26.3176 15.4619 26.4303 15.4225C26.5486 15.3775 26.4697 15.2705 26.4134 15.2198C26.2726 15.0903 26.143 15.2198 26.0641 15.3719C25.9627 15.5745 26.0529 15.6928 26.1599 15.8504C26.2895 16.0419 26.543 16.6105 26.1092 16.6049C25.8726 16.5993 25.6529 16.4416 25.405 16.4979C25.1346 16.5598 24.9206 16.8977 24.9994 17.1792C25.0783 17.4551 25.298 17.6803 25.5064 17.8492C25.6191 17.9393 25.743 18.0181 25.8501 18.1082C25.9853 18.2208 26.0979 18.3334 26.2388 18.4347C26.3514 18.5192 26.5204 18.6712 26.4528 18.8345C26.3796 19.0147 26.1486 19.009 25.9965 18.9921C25.6191 18.9527 25.2586 18.7894 24.898 18.6881C24.5037 18.5755 24.1319 18.4235 23.7488 18.66C23.5517 18.7838 23.3151 19.0484 23.377 19.3131C23.439 19.5664 23.7094 19.8085 23.8897 19.9662C24.0756 20.1351 24.3009 20.2364 24.4981 20.3772C24.7459 20.5574 25.0501 20.608 25.3262 20.7094C25.5064 20.777 25.6811 20.8614 25.8613 20.9459C25.9965 21.0134 26.2726 21.1317 26.1768 21.34C26.1148 21.4751 25.8557 21.492 25.7318 21.4807C25.3656 21.4413 24.9487 21.3344 24.6164 21.1654C24.4474 21.081 24.2784 21.0022 24.1432 20.8839C23.9967 20.7601 23.8728 20.6306 23.7263 20.5067C23.439 20.2646 23.039 20.2308 22.7236 20.4391C22.5715 20.5405 22.3856 20.7094 22.4081 20.9177C22.425 21.1148 22.6053 21.2612 22.7686 21.2837C22.9151 21.3062 23.1855 21.2555 23.2306 21.081C23.2531 20.9909 23.2137 20.8896 23.1292 20.8614C22.9883 20.8164 23.0616 20.9402 22.9545 20.9571C22.8193 20.9796 22.8475 20.7882 22.9095 20.7319C22.9602 20.6869 23.0616 20.67 23.1292 20.6643C23.4672 20.6418 23.8784 21.0866 24.1094 21.3006Z" fill="white"/>
<path d="M21.5021 15.5404C21.5077 15.3715 21.2768 15.2307 20.9838 15.2194C21.1866 15.0055 21.2599 14.7352 21.1472 14.617C21.0345 14.4988 20.7754 14.5719 20.567 14.7803C20.5614 14.4762 20.4318 14.2341 20.274 14.2341C20.1276 14.2341 20.0093 14.4368 19.9867 14.7014C19.8065 14.5213 19.5924 14.4481 19.4798 14.5494C19.3615 14.6564 19.4121 14.9323 19.598 15.1688C19.3107 15.1575 19.0742 15.2757 19.0629 15.4446C19.0516 15.6136 19.277 15.7656 19.5699 15.7881C19.3614 15.9964 19.277 16.261 19.3784 16.3849C19.4854 16.5088 19.7445 16.4468 19.9642 16.2442C19.9586 16.5482 20.0769 16.7959 20.2346 16.8015C20.3923 16.8072 20.5332 16.5707 20.5501 16.261C20.7529 16.4806 21.0007 16.5651 21.119 16.4468C21.2373 16.3342 21.1697 16.0583 20.9726 15.8331C21.2655 15.8331 21.4965 15.7036 21.5021 15.5404ZM20.2853 15.6699C20.2853 15.6699 20.2346 15.7093 20.1727 15.7768C20.1839 15.6867 20.1783 15.6248 20.1783 15.6248C20.1783 15.6248 20.1163 15.6136 20.0262 15.6192C20.0938 15.5629 20.1332 15.5178 20.1332 15.5178C20.1332 15.5178 20.0938 15.4615 20.0318 15.3996C20.1163 15.4109 20.1783 15.4109 20.1783 15.4109C20.1783 15.4109 20.1839 15.3602 20.1896 15.287C20.2346 15.3377 20.2684 15.3715 20.2684 15.3715C20.2684 15.3715 20.3191 15.332 20.3754 15.2588C20.3698 15.3489 20.3754 15.4109 20.3754 15.4109C20.3754 15.4109 20.4374 15.4165 20.5276 15.4109C20.46 15.4672 20.4205 15.5178 20.4205 15.5178C20.4205 15.5178 20.46 15.5685 20.5276 15.6304C20.4431 15.6192 20.3811 15.6248 20.3811 15.6248C20.3811 15.6248 20.3754 15.6924 20.3754 15.7825C20.3304 15.7093 20.2853 15.6699 20.2853 15.6699Z" fill="white"/>
<path d="M26.299 4.57405C26.3046 4.40514 26.0737 4.26438 25.7808 4.25312C25.9836 4.03917 26.0568 3.76892 25.9441 3.65068C25.8314 3.53244 25.5723 3.60564 25.3639 3.81396C25.3583 3.50992 25.2287 3.26782 25.071 3.26782C24.9245 3.26782 24.8062 3.47051 24.7837 3.73514C24.6034 3.55497 24.3893 3.48177 24.2767 3.58312C24.1584 3.6901 24.2091 3.96598 24.395 4.20245C24.1077 4.19119 23.871 4.30943 23.8598 4.47834C23.8485 4.64725 24.0739 4.79927 24.3668 4.82179C24.1584 5.03011 24.0738 5.29473 24.1752 5.4186C24.2823 5.54246 24.5414 5.48053 24.7611 5.27784C24.7555 5.58188 24.8738 5.82961 25.0315 5.83524C25.1893 5.84087 25.3301 5.6044 25.347 5.29473C25.5498 5.51432 25.7977 5.59877 25.916 5.48053C26.0343 5.36793 25.9666 5.09204 25.7695 4.86683C26.0624 4.87246 26.2934 4.74296 26.299 4.57405ZM25.0766 4.70918C25.0766 4.70918 25.0259 4.74859 24.9639 4.81615C24.9752 4.72607 24.9696 4.66414 24.9696 4.66414C24.9696 4.66414 24.9076 4.65288 24.8175 4.65851C24.885 4.6022 24.9245 4.55716 24.9245 4.55716C24.9245 4.55716 24.8851 4.50086 24.8231 4.43893C24.9076 4.45019 24.9696 4.45019 24.9696 4.45019C24.9696 4.45019 24.9752 4.39951 24.9808 4.32632C25.0259 4.37699 25.0597 4.41078 25.0597 4.41078C25.0597 4.41078 25.1104 4.37136 25.1667 4.29817C25.1611 4.38825 25.1667 4.45019 25.1667 4.45019C25.1667 4.45019 25.2287 4.45582 25.3188 4.45019C25.2512 4.50649 25.2118 4.55716 25.2118 4.55716C25.2118 4.55716 25.2512 4.60784 25.3188 4.66977C25.2343 4.65851 25.1724 4.66414 25.1724 4.66414C25.1724 4.66414 25.1667 4.7317 25.1667 4.82179C25.1216 4.74859 25.0766 4.70918 25.0766 4.70918Z" fill="white"/>
<path d="M36.51 8.8741C36.5156 8.70519 36.2846 8.56444 35.9917 8.55317C36.1945 8.33922 36.2677 8.06897 36.1551 7.95073C36.0424 7.8325 35.7833 7.90569 35.5748 8.11401C35.5692 7.80997 35.4396 7.56787 35.2819 7.56787C35.1354 7.56787 35.0171 7.77056 34.9946 8.03519C34.8143 7.85502 34.6003 7.78183 34.4876 7.88317C34.3693 7.99015 34.42 8.26603 34.6059 8.5025C34.3186 8.49124 34.082 8.60948 34.0707 8.77839C34.0595 8.9473 34.2848 9.09932 34.5777 9.12184C34.3693 9.33016 34.2848 9.59478 34.3862 9.71865C34.4932 9.84252 34.7524 9.78058 34.9721 9.57789C34.9664 9.88193 35.0847 10.1297 35.2425 10.1353C35.4002 10.1409 35.541 9.90445 35.5579 9.59479C35.7607 9.81437 36.0086 9.89882 36.1269 9.78058C36.2452 9.66798 36.1776 9.39209 35.9804 9.16688C36.2734 9.17251 36.5043 9.04301 36.51 8.8741ZM35.2932 9.00923C35.2932 9.00923 35.2425 9.04864 35.1805 9.11621C35.1918 9.02612 35.1861 8.96419 35.1861 8.96419C35.1861 8.96419 35.1242 8.95293 35.034 8.95856C35.1016 8.90225 35.1411 8.85721 35.1411 8.85721C35.1411 8.85721 35.1016 8.80091 35.0397 8.73898C35.1242 8.75024 35.1861 8.75024 35.1861 8.75024C35.1861 8.75024 35.1917 8.69957 35.1974 8.62637C35.2424 8.67704 35.2819 8.71083 35.2819 8.71083C35.2819 8.71083 35.3326 8.67141 35.3889 8.59822C35.3833 8.6883 35.3889 8.75024 35.3889 8.75024C35.3889 8.75024 35.4509 8.75587 35.541 8.75024C35.4734 8.80654 35.434 8.85721 35.434 8.85721C35.434 8.85721 35.4734 8.90789 35.541 8.96982C35.4565 8.95856 35.3946 8.96419 35.3946 8.96419C35.3946 8.96419 35.3889 9.03175 35.3889 9.12184C35.3382 9.04864 35.2932 9.00923 35.2932 9.00923Z" fill="white"/>
<path d="M31.7717 20.0111C31.7773 19.8422 31.5463 19.7014 31.2534 19.6901C31.4562 19.4762 31.5294 19.2059 31.4168 19.0877C31.3041 18.9695 31.045 19.0426 30.8365 19.251C30.8309 18.9469 30.7013 18.7048 30.5436 18.7048C30.3971 18.7048 30.2788 18.9075 30.2563 19.1721C30.076 18.992 29.862 18.9188 29.7493 19.0201C29.631 19.1271 29.6817 19.403 29.8676 19.6395C29.5803 19.6282 29.3437 19.7464 29.3324 19.9153C29.3212 20.0843 29.5465 20.2363 29.8394 20.2588C29.631 20.4671 29.5465 20.7317 29.6479 20.8556C29.7549 20.9795 30.0141 20.9175 30.2338 20.7149C30.2281 21.0189 30.3464 21.2666 30.5042 21.2723C30.6619 21.2779 30.8027 21.0414 30.8196 20.7317C31.0224 20.9513 31.2703 21.0358 31.3886 20.9175C31.5069 20.8049 31.4393 20.5291 31.2421 20.3038C31.5351 20.3095 31.7717 20.1743 31.7717 20.0111ZM30.5549 20.1406C30.5549 20.1406 30.5041 20.18 30.4422 20.2475C30.4534 20.1575 30.4478 20.0955 30.4478 20.0955C30.4478 20.0955 30.3858 20.0843 30.2957 20.0899C30.3633 20.0336 30.4027 19.9885 30.4027 19.9885C30.4027 19.9885 30.3633 19.9322 30.3013 19.8703C30.3858 19.8816 30.4478 19.8816 30.4478 19.8816C30.4478 19.8816 30.4535 19.8309 30.4591 19.7577C30.5042 19.8084 30.538 19.8422 30.538 19.8422C30.538 19.8422 30.5887 19.8027 30.645 19.7295C30.6394 19.8196 30.645 19.8816 30.645 19.8816C30.645 19.8816 30.707 19.8872 30.7971 19.8816C30.7295 19.9379 30.69 19.9885 30.69 19.9885C30.69 19.9885 30.7295 20.0392 30.7971 20.1011C30.7126 20.0899 30.6506 20.0955 30.6506 20.0955C30.6506 20.0955 30.645 20.1631 30.645 20.2532C30.5999 20.18 30.5549 20.1406 30.5549 20.1406Z" fill="white"/>
<path d="M15.1896 8.84616C15.1896 8.82927 15.1896 8.81238 15.1896 8.80112C15.1896 8.79549 15.1896 8.78986 15.1896 8.78423C15.1896 8.69977 15.184 8.61532 15.184 8.53649C15.184 8.49145 15.184 8.45204 15.1783 8.407C15.1783 8.37885 15.1727 8.34506 15.1727 8.31691C15.122 7.45547 14.9304 6.63345 14.6037 5.85647C14.5643 5.76638 14.5249 5.68756 14.4798 5.6031C14.2432 5.102 13.9559 4.62906 13.6122 4.18989C13.1109 3.55367 12.5419 3.02442 11.9054 2.57963C11.911 2.57399 11.9166 2.57399 11.9223 2.56836C11.4998 2.27559 11.0491 2.02223 10.5646 1.80827C9.64077 1.40852 8.65495 1.20583 7.61279 1.20583C7.60152 1.20583 7.59025 1.20583 7.57899 1.20583C6.94242 1.2002 6.30585 1.28465 5.66365 1.45356C4.65528 1.71819 3.75396 2.15735 2.95966 2.78232C2.71743 2.97375 2.49208 3.18207 2.27238 3.39039L2.27802 3.41291C2.26675 3.42417 2.25549 3.4298 2.24422 3.44106C1.55696 4.12796 1.01055 4.9331 0.610581 5.85647C0.204983 6.77984 0.0078125 7.76514 0.0078125 8.80675C0.0078125 9.84836 0.210616 10.828 0.610581 11.757C1.01055 12.6804 1.55696 13.4855 2.24422 14.1724C2.93149 14.8593 3.73707 15.3998 4.66094 15.7883C5.5848 16.1825 6.56499 16.3739 7.61279 16.3739C7.90009 16.3739 8.17611 16.357 8.44651 16.3176C8.71691 16.2838 8.98166 16.2444 9.24643 16.1937L5.37634 22.2294C5.25804 22.4208 5.19607 22.6066 5.19607 22.7981C5.19607 23.0852 5.29749 23.3442 5.50029 23.5807C5.70309 23.8172 5.96785 23.9354 6.30021 23.9354C6.70581 23.9354 7.02129 23.7608 7.25788 23.4005L13.7249 13.2828C13.9052 12.9957 14.0742 12.7029 14.2319 12.3989C14.4009 12.0723 14.8178 11.0758 14.8629 10.9125C14.9417 10.6366 15.0093 10.3551 15.0657 10.0679C15.0713 10.0285 15.0825 9.98911 15.0882 9.9497C15.0938 9.93281 15.0938 9.91592 15.0994 9.8934C15.122 9.75264 15.1389 9.61188 15.1502 9.47113C15.1558 9.41482 15.1614 9.35852 15.1614 9.30221C15.1783 9.14457 15.1896 8.99255 15.1896 8.84616ZM12.5645 10.9069C12.2772 11.56 11.8997 12.1286 11.4265 12.6128C10.9533 13.097 10.3844 13.4799 9.71964 13.767C9.05491 14.0542 8.35636 14.195 7.62403 14.195C6.86353 14.195 6.15937 14.0542 5.51154 13.767C4.85807 13.4799 4.28913 13.097 3.80466 12.6128C3.3202 12.1286 2.93714 11.56 2.64984 10.9069C2.36254 10.2537 2.2217 9.54995 2.2217 8.79549C2.2217 8.06355 2.36254 7.36539 2.64984 6.70101C2.93714 6.03664 3.3202 5.46797 3.80466 4.99503C4.28913 4.52208 4.85807 4.14485 5.51154 3.85771C6.165 3.57056 6.86917 3.4298 7.62403 3.4298C8.35636 3.4298 9.05491 3.57056 9.71964 3.85771C9.86047 3.91964 10.1196 4.05477 10.1252 4.04351C10.1872 4.07729 10.2435 4.10544 10.3055 4.13922C10.8857 4.4883 11.3927 4.94435 11.8378 5.50176C12.2772 6.05916 12.5926 6.70664 12.7842 7.43858C12.9701 8.148 13.0095 8.86305 12.9025 9.57247C12.8799 9.71886 12.8349 10.0173 12.8518 10.0285C12.8011 10.2425 12.7391 10.4564 12.6659 10.6591C12.6321 10.7492 12.5983 10.828 12.5645 10.9069Z" fill="#E95E27"/>
<path d="M49.5999 30.6402C49.9926 30.2008 50.255 29.7849 50.3872 29.3922C50.5233 28.9957 50.6049 28.4903 50.6321 27.876L50.7138 25.4617H55.0933V30.6402H55.968V33.6493H54.5568V31.7715H50.5097V33.6493H49.0751L49.0809 30.6402H49.5999ZM51.2619 30.6402H53.682V26.6805H52.09L52.0492 27.8877C51.9948 29.0462 51.7323 29.9637 51.2619 30.6402ZM61.7305 28.5583C61.7305 27.9401 61.853 27.3842 62.0979 26.8905C62.3429 26.3928 62.6869 26.0118 63.1301 25.7475C63.5733 25.4792 64.0826 25.3451 64.658 25.3451C65.5094 25.3451 66.1995 25.6192 66.7282 26.1673C67.2608 26.7155 67.5485 27.4425 67.5913 28.3483L67.5971 28.6807C67.5971 29.3028 67.4766 29.8587 67.2355 30.3486C66.9984 30.8384 66.6563 31.2175 66.2092 31.4857C65.766 31.754 65.2528 31.8881 64.6697 31.8881C63.7794 31.8881 63.066 31.5926 62.5295 31.0017C61.9968 30.4069 61.7305 29.6157 61.7305 28.6283V28.5583ZM63.1476 28.6807C63.1476 29.33 63.2817 29.8393 63.55 30.2086C63.8182 30.5741 64.1915 30.7568 64.6697 30.7568C65.1478 30.7568 65.5191 30.5702 65.7835 30.197C66.0517 29.8237 66.1859 29.2775 66.1859 28.5583C66.1859 27.9207 66.0479 27.4153 65.7718 27.0421C65.4997 26.6689 65.1284 26.4822 64.658 26.4822C64.1954 26.4822 63.828 26.6669 63.5558 27.0362C63.2837 27.4017 63.1476 27.9499 63.1476 28.6807ZM76.4037 30.7568C76.7575 30.7568 77.051 30.6538 77.2843 30.4477C77.5175 30.2417 77.642 29.987 77.6575 29.6838H78.9929C78.9774 30.0764 78.8549 30.4438 78.6255 30.7859C78.3962 31.1242 78.0852 31.3924 77.6925 31.5907C77.2998 31.789 76.8761 31.8881 76.4212 31.8881C75.5387 31.8881 74.8389 31.6024 74.3218 31.0309C73.8048 30.4594 73.5462 29.6702 73.5462 28.6633V28.5175C73.5462 27.5572 73.8028 26.7894 74.316 26.214C74.8292 25.6347 75.529 25.3451 76.4154 25.3451C77.1657 25.3451 77.7761 25.5647 78.2465 26.0041C78.7208 26.4395 78.9696 27.0129 78.9929 27.7244H77.6575C77.642 27.3628 77.5175 27.0654 77.2843 26.8321C77.0549 26.5989 76.7614 26.4822 76.4037 26.4822C75.945 26.4822 75.5912 26.6494 75.3424 26.9838C75.0936 27.3142 74.9672 27.8177 74.9633 28.4941V28.7216C74.9633 29.4058 75.0858 29.917 75.3307 30.2553C75.5795 30.5896 75.9372 30.7568 76.4037 30.7568ZM90.0447 26.5872H87.9978V31.7715H86.5808V26.5872H84.5572V25.4617H90.0447V26.5872ZM99.6852 31.7715C99.623 31.651 99.5686 31.4546 99.522 31.1825C99.071 31.6529 98.5189 31.8881 97.8658 31.8881C97.2321 31.8881 96.715 31.7073 96.3146 31.3458C95.9142 30.9842 95.7139 30.5371 95.7139 30.0045C95.7139 29.3319 95.9627 28.8168 96.4604 28.4591C96.9619 28.0976 97.6772 27.9168 98.6064 27.9168H99.4753V27.5028C99.4753 27.1762 99.3839 26.9157 99.2012 26.7213C99.0185 26.5231 98.7405 26.4239 98.3673 26.4239C98.0446 26.4239 97.7803 26.5056 97.5742 26.6689C97.3682 26.8283 97.2651 27.0324 97.2651 27.2812H95.8481C95.8481 26.9352 95.9627 26.6125 96.1921 26.3131C96.4215 26.0099 96.7325 25.7727 97.1252 25.6017C97.5217 25.4306 97.963 25.3451 98.4489 25.3451C99.1876 25.3451 99.7766 25.5317 100.216 25.9049C100.655 26.2743 100.881 26.7952 100.892 27.4678V30.3136C100.892 30.8812 100.972 31.3341 101.131 31.6723V31.7715H99.6852ZM98.1282 30.751C98.4081 30.751 98.6705 30.6829 98.9155 30.5469C99.1643 30.4108 99.3509 30.2281 99.4753 29.9987V28.809H98.7114C98.1865 28.809 97.7919 28.9004 97.5276 29.0831C97.2632 29.2659 97.131 29.5244 97.131 29.8587C97.131 30.1309 97.2204 30.3486 97.3993 30.5119C97.582 30.6713 97.825 30.751 98.1282 30.751ZM107.5 31.7715V25.4617H110.061C110.924 25.4617 111.581 25.6133 112.032 25.9166C112.483 26.2159 112.708 26.6475 112.708 27.2112C112.708 27.5028 112.617 27.7652 112.434 27.9985C112.255 28.2278 111.989 28.4047 111.635 28.5291C112.047 28.6147 112.374 28.7877 112.615 29.0481C112.856 29.3086 112.976 29.6157 112.976 29.9695C112.976 30.5566 112.759 31.0037 112.323 31.3108C111.892 31.6179 111.27 31.7715 110.457 31.7715H107.5ZM108.918 29.0831V30.6518H110.469C111.196 30.6518 111.559 30.3913 111.559 29.8704C111.559 29.3455 111.19 29.0831 110.451 29.0831H108.918ZM108.918 28.0684H110.084C110.889 28.0684 111.291 27.8313 111.291 27.357C111.291 26.8594 110.91 26.6028 110.148 26.5872H108.918V28.0684ZM123.159 25.4617H124.57V31.7715H123.159V27.5611L120.687 31.7715H119.275V25.4617H120.687V29.6721L123.159 25.4617ZM134.841 30.0278L136.707 25.4617H138.48V31.7715H137.063V27.5961L135.325 31.7715H134.363L132.619 27.5727V31.7715H131.202V25.4617H132.986L134.841 30.0278ZM164.042 25.8116C164.835 25.8116 165.471 26.0779 165.949 26.6105C166.427 27.1393 166.666 27.8585 166.666 28.7682V28.8382C166.666 29.7479 166.406 30.4846 165.885 31.0484C165.368 31.6121 164.664 31.8939 163.774 31.8939C162.907 31.8939 162.207 31.6063 161.675 31.0309C161.142 30.4555 160.876 29.6702 160.876 28.6749V28.2667C160.876 26.906 161.117 25.8291 161.599 25.036C162.081 24.2429 162.8 23.7472 163.757 23.549C164.293 23.4401 164.639 23.3254 164.795 23.2049C164.954 23.0805 165.034 22.9133 165.034 22.7034H166.177C166.177 23.096 166.112 23.4148 165.984 23.6598C165.856 23.9047 165.66 24.1049 165.395 24.2604C165.131 24.412 164.676 24.5559 164.031 24.692C163.44 24.8164 162.989 25.038 162.678 25.3568C162.371 25.6755 162.165 26.1168 162.06 26.6805C162.623 26.1012 163.284 25.8116 164.042 25.8116ZM163.762 26.9488C163.304 26.9488 162.944 27.1043 162.684 27.4153C162.423 27.7224 162.293 28.1967 162.293 28.8382C162.293 29.4447 162.421 29.917 162.678 30.2553C162.934 30.5935 163.3 30.7626 163.774 30.7626C164.244 30.7626 164.608 30.5935 164.865 30.2553C165.125 29.9132 165.255 29.4 165.255 28.7157C165.255 28.1715 165.125 27.7419 164.865 27.427C164.608 27.1082 164.241 26.9488 163.762 26.9488ZM174.318 27.4678H175.706C176.223 27.4678 176.674 27.5572 177.059 27.736C177.444 27.9149 177.736 28.1656 177.934 28.4883C178.136 28.811 178.237 29.1862 178.237 29.6138C178.237 30.2631 178.008 30.784 177.549 31.1767C177.09 31.5693 176.48 31.7676 175.718 31.7715H172.901V25.4617H174.318V27.4678ZM180.704 31.7715H179.287V25.4617H180.704V31.7715ZM174.318 28.6049V30.6402H175.701C176.047 30.6402 176.319 30.5546 176.517 30.3836C176.719 30.2086 176.82 29.9618 176.82 29.643C176.82 29.3242 176.721 29.0734 176.523 28.8907C176.328 28.7041 176.064 28.6088 175.73 28.6049H174.318ZM190.012 30.7568C190.366 30.7568 190.659 30.6538 190.893 30.4477C191.126 30.2417 191.25 29.987 191.266 29.6838H192.601C192.586 30.0764 192.463 30.4438 192.234 30.7859C192.005 31.1242 191.694 31.3924 191.301 31.5907C190.908 31.789 190.485 31.8881 190.03 31.8881C189.147 31.8881 188.447 31.6024 187.93 31.0309C187.413 30.4594 187.155 29.6702 187.155 28.6633V28.5175C187.155 27.5572 187.411 26.7894 187.924 26.214C188.438 25.6347 189.137 25.3451 190.024 25.3451C190.774 25.3451 191.385 25.5647 191.855 26.0041C192.329 26.4395 192.578 27.0129 192.601 27.7244H191.266C191.25 27.3628 191.126 27.0654 190.893 26.8321C190.663 26.5989 190.37 26.4822 190.012 26.4822C189.553 26.4822 189.2 26.6494 188.951 26.9838C188.702 27.3142 188.576 27.8177 188.572 28.4941V28.7216C188.572 29.4058 188.694 29.917 188.939 30.2553C189.188 30.5896 189.546 30.7568 190.012 30.7568ZM203.653 26.5872H201.606V31.7715H200.189V26.5872H198.166V25.4617H203.653V26.5872ZM215.142 28.6807C215.142 29.6566 214.921 30.4361 214.477 31.0192C214.034 31.5985 213.439 31.8881 212.693 31.8881C212.001 31.8881 211.447 31.6607 211.031 31.2058V34.1974H209.614V25.4617H210.92L210.979 26.1032C211.395 25.5978 211.96 25.3451 212.676 25.3451C213.445 25.3451 214.048 25.6328 214.483 26.2082C214.923 26.7797 215.142 27.5747 215.142 28.5933V28.6807ZM213.731 28.5583C213.731 27.9285 213.605 27.4289 213.352 27.0596C213.103 26.6902 212.745 26.5056 212.279 26.5056C211.7 26.5056 211.284 26.7447 211.031 27.2229V30.022C211.288 30.5119 211.707 30.7568 212.291 30.7568C212.742 30.7568 213.093 30.576 213.346 30.2145C213.603 29.849 213.731 29.297 213.731 28.5583ZM221.097 28.5583C221.097 27.9401 221.22 27.3842 221.465 26.8905C221.71 26.3928 222.054 26.0118 222.497 25.7475C222.94 25.4792 223.449 25.3451 224.025 25.3451C224.876 25.3451 225.566 25.6192 226.095 26.1673C226.628 26.7155 226.915 27.4425 226.958 28.3483L226.964 28.6807C226.964 29.3028 226.843 29.8587 226.602 30.3486C226.365 30.8384 226.023 31.2175 225.576 31.4857C225.133 31.754 224.62 31.8881 224.036 31.8881C223.146 31.8881 222.433 31.5926 221.896 31.0017C221.364 30.4069 221.097 29.6157 221.097 28.6283V28.5583ZM222.514 28.6807C222.514 29.33 222.648 29.8393 222.917 30.2086C223.185 30.5741 223.558 30.7568 224.036 30.7568C224.515 30.7568 224.886 30.5702 225.15 30.197C225.418 29.8237 225.553 29.2775 225.553 28.5583C225.553 27.9207 225.415 27.4153 225.139 27.0421C224.866 26.6689 224.495 26.4822 224.025 26.4822C223.562 26.4822 223.195 26.6669 222.923 27.0362C222.65 27.4017 222.514 27.9499 222.514 28.6807Z" fill="#E95E27"/>
</svg>
