<svg width="165" height="25" viewBox="0 0 165 25" fill="none" xmlns="http://www.w3.org/2000/svg">
<path d="M43.1724 13H40.7782V4.91706H37.2108V13H34.8166V3.06855H43.1724V13ZM50.3072 11.1447H47.0263L46.4533 13H43.8954L47.5379 3.06855H49.7888L53.4586 13H50.887L50.3072 11.1447ZM47.5993 9.29617H49.7343L48.6634 5.85154L47.5993 9.29617ZM62.667 3.06855V13H60.2728V4.91706H58.0423L57.8786 8.25255C57.8104 9.40303 57.6512 10.3216 57.4011 11.0083C57.151 11.6949 56.794 12.1974 56.3302 12.5157C55.8709 12.8295 55.2434 12.9909 54.4476 13H53.8064V11.1583L54.1407 11.1242C54.6181 11.056 54.9637 10.765 55.1775 10.2511C55.3912 9.73272 55.5299 8.8619 55.5935 7.63866L55.7641 3.06855H62.667ZM66.555 6.4859H67.7896C68.5763 6.4859 69.272 6.62005 69.8768 6.88834C70.4816 7.15664 70.9455 7.53634 71.2683 8.02746C71.5957 8.51402 71.7594 9.07335 71.7594 9.70543C71.7594 10.6831 71.3956 11.4766 70.6681 12.086C69.945 12.6953 68.9719 13 67.7487 13H64.154V3.06855H66.555V6.4859ZM74.8698 13H72.4825V3.06855H74.8698V13ZM66.555 8.32758V11.1583H67.7828C68.2693 11.1583 68.6536 11.0219 68.9355 10.7491C69.222 10.4762 69.3652 10.1238 69.3652 9.69179C69.3652 9.28253 69.2243 8.95284 68.9423 8.70274C68.6604 8.45263 68.2693 8.32758 67.7691 8.32758H66.555ZM84.4261 3.06855V13H82.0387V9.33028L81.3362 9.41895L80.4563 9.47352C79.1193 9.47352 78.0962 9.18476 77.3868 8.60724C76.6774 8.02518 76.3182 7.20211 76.3091 6.13803V3.06855H78.7033V6.10392C78.7033 6.64506 78.8329 7.03613 79.0921 7.27714C79.3558 7.5136 79.8105 7.63183 80.4563 7.63183L80.6609 7.62501C81.2202 7.59773 81.6795 7.55453 82.0387 7.49541V3.06855H84.4261ZM90.3059 9.60994H86.2064V7.82965H90.3059V9.60994ZM93.9619 9.64404C93.9983 10.7536 94.5713 11.3084 95.6808 11.3084C96.2493 11.3084 96.6767 11.1288 96.9632 10.7695C97.2542 10.4103 97.427 9.80548 97.4816 8.95512H94.7395V7.10661H97.4816C97.4179 6.28809 97.2383 5.69693 96.9427 5.33314C96.6472 4.9648 96.2379 4.78064 95.7149 4.78064C95.1283 4.78064 94.6895 4.91706 94.3985 5.1899C94.112 5.45819 93.9597 5.89701 93.9415 6.50636H91.5609C91.661 5.39226 92.0771 4.51916 92.8092 3.88708C93.5413 3.25045 94.5099 2.93213 95.7149 2.93213C96.5426 2.93213 97.2724 3.12767 97.9045 3.51874C98.5411 3.90982 99.03 4.47369 99.371 5.21036C99.7166 5.94249 99.8894 6.79739 99.8894 7.77508V8.31394C99.8894 9.83276 99.5143 11.0173 98.764 11.8677C98.0136 12.7181 96.9859 13.1432 95.6808 13.1432C94.8941 13.1432 94.1939 13 93.58 12.7135C92.9706 12.4225 92.4931 12.0132 92.1475 11.4857C91.8019 10.9537 91.611 10.3398 91.5746 9.64404H93.9619ZM104.603 9.07108H103.47V13H101.076V3.06855H103.47V6.9088H104.391L106.301 3.06855H109.2L106.472 7.6523L109.541 13H106.71L104.603 9.07108ZM117.952 9.63722C117.92 10.3284 117.733 10.94 117.392 11.4721C117.051 11.9996 116.571 12.4088 115.953 12.6999C115.339 12.9909 114.637 13.1364 113.845 13.1364C112.54 13.1364 111.513 12.7112 110.762 11.8609C110.012 11.0105 109.637 9.81002 109.637 8.25937V7.76826C109.637 6.79512 109.805 5.94476 110.141 5.21718C110.483 4.48506 110.971 3.92118 111.608 3.52556C112.245 3.1254 112.981 2.92531 113.818 2.92531C115.023 2.92531 115.992 3.24363 116.724 3.88026C117.456 4.51234 117.872 5.38544 117.972 6.49954H115.585C115.566 5.89474 115.414 5.46047 115.128 5.19672C114.841 4.93297 114.405 4.8011 113.818 4.8011C113.222 4.8011 112.786 5.02392 112.508 5.46956C112.231 5.9152 112.085 6.62687 112.072 7.60455V8.30712C112.072 9.36665 112.204 10.1238 112.467 10.5785C112.736 11.0333 113.195 11.2606 113.845 11.2606C114.396 11.2606 114.816 11.131 115.107 10.8718C115.398 10.6126 115.553 10.2011 115.571 9.63722H117.952ZM127.426 13H125.032V4.91706H121.464V13H119.07V3.06855H127.426V13ZM131.314 9.6304V13H128.92V3.06855H132.883C133.642 3.06855 134.313 3.20952 134.895 3.49146C135.482 3.76885 135.934 4.16674 136.252 4.68514C136.575 5.19899 136.737 5.78333 136.737 6.43815C136.737 7.40674 136.389 8.18207 135.693 8.76413C135.002 9.34164 134.052 9.6304 132.842 9.6304H131.314ZM131.314 7.7819H132.883C133.347 7.7819 133.699 7.66594 133.94 7.43402C134.186 7.20211 134.308 6.8747 134.308 6.45179C134.308 5.98796 134.183 5.61735 133.933 5.33996C133.683 5.06257 133.342 4.9216 132.91 4.91706H131.314V7.7819ZM144.178 8.79141H140.413V11.1583H144.861V13H138.019V3.06855H144.874V4.91706H140.413V7.01112H144.178V8.79141ZM153.871 9.63722C153.839 10.3284 153.653 10.94 153.312 11.4721C152.971 11.9996 152.491 12.4088 151.873 12.6999C151.259 12.9909 150.556 13.1364 149.765 13.1364C148.46 13.1364 147.432 12.7112 146.682 11.8609C145.932 11.0105 145.556 9.81002 145.556 8.25937V7.76826C145.556 6.79512 145.725 5.94476 146.061 5.21718C146.402 4.48506 146.891 3.92118 147.528 3.52556C148.164 3.1254 148.901 2.92531 149.738 2.92531C150.943 2.92531 151.911 3.24363 152.643 3.88026C153.376 4.51234 153.792 5.38544 153.892 6.49954H151.504C151.486 5.89474 151.334 5.46047 151.047 5.19672C150.761 4.93297 150.324 4.8011 149.738 4.8011C149.142 4.8011 148.705 5.02392 148.428 5.46956C148.151 5.9152 148.005 6.62687 147.991 7.60455V8.30712C147.991 9.36665 148.123 10.1238 148.387 10.5785C148.655 11.0333 149.115 11.2606 149.765 11.2606C150.315 11.2606 150.736 11.131 151.027 10.8718C151.318 10.6126 151.472 10.2011 151.491 9.63722H153.871ZM163.039 9.63722C163.007 10.3284 162.82 10.94 162.479 11.4721C162.138 11.9996 161.659 12.4088 161.04 12.6999C160.426 12.9909 159.724 13.1364 158.932 13.1364C157.627 13.1364 156.6 12.7112 155.849 11.8609C155.099 11.0105 154.724 9.81002 154.724 8.25937V7.76826C154.724 6.79512 154.892 5.94476 155.229 5.21718C155.57 4.48506 156.058 3.92118 156.695 3.52556C157.332 3.1254 158.068 2.92531 158.905 2.92531C160.11 2.92531 161.079 3.24363 161.811 3.88026C162.543 4.51234 162.959 5.38544 163.059 6.49954H160.672C160.654 5.89474 160.501 5.46047 160.215 5.19672C159.928 4.93297 159.492 4.8011 158.905 4.8011C158.309 4.8011 157.873 5.02392 157.596 5.46956C157.318 5.9152 157.173 6.62687 157.159 7.60455V8.30712C157.159 9.36665 157.291 10.1238 157.555 10.5785C157.823 11.0333 158.282 11.2606 158.932 11.2606C159.483 11.2606 159.903 11.131 160.194 10.8718C160.485 10.6126 160.64 10.2011 160.658 9.63722H163.039Z" fill="#A70230"/>
<path d="M3.00713 18.1177L4.46791 21.7635L5.92869 18.1177H6.69284V22.586H6.10362V20.8459L6.15886 18.9678L4.69194 22.586H4.24082L2.77697 18.977L2.83528 20.8459V22.586H2.24606V18.1177H3.00713ZM10.5504 18.1177H11.1396V22.586H10.5504V19.1427L8.35003 22.586H7.75774V18.1177H8.35003V21.561L10.5504 18.1177ZM15.6478 22.586H15.0555V20.5206H12.8029V22.586H12.2137V18.1177H12.8029V20.0388H15.0555V18.1177H15.6478V22.586ZM18.2287 20.7109L19.2568 18.1177H19.9411L18.3607 21.8402C18.2543 22.0776 18.1551 22.2463 18.063 22.3466C17.9709 22.4448 17.8625 22.5205 17.7377 22.5737C17.6149 22.6248 17.4605 22.6504 17.2743 22.6504C17.1127 22.6504 17.0093 22.6412 16.9643 22.6228L16.9827 22.1563L17.262 22.1686C17.4768 22.1686 17.6364 22.0653 17.7408 21.8586L17.8175 21.6991L17.9341 21.4259L16.4119 18.1177H17.0717L18.2287 20.7109ZM23.7895 18.6026H22.3533V22.586H21.7671V18.6026H20.3339V18.1177H23.7895V18.6026Z" fill="#A70230"/>
<path d="M3.00713 18.1177L3.38353 17.9669L3.28149 17.7122H3.00713V18.1177ZM4.46791 21.7635L4.09152 21.9143L4.46791 22.8537L4.84431 21.9143L4.46791 21.7635ZM5.92869 18.1177V17.7122H5.65434L5.5523 17.9669L5.92869 18.1177ZM6.69284 18.1177H7.09833V17.7122H6.69284V18.1177ZM6.69284 22.586V22.9915H7.09833V22.586H6.69284ZM6.10362 22.586H5.69813V22.9915H6.10362V22.586ZM6.10362 20.8459L5.69813 20.834V20.8459H6.10362ZM6.15886 18.9678L6.56417 18.9797L5.78308 18.8154L6.15886 18.9678ZM4.69194 22.586V22.9915H4.96509L5.06772 22.7383L4.69194 22.586ZM4.24082 22.586L3.86506 22.7384L3.96772 22.9915H4.24082V22.586ZM2.77697 18.977L3.15272 18.8246L2.37168 18.9896L2.77697 18.977ZM2.83528 20.8459H3.24096L3.24057 20.8333L2.83528 20.8459ZM2.83528 22.586V22.9915H3.24076V22.586H2.83528ZM2.24606 22.586H1.84057V22.9915H2.24606V22.586ZM2.24606 18.1177V17.7122H1.84057V18.1177H2.24606ZM2.63074 18.2685L4.09152 21.9143L4.84431 21.6127L3.38353 17.9669L2.63074 18.2685ZM4.84431 21.9143L6.30509 18.2685L5.5523 17.9669L4.09152 21.6127L4.84431 21.9143ZM5.92869 18.5232H6.69284V17.7122H5.92869V18.5232ZM6.28735 18.1177V22.586H7.09833V18.1177H6.28735ZM6.69284 22.1805H6.10362V22.9915H6.69284V22.1805ZM6.5091 22.586V20.8459H5.69813V22.586H6.5091ZM6.50893 20.8578L6.56417 18.9797L5.75355 18.9559L5.69831 20.834L6.50893 20.8578ZM5.78308 18.8154L4.31616 22.4336L5.06772 22.7383L6.53463 19.1201L5.78308 18.8154ZM4.69194 22.1805H4.24082V22.9915H4.69194V22.1805ZM4.61657 22.4336L3.15272 18.8246L2.40122 19.1294L3.86506 22.7384L4.61657 22.4336ZM2.37168 18.9896L2.42999 20.8586L3.24057 20.8333L3.18226 18.9643L2.37168 18.9896ZM2.42979 20.8459V22.586H3.24076V20.8459H2.42979ZM2.83528 22.1805H2.24606V22.9915H2.83528V22.1805ZM2.65154 22.586V18.1177H1.84057V22.586H2.65154ZM2.24606 18.5232H3.00713V17.7122H2.24606V18.5232ZM10.5504 18.1177V17.7122H10.3283L10.2087 17.8994L10.5504 18.1177ZM11.1396 18.1177H11.5451V17.7122H11.1396V18.1177ZM11.1396 22.586V22.9915H11.5451V22.586H11.1396ZM10.5504 22.586H10.1449V22.9915H10.5504V22.586ZM10.5504 19.1427H10.9559V17.7552L10.2087 18.9244L10.5504 19.1427ZM8.35003 22.586V22.9915H8.57212L8.69171 22.8043L8.35003 22.586ZM7.75774 22.586H7.35225V22.9915H7.75774V22.586ZM7.75774 18.1177V17.7122H7.35225V18.1177H7.75774ZM8.35003 18.1177H8.75551V17.7122H8.35003V18.1177ZM8.35003 21.561H7.94454V22.9485L8.69171 21.7793L8.35003 21.561ZM10.5504 18.5232H11.1396V17.7122H10.5504V18.5232ZM10.7341 18.1177V22.586H11.5451V18.1177H10.7341ZM11.1396 22.1805H10.5504V22.9915H11.1396V22.1805ZM10.9559 22.586V19.1427H10.1449V22.586H10.9559ZM10.2087 18.9244L8.00835 22.3676L8.69171 22.8043L10.8921 19.361L10.2087 18.9244ZM8.35003 22.1805H7.75774V22.9915H8.35003V22.1805ZM8.16322 22.586V18.1177H7.35225V22.586H8.16322ZM7.75774 18.5232H8.35003V17.7122H7.75774V18.5232ZM7.94454 18.1177V21.561H8.75551V18.1177H7.94454ZM8.69171 21.7793L10.8921 18.336L10.2087 17.8994L8.00835 21.3426L8.69171 21.7793ZM15.6478 22.586V22.9915H16.0533V22.586H15.6478ZM15.0555 22.586H14.65V22.9915H15.0555V22.586ZM15.0555 20.5206H15.461V20.1151H15.0555V20.5206ZM12.8029 20.5206V20.1151H12.3975V20.5206H12.8029ZM12.8029 22.586V22.9915H13.2084V22.586H12.8029ZM12.2137 22.586H11.8082V22.9915H12.2137V22.586ZM12.2137 18.1177V17.7122H11.8082V18.1177H12.2137ZM12.8029 18.1177H13.2084V17.7122H12.8029V18.1177ZM12.8029 20.0388H12.3975V20.4443H12.8029V20.0388ZM15.0555 20.0388V20.4443H15.461V20.0388H15.0555ZM15.0555 18.1177V17.7122H14.65V18.1177H15.0555ZM15.6478 18.1177H16.0533V17.7122H15.6478V18.1177ZM15.6478 22.1805H15.0555V22.9915H15.6478V22.1805ZM15.461 22.586V20.5206H14.65V22.586H15.461ZM15.0555 20.1151H12.8029V20.9261H15.0555V20.1151ZM12.3975 20.5206V22.586H13.2084V20.5206H12.3975ZM12.8029 22.1805H12.2137V22.9915H12.8029V22.1805ZM12.6192 22.586V18.1177H11.8082V22.586H12.6192ZM12.2137 18.5232H12.8029V17.7122H12.2137V18.5232ZM12.3975 18.1177V20.0388H13.2084V18.1177H12.3975ZM12.8029 20.4443H15.0555V19.6333H12.8029V20.4443ZM15.461 20.0388V18.1177H14.65V20.0388H15.461ZM15.0555 18.5232H15.6478V17.7122H15.0555V18.5232ZM15.2423 18.1177V22.586H16.0533V18.1177H15.2423ZM18.2287 20.7109L17.8584 20.8761L18.2508 21.7555L18.6056 20.8603L18.2287 20.7109ZM19.2568 18.1177V17.7122H18.9813L18.8798 17.9683L19.2568 18.1177ZM19.9411 18.1177L20.3144 18.2762L20.5538 17.7122H19.9411V18.1177ZM18.3607 21.8402L18.7307 22.0061L18.7339 21.9987L18.3607 21.8402ZM18.063 22.3466L18.3588 22.6239L18.3616 22.6209L18.063 22.3466ZM17.7377 22.5737L17.8936 22.948L17.8967 22.9467L17.7377 22.5737ZM16.9643 22.6228L16.5592 22.6068L16.548 22.8906L16.8108 22.9981L16.9643 22.6228ZM16.9827 22.1563L17.0006 21.7512L16.5936 21.7333L16.5776 22.1403L16.9827 22.1563ZM17.262 22.1686L17.2442 22.5737L17.2531 22.5741H17.262V22.1686ZM17.7408 21.8586L18.1028 22.0415L18.1062 22.0343L17.7408 21.8586ZM17.8175 21.6991L18.1829 21.8748L18.1868 21.8666L18.1904 21.8583L17.8175 21.6991ZM17.9341 21.4259L18.307 21.5852L18.3776 21.4198L18.3025 21.2564L17.9341 21.4259ZM16.4119 18.1177V17.7122H15.779L16.0436 18.2872L16.4119 18.1177ZM17.0717 18.1177L17.442 17.9525L17.3348 17.7122H17.0717V18.1177ZM18.6056 20.8603L19.6337 18.2671L18.8798 17.9683L17.8518 20.5615L18.6056 20.8603ZM19.2568 18.5232H19.9411V17.7122H19.2568V18.5232ZM19.5679 17.9592L17.9874 21.6818L18.7339 21.9987L20.3144 18.2762L19.5679 17.9592ZM17.9907 21.6744C17.889 21.9012 17.8111 22.0214 17.7643 22.0723L18.3616 22.6209C18.499 22.4713 18.6196 22.2539 18.7307 22.0061L17.9907 21.6744ZM17.7672 22.0693C17.7139 22.1261 17.6522 22.1694 17.5787 22.2007L17.8967 22.9467C18.0728 22.8716 18.2279 22.7635 18.3588 22.6239L17.7672 22.0693ZM17.5817 22.1994C17.5239 22.2235 17.4268 22.2449 17.2743 22.2449V23.0559C17.4941 23.0559 17.7059 23.0262 17.8936 22.948L17.5817 22.1994ZM17.2743 22.2449C17.1997 22.2449 17.1466 22.2427 17.1116 22.2396C17.0942 22.2381 17.0854 22.2367 17.0832 22.2362C17.0788 22.2354 17.0936 22.2376 17.1179 22.2475L16.8108 22.9981C16.8934 23.0319 16.9826 23.0423 17.0396 23.0474C17.1079 23.0535 17.1873 23.0559 17.2743 23.0559V22.2449ZM17.3695 22.6388L17.3879 22.1723L16.5776 22.1403L16.5592 22.6068L17.3695 22.6388ZM16.9649 22.5614L17.2442 22.5737L17.2798 21.7635L17.0006 21.7512L16.9649 22.5614ZM17.262 22.5741C17.4371 22.5741 17.6095 22.531 17.7632 22.4315C17.9152 22.3331 18.0252 22.195 18.1027 22.0414L17.3788 21.6759C17.352 21.729 17.33 21.7458 17.3224 21.7507C17.3166 21.7545 17.3017 21.7631 17.262 21.7631V22.5741ZM18.1062 22.0343L18.1829 21.8748L17.452 21.5234L17.3753 21.683L18.1062 22.0343ZM18.1904 21.8583L18.307 21.5852L17.5612 21.2667L17.4446 21.5398L18.1904 21.8583ZM18.3025 21.2564L16.7803 17.9482L16.0436 18.2872L17.5657 21.5954L18.3025 21.2564ZM16.4119 18.5232H17.0717V17.7122H16.4119V18.5232ZM16.7014 18.2829L17.8584 20.8761L18.599 20.5457L17.442 17.9525L16.7014 18.2829ZM23.7895 18.6026V19.0081H24.195V18.6026H23.7895ZM22.3533 18.6026V18.1971H21.9478V18.6026H22.3533ZM22.3533 22.586V22.9915H22.7587V22.586H22.3533ZM21.7671 22.586H21.3616V22.9915H21.7671V22.586ZM21.7671 18.6026H22.1726V18.1971H21.7671V18.6026ZM20.3339 18.6026H19.9285V19.0081H20.3339V18.6026ZM20.3339 18.1177V17.7122H19.9285V18.1177H20.3339ZM23.7895 18.1177H24.195V17.7122H23.7895V18.1177ZM23.7895 18.1971H22.3533V19.0081H23.7895V18.1971ZM21.9478 18.6026V22.586H22.7587V18.6026H21.9478ZM22.3533 22.1805H21.7671V22.9915H22.3533V22.1805ZM22.1726 22.586V18.6026H21.3616V22.586H22.1726ZM21.7671 18.1971H20.3339V19.0081H21.7671V18.1971ZM20.7394 18.6026V18.1177H19.9285V18.6026H20.7394ZM20.3339 18.5232H23.7895V17.7122H20.3339V18.5232ZM23.384 18.1177V18.6026H24.195V18.1177H23.384Z" fill="#A70230"/>
<path d="M20.671 7.97505H27.8846C27.7832 5.86765 26.8587 3.97099 25.4193 2.60928L20.671 7.97505Z" fill="#A70230"/>
<path d="M19.7059 7.52554V0.457642C17.9299 0.522485 16.2998 1.16686 15.0063 2.21651L19.7059 7.52554Z" fill="#A70230"/>
<path d="M19.706 16.2467V9.06534L14.9456 14.4433C16.2512 15.5213 17.9056 16.1819 19.706 16.2467Z" fill="#A70230"/>
<path d="M20.2734 0.457642V7.52554L24.973 2.21651C23.6795 1.16281 22.0495 0.518432 20.2734 0.457642Z" fill="#A70230"/>
<path d="M20.671 8.61545L25.472 14.042C26.9074 12.66 27.8197 10.7431 27.8887 8.61545H20.671Z" fill="#A70230"/>
<path d="M19.3082 8.61545H12.0906C12.1595 10.7431 13.0718 12.66 14.5073 14.042L19.3082 8.61545Z" fill="#A70230"/>
<path d="M20.2736 9.06534V16.2467C22.078 16.1819 23.7324 15.5213 25.034 14.4433L20.2736 9.06534Z" fill="#A70230"/>
<path d="M19.3083 7.97505L14.5601 2.60928C13.1206 3.97099 12.1961 5.8636 12.0947 7.97505H19.3083Z" fill="#A70230"/>
<path fill-rule="evenodd" clip-rule="evenodd" d="M13.9154 5.07334C13.9114 5.07739 13.9073 5.08145 13.9032 5.0855C13.6235 5.34082 13.4369 5.71367 13.2626 6.05815C13.1774 6.22836 13.1085 6.41073 13.0963 6.59715C13.0923 6.69037 13.0882 6.78358 13.1125 6.87274C13.1653 7.07537 13.4572 7.31854 13.6559 7.25775C13.9438 7.17264 14.0655 6.82816 14.1709 6.57689C14.3615 6.1311 14.5439 5.69746 14.9656 5.44214C15.0264 5.40566 15.2251 5.28003 15.3224 5.4705C15.3387 5.50293 15.3468 5.56777 15.3508 5.61235C15.363 5.79067 15.3103 5.92035 15.2373 6.07436C15.1278 6.30131 14.8318 7.00242 14.8196 7.14022C14.8115 7.27801 14.8075 7.37527 14.9413 7.44417C15.1035 7.52928 15.3022 7.42391 15.4401 7.33069C15.7361 7.13211 15.9469 6.816 16.2916 6.69037C16.3848 6.65389 16.62 6.57689 16.7092 6.65389C16.8025 6.73494 16.6889 6.89705 16.6565 6.98216C16.5916 7.16048 16.5308 7.39148 16.7822 7.42796C16.9687 7.45227 17.1471 7.31854 17.3093 7.24559C17.4107 7.19695 17.5648 7.10374 17.6702 7.17669C17.7757 7.24964 17.6702 7.24558 17.6864 7.33474C17.7067 7.42796 17.7878 7.37933 17.8243 7.34285C17.9257 7.24559 17.8486 7.14022 17.7513 7.06727C17.6256 6.97406 17.5364 7.02674 17.4188 7.09564C17.2769 7.17669 16.8673 7.31853 16.9119 6.99027C16.9363 6.816 17.062 6.65794 17.0458 6.47152C17.0255 6.26078 16.8187 6.0703 16.62 6.10678C16.4254 6.14325 16.2551 6.28915 16.1213 6.42694C16.0483 6.50394 15.9834 6.5931 15.9145 6.662C15.8253 6.75116 15.7401 6.82816 15.659 6.92542C15.5901 7.00243 15.4725 7.1159 15.367 7.05106C15.2495 6.98216 15.2738 6.8079 15.2981 6.69442C15.3589 6.41478 15.5009 6.15541 15.6022 5.89604C15.7158 5.6083 15.8496 5.34487 15.7239 5.03687C15.6549 4.87476 15.5008 4.67618 15.3143 4.70049C15.14 4.72076 14.9494 4.90718 14.8237 5.02876C14.6939 5.1544 14.6047 5.3165 14.4912 5.45024C14.3493 5.62046 14.2885 5.8474 14.1952 6.04599C14.1344 6.17567 14.0614 6.30131 13.9884 6.42694C13.9316 6.52421 13.8262 6.71873 13.6924 6.62552C13.6072 6.56473 13.6194 6.3702 13.6397 6.27699C13.6965 6.00546 13.81 5.70151 13.9519 5.4624C14.0249 5.34082 14.0938 5.22329 14.183 5.13413C14.2803 5.03687 14.3777 4.95581 14.475 4.8545C14.6615 4.65997 14.7264 4.36007 14.6088 4.10475C14.552 3.97911 14.4588 3.82916 14.3128 3.82511C14.179 3.82106 14.0654 3.94264 14.0289 4.06422C14.0006 4.17364 14.0127 4.38033 14.1263 4.42896C14.1871 4.45328 14.256 4.43301 14.2844 4.37222C14.329 4.27091 14.2357 4.31143 14.2357 4.23038C14.2317 4.12501 14.3574 4.16554 14.3939 4.21822C14.4223 4.25875 14.4223 4.3398 14.4182 4.39249C14.4182 4.64781 14.0817 4.91934 13.9154 5.07334Z" fill="white"/>
<path fill-rule="evenodd" clip-rule="evenodd" d="M22.9294 1.88857C22.9254 1.88452 22.9213 1.88046 22.9173 1.87641C22.6699 1.58867 22.3131 1.39819 21.9806 1.21987C21.8184 1.13477 21.6441 1.06587 21.4656 1.05777C21.3764 1.05371 21.2872 1.05371 21.2021 1.08208C21.0115 1.13882 20.7885 1.45493 20.8452 1.66567C20.9304 1.96557 21.2629 2.08715 21.5021 2.19657C21.9319 2.38705 22.3455 2.57347 22.5969 3.01116C22.6334 3.07196 22.7591 3.2827 22.5767 3.38807C22.5483 3.40428 22.4834 3.41644 22.4429 3.42049C22.2766 3.4367 22.1468 3.38401 22.0049 3.31106C21.786 3.19759 21.1169 2.90174 20.9872 2.89364C20.8574 2.88553 20.7642 2.88553 20.7033 3.02738C20.6263 3.19759 20.7317 3.40428 20.8209 3.55017C21.0155 3.85818 21.3197 4.07297 21.4494 4.43366C21.4859 4.53093 21.563 4.77814 21.494 4.87135C21.417 4.97267 21.2629 4.85514 21.1818 4.82272C21.0115 4.75788 20.7925 4.70114 20.7641 4.96456C20.7439 5.15909 20.8777 5.34957 20.9507 5.51573C20.9953 5.62515 21.0926 5.78321 21.0237 5.89669C20.9588 6.01016 20.9588 5.89668 20.8736 5.91695C20.7885 5.94126 20.8331 6.02232 20.8696 6.06284C20.9628 6.16821 21.0642 6.08311 21.1291 5.98179C21.2183 5.84805 21.1615 5.75484 21.0966 5.63326C21.0155 5.48736 20.8736 5.05778 21.1859 5.0983C21.3521 5.11857 21.5021 5.24825 21.6805 5.22799C21.8792 5.20367 22.0576 4.98077 22.0171 4.77409C21.9766 4.57145 21.8387 4.39313 21.7008 4.25534C21.6278 4.18239 21.5427 4.1135 21.4737 4.0446C21.3845 3.95544 21.3116 3.86628 21.2183 3.78118C21.1413 3.71228 21.0358 3.5907 21.0926 3.47723C21.1575 3.35564 21.3237 3.37591 21.4291 3.40022C21.6968 3.45696 21.9441 3.60286 22.1915 3.70418C22.4672 3.81765 22.7186 3.95544 23.0105 3.8136C23.1606 3.74065 23.3471 3.57044 23.3228 3.37591C23.2984 3.18948 23.12 2.99495 23.0024 2.86527C22.8808 2.73153 22.7267 2.64237 22.5929 2.52079C22.4307 2.37489 22.2117 2.3141 22.0212 2.22089C21.8955 2.1601 21.7738 2.08715 21.6562 2.01015C21.5629 1.95341 21.3764 1.84399 21.4616 1.70214C21.5143 1.61298 21.7049 1.61704 21.79 1.6373C22.0495 1.69404 22.3374 1.80346 22.5686 1.94936C22.6861 2.02231 22.7956 2.09526 22.8848 2.18847C22.9781 2.28573 23.0592 2.3911 23.1565 2.48837C23.343 2.6829 23.6309 2.73964 23.8702 2.614C23.9878 2.55321 24.1297 2.44784 24.1297 2.29789C24.1297 2.15605 24.0121 2.03852 23.8945 2.0061C23.7891 1.97773 23.5945 1.99394 23.5498 2.11552C23.5255 2.18036 23.5458 2.25331 23.6066 2.28168C23.7039 2.32626 23.6634 2.22899 23.7404 2.22494C23.8377 2.22089 23.8053 2.35463 23.7566 2.3911C23.7161 2.41947 23.6431 2.42352 23.5944 2.41947C23.343 2.41137 23.0754 2.06284 22.9294 1.88857Z" fill="white"/>
<path fill-rule="evenodd" clip-rule="evenodd" d="M26.0475 11.432C26.0516 11.428 26.0556 11.4239 26.0597 11.4199C26.3273 11.1524 26.4976 10.7714 26.6557 10.4148C26.7328 10.2405 26.7936 10.0541 26.7976 9.86767C26.7976 9.77446 26.7936 9.68125 26.7693 9.59209C26.7084 9.3935 26.4043 9.16655 26.2057 9.2314C25.9218 9.32866 25.8164 9.68125 25.7191 9.94062C25.5488 10.3986 25.3825 10.8363 24.977 11.1118C24.9203 11.1524 24.7256 11.2902 24.6161 11.0997C24.5999 11.0713 24.5837 11.0024 24.5797 10.9578C24.5594 10.7795 24.604 10.6458 24.6729 10.4918C24.7743 10.2608 25.0379 9.54751 25.0419 9.40972C25.046 9.27192 25.0419 9.17466 24.9081 9.11387C24.7418 9.03687 24.5513 9.1544 24.4174 9.25166C24.1296 9.4624 23.9349 9.79067 23.5943 9.93657C23.5011 9.97709 23.2699 10.0663 23.1807 9.99331C23.0834 9.9163 23.1888 9.75014 23.2172 9.66098C23.274 9.47861 23.3226 9.24761 23.0712 9.22329C22.8847 9.20708 22.7104 9.35298 22.5522 9.43403C22.4509 9.48672 22.3008 9.58803 22.1913 9.52319C22.0819 9.45835 22.1913 9.4543 22.167 9.36514C22.1427 9.27598 22.0656 9.32461 22.0292 9.36514C21.9318 9.46645 22.0129 9.57182 22.1143 9.63667C22.244 9.72583 22.3292 9.66503 22.4468 9.59209C22.5847 9.50293 22.9861 9.34487 22.9577 9.67314C22.9415 9.85146 22.8239 10.0095 22.8482 10.2C22.8766 10.4107 23.0956 10.5891 23.2902 10.5445C23.4808 10.4999 23.647 10.3459 23.7727 10.2C23.8417 10.123 23.9025 10.0298 23.9674 9.95278C24.0525 9.85957 24.1336 9.77851 24.2106 9.6772C24.2755 9.59614 24.385 9.47861 24.4945 9.53535C24.6121 9.60019 24.5959 9.77446 24.5797 9.88793C24.531 10.1716 24.4012 10.435 24.312 10.6985C24.2147 10.9903 24.089 11.2618 24.2309 11.5658C24.3039 11.7238 24.4702 11.9143 24.6567 11.8819C24.8311 11.8494 25.0135 11.659 25.1311 11.5293C25.2528 11.3955 25.3379 11.2334 25.4474 11.0916C25.5812 10.9173 25.6339 10.6863 25.7191 10.4837C25.7758 10.3499 25.8407 10.2203 25.9096 10.0906C25.9623 9.9933 26.0597 9.79067 26.1975 9.87578C26.2867 9.92846 26.2827 10.127 26.2665 10.2203C26.2219 10.4958 26.1245 10.8038 25.9907 11.047C25.9218 11.1726 25.861 11.2902 25.7758 11.3874C25.6826 11.4887 25.5893 11.5779 25.4961 11.6833C25.3176 11.8859 25.269 12.1899 25.3947 12.4371C25.4555 12.5587 25.5569 12.7046 25.7029 12.7046C25.8367 12.7005 25.9461 12.5749 25.9745 12.4492C25.9989 12.3398 25.9786 12.1331 25.861 12.0885C25.8002 12.0642 25.7312 12.0885 25.7069 12.1534C25.6663 12.2547 25.7556 12.2101 25.7637 12.2912C25.7718 12.3966 25.642 12.3601 25.6096 12.3114C25.5812 12.2709 25.5772 12.1939 25.5772 12.1412C25.5609 11.8819 25.8853 11.5941 26.0475 11.432Z" fill="white"/>
<path fill-rule="evenodd" clip-rule="evenodd" d="M17.3455 14.7147C17.3496 14.7188 17.3536 14.7228 17.3577 14.7269C17.6334 14.9862 18.0065 15.1362 18.3552 15.278C18.5255 15.3469 18.708 15.3956 18.8864 15.3834C18.9756 15.3753 19.0648 15.3672 19.1459 15.3307C19.3284 15.2537 19.523 14.9133 19.4419 14.7147C19.3284 14.427 18.9877 14.3419 18.7363 14.2608C18.2903 14.119 17.8605 13.9771 17.5686 13.5678C17.528 13.5111 17.382 13.3165 17.5523 13.1909C17.5807 13.1706 17.6415 13.1504 17.6821 13.1423C17.8483 13.1098 17.9781 13.1463 18.1322 13.2031C18.3592 13.2922 19.0567 13.5151 19.1864 13.507C19.3162 13.4989 19.4095 13.4908 19.4581 13.3449C19.5189 13.1666 19.3932 12.9721 19.2919 12.8383C19.0689 12.5506 18.7445 12.3723 18.5823 12.0237C18.5377 11.9305 18.4363 11.6914 18.4971 11.5941C18.562 11.4847 18.7282 11.586 18.8134 11.6063C18.9918 11.6549 19.2148 11.6833 19.2189 11.4199C19.2189 11.2253 19.0689 11.0511 18.9796 10.889C18.9229 10.7877 18.8134 10.6377 18.8702 10.5202C18.9229 10.3986 18.935 10.5121 19.0161 10.4837C19.1013 10.4513 19.0445 10.3743 19.004 10.3378C18.9026 10.2446 18.8093 10.3378 18.7526 10.4472C18.6796 10.5931 18.7445 10.6782 18.8215 10.7917C18.9148 10.9295 19.0972 11.3388 18.785 11.3348C18.6147 11.3307 18.4566 11.2172 18.2782 11.2578C18.0835 11.3023 17.9294 11.5455 17.9862 11.7481C18.043 11.9467 18.2011 12.1088 18.3511 12.2304C18.4322 12.2953 18.5214 12.352 18.5985 12.4168C18.6958 12.4979 18.7769 12.5789 18.8783 12.6519C18.9594 12.7127 19.081 12.8221 19.0324 12.9396C18.9796 13.0693 18.8134 13.0653 18.7039 13.0531C18.4322 13.0247 18.1727 12.9072 17.9132 12.8343C17.6294 12.7532 17.3618 12.6438 17.086 12.814C16.9441 12.9032 16.7738 13.0936 16.8184 13.2841C16.863 13.4665 17.0576 13.6408 17.1874 13.7542C17.3212 13.8758 17.4834 13.9488 17.6253 14.0501C17.8037 14.1798 18.0227 14.2162 18.2214 14.2892C18.3511 14.3378 18.4768 14.3986 18.6066 14.4594C18.7039 14.508 18.9026 14.5931 18.8337 14.7431C18.7891 14.8404 18.6025 14.8525 18.5133 14.8444C18.2498 14.816 17.9497 14.739 17.7105 14.6175C17.5888 14.5567 17.4672 14.4999 17.3699 14.4148C17.2644 14.3257 17.1752 14.2324 17.0698 14.1433C16.863 13.969 16.5751 13.9447 16.348 14.0947C16.2386 14.1676 16.1048 14.2892 16.121 14.4391C16.1331 14.581 16.2629 14.6863 16.3805 14.7026C16.4859 14.7188 16.6805 14.6823 16.713 14.5567C16.7292 14.4918 16.7008 14.4189 16.64 14.3986C16.5386 14.3662 16.5913 14.4553 16.5143 14.4675C16.417 14.4837 16.4372 14.3459 16.4818 14.3054C16.5183 14.273 16.5913 14.2608 16.64 14.2568C16.8833 14.2406 17.1793 14.5607 17.3455 14.7147Z" fill="white"/>
<path d="M15.4721 10.5688C15.4761 10.4472 15.3099 10.3459 15.0991 10.3378C15.245 10.1838 15.2977 9.98923 15.2166 9.90412C15.1355 9.81902 14.949 9.8717 14.799 10.0217C14.7949 9.80281 14.7017 9.62854 14.5881 9.62854C14.4827 9.62854 14.3976 9.77444 14.3813 9.96491C14.2516 9.83523 14.0975 9.78254 14.0164 9.85549C13.9313 9.93249 13.9677 10.1311 14.1015 10.3013C13.8947 10.2932 13.7245 10.3783 13.7164 10.4999C13.7082 10.6215 13.8704 10.7309 14.0813 10.7471C13.9312 10.897 13.8704 11.0875 13.9434 11.1767C14.0205 11.2658 14.207 11.2212 14.3651 11.0754C14.3611 11.2942 14.4462 11.4725 14.5597 11.4766C14.6733 11.4806 14.7747 11.3104 14.7868 11.0875C14.9328 11.2456 15.1112 11.3064 15.1964 11.2212C15.2815 11.1402 15.2329 10.9416 15.0909 10.7795C15.3018 10.7795 15.468 10.6863 15.4721 10.5688ZM14.5963 10.662C14.5963 10.662 14.5598 10.6903 14.5152 10.739C14.5233 10.6741 14.5192 10.6296 14.5192 10.6296C14.5192 10.6296 14.4746 10.6215 14.4097 10.6255C14.4584 10.585 14.4868 10.5526 14.4868 10.5526C14.4868 10.5526 14.4584 10.512 14.4138 10.4674C14.4746 10.4756 14.5192 10.4756 14.5192 10.4756C14.5192 10.4756 14.5233 10.4391 14.5273 10.3864C14.5598 10.4229 14.5841 10.4472 14.5841 10.4472C14.5841 10.4472 14.6206 10.4188 14.6611 10.3661C14.6571 10.431 14.6611 10.4756 14.6611 10.4756C14.6611 10.4756 14.7057 10.4796 14.7706 10.4756C14.722 10.5161 14.6936 10.5526 14.6936 10.5526C14.6936 10.5526 14.722 10.589 14.7706 10.6336C14.7098 10.6255 14.6652 10.6296 14.6652 10.6296C14.6652 10.6296 14.6611 10.6782 14.6611 10.743C14.6287 10.6903 14.5963 10.662 14.5963 10.662Z" fill="white"/>
<path d="M18.9227 2.67524C18.9267 2.55366 18.7605 2.45234 18.5496 2.44424C18.6956 2.29023 18.7483 2.0957 18.6672 2.0106C18.5861 1.92549 18.3996 1.97818 18.2496 2.12813C18.2455 1.90928 18.1523 1.73502 18.0387 1.73502C17.9333 1.73502 17.8481 1.88091 17.8319 2.07139C17.7022 1.9417 17.5481 1.88902 17.467 1.96197C17.3818 2.03897 17.4183 2.23755 17.5521 2.40776C17.3453 2.39966 17.175 2.48476 17.1669 2.60634C17.1588 2.72793 17.321 2.83735 17.5319 2.85356C17.3818 3.00351 17.321 3.19398 17.394 3.28314C17.471 3.3723 17.6576 3.32772 17.8157 3.18183C17.8117 3.40067 17.8968 3.57899 18.0103 3.58305C18.1239 3.5871 18.2252 3.41689 18.2374 3.19399C18.3834 3.35204 18.5618 3.41283 18.647 3.32772C18.7321 3.24667 18.6834 3.04809 18.5415 2.88598C18.7524 2.89003 18.9186 2.79682 18.9227 2.67524ZM18.0428 2.77251C18.0428 2.77251 18.0063 2.80087 17.9617 2.84951C17.9698 2.78466 17.9657 2.74008 17.9657 2.74008C17.9657 2.74008 17.9211 2.73198 17.8562 2.73603C17.9049 2.6955 17.9333 2.66308 17.9333 2.66308C17.9333 2.66308 17.9049 2.62256 17.8603 2.57798C17.9211 2.58608 17.9657 2.58608 17.9657 2.58608C17.9657 2.58608 17.9698 2.54961 17.9739 2.49692C18.0063 2.5334 18.0306 2.55771 18.0306 2.55771C18.0306 2.55771 18.0671 2.52934 18.1076 2.47666C18.1036 2.5415 18.1076 2.58608 18.1076 2.58608C18.1076 2.58608 18.1523 2.59014 18.2171 2.58608C18.1685 2.62661 18.1401 2.66308 18.1401 2.66308C18.1401 2.66308 18.1685 2.69956 18.2171 2.74414C18.1563 2.73603 18.1117 2.74008 18.1117 2.74008C18.1117 2.74008 18.1076 2.78872 18.1076 2.85356C18.0752 2.80087 18.0428 2.77251 18.0428 2.77251Z" fill="white"/>
<path d="M26.2705 5.77046C26.2745 5.64888 26.1083 5.54756 25.8974 5.53945C26.0434 5.38545 26.0961 5.19092 26.015 5.10581C25.9339 5.02071 25.7474 5.07339 25.5974 5.22334C25.5933 5.0045 25.5 4.83023 25.3865 4.83023C25.2811 4.83023 25.1959 4.97613 25.1797 5.16661C25.0499 5.03692 24.8959 4.98424 24.8148 5.05718C24.7296 5.13419 24.7661 5.33277 24.8999 5.50298C24.6931 5.49487 24.5228 5.57998 24.5147 5.70156C24.5066 5.82314 24.6688 5.93256 24.8796 5.94878C24.7296 6.09873 24.6688 6.2892 24.7418 6.37836C24.8188 6.46752 25.0053 6.42294 25.1635 6.27704C25.1594 6.49589 25.2446 6.67421 25.3581 6.67826C25.4716 6.68231 25.573 6.5121 25.5852 6.2892C25.7312 6.44726 25.9096 6.50805 25.9947 6.42294C26.0799 6.34189 26.0312 6.14331 25.8893 5.9812C26.1002 5.98525 26.2664 5.89204 26.2705 5.77046ZM25.3946 5.86772C25.3946 5.86772 25.3581 5.89609 25.3135 5.94472C25.3216 5.87988 25.3176 5.8353 25.3176 5.8353C25.3176 5.8353 25.273 5.82719 25.2081 5.83125C25.2567 5.79072 25.2851 5.7583 25.2851 5.7583C25.2851 5.7583 25.2567 5.71777 25.2121 5.67319C25.273 5.6813 25.3176 5.6813 25.3176 5.6813C25.3176 5.6813 25.3216 5.64482 25.3257 5.59214C25.3581 5.62861 25.3865 5.65293 25.3865 5.65293C25.3865 5.65293 25.423 5.62456 25.4635 5.57187C25.4595 5.63672 25.4635 5.6813 25.4635 5.6813C25.4635 5.6813 25.5082 5.68535 25.573 5.6813C25.5244 5.72183 25.496 5.7583 25.496 5.7583C25.496 5.7583 25.5244 5.79477 25.573 5.83935C25.5122 5.83125 25.4676 5.8353 25.4676 5.8353C25.4676 5.8353 25.4635 5.88393 25.4635 5.94878C25.4271 5.89609 25.3946 5.86772 25.3946 5.86772Z" fill="white"/>
<path d="M22.8646 13.7867C22.8686 13.6651 22.7024 13.5638 22.4915 13.5557C22.6375 13.4017 22.6902 13.2072 22.6091 13.122C22.528 13.0369 22.3415 13.0896 22.1915 13.2396C22.1874 13.0207 22.0941 12.8465 21.9806 12.8465C21.8752 12.8465 21.79 12.9924 21.7738 13.1828C21.6441 13.0532 21.49 13.0005 21.4089 13.0734C21.3237 13.1504 21.3602 13.349 21.494 13.5192C21.2872 13.5111 21.1169 13.5962 21.1088 13.7178C21.1007 13.8394 21.2629 13.9488 21.4737 13.965C21.3237 14.115 21.2629 14.3054 21.3359 14.3946C21.4129 14.4838 21.5994 14.4392 21.7576 14.2933C21.7535 14.5121 21.8387 14.6904 21.9522 14.6945C22.0658 14.6985 22.1671 14.5283 22.1793 14.3054C22.3253 14.4635 22.5037 14.5243 22.5888 14.4392C22.674 14.3581 22.6253 14.1595 22.4834 13.9974C22.6943 14.0015 22.8646 13.9042 22.8646 13.7867ZM21.9887 13.8799C21.9887 13.8799 21.9522 13.9083 21.9076 13.9569C21.9157 13.8921 21.9117 13.8475 21.9117 13.8475C21.9117 13.8475 21.8671 13.8394 21.8022 13.8434C21.8508 13.8029 21.8792 13.7705 21.8792 13.7705C21.8792 13.7705 21.8508 13.73 21.8062 13.6854C21.8671 13.6935 21.9117 13.6935 21.9117 13.6935C21.9117 13.6935 21.9157 13.657 21.9198 13.6043C21.9522 13.6408 21.9766 13.6651 21.9766 13.6651C21.9766 13.6651 22.0131 13.6367 22.0536 13.5841C22.0495 13.6489 22.0536 13.6935 22.0536 13.6935C22.0536 13.6935 22.0982 13.6975 22.1631 13.6935C22.1144 13.734 22.086 13.7705 22.086 13.7705C22.086 13.7705 22.1144 13.807 22.1631 13.8515C22.1022 13.8434 22.0576 13.8475 22.0576 13.8475C22.0576 13.8475 22.0536 13.8961 22.0536 13.961C22.0212 13.9083 21.9887 13.8799 21.9887 13.8799Z" fill="white"/>
<path d="M3.87982 9.47783C4.37421 9.6969 4.90926 9.80305 5.48215 9.80305C6.03608 9.80305 6.56633 9.69642 7.07097 9.47843C7.57152 9.2622 8.00357 8.97221 8.36418 8.60321C8.72304 8.236 9.00798 7.80592 9.22386 7.31517L9.22461 7.31343L9.22516 7.31215C9.24919 7.25611 9.27508 7.19572 9.30109 7.12644L9.30194 7.12411C9.35764 6.96993 9.40436 6.80842 9.44236 6.64806L9.47488 6.51081L9.4541 6.49696C9.46232 6.43252 9.47393 6.35609 9.48196 6.30389L9.48205 6.30329C9.56328 5.76489 9.53319 5.22245 9.39256 4.68575C9.24816 4.13394 9.00925 3.64218 8.67443 3.21743L8.67364 3.21645C8.33985 2.79838 7.95713 2.45338 7.51679 2.18847L7.51688 2.18831L7.50932 2.18419C7.48552 2.17121 7.46297 2.15941 7.44205 2.14846L7.44142 2.14813C7.41995 2.13688 7.40013 2.12651 7.37956 2.11529L7.19516 2.01476L7.18837 2.02834C7.14786 2.00878 7.10585 1.98877 7.07219 1.97397L7.07219 1.97397L7.07097 1.97344C6.56633 1.75545 6.03608 1.64881 5.48215 1.64881C4.91292 1.64881 4.37803 1.75511 3.88002 1.97395C3.38903 2.1897 2.95874 2.47447 2.59135 2.83313C2.22214 3.19355 1.93199 3.6254 1.71564 4.1257C1.49752 4.6301 1.39081 5.1601 1.39081 5.71377C1.39081 6.28275 1.49718 6.8174 1.71615 7.31517C1.93246 7.8069 2.22207 8.23752 2.58965 8.6049C2.95717 8.97223 3.38794 9.26166 3.87982 9.47783ZM3.87982 9.47783C3.87969 9.47777 3.87956 9.47772 3.87943 9.47766L3.96157 9.29234L3.88002 9.47792C3.87995 9.47789 3.87989 9.47786 3.87982 9.47783ZM10.717 5.43426V5.44677L10.7186 5.4593C10.7208 5.47742 10.7211 5.49373 10.7211 5.52735C10.7211 5.55877 10.7221 5.59068 10.7231 5.61907L10.7232 5.62187C10.7242 5.6522 10.7251 5.67924 10.7251 5.70567V5.70569V5.70572V5.70574V5.70576V5.70579V5.70581V5.70584V5.70586V5.70588V5.70591V5.70593V5.70595V5.70598V5.706V5.70603V5.70605V5.70607V5.7061V5.70612V5.70614V5.70617V5.70619V5.70621V5.70624V5.70626V5.70629V5.70631V5.70633V5.70636V5.70638V5.70641V5.70643V5.70645V5.70648V5.7065V5.70652V5.70655V5.70657V5.70659V5.70662V5.70664V5.70667V5.70669V5.70671V5.70674V5.70676V5.70679V5.70681V5.70683V5.70686V5.70688V5.7069V5.70693V5.70695V5.70697V5.707V5.70702V5.70705V5.70707V5.70709V5.70712V5.70714V5.70716V5.70719V5.70721V5.70724V5.70726V5.70728V5.70731V5.70733V5.70736V5.70738V5.7074V5.70743V5.70745V5.70747V5.7075V5.70752V5.70754V5.70757V5.70759V5.70762V5.70764V5.70766V5.70769V5.70771V5.70773V5.70776V5.70778V5.70781V5.70783V5.70785V5.70788V5.7079V5.70792V5.70795V5.70797V5.708V5.70802V5.70804V5.70807V5.70809V5.70811V5.70814V5.70816V5.70819V5.70821V5.70823V5.70826V5.70828V5.7083V5.70833V5.70835V5.70838V5.7084V5.70842V5.70845V5.70847V5.70849V5.70852V5.70854V5.70857V5.70859V5.70861V5.70864V5.70866V5.70868V5.70871V5.70873V5.70876V5.70878V5.7088V5.70883V5.70885V5.70887V5.7089V5.70892V5.70895V5.70897V5.70899V5.70902V5.70904V5.70906V5.70909V5.70911V5.70914V5.70916V5.70918V5.70921V5.70923V5.70925V5.70928V5.7093V5.70933V5.70935V5.70937V5.7094V5.70942V5.70944V5.70947V5.70949V5.70952V5.70954V5.70956V5.70959V5.70961V5.70963V5.70966V5.70968V5.70971V5.70973V5.70975V5.70978V5.7098V5.70982V5.70985V5.70987V5.7099V5.70992V5.70994V5.70997V5.70999V5.71001V5.71004V5.71006V5.71009V5.71011V5.71013V5.71016V5.71018V5.7102V5.71023V5.71025V5.71028V5.7103V5.71032V5.71035V5.71037V5.71039V5.71042V5.71044V5.71047V5.71049V5.71051V5.71054V5.71056V5.71058V5.71061V5.71063V5.71066V5.71068V5.7107V5.71073V5.71075V5.71077V5.7108V5.71082V5.71085V5.71087V5.71089V5.71092V5.71094V5.71096V5.71099V5.71101V5.71104V5.71106V5.71108V5.71111V5.71113V5.71115V5.71118V5.7112V5.71123V5.71125V5.71127V5.7113V5.71132V5.71134V5.71137V5.71139V5.71142V5.71144V5.71146V5.71149V5.71151V5.71153V5.71156V5.71158V5.71161V5.71163V5.71165V5.71168V5.7117V5.71172V5.71175V5.71177V5.7118V5.71182V5.71184V5.71187V5.71189V5.71191V5.71194V5.71196V5.71199V5.71201V5.71203V5.71206V5.71208V5.7121V5.71213V5.71215V5.71217V5.7122V5.71222V5.71225V5.71227V5.71229V5.71232V5.71234V5.71237V5.71239V5.71241V5.71244V5.71246V5.71248V5.71251V5.71253V5.71255V5.71258V5.7126V5.71263V5.71265V5.71267V5.7127V5.71272V5.71275V5.71277V5.71279V5.71282V5.71284V5.71286V5.71289V5.71291V5.71293V5.71296V5.71298V5.71301V5.71303V5.71305V5.71308V5.7131V5.71312V5.71315V5.71317V5.7132V5.71322V5.71324V5.71327V5.71329V5.71332V5.71334V5.71336V5.71339V5.71341V5.71343V5.71346V5.71348V5.7135V5.71353V5.71355V5.71358V5.7136V5.71362V5.71365V5.71367V5.7137V5.71372V5.71374V5.71377V5.71379V5.71381V5.71384V5.71386V5.71388V5.71391V5.71393V5.71396V5.71398V5.714V5.71403V5.71405V5.71407V5.7141V5.71412V5.71415V5.71417V5.71419V5.71422V5.71424V5.71426V5.71429V5.71431V5.71434V5.71436V5.71438V5.71441V5.71443V5.71445V5.71448V5.7145V5.71453V5.71455V5.71457V5.7146V5.71462V5.71464V5.71467V5.71469V5.71472V5.71474V5.71476V5.71479V5.71481V5.71483V5.71486V5.71488V5.71491V5.71493V5.71495V5.71498V5.715V5.71502V5.71505V5.71507V5.7151V5.71512V5.71514V5.71517V5.71519V5.71521V5.71524V5.71526V5.71529V5.71531V5.71533V5.71536V5.71538V5.7154V5.71543V5.71545V5.71548V5.7155V5.71552V5.71555V5.71557V5.71559V5.71562V5.71564V5.71567V5.71569V5.71571V5.71574V5.71576V5.71578V5.71581V5.71583V5.71586V5.71588V5.7159V5.71593V5.71595V5.71597V5.716V5.71602V5.71605V5.71607V5.71609V5.71612V5.71614V5.71616V5.71619V5.71621V5.71624V5.71626V5.71628V5.71631V5.71633V5.71635V5.71638V5.7164V5.71643V5.71645V5.71647V5.7165V5.71652V5.71654V5.71657V5.71659V5.71662V5.71664V5.71666V5.71669V5.71671V5.71673V5.71676V5.71678V5.71681V5.71683V5.71685V5.71688V5.7169V5.71692V5.71695V5.71697V5.717V5.71702V5.71704V5.71707V5.71709V5.71711V5.71714V5.71716V5.71719V5.71721V5.71723V5.71726V5.71728V5.7173V5.71733V5.71735V5.71738V5.7174V5.71742V5.71745V5.71747V5.71749V5.71752V5.71754V5.71757V5.71759V5.71761V5.71764V5.71766V5.71768V5.71771V5.71773V5.71776V5.71778V5.7178V5.71783V5.71787V5.71792V5.71797V5.71802V5.71807V5.71811V5.71816V5.71821V5.71826V5.71831V5.71835V5.7184V5.71845V5.7185V5.71855V5.7186V5.71865V5.7187V5.71875V5.71879V5.71884V5.71889V5.71894V5.71899V5.71904V5.71909V5.71914V5.71919V5.71924V5.71929V5.71934V5.71939V5.71944V5.71949V5.71954V5.7196V5.71965V5.7197V5.71975V5.7198V5.71985V5.7199V5.71995V5.72V5.72006V5.72011V5.72016V5.72021V5.72026V5.72031V5.72037V5.72042V5.72047V5.72052V5.72057V5.72063V5.72068V5.72073V5.72078V5.72084V5.72089V5.72094V5.721V5.72105V5.7211V5.72115V5.72121V5.72126V5.72131V5.72137V5.72142V5.72148V5.72153V5.72158V5.72164V5.72169V5.72175V5.7218V5.72185V5.72191V5.72196V5.72202V5.72207V5.72213V5.72218V5.72224V5.72229V5.72234V5.7224V5.72246V5.72251V5.72257V5.72262V5.72268V5.72273V5.72279V5.72284V5.7229V5.72295V5.72301V5.72307V5.72312V5.72318V5.72323V5.72329V5.72335V5.7234V5.72346V5.72352V5.72357V5.72363V5.72369V5.72374V5.7238V5.72386V5.72391V5.72397V5.72403V5.72408V5.72414V5.7242V5.72426V5.72431V5.72437V5.72443V5.72449V5.72454V5.7246V5.72466V5.72472V5.72478V5.72483V5.72489V5.72495V5.72501V5.72507V5.72513V5.72518V5.72524V5.7253V5.72536V5.72542V5.72548V5.72554V5.7256V5.72566V5.72571V5.72577V5.72583V5.72589V5.72595V5.72601V5.72607V5.72613V5.72619V5.72625V5.72631V5.72637V5.72643V5.72649V5.72655V5.72661V5.72667V5.72673V5.72679V5.72685V5.72691V5.72697V5.72703V5.72709V5.72715V5.72721V5.72727V5.72734V5.7274V5.72746V5.72752V5.72758V5.72764V5.7277V5.72776V5.72782V5.72789V5.72795V5.72801V5.72807V5.72813V5.72819V5.72826V5.72832V5.72838V5.72844V5.7285V5.72857V5.72863V5.72869V5.72875V5.72881V5.72888V5.72894V5.729V5.72906V5.72913V5.72919V5.72925V5.72931V5.72938V5.72944V5.7295V5.72957V5.72963V5.72969V5.72976V5.72982V5.72988V5.72995V5.73001V5.73007V5.73013V5.7302V5.73026V5.73033V5.73039V5.73045V5.73052V5.73058V5.73064V5.73071V5.73077V5.73084V5.7309V5.73096V5.73103V5.73109V5.73116V5.73122V5.73129V5.73135V5.73141V5.73148V5.73154V5.73161V5.73167V5.73174V5.7318V5.73187V5.73193V5.732V5.73206V5.73213V5.73219V5.73226V5.73232V5.73239V5.73245V5.73252V5.73258V5.73265V5.73271V5.73278V5.73285V5.73291V5.73298V5.73304V5.73311V5.73317V5.73324V5.7333V5.73337V5.73344V5.7335V5.73357V5.73363V5.7337V5.73377V5.73383V5.7339V5.73397V5.73403V5.7341V5.73416V5.73423V5.7343V5.73436V5.73443V5.7345V5.73456V5.73463V5.7347V5.73476V5.73483V5.7349V5.73496V5.73503V5.7351V5.73517V5.73523V5.7353V5.73537V5.73543V5.7355V5.73557V5.73564V5.7357V5.73577V5.73584V5.73591V5.73597V5.73604V5.73611V5.73618V5.73624V5.73631V5.73638V5.73645V5.73651V5.73658V5.73665V5.73672V5.73678V5.73685V5.73692V5.73699V5.73706V5.73712V5.73719V5.73726V5.73733V5.7374V5.73747V5.73753V5.7376V5.73767V5.73774V5.73781V5.73788V5.73794V5.73801V5.73808V5.73815V5.73822V5.73829V5.73836V5.73842V5.73849V5.73856V5.73863V5.7387V5.73877V5.73884V5.73891V5.73897V5.73904V5.73911V5.73918V5.73925V5.73932V5.73939V5.73946V5.73953V5.7396V5.73967V5.73973V5.7398V5.73987V5.73994V5.74001V5.74008V5.74015V5.74022V5.74029V5.74036V5.74043V5.7405V5.74057V5.74064V5.74071V5.74078V5.74085V5.74091V5.74098V5.74105V5.74112V5.74119V5.74126V5.74133V5.7414V5.74147V5.74154V5.74161V5.74168V5.74175V5.74182V5.74189V5.74196V5.74203V5.7421V5.74217V5.74224V5.74231V5.74238V5.74245V5.74252V5.74259V5.74266V5.74273V5.7428V5.74287V5.74294V5.74301V5.74308V5.74316V5.74323V5.7433V5.74337V5.74344V5.74351V5.74358V5.74365V5.74372V5.74379V5.74386V5.74393V5.744V5.74407V5.74414V5.74421V5.74428V5.74435V5.74442V5.74449V5.74457V5.74464V5.74471V5.74478V5.74485V5.74492V5.74499V5.74506V5.74513V5.7452V5.74527V5.74534V5.74541V5.74548V5.74556V5.74563V5.7457V5.74577V5.74584V5.74591V5.74598V5.74605V5.74612V5.74619V5.74626V5.74634V5.74641V5.74648V5.74655V5.74662V5.74669V5.74676V5.74683V5.7469V5.74697V5.74705V5.74712V5.74719V5.74726V5.74733V5.7474V5.74747V5.74754V5.74761V5.74769V5.74776V5.74783V5.7479V5.74797V5.74804V5.74811V5.74818V5.74825V5.74833V5.7484V5.74847V5.74854V5.74861V5.74868V5.74875V5.74882V5.7489V5.74897V5.74904V5.74911V5.74918V5.74925V5.74932V5.74939V5.74947V5.74954V5.74961V5.74968V5.74975V5.74982V5.74989V5.74996V5.75004V5.75011V5.75018V5.75025C10.7251 5.84563 10.7177 5.94719 10.706 6.05691L10.7048 6.06768V6.07852C10.7048 6.10725 10.7019 6.13774 10.6977 6.17991L10.6977 6.17991L10.6974 6.18392C10.6899 6.27768 10.6787 6.37152 10.6638 6.46546C10.6616 6.47581 10.6601 6.48478 10.6592 6.49026L10.6567 6.49778L10.6541 6.51589C10.6533 6.52196 10.6518 6.52926 10.6485 6.54466L10.6481 6.54653C10.6455 6.55839 10.6418 6.57605 10.6388 6.59509C10.5995 6.79474 10.5525 6.99032 10.4977 7.18186L10.4972 7.18365C10.4854 7.22648 10.409 7.42032 10.3123 7.64965C10.2178 7.87347 10.1152 8.10473 10.0585 8.21432C9.94785 8.42751 9.82916 8.63316 9.70227 8.83532C9.70214 8.83554 9.702 8.83576 9.70186 8.83598L5.04913 16.1152C5.04892 16.1155 5.04871 16.1158 5.0485 16.1161C4.9135 16.3213 4.74851 16.4087 4.52927 16.4087C4.3453 16.4087 4.21238 16.3466 4.10739 16.2242C3.98968 16.0869 3.93725 15.9463 3.93725 15.7928C3.93725 15.702 3.96583 15.6052 4.03588 15.4915L6.82063 11.1485L7.07536 10.7512L6.61184 10.8399C6.42669 10.8753 6.24062 10.9031 6.04904 10.927L6.04903 10.927L6.04493 10.9276C5.86165 10.9543 5.67291 10.966 5.47406 10.966C4.74537 10.966 4.06709 10.833 3.42887 10.5607L3.42791 10.5603C2.78663 10.2907 2.22887 9.91622 1.75309 9.4407C1.27695 8.96481 0.897994 8.40681 0.620027 7.76517C0.343195 7.12212 0.202743 6.44431 0.202743 5.72188C0.202743 4.9984 0.339539 4.31715 0.619497 3.67981L0.6195 3.67981L0.619913 3.67885C0.896701 3.03985 1.27364 2.48379 1.74699 2.00917C1.75304 2.00458 1.76507 1.99514 1.77742 1.98279L1.85867 1.90159L1.85557 1.88923C1.98433 1.76881 2.11392 1.65247 2.25026 1.54471C2.79888 1.11308 3.42212 0.80897 4.12253 0.62516L4.12264 0.625132C4.5689 0.507758 5.00915 0.449594 5.44794 0.453475V0.453482H5.44973H5.44978H5.44983H5.44988H5.44992H5.44997H5.45002H5.45007H5.45011H5.45016H5.45021H5.45026H5.4503H5.45035H5.4504H5.45045H5.45049H5.45054H5.45059H5.45064H5.45068H5.45073H5.45078H5.45083H5.45087H5.45092H5.45097H5.45102H5.45106H5.45111H5.45116H5.45121H5.45125H5.4513H5.45135H5.4514H5.45144H5.45149H5.45154H5.45159H5.45163H5.45168H5.45173H5.45178H5.45182H5.45187H5.45192H5.45197H5.45201H5.45206H5.45211H5.45216H5.4522H5.45225H5.4523H5.45235H5.45239H5.45244H5.45249H5.45254H5.45258H5.45263H5.45268H5.45273H5.45277H5.45282H5.45287H5.45292H5.45296H5.45301H5.45306H5.45311H5.45315H5.4532H5.45325H5.4533H5.45334H5.45339H5.45344H5.45349H5.45353H5.45358H5.45363H5.45368H5.45372H5.45377H5.45382H5.45387H5.45391H5.45396H5.45401H5.45406H5.4541H5.45415H5.4542H5.45425H5.45429H5.45434H5.45439H5.45444H5.45448H5.45453H5.45458H5.45463H5.45467H5.45472H5.45477H5.45482H5.45486H5.45491H5.45496H5.45501H5.45505H5.4551H5.45515H5.4552H5.45524H5.45529H5.45534H5.45539H5.45543H5.45548H5.45553H5.45558H5.45562H5.45567H5.45572H5.45577H5.45581H5.45586H5.45591H5.45596H5.45601H5.45605H5.4561H5.45615H5.45619H5.45624H5.45629H5.45634H5.45639H5.45643H5.45648H5.45653H5.45657H5.45662H5.45667H5.45672H5.45677H5.45681H5.45686H5.45691H5.45695H5.457H5.45705H5.4571H5.45715H5.45719H5.45724H5.45729H5.45734H5.45738H5.45743H5.45748H5.45753H5.45757H5.45762H5.45767H5.45772H5.45776H5.45781H5.45786H5.45791H5.45795H5.458H5.45805H5.4581H5.45814H5.45819H5.45824H5.45829H5.45833H5.45838H5.45843H5.45848H5.45852H5.45857H5.45862H5.45867H5.45871H5.45876H5.45881H5.45886H5.4589H5.45895H5.459H5.45905H5.45909H5.45914H5.45919H5.45924H5.45928H5.45933H5.45938H5.45943H5.45947H5.45952H5.45957H5.45962H5.45966H5.45971H5.45976H5.45981H5.45985H5.4599H5.45995H5.46H5.46004H5.46009H5.46014H5.46019H5.46023H5.46028H5.46033H5.46038H5.46042H5.46047H5.46052H5.46057H5.46061H5.46066H5.46071H5.46076H5.4608H5.46085H5.4609H5.46095H5.46099H5.46104H5.46109H5.46114H5.46118H5.46123H5.46128H5.46133H5.46137H5.46142H5.46147H5.46152H5.46156H5.46161H5.46166H5.46171H5.46175H5.4618H5.46185H5.4619H5.46194H5.46199H5.46204H5.46209H5.46213H5.46218H5.46223H5.46228H5.46232H5.46237H5.46242H5.46247H5.46251H5.46256H5.46261H5.46266H5.4627H5.46275H5.4628H5.46285H5.46289H5.46294H5.46299H5.46304H5.46308H5.46313H5.46318H5.46323H5.46327H5.46332H5.46337H5.46342H5.46346H5.46351H5.46356H5.46361H5.46365H5.4637H5.46375H5.4638H5.46384H5.46389H5.46394H5.46399H5.46404H5.46408H5.46413H5.46418H5.46422H5.46427H5.46432H5.46437H5.46442H5.46446H5.46451H5.46456H5.4646H5.46465H5.4647H5.46475H5.4648H5.46484H5.46489H5.46494H5.46499H5.46503H5.46508H5.46513H5.46518H5.46522H5.46527H5.46532H5.46537H5.46541H5.46546H5.46551H5.46556H5.4656H5.46565H5.4657H5.46575H5.46579H5.46584H5.46589H5.46594H5.46598H5.46603H5.46608H5.46613H5.46617H5.46622H5.46627H5.46632H5.46636H5.46641H5.46646H5.46651H5.46655H5.4666H5.46665H5.4667H5.46674H5.46679H5.46684H5.46689H5.46693H5.46698H5.46703H5.46708H5.46712H5.46717H5.46722H5.46727H5.46731H5.46736H5.46741H5.46746H5.4675H5.46755H5.4676H5.46765H5.46769H5.46774H5.46779H5.46784H5.46788H5.46793H5.46798H5.46803H5.46807H5.46812H5.46817H5.46822H5.46826H5.46831H5.46836H5.46841H5.46845H5.4685H5.46855H5.4686H5.46864H5.46869H5.46874H5.46879H5.46883H5.46888H5.46893H5.46898H5.46902H5.46907H5.46912H5.46917H5.46921H5.46926H5.46931H5.46936H5.4694H5.46945H5.4695H5.46955H5.46959H5.46964H5.46969H5.46974H5.46978H5.46983H5.46988H5.46993H5.46997H5.47002H5.47007H5.47012H5.47016H5.47021H5.47026H5.47031H5.47035H5.4704H5.47045H5.4705H5.47054H5.47059H5.47064H5.47069H5.47073H5.47078H5.47083H5.47088H5.47092H5.47097H5.47102H5.47107H5.47111H5.47116H5.47121H5.47126H5.4713H5.47135H5.4714H5.47145H5.4715H5.47154H5.47159H5.47164H5.47168H5.47173H5.47178H5.47183H5.47188H5.47192H5.47197H5.47202H5.47206H5.47211H5.47216H5.47221H5.47226H5.4723H5.47235H5.4724H5.47245H5.47249H5.47254H5.47259H5.47264H5.47268H5.47273H5.47278H5.47283H5.47287H5.47292H5.47297H5.47302H5.47306H5.47311H5.47316H5.47321H5.47325H5.4733H5.47335H5.4734H5.47344H5.47349H5.47354H5.47359H5.47363H5.47368H5.47373H5.47378H5.47382H5.47387H5.47392H5.47397H5.47401H5.47406C6.19694 0.453482 6.87884 0.593874 7.51759 0.870144C7.77673 0.984629 8.02178 1.11524 8.25464 1.262L8.24942 1.26722L8.44774 1.40579C8.89003 1.71483 9.28483 2.08209 9.633 2.52386C9.87045 2.82737 10.0694 3.15472 10.2336 3.50246L10.2334 3.50256L10.2381 3.51134C10.2686 3.56848 10.2943 3.62 10.3198 3.67819C10.5451 4.21432 10.6775 4.78146 10.713 5.37662C10.7134 5.39369 10.7148 5.40966 10.7156 5.4182L10.7158 5.4201C10.7167 5.42974 10.7169 5.43321 10.717 5.43408C10.717 5.43435 10.717 5.43437 10.717 5.43426Z" fill="#A70230" stroke="#A70230" stroke-width="0.405486"/>
<path d="M35.697 21.5196C35.9796 21.2034 36.1685 20.904 36.2637 20.6213C36.3616 20.3359 36.4204 19.9721 36.44 19.53L36.4987 17.7922H39.6511V21.5196H40.2807V23.6856H39.2649V22.334H36.3518V23.6856H35.3192L35.3234 21.5196H35.697ZM36.8933 21.5196H38.6353V18.6695H37.4894L37.46 19.5384C37.4208 20.3723 37.2319 21.0327 36.8933 21.5196ZM44.4286 20.0211C44.4286 19.5762 44.5168 19.176 44.6931 18.8206C44.8694 18.4624 45.117 18.1882 45.436 17.9979C45.7551 17.8048 46.1216 17.7082 46.5358 17.7082C47.1486 17.7082 47.6454 17.9055 48.0259 18.3001C48.4093 18.6947 48.6164 19.218 48.6472 19.87L48.6514 20.1092C48.6514 20.557 48.5646 20.9572 48.3911 21.3097C48.2204 21.6623 47.9742 21.9352 47.6524 22.1283C47.3333 22.3214 46.9639 22.4179 46.5442 22.4179C45.9034 22.4179 45.3899 22.2052 45.0037 21.7799C44.6203 21.3517 44.4286 20.7823 44.4286 20.0715V20.0211ZM45.4486 20.1092C45.4486 20.5766 45.5452 20.9432 45.7383 21.209C45.9313 21.4721 46.2 21.6036 46.5442 21.6036C46.8884 21.6036 47.1556 21.4693 47.3459 21.2006C47.539 20.932 47.6356 20.5388 47.6356 20.0211C47.6356 19.5622 47.5362 19.1984 47.3375 18.9297C47.1416 18.6611 46.8744 18.5268 46.5358 18.5268C46.2028 18.5268 45.9383 18.6597 45.7425 18.9255C45.5466 19.1886 45.4486 19.5831 45.4486 20.1092ZM54.9904 21.6036C55.245 21.6036 55.4563 21.5294 55.6242 21.3811C55.7921 21.2328 55.8817 21.0495 55.8928 20.8312H56.8541C56.8429 21.1139 56.7547 21.3783 56.5896 21.6246C56.4245 21.868 56.2007 22.0611 55.918 22.2038C55.6354 22.3465 55.3304 22.4179 55.003 22.4179C54.3677 22.4179 53.864 22.2122 53.4918 21.8009C53.1197 21.3895 52.9336 20.8214 52.9336 20.0966V19.9917C52.9336 19.3005 53.1183 18.7478 53.4876 18.3337C53.857 17.9167 54.3607 17.7082 54.9988 17.7082C55.5389 17.7082 55.9782 17.8663 56.3168 18.1826C56.6582 18.496 56.8373 18.9087 56.8541 19.4208H55.8928C55.8817 19.1606 55.7921 18.9465 55.6242 18.7786C55.4591 18.6107 55.2478 18.5268 54.9904 18.5268C54.6602 18.5268 54.4055 18.6471 54.2264 18.8878C54.0473 19.1256 53.9564 19.488 53.9536 19.9749V20.1386C53.9536 20.6311 54.0417 20.9991 54.218 21.2426C54.3971 21.4832 54.6546 21.6036 54.9904 21.6036ZM64.8092 18.6023H63.3358V22.334H62.3158V18.6023H60.8592V17.7922H64.8092V18.6023ZM71.7484 22.334C71.7036 22.2472 71.6645 22.1059 71.6309 21.91C71.3063 22.2486 70.9089 22.4179 70.4388 22.4179C69.9826 22.4179 69.6104 22.2878 69.3222 22.0275C69.034 21.7673 68.8899 21.4455 68.8899 21.0621C68.8899 20.578 69.069 20.2072 69.4272 19.9497C69.7881 19.6895 70.303 19.5594 70.9719 19.5594H71.5973V19.2613C71.5973 19.0263 71.5315 18.8388 71.4 18.6989C71.2685 18.5561 71.0684 18.4848 70.7998 18.4848C70.5675 18.4848 70.3772 18.5435 70.2289 18.6611C70.0806 18.7758 70.0064 18.9227 70.0064 19.1018H68.9864C68.9864 18.8528 69.069 18.6205 69.2341 18.405C69.3992 18.1868 69.623 18.0161 69.9057 17.8929C70.1911 17.7698 70.5087 17.7082 70.8585 17.7082C71.3902 17.7082 71.8142 17.8426 72.1304 18.1112C72.4466 18.377 72.6089 18.752 72.6173 19.2361V21.2846C72.6173 21.6931 72.6747 22.0191 72.7894 22.2626V22.334H71.7484ZM70.6277 21.5994C70.8291 21.5994 71.018 21.5504 71.1943 21.4525C71.3734 21.3545 71.5077 21.223 71.5973 21.0579V20.2016H71.0474C70.6696 20.2016 70.3856 20.2674 70.1953 20.3989C70.005 20.5304 69.9099 20.7165 69.9099 20.9572C69.9099 21.153 69.9742 21.3097 70.103 21.4273C70.2345 21.542 70.4094 21.5994 70.6277 21.5994ZM77.3738 22.334V17.7922H79.2166C79.8378 17.7922 80.3107 17.9013 80.6353 18.1196C80.9599 18.3351 81.1223 18.6457 81.1223 19.0515C81.1223 19.2613 81.0565 19.4502 80.925 19.6181C80.7962 19.7832 80.6046 19.9106 80.3499 20.0001C80.6465 20.0617 80.8816 20.1862 81.0551 20.3737C81.2286 20.5612 81.3153 20.7823 81.3153 21.0369C81.3153 21.4595 81.1586 21.7813 80.8452 22.0023C80.5346 22.2234 80.0869 22.334 79.502 22.334H77.3738ZM78.3938 20.3989V21.528H79.5104C80.0337 21.528 80.2953 21.3405 80.2953 20.9655C80.2953 20.5878 80.0295 20.3989 79.4978 20.3989H78.3938ZM78.3938 19.6685H79.2333C79.8126 19.6685 80.1022 19.4978 80.1022 19.1564C80.1022 18.7982 79.828 18.6135 79.2795 18.6023H78.3938V19.6685ZM88.645 17.7922H89.6608V22.334H88.645V19.3033L86.8652 22.334H85.8494V17.7922H86.8652V20.8228L88.645 17.7922ZM97.0534 21.0789L98.3966 17.7922H99.6726V22.334H98.6526V19.3285L97.4018 22.334H96.7092L95.4541 19.3117V22.334H94.4341V17.7922H95.7185L97.0534 21.0789ZM118.073 18.044C118.643 18.044 119.101 18.2357 119.445 18.6191C119.789 18.9997 119.962 19.5174 119.962 20.1722V20.2226C119.962 20.8774 119.774 21.4077 119.399 21.8135C119.027 22.2192 118.52 22.4221 117.88 22.4221C117.255 22.4221 116.752 22.215 116.368 21.8009C115.985 21.3867 115.793 20.8214 115.793 20.105V19.8112C115.793 18.8318 115.967 18.0566 116.314 17.4858C116.661 16.9149 117.179 16.5581 117.867 16.4154C118.253 16.337 118.502 16.2545 118.614 16.1677C118.729 16.0782 118.786 15.9578 118.786 15.8067H119.609C119.609 16.0894 119.563 16.3188 119.47 16.4951C119.378 16.6714 119.237 16.8156 119.046 16.9275C118.856 17.0366 118.529 17.1402 118.064 17.2381C117.639 17.3277 117.314 17.4872 117.09 17.7166C116.869 17.9461 116.721 18.2637 116.645 18.6695C117.051 18.2525 117.527 18.044 118.073 18.044ZM117.871 18.8626C117.541 18.8626 117.282 18.9745 117.095 19.1984C116.907 19.4194 116.813 19.7608 116.813 20.2226C116.813 20.6591 116.906 20.9991 117.09 21.2426C117.275 21.486 117.538 21.6078 117.88 21.6078C118.218 21.6078 118.48 21.486 118.664 21.2426C118.852 20.9963 118.946 20.6269 118.946 20.1344C118.946 19.7427 118.852 19.4334 118.664 19.2068C118.48 18.9773 118.215 18.8626 117.871 18.8626ZM125.469 19.2361H126.468C126.841 19.2361 127.165 19.3005 127.442 19.4292C127.719 19.558 127.929 19.7385 128.072 19.9707C128.217 20.203 128.29 20.473 128.29 20.7809C128.29 21.2482 128.125 21.6232 127.795 21.9058C127.465 22.1884 127.025 22.3312 126.477 22.334H124.449V17.7922H125.469V19.2361ZM130.066 22.334H129.046V17.7922H130.066V22.334ZM125.469 20.0547V21.5196H126.464C126.713 21.5196 126.909 21.4581 127.052 21.3349C127.197 21.209 127.27 21.0313 127.27 20.8018C127.27 20.5724 127.199 20.3919 127.056 20.2604C126.916 20.126 126.726 20.0575 126.485 20.0547H125.469ZM136.766 21.6036C137.02 21.6036 137.232 21.5294 137.4 21.3811C137.567 21.2328 137.657 21.0495 137.668 20.8312H138.629C138.618 21.1139 138.53 21.3783 138.365 21.6246C138.2 21.868 137.976 22.0611 137.693 22.2038C137.411 22.3465 137.106 22.4179 136.778 22.4179C136.143 22.4179 135.639 22.2122 135.267 21.8009C134.895 21.3895 134.709 20.8214 134.709 20.0966V19.9917C134.709 19.3005 134.894 18.7478 135.263 18.3337C135.632 17.9167 136.136 17.7082 136.774 17.7082C137.314 17.7082 137.754 17.8663 138.092 18.1826C138.434 18.496 138.613 18.9087 138.629 19.4208H137.668C137.657 19.1606 137.567 18.9465 137.4 18.7786C137.234 18.6107 137.023 18.5268 136.766 18.5268C136.436 18.5268 136.181 18.6471 136.002 18.8878C135.823 19.1256 135.732 19.488 135.729 19.9749V20.1386C135.729 20.6311 135.817 20.9991 135.993 21.2426C136.172 21.4832 136.43 21.6036 136.766 21.6036ZM146.585 18.6023H145.111V22.334H144.091V18.6023H142.635V17.7922H146.585V18.6023ZM154.854 20.1092C154.854 20.8116 154.695 21.3727 154.376 21.7925C154.057 22.2094 153.629 22.4179 153.091 22.4179C152.593 22.4179 152.195 22.2542 151.895 21.9268V24.0801H150.875V17.7922H151.815L151.857 18.2539C152.157 17.8901 152.564 17.7082 153.079 17.7082C153.633 17.7082 154.067 17.9153 154.38 18.3295C154.696 18.7408 154.854 19.3131 154.854 20.0463V20.1092ZM153.839 20.0211C153.839 19.5678 153.748 19.2082 153.566 18.9423C153.387 18.6765 153.129 18.5435 152.793 18.5435C152.376 18.5435 152.077 18.7156 151.895 19.0599V21.0747C152.08 21.4273 152.382 21.6036 152.802 21.6036C153.126 21.6036 153.38 21.4735 153.562 21.2132C153.746 20.9502 153.839 20.5528 153.839 20.0211ZM159.141 20.0211C159.141 19.5762 159.229 19.176 159.405 18.8206C159.582 18.4624 159.829 18.1882 160.148 17.9979C160.467 17.8048 160.834 17.7082 161.248 17.7082C161.861 17.7082 162.358 17.9055 162.738 18.3001C163.121 18.6947 163.329 19.218 163.359 19.87L163.364 20.1092C163.364 20.557 163.277 20.9572 163.103 21.3097C162.933 21.6623 162.686 21.9352 162.365 22.1283C162.045 22.3214 161.676 22.4179 161.256 22.4179C160.616 22.4179 160.102 22.2052 159.716 21.7799C159.332 21.3517 159.141 20.7823 159.141 20.0715V20.0211ZM160.161 20.1092C160.161 20.5766 160.257 20.9432 160.45 21.209C160.644 21.4721 160.912 21.6036 161.256 21.6036C161.601 21.6036 161.868 21.4693 162.058 21.2006C162.251 20.932 162.348 20.5388 162.348 20.0211C162.348 19.5622 162.248 19.1984 162.05 18.9297C161.854 18.6611 161.587 18.5268 161.248 18.5268C160.915 18.5268 160.651 18.6597 160.455 18.9255C160.259 19.1886 160.161 19.5831 160.161 20.1092Z" fill="#A70230"/>
</svg>
