<svg width="140" height="25" viewBox="0 0 140 25" fill="none" xmlns="http://www.w3.org/2000/svg">
<path d="M40.3811 15.9788C40.3151 15.9953 40.2986 16.1109 40.2325 16.0407C40.2986 15.9169 40.3688 15.8054 40.4266 15.6857C40.4513 15.6362 40.4596 15.5784 40.4761 15.5247C40.4802 15.5123 40.4967 15.4999 40.5091 15.4958C40.5174 15.4958 40.538 15.5123 40.538 15.5206C40.538 15.6238 40.6206 15.6692 40.6784 15.7228C40.893 15.9169 41.1118 16.1068 41.3265 16.2967C41.3801 16.3462 41.4462 16.4122 41.5081 16.3751C41.5453 16.3544 41.5411 16.2512 41.5411 16.1893C41.537 16.0655 41.4875 15.9664 41.3801 15.8838C41.182 15.727 40.9962 15.5495 40.8064 15.3802C40.7651 15.3431 40.732 15.3018 40.7527 15.2399C40.7733 15.1821 40.8146 15.1284 40.8765 15.1325C40.9219 15.1325 40.9715 15.1614 41.0086 15.1903C41.1737 15.3307 41.3347 15.4752 41.4957 15.6196C41.5618 15.5701 41.5576 15.5041 41.5329 15.4504C41.4792 15.3348 41.4214 15.2234 41.4132 15.0913C41.4132 15.0706 41.3719 15.0417 41.343 15.0335C41.2357 15.0004 41.149 14.9468 41.1118 14.8312C41.0664 14.6908 41.1077 14.567 41.2852 14.4885C41.4586 14.4142 41.6402 14.4225 41.8136 14.4885C41.9333 14.534 42.0406 14.6 42.1604 14.6578C42.181 14.6248 42.2058 14.5918 42.1562 14.5298C42.086 14.439 42.0241 14.3358 41.987 14.2285C41.9209 14.0427 42.0035 13.7455 42.2925 13.6423C42.214 13.5928 42.1438 13.5432 42.086 13.5061C41.9663 13.5969 41.8673 13.6877 41.7475 13.7579C41.5907 13.8487 41.4173 13.8776 41.2439 13.795C41.1242 13.7372 41.0623 13.6382 41.0664 13.5061C41.0664 13.3822 41.1325 13.2955 41.2357 13.2336C41.4545 13.1056 41.6856 13.1511 41.9168 13.1965C41.9498 13.2047 41.9829 13.2171 42.02 13.2254C42.1067 13.246 42.1315 13.2254 42.148 13.1304C42.1604 13.0478 42.1769 12.9653 42.1934 12.8662C42.2925 13.0231 42.1769 13.1511 42.1851 13.2873C42.4576 13.3946 42.7011 13.5597 42.9117 13.7661C43.085 13.9354 43.2254 14.1253 43.3038 14.3606C43.3699 14.5629 43.3121 14.7693 43.1428 14.8394C43.0396 14.8807 42.9117 14.8766 42.7961 14.8725C42.5855 14.8642 42.4245 14.7404 42.2594 14.633C42.247 14.6661 42.2305 14.695 42.214 14.7321C42.3544 14.8766 42.4782 15.0335 42.5236 15.2357C42.5649 15.4215 42.5236 15.6238 42.342 15.7435C42.2347 15.8137 42.1108 15.8219 41.9952 15.7683C41.8673 15.7105 41.7434 15.6403 41.6196 15.5742C41.6072 15.599 41.5907 15.6444 41.5742 15.6898C41.6815 15.7848 41.7888 15.8756 41.892 15.9705C41.9457 16.0159 41.9705 16.0737 41.9416 16.1439C41.9168 16.2017 41.8714 16.2471 41.8053 16.2347C41.7641 16.2306 41.7228 16.2017 41.6856 16.1811C41.6567 16.1646 41.632 16.1357 41.6196 16.1274C41.6196 16.2182 41.6237 16.3255 41.6196 16.4288C41.6154 16.5113 41.6196 16.6021 41.537 16.6558C41.4586 16.7053 41.3678 16.6929 41.2728 16.6104C41.1366 16.4907 41.0004 16.3668 40.8683 16.243C40.7403 16.1274 40.6082 16.0077 40.4802 15.888C40.4472 15.8591 40.4266 15.8549 40.4142 15.8838C40.6247 16.1522 40.8435 16.404 41.0334 16.6723C41.215 16.9282 41.3595 17.209 41.3801 17.5351C41.4008 17.8818 41.1366 18.1295 40.8229 18.1584C40.6371 18.1749 40.4678 18.1295 40.3275 18.0015C40.311 17.985 40.3027 17.9561 40.2945 17.9355C40.2986 17.9314 40.3069 17.9272 40.311 17.9231C40.3523 17.9479 40.3935 17.9727 40.4348 17.9933C40.6619 18.1171 40.8848 18.1295 41.1036 17.9768C41.248 17.8777 41.3306 17.6548 41.3058 17.4814C41.2604 17.1924 41.1407 16.9406 40.9673 16.7136C40.8187 16.5113 40.6577 16.3173 40.5009 16.1191C40.4678 16.0696 40.4224 16.0242 40.3811 15.9788ZM42.7465 13.9684C42.6805 13.9065 42.6268 13.8611 42.5732 13.8157C42.5278 13.7785 42.4865 13.7455 42.4369 13.7166C42.3626 13.6794 42.3048 13.729 42.2388 13.7579C42.0943 13.8239 42.1026 13.9808 42.1604 14.0675C42.2305 14.1707 42.3131 14.2656 42.4081 14.3482C42.5071 14.439 42.6186 14.5174 42.7259 14.5876C42.8456 14.6661 42.9695 14.7321 43.1181 14.7321C43.2006 14.7321 43.2502 14.695 43.2419 14.6165C43.2337 14.5587 43.2048 14.4968 43.1717 14.4431C43.0562 14.2532 42.9034 14.1005 42.7465 13.9684ZM41.6237 15.0871C41.6237 15.0871 41.6278 15.1036 41.632 15.1078C41.7476 15.2233 41.8549 15.3513 41.9828 15.4545C42.0819 15.533 42.1975 15.599 42.3337 15.6114C42.4245 15.6196 42.4576 15.5907 42.4452 15.4999C42.4411 15.4793 42.4369 15.4545 42.4246 15.4339C42.3296 15.2729 42.2099 15.1367 42.0819 15.0046C42.0324 14.9509 41.987 14.9468 41.9209 14.9798C41.8301 15.0252 41.7269 15.05 41.6237 15.0871ZM42.0159 13.4441C41.859 13.3822 41.7187 13.3162 41.57 13.2749C41.4999 13.2543 41.409 13.2584 41.3389 13.279C41.2315 13.312 41.1655 13.3822 41.2357 13.4772C41.3306 13.6051 41.4668 13.6836 41.6278 13.6836C41.7888 13.6836 41.892 13.5762 42.0159 13.4441ZM41.9333 14.9014C41.9333 14.8931 41.9333 14.8807 41.9333 14.8725C41.8755 14.8312 41.8177 14.7899 41.764 14.7445C41.6402 14.6537 41.504 14.5959 41.3554 14.5711C41.2439 14.5546 41.1613 14.6372 41.1737 14.7527C41.1861 14.8683 41.2893 14.955 41.409 14.9591C41.4379 14.8766 41.4668 14.7982 41.4957 14.7197C41.4999 14.7239 41.504 14.7239 41.5081 14.728C41.5287 14.8147 41.5453 14.9055 41.57 15.0128C41.698 14.9757 41.8136 14.9385 41.9333 14.9014Z" fill="white"/>
<path d="M39.5887 16.8829C39.597 16.7673 39.5929 16.6641 39.6176 16.5651C39.6713 16.3422 39.8529 16.2348 40.08 16.3091C40.4804 16.4412 40.7446 16.7137 40.8561 17.1182C40.8973 17.2627 40.8973 17.4113 40.7694 17.5228C40.6538 17.6177 40.5217 17.6549 40.3731 17.626C40.2038 17.5888 40.0511 17.5187 39.9149 17.4113C39.758 17.2875 39.5929 17.1719 39.4442 17.0357C39.2461 16.8499 39.0645 16.6435 38.9613 16.3834C38.8746 16.1646 38.8663 15.9417 38.953 15.7188C39.019 15.5496 39.1512 15.4464 39.3122 15.3679C39.436 15.3101 39.5557 15.2317 39.6713 15.1574C39.7497 15.1079 39.7745 14.984 39.7332 14.8726C39.7167 14.8313 39.7002 14.79 39.7002 14.7363C39.7167 14.7487 39.7415 14.7528 39.7538 14.7694C39.8447 14.8973 39.8282 15.0501 39.7291 15.1739C39.6424 15.2812 39.5227 15.3349 39.403 15.401C39.3287 15.4422 39.2585 15.4835 39.1842 15.5289C39.0314 15.6239 38.986 15.7807 38.9902 15.9459C38.9943 16.1894 39.0975 16.3876 39.2709 16.5568C39.3782 16.6559 39.4814 16.7715 39.5887 16.8829ZM40.4515 16.8417C40.3896 16.7962 40.3442 16.755 40.2905 16.7261C40.1543 16.6476 40.0181 16.5651 39.8736 16.5073C39.7539 16.4577 39.6837 16.499 39.6713 16.6394C39.6548 16.8293 39.7043 16.9861 39.8694 17.1017C40.08 17.2503 40.2905 17.3948 40.5423 17.4609C40.6084 17.4774 40.6951 17.4732 40.7487 17.4402C40.8107 17.3989 40.8107 17.3123 40.7776 17.2379C40.7157 17.0604 40.5464 16.9737 40.4515 16.8417Z" fill="white"/>
<path d="M43.4974 13.1845C43.3859 13.2382 43.2951 13.2877 43.2042 13.3167C43.1051 13.3456 43.0142 13.3043 42.9481 13.2299C42.8862 13.1556 42.8655 13.0647 42.8985 12.9738C42.9316 12.883 43.0803 12.7921 43.1959 12.8045C43.3075 12.8169 43.419 12.8417 43.5429 12.8623C43.5388 12.7921 43.5346 12.7053 43.5305 12.6186C43.5388 12.6145 43.547 12.6145 43.5553 12.6104C43.5718 12.6434 43.5924 12.6723 43.5966 12.7053C43.6048 12.7632 43.5924 12.8251 43.6007 12.883C43.6048 12.9119 43.6214 12.949 43.642 12.9656C43.927 13.168 44.084 13.4282 44.0509 13.7875C44.0344 13.961 43.8692 14.0808 43.704 14.0643C43.4148 14.0312 43.1835 13.9032 42.9853 13.6884C42.7953 13.4819 42.7127 13.2423 42.6755 12.978C42.6631 12.883 42.6879 12.7838 42.7003 12.6888C42.7003 12.6764 42.7251 12.6682 42.7251 12.6682C42.7375 12.7838 42.7416 12.8995 42.7622 13.0151C42.787 13.1473 42.8696 13.2588 42.9646 13.3497C43.0638 13.4447 43.167 13.5397 43.2785 13.6223C43.452 13.7545 43.642 13.8701 43.8609 13.9114C43.9642 13.9321 43.9931 13.899 43.96 13.7999C43.9146 13.6677 43.8527 13.5397 43.7535 13.4406C43.6627 13.3497 43.5718 13.2588 43.4974 13.1845ZM43.39 13.1267C43.2909 13.0234 43.1216 12.9408 43.0225 12.9573C42.9977 12.9614 42.9564 12.9903 42.9564 13.0027C42.9646 13.0606 42.9688 13.1308 43.0059 13.168C43.1133 13.2919 43.2868 13.2671 43.39 13.1267Z" fill="white"/>
<path d="M45.187 13.9561C45.187 18.9948 41.1023 23.0794 36.0636 23.0794C31.0249 23.0794 26.9402 18.9948 26.9402 13.9561C26.9402 8.91736 31.0249 4.83268 36.0636 4.83268C41.1023 4.83268 45.187 8.91736 45.187 13.9561Z" fill="#A70230" stroke="white" stroke-width="0.412186"/>
<path d="M39.4778 16.3585C39.5149 16.4989 39.5645 16.6516 39.5934 16.8085C39.6347 17.0438 39.4819 17.1883 39.2507 17.1222C39.1104 17.0809 38.9742 17.0066 38.8586 16.9199C38.6315 16.7507 38.4251 16.5525 38.2022 16.3792C38.0536 16.2636 37.8885 16.1686 37.7234 16.0778C37.6036 16.0118 37.5624 16.0448 37.5706 16.1769C37.5789 16.3627 37.6367 16.5154 37.7935 16.6434C38.132 16.9241 38.4582 17.2213 38.7884 17.5144C38.8256 17.5474 38.8586 17.5887 38.8833 17.63C38.9535 17.7332 38.8875 17.8034 38.8173 17.8653C38.7471 17.9272 38.6811 17.89 38.6233 17.8405C38.2435 17.5061 37.872 17.1676 37.4839 16.8456C37.3807 16.759 37.2362 16.7135 37.1083 16.6557C37.0257 16.6227 36.972 16.6516 36.972 16.7507C36.972 16.9901 36.9968 17.2172 37.1991 17.3905C37.4261 17.5846 37.6532 17.7868 37.8761 17.985C37.9999 18.0964 38.1197 18.2203 38.2435 18.3359C38.3261 18.4184 38.2806 18.4804 38.2187 18.5505C38.1568 18.6248 38.0949 18.6207 38.033 18.5629C37.8142 18.3689 37.5995 18.1749 37.3807 17.9767C37.1 17.7249 36.8193 17.469 36.5386 17.2172C36.4478 17.1346 36.4354 17.0686 36.5014 16.9942C36.5757 16.9034 36.6418 16.8993 36.7367 16.9777C36.7821 17.0149 36.8276 17.0562 36.8854 17.1098C36.8812 16.9571 36.8688 16.8333 36.8812 16.7135C36.8936 16.5773 36.9308 16.4328 37.0752 16.3874C37.1743 16.3544 37.294 16.3792 37.4014 16.3833C37.4261 16.3833 37.455 16.4039 37.4798 16.4122C37.4716 16.3214 37.4674 16.2347 37.455 16.148C37.4055 15.8301 37.6862 15.698 37.938 15.7971C38.099 15.859 38.2476 15.9581 38.3839 16.0654C38.5903 16.2264 38.776 16.4163 38.9783 16.5814C39.0856 16.6681 39.2136 16.7424 39.3374 16.8085C39.4365 16.8622 39.5026 16.8044 39.4737 16.697C39.4365 16.5649 39.3828 16.437 39.325 16.3131C39.3044 16.2718 39.2466 16.2429 39.2012 16.214C38.9411 16.0696 38.7389 15.859 38.5903 15.6072C38.3673 15.2274 38.26 14.8188 38.3962 14.3812C38.4045 14.3481 38.4251 14.3193 38.454 14.2862C38.4169 14.5628 38.4788 14.8188 38.5903 15.0582C38.6811 15.2522 38.7925 15.4297 38.9535 15.5783C39.2053 15.8136 39.4778 16.0118 39.8163 16.1026C39.9401 16.1356 40.0722 16.1397 40.2043 16.1397C40.2828 16.1397 40.3323 16.0819 40.3199 15.987C40.2951 15.793 40.192 15.632 40.0846 15.4792C40.0186 15.3884 39.936 15.31 39.8658 15.2233C39.8287 15.182 39.7915 15.1862 39.742 15.2027C39.4654 15.2852 39.1847 15.3224 38.9081 15.1861C38.776 15.1201 38.6645 15.021 38.648 14.8724C38.6315 14.7073 38.7347 14.5958 38.871 14.5133C39.0774 14.3853 39.2879 14.4225 39.4902 14.5133C39.6759 14.6 39.8493 14.7197 40.0433 14.8353C40.064 14.7981 40.1011 14.7444 40.1259 14.6825C40.1342 14.6619 40.1218 14.6247 40.1053 14.6082C39.9319 14.4596 39.7461 14.3275 39.5851 14.1665C39.5067 14.0881 39.3705 14.0303 39.3994 13.8734C39.4159 13.7867 39.5026 13.7289 39.5851 13.762C39.6512 13.7909 39.7131 13.8239 39.7585 13.8487C39.7709 13.7207 39.7709 13.5721 39.7998 13.4317C39.8576 13.1758 40.1053 13.0891 40.3364 13.1469C40.6543 13.2294 40.8896 13.4235 41.1125 13.6505C41.3189 13.861 41.5005 14.0798 41.612 14.3564C41.6946 14.5711 41.6409 14.7403 41.4799 14.8889C41.352 15.0045 41.2033 14.9797 41.0465 14.9508C41.162 15.0623 41.2694 15.1779 41.385 15.2811C41.6409 15.5164 41.8968 15.76 42.0248 16.0861C42.2188 16.5814 42.1074 17.1222 41.5088 17.2956C41.2116 17.3823 40.9144 17.3121 40.6791 17.0892C40.6626 17.0727 40.6502 17.0479 40.6295 17.0149C40.7864 17.0768 40.9185 17.1387 41.0588 17.1841C41.3437 17.2832 41.6037 17.2296 41.8225 17.019C42.0166 16.8333 42.0331 16.4576 41.8597 16.2306C41.74 16.0737 41.6038 15.9333 41.4675 15.793C41.3148 15.6361 41.1538 15.4916 40.9928 15.343C40.7492 15.1242 40.5015 14.9054 40.2497 14.6867C40.2002 14.7816 40.1631 14.8518 40.1259 14.9302C40.3323 15.1201 40.4438 15.3719 40.4768 15.6402C40.5222 16.0118 40.3942 16.3131 39.9319 16.3627C39.7668 16.3874 39.614 16.3627 39.4778 16.3585ZM40.774 13.8032C40.6832 13.7372 40.6006 13.6629 40.5057 13.6092C40.3612 13.5308 40.2126 13.4524 40.0557 13.3946C39.9401 13.3533 39.8617 13.4235 39.8617 13.5473C39.8617 13.634 39.8576 13.7248 39.8782 13.8074C39.9112 13.9436 39.9649 14.0633 40.0846 14.1583C40.2415 14.2821 40.3818 14.4266 40.5387 14.5504C40.6997 14.6784 40.8525 14.8311 41.0671 14.8683C41.1662 14.8848 41.2776 14.922 41.3602 14.8188C41.4304 14.7279 41.4015 14.6454 41.3602 14.5546C41.2322 14.2491 40.9928 14.0385 40.774 13.8032ZM39.6718 15.0458C39.6058 14.9921 39.5645 14.9467 39.5108 14.922C39.3374 14.8353 39.1682 14.7403 38.9865 14.6743C38.8544 14.6289 38.7182 14.7321 38.743 14.8394C38.7595 14.9178 38.8049 15.0045 38.8627 15.0499C39.098 15.2192 39.3581 15.2357 39.6305 15.1449C39.7048 15.1201 39.7585 15.0912 39.6718 15.0458Z" fill="white"/>
<path d="M42.2145 12.1272C42.1649 12.1891 42.1278 12.2387 42.0865 12.2923C42.297 12.4946 42.4663 12.7258 42.5612 12.9941C42.6479 13.2418 42.6727 13.5019 42.5241 13.7413C42.4456 13.8651 42.3218 13.9312 42.1773 13.9518C41.8966 13.989 41.6613 13.894 41.4425 13.7248C41.1866 13.5266 41.038 13.2707 40.976 12.9611C40.9719 12.9322 40.9224 12.8992 40.8852 12.8909C40.8192 12.8703 40.749 12.8661 40.6871 12.8455C40.394 12.7629 40.299 12.4657 40.4724 12.2098C40.6995 11.8754 40.9843 11.8424 41.3476 11.9291C41.554 11.9786 41.7397 12.1066 41.9338 12.2015C41.9874 12.2263 42.0246 12.2387 42.0659 12.185C42.0948 12.1437 42.136 12.1148 42.1773 12.0735C42.1112 11.9456 42.0287 11.8093 41.975 11.6649C41.8842 11.4254 41.8636 11.186 41.9833 10.9466C42.0824 10.7484 42.3053 10.6246 42.4952 10.6824C42.6108 10.7154 42.7016 10.831 42.7098 10.9548C42.7429 11.3057 42.5777 11.5906 42.4291 11.8878C42.6644 12.1478 42.9534 12.346 43.2836 12.4575C43.5148 12.5359 43.7625 12.5813 44.0143 12.5194C44.1381 12.4905 44.2991 12.3047 44.3074 12.1313C44.3157 11.9662 44.2868 11.8011 44.2785 11.636C44.2785 11.6112 44.2909 11.5823 44.295 11.5575C44.3156 11.574 44.3487 11.5864 44.3528 11.6071C44.4395 11.9456 44.4395 12.2634 44.1794 12.5359C43.9606 12.7712 43.6882 12.8496 43.3786 12.829C42.9369 12.8042 42.6107 12.5607 42.3094 12.2676C42.2764 12.2263 42.2516 12.1809 42.2145 12.1272ZM41.0957 12.9033C41.2526 13.0602 41.393 13.2294 41.5581 13.3698C41.7438 13.5308 41.9585 13.6463 42.2103 13.6711C42.3011 13.6794 42.425 13.733 42.4663 13.6174C42.4952 13.539 42.458 13.4317 42.4498 13.3367C42.4498 13.3285 42.4374 13.3202 42.4333 13.3078C42.297 13.1014 42.1649 12.8909 42.0246 12.6845C41.9833 12.6226 41.9172 12.5648 41.8471 12.54C41.814 12.5276 41.7521 12.5896 41.7026 12.6184C41.6778 12.6308 41.653 12.6515 41.6283 12.6597C41.459 12.7423 41.2898 12.8166 41.0957 12.9033ZM41.7356 12.4987C41.7356 12.4822 41.7315 12.4698 41.7315 12.4533C41.4466 12.218 41.1123 12.1272 40.7407 12.1644C40.6251 12.1767 40.5343 12.2387 40.5013 12.3584C40.4683 12.4905 40.4972 12.6143 40.6128 12.6845C40.7077 12.7423 40.8274 12.7712 40.9306 12.8083C40.9595 12.6432 40.9843 12.5029 41.0049 12.3625C41.0256 12.3625 41.0503 12.3666 41.071 12.3666C41.071 12.507 41.071 12.6432 41.071 12.8166C41.3145 12.7051 41.5251 12.6019 41.7356 12.4987ZM42.3631 11.83C42.3961 11.7598 42.425 11.6938 42.458 11.6318C42.5901 11.3718 42.5076 11.0539 42.2681 10.8888C42.1938 10.8351 42.1278 10.8599 42.0865 10.9136C42.0493 10.9631 42.0246 11.0291 42.0122 11.0911C41.9585 11.4089 42.1195 11.6318 42.3631 11.83Z" fill="white"/>
<path d="M35.2133 21.6878C34.9904 21.469 34.784 21.2378 34.7427 20.9117C34.7056 20.6186 34.8542 20.3544 35.1803 20.309C35.4445 20.2718 35.6839 20.3461 35.9069 20.4865C35.9977 20.5443 36.0885 20.6021 36.1587 20.6805C36.2577 20.792 36.2495 20.891 36.1628 20.9819C36.0926 21.052 35.9688 21.0479 35.8656 20.9777C35.7004 20.8622 35.5436 20.7383 35.3702 20.6392C35.2876 20.5897 35.1721 20.5608 35.0812 20.5773C34.8542 20.6186 34.8005 20.7507 34.8789 20.9984C34.978 21.3121 35.1885 21.5557 35.4693 21.7332C35.6922 21.8735 35.9275 21.9726 36.1876 22.0015C36.4559 22.0345 36.7118 21.9891 36.91 21.7868C37.0916 21.6052 37.0957 21.2915 36.9967 21.0892C36.8357 20.7548 36.6004 20.4741 36.3403 20.214C36.0844 19.954 35.8325 19.6939 35.5766 19.438C35.4569 19.3183 35.3289 19.2027 35.2009 19.0871C34.751 18.6949 34.2969 18.3069 33.8428 17.9147C33.8139 17.8899 33.785 17.8569 33.7602 17.828C33.6777 17.7372 33.7437 17.6753 33.8057 17.6133C33.8634 17.5514 33.9254 17.5473 33.9914 17.6051C34.1607 17.7496 34.3258 17.9023 34.495 18.0468C34.6973 18.2202 34.9037 18.3812 35.1019 18.5587C35.4775 18.8931 35.8573 19.2192 36.2123 19.5742C36.5632 19.9209 36.9017 20.2842 37.0875 20.7548C37.2196 21.0851 37.2444 21.4153 37.0916 21.7414C37.0173 21.9024 36.8604 21.985 36.7077 22.051C36.4187 22.1831 36.1215 22.1419 35.8325 22.0428C35.5972 21.9644 35.3867 21.857 35.2133 21.6878Z" fill="white"/>
<path d="M35.436 17.8653C35.5557 17.6052 35.7579 17.4937 36.0139 17.5185C36.1749 17.535 36.34 17.5845 36.4927 17.6423C36.7404 17.7332 36.9633 17.8818 37.1532 18.0634C37.4546 18.3482 37.7105 18.6702 37.789 19.0913C37.8468 19.4174 37.8302 19.7394 37.5908 19.9953C37.4092 20.1894 37.1656 20.243 36.9055 20.2059C36.8849 20.2018 36.8643 20.177 36.8436 20.1605C36.8643 20.144 36.8849 20.1109 36.9097 20.1068C37.0542 20.0738 37.1986 20.049 37.3431 20.016C37.5908 19.9582 37.7023 19.6032 37.628 19.3885C37.5454 19.1491 37.4174 18.9468 37.2441 18.7652C37.0913 18.6042 36.9386 18.4349 36.7693 18.2946C36.5464 18.1047 36.2987 17.9478 36.0221 17.8529C35.6712 17.729 35.4979 17.857 35.4525 18.2368C35.4442 18.3111 35.4277 18.3854 35.3988 18.4556C35.3864 18.4927 35.3492 18.5175 35.3204 18.5464C35.308 18.5423 35.2956 18.5381 35.2832 18.5381C35.275 18.4803 35.2584 18.4225 35.2584 18.3648C35.2626 18.2987 35.275 18.2327 35.3038 18.1749C35.3947 17.9602 35.2749 17.8033 35.1635 17.6506C34.9695 17.3864 34.6929 17.2419 34.3915 17.147C34.2305 17.0974 34.053 17.0438 33.8962 17.1759C33.8673 17.2006 33.8466 17.2337 33.826 17.2667C33.5783 17.7249 33.537 18.1914 33.8838 18.6166C34.0407 18.8106 34.2636 18.922 34.503 18.9798C34.5979 19.0046 34.6599 19.083 34.6392 19.1573C34.6186 19.2317 34.5278 19.2729 34.4328 19.2523C33.9952 19.1573 33.7393 18.8725 33.5989 18.4638C33.4627 18.0717 33.5205 17.696 33.6774 17.3286C33.7682 17.1222 33.8879 16.9364 34.0819 16.8043C34.3337 16.6351 34.5938 16.6722 34.8167 16.8415C35.1387 17.085 35.3162 17.4194 35.4071 17.8075C35.4194 17.8198 35.4236 17.8322 35.436 17.8653Z" fill="white"/>
<path d="M30.4993 8.01533C27.428 10.9851 27.4197 15.7909 30.4704 18.7726L41.6203 7.98739C38.5367 5.03762 33.5665 5.0456 30.4993 8.01533Z" fill="white"/>
<path d="M27.5889 18.79C27.7045 18.8932 27.8077 18.9882 27.915 19.079C27.981 19.1327 28.0595 19.1244 28.1131 19.0666C28.1585 19.0171 28.1503 18.9386 28.0966 18.8809C28.0099 18.7942 27.9274 18.6992 27.8324 18.6249C27.7251 18.5465 27.6962 18.4598 27.7499 18.3566C27.8655 18.4268 27.9852 18.5011 28.1049 18.5671C28.2329 18.6373 28.3773 18.6538 28.5136 18.6084C28.6539 18.563 28.7984 18.3194 28.7902 18.1749C28.7819 17.9974 28.7365 17.8323 28.6498 17.6837C28.5755 17.5599 28.4805 17.436 28.3732 17.3411C28.3154 17.2915 28.3072 17.2668 28.3361 17.209C28.3484 17.1883 28.3608 17.1636 28.3691 17.1471C28.4104 17.1801 28.4434 17.209 28.4805 17.2337C28.72 17.3947 28.9511 17.5722 29.2649 17.5557C29.3887 17.5475 29.4878 17.5103 29.558 17.4154C29.6901 17.2461 29.6694 17.0562 29.6158 16.8663C29.5538 16.6517 29.4217 16.47 29.269 16.3173C29.0089 16.0614 28.7282 15.8178 28.3938 15.6568C28.4805 15.4256 28.5012 15.1945 28.4351 14.9592C28.3815 14.7651 28.27 14.6042 28.1338 14.4555C27.9687 14.278 27.7829 14.1501 27.5476 14.0923C27.527 14.0881 27.5022 14.1088 27.4774 14.1212C27.4939 14.1377 27.5104 14.1625 27.5311 14.1707C27.6013 14.1996 27.6838 14.2079 27.7457 14.2491C27.9604 14.3812 28.1379 14.5505 28.2576 14.7693C28.3939 15.017 28.4269 15.277 28.3319 15.5495C28.3154 15.599 28.2948 15.6032 28.2494 15.5866C28.0265 15.5041 27.7994 15.4422 27.56 15.5041C27.3949 15.5454 27.2421 15.6114 27.1554 15.7683C27.0192 16.0242 27.2462 16.3049 27.5311 16.2967C27.7994 16.2884 28.0223 16.1728 28.1998 15.9706C28.2246 15.9417 28.2741 15.9086 28.2948 15.9169C28.3526 15.9417 28.4021 15.9871 28.4682 16.0325C28.2287 16.1068 28.0595 16.3503 28.0719 16.5774C28.0801 16.7384 28.1544 16.8746 28.2452 16.9984C28.3113 17.0934 28.3154 17.1305 28.237 17.2255C28.1998 17.2007 28.1586 17.176 28.1173 17.1512C27.9439 17.048 27.754 16.9778 27.5517 16.9737C27.4031 16.9695 27.271 17.0232 27.1885 17.1512C27.0646 17.3452 27.2132 17.5599 27.3907 17.6424C27.4485 17.6672 27.465 17.7002 27.4815 17.758C27.5228 17.886 27.56 18.014 27.626 18.1337C27.6756 18.2286 27.6838 18.3153 27.6467 18.4268C27.5724 18.3607 27.5022 18.2988 27.432 18.2369C27.2834 18.1048 27.1348 17.9727 26.9862 17.8406C26.9036 17.7663 26.8458 17.7704 26.7756 17.853C26.7055 17.9314 26.7096 17.9809 26.7922 18.0552C26.9944 18.2369 27.1967 18.4144 27.4031 18.596C27.4237 18.6125 27.4527 18.629 27.4609 18.6538C27.5352 18.8478 27.6054 19.0418 27.6879 19.2606C27.6384 19.2441 27.6136 19.24 27.5971 19.2276C27.4981 19.1533 27.3949 19.0831 27.2999 19.0047C27.0481 18.7983 26.8004 18.5836 26.5486 18.3772C26.5197 18.3525 26.4867 18.3318 26.4495 18.3194C26.4165 18.3112 26.3546 18.307 26.3422 18.3236C26.3174 18.3607 26.3009 18.4185 26.3133 18.4557C26.3339 18.5258 26.3711 18.596 26.4165 18.6621C26.5362 18.8396 26.6642 19.0129 26.7798 19.1946C26.9903 19.5248 27.2091 19.8468 27.3536 20.2142C27.4361 20.4206 27.4815 20.6229 27.4361 20.8376C27.4031 21.0027 27.2999 21.1389 27.1513 21.2091C26.9986 21.2793 26.821 21.2586 26.6518 21.2215C26.4536 21.1719 26.2803 21.0687 26.1275 20.9325C26.0986 20.9077 26.0573 20.8995 26.0202 20.883C26.0161 20.8954 26.0119 20.9036 26.0078 20.916C26.2638 21.1761 26.5651 21.3453 26.9408 21.3371C27.1967 21.3329 27.3783 21.2091 27.4733 20.9697C27.5847 20.7013 27.5435 20.4371 27.432 20.1853C27.3247 19.9459 27.1967 19.7189 27.0646 19.4959C26.9738 19.3432 26.8623 19.1987 26.7591 19.0501C26.7013 18.9634 26.6435 18.8767 26.5858 18.7942C26.6188 18.8024 26.6394 18.8272 26.6601 18.8437C26.8541 19.0088 27.0481 19.1781 27.2421 19.3391C27.3494 19.4258 27.4609 19.5042 27.5765 19.5826C27.6302 19.6157 27.7086 19.628 27.7375 19.5661C27.7994 19.4381 27.7664 19.2978 27.7292 19.1698C27.6879 19.0377 27.6384 18.9221 27.5889 18.79ZM27.4238 15.9788C27.3701 15.9293 27.3164 15.8756 27.2751 15.8137C27.2339 15.7559 27.2586 15.7105 27.3288 15.6898C27.5476 15.6197 27.754 15.6568 27.9563 15.7559C28.0306 15.7889 28.1008 15.8261 28.1751 15.8632C27.9975 16.1728 27.6425 16.1728 27.4238 15.9788ZM28.237 16.4948C28.2163 16.4659 28.2163 16.4123 28.2246 16.3751C28.2907 16.115 28.5012 16.0283 28.7282 16.2059C28.9429 16.371 29.1369 16.5609 29.3227 16.7549C29.4176 16.8581 29.4919 16.9861 29.5538 17.1182C29.6282 17.2833 29.5291 17.4071 29.3557 17.3658C29.2277 17.3328 29.1039 17.275 28.98 17.2172C28.9099 17.1842 28.8438 17.1388 28.7736 17.0975L28.7778 17.0934C28.6787 17.0026 28.5714 16.92 28.4805 16.8209C28.3856 16.7177 28.3113 16.6063 28.237 16.4948ZM27.5352 17.4278C27.5311 17.3906 27.5352 17.3493 27.5352 17.3122C27.5228 17.3122 27.5104 17.3122 27.4981 17.3081C27.4857 17.3989 27.4692 17.4856 27.4568 17.5764C27.2917 17.5475 27.1926 17.3989 27.238 17.2337C27.2586 17.1553 27.3288 17.1099 27.4114 17.1182C27.593 17.1388 27.7457 17.2214 27.8861 17.3328C27.9315 17.37 27.9728 17.4113 28.0471 17.4732C27.9521 17.5186 27.8696 17.5681 27.7829 17.597C27.5682 17.6672 27.5476 17.6466 27.5352 17.4278ZM27.6219 17.7787C27.6095 17.758 27.6054 17.7291 27.5971 17.7002C27.7746 17.6961 27.9232 17.6383 28.0636 17.5392C28.0842 17.5268 28.1338 17.531 28.1544 17.5475C28.2287 17.6053 28.303 17.6631 28.365 17.7332C28.4599 17.8447 28.5466 17.9562 28.6209 18.08C28.6581 18.1461 28.6663 18.2327 28.6787 18.307C28.6828 18.3277 28.6457 18.3731 28.625 18.3731C28.5342 18.3772 28.4351 18.3896 28.3484 18.3648C28.1874 18.3153 28.0347 18.2493 27.9067 18.1254C27.7911 18.0263 27.6879 17.919 27.6219 17.7787Z" fill="white"/>
<path d="M26.7544 20.5486C26.8741 20.4908 26.9401 20.4041 26.9236 20.2679C26.9236 20.2473 26.9278 20.2266 26.9278 20.206C26.9236 20.0615 26.9195 19.9253 26.8411 19.7932C26.7131 19.5703 26.5273 19.401 26.3251 19.2483C26.1847 19.1451 26.032 19.0543 25.8503 19.046C25.776 19.0419 25.6852 19.0501 25.6357 19.0914C25.5407 19.1698 25.4953 19.2896 25.5077 19.4175C25.516 19.5331 25.5366 19.6487 25.5531 19.7808C25.4829 19.7065 25.4293 19.6404 25.3673 19.5826C25.1857 19.401 25.0454 19.1905 24.9587 18.9469C24.905 18.7983 24.9256 18.6456 24.9793 18.5052C25.0536 18.3153 25.2063 18.1874 25.3797 18.0924C25.6852 17.9273 25.9824 17.7456 26.2549 17.531C26.4489 17.3824 26.5604 17.1884 26.5727 16.9489C26.5769 16.8499 26.5356 16.7549 26.4613 16.6806C26.4489 16.6847 26.4365 16.6889 26.4241 16.6889C26.4324 16.7219 26.4406 16.759 26.453 16.7921C26.4613 16.8168 26.4778 16.8375 26.4819 16.8622C26.5315 17.0439 26.4654 17.1925 26.354 17.3287C26.2425 17.4649 26.1021 17.5681 25.9494 17.6548C25.7471 17.7704 25.549 17.8901 25.355 18.014C25.1031 18.175 24.8678 18.3401 24.7977 18.6662C24.7357 18.9634 24.7812 19.2318 24.9339 19.4794C25.1114 19.7643 25.3343 20.0078 25.6068 20.2101C25.8049 20.3587 26.0072 20.4908 26.2425 20.5693C26.42 20.6312 26.5893 20.6271 26.7544 20.5486ZM25.6026 19.5744C25.582 19.5166 25.5861 19.4464 25.5903 19.3804C25.5944 19.3061 25.6398 19.2648 25.7224 19.273C25.8462 19.2813 25.9535 19.3432 26.0526 19.4093C26.1888 19.5001 26.3168 19.5992 26.4902 19.723C26.5769 19.8345 26.6966 19.9707 26.7998 20.1234C26.8369 20.1812 26.8328 20.272 26.8287 20.3505C26.8287 20.3711 26.7709 20.4165 26.742 20.4124C26.6181 20.3959 26.4902 20.3711 26.3705 20.334C26.1352 20.2597 25.9329 20.1234 25.776 19.9418C25.6811 19.851 25.6481 19.7024 25.6026 19.5744Z" fill="white"/>
<path d="M30.4006 15.7067C30.3303 15.5291 30.2106 15.3721 30.0453 15.2606C29.9875 15.2234 29.9875 15.178 29.9917 15.1202C29.9917 15.0665 29.9793 15.0128 29.971 14.9591C29.9586 14.9591 29.9462 14.9591 29.9338 14.9591C29.9256 15.0334 29.9132 15.1078 29.9049 15.1697C29.814 15.1449 29.7438 15.1243 29.6695 15.1036C29.5167 15.0623 29.3762 15.083 29.2482 15.1739C29.0664 15.2978 29.1614 15.5745 29.2895 15.6447C29.4588 15.7315 29.6777 15.6902 29.8347 15.5249C29.9214 15.6199 30.0123 15.7067 30.0867 15.8058C30.1817 15.9339 30.2725 16.0702 30.351 16.2106C30.3758 16.256 30.3758 16.3386 30.3469 16.3758C30.3221 16.4047 30.2312 16.4171 30.1899 16.3965C29.9917 16.2973 29.7851 16.2023 29.6075 16.0702C29.4093 15.9256 29.2234 15.7563 29.0995 15.5332C29.0004 15.3597 28.9508 15.1821 28.9921 14.9797C28.9962 14.9549 28.9962 14.9302 29.0004 14.9054C28.9921 14.9013 28.9838 14.8971 28.9756 14.8971C28.959 14.926 28.9343 14.955 28.9219 14.988C28.8764 15.1202 28.8971 15.2523 28.9136 15.3845C28.9508 15.7439 29.1243 16.033 29.3762 16.2767C29.5373 16.4336 29.7356 16.5369 29.9545 16.5989C30.1073 16.6443 30.3304 16.5782 30.4171 16.4171C30.5493 16.1734 30.4914 15.938 30.4006 15.7067ZM29.4423 15.5993C29.3473 15.591 29.2482 15.5497 29.2317 15.4299C29.2234 15.3845 29.2358 15.3308 29.2606 15.2936C29.2771 15.273 29.3391 15.2647 29.3721 15.2771C29.4712 15.3184 29.5662 15.3721 29.6612 15.4217C29.686 15.4341 29.7108 15.4547 29.7397 15.4754C29.6695 15.5993 29.5497 15.6076 29.4423 15.5993Z" fill="white"/>
<path d="M23.0432 23.9005C28.5354 23.9005 32.9877 19.4481 32.9877 13.9559C32.9877 8.46368 28.5354 4.01135 23.0432 4.01135C17.551 4.01135 13.0986 8.46368 13.0986 13.9559C13.0986 19.4481 17.551 23.9005 23.0432 23.9005Z" fill="white"/>
<path d="M22.9644 23.2855C28.1169 23.2855 32.2938 19.1086 32.2938 13.9561C32.2938 8.80354 28.1169 4.62659 22.9644 4.62659C17.8118 4.62659 13.6349 8.80354 13.6349 13.9561C13.6349 19.1086 17.8118 23.2855 22.9644 23.2855Z" fill="#A70230"/>
<path d="M31.0802 12.2305C31.072 12.2058 31.0431 12.1851 31.0224 12.1645C31.0142 12.1686 31.0059 12.1769 30.9935 12.181C31.0142 12.2718 31.0431 12.3585 31.0596 12.4493C31.0967 12.6764 31.0431 12.8952 30.9729 13.1057C30.9192 13.2626 30.8119 13.3905 30.655 13.469C30.5105 13.5433 30.3784 13.5268 30.2298 13.4979C29.8872 13.4277 29.59 13.2791 29.3175 13.0644C29.2928 13.0438 29.268 13.0025 29.2721 12.9777C29.2845 12.8828 29.3051 12.792 29.3299 12.7011C29.4083 12.3874 29.4001 12.0778 29.2473 11.793C29.0905 11.5081 28.7726 11.5081 28.5827 11.7352C28.4713 11.8755 28.4176 12.053 28.4382 12.2347C28.4754 12.6021 28.6116 12.9282 28.8758 13.1883C28.9254 13.2378 28.9873 13.2832 28.8841 13.3534C28.8469 13.3162 28.8056 13.2832 28.7685 13.2461C28.591 13.0685 28.3887 12.9364 28.141 12.8828C27.8438 12.8167 27.6745 12.953 27.625 13.18C27.592 13.3369 27.7489 13.6052 27.9016 13.6795C28.1286 13.791 28.3639 13.7662 28.5868 13.6754C28.657 13.6465 28.6983 13.6465 28.7478 13.7001C28.8056 13.7621 28.8634 13.8199 28.913 13.8859C29.0079 14.0139 29.107 14.1418 29.1854 14.2822C29.2308 14.3606 29.2515 14.468 29.1896 14.5464C29.1276 14.629 29.0244 14.6331 28.9295 14.6001C28.8139 14.5629 28.6942 14.5216 28.5868 14.468C28.3515 14.3483 28.1328 14.1996 27.9676 13.985C27.8768 13.8694 27.7736 13.7621 27.6828 13.6506C27.4846 13.407 27.3608 13.1346 27.4104 12.8085C27.4145 12.7672 27.4021 12.7177 27.3938 12.6764C27.3773 12.6764 27.3608 12.6764 27.3402 12.6764C27.3278 12.7755 27.3071 12.8745 27.2989 12.9736C27.2617 13.4029 27.3691 13.7992 27.6333 14.1336C27.8273 14.3813 28.0502 14.6083 28.335 14.7611C28.5745 14.8849 28.8222 14.9716 29.0864 14.823C29.1483 14.79 29.2019 14.7322 29.2391 14.6744C29.3877 14.4473 29.3299 14.2079 29.2391 13.9809C29.173 13.824 29.0822 13.6754 28.9997 13.5268C28.9708 13.4772 28.9584 13.4277 29.0162 13.4029C29.0451 13.3905 29.0987 13.407 29.1318 13.4277C29.1896 13.4607 29.2391 13.5103 29.2969 13.5474C29.5446 13.7084 29.7964 13.8529 30.1101 13.8364C30.3867 13.8199 30.622 13.7084 30.8119 13.5185C30.9605 13.3699 31.0678 13.18 31.1132 12.9612C31.1628 12.7177 31.171 12.4741 31.0802 12.2305ZM28.0461 13.6341C27.9346 13.5722 27.8438 13.4607 27.7571 13.3616C27.7323 13.3369 27.7365 13.2461 27.7571 13.2295C27.7984 13.1965 27.8768 13.1676 27.9181 13.1883C28.0915 13.2626 28.2607 13.3493 28.43 13.4401C28.4919 13.4731 28.5414 13.5185 28.6075 13.568C28.4093 13.6424 28.2277 13.7332 28.0461 13.6341ZM29.1937 12.7961C29.1813 12.8332 29.173 12.8745 29.1648 12.9282C28.9171 12.6516 28.6653 12.3957 28.5786 12.0324C28.5662 11.9705 28.5992 11.8962 28.6199 11.8301C28.624 11.8136 28.6777 11.7971 28.6942 11.8095C28.7809 11.859 28.8676 11.9127 28.9419 11.9787C29.0038 12.0365 29.0451 12.115 29.0987 12.181C29.2473 12.3668 29.268 12.5732 29.1937 12.7961Z" fill="white"/>
<path d="M27.1058 14.0056C26.7797 13.8405 26.3999 14.0015 26.3587 14.3937C26.3463 14.4969 26.338 14.6001 26.3298 14.7033C26.3256 14.6991 26.3215 14.6991 26.3174 14.695C26.1853 14.5588 26.0532 14.4226 25.9252 14.2822C25.9087 14.2616 25.9128 14.2079 25.9252 14.179C25.9913 13.9891 26.0862 13.8075 26.1233 13.6093C26.1522 13.4607 26.1151 13.3038 26.0986 13.147C26.0614 12.8085 25.888 12.5484 25.6197 12.3503C25.3968 12.1851 25.1326 12.3255 25.0459 12.5113C24.9303 12.7631 24.9551 13.0314 25.0253 13.2791C25.1409 13.6878 25.339 14.0634 25.6197 14.3937C25.6073 14.4102 25.595 14.4308 25.5826 14.4391C25.3473 14.5918 25.1161 14.7528 24.8725 14.889C24.6992 14.9881 24.5093 15.0583 24.3235 15.1408C24.1171 15.2317 23.9933 15.3844 23.9891 15.6114C23.9891 15.7394 24.0056 15.8674 24.0345 15.9912C24.0428 16.0284 24.1047 16.0531 24.1419 16.082C24.1625 16.0366 24.2079 15.9871 24.2038 15.9458C24.1955 15.8591 24.146 15.7724 24.1377 15.6857C24.1295 15.5908 24.1171 15.4711 24.1625 15.3968C24.2533 15.2482 24.4102 15.1697 24.5836 15.1119C24.7817 15.0459 24.9757 14.9592 25.1574 14.856C25.3473 14.7487 25.5165 14.6124 25.6982 14.4886C25.822 14.6248 25.9458 14.7776 26.0903 14.9055C26.3628 15.1532 26.6476 15.3927 26.9325 15.628C27.1678 15.822 27.432 15.9747 27.7416 16.0077C28.0347 16.0366 28.2658 15.8261 28.2163 15.5289C28.1668 15.2399 28.0883 14.9592 27.9149 14.7074C27.7085 14.3978 27.4361 14.1707 27.1058 14.0056ZM25.6693 13.9478C25.5248 13.7084 25.3679 13.4731 25.2399 13.2254C25.1698 13.0892 25.1409 12.9282 25.0996 12.7754C25.079 12.6929 25.0748 12.5938 25.1615 12.5401C25.2565 12.4782 25.3514 12.5154 25.4257 12.5897C25.5578 12.7177 25.7023 12.8374 25.8096 12.9819C25.9252 13.1428 25.983 13.3369 26.0036 13.5391C26.0243 13.7621 25.9417 13.9519 25.8137 14.1666C25.7559 14.084 25.7105 14.018 25.6693 13.9478ZM28.1007 15.5619C28.1213 15.7394 28.0223 15.8013 27.8571 15.7435C27.4196 15.5867 27.0604 15.3183 26.7054 15.0253C26.499 14.8519 26.4577 14.6496 26.4577 14.4143C26.4577 14.2905 26.5238 14.2409 26.6435 14.2657C26.8829 14.3194 27.1058 14.4143 27.304 14.5629C27.4072 14.6372 27.5104 14.7115 27.6301 14.7982C27.7911 14.9964 27.9934 15.1862 28.0759 15.4628C28.0842 15.4959 28.0966 15.5289 28.1007 15.5619Z" fill="white"/>
<path d="M24.1905 19.0625C24.0378 18.885 23.8603 18.7281 23.6951 18.563C23.5094 18.3814 23.3318 18.1956 23.142 18.0181C22.8076 17.7085 22.4732 17.3948 22.209 17.0232C22.1595 16.9572 22.1017 16.8953 22.0439 16.8375C22.0026 16.7962 21.9655 16.7838 21.9077 16.8292C21.8168 16.8994 21.8045 17.015 21.8911 17.1306C22.0274 17.3081 22.1719 17.4856 22.3163 17.659C22.3576 17.7085 22.4113 17.7415 22.4567 17.7869C22.6961 18.0264 22.9314 18.2658 23.1709 18.5094C23.336 18.6745 23.5052 18.8355 23.6621 19.013C23.8933 19.2689 24.1203 19.5331 24.3432 19.8014C24.5166 20.012 24.6859 20.2308 24.8427 20.4537C25.0037 20.6807 25.0202 20.949 24.9872 21.2174C24.9624 21.4362 24.8551 21.6054 24.6859 21.754C24.5373 21.882 24.3639 21.9439 24.1822 21.9398C23.8479 21.9315 23.5713 21.7623 23.3195 21.5517C23.1089 21.3742 22.9356 21.1637 22.8365 20.9078C22.7539 20.6931 22.6961 20.4702 22.6425 20.2473C22.6136 20.1276 22.7085 20.0202 22.8282 20.0285C22.9686 20.0367 23.1213 20.045 23.241 20.1069C23.4392 20.206 23.6291 20.3381 23.8066 20.4743C23.918 20.5569 24.0047 20.6725 24.0997 20.7757C24.1781 20.8582 24.24 20.8582 24.2896 20.7633C24.3309 20.6849 24.3019 20.5239 24.24 20.4619C24.1905 20.4124 24.141 20.367 24.0873 20.3216L24.0914 20.3133C23.9965 20.2431 23.9098 20.1606 23.8107 20.0987C23.5795 19.9583 23.3442 19.8138 23.0718 19.7849C22.7457 19.7478 22.6507 19.7891 22.564 20.0904C22.498 20.3298 22.5723 20.5528 22.6548 20.7674C22.8158 21.1802 23.0718 21.5229 23.4474 21.7747C23.7282 21.9646 24.0212 22.0884 24.368 22.0223C24.6033 21.9769 24.8262 21.8903 24.9624 21.688C25.3092 21.1678 25.2968 20.5321 24.9583 19.9996C24.7437 19.6487 24.4547 19.368 24.1905 19.0625Z" fill="white"/>
<path d="M27.0432 17.403C26.9069 17.2792 26.7872 17.1347 26.651 16.9943C26.7088 17.0067 26.7583 17.0232 26.8079 17.0232C27.0844 17.0315 27.2 17.0274 27.2578 16.7549C27.2785 16.6641 27.262 16.565 27.2496 16.4701C27.2124 16.1894 27.0432 15.9788 26.8574 15.7889C26.7047 15.6321 26.5395 15.4876 26.362 15.3637C26.1845 15.2399 25.9946 15.1367 25.7758 15.0872C25.5447 15.0376 25.3837 15.1491 25.363 15.3844C25.3506 15.5247 25.3383 15.6651 25.3259 15.8054C25.2681 15.76 25.2062 15.7146 25.1442 15.6733C25.1277 15.661 25.0988 15.6486 25.0782 15.6568C24.9378 15.6899 24.8924 15.8343 24.9915 15.9375C25.008 15.9582 25.0287 15.9747 25.0493 15.9912C25.4951 16.404 25.9451 16.8127 26.3827 17.2379C26.6758 17.5227 26.9565 17.82 27.2289 18.1213C27.3858 18.2947 27.5427 18.4804 27.6624 18.6827C27.7903 18.9056 27.8977 19.1451 27.972 19.3886C28.0463 19.6322 27.8812 19.8757 27.6252 19.9212C27.3486 19.9666 27.1133 19.8923 26.878 19.7684C26.7996 19.7271 26.7294 19.6693 26.6345 19.6033C26.6469 19.7395 26.7294 19.7849 26.812 19.8345C27.0555 19.9872 27.3239 20.0532 27.6046 20.0409C27.9225 20.0285 28.133 19.7684 28.1784 19.4423C28.2238 19.1203 28.1165 18.819 27.9596 18.5465C27.7078 18.1254 27.4106 17.7374 27.0432 17.403ZM26.3579 16.7343C26.168 16.5691 25.9905 16.3958 25.8089 16.2265C25.7346 16.1563 25.6396 16.0985 25.5818 16.016C25.4704 15.8591 25.4415 15.6734 25.4621 15.4835C25.4704 15.4009 25.5529 15.3968 25.6025 15.4174C25.7841 15.4876 25.9657 15.5619 26.135 15.6527C26.2464 15.7146 26.3414 15.8096 26.4405 15.888C26.4487 15.8839 26.4528 15.8798 26.4611 15.8756C26.6551 16.1233 26.8533 16.371 27.0432 16.6187C27.0721 16.66 27.0844 16.7136 27.0968 16.7632C27.1257 16.8581 27.0803 16.9159 26.9895 16.92C26.7583 16.9365 26.5395 16.8911 26.3579 16.7343Z" fill="white"/>
<path d="M26.8042 18.4558C26.7835 18.2989 26.7257 18.1462 26.6844 17.9935C26.6638 17.9976 26.639 18.0017 26.6184 18.0058C26.6308 18.0678 26.6349 18.1256 26.6514 18.1875C26.7051 18.398 26.7422 18.6044 26.7092 18.8232C26.6721 19.075 26.4491 19.2567 26.2634 19.2525C26.0405 19.2443 25.8299 19.1906 25.6318 19.0874C25.2231 18.8645 24.864 18.5673 24.5172 18.2618C24.1044 17.8985 23.7081 17.5105 23.3035 17.1348C23.1632 17.0068 23.027 16.8747 22.8866 16.7468C22.8164 16.6807 22.7339 16.656 22.6513 16.7179C22.5646 16.7798 22.5564 16.8665 22.6224 16.9656C22.6678 17.0316 22.7174 17.0935 22.7751 17.1431C22.9485 17.2999 23.1343 17.4527 23.3077 17.6096C23.7535 18.0224 24.1952 18.4393 24.641 18.848C24.7277 18.9305 24.8392 18.9842 24.9341 19.0626C25.1983 19.2856 25.4873 19.4548 25.8134 19.5704C26.2551 19.7231 26.5276 19.4507 26.7175 19.1287C26.8372 18.9264 26.8331 18.6829 26.8042 18.4558Z" fill="white"/>
<path d="M24.9458 16.2058C24.8633 16.1068 24.6692 16.0283 24.5413 16.0613C24.3018 16.1233 24.2151 16.3214 24.1739 16.5278C24.1202 16.8003 24.1408 17.0727 24.3307 17.3039C24.372 17.3534 24.4009 17.4112 24.4463 17.4566C24.6156 17.6383 24.789 17.8158 24.9706 18.0057C24.9541 18.0635 24.8179 18.0965 24.8798 18.241C24.9458 18.1708 24.9995 18.113 25.0573 18.0511C25.0821 18.0676 25.1027 18.08 25.1233 18.0924C25.1481 18.1089 25.1729 18.1213 25.2018 18.1378C25.4412 18.2864 25.6889 18.4102 25.9737 18.4144C26.1677 18.4185 26.3205 18.2946 26.3287 18.0841C26.337 17.8612 26.2668 17.6589 26.1884 17.4566C26.1554 17.3741 26.1058 17.3039 26.0604 17.2255C26.048 17.2296 26.0315 17.2378 26.0191 17.242C26.0233 17.2709 26.0274 17.2956 26.0356 17.3245C26.0852 17.4773 26.143 17.6259 26.1925 17.7786C26.2503 17.9644 26.1388 18.0181 25.9902 17.9933C25.7343 17.9561 25.5114 17.8323 25.2967 17.6919C25.2719 17.6754 25.2596 17.63 25.2554 17.597C25.2554 17.4443 25.2637 17.2915 25.2637 17.1429C25.2554 16.7961 25.177 16.4783 24.9458 16.2058ZM25.144 17.5722C24.8509 17.3452 24.6197 17.0975 24.4505 16.8003C24.3844 16.6847 24.3803 16.5278 24.3638 16.3916C24.3555 16.3173 24.467 16.2677 24.5413 16.3173C24.661 16.3998 24.7807 16.4907 24.8798 16.6021C25.0614 16.8003 25.1357 17.0521 25.1522 17.3122C25.1605 17.3906 25.1481 17.4731 25.144 17.5722Z" fill="white"/>
<path d="M22.197 18.7118C22.1185 18.7324 22.0318 18.7407 21.9534 18.7324C21.7429 18.7118 21.5777 18.6086 21.4167 18.4641C21.198 18.2618 21.0287 18.0389 20.9503 17.7499C20.9049 17.5724 20.8925 17.3784 20.9833 17.2339C21.1154 17.0193 21.2805 16.817 21.4704 16.656C21.7057 16.462 21.974 16.3092 22.2382 16.1524C22.4983 15.9996 22.7707 15.8675 23.0391 15.7313C23.3734 15.5621 23.6789 15.3556 23.9266 15.0708C23.9885 15.0048 24.0505 14.947 24.1041 14.8768C24.2404 14.7034 24.3683 14.5259 24.422 14.2989C24.4633 14.1255 24.4426 13.9604 24.4096 13.7911C24.3807 13.6384 24.3023 13.5269 24.1908 13.4361C24.1702 13.4196 24.1206 13.4154 24.1041 13.432C24.0794 13.4526 24.0587 13.498 24.067 13.5269C24.0752 13.5599 24.1165 13.5847 24.1454 13.6095C24.2527 13.7044 24.3436 13.8117 24.3601 13.9645C24.3931 14.2493 24.2734 14.4846 24.1124 14.6993C23.9101 14.9717 23.6872 15.2359 23.3858 15.4134C23.134 15.5621 22.8781 15.7148 22.6221 15.8593C22.3827 15.9914 22.1392 16.1152 21.8997 16.2432C21.4622 16.4744 21.1195 16.817 20.8347 17.2133C20.7686 17.3041 20.7274 17.4238 20.7026 17.5353C20.6448 17.7871 20.6572 18.0389 20.7645 18.2742C20.8264 18.4063 20.9049 18.5384 21.0039 18.6457C21.0865 18.7407 21.198 18.8109 21.3012 18.881C21.6025 19.0833 21.974 19.1081 22.2878 18.9553C22.3621 18.9182 22.3951 18.8521 22.3662 18.782C22.3373 18.72 22.2795 18.687 22.197 18.7118Z" fill="white"/>
<path d="M17.4126 7.92077C14.3454 10.9879 14.3371 15.9581 17.3837 19.0377L28.5336 7.88774C25.45 4.84122 20.4839 4.84947 17.4126 7.92077Z" fill="white"/>
<path d="M9.94457 23.9005C15.4368 23.9005 19.8891 19.4481 19.8891 13.9559C19.8891 8.46368 15.4368 4.01135 9.94457 4.01135C4.45234 4.01135 0 8.46368 0 13.9559C0 19.4481 4.45234 23.9005 9.94457 23.9005Z" fill="white"/>
<path d="M10.7213 13.5061H19.1963C19.0807 11.0252 17.9909 8.80011 16.2984 7.20255L10.7213 13.5061Z" fill="#A70230"/>
<path d="M9.59005 12.9777V4.66791C7.50124 4.74221 5.58581 5.49765 4.0708 6.73608L9.59005 12.9777Z" fill="#A70230"/>
<path d="M9.59004 23.2277V14.7858L4.00061 21.1059C5.528 22.3732 7.4682 23.1534 9.59004 23.2277Z" fill="#A70230"/>
<path d="M10.2504 4.66791V12.9777L15.7696 6.73608C14.2546 5.49765 12.3392 4.74221 10.2504 4.66791Z" fill="#A70230"/>
<path d="M10.7213 14.2575L16.3644 20.6354C18.0487 19.0089 19.122 16.7591 19.2045 14.2575H10.7213Z" fill="#A70230"/>
<path d="M9.11959 14.2575H0.640503C0.723065 16.7591 1.79224 19.013 3.48063 20.6354L9.11959 14.2575Z" fill="#A70230"/>
<path d="M10.2504 14.7858V23.2277C12.3681 23.1534 14.3124 22.3732 15.8398 21.1059L10.2504 14.7858Z" fill="#A70230"/>
<path d="M9.11926 13.5061L3.54221 7.20255C1.8497 8.80424 0.764002 11.0293 0.644287 13.5061H9.11926Z" fill="#A70230"/>
<path fill-rule="evenodd" clip-rule="evenodd" d="M2.78337 10.0922C2.77924 10.0963 2.77511 10.1005 2.76686 10.1046C2.43661 10.4018 2.21782 10.8394 2.01554 11.2481C1.91647 11.4462 1.8339 11.6609 1.82152 11.8838C1.81739 11.9952 1.81327 12.1026 1.84217 12.2099C1.89996 12.4452 2.25084 12.7342 2.48202 12.664C2.82052 12.5649 2.96087 12.1604 3.08885 11.8631C3.31176 11.3389 3.53055 10.8311 4.0218 10.5298C4.09197 10.4885 4.32727 10.3358 4.44286 10.5628C4.45937 10.6 4.47176 10.6784 4.47589 10.7321C4.48827 10.9426 4.43048 11.0953 4.34379 11.2728C4.21582 11.537 3.86493 12.3626 3.85668 12.5236C3.84429 12.6846 3.84429 12.8002 3.99703 12.8787C4.18692 12.9777 4.4181 12.8539 4.57909 12.7466C4.92998 12.5154 5.17766 12.1439 5.58221 11.9911C5.69367 11.9498 5.97025 11.859 6.06932 11.9457C6.18078 12.0407 6.04456 12.2347 6.0074 12.3337C5.92897 12.5443 5.86292 12.8167 6.15189 12.858C6.37068 12.8869 6.58121 12.73 6.7711 12.6434C6.89082 12.5897 7.07245 12.4741 7.1963 12.5608C7.32014 12.6434 7.19629 12.6434 7.21693 12.7466C7.2417 12.8539 7.33251 12.8002 7.38205 12.7548C7.50177 12.6434 7.41096 12.5154 7.2995 12.4287C7.15089 12.3172 7.04768 12.3833 6.90732 12.4617C6.7422 12.5567 6.25921 12.7218 6.31288 12.3379C6.34178 12.1315 6.49039 11.9498 6.46975 11.7269C6.44911 11.4792 6.20143 11.2563 5.97025 11.2976C5.74321 11.3389 5.54093 11.5123 5.38406 11.6733C5.29737 11.7599 5.22307 11.8673 5.1405 11.9498C5.0373 12.0572 4.9341 12.148 4.83915 12.2594C4.76072 12.3503 4.62037 12.4824 4.49652 12.4081C4.3603 12.3255 4.38919 12.1191 4.41809 11.987C4.48827 11.6567 4.65751 11.3554 4.7731 11.0499C4.9052 10.7114 5.0662 10.4018 4.91346 10.0385C4.83503 9.84864 4.64927 9.61747 4.43461 9.64224C4.2282 9.667 4.00528 9.88579 3.8608 10.0261C3.70806 10.1748 3.60486 10.3646 3.46863 10.5215C3.29938 10.7197 3.2292 10.988 3.11775 11.2192C3.04757 11.3719 2.96088 11.5205 2.87419 11.6691C2.80814 11.7806 2.6843 12.0118 2.52743 11.9044C2.42836 11.8343 2.44073 11.6031 2.4655 11.4957C2.53155 11.1779 2.66365 10.8229 2.83291 10.5422C2.9196 10.3977 2.99803 10.2614 3.10536 10.1541C3.21682 10.0385 3.3324 9.94359 3.44799 9.82387C3.66678 9.59683 3.74108 9.24594 3.60486 8.94459C3.53881 8.80011 3.42735 8.61847 3.2581 8.61434C3.10123 8.61022 2.96501 8.7547 2.92786 8.89505C2.8907 9.02302 2.90722 9.26658 3.04344 9.32438C3.11362 9.35327 3.19617 9.3285 3.2292 9.25832C3.27874 9.13861 3.17141 9.18815 3.17141 9.0932C3.16728 8.96936 3.31589 9.0189 3.35717 9.08082C3.39019 9.13035 3.3902 9.22117 3.38607 9.28309C3.37368 9.59683 2.97739 9.91469 2.78337 10.0922Z" fill="white"/>
<path fill-rule="evenodd" clip-rule="evenodd" d="M13.3719 6.35205C13.3678 6.34792 13.3636 6.33966 13.3595 6.33554C13.0705 5.99703 12.6495 5.77412 12.2573 5.56771C12.0674 5.46864 11.861 5.38608 11.6505 5.37782C11.5473 5.37369 11.4399 5.37369 11.3409 5.40672C11.1179 5.47277 10.8538 5.8443 10.9239 6.09198C11.023 6.44287 11.411 6.58735 11.6959 6.71532C12.1995 6.93824 12.6866 7.15703 12.9797 7.67304C13.021 7.74734 13.1696 7.9909 12.9549 8.11887C12.9219 8.13951 12.8476 8.1519 12.7981 8.15602C12.5999 8.17254 12.4513 8.11474 12.2821 8.02805C12.0261 7.89596 11.2377 7.5492 11.0849 7.53681C10.9322 7.52855 10.8249 7.52855 10.7505 7.69368C10.6597 7.89595 10.7836 8.13951 10.8868 8.30463C11.1138 8.66791 11.473 8.91972 11.6216 9.34491C11.6629 9.4605 11.7537 9.74947 11.6752 9.8568C11.5885 9.97651 11.4028 9.83615 11.3078 9.80313C11.1056 9.72469 10.8496 9.65865 10.8166 9.96825C10.7918 10.1994 10.9487 10.4182 11.0354 10.6164C11.0891 10.7443 11.2005 10.9301 11.1221 11.0622C11.0436 11.1943 11.0436 11.0622 10.9446 11.087C10.8414 11.1159 10.8992 11.2108 10.9404 11.2603C11.0478 11.3842 11.1675 11.2851 11.2459 11.1654C11.3491 11.0044 11.2831 10.8971 11.2046 10.7526C11.1097 10.5792 10.9446 10.0756 11.312 10.1251C11.5101 10.1499 11.6835 10.3026 11.894 10.2779C12.1293 10.249 12.3357 9.98476 12.2903 9.74121C12.2449 9.50178 12.0798 9.29538 11.9229 9.13438C11.8362 9.04769 11.7372 8.96925 11.6546 8.88669C11.5514 8.77936 11.4647 8.67616 11.3574 8.57709C11.2666 8.49453 11.1427 8.35417 11.2088 8.21795C11.2831 8.07346 11.4771 8.09823 11.6051 8.12713C11.9188 8.19318 12.2119 8.36243 12.5009 8.48214C12.8228 8.61424 13.1201 8.77524 13.4627 8.61011C13.6402 8.52342 13.859 8.32527 13.826 8.0941C13.7971 7.87531 13.5865 7.64827 13.4503 7.49553C13.3058 7.33866 13.1242 7.23133 12.9715 7.09098C12.7816 6.9176 12.5256 6.84742 12.3027 6.73596C12.1582 6.66166 12.0137 6.57909 11.8734 6.48828C11.7661 6.4181 11.5431 6.29426 11.6422 6.12501C11.7041 6.01768 11.9271 6.02593 12.0303 6.0507C12.3357 6.11675 12.6742 6.24472 12.9426 6.4181C13.0788 6.50479 13.2109 6.58735 13.3141 6.69881C13.4255 6.8144 13.5205 6.93411 13.6361 7.05383C13.859 7.28087 14.1934 7.35105 14.4741 7.20244C14.6103 7.12813 14.7796 7.00842 14.7796 6.83091C14.7796 6.66579 14.6433 6.52543 14.503 6.48828C14.3791 6.45525 14.148 6.47589 14.0984 6.61625C14.0695 6.69055 14.0943 6.77724 14.1645 6.81027C14.2759 6.8598 14.2305 6.74835 14.3213 6.74422C14.4369 6.74009 14.3956 6.89283 14.3379 6.93824C14.2924 6.97126 14.2016 6.97539 14.1438 6.97539C13.859 6.96713 13.5453 6.55433 13.3719 6.35205Z" fill="white"/>
<path fill-rule="evenodd" clip-rule="evenodd" d="M17.0371 17.5682C17.0413 17.564 17.0454 17.5599 17.0495 17.5558C17.3633 17.242 17.5614 16.7921 17.7513 16.3751C17.8421 16.1729 17.9164 15.9541 17.9164 15.7312C17.9164 15.6197 17.9123 15.5124 17.8834 15.405C17.8132 15.1739 17.4541 14.9014 17.2229 14.984C16.8926 15.0996 16.7647 15.5124 16.6532 15.8137C16.4551 16.3504 16.2611 16.8664 15.7822 17.1925C15.7161 17.2379 15.485 17.3989 15.3611 17.1801C15.3405 17.1471 15.324 17.0687 15.3199 17.015C15.2992 16.8086 15.3488 16.6476 15.4272 16.4659C15.5428 16.1935 15.8565 15.3555 15.8606 15.1904C15.8648 15.0294 15.8606 14.9138 15.7038 14.8436C15.5097 14.7528 15.2827 14.889 15.1258 15.0046C14.7873 15.2523 14.5562 15.6362 14.1599 15.8096C14.0525 15.855 13.7801 15.9623 13.6727 15.8798C13.5572 15.7889 13.6851 15.5908 13.714 15.4917C13.7842 15.2771 13.8379 15.0046 13.5448 14.9757C13.326 14.9551 13.1196 15.1285 12.9338 15.2234C12.8141 15.2853 12.6407 15.405 12.5127 15.3266C12.3848 15.2482 12.5128 15.244 12.4839 15.1408C12.455 15.0335 12.3641 15.0954 12.3187 15.1408C12.2073 15.2605 12.3022 15.3803 12.4178 15.4587C12.5705 15.5619 12.6737 15.4917 12.8058 15.405C12.9668 15.3018 13.4416 15.1119 13.4044 15.5C13.3838 15.7064 13.2434 15.8963 13.2764 16.1192C13.3095 16.3669 13.5654 16.5774 13.7925 16.5237C14.0195 16.4701 14.2094 16.2884 14.358 16.1192C14.4406 16.0284 14.5108 15.9169 14.5892 15.8302C14.6883 15.7188 14.7832 15.6238 14.874 15.5082C14.9483 15.4133 15.0804 15.2729 15.2084 15.3431C15.3488 15.4174 15.3281 15.6238 15.3075 15.76C15.2497 16.0944 15.0969 16.404 14.9937 16.7136C14.8781 17.0563 14.7295 17.3741 14.8988 17.7333C14.9855 17.919 15.1795 18.142 15.3983 18.1048C15.6047 18.0676 15.8152 17.8406 15.9556 17.692C16.1001 17.5351 16.195 17.3411 16.323 17.176C16.484 16.9696 16.5418 16.7013 16.6408 16.4618C16.7069 16.305 16.7853 16.1522 16.8637 15.9995C16.9257 15.8839 17.0413 15.6445 17.2023 15.7477C17.3055 15.8137 17.3013 16.0449 17.2848 16.1522C17.2312 16.4742 17.1156 16.8375 16.9628 17.1264C16.8844 17.2751 16.8101 17.4154 16.7069 17.5269C16.5996 17.6466 16.4881 17.7498 16.3808 17.8736C16.1702 18.1131 16.1124 18.4681 16.2611 18.7612C16.3354 18.9015 16.4551 19.079 16.6243 19.0749C16.7812 19.0708 16.9092 18.9222 16.9422 18.7777C16.9711 18.6497 16.9463 18.4061 16.8101 18.3525C16.7399 18.3236 16.6573 18.3525 16.6284 18.4309C16.583 18.5506 16.6862 18.497 16.6945 18.5919C16.7028 18.7158 16.5541 18.6745 16.5129 18.6167C16.4798 18.5671 16.4757 18.4763 16.4757 18.4144C16.4675 18.0965 16.8472 17.758 17.0371 17.5682Z" fill="white"/>
<path fill-rule="evenodd" clip-rule="evenodd" d="M6.81163 21.4279C6.81576 21.432 6.81989 21.4361 6.82815 21.4403C7.15014 21.7457 7.58771 21.9233 8.00052 22.0884C8.19867 22.1668 8.41334 22.2287 8.62387 22.2122C8.72707 22.204 8.83027 22.1916 8.92934 22.1503C9.144 22.0595 9.37105 21.6591 9.2761 21.4238C9.13987 21.0852 8.74359 20.982 8.44636 20.8871C7.9221 20.7178 7.41847 20.5527 7.07584 20.0739C7.0263 20.0078 6.85705 19.7766 7.0552 19.628C7.08823 19.6033 7.1584 19.5826 7.20794 19.5702C7.40196 19.5331 7.5547 19.5744 7.73633 19.6445C8.00466 19.7478 8.82202 20.0078 8.97476 20.0037C9.1275 19.9954 9.23482 19.983 9.29262 19.8138C9.36279 19.6033 9.21831 19.3762 9.09446 19.2194C8.83439 18.8809 8.45049 18.6703 8.26059 18.2658C8.20693 18.1543 8.08721 17.8777 8.15739 17.7621C8.23583 17.6342 8.42984 17.7498 8.52892 17.7787C8.73945 17.8323 8.99952 17.8695 9.00364 17.5599C9.00777 17.3287 8.83027 17.1264 8.72294 16.9365C8.65689 16.8168 8.52891 16.6434 8.59084 16.5031C8.65276 16.3627 8.66928 16.4948 8.76422 16.4577C8.8633 16.4205 8.79725 16.3297 8.75184 16.2843C8.63212 16.1728 8.52067 16.2843 8.45875 16.4123C8.37206 16.5815 8.44636 16.6806 8.53718 16.8168C8.64864 16.9778 8.86329 17.4608 8.49177 17.4525C8.29362 17.4484 8.10373 17.3163 7.89732 17.3617C7.66615 17.4154 7.48452 17.7002 7.5547 17.9355C7.62487 18.1667 7.81064 18.3566 7.97989 18.5011C8.07483 18.5795 8.18216 18.6455 8.27298 18.7199C8.38444 18.8148 8.48351 18.9097 8.5991 18.9964C8.69817 19.0666 8.8344 19.1946 8.78074 19.3349C8.71882 19.4877 8.5248 19.4836 8.39683 19.4712C8.07897 19.4381 7.76935 19.3019 7.47213 19.2152C7.13775 19.1203 6.82814 18.9882 6.50203 19.1946C6.33277 19.3019 6.13464 19.5207 6.1883 19.7478C6.23784 19.9583 6.469 20.1688 6.62174 20.3009C6.77861 20.4413 6.9685 20.528 7.13775 20.6518C7.34416 20.8045 7.60423 20.8458 7.83953 20.9325C7.99227 20.9903 8.14089 21.0605 8.29363 21.1348C8.40921 21.1926 8.64038 21.2917 8.55782 21.4692C8.50415 21.5806 8.28536 21.5971 8.17803 21.5847C7.86842 21.5517 7.51754 21.4609 7.23271 21.3205C7.08822 21.2462 6.94786 21.1802 6.8364 21.0852C6.71669 20.982 6.60936 20.8747 6.48139 20.7674C6.23783 20.5651 5.89934 20.5321 5.63514 20.7096C5.50717 20.7963 5.35029 20.9366 5.3668 21.1141C5.38332 21.2793 5.53193 21.4031 5.67229 21.4279C5.79613 21.4485 6.0273 21.4031 6.06445 21.2545C6.08509 21.1761 6.05207 21.0935 5.97776 21.0687C5.86218 21.0316 5.91998 21.1348 5.82916 21.1513C5.71357 21.1678 5.73833 21.0109 5.792 20.9614C5.83328 20.9201 5.9241 20.9119 5.97776 20.9036C6.27086 20.8665 6.62174 21.2421 6.81163 21.4279Z" fill="white"/>
<path d="M4.61147 16.5527C4.6156 16.4124 4.41745 16.2926 4.17389 16.2803C4.34315 16.0986 4.40919 15.8716 4.31425 15.7684C4.2193 15.6652 4.00051 15.7312 3.823 15.9087C3.81888 15.6528 3.70742 15.4464 3.57532 15.4464C3.45147 15.4464 3.3524 15.6156 3.33176 15.8427C3.17902 15.6899 2.99739 15.6321 2.90657 15.7147C2.80337 15.8055 2.84878 16.0408 3.00977 16.239C2.76621 16.2266 2.56394 16.3298 2.55568 16.4701C2.54742 16.6105 2.73731 16.7426 2.98087 16.7591C2.80336 16.9325 2.72906 17.1554 2.81988 17.2627C2.9107 17.3701 3.12948 17.3164 3.31525 17.143C3.31112 17.399 3.4102 17.6095 3.5423 17.6178C3.67852 17.6219 3.79411 17.4196 3.81062 17.1637C3.97987 17.3494 4.19453 17.4196 4.28948 17.3205C4.38855 17.2215 4.33077 16.9944 4.16564 16.8004C4.41333 16.8045 4.61147 16.6931 4.61147 16.5527ZM3.58358 16.66C3.58358 16.66 3.5423 16.6931 3.48863 16.7509C3.49689 16.6766 3.49688 16.6229 3.49688 16.6229C3.49688 16.6229 3.44322 16.6146 3.36891 16.6146C3.42671 16.5692 3.45973 16.5279 3.45973 16.5279C3.45973 16.5279 3.42671 16.4825 3.37718 16.4289C3.44735 16.4413 3.50101 16.4371 3.50101 16.4371C3.50101 16.4371 3.50927 16.3958 3.50927 16.3298C3.54642 16.3752 3.57945 16.4 3.57945 16.4C3.57945 16.4 3.62073 16.3628 3.67027 16.305C3.66614 16.3793 3.67027 16.433 3.67027 16.433C3.67027 16.433 3.72393 16.4371 3.79824 16.433C3.74044 16.4825 3.70742 16.5238 3.70742 16.5238C3.70742 16.5238 3.74044 16.5692 3.7941 16.6188C3.72393 16.6105 3.67027 16.6146 3.67027 16.6146C3.67027 16.6146 3.66201 16.6683 3.66613 16.7467C3.62073 16.6972 3.58358 16.66 3.58358 16.66Z" fill="white"/>
<path d="M8.6653 7.27674C8.66943 7.13638 8.47128 7.01667 8.22773 7.00428C8.39698 6.82265 8.46303 6.5956 8.36808 6.4924C8.27313 6.3892 8.05434 6.45525 7.87684 6.63275C7.87271 6.37681 7.76125 6.17041 7.62915 6.17041C7.50531 6.17041 7.40623 6.33966 7.38559 6.56671C7.23286 6.41397 7.05122 6.35617 6.9604 6.43873C6.8572 6.52955 6.90261 6.76485 7.0636 6.963C6.82005 6.95062 6.61777 7.05382 6.60951 7.19417C6.60126 7.33453 6.79115 7.46663 7.0347 7.48314C6.8572 7.65652 6.7829 7.87943 6.87372 7.98677C6.96453 8.0941 7.18331 8.04043 7.36908 7.86705C7.36495 8.12299 7.46403 8.33352 7.59613 8.34178C7.73236 8.34591 7.84794 8.14363 7.86445 7.88769C8.0337 8.07346 8.24837 8.14363 8.34331 8.04456C8.44239 7.94548 8.38459 7.71844 8.21946 7.52442C8.46715 7.52855 8.66117 7.41709 8.6653 7.27674ZM7.63328 7.38407C7.63328 7.38407 7.592 7.41709 7.53833 7.47488C7.54659 7.40058 7.54658 7.34691 7.54658 7.34691C7.54658 7.34691 7.49292 7.33866 7.41861 7.33866C7.47641 7.29325 7.50943 7.25197 7.50943 7.25197C7.50943 7.25197 7.47641 7.20656 7.42688 7.15289C7.49705 7.16528 7.55072 7.16115 7.55072 7.16115C7.55072 7.16115 7.55897 7.11987 7.55897 7.05382C7.59612 7.09923 7.62915 7.124 7.62915 7.124C7.62915 7.124 7.67043 7.08684 7.71997 7.02905C7.71584 7.10335 7.71997 7.15702 7.71997 7.15702C7.71997 7.15702 7.77363 7.16115 7.84794 7.15702C7.79014 7.20656 7.75712 7.24784 7.75712 7.24784C7.75712 7.24784 7.79014 7.29325 7.84381 7.34278C7.77363 7.33453 7.71997 7.33866 7.71997 7.33866C7.71997 7.33866 7.71171 7.39232 7.71584 7.47075C7.67456 7.42122 7.63328 7.38407 7.63328 7.38407Z" fill="white"/>
<path d="M17.2967 10.9136C17.3008 10.7733 17.1026 10.6536 16.8591 10.6412C17.0283 10.4595 17.0944 10.2325 16.9994 10.1293C16.9045 10.0261 16.6857 10.0922 16.5082 10.2697C16.5041 10.0137 16.3926 9.80731 16.2605 9.80731C16.1367 9.80731 16.0376 9.97656 16.0169 10.2036C15.8642 10.0509 15.6826 9.99308 15.5917 10.0756C15.4885 10.1665 15.534 10.4018 15.695 10.5999C15.4514 10.5875 15.2491 10.6907 15.2409 10.8311C15.2326 10.9714 15.4225 11.1035 15.6661 11.12C15.4885 11.2934 15.4142 11.5163 15.5051 11.6237C15.5959 11.731 15.8147 11.6773 16.0004 11.504C15.9963 11.7599 16.0954 11.9704 16.2275 11.9787C16.3637 11.9828 16.4793 11.7805 16.4958 11.5246C16.6651 11.7104 16.8797 11.7805 16.9747 11.6815C17.0737 11.5824 17.0159 11.3553 16.8508 11.1613C17.0985 11.1655 17.2925 11.054 17.2967 10.9136ZM16.2646 11.0251C16.2646 11.0251 16.2233 11.0581 16.1697 11.1159C16.1779 11.0416 16.1779 10.9879 16.1779 10.9879C16.1779 10.9879 16.1243 10.9797 16.05 10.9797C16.1078 10.9343 16.1408 10.893 16.1408 10.893C16.1408 10.893 16.1078 10.8476 16.0582 10.7939C16.1284 10.8063 16.1821 10.8022 16.1821 10.8022C16.1821 10.8022 16.1903 10.7609 16.1903 10.6949C16.2275 10.7403 16.2605 10.765 16.2605 10.765C16.2605 10.765 16.3018 10.7279 16.3513 10.6701C16.3472 10.7444 16.3513 10.7981 16.3513 10.7981C16.3513 10.7981 16.405 10.8022 16.4793 10.7981C16.4215 10.8476 16.3885 10.8889 16.3885 10.8889C16.3885 10.8889 16.4215 10.9343 16.4752 10.9838C16.405 10.9756 16.3513 10.9797 16.3513 10.9797C16.3513 10.9797 16.3431 11.0334 16.3472 11.1118C16.3059 11.0622 16.2646 11.0251 16.2646 11.0251Z" fill="white"/>
<path d="M13.2967 20.3339C13.3008 20.1935 13.1026 20.0738 12.8591 20.0614C13.0283 19.8798 13.0944 19.6528 12.9994 19.5496C12.9045 19.4464 12.6857 19.5124 12.5082 19.6899C12.5041 19.434 12.3926 19.2276 12.2605 19.2276C12.1367 19.2276 12.0376 19.3968 12.0169 19.6239C11.8642 19.4711 11.6826 19.4133 11.5917 19.4959C11.4885 19.5867 11.534 19.822 11.695 20.0202C11.4514 20.0078 11.2491 20.111 11.2409 20.2513C11.2326 20.3917 11.4225 20.5238 11.6661 20.5403C11.4885 20.7137 11.4142 20.9366 11.5051 21.0439C11.5959 21.1513 11.8147 21.0976 12.0004 20.9242C11.9963 21.1802 12.0954 21.3907 12.2275 21.3989C12.3637 21.4031 12.4793 21.2008 12.4958 20.9449C12.6651 21.1306 12.8797 21.2008 12.9747 21.1017C13.0737 21.0026 13.0159 20.7756 12.8508 20.5816C13.0985 20.5857 13.2925 20.4743 13.2967 20.3339ZM12.2687 20.4454C12.2687 20.4454 12.2275 20.4784 12.1738 20.5362C12.1821 20.4619 12.1821 20.4082 12.1821 20.4082C12.1821 20.4082 12.1284 20.3999 12.0541 20.3999C12.1119 20.3545 12.1449 20.3133 12.1449 20.3133C12.1449 20.3133 12.1119 20.2678 12.0623 20.2142C12.1325 20.2266 12.1862 20.2224 12.1862 20.2224C12.1862 20.2224 12.1944 20.1812 12.1944 20.1151C12.2316 20.1605 12.2646 20.1853 12.2646 20.1853C12.2646 20.1853 12.3059 20.1481 12.3554 20.0903C12.3513 20.1646 12.3554 20.2183 12.3554 20.2183C12.3554 20.2183 12.4091 20.2224 12.4834 20.2183C12.4256 20.2678 12.3926 20.3091 12.3926 20.3091C12.3926 20.3091 12.4256 20.3545 12.4793 20.4041C12.4091 20.3958 12.3554 20.3999 12.3554 20.3999C12.3554 20.3999 12.3472 20.4536 12.3513 20.532C12.3059 20.4784 12.2687 20.4454 12.2687 20.4454Z" fill="white"/>
<path d="M60.1638 13.8251H57.7762V5.7644H54.2186V13.8251H51.831V3.92099H60.1638V13.8251ZM67.2789 11.9749H64.007L63.4356 13.8251H60.8848L64.5172 3.92099H66.762L70.4216 13.8251H67.8571L67.2789 11.9749ZM64.5784 10.1315H66.7075L65.6396 6.69632L64.5784 10.1315ZM79.6047 3.92099V13.8251H77.2171V5.7644H74.9927L74.8295 9.09072C74.7614 10.238 74.6027 11.1541 74.3533 11.8388C74.1039 12.5236 73.7479 13.0247 73.2853 13.3421C72.8273 13.655 72.2015 13.816 71.4079 13.8251H70.7685V11.9885L71.1018 11.9545C71.578 11.8865 71.9226 11.5962 72.1358 11.0838C72.3489 10.5668 72.4872 9.69839 72.5507 8.47851L72.7208 3.92099H79.6047ZM83.482 7.32893H84.7132C85.4977 7.32893 86.1915 7.46271 86.7947 7.73026C87.3978 7.99782 87.8604 8.37648 88.1823 8.86624C88.5088 9.35147 88.6721 9.90926 88.6721 10.5396C88.6721 11.5146 88.3093 12.3059 87.5837 12.9136C86.8627 13.5213 85.8922 13.8251 84.6724 13.8251H81.0876V3.92099H83.482V7.32893ZM91.7739 13.8251H89.3931V3.92099H91.7739V13.8251ZM83.482 9.16554V11.9885H84.7064C85.1916 11.9885 85.5748 11.8524 85.856 11.5804C86.1417 11.3083 86.2845 10.9568 86.2845 10.526C86.2845 10.1179 86.1439 9.78908 85.8628 9.53967C85.5816 9.29025 85.1916 9.16554 84.6928 9.16554H83.482ZM101.304 3.92099V13.8251H98.9231V10.1655L98.2225 10.2539L97.345 10.3083C96.0118 10.3083 94.9914 10.0204 94.284 9.44444C93.5765 8.86397 93.2183 8.04317 93.2092 6.98201V3.92099H95.5968V6.948C95.5968 7.48765 95.7261 7.87764 95.9846 8.11799C96.2476 8.3538 96.7011 8.47171 97.345 8.47171L97.5491 8.46491C98.1069 8.4377 98.5649 8.39462 98.9231 8.33566V3.92099H101.304ZM107.167 10.4444H103.079V8.66898H107.167V10.4444ZM112.201 3.92099L114.412 10.8117L116.616 3.92099H119.759V13.8251H117.364V11.5123L117.595 6.77794L115.201 13.8251H113.623L111.222 6.77114L111.453 11.5123V13.8251H109.065V3.92099H112.201ZM127.03 11.9749H123.758L123.187 13.8251H120.636L124.268 3.92099H126.513L130.173 13.8251H127.608L127.03 11.9749ZM124.33 10.1315H126.459L125.391 6.69632L124.33 10.1315ZM137.58 5.7644H133.275V13.8251H130.887V3.92099H137.58V5.7644Z" fill="#A70230"/>
<path d="M56.1215 19.8757C56.1215 20.0766 56.0601 20.2622 55.9373 20.4325C55.8173 20.5999 55.6471 20.7338 55.4266 20.8343C55.9457 21.0157 56.2052 21.3659 56.2052 21.885C56.2052 22.3008 56.0364 22.6329 55.6987 22.8813C55.3611 23.1269 54.909 23.2496 54.3425 23.2496C53.9964 23.2496 53.6811 23.1924 53.3964 23.078C53.1118 22.9608 52.8899 22.7962 52.7308 22.5841C52.5718 22.3692 52.4922 22.1152 52.4922 21.8222H53.5053C53.5053 22.0064 53.5876 22.1613 53.7522 22.2869C53.9169 22.4097 54.1248 22.471 54.376 22.471C54.6243 22.471 54.8211 22.4138 54.9662 22.2994C55.1141 22.1822 55.188 22.0301 55.188 21.8431C55.188 21.6227 55.1239 21.4636 54.9955 21.3659C54.8671 21.2683 54.669 21.2194 54.4011 21.2194H53.6727V20.4869H54.4262C54.8811 20.4813 55.1085 20.2943 55.1085 19.9259C55.1085 19.7418 55.0429 19.598 54.9118 19.4948C54.7806 19.3915 54.6006 19.3399 54.3718 19.3399C54.1485 19.3399 53.9601 19.3957 53.8067 19.5073C53.6532 19.6162 53.5764 19.7543 53.5764 19.9218H52.5634C52.5634 19.5227 52.7308 19.1962 53.0657 18.9422C53.4006 18.6855 53.8262 18.5571 54.3425 18.5571C54.9034 18.5571 55.3401 18.6715 55.6527 18.9004C55.9652 19.1292 56.1215 19.4543 56.1215 19.8757ZM61.2762 23.1659C61.2315 23.0794 61.1925 22.9385 61.159 22.7431C60.8353 23.0808 60.439 23.2496 59.9701 23.2496C59.5153 23.2496 59.1441 23.1199 58.8567 22.8603C58.5692 22.6008 58.4255 22.2799 58.4255 21.8976C58.4255 21.4148 58.6041 21.045 58.9613 20.7883C59.3213 20.5287 59.8348 20.399 60.5018 20.399H61.1255V20.1018C61.1255 19.8673 61.0599 19.6804 60.9287 19.5408C60.7976 19.3985 60.598 19.3273 60.3301 19.3273C60.0985 19.3273 59.9088 19.386 59.7608 19.5032C59.6129 19.6176 59.539 19.7641 59.539 19.9427H58.5218C58.5218 19.6943 58.6041 19.4627 58.7688 19.2478C58.9334 19.0301 59.1567 18.8599 59.4385 18.7371C59.7232 18.6143 60.0399 18.5529 60.3887 18.5529C60.919 18.5529 61.3418 18.6869 61.6571 18.9548C61.9725 19.2199 62.1343 19.5939 62.1427 20.0766V22.1194C62.1427 22.5269 62.1999 22.852 62.3143 23.0948V23.1659H61.2762ZM60.1585 22.4334C60.3594 22.4334 60.5478 22.3845 60.7236 22.2869C60.9022 22.1892 61.0362 22.058 61.1255 21.8934V21.0394H60.5771C60.2004 21.0394 59.9171 21.105 59.7274 21.2362C59.5376 21.3673 59.4427 21.5529 59.4427 21.7929C59.4427 21.9883 59.5069 22.1445 59.6353 22.2617C59.7664 22.3762 59.9408 22.4334 60.1585 22.4334ZM66.3178 21.3743H65.8029V23.1659H64.7857V18.6367H65.8029V20.445H66.2508L67.5025 18.6367H68.7583L67.1215 20.805L68.8964 23.1659H67.5736L66.3178 21.3743ZM73.6618 23.1659C73.6171 23.0794 73.5781 22.9385 73.5446 22.7431C73.2208 23.0808 72.8246 23.2496 72.3557 23.2496C71.9009 23.2496 71.5297 23.1199 71.2423 22.8603C70.9548 22.6008 70.8111 22.2799 70.8111 21.8976C70.8111 21.4148 70.9897 21.045 71.3469 20.7883C71.7069 20.5287 72.2204 20.399 72.8874 20.399H73.5111V20.1018C73.5111 19.8673 73.4455 19.6804 73.3143 19.5408C73.1832 19.3985 72.9836 19.3273 72.7157 19.3273C72.4841 19.3273 72.2943 19.386 72.1464 19.5032C71.9985 19.6176 71.9246 19.7641 71.9246 19.9427H70.9074C70.9074 19.6943 70.9897 19.4627 71.1543 19.2478C71.319 19.0301 71.5423 18.8599 71.8241 18.7371C72.1088 18.6143 72.4255 18.5529 72.7743 18.5529C73.3046 18.5529 73.7274 18.6869 74.0427 18.9548C74.358 19.2199 74.5199 19.5939 74.5283 20.0766V22.1194C74.5283 22.5269 74.5855 22.852 74.6999 23.0948V23.1659H73.6618ZM72.5441 22.4334C72.745 22.4334 72.9334 22.3845 73.1092 22.2869C73.2878 22.1892 73.4218 22.058 73.5111 21.8934V21.0394H72.9627C72.586 21.0394 72.3027 21.105 72.1129 21.2362C71.9232 21.3673 71.8283 21.5529 71.8283 21.7929C71.8283 21.9883 71.8925 22.1445 72.0209 22.2617C72.152 22.3762 72.3264 22.4334 72.5441 22.4334ZM80.5243 19.8757C80.5243 20.0766 80.4629 20.2622 80.3401 20.4325C80.2201 20.5999 80.0499 20.7338 79.8295 20.8343C80.3485 21.0157 80.608 21.3659 80.608 21.885C80.608 22.3008 80.4392 22.6329 80.1015 22.8813C79.7639 23.1269 79.3118 23.2496 78.7453 23.2496C78.3992 23.2496 78.0839 23.1924 77.7992 23.078C77.5146 22.9608 77.2927 22.7962 77.1337 22.5841C76.9746 22.3692 76.8951 22.1152 76.8951 21.8222H77.9081C77.9081 22.0064 77.9904 22.1613 78.155 22.2869C78.3197 22.4097 78.5276 22.471 78.7788 22.471C79.0271 22.471 79.2239 22.4138 79.369 22.2994C79.5169 22.1822 79.5908 22.0301 79.5908 21.8431C79.5908 21.6227 79.5267 21.4636 79.3983 21.3659C79.2699 21.2683 79.0718 21.2194 78.8039 21.2194H78.0755V20.4869H78.829C79.2839 20.4813 79.5113 20.2943 79.5113 19.9259C79.5113 19.7418 79.4457 19.598 79.3146 19.4948C79.1834 19.3915 79.0034 19.3399 78.7746 19.3399C78.5513 19.3399 78.3629 19.3957 78.2095 19.5073C78.056 19.6162 77.9792 19.7543 77.9792 19.9218H76.9662C76.9662 19.5227 77.1337 19.1962 77.4685 18.9422C77.8034 18.6855 78.229 18.5571 78.7453 18.5571C79.3062 18.5571 79.7429 18.6715 80.0555 18.9004C80.3681 19.1292 80.5243 19.4543 80.5243 19.8757ZM86.6853 23.1659V18.6367H88.523C89.1425 18.6367 89.6141 18.7455 89.9378 18.9632C90.2616 19.178 90.4234 19.4878 90.4234 19.8925C90.4234 20.1018 90.3578 20.2901 90.2267 20.4576C90.0983 20.6222 89.9072 20.7492 89.6532 20.8385C89.949 20.8999 90.1834 21.0241 90.3564 21.2111C90.5295 21.398 90.616 21.6185 90.616 21.8724C90.616 22.2938 90.4597 22.6148 90.1471 22.8352C89.8374 23.0557 89.3909 23.1659 88.8076 23.1659H86.6853ZM87.7025 21.2362V22.3622H88.816C89.3379 22.3622 89.5988 22.1752 89.5988 21.8013C89.5988 21.4245 89.3337 21.2362 88.8034 21.2362H87.7025ZM87.7025 20.5078H88.5397C89.1174 20.5078 89.4062 20.3376 89.4062 19.9971C89.4062 19.6399 89.1327 19.4557 88.5858 19.4446H87.7025V20.5078ZM99.3221 21.9143L100.662 18.6367H101.934V23.1659H100.917V20.1687L99.6695 23.1659H98.9788L97.7272 20.152V23.1659H96.71V18.6367H97.9909L99.3221 21.9143ZM107.286 23.1659C107.241 23.0794 107.202 22.9385 107.168 22.7431C106.845 23.0808 106.448 23.2496 105.98 23.2496C105.525 23.2496 105.153 23.1199 104.866 22.8603C104.579 22.6008 104.435 22.2799 104.435 21.8976C104.435 21.4148 104.613 21.045 104.971 20.7883C105.331 20.5287 105.844 20.399 106.511 20.399H107.135V20.1018C107.135 19.8673 107.069 19.6804 106.938 19.5408C106.807 19.3985 106.607 19.3273 106.34 19.3273C106.108 19.3273 105.918 19.386 105.77 19.5032C105.622 19.6176 105.548 19.7641 105.548 19.9427H104.531C104.531 19.6943 104.613 19.4627 104.778 19.2478C104.943 19.0301 105.166 18.8599 105.448 18.7371C105.733 18.6143 106.049 18.5529 106.398 18.5529C106.928 18.5529 107.351 18.6869 107.666 18.9548C107.982 19.2199 108.144 19.5939 108.152 20.0766V22.1194C108.152 22.5269 108.209 22.852 108.324 23.0948V23.1659H107.286ZM106.168 22.4334C106.369 22.4334 106.557 22.3845 106.733 22.2869C106.912 22.1892 107.046 22.058 107.135 21.8934V21.0394H106.586C106.21 21.0394 105.926 21.105 105.737 21.2362C105.547 21.3673 105.452 21.5529 105.452 21.7929C105.452 21.9883 105.516 22.1445 105.645 22.2617C105.776 22.3762 105.95 22.4334 106.168 22.4334ZM113.734 19.4571H111.766V23.1659H110.753V18.6367H113.734V19.4571ZM118.516 23.1659C118.471 23.0794 118.432 22.9385 118.399 22.7431C118.075 23.0808 117.679 23.2496 117.21 23.2496C116.755 23.2496 116.384 23.1199 116.096 22.8603C115.809 22.6008 115.665 22.2799 115.665 21.8976C115.665 21.4148 115.844 21.045 116.201 20.7883C116.561 20.5287 117.074 20.399 117.741 20.399H118.365V20.1018C118.365 19.8673 118.3 19.6804 118.168 19.5408C118.037 19.3985 117.838 19.3273 117.57 19.3273C117.338 19.3273 117.148 19.386 117 19.5032C116.853 19.6176 116.779 19.7641 116.779 19.9427H115.761C115.761 19.6943 115.844 19.4627 116.008 19.2478C116.173 19.0301 116.396 18.8599 116.678 18.7371C116.963 18.6143 117.28 18.5529 117.628 18.5529C118.159 18.5529 118.581 18.6869 118.897 18.9548C119.212 19.2199 119.374 19.5939 119.382 20.0766V22.1194C119.382 22.5269 119.44 22.852 119.554 23.0948V23.1659H118.516ZM117.398 22.4334C117.599 22.4334 117.787 22.3845 117.963 22.2869C118.142 22.1892 118.276 22.058 118.365 21.8934V21.0394H117.817C117.44 21.0394 117.157 21.105 116.967 21.2362C116.777 21.3673 116.682 21.5529 116.682 21.7929C116.682 21.9883 116.746 22.1445 116.875 22.2617C117.006 22.3762 117.18 22.4334 117.398 22.4334ZM125.378 19.8757C125.378 20.0766 125.317 20.2622 125.194 20.4325C125.074 20.5999 124.904 20.7338 124.683 20.8343C125.203 21.0157 125.462 21.3659 125.462 21.885C125.462 22.3008 125.293 22.6329 124.956 22.8813C124.618 23.1269 124.166 23.2496 123.599 23.2496C123.253 23.2496 122.938 23.1924 122.653 23.078C122.369 22.9608 122.147 22.7962 121.988 22.5841C121.829 22.3692 121.749 22.1152 121.749 21.8222H122.762C122.762 22.0064 122.844 22.1613 123.009 22.2869C123.174 22.4097 123.382 22.471 123.633 22.471C123.881 22.471 124.078 22.4138 124.223 22.2994C124.371 22.1822 124.445 22.0301 124.445 21.8431C124.445 21.6227 124.381 21.4636 124.252 21.3659C124.124 21.2683 123.926 21.2194 123.658 21.2194H122.93V20.4869H123.683C124.138 20.4813 124.365 20.2943 124.365 19.9259C124.365 19.7418 124.3 19.598 124.169 19.4948C124.037 19.3915 123.857 19.3399 123.629 19.3399C123.405 19.3399 123.217 19.3957 123.063 19.5073C122.91 19.6162 122.833 19.7543 122.833 19.9218H121.82C121.82 19.5227 121.988 19.1962 122.323 18.9422C122.657 18.6855 123.083 18.5571 123.599 18.5571C124.16 18.5571 124.597 18.6715 124.91 18.9004C125.222 19.1292 125.378 19.4543 125.378 19.8757ZM130.654 18.6367H131.667V23.1659H130.654V20.1436L128.88 23.1659H127.867V18.6367H128.88V21.659L130.654 18.6367ZM138.086 23.1659H137.069V21.3366H135.307V23.1659H134.29V18.6367H135.307V20.5245H137.069V18.6367H138.086V23.1659Z" fill="#A70230"/>
</svg>
