<svg width="170" height="170" viewBox="0 0 170 170" fill="none" xmlns="http://www.w3.org/2000/svg">
<circle cx="85" cy="85" r="85" fill="white"/>
<path d="M116.496 29C101.639 29 89.5527 41.0869 89.5527 55.9436C89.5527 60.6757 90.79 65.3042 93.1376 69.3786C92.4711 71.8626 91.8047 74.3468 91.1379 76.8353C90.7964 78.1173 91.1564 79.4383 92.1013 80.3694C93.0327 81.2873 94.3878 81.6398 95.6408 81.291C98.1141 80.6282 100.587 79.9649 103.06 79.3014C107.135 81.6496 111.764 82.8871 116.496 82.8871C131.353 82.8871 143.44 70.8002 143.44 55.9436C143.44 41.0869 131.353 29 116.496 29V29ZM116.496 79.5192C112.14 79.5192 107.885 78.3214 104.19 76.0552C103.922 75.8912 103.617 75.8067 103.309 75.8067C103.163 75.8067 103.016 75.8257 102.873 75.8643C100.169 76.5899 97.4642 77.3154 94.7596 78.0401C94.7524 78.042 94.7453 78.044 94.738 78.046C94.6114 78.0816 94.5198 78.0245 94.4649 77.9704C94.3506 77.8578 94.3807 77.7448 94.3913 77.7045C95.1188 74.9896 95.8464 72.2774 96.5742 69.5652C96.694 69.1188 96.6249 68.6426 96.3833 68.2485C94.1178 64.5545 92.9204 60.2995 92.9204 55.9436C92.9204 42.944 103.496 32.3679 116.496 32.3679C129.495 32.3679 140.072 42.944 140.072 55.9436C140.072 68.9431 129.496 79.5192 116.496 79.5192Z" fill="#A70230"/>
<path d="M124.905 45.8535H108.088C107.159 45.8535 106.406 46.5981 106.406 47.5167C106.406 48.4353 107.159 49.1799 108.088 49.1799H124.905C125.833 49.1799 126.586 48.4353 126.586 47.5167C126.586 46.5981 125.833 45.8535 124.905 45.8535Z" fill="#A70230"/>
<path d="M124.905 54.2805H108.088C107.159 54.2805 106.406 55.0251 106.406 55.9437C106.406 56.8623 107.159 57.6069 108.088 57.6069H124.905C125.833 57.6069 126.586 56.8623 126.586 55.9437C126.586 55.0251 125.833 54.2805 124.905 54.2805Z" fill="#A70230"/>
<path d="M124.905 62.707H108.088C107.159 62.707 106.406 63.4516 106.406 64.3702C106.406 65.2888 107.159 66.0334 108.088 66.0334H124.905C125.833 66.0334 126.586 65.2888 126.586 64.3702C126.586 63.4516 125.833 62.707 124.905 62.707Z" fill="#A70230"/>
<path d="M62.0736 102.295C63.1282 102.295 63.9832 101.44 63.9832 100.386C63.9832 99.3313 63.1282 98.4763 62.0736 98.4763C61.019 98.4763 60.1641 99.3313 60.1641 100.386C60.1641 101.44 61.019 102.295 62.0736 102.295Z" fill="#A70230"/>
<path d="M75.056 102.295C76.1107 102.295 76.9656 101.44 76.9656 100.386C76.9656 99.3313 76.1107 98.4763 75.056 98.4763C74.0014 98.4763 73.1465 99.3313 73.1465 100.386C73.1465 101.44 74.0014 102.295 75.056 102.295Z" fill="#A70230"/>
<path d="M74.4245 110.036C73.7752 109.387 72.722 109.387 72.0725 110.036C71.2425 110.866 70.139 111.323 68.9655 111.323C67.7919 111.323 66.6885 110.866 65.8586 110.036C65.2093 109.386 64.1562 109.387 63.5067 110.036C62.8571 110.685 62.8571 111.738 63.5067 112.388C64.9647 113.846 66.9036 114.649 68.9657 114.649C71.0278 114.649 72.9666 113.846 74.4245 112.388C75.074 111.739 75.074 110.686 74.4245 110.036Z" fill="#A70230"/>
<path fill-rule="evenodd" clip-rule="evenodd" d="M61.6769 122.03C62.655 121.974 63.4933 122.722 63.5492 123.7C63.5941 124.486 63.5957 125.807 62.948 127.385C62.3009 128.962 61.0634 130.657 58.8509 132.317C56.4845 134.091 53.1464 134.798 50.84 134.994C49.8637 135.076 49.0052 134.352 48.9225 133.376C48.8397 132.399 49.5641 131.541 50.5404 131.458C52.5952 131.284 55.1425 130.663 56.722 129.478C58.5011 128.144 59.2963 126.938 59.6656 126.038C60.0343 125.14 60.0359 124.41 60.0069 123.902C59.951 122.924 60.6987 122.086 61.6769 122.03Z" fill="#A70230"/>
<path fill-rule="evenodd" clip-rule="evenodd" d="M76.3075 122.03C75.3293 121.974 74.491 122.722 74.4351 123.7C74.3902 124.486 74.3886 125.807 75.0364 127.385C75.6834 128.962 76.921 130.657 79.1335 132.317C81.4999 134.091 84.8379 134.798 87.1444 134.994C88.1207 135.076 88.9792 134.352 89.0619 133.376C89.1447 132.399 88.4203 131.541 87.444 131.458C85.3892 131.284 82.8419 130.663 81.2624 129.478C79.4832 128.144 78.6881 126.938 78.3187 126.038C77.9501 125.14 77.9485 124.41 77.9775 123.902C78.0334 122.924 77.2857 122.086 76.3075 122.03Z" fill="#A70230"/>
<path fill-rule="evenodd" clip-rule="evenodd" d="M75.5127 125.487L75.5269 125.465C76.1182 125.206 77.5005 124.577 78.2989 124.134C78.6165 123.958 78.8978 123.787 79.1331 123.636C79.2341 123.571 79.3343 123.505 79.4339 123.438C79.6317 123.303 79.7745 123.197 79.8512 123.136L79.861 123.142C81.3249 122.096 82.6331 120.847 83.7465 119.437C87.8149 119.396 91.1195 116.116 91.2012 112.057C93.167 111.45 94.5996 109.615 94.5996 107.453V98.1145C94.5996 95.853 93.0313 93.9554 90.9268 93.4391C91.0488 93.434 91.1717 93.4185 91.2945 93.3853C92.1889 93.1438 92.7182 92.223 92.4767 91.3287C90.7401 84.8948 87.9411 79.7771 84.1579 76.1176C79.8035 71.9054 74.9807 69.6343 69.8239 69.368C69.5729 69.356 64.9894 69.1622 59.7954 71.614C57.4261 70.4236 54.7821 69.7967 52.1139 69.7967C42.6772 69.7967 35 77.4739 35 86.9106C35 92.9244 38.1197 98.4282 43.2106 101.528V107.453C43.2106 110.11 45.3723 112.271 48.0294 112.271H50.551C51.8086 117.372 55.1418 121.662 59.6002 124.194V124.198C60.2944 124.591 61.1161 125.022 61.667 125.243C62.06 125.4 62.5182 125.563 62.955 125.709V125.688C64.8273 126.31 66.8264 126.652 68.905 126.652C71.2286 126.652 73.4546 126.229 75.5127 125.458V125.487ZM86.2994 115.149C86.6941 114.225 87.0146 113.263 87.2592 112.271H87.8315C87.73 113.43 87.1547 114.455 86.2994 115.149ZM91.2446 98.1142V107.452C91.2446 108.26 90.5878 108.916 89.7806 108.916H87.81V107.747V96.6502H89.7806C90.5878 96.6502 91.2446 97.307 91.2446 98.1142ZM43.2618 97.4474C40.1823 94.8644 38.3545 91.0368 38.3545 86.9106C38.3545 79.3238 44.5269 73.1514 52.1137 73.1514C53.489 73.1514 54.8553 73.3596 56.1606 73.7599C55.6909 74.0999 55.223 74.4636 54.7597 74.8578C54.0541 75.4581 53.9689 76.5168 54.5692 77.2222C55.1695 77.9281 56.2282 78.013 56.9336 77.4127C62.751 72.4626 69.5864 72.7146 69.6505 72.7185C73.9741 72.9419 78.0702 74.8969 81.8252 78.529C85.1669 81.7614 87.6608 86.3622 89.2375 92.2031C89.3803 92.7322 89.7628 93.1291 90.235 93.3187C90.085 93.3045 89.9338 93.2957 89.7804 93.2957H87.7683C87.6007 92.5461 86.9325 91.9855 86.1324 91.9855C85.7987 91.9855 85.4885 92.0842 85.227 92.2523C85.2258 92.2531 85.2246 92.2538 85.2234 92.2544C85.2221 92.2551 85.2209 92.2558 85.2196 92.2564L85.2195 92.2564C85.2171 92.2576 85.2147 92.2588 85.2121 92.2605C83.2281 93.5624 78.5188 94.3619 76.0161 94.3619C69.8933 94.3619 63.9973 92.1747 58.994 88.1806L53.0917 81.8179C53.1879 81.672 53.2841 81.5265 53.3819 81.3851C53.9086 80.6229 53.7177 79.5782 52.9557 79.0515C52.1938 78.5248 51.1488 78.7158 50.6222 79.4777C50.2583 80.0042 49.9037 80.559 49.5668 81.1263L49.5653 81.1283L49.5625 81.1329L49.5597 81.1376C49.5548 81.1458 49.5495 81.154 49.5446 81.1622C49.5435 81.164 49.5431 81.1657 49.542 81.1675C48.1733 83.3698 47.2122 85.7692 46.6871 88.3001C46.3223 90.0582 46.1784 91.8482 46.2509 93.6396C44.6711 94.2698 43.5037 95.711 43.2618 97.4474ZM49.9997 107.747V108.916H48.0291C47.222 108.916 46.5651 108.26 46.5651 107.452V101.034C46.6472 100.738 46.6434 100.431 46.5651 100.145V98.114C46.5651 97.3068 47.222 96.65 48.0291 96.65H49.9997V107.747ZM51.3072 92.0274C51.0801 92.0787 50.8712 92.176 50.6894 92.3091C50.3266 92.4665 49.9589 92.6153 49.585 92.7506C49.5852 91.4852 49.7145 90.2241 49.9724 88.9818C50.2492 87.6479 50.6703 86.3577 51.2271 85.1232C52.4973 86.7026 53.8616 88.1476 55.3059 89.4499C53.8793 90.6179 52.6499 91.3329 52.1002 91.6283C51.8398 91.7682 51.5746 91.8997 51.3072 92.0274ZM53.3544 107.747V94.9728V94.7559C53.3896 94.7378 53.4248 94.7198 53.46 94.7019C53.5364 94.6629 53.6128 94.6239 53.6882 94.5834C54.3994 94.2013 56.0781 93.222 57.9484 91.6088C63.3105 95.5625 69.5408 97.7162 76.0163 97.7162C78.1059 97.7162 81.6416 97.2534 84.4553 96.2787V107.747C84.4553 110.813 83.5596 113.672 82.0215 116.084H70.687C69.7607 116.084 69.0096 116.835 69.0096 117.761C69.0096 118.687 69.7607 119.438 70.687 119.438H79.1411C76.4037 121.838 72.8225 123.297 68.9048 123.297C60.3303 123.298 53.3544 116.322 53.3544 107.747Z" fill="#A70230"/>
</svg>
