<svg width="170" height="170" viewBox="0 0 170 170" fill="none" xmlns="http://www.w3.org/2000/svg">
<circle cx="85" cy="85" r="85" fill="white"/>
<path d="M113.995 89.6195C112.925 89.6195 112.056 90.4874 112.056 91.5582V104.935C112.056 110.28 107.708 114.629 102.363 114.629H81.4312C80.3608 114.629 79.4932 115.496 79.4925 116.566L79.4897 120.421L74.8624 115.794C74.5629 115.106 73.8774 114.629 73.0845 114.629H60.4869C55.1419 114.629 50.7934 110.28 50.7934 104.935V75.0792C50.7934 69.7342 55.1419 65.3856 60.4869 65.3856H80.0679C81.1384 65.3856 82.0066 64.5177 82.0066 63.4469C82.0066 62.3762 81.1384 61.5082 80.0679 61.5082H60.4869C53.0039 61.5082 46.916 67.5962 46.916 75.0792V104.935C46.916 112.418 53.0039 118.506 60.4869 118.506H72.0916L80.0541 126.469C80.425 126.839 80.9207 127.036 81.4253 127.036C81.6749 127.036 81.9267 126.988 82.1661 126.889C82.8906 126.589 83.3631 125.883 83.3637 125.099L83.3683 118.506H102.363C109.846 118.506 115.934 112.418 115.934 104.935V91.5582C115.934 90.4874 115.066 89.6195 113.995 89.6195Z" fill="#A70230"/>
<path d="M100.23 87.8749H59.3235C58.2529 87.8749 57.3848 88.7428 57.3848 89.8136C57.3848 90.8843 58.2529 91.7523 59.3235 91.7523H100.23C101.301 91.7523 102.169 90.8843 102.169 89.8136C102.169 88.7428 101.301 87.8749 100.23 87.8749Z" fill="#A70230"/>
<path d="M101.6 99.2995C101.24 98.9389 100.74 98.7315 100.23 98.7315C99.7198 98.7315 99.2197 98.9389 98.8591 99.2995C98.4983 99.6601 98.291 100.16 98.291 100.67C98.291 101.18 98.4985 101.68 98.8591 102.041C99.2197 102.401 99.7198 102.609 100.23 102.609C100.74 102.609 101.24 102.401 101.6 102.041C101.961 101.68 102.168 101.182 102.168 100.67C102.168 100.16 101.961 99.6601 101.6 99.2995Z" fill="#A70230"/>
<path d="M92.6046 98.7315H59.3235C58.2529 98.7315 57.3848 99.5995 57.3848 100.67C57.3848 101.741 58.2529 102.609 59.3235 102.609H92.6046C93.6754 102.609 94.5433 101.741 94.5433 100.67C94.5433 99.5995 93.6752 98.7315 92.6046 98.7315Z" fill="#A70230"/>
<path d="M87.6286 77.018H59.3235C58.2529 77.018 57.3848 77.886 57.3848 78.9567C57.3848 80.0275 58.2529 80.8954 59.3235 80.8954H87.6286C88.6993 80.8954 89.5673 80.0275 89.5673 78.9567C89.5673 77.886 88.6991 77.018 87.6286 77.018Z" fill="#A70230"/>
<path fill-rule="evenodd" clip-rule="evenodd" d="M110.197 78.7912C119.06 78.7912 126.244 71.6064 126.244 62.7435C126.244 53.8806 119.06 46.6958 110.197 46.6958C101.334 46.6958 94.149 53.8806 94.149 62.7435C94.149 71.6064 101.334 78.7912 110.197 78.7912ZM110.197 82.4871C121.101 82.4871 129.94 73.6476 129.94 62.7435C129.94 51.8395 121.101 43 110.197 43C99.2926 43 90.4531 51.8395 90.4531 62.7435C90.4531 73.6476 99.2926 82.4871 110.197 82.4871Z" fill="#A70230"/>
<path fill-rule="evenodd" clip-rule="evenodd" d="M119.257 56.7391C120 57.5081 120 58.7549 119.257 59.5239L110.345 68.748C109.602 69.517 108.398 69.517 107.655 68.748L102.147 63.0477C101.404 62.2787 101.404 61.0319 102.147 60.2629C102.89 59.4939 104.095 59.4939 104.838 60.2629L109 64.5707L116.567 56.7391C117.31 55.9701 118.514 55.9701 119.257 56.7391Z" fill="#A70230"/>
</svg>
