<svg width="61" height="53" viewBox="0 0 61 53" fill="none" xmlns="http://www.w3.org/2000/svg">
<path d="M45.198 6.17453C43.0965 5.57498 40.5809 5.73357 38.5376 6.69523L36.5323 7.63993C35.4951 5.71845 33.1384 5.37742 31.1992 5.31783V5.30454C31.1992 4.01056 32.2515 2.95769 33.5448 2.95769C34.1926 2.95769 34.7176 2.4324 34.7176 1.78427C34.7176 1.13613 34.1926 0.61084 33.5448 0.61084C30.9582 0.61084 28.8535 2.71659 28.8535 5.30454V5.32333C25.4321 5.44434 22.9894 6.47109 22.9894 9.99824C22.9894 11.113 23.256 12.3987 23.7352 13.6514L0.687324 24.1852C0.271795 24.3755 0.00195312 24.7971 0.00195312 25.2528V51.0681C0.00195312 51.7163 0.526977 52.2415 1.17478 52.2415H58.8779C59.5257 52.2415 60.0507 51.7163 60.0507 51.0681V25.2528C60.0507 16.5195 53.8315 8.6433 45.198 6.17453ZM39.5363 8.81886C40.9808 8.13864 42.9141 7.96354 44.5543 8.43108C51.9014 10.5322 57.1448 16.8674 57.6624 24.0793H44.1003C43.4525 24.0793 42.9274 24.6046 42.9274 25.2528C42.9274 25.9009 43.4525 26.4262 44.1003 26.4262H57.7051V33.4805C57.0609 33.2861 56.4488 32.952 55.9738 32.5188C53.4091 30.1789 49.6863 30.1789 47.1217 32.5188C45.4463 34.047 43.1061 34.047 41.4307 32.5188C38.8532 30.1674 35.3902 30.1674 32.8132 32.5188C31.13 34.0539 29.0395 34.0539 27.3568 32.5188C24.7793 30.1674 21.3163 30.1674 18.7392 32.5188C17.0638 34.047 14.7237 34.047 13.0483 32.5188C10.4836 30.1789 6.76083 30.1789 4.19664 32.5184C3.6959 32.9749 3.03389 33.3214 2.34761 33.5103V26.4262H34.7176C35.3654 26.4262 35.8905 25.9009 35.8905 25.2528C35.8905 24.6046 35.3654 24.0793 34.7176 24.0793H6.56475L24.7701 15.7586C26.1766 18.049 28.0884 19.3856 30.0263 19.3856C34.0341 19.3856 37.0633 13.8155 37.0633 9.99824C37.0633 9.99366 37.0628 9.98862 37.0628 9.98403L39.5363 8.81886ZM2.34761 35.9172C3.61023 35.6958 4.83574 35.1105 5.77675 34.2528C7.45216 32.7242 9.79231 32.7242 11.4677 34.2528C14.0324 36.5928 17.7552 36.5928 20.3198 34.2528C22.0025 32.7173 24.0935 32.7173 25.7762 34.2528C28.3532 36.6043 31.8163 36.6043 34.3937 34.2528C36.0765 32.7173 38.1674 32.7173 39.8501 34.2528C42.4148 36.5928 46.1376 36.5928 48.7022 34.2528C50.3776 32.7242 52.7178 32.7242 54.3932 34.2528C55.2976 35.0779 56.4814 35.6555 57.7051 35.8943V40.521C57.0609 40.3267 56.4488 39.9925 55.9738 39.5594C53.4091 37.2194 49.6863 37.2194 47.1217 39.5594C45.4463 41.0876 43.1061 41.0876 41.4307 39.5594C38.8532 37.208 35.3902 37.208 32.8132 39.5594C31.13 41.0945 29.0395 41.0945 27.3568 39.5594C24.7793 37.208 21.3163 37.208 18.7392 39.5594C17.0638 41.0876 14.7237 41.0876 13.0483 39.5594C10.4836 37.2194 6.76083 37.2194 4.19664 39.5589C3.6959 40.0155 3.03389 40.362 2.34761 40.5508V35.9172ZM30.0263 7.65139C33.3872 7.65139 34.4744 8.06851 34.6792 9.4372V9.43811C35.0686 12.0366 32.6084 17.0388 30.0263 17.0388C27.5854 17.0388 25.335 12.6902 25.335 9.99824C25.335 8.26606 26.0438 7.65139 30.0263 7.65139ZM2.34761 49.8947V42.9577C3.61023 42.7363 4.83574 42.151 5.77675 41.2934C7.45216 39.7647 9.79231 39.7647 11.4677 41.2934C14.0324 43.6334 17.7552 43.6334 20.3198 41.2934C22.0025 39.7579 24.0935 39.7579 25.7762 41.2934C28.3532 43.6448 31.8163 43.6448 34.3937 41.2934C36.0765 39.7579 38.1674 39.7579 39.8501 41.2934C42.4148 43.6334 46.1376 43.6334 48.7022 41.2934C50.3776 39.7647 52.7178 39.7647 54.3932 41.2934C55.2976 42.1185 56.4814 42.696 57.7051 42.9348V49.8947H2.34761Z" fill="#A70230"/>
<path d="M52.7556 46.6295C52.7556 47.2495 52.2531 47.752 51.6331 47.752C51.0132 47.752 50.5107 47.2495 50.5107 46.6295C50.5107 46.0096 51.0132 45.5071 51.6331 45.5071C52.2531 45.5071 52.7556 46.0096 52.7556 46.6295Z" fill="#A70230"/>
<path d="M38.1638 46.6295C38.1638 47.2495 37.6613 47.752 37.0414 47.752C36.4214 47.752 35.9189 47.2495 35.9189 46.6295C35.9189 46.0096 36.4214 45.5071 37.0414 45.5071C37.6613 45.5071 38.1638 46.0096 38.1638 46.6295Z" fill="#A70230"/>
<path d="M24.1335 46.6295C24.1335 47.2495 23.631 47.752 23.0111 47.752C22.3911 47.752 21.8887 47.2495 21.8887 46.6295C21.8887 46.0096 22.3911 45.5071 23.0111 45.5071C23.631 45.5071 24.1335 46.0096 24.1335 46.6295Z" fill="#A70230"/>
<path d="M9.54266 46.6295C9.54266 47.2495 9.04021 47.752 8.42026 47.752C7.8003 47.752 7.29785 47.2495 7.29785 46.6295C7.29785 46.0096 7.8003 45.5071 8.42026 45.5071C9.04021 45.5071 9.54266 46.0096 9.54266 46.6295Z" fill="#A70230"/>
<path d="M40.4089 25.3038C40.4089 25.9238 39.9064 26.4262 39.2865 26.4262C38.6665 26.4262 38.1641 25.9238 38.1641 25.3038C38.1641 24.6838 38.6665 24.1814 39.2865 24.1814C39.9064 24.1814 40.4089 24.6838 40.4089 25.3038Z" fill="#A70230"/>
</svg>
