<svg width="58" height="58" viewBox="0 0 58 58" fill="none" xmlns="http://www.w3.org/2000/svg">
<path d="M32.4964 22.1591C32.9256 22.1591 33.3548 21.9953 33.6822 21.6679L35.5521 19.798C37.7197 19.7823 43.8911 19.3646 47.9122 15.3435C52.7526 10.503 52.3723 2.54334 52.3537 2.20681C52.3066 1.35332 51.6251 0.671882 50.7716 0.624701C50.4351 0.606366 42.4752 0.225792 37.635 5.06626C33.6148 9.08645 33.1961 15.2576 33.1802 17.4267L31.3105 19.2963C30.6556 19.9512 30.6556 21.013 31.3105 21.668C31.638 21.9953 32.0672 22.1591 32.4964 22.1591ZM40.0067 7.43781C42.6408 4.80375 46.7283 4.15787 48.9738 4.00884C48.8291 6.25081 48.1877 10.3247 45.5407 12.9718C43.7876 14.7247 41.3913 15.5966 39.3222 16.0279L45.5406 9.80936C46.1955 9.15453 46.1955 8.09264 45.5406 7.4377C44.8858 6.78287 43.8239 6.78287 43.1689 7.4377L36.9409 13.6657C37.3701 11.5991 38.2427 9.20194 40.0067 7.43781V7.43781Z" fill="#A70230"/>
<path d="M55.8977 25.4313H27.0149L22.4829 17.5816C20.8516 14.7561 19.6479 11.5045 18.5796 7.03831C18.3927 6.25704 18.0928 5.5055 17.6881 4.80461C16.4209 2.60983 14.2578 1.12006 11.7533 0.717465C9.24914 0.314641 6.70922 1.06852 4.78477 2.78536C2.35576 4.95208 1.41495 8.48671 2.44353 11.5809C2.90605 12.9721 3.70812 14.2169 4.76275 15.1805C7.80108 17.9569 10.113 20.7529 11.8309 23.7282L12.8142 25.4313H2.00906C1.08289 25.4313 0.332031 26.1822 0.332031 27.1084V37.1705C0.332031 44.0267 5.29493 49.7454 11.8168 50.9233L9.56499 55.4269C9.30505 55.9467 9.33288 56.5642 9.63844 57.0586C9.94399 57.5531 10.4838 57.8539 11.065 57.8539H46.8417C47.423 57.8539 47.9628 57.5531 48.2683 57.0586C48.5739 56.5642 48.6016 55.9468 48.3418 55.4269L46.09 50.9233C52.6118 49.7454 57.5747 44.0267 57.5747 37.1705V27.1084C57.5747 26.1822 56.8239 25.4313 55.8977 25.4313V25.4313ZM7.02518 12.7043C6.38321 12.1178 5.91263 11.3837 5.62631 10.5226C5.01386 8.68024 5.57287 6.57679 7.01746 5.28816C8.20268 4.23096 9.69568 3.78364 11.2209 4.02893C12.7245 4.27065 14.023 5.16462 14.7832 6.48153C15.0261 6.90236 15.2059 7.35214 15.3174 7.81869C16.4485 12.548 17.8025 16.1831 19.5781 19.2586L23.142 25.4313H16.6871L14.7356 22.0512C12.8432 18.7736 10.3212 15.7163 7.02518 12.7043V12.7043ZM13.7786 54.4999L15.4556 51.1458H42.4512L44.1283 54.4999H13.7786ZM54.2207 37.1705C54.2207 43.0271 49.456 47.7917 43.5995 47.7917H14.3073C8.45077 47.7917 3.68609 43.0271 3.68609 37.1705V35.4935H54.2207V37.1705ZM54.2207 32.1395H3.68609V28.7854H54.2207V32.1395Z" fill="#A70230"/>
</svg>
