<svg width="21" height="22" viewBox="0 0 21 22" xmlns="http://www.w3.org/2000/svg">
<path fill-rule="evenodd" clip-rule="evenodd" d="M6.2165 1.6407C6.05188 1.03396 5.4966 0.612305 4.86233 0.612305H1.40222C0.62782 0.612305 0 1.23414 0 2.00116C0 2.76818 0.62782 3.39001 1.40222 3.39001H3.7872L6.33513 12.782C6.7944 14.4749 8.29244 15.6123 10.0629 15.6123H15.5079C17.2641 15.6123 18.7486 14.521 19.2019 12.8965L20.8945 6.82835C21.1213 6.0155 20.9796 5.20673 20.4957 4.55119C19.9947 3.87259 19.2205 3.48344 18.3717 3.48344H6.71634L6.2165 1.6407ZM18.1432 6.26105L16.4987 12.1566C16.3838 12.5684 15.9948 12.8345 15.5078 12.8345H10.0628C9.57098 12.8345 9.17088 12.5309 9.04347 12.061L7.4699 6.26096H18.1432V6.26105Z" />
<path fill-rule="evenodd" clip-rule="evenodd" d="M9 17.6123C7.8984 17.6123 7 18.5108 7 19.6123C7 20.7139 7.8984 21.6123 9 21.6123C10.1016 21.6123 11 20.7138 11 19.6123C11 18.5108 10.1016 17.6123 9 17.6123Z" />
<path fill-rule="evenodd" clip-rule="evenodd" d="M16 17.6123C14.8984 17.6123 14 18.5108 14 19.6123C14 20.7139 14.8984 21.6123 16 21.6123C17.1016 21.6123 18 20.7138 18 19.6123C18 18.5108 17.1015 17.6123 16 17.6123Z" />
</svg>
