<svg width="17" height="17" viewBox="0 0 17 17" fill="none" xmlns="http://www.w3.org/2000/svg">
<path fill-rule="evenodd" clip-rule="evenodd" d="M0.0855051 1.08422C0.245634 0.722235 0.604202 0.48877 1.00002 0.48877H15.5691C15.9649 0.48877 16.3235 0.722235 16.4836 1.08422C16.6437 1.4462 16.5753 1.86856 16.309 2.16144L11.1731 7.81092V13.3599C11.1731 13.7187 10.9808 14.0501 10.6693 14.2281L6.8921 16.3865C6.5826 16.5633 6.20235 16.5621 5.89404 16.3831C5.58572 16.2042 5.39597 15.8747 5.39597 15.5182V7.81092L0.260079 2.16144C-0.00617623 1.86856 -0.0746242 1.4462 0.0855051 1.08422ZM3.26057 2.48877L7.13591 6.75164C7.30324 6.93571 7.39597 7.17554 7.39597 7.42431V13.795L9.17313 12.7795V7.42431C9.17313 7.17554 9.26585 6.93571 9.43319 6.75164L13.3085 2.48877H3.26057Z" fill="#A70230"/>
</svg>
