<svg width="16" height="16" viewBox="0 0 16 16" fill="none" xmlns="http://www.w3.org/2000/svg">
<path d="M8 16C12.4183 16 16 12.4183 16 8C16 3.58172 12.4183 0 8 0C3.58172 0 0 3.58172 0 8C0 12.4183 3.58172 16 8 16Z" fill="#A70230"/>
<path fill-rule="evenodd" clip-rule="evenodd" d="M7 4C7.55228 4 8 4.44772 8 5V8.28842L10.5234 9.34866C11.0325 9.5626 11.2719 10.1488 11.0579 10.658C10.844 11.1671 10.2578 11.4064 9.74863 11.1925L6.61264 9.87487C6.24145 9.71891 6 9.35556 6 8.95294V5C6 4.44772 6.44772 4 7 4Z" fill="white"/>
</svg>
