<svg width="19" height="19" viewBox="0 0 19 19" fill="none" xmlns="http://www.w3.org/2000/svg">
<path fill-rule="evenodd" clip-rule="evenodd" d="M0.285383 1.18168C0.665894 0.820298 1.28282 0.820298 1.66333 1.18168L9.5 8.62445L17.3367 1.18168C17.7172 0.820298 18.3341 0.820298 18.7146 1.18168C19.0951 1.54307 19.0951 2.12899 18.7146 2.49037L10.878 9.93314L18.2274 16.9132C18.6079 17.2746 18.6079 17.8605 18.2274 18.2219C17.8469 18.5833 17.23 18.5833 16.8495 18.2219L9.5 11.2418L2.15051 18.2219C1.77 18.5833 1.15307 18.5833 0.772563 18.2219C0.392052 17.8605 0.392052 17.2746 0.772563 16.9132L8.12205 9.93314L0.285383 2.49037C-0.0951277 2.12899 -0.0951277 1.54307 0.285383 1.18168Z" fill="black"/>
</svg>
