<svg width="19" height="19" viewBox="0 0 19 19" xmlns="http://www.w3.org/2000/svg">
<path fill-rule="evenodd" clip-rule="evenodd" d="M4.00022 0C3.62145 0 3.27518 0.214002 3.10579 0.552786L0.105792 6.55279C0.0304935 6.70338 -0.00323969 6.8639 0.000244144 7.02128V17C0.000244144 18.1046 0.895675 19 2.00024 19H17.0002C18.1048 19 19.0002 18.1046 19.0002 17V7.01889C19.0033 6.86227 18.9696 6.70262 18.8946 6.55279L15.8946 0.552786C15.7253 0.214002 15.379 0 15.0002 0H4.00022ZM16.3822 6L14.3822 2H10.5002V6H16.3822ZM8.50022 6V2H4.61825L2.61825 6H8.50022ZM7.1404 13.2682L8.50022 12.135V15C8.50022 15.5523 8.94794 16 9.50022 16C10.0525 16 10.5002 15.5523 10.5002 15V12.135L11.86 13.2682C12.2843 13.6218 12.9149 13.5645 13.2684 13.1402C13.622 12.7159 13.5647 12.0853 13.1404 11.7318L10.1404 9.23178C9.76956 8.92274 9.23088 8.92274 8.86003 9.23178L5.86003 11.7318C5.43576 12.0853 5.37843 12.7159 5.732 13.1402C6.08556 13.5645 6.71613 13.6218 7.1404 13.2682ZM2.00024 8H17.0002V17H2.00024L2.00024 8Z" />
</svg>
