<svg width="17" height="16" viewBox="0 0 17 16" fill="none" xmlns="http://www.w3.org/2000/svg">
<path fill-rule="evenodd" clip-rule="evenodd" d="M2.5 7.22199C2.5 4.33789 4.838 1.99988 7.72204 1.99988C10.6061 1.99988 12.9441 4.33789 12.9441 7.22199C12.9441 8.62324 12.3922 9.89557 11.4939 10.8335C11.4645 10.8569 11.4361 10.8823 11.4089 10.9095C11.3817 10.9367 11.3564 10.9651 11.3329 10.9945C10.3951 11.8924 9.12298 12.4441 7.72204 12.4441C4.838 12.4441 2.5 10.1061 2.5 7.22199ZM12.0724 12.9873C10.8625 13.9018 9.35559 14.4441 7.72204 14.4441C3.73341 14.4441 0.5 11.2106 0.5 7.22199C0.5 3.23334 3.73341 -0.00012207 7.72204 -0.00012207C11.7107 -0.00012207 14.9441 3.23334 14.9441 7.22199C14.9441 8.85588 14.4015 10.3631 13.4867 11.5732L16.2063 14.2928C16.5968 14.6833 16.5968 15.3165 16.2063 15.707C15.8158 16.0975 15.1826 16.0975 14.7921 15.707L12.0724 12.9873Z" fill="#A70230"/>
</svg>
