<svg width="18" height="16" viewBox="0 0 18 16" fill="none" xmlns="http://www.w3.org/2000/svg">
<path fill-rule="evenodd" clip-rule="evenodd" d="M4.00061 4.4623C5.12156 2.97247 6.93361 2 8.98647 2C12.4185 2 15.1589 4.70909 15.1589 8C15.1589 11.2909 12.4185 14 8.98647 14C6.91113 14 5.08189 13.0061 3.96402 11.4885C3.63647 11.0439 3.01046 10.9489 2.56579 11.2765C2.12113 11.604 2.02619 12.2301 2.35374 12.6747C3.83966 14.6919 6.26067 16 8.98647 16C13.4769 16 17.1589 12.4411 17.1589 8C17.1589 3.55892 13.4769 0 8.98647 0C6.34834 0 3.99571 1.2253 2.5 3.13286V1.659C2.5 1.10671 2.05228 0.658995 1.5 0.658995C0.947715 0.658995 0.5 1.10671 0.5 1.659V5.4623C0.5 6.01459 0.947715 6.4623 1.5 6.4623H5.30331C5.85559 6.4623 6.30331 6.01459 6.30331 5.4623C6.30331 4.91002 5.85559 4.4623 5.30331 4.4623H4.00061Z" fill="#A70230"/>
</svg>
