<svg width="15" height="18" viewBox="0 0 15 18" xmlns="http://www.w3.org/2000/svg">
<path fill-rule="evenodd" clip-rule="evenodd" d="M3.47949 4.08349C4.42679 3.13619 5.71161 2.604 7.0513 2.604C8.39099 2.604 9.6758 3.13619 10.6231 4.08349C11.5704 5.0308 12.1026 6.31562 12.1026 7.6553C12.1026 9.60664 10.824 11.548 9.351 13.1029C8.63492 13.8588 7.91546 14.4787 7.37389 14.9099C7.25708 15.0029 7.14892 15.0869 7.0513 15.1612C6.95368 15.0869 6.84552 15.0029 6.72871 14.9099C6.18714 14.4787 5.46767 13.8588 4.7516 13.1029C3.27856 11.548 2 9.60664 2 7.6553C2 6.31561 2.53219 5.0308 3.47949 4.08349ZM6.49609 17.2278C6.49636 17.228 6.4966 17.2281 7.0513 16.3961L6.4966 17.2281C6.8325 17.452 7.2701 17.452 7.606 17.2281L7.0513 16.3961C7.606 17.2281 7.60624 17.228 7.60651 17.2278L7.60715 17.2273L7.60886 17.2262L7.61393 17.2228L7.63052 17.2116C7.64441 17.2021 7.66391 17.1888 7.68863 17.1717C7.73806 17.1375 7.80845 17.088 7.89681 17.0242C8.07342 16.8967 8.32242 16.7112 8.61974 16.4745C9.21279 16.0022 10.0061 15.3194 10.8029 14.4784C12.3555 12.8395 14.1026 10.4105 14.1026 7.6553C14.1026 5.78518 13.3597 3.99166 12.0373 2.66928C10.7149 1.34691 8.92142 0.604004 7.0513 0.604004C5.18118 0.604004 3.38765 1.34691 2.06528 2.66928C0.742902 3.99166 0 5.78518 0 7.6553C0 10.4105 1.74709 12.8395 3.2997 14.4784C4.09645 15.3194 4.88981 16.0022 5.48286 16.4745C5.78017 16.7112 6.02917 16.8967 6.20579 17.0242C6.29415 17.088 6.36454 17.1375 6.41397 17.1717C6.43869 17.1888 6.45818 17.2021 6.47208 17.2116L6.48867 17.2228L6.49374 17.2262L6.49544 17.2273L6.49609 17.2278ZM6.03416 7.6553C6.03416 7.09357 6.48953 6.6382 7.05126 6.6382C7.61298 6.6382 8.06835 7.09357 8.06835 7.6553C8.06835 8.21703 7.61298 8.6724 7.05126 8.6724C6.48953 8.6724 6.03416 8.21703 6.03416 7.6553ZM7.05126 4.6382C5.38496 4.6382 4.03416 5.989 4.03416 7.6553C4.03416 9.3216 5.38496 10.6724 7.05126 10.6724C8.71755 10.6724 10.0684 9.3216 10.0684 7.6553C10.0684 5.989 8.71755 4.6382 7.05126 4.6382Z" />
</svg>
