<svg width="17" height="17" viewBox="0 0 17 17" fill="none" xmlns="http://www.w3.org/2000/svg">
<path d="M15.9375 4.64614H12.5758C12.8169 4.48145 13.0241 4.31783 13.1686 4.1712C14.025 3.30952 14.025 1.90702 13.1686 1.04533C12.3367 0.208078 10.8853 0.207016 10.0523 1.04533C9.59225 1.50752 8.36931 3.3892 8.53825 4.64614H8.46175C8.62963 3.3892 7.40775 1.50752 6.94769 1.04533C6.11469 0.207016 4.66331 0.208078 3.83137 1.04533C2.975 1.90702 2.975 3.30952 3.83031 4.1712C3.97587 4.31783 4.18306 4.48145 4.42425 4.64614H1.0625C0.477063 4.64614 0 5.1232 0 5.70864V8.36489C0 8.65814 0.238 8.89614 0.53125 8.89614H1.0625V15.2711C1.0625 15.8566 1.53956 16.3336 2.125 16.3336L8.5 16.5L14.875 16.3336C15.4604 16.3336 15.9375 15.8566 15.9375 15.2711V8.89614H16.4688C16.762 8.89614 17 8.65814 17 8.36489V5.70864C17 5.1232 16.5229 4.64614 15.9375 4.64614ZM4.58469 1.79439C4.80038 1.57764 5.08619 1.45864 5.39006 1.45864C5.69287 1.45864 5.97869 1.57764 6.19438 1.79439C6.9105 2.51477 7.62238 4.35502 7.37481 4.61108C7.37481 4.61108 7.33019 4.64614 7.17825 4.64614C6.44406 4.64614 5.04263 3.88327 4.58469 3.42214C4.1395 2.97377 4.1395 2.24277 4.58469 1.79439ZM7.96875 15.2711H2.125V8.89614H7.96875V15.2711ZM7.96875 7.83364H1.0625V5.70864H7.17825H7.96875V7.83364ZM10.8056 1.79439C11.237 1.36195 11.985 1.36302 12.4153 1.79439C12.8605 2.24277 12.8605 2.97377 12.4153 3.42214C11.9574 3.88327 10.5559 4.64614 9.82175 4.64614C9.66981 4.64614 9.62412 4.61108 9.62412 4.61108C9.37762 4.35502 10.0895 2.51477 10.8056 1.79439ZM14.875 15.2711H9.03125V8.89614H14.875V15.2711ZM15.9375 7.83364H9.03125V5.70864H9.82175H15.9375V7.83364Z" fill="#A70230"/>
</svg>
