<svg width="180" height="35" viewBox="0 0 180 35" fill="none" xmlns="http://www.w3.org/2000/svg">
	<path d="M65.8097 25.8511V31.6061H64.0557V27.1965H62.396V31.6061H60.6348V25.8511H65.8097Z" fill="#A70230"/>
	<path d="M81.1033 29.6463L80.5379 27.5854L79.9943 29.6463H81.1033ZM81.4439 25.8511L83.3646 31.5983H81.6179L81.4077 30.8206H79.6609L79.458 31.5983H77.7402L79.6609 25.8511H81.4439Z" fill="#A70230"/>
	<path d="M106.608 27.8576H108.268V25.8511H110.022V31.6061H108.268V29.203H106.608V31.6061H104.847V25.8511H106.608V27.8576Z" fill="#A70230"/>
	<path d="M119.285 25.8511V31.6061H117.604V29.7785L117.691 28.3086L115.756 31.6061H114.11V25.8511H115.792V27.6865L115.705 29.1563L117.64 25.8511H119.285Z" fill="#A70230"/>
	<path d="M125.127 27.7176L126.671 25.8511H128.729L126.772 28.0209L128.939 31.6061H126.837L125.547 29.3119L125.127 29.7863V31.6061H123.373V25.8511H125.127V27.7176Z" fill="#A70230"/>
	<path d="M150.14 27.7176L151.683 25.8511H153.742L151.785 28.0209L153.952 31.6061H151.843L150.553 29.3119L150.14 29.7863V31.6061H148.386V25.8511H150.14V27.7176Z" fill="#A70230"/>
	<path d="M176.369 29.6463L175.804 27.5854L175.26 29.6463H176.369ZM176.71 25.8511L178.63 31.5983H176.883L176.673 30.8206H174.927L174.724 31.5983H173.006L174.927 25.8511H176.71Z" fill="#A70230"/>
	<path d="M17.4541 26.1379H17.9035V27.53H18.2876V26.1379H18.7442V25.7646H17.4541V26.1379Z" fill="white"/>
	<path d="M21.8809 27.53H22.265V26.1379H22.9101V25.7646H21.8809V27.53Z" fill="white"/>
	<path d="M101.623 5.88656L96.5493 20.9196H101.043L101.623 18.952H106.196L106.74 20.9351H111.313L106.29 5.9021H101.623V5.88656ZM102.478 15.8412L103.928 10.4594L105.377 15.8412H102.478ZM66.0575 11.8515L63.818 5.91765H58.6357L63.7962 16.8055C63.7231 17.0522 63.5779 17.2671 63.3821 17.4184C63.1863 17.5696 62.9503 17.6493 62.709 17.6454C62.379 17.6409 62.0544 17.5558 61.7596 17.3966V20.8185C62.4536 21.1071 63.1897 21.2625 63.9339 21.2773C65.6879 21.2773 66.8766 20.2741 68.058 17.5832L73.2329 5.84766H68.2826L66.0575 11.8515ZM81.278 20.9584H85.8732V9.39398H90.2219V20.9196H94.817V5.88656H81.2853V20.9196L81.278 20.9584ZM158.83 11.2683C158.153 11.4666 157.452 11.5583 156.75 11.5405C155.641 11.5405 155.003 10.9961 155.003 9.80617V5.91765H150.408V10.5839C150.408 13.8424 152.938 15.2501 155.003 15.2501C156.29 15.3344 157.581 15.2218 158.837 14.9157V20.9973H163.432V5.88656H158.881V11.2294L158.83 11.2683ZM143.443 20.9584H148.038V5.88656H143.443V20.9196V20.9584ZM174.884 5.92543H170.216L165.194 20.9584H169.687L170.216 18.9753H174.826L175.37 20.9584H179.9L174.884 5.92543ZM171.115 15.8412L172.565 10.4594L174.014 15.8412H171.115ZM114.792 13.6714C114.792 17.1944 114.27 17.5599 113.343 17.5599C112.987 17.5803 112.63 17.5302 112.292 17.4121V20.9196C113.104 21.1417 113.94 21.2489 114.778 21.2384C117.409 21.2384 119.177 19.7375 119.177 13.6791V9.40177H122.468V20.9273H127.056V5.88656H114.792V13.6636V13.6714ZM136.412 11.1283H134.238V5.88656H129.65V20.9196H136.362C139.986 20.9196 142.203 19.3641 142.203 16.1211C142.203 12.8781 139.964 11.1283 136.405 11.1283H136.412ZM135.927 17.3966H134.238V14.6202H135.383C136.833 14.6202 137.913 14.6979 137.913 16.02C137.913 17.1477 137.058 17.3966 135.927 17.3966Z" fill="#A70230"/>
	<path d="M25.9401 34.8253C19.2141 34.8253 12.8577 33.4255 8.0524 30.8824C2.86294 28.1371 0 24.3341 0 20.1734C0 16.0127 2.85569 12.2175 8.0524 9.47216C12.027 7.48164 16.2947 6.24999 20.6636 5.83251V5.43588C20.7166 4.01995 21.2714 2.67914 22.2147 1.68734C22.9623 0.901012 23.9035 0.359924 24.9278 0.12761C25.952 -0.104704 27.0168 -0.0185852 27.997 0.37584C28.9773 0.770266 29.8323 1.45661 30.4616 2.3543C31.0909 3.25199 31.4685 4.32374 31.5499 5.44366V5.86363C35.8012 6.30619 39.951 7.5239 43.8205 9.46438C49.01 12.2097 51.8656 16.0049 51.8656 20.1656C51.8656 24.3263 49.01 28.1215 43.8205 30.8746C39.0152 33.4177 32.6661 34.8175 25.9328 34.8175" fill="#A70230"/>
	<path d="M43.4582 10.2653C39.4481 8.26563 35.1387 7.04644 30.731 6.6646V5.45138C30.6655 4.19853 30.1488 3.02201 29.2901 2.17023C28.4313 1.31844 27.2977 0.85804 26.1286 0.886237C25.5122 0.870038 24.899 0.987768 24.3261 1.23234C23.7531 1.47692 23.2322 1.84331 22.7946 2.30945C22.0103 3.13399 21.5422 4.24383 21.4827 5.42027V6.61794C16.965 6.97184 12.5447 8.20238 8.43656 10.2498C3.54426 12.8396 0.84082 16.3548 0.84082 20.1655C0.84082 23.9763 3.53701 27.4915 8.43656 30.0813C13.1332 32.5699 19.3518 33.9698 25.9619 33.9698C32.5719 33.9698 38.7906 32.601 43.4872 30.0813C48.3795 27.4915 51.0757 23.9763 51.0757 20.1655C51.0757 16.3548 48.3795 12.8396 43.4872 10.2498" fill="#A70230"/>
	<path d="M35.2105 12.7308C36.1237 12.5286 36.2397 13.8118 35.4931 14.2162C35.0529 14.403 34.6441 14.6657 34.2828 14.9939C33.9421 15.3983 33.0506 17.3737 34.2393 17.3814C35.6091 17.3814 36.4136 15.826 36.5731 15.4683C37.0659 14.154 37.2254 13.8273 37.8487 14.154C38.2401 14.3562 37.6965 15.445 37.5878 15.8027C36.5984 18.7519 36.307 21.9186 36.7398 25.0185C36.8195 25.7962 36.6455 26.3328 36.073 26.4106C35.5004 26.4883 35.051 26.3017 34.8698 25.1896C34.3263 21.861 36.015 17.2726 36.015 17.2726C36.015 17.2726 34.2103 19.8934 32.8767 18.6258C31.9272 17.677 33.0144 15.515 33.0506 15.3361C32.7245 15.6083 32.3258 15.6472 32.2533 15.3905C32.0069 14.6828 33.4202 14.7139 33.6594 14.294C34.1668 13.2907 34.6017 12.8319 35.2177 12.6919" fill="white"/>
	<path d="M9.57352 17.5296C9.71123 16.6664 11.7841 11.4402 19.1914 10.1103C19.7566 9.97039 20.344 9.97039 20.9092 10.1103C21.4165 10.2736 21.2716 10.7791 20.9092 10.8103C20.5468 10.8414 13.5091 11.6657 11.6826 17.8485C11.0521 19.4039 9.3561 18.9139 9.58803 17.4907" fill="white"/>
	<path d="M19.9974 26.2631C19.2726 26.8075 17.939 24.1166 18.4463 16.4485C18.5261 15.2275 20.2293 15.1419 20.0916 16.744C19.3161 25.7032 20.4178 25.9209 20.0047 26.2631" fill="white"/>
	<path d="M10.734 27.4682C11.7631 25.7417 12.5097 25.2207 12.9083 23.2842C12.7673 23.5935 12.5642 23.8655 12.3135 24.0807C12.0629 24.2958 11.771 24.4487 11.4587 24.5285C11.1363 24.5107 10.8244 24.3993 10.5563 24.2062C10.2883 24.0131 10.0741 23.7455 9.9367 23.4319C9.50962 22.4412 9.34654 21.3429 9.46558 20.2589C9.46558 18.8746 11.5385 19.1234 11.4878 20.0645C11.3428 22.0165 11.7269 22.5531 12.0893 22.7009C12.4517 22.8487 13.2127 22.2887 13.3794 21.3088C13.4954 20.7255 13.5824 20.4222 13.5824 20.4222C13.5876 20.3528 13.6055 20.2851 13.6351 20.2231C13.6647 20.1611 13.7055 20.1059 13.7549 20.0608C13.8044 20.0156 13.8617 19.9814 13.9235 19.96C13.9853 19.9386 14.0504 19.9305 14.1151 19.9362C14.1798 19.9418 14.2429 19.961 14.3007 19.9928C14.3585 20.0245 14.4099 20.0682 14.4519 20.1213C14.494 20.1744 14.5259 20.2358 14.5458 20.3021C14.5658 20.3684 14.5733 20.4383 14.5681 20.5078C14.3217 23.7819 13.7346 26.3094 12.2705 28.7592C11.8864 29.4047 10.0454 28.4326 10.705 27.476" fill="white"/>
	<path d="M18.0317 14.1156C17.9955 14.4811 16.6546 28.6275 16.5821 29.0164C16.4589 30.1363 14.3208 30.3929 14.5527 28.0831C14.6614 27.0721 16.2995 14.1311 16.3285 13.9211C16.5169 12.5057 18.1622 12.6301 17.9955 14.1156" fill="white"/>
	<path d="M23.5622 22.6702C23.4664 22.8978 23.3184 23.0956 23.1321 23.2452C22.9458 23.3948 22.7272 23.4913 22.4967 23.5257C21.7212 23.5257 21.9169 22.3281 22.243 21.807C22.336 21.5873 22.4829 21.3988 22.668 21.2618C22.8532 21.1248 23.0695 21.0444 23.294 21.0293C23.9753 21.1848 22.8809 21.9392 23.294 22.1647L23.5114 22.2736C23.5114 22.2736 23.7868 22.3747 23.5622 22.6858V22.6702ZM31.5348 20.5316C31.7595 20.6638 31.1507 21.4726 31.0927 21.5581C31.0927 21.4648 31.3246 20.4071 31.5348 20.5316ZM34.5571 25.4544C34.0136 24.1401 33.7237 23.4791 34.0353 22.017C34.115 21.7292 34.0933 21.1848 33.5714 21.2393C33.0496 21.2937 33.1148 22.017 32.7235 21.9081C31.4841 21.597 31.6363 22.3514 31.7087 22.538C32.0204 23.2768 31.8392 23.7901 31.3971 23.7901C30.955 23.7901 30.4766 22.9502 31.2884 22.1181C31.2377 22.1725 33.325 20.0883 32.2596 19.4428C31.4551 18.9995 30.723 20.2594 30.4404 20.9982C29.5634 23.3313 29.2662 23.7746 28.9908 23.8368C28.7154 23.899 29.027 22.4058 29.259 21.7526C29.5779 20.8893 29.7374 19.855 29.201 19.855C28.0414 19.855 26.8962 22.3047 26.4251 23.0746C25.7003 24.2101 25.7945 23.1446 25.3017 23.1757C24.6783 23.238 24.7581 23.9923 24.4609 23.9535C23.997 23.9535 24.8668 21.9703 24.99 21.5192C25.0494 21.4239 25.0851 21.3139 25.094 21.1996C25.1029 21.0854 25.0846 20.9705 25.0408 20.866C24.7074 20.4849 24.4319 20.9982 24.3667 21.0682C24.3667 19.7772 23.5984 19.7383 22.8301 20.096C22.1718 20.432 21.6068 20.9468 21.1911 21.5893C20.7754 22.2318 20.5234 22.9798 20.4601 23.759C20.3079 25.2367 21.7792 26.8698 23.1708 24.4434C23.1708 24.4434 23.0403 25.6722 23.8448 25.68C24.4029 25.68 24.9682 24.3967 24.9682 24.3967C24.9682 24.3967 24.9682 25.68 25.693 25.68C26.2874 25.68 26.8527 23.969 27.1426 23.238C27.3736 22.7028 27.635 22.1834 27.9254 21.6826C28.0993 21.4104 28.1936 21.5348 28.1138 21.6826C27.0339 24.4123 27.5702 25.68 28.1138 25.68C28.6574 25.68 29.1068 25.3455 29.7301 24.2023C29.7487 24.6012 29.9096 24.9771 30.1795 25.2522C30.4493 25.5273 30.8074 25.6805 31.1797 25.68C32.0639 25.68 32.6945 24.0234 32.4335 22.9113C32.3103 22.3514 32.8394 22.4136 32.8467 22.7325C32.7838 23.2716 32.8584 23.8189 33.0627 24.3161C33.2669 24.8132 33.5931 25.2416 34.0063 25.5555C34.1513 25.6722 34.7311 25.8744 34.5064 25.4" fill="white"/>
	<path d="M39.8347 22.4912C39.5231 22.779 39.9652 23.0045 39.9652 23.0045C40.0812 23.1056 39.9 23.3856 39.4941 23.51C39.3568 23.5728 39.2047 23.5886 39.0588 23.5552C38.9128 23.5218 38.78 23.4409 38.6785 23.3235C38.577 23.206 38.5118 23.0579 38.4917 22.8992C38.4716 22.7405 38.4977 22.579 38.5664 22.4368C38.7765 21.5502 39.7115 20.8347 40.2261 21.0602C40.7407 21.2858 40.3058 21.9779 39.8275 22.4835L39.8347 22.4912ZM41.6249 26.5664C41.1667 25.4505 41.0183 24.2165 41.1973 23.0123C41.2408 22.4679 40.661 22.6234 40.661 22.6234C40.961 22.1061 41.0864 21.4938 41.0161 20.8891C40.9509 20.337 40.3493 20.0026 39.4796 20.2748C37.8851 20.7803 37.1893 22.6079 37.0733 23.9455C36.9573 25.2832 38.1315 26.9397 40.0304 24.3733C40.1718 25.3024 40.6068 26.1509 41.2625 26.7764C41.4002 26.893 41.8641 26.9864 41.6249 26.5664Z" fill="white"/>
	<path d="M28.9922 7.06121C28.0717 11.3619 26.9121 12.824 26.6584 13.1118C26.4047 13.3995 25.9771 13.3684 25.8032 12.7385C25.7524 12.5518 25.1291 10.3431 23.3896 10.9186C23.3896 10.9186 23.2302 10.9809 23.2012 10.8409C23.2092 10.784 23.2317 10.7307 23.2662 10.6868C23.3008 10.6428 23.346 10.61 23.3969 10.592C24.8464 9.75207 26.0786 11.2997 26.1003 11.323C26.4917 11.7663 27.028 11.1597 27.1875 10.4753C27.318 9.92317 27.2817 9.0288 26.1003 9.54209C25.9264 9.6043 24.5058 10.102 24.9769 8.68661C25.0929 8.2822 25.3538 7.66004 25.5132 7.17786C25.8394 6.19795 25.6727 4.55701 24.3681 5.42026C23.9846 5.74827 23.6519 6.13937 23.3824 6.57903C23.2954 6.71124 23.1505 6.64902 23.2229 6.4546C23.5139 5.64795 24.0336 4.95972 24.7087 4.48701C25.4843 4.05927 27.0063 4.60366 26.1583 6.82012C25.8467 7.6756 25.9336 8.59329 26.5859 8.59329C27.0492 8.54915 27.4927 8.37109 27.8692 8.07803C28.2457 7.78497 28.5411 7.38788 28.724 6.92901C28.811 6.71903 29.0212 6.78902 28.9632 7.06899" fill="white"/>
	<path d="M25.9398 32.2204C12.8936 32.2204 2.34075 26.7765 2.34075 20.1271C2.34075 14.2399 10.5453 9.34033 21.4026 8.25932H21.6418V18.0662H30.5929V8.28265H30.7451C41.4864 9.41809 49.5895 14.2865 49.5895 20.1271C49.5895 26.8076 39.0221 32.2204 25.9905 32.2204H25.9398ZM23.0914 5.71623C23.1179 4.86908 23.4546 4.0673 24.0286 3.48491C24.6026 2.90253 25.3674 2.58651 26.1572 2.60542C26.9494 2.58235 27.718 2.89651 28.2951 3.47934C28.8722 4.06216 29.211 4.86632 29.2375 5.71623V15.8264H23.0769V5.73178L23.0914 5.71623ZM43.5158 10.258C39.5057 8.2583 35.1963 7.03909 30.7886 6.65725V5.44403C30.7231 4.19118 30.2064 3.01466 29.3477 2.16288C28.4889 1.3111 27.3553 0.850716 26.1862 0.878912C25.5697 0.862714 24.9566 0.980444 24.3837 1.22502C23.8107 1.4696 23.2898 1.83596 22.8522 2.3021C22.0679 3.12664 21.5998 4.23648 21.5403 5.41292V6.61059C17.0227 6.96449 12.6023 8.19503 8.49417 10.2425C3.60187 12.8322 0.898438 16.3474 0.898438 20.1582C0.898438 23.9689 3.59462 27.4842 8.49417 30.0739C13.1908 32.5626 19.4094 33.9624 26.0195 33.9624C32.6295 33.9624 38.8482 32.5937 43.5448 30.0739C48.4371 27.4842 51.1333 23.9689 51.1333 20.1582C51.1333 16.3474 48.4371 12.8322 43.5448 10.2425" fill="white"/>
	<path d="M32.767 12.731C32.5182 12.7219 32.2774 12.6344 32.0746 12.4794C31.8718 12.3243 31.7161 12.1087 31.6267 11.8594C31.5373 11.61 31.5183 11.338 31.5721 11.0771C31.6258 10.8162 31.7499 10.5781 31.9289 10.3924C32.1079 10.2067 32.3338 10.0817 32.5786 10.0328C32.8234 9.98398 33.0762 10.0135 33.3054 10.1178C33.5346 10.222 33.7303 10.3963 33.8678 10.619C34.0053 10.8417 34.0788 11.1029 34.0789 11.3701C34.0761 11.5519 34.0399 11.7313 33.9724 11.8981C33.905 12.0649 33.8075 12.2158 33.6857 12.3421C33.5639 12.4685 33.42 12.5679 33.2624 12.6347C33.1048 12.7014 32.9365 12.7341 32.767 12.731ZM32.767 9.73689C32.4663 9.74608 32.1747 9.85027 31.9288 10.0364C31.683 10.2226 31.4938 10.4824 31.3849 10.7834C31.276 11.0843 31.2523 11.4131 31.3167 11.7285C31.3811 12.0439 31.5308 12.3318 31.747 12.5564C31.9632 12.7809 32.2364 12.932 32.5323 12.9907C32.8281 13.0495 33.1336 13.0133 33.4104 12.8866C33.6872 12.76 33.923 12.5486 34.0883 12.2788C34.2536 12.009 34.3411 11.6929 34.3398 11.3701C34.3303 10.9307 34.16 10.513 33.8656 10.2073C33.5713 9.9017 33.1766 9.73269 32.767 9.73689Z" fill="white"/>
	<path d="M32.8471 11.1751H32.5282V10.7474H32.8254C32.9558 10.7474 33.1008 10.7474 33.1008 10.9418C33.1008 11.1363 33.0065 11.1751 32.8471 11.1751ZM33.4849 10.9418C33.4849 10.5374 33.2457 10.3974 32.8254 10.3896H32.1006V12.2095H32.4702V11.4318H32.6369L32.7891 11.7118L33.0355 12.1939H33.4922L33.0501 11.4162C33.1078 11.4187 33.1653 11.4079 33.2188 11.3846C33.2723 11.3613 33.3205 11.3261 33.3603 11.2812C33.4001 11.2363 33.4305 11.1827 33.4495 11.1242C33.4685 11.0657 33.4756 11.0035 33.4704 10.9418" fill="white"/>
	<path d="M158.401 25.8511L159.256 28.122L160.104 25.8511H161.995L160.017 30.3384C159.56 31.365 159.111 31.7538 158.437 31.7538C158.154 31.7465 157.874 31.686 157.611 31.575V30.2684C157.724 30.3236 157.848 30.3502 157.973 30.3462C158.066 30.3492 158.157 30.3198 158.233 30.2623C158.309 30.2047 158.365 30.1223 158.393 30.0273L156.422 25.8511H158.401Z" fill="#A70230"/>
	<path d="M168.448 28.1998C168.446 28.0693 168.42 27.9407 168.37 27.8216C168.32 27.7026 168.249 27.5957 168.159 27.5076C168.069 27.4195 167.964 27.3519 167.849 27.3091C167.734 27.2663 167.612 27.2492 167.491 27.2587C166.875 27.2587 166.498 27.8264 166.498 28.9386C166.498 29.7163 166.665 30.494 167.556 30.494C167.675 30.494 167.793 30.4688 167.902 30.4198C168.012 30.3709 168.111 30.2992 168.195 30.2088C168.278 30.1184 168.344 30.0112 168.389 29.8933C168.434 29.7754 168.456 29.6491 168.455 29.5218H170.144C170.098 30.201 169.802 30.8327 169.323 31.2787C168.843 31.7247 168.219 31.9487 167.585 31.9016C166.838 31.9264 166.111 31.6314 165.566 31.0815C165.021 30.5317 164.702 29.772 164.679 28.9697C164.656 28.1673 164.931 27.388 165.443 26.8032C165.956 26.2183 166.664 25.8758 167.411 25.8511C169.05 25.8511 169.963 26.7221 170.108 28.1842H168.441L168.448 28.1998Z" fill="#A70230"/>
	<path d="M141.485 30.2918H142.254C142.688 30.2918 142.978 30.1984 142.978 29.7629C142.978 29.3274 142.572 29.2263 142.014 29.2263H141.485V30.2918ZM141.485 28.1842H142.21C142.281 28.1987 142.354 28.1968 142.425 28.1784C142.495 28.1601 142.561 28.1259 142.618 28.078C142.675 28.0301 142.722 27.9697 142.755 27.9009C142.788 27.832 142.808 27.7562 142.812 27.6787C142.812 27.2276 142.471 27.2198 142.087 27.2198H141.485V28.1764V28.1842ZM139.731 25.8511H142.29C143.493 25.8511 144.464 26.1544 144.464 27.2976C144.449 27.5543 144.375 27.8031 144.249 28.0216C144.122 28.2401 143.947 28.4216 143.739 28.5497C144.007 28.6262 144.242 28.7996 144.404 29.0405C144.567 29.2813 144.647 29.575 144.631 29.8718C144.631 31.155 143.718 31.6061 142.326 31.6061H139.717V25.8588L139.731 25.8511Z" fill="#A70230"/>
	<path d="M97.3971 27.1965V27.8187C97.4486 28.66 97.2963 29.5012 96.955 30.2606H98.4408V27.1965H97.3898H97.3971ZM100.202 25.8511V30.2606H100.673V32.9282H98.9916V31.5983H96.4911V32.9282H94.8096V30.2606H95.23C95.6135 29.3409 95.7802 28.334 95.7156 27.3287V25.8511H100.173H100.202Z" fill="#A70230"/>
	<path d="M88.2726 28.0743H88.4175C88.9684 28.0743 89.28 27.9576 89.28 27.491C89.2652 27.405 89.2347 27.3229 89.1901 27.2497C89.1456 27.1764 89.088 27.1133 89.0206 27.0641C88.9532 27.015 88.8773 26.9806 88.7974 26.9631C88.7175 26.9456 88.6352 26.9453 88.5552 26.9622C88.3854 26.9446 88.2152 26.9919 88.0747 27.0958C87.9341 27.1996 87.8322 27.3534 87.7869 27.5299H86.3374C86.4316 26.1922 87.5115 25.6245 88.6567 25.6245C90.0048 25.6245 90.947 26.3167 90.947 27.281C90.9444 27.5528 90.8692 27.8181 90.7305 28.0455C90.5918 28.2729 90.3953 28.4529 90.1643 28.5642C90.4417 28.6399 90.6857 28.8175 90.8539 29.0661C91.022 29.3147 91.1037 29.6187 91.0847 29.9252C91.0847 31.014 90.2367 31.6828 88.6277 31.6828C87.0187 31.6828 86.2214 31.0296 86.1055 29.5208H87.555C87.5615 29.6455 87.5925 29.7673 87.6459 29.8782C87.6994 29.9892 87.774 30.0867 87.865 30.1646C87.956 30.2424 88.0613 30.2987 88.174 30.3298C88.2867 30.361 88.4043 30.3662 88.519 30.3452C89.1133 30.3452 89.4105 30.0808 89.4105 29.7386C89.4105 29.2175 88.9539 29.132 88.403 29.132H88.2581V28.0821L88.2726 28.0743Z" fill="#A70230"/>
	<path d="M72.2255 28.3938H72.9503C73.0409 28.4159 73.1352 28.415 73.2254 28.391C73.3157 28.3669 73.3994 28.3205 73.4699 28.2555C73.5404 28.1904 73.5957 28.1085 73.6313 28.0164C73.667 27.9242 73.6819 27.8244 73.6751 27.7249C73.6751 27.1883 73.1098 27.1183 72.7401 27.1183H72.24V28.3938H72.2255ZM72.2255 31.5046H70.457V25.7573H73.0373C74.5811 25.7573 75.3204 26.535 75.3204 27.7016C75.3204 28.8681 74.6391 29.7236 73.0953 29.7236H72.211V31.5123L72.2255 31.5046Z" fill="#A70230"/>
</svg>
