<svg width="139" height="25" viewBox="0 0 139 25" fill="none" xmlns="http://www.w3.org/2000/svg">
<path d="M50.6922 18.5576V22.689H49.3412V19.5235H48.0627V22.689H46.7061V18.5576H50.6922Z" fill="#A70230"/>
<path d="M62.4723 21.2821L62.0368 19.8026L61.6181 21.2821H62.4723ZM62.7347 18.5576L64.2142 22.6834H62.8687L62.7068 22.1251H61.3613L61.205 22.6834H59.8818L61.3613 18.5576H62.7347Z" fill="#A70230"/>
<path d="M82.1184 19.998H83.3968V18.5576H84.7479V22.689H83.3968V20.9639H82.1184V22.689H80.7617V18.5576H82.1184V19.998Z" fill="#A70230"/>
<path d="M91.8837 18.5576V22.689H90.5884V21.377L90.6554 20.3218L89.1648 22.689H87.8975V18.5576H89.1927V19.8752L89.1257 20.9303L90.6163 18.5576H91.8837Z" fill="#A70230"/>
<path d="M96.3833 19.8975L97.5724 18.5576H99.158L97.6506 20.1152L99.3199 22.689H97.7008L96.7071 21.042L96.3833 21.3826V22.689H95.0322V18.5576H96.3833V19.8975Z" fill="#A70230"/>
<path d="M115.65 19.8975L116.839 18.5576H118.425L116.917 20.1152L118.586 22.689H116.962L115.968 21.042L115.65 21.3826V22.689H114.299V18.5576H115.65V19.8975Z" fill="#A70230"/>
<path d="M135.854 21.2821L135.419 19.8026L135 21.2821H135.854ZM136.117 18.5576L137.596 22.6834H136.251L136.089 22.1251H134.743L134.587 22.6834H133.264L134.743 18.5576H136.117Z" fill="#A70230"/>
<path d="M13.4443 18.7636H13.7905V19.7629H14.0864V18.7636H14.4381V18.4956H13.4443V18.7636Z" fill="white"/>
<path d="M16.8545 19.7629H17.1504V18.7636H17.6473V18.4956H16.8545V19.7629Z" fill="white"/>
<path d="M78.2781 4.22617L74.3701 15.0179H77.8315L78.2781 13.6054H81.801L82.2197 15.029H85.7425L81.8735 4.23733H78.2781V4.22617ZM78.9369 11.3723L80.0535 7.50889L81.1701 11.3723H78.9369ZM50.8829 8.50824L49.1578 4.24849H45.166L49.141 12.0645C49.0847 12.2416 48.9728 12.3959 48.822 12.5045C48.6712 12.6131 48.4894 12.6702 48.3036 12.6675C48.0494 12.6642 47.7993 12.6031 47.5722 12.4888V14.9453C48.1069 15.1526 48.6738 15.264 49.2471 15.2747C50.5982 15.2747 51.5138 14.5545 52.4238 12.6228L56.41 4.19824H52.5968L50.8829 8.50824ZM62.607 15.0458H66.1465V6.74404H69.4963V15.0179H73.0358V4.22617H62.6126V15.0179L62.607 15.0458ZM122.344 8.08952C121.822 8.23193 121.282 8.29775 120.742 8.28492C119.887 8.28492 119.396 7.89411 119.396 7.03993V4.24849H115.857V7.59822C115.857 9.93745 117.805 10.948 119.396 10.948C120.387 11.0085 121.381 10.9276 122.35 10.7079V15.0737H125.889V4.22617H122.383V8.06161L122.344 8.08952ZM110.491 15.0458H114.031V4.22617H110.491V15.0179V15.0458ZM134.71 4.25407H131.115L127.246 15.0458H130.707L131.115 13.6222H134.665L135.084 15.0458H138.573L134.71 4.25407ZM131.807 11.3723L132.924 7.50889L134.04 11.3723H131.807ZM88.4223 9.81463C88.4223 12.3437 88.0203 12.6061 87.3057 12.6061C87.0316 12.6208 86.7572 12.5848 86.4962 12.5V15.0179C87.1217 15.1774 87.7656 15.2543 88.4111 15.2468C90.4377 15.2468 91.7999 14.1693 91.7999 9.82022V6.74963H94.3346V15.0235H97.8685V4.22617H88.4223V9.80906V9.81463ZM105.076 7.98903H103.401V4.22617H99.8672V15.0179H105.037C107.828 15.0179 109.537 13.9013 109.537 11.5732C109.537 9.24517 107.812 7.98903 105.07 7.98903H105.076ZM104.702 12.4888H103.401V10.4957H104.283C105.4 10.4957 106.232 10.5516 106.232 11.5007C106.232 12.3102 105.573 12.4888 104.702 12.4888Z" fill="#A70230"/>
<path d="M19.9812 25C14.8003 25 9.90408 23.9951 6.20262 22.1695C2.20527 20.1987 0 17.4687 0 14.4818C0 11.495 2.19969 8.77053 6.20262 6.79977C9.26422 5.37083 12.5515 4.48667 15.9168 4.18698V3.90224C15.9576 2.88579 16.385 1.92327 17.1116 1.21129C17.6875 0.646808 18.4124 0.258378 19.2014 0.0916073C19.9904 -0.0751637 20.8106 -0.0133417 21.5656 0.269804C22.3207 0.55295 22.9793 1.04566 23.464 1.69008C23.9488 2.3345 24.2396 3.10388 24.3023 3.90783V4.20931C27.5771 4.52701 30.7735 5.40117 33.7542 6.79418C37.7515 8.76494 39.9512 11.4894 39.9512 14.4762C39.9512 17.4631 37.7515 20.1875 33.7542 22.1639C30.0527 23.9895 25.1621 24.9944 19.9756 24.9944" fill="#A70230"/>
<path d="M33.4749 7.36928C30.3859 5.93374 27.0665 5.05853 23.6713 4.78441V3.91348C23.6208 3.0141 23.2229 2.16951 22.5614 1.55805C21.8999 0.946578 21.0267 0.616068 20.1262 0.63631C19.6513 0.624682 19.179 0.709196 18.7377 0.88477C18.2964 1.06034 17.8951 1.32336 17.558 1.65799C16.9539 2.2499 16.5934 3.04662 16.5475 3.89115V4.75092C13.0677 5.00497 9.66277 5.88834 6.49832 7.35812C2.72987 9.21722 0.647461 11.7407 0.647461 14.4763C0.647461 17.2119 2.72429 19.7354 6.49832 21.5945C10.116 23.381 14.9062 24.3859 19.9978 24.3859C25.0893 24.3859 29.8795 23.4033 33.4972 21.5945C37.2656 19.7354 39.3425 17.2119 39.3425 14.4763C39.3425 11.7407 37.2656 9.21722 33.4972 7.35812" fill="#A70230"/>
<path d="M27.1222 9.13924C27.8257 8.99408 27.915 9.91526 27.34 10.2056C27.0009 10.3397 26.686 10.5283 26.4076 10.7639C26.1452 11.0542 25.4585 12.4722 26.3741 12.4778C27.4293 12.4778 28.049 11.3612 28.1718 11.1044C28.5514 10.1609 28.6743 9.92642 29.1544 10.1609C29.4559 10.3061 29.0372 11.0877 28.9534 11.3445C28.1913 13.4616 27.9668 15.7349 28.3002 17.9602C28.3616 18.5185 28.2276 18.9037 27.7866 18.9595C27.3455 19.0154 26.9994 18.8814 26.8598 18.083C26.4411 15.6935 27.7419 12.3996 27.7419 12.3996C27.7419 12.3996 26.3518 14.2811 25.3245 13.3711C24.5932 12.6899 25.4306 11.1379 25.4585 11.0095C25.2073 11.2049 24.9002 11.2328 24.8444 11.0486C24.6546 10.5405 25.7432 10.5629 25.9275 10.2614C26.3183 9.54121 26.6533 9.21182 27.1278 9.11133" fill="white"/>
<path d="M7.37462 12.584C7.4807 11.9643 9.07742 8.21264 14.7831 7.25796C15.2185 7.1575 15.6709 7.1575 16.1063 7.25796C16.4971 7.3752 16.3854 7.73809 16.1063 7.76042C15.8271 7.78275 10.4061 8.37453 8.99923 12.8129C8.51352 13.9295 7.20715 13.5778 7.3858 12.5561" fill="white"/>
<path d="M15.4034 18.8534C14.8451 19.2442 13.8178 17.3125 14.2086 11.8078C14.27 10.9313 15.582 10.8699 15.4759 12.0199C14.8786 18.4514 15.7272 18.6077 15.409 18.8534" fill="white"/>
<path d="M8.26787 19.7189C9.06064 18.4795 9.63568 18.1054 9.94274 16.7153C9.83409 16.9373 9.67765 17.1326 9.4846 17.287C9.29155 17.4415 9.06667 17.5513 8.82616 17.6085C8.57778 17.5958 8.33755 17.5158 8.13106 17.3772C7.92458 17.2385 7.7596 17.0464 7.65377 16.8213C7.32479 16.1101 7.19918 15.3217 7.29087 14.5435C7.29087 13.5498 8.8876 13.7284 8.84852 14.4039C8.73686 15.8052 9.03273 16.1905 9.31187 16.2965C9.59102 16.4026 10.1772 16.0006 10.3056 15.2972C10.395 14.8785 10.462 14.6608 10.462 14.6608C10.466 14.6109 10.4798 14.5623 10.5026 14.5178C10.5254 14.4733 10.5568 14.4337 10.5949 14.4013C10.633 14.3689 10.6771 14.3443 10.7247 14.329C10.7723 14.3136 10.8225 14.3078 10.8723 14.3118C10.9222 14.3159 10.9707 14.3297 11.0153 14.3525C11.0598 14.3753 11.0994 14.4066 11.1318 14.4447C11.1642 14.4828 11.1888 14.5269 11.2041 14.5746C11.2195 14.6222 11.2253 14.6723 11.2212 14.7222C11.0314 17.0726 10.5792 18.887 9.45144 20.6456C9.15555 21.109 7.73751 20.4111 8.24555 19.7244" fill="white"/>
<path d="M13.8896 10.1328C13.8617 10.3952 12.8289 20.5505 12.773 20.8297C12.6781 21.6336 11.0312 21.8178 11.2098 20.1597C11.2936 19.4339 12.5553 10.144 12.5776 9.99326C12.7228 8.97718 13.9901 9.0665 13.8617 10.1328" fill="white"/>
<path d="M18.1498 16.2742C18.076 16.4376 17.9621 16.5796 17.8186 16.687C17.675 16.7944 17.5067 16.8636 17.3291 16.8883C16.7318 16.8883 16.8825 16.0286 17.1337 15.6545C17.2053 15.4968 17.3185 15.3614 17.4611 15.2631C17.6037 15.1647 17.7703 15.1071 17.9432 15.0962C18.468 15.2079 17.625 15.7494 17.9432 15.9113L18.1107 15.9895C18.1107 15.9895 18.3229 16.062 18.1498 16.2854V16.2742ZM24.291 14.7389C24.464 14.8338 23.9951 15.4144 23.9504 15.4758C23.9504 15.4088 24.1291 14.6496 24.291 14.7389ZM26.619 18.2729C26.2003 17.3294 25.977 16.8548 26.2171 15.8052C26.2785 15.5987 26.2617 15.2079 25.8598 15.2469C25.4578 15.286 25.5081 15.8052 25.2066 15.7271C24.2519 15.5037 24.3691 16.0453 24.425 16.1793C24.665 16.7097 24.5255 17.0781 24.1849 17.0781C23.8443 17.0781 23.4759 16.4752 24.1012 15.8778C24.0621 15.9169 25.67 14.4207 24.8493 13.9573C24.2296 13.6391 23.6657 14.5435 23.448 15.0739C22.7724 16.7487 22.5435 17.067 22.3314 17.1116C22.1192 17.1563 22.3593 16.0844 22.5379 15.6154C22.7836 14.9957 22.9064 14.2532 22.4933 14.2532C21.6 14.2532 20.7179 16.0118 20.355 16.5645C19.7968 17.3796 19.8693 16.6147 19.4897 16.6371C19.0096 16.6817 19.071 17.2233 18.8421 17.1954C18.4848 17.1954 19.1547 15.7717 19.2496 15.4479C19.2954 15.3795 19.3229 15.3005 19.3298 15.2185C19.3366 15.1365 19.3225 15.054 19.2887 14.979C19.0319 14.7054 18.8197 15.0739 18.7695 15.1241C18.7695 14.1974 18.1777 14.1694 17.5859 14.4263C17.0788 14.6674 16.6436 15.037 16.3234 15.4982C16.0032 15.9595 15.8091 16.4964 15.7603 17.0558C15.6431 18.1165 16.7764 19.289 17.8483 17.5471C17.8483 17.5471 17.7478 18.4292 18.3675 18.4348C18.7974 18.4348 19.2329 17.5136 19.2329 17.5136C19.2329 17.5136 19.2329 18.4348 19.7912 18.4348C20.249 18.4348 20.6844 17.2065 20.9077 16.6817C21.0857 16.2976 21.2871 15.9247 21.5107 15.5652C21.6447 15.3698 21.7173 15.4591 21.6559 15.5652C20.824 17.5248 21.2372 18.4348 21.6559 18.4348C22.0746 18.4348 22.4207 18.1947 22.9008 17.374C22.9152 17.6604 23.0391 17.9302 23.247 18.1277C23.4548 18.3252 23.7307 18.4351 24.0174 18.4348C24.6985 18.4348 25.1842 17.2456 24.9833 16.4473C24.8883 16.0453 25.2959 16.0899 25.3015 16.3188C25.253 16.7059 25.3106 17.0988 25.4679 17.4557C25.6252 17.8126 25.8764 18.1201 26.1948 18.3454C26.3064 18.4292 26.7531 18.5743 26.58 18.2338" fill="white"/>
<path d="M30.6839 16.1458C30.4439 16.3523 30.7844 16.5142 30.7844 16.5142C30.8737 16.5868 30.7342 16.7878 30.4215 16.8771C30.3158 16.9222 30.1987 16.9336 30.0862 16.9096C29.9738 16.8856 29.8715 16.8275 29.7933 16.7432C29.7151 16.6589 29.6649 16.5526 29.6494 16.4386C29.6339 16.3247 29.654 16.2088 29.7069 16.1067C29.8688 15.4703 30.589 14.9566 30.9854 15.1185C31.3818 15.2804 31.0468 15.7773 30.6783 16.1402L30.6839 16.1458ZM32.0629 19.0712C31.7099 18.2702 31.5956 17.3843 31.7335 16.5198C31.767 16.129 31.3204 16.2407 31.3204 16.2407C31.5515 15.8693 31.6481 15.4298 31.5939 14.9957C31.5437 14.5993 31.0803 14.3593 30.4104 14.5547C29.1821 14.9176 28.6462 16.2295 28.5568 17.1898C28.4675 18.15 29.372 19.3392 30.8347 17.4968C30.9435 18.1638 31.2786 18.773 31.7837 19.222C31.8898 19.3057 32.2471 19.3727 32.0629 19.0712Z" fill="white"/>
<path d="M22.3318 5.06898C21.6228 8.15632 20.7295 9.2059 20.5341 9.41247C20.3387 9.61903 20.0094 9.59671 19.8754 9.1445C19.8363 9.01051 19.3561 7.42497 18.0163 7.8381C18.0163 7.8381 17.8934 7.88276 17.8711 7.78227C17.8773 7.74147 17.8946 7.70318 17.9212 7.67165C17.9478 7.64011 17.9827 7.61656 18.0218 7.60362C19.1384 7.00066 20.0875 8.11166 20.1043 8.12841C20.4057 8.44663 20.8189 8.01117 20.9417 7.51988C21.0422 7.12349 21.0143 6.48145 20.1043 6.84992C19.9703 6.89458 18.876 7.25189 19.2389 6.2358C19.3282 5.94549 19.5292 5.49886 19.652 5.15272C19.9033 4.44927 19.7749 3.27129 18.7699 3.891C18.4745 4.12646 18.2183 4.40722 18.0107 4.72284C17.9437 4.81775 17.832 4.77308 17.8879 4.63351C18.112 4.05445 18.5123 3.56039 19.0323 3.22104C19.6297 2.91398 20.8021 3.30478 20.1489 4.89591C19.9089 5.51003 19.9758 6.16881 20.4783 6.16881C20.8352 6.13712 21.1768 6.0093 21.4668 5.79892C21.7568 5.58854 21.9844 5.30349 22.1253 4.97408C22.1923 4.82334 22.3542 4.87358 22.3095 5.07457" fill="white"/>
<path d="M19.9813 23.13C9.93206 23.13 1.80337 19.222 1.80337 14.4486C1.80337 10.2223 8.1232 6.70512 16.4864 5.9291H16.6706V12.9691H23.5655V5.94585H23.6827C31.9566 6.76095 38.1982 10.2558 38.1982 14.4486C38.1982 19.2443 30.0584 23.13 20.0204 23.13H19.9813ZM17.7872 4.1035C17.8076 3.49535 18.067 2.91978 18.5091 2.50171C18.9513 2.08363 19.5404 1.85677 20.1487 1.87034C20.759 1.85378 21.351 2.07931 21.7955 2.4977C22.2401 2.91609 22.5011 3.49337 22.5215 4.1035V11.3613H17.776V4.11466L17.7872 4.1035ZM33.5198 7.36391C30.4308 5.92837 27.1114 5.05314 23.7162 4.77902V3.90809C23.6658 3.00871 23.2678 2.16413 22.6063 1.55266C21.9449 0.94119 21.0716 0.610697 20.1711 0.630939C19.6962 0.61931 19.224 0.703825 18.7826 0.879399C18.3413 1.05497 17.94 1.31797 17.603 1.6526C16.9988 2.24451 16.6383 3.04123 16.5924 3.88576V4.74553C13.1126 4.99958 9.7077 5.88295 6.54324 7.35273C2.77479 9.21183 0.692383 11.7353 0.692383 14.4709C0.692383 17.2065 2.76921 19.73 6.54324 21.5891C10.161 23.3756 14.9511 24.3806 20.0427 24.3806C25.1343 24.3806 29.9244 23.398 33.5421 21.5891C37.3106 19.73 39.3874 17.2065 39.3874 14.4709C39.3874 11.7353 37.3106 9.21183 33.5421 7.35273" fill="white"/>
<path d="M25.2402 9.13922C25.0485 9.13264 24.863 9.06981 24.7068 8.95853C24.5506 8.84726 24.4306 8.69246 24.3618 8.51346C24.2929 8.33446 24.2783 8.13916 24.3197 7.9519C24.3611 7.76464 24.4567 7.5937 24.5946 7.4604C24.7324 7.32709 24.9065 7.23731 25.0951 7.20224C25.2836 7.16718 25.4783 7.18839 25.6549 7.26322C25.8315 7.33805 25.9821 7.46319 26.0881 7.62306C26.194 7.78292 26.2506 7.97043 26.2507 8.16221C26.2485 8.29272 26.2206 8.42151 26.1687 8.54125C26.1167 8.66098 26.0417 8.76931 25.9478 8.86004C25.854 8.95077 25.7432 9.02213 25.6218 9.07003C25.5003 9.11793 25.3707 9.14144 25.2402 9.13922ZM25.2402 6.9898C25.0085 6.99639 24.7839 7.07119 24.5945 7.20482C24.4051 7.33844 24.2594 7.52496 24.1755 7.74102C24.0917 7.95709 24.0734 8.19311 24.123 8.41951C24.1726 8.64592 24.2879 8.85264 24.4545 9.01382C24.621 9.175 24.8314 9.28347 25.0593 9.32564C25.2872 9.36782 25.5225 9.34183 25.7357 9.25092C25.9489 9.16001 26.1306 9.00822 26.2579 8.81457C26.3853 8.62091 26.4527 8.39398 26.4517 8.16221C26.4443 7.84679 26.3131 7.54693 26.0864 7.32752C25.8597 7.10811 25.5557 6.98678 25.2402 6.9898Z" fill="white"/>
<path d="M25.3016 8.02237H25.0559V7.71532H25.2849C25.3853 7.71532 25.497 7.71532 25.497 7.85489C25.497 7.99447 25.4244 8.02237 25.3016 8.02237ZM25.7929 7.85489C25.7929 7.56458 25.6087 7.46408 25.2849 7.4585H24.7266V8.76489H25.0113V8.2066H25.1397L25.2569 8.40759L25.4467 8.75373H25.7985L25.4579 8.19544C25.5024 8.19721 25.5467 8.18949 25.5879 8.17276C25.6291 8.15604 25.6663 8.13071 25.6969 8.09848C25.7276 8.06625 25.751 8.02783 25.7656 7.98583C25.7802 7.94382 25.7857 7.89919 25.7817 7.85489" fill="white"/>
<path d="M122.013 18.5576L122.672 20.1878L123.325 18.5576H124.783L123.258 21.7789C122.907 22.5159 122.561 22.795 122.041 22.795C121.823 22.7898 121.608 22.7463 121.405 22.6666V21.7287C121.492 21.7683 121.588 21.7874 121.684 21.7845C121.756 21.7867 121.826 21.7656 121.884 21.7243C121.943 21.683 121.986 21.6238 122.008 21.5556L120.489 18.5576H122.013Z" fill="#A70230"/>
<path d="M129.753 20.2437C129.751 20.15 129.731 20.0577 129.693 19.9722C129.655 19.8868 129.599 19.81 129.53 19.7468C129.461 19.6835 129.38 19.635 129.291 19.6043C129.203 19.5736 129.109 19.5613 129.016 19.5681C128.541 19.5681 128.251 19.9757 128.251 20.774C128.251 21.3323 128.379 21.8906 129.066 21.8906C129.157 21.8906 129.248 21.8725 129.332 21.8374C129.417 21.8022 129.493 21.7508 129.558 21.6859C129.622 21.621 129.673 21.544 129.707 21.4594C129.742 21.3747 129.759 21.2841 129.758 21.1927H131.059C131.023 21.6803 130.796 22.1338 130.427 22.4539C130.057 22.7741 129.576 22.9349 129.088 22.9011C128.512 22.9189 127.953 22.7071 127.533 22.3124C127.113 21.9177 126.867 21.3723 126.85 20.7964C126.832 20.2204 127.044 19.6609 127.438 19.2411C127.833 18.8212 128.378 18.5754 128.954 18.5576C130.216 18.5576 130.92 19.1829 131.031 20.2325H129.747L129.753 20.2437Z" fill="#A70230"/>
<path d="M108.983 21.7454H109.575C109.91 21.7454 110.133 21.6785 110.133 21.3658C110.133 21.0532 109.821 20.9806 109.391 20.9806H108.983V21.7454ZM108.983 20.2325H109.542C109.596 20.2429 109.653 20.2415 109.707 20.2284C109.761 20.2152 109.812 20.1906 109.856 20.1563C109.9 20.1219 109.936 20.0785 109.961 20.0291C109.987 19.9796 110.002 19.9252 110.005 19.8696C110.005 19.5458 109.743 19.5402 109.447 19.5402H108.983V20.2269V20.2325ZM107.632 18.5576H109.603C110.53 18.5576 111.278 18.7753 111.278 19.596C111.266 19.7803 111.209 19.9589 111.112 20.1158C111.015 20.2726 110.88 20.4029 110.72 20.4949C110.926 20.5498 111.107 20.6742 111.232 20.8472C111.357 21.0201 111.419 21.2309 111.406 21.444C111.406 22.3651 110.703 22.689 109.631 22.689H107.621V18.5632L107.632 18.5576Z" fill="#A70230"/>
<path d="M75.0234 19.5234V19.9701C75.0631 20.574 74.9457 21.178 74.6828 21.7231H75.8273V19.5234H75.0178H75.0234ZM77.1839 18.5576V21.7231H77.5468V23.638H76.2516V22.6834H74.3255V23.638H73.0303V21.7231H73.3541C73.6495 21.0628 73.7779 20.34 73.7281 19.6184V18.5576H77.1616H77.1839Z" fill="#A70230"/>
<path d="M67.9945 20.1536H68.1061C68.5304 20.1536 68.7705 20.0699 68.7705 19.7349C68.7591 19.6732 68.7356 19.6143 68.7013 19.5617C68.667 19.5091 68.6226 19.4638 68.5707 19.4285C68.5187 19.3932 68.4603 19.3685 68.3987 19.356C68.3372 19.3434 68.2738 19.3432 68.2122 19.3553C68.0813 19.3427 67.9503 19.3766 67.842 19.4512C67.7338 19.5258 67.6553 19.6361 67.6204 19.7628H66.5038C66.5764 18.8026 67.4083 18.395 68.2904 18.395C69.3288 18.395 70.0546 18.8919 70.0546 19.5842C70.0525 19.7793 69.9946 19.9697 69.8878 20.1329C69.7809 20.2962 69.6296 20.4254 69.4516 20.5054C69.6653 20.5597 69.8533 20.6871 69.9828 20.8656C70.1123 21.0441 70.1753 21.2623 70.1606 21.4824C70.1606 22.264 69.5074 22.7441 68.268 22.7441C67.0286 22.7441 66.4145 22.2751 66.3252 21.1921H67.4418C67.4468 21.2816 67.4706 21.369 67.5118 21.4486C67.5529 21.5283 67.6104 21.5983 67.6805 21.6542C67.7506 21.7101 67.8317 21.7505 67.9186 21.7728C68.0054 21.7952 68.0959 21.7989 68.1843 21.7838C68.6421 21.7838 68.871 21.594 68.871 21.3484C68.871 20.9743 68.5193 20.9129 68.095 20.9129H67.9833V20.1592L67.9945 20.1536Z" fill="#A70230"/>
<path d="M55.6337 20.3828H56.192C56.2618 20.3988 56.3344 20.3981 56.4039 20.3808C56.4734 20.3636 56.5379 20.3303 56.5922 20.2836C56.6465 20.2369 56.6891 20.1781 56.7166 20.1119C56.744 20.0458 56.7556 19.9741 56.7503 19.9027C56.7503 19.5175 56.3148 19.4672 56.0301 19.4672H55.6449V20.3828H55.6337ZM55.6337 22.616H54.2715V18.4902H56.259C57.4481 18.4902 58.0176 19.0485 58.0176 19.886C58.0176 20.7234 57.4928 21.3375 56.3037 21.3375H55.6225V22.6216L55.6337 22.616Z" fill="#A70230"/>
</svg>
