<svg width="19" height="17" viewBox="0 0 19 17" fill="none" xmlns="http://www.w3.org/2000/svg">
<path fill-rule="evenodd" clip-rule="evenodd" d="M6.26285 1.02873C6.55315 0.862844 6.90715 0.853019 7.20621 1.00255L12.3092 3.55406L16.7286 1.02873C17.0381 0.851871 17.4183 0.853141 17.7266 1.03206C18.0349 1.21098 18.2247 1.5405 18.2247 1.89697V13.0604C18.2247 13.4192 18.0324 13.7506 17.7208 13.9286L12.8368 16.7195C12.5465 16.8854 12.1925 16.8952 11.8935 16.7457L6.79046 14.1942L2.37114 16.7195C2.06164 16.8963 1.68139 16.8951 1.37307 16.7161C1.06476 16.5372 0.875 16.2077 0.875 15.8512V4.68783C0.875 4.32897 1.06729 3.99763 1.37886 3.81958L6.26285 1.02873ZM7.75899 12.4424L11.3407 14.2332V5.30586L7.75899 3.51501V12.4424ZM5.75899 3.62015V12.4801L2.875 14.1281V5.26815L5.75899 3.62015ZM13.3407 5.26815V14.1281L16.2247 12.4801V3.62015L13.3407 5.26815Z" fill="white"/>
</svg>
