<svg width="20" height="16" viewBox="0 0 20 16" fill="none" xmlns="http://www.w3.org/2000/svg">
<path fill-rule="evenodd" clip-rule="evenodd" d="M5.78497 0.900955C6.24272 0.859509 6.66978 1.13543 6.82013 1.56977L10.3751 11.8398L13.9302 1.56977C14.0805 1.13543 14.5076 0.859509 14.9653 0.900955C15.4231 0.942402 15.7936 1.29054 15.8635 1.74482L17.8635 14.7448C17.9475 15.2907 17.5731 15.8013 17.0272 15.8853C16.4813 15.9692 15.9707 15.5948 15.8868 15.0489L14.5003 6.03685L11.3201 15.224C11.1807 15.6267 10.8013 15.8969 10.3751 15.8969C9.94894 15.8969 9.56957 15.6267 9.43015 15.224L6.24999 6.03684L4.86351 15.0489C4.77953 15.5948 4.26895 15.9692 3.72308 15.8853C3.17722 15.8013 2.80279 15.2907 2.88677 14.7448L4.88677 1.74482C4.95666 1.29054 5.32721 0.942402 5.78497 0.900955Z" fill="white"/>
<path fill-rule="evenodd" clip-rule="evenodd" d="M0.875 14.8969C0.875 14.3446 1.32272 13.8969 1.875 13.8969H5.875C6.42728 13.8969 6.875 14.3446 6.875 14.8969C6.875 15.4491 6.42728 15.8969 5.875 15.8969H1.875C1.32272 15.8969 0.875 15.4491 0.875 14.8969Z" fill="white"/>
<path fill-rule="evenodd" clip-rule="evenodd" d="M13.875 14.8969C13.875 14.3446 14.3227 13.8969 14.875 13.8969H18.875C19.4273 13.8969 19.875 14.3446 19.875 14.8969C19.875 15.4491 19.4273 15.8969 18.875 15.8969H14.875C14.3227 15.8969 13.875 15.4491 13.875 14.8969Z" fill="white"/>
</svg>
