<svg width="19" height="17" viewBox="0 0 19 17" fill="none" xmlns="http://www.w3.org/2000/svg">
<path fill-rule="evenodd" clip-rule="evenodd" d="M4.57629 6.17554C5.68086 6.17554 6.57629 5.28011 6.57629 4.17554C6.57629 3.07097 5.68086 2.17554 4.57629 2.17554C3.47172 2.17554 2.57629 3.07097 2.57629 4.17554C2.57629 5.28011 3.47172 6.17554 4.57629 6.17554ZM4.57629 8.17554C6.78543 8.17554 8.57629 6.38468 8.57629 4.17554C8.57629 1.9664 6.78543 0.175537 4.57629 0.175537C2.36716 0.175537 0.576294 1.9664 0.576294 4.17554C0.576294 6.38468 2.36716 8.17554 4.57629 8.17554Z" fill="#FFD400"/>
<path fill-rule="evenodd" clip-rule="evenodd" d="M14.5763 14.1755C15.6809 14.1755 16.5763 13.2801 16.5763 12.1755C16.5763 11.071 15.6809 10.1755 14.5763 10.1755C13.4717 10.1755 12.5763 11.071 12.5763 12.1755C12.5763 13.2801 13.4717 14.1755 14.5763 14.1755ZM14.5763 16.1755C16.7854 16.1755 18.5763 14.3847 18.5763 12.1755C18.5763 9.9664 16.7854 8.17554 14.5763 8.17554C12.3672 8.17554 10.5763 9.9664 10.5763 12.1755C10.5763 14.3847 12.3672 16.1755 14.5763 16.1755Z" fill="#FFD400"/>
<path fill-rule="evenodd" clip-rule="evenodd" d="M17.2834 0.46843C17.6739 0.858955 17.6739 1.49212 17.2834 1.88264L3.2834 15.8826C2.89288 16.2732 2.25971 16.2732 1.86919 15.8826C1.47866 15.4921 1.47866 14.859 1.86919 14.4684L15.8692 0.46843C16.2597 0.077906 16.8929 0.077906 17.2834 0.46843Z" fill="#FFD400"/>
</svg>
