<svg width="14" height="18" viewBox="0 0 14 18" fill="none" xmlns="http://www.w3.org/2000/svg">
	<path d="M12.6531 14.2806L12.0028 16.2854C11.9433 16.4717 11.8418 16.6451 11.7051 16.7946C11.5683 16.9441 11.3992 17.0662 11.2085 17.1533C11.0178 17.2404 10.8099 17.2904 10.5979 17.3002C10.3859 17.31 10.1746 17.2794 9.97749 17.2103C7.80309 16.4058 5.87272 15.145 4.3415 13.5293C2.91006 12.0471 1.85832 10.2914 1.26097 8.3869C0.592429 6.32449 0.46829 4.14107 0.898609 2.01355C0.940303 1.82404 1.02471 1.644 1.14646 1.48489C1.26821 1.32579 1.42463 1.1911 1.60577 1.08941C1.7869 0.987721 1.98878 0.921253 2.19856 0.894241C2.40833 0.867229 2.6214 0.880263 2.8242 0.932515L5.01473 1.49896C5.37013 1.5874 5.67641 1.79108 5.8765 2.07202C6.07659 2.35297 6.15683 2.69202 6.10226 3.02597C5.98662 3.69144 5.95376 4.36571 6.0043 5.03591C6.02496 5.3005 5.9619 5.56594 5.82261 5.80078C5.68331 6.03562 5.47362 6.23002 5.21836 6.36095L4.01576 6.96982C4.51254 8.9116 5.57681 10.6882 7.09628 12.1122L8.29889 11.5033C8.5557 11.375 8.8465 11.316 9.13685 11.3333C9.4272 11.3506 9.70492 11.4435 9.93711 11.601C10.5262 11.9985 11.1636 12.3335 11.8372 12.5993C12.177 12.7369 12.4479 12.9841 12.5983 13.2941C12.7488 13.6041 12.7683 13.9552 12.6531 14.2806Z" />
	<path d="M12.6531 14.2806L12.0028 16.2854C11.9433 16.4717 11.8418 16.6451 11.7051 16.7946C11.5683 16.9441 11.3992 17.0662 11.2085 17.1533C11.0178 17.2404 10.8099 17.2904 10.5979 17.3002C10.3859 17.31 10.1746 17.2794 9.97749 17.2103C7.80309 16.4058 5.87272 15.145 4.3415 13.5293C2.91006 12.0471 1.85832 10.2914 1.26097 8.3869C0.592429 6.32449 0.46829 4.14107 0.898609 2.01355C0.940303 1.82404 1.02471 1.644 1.14646 1.48489C1.26821 1.32579 1.42463 1.1911 1.60577 1.08941C1.7869 0.987721 1.98878 0.921253 2.19856 0.894241C2.40833 0.867229 2.6214 0.880263 2.8242 0.932515L5.01473 1.49896C5.37013 1.5874 5.67641 1.79108 5.8765 2.07202C6.07659 2.35297 6.15683 2.69202 6.10226 3.02597C5.98662 3.69144 5.95376 4.36571 6.0043 5.03591C6.02496 5.3005 5.9619 5.56594 5.82261 5.80078C5.68331 6.03562 5.47362 6.23002 5.21836 6.36095L4.01576 6.96982C4.51254 8.9116 5.57681 10.6882 7.09628 12.1122L8.29889 11.5033C8.5557 11.375 8.8465 11.316 9.13685 11.3333C9.4272 11.3506 9.70492 11.4435 9.93711 11.601C10.5262 11.9985 11.1636 12.3335 11.8372 12.5993C12.177 12.7369 12.4479 12.9841 12.5983 13.2941C12.7488 13.6041 12.7683 13.9552 12.6531 14.2806Z" />
</svg>
