<svg width="13" height="18" viewBox="0 0 13 18" fill="none" xmlns="http://www.w3.org/2000/svg">
<path d="M12.6072 14.2255L11.9569 16.2302C11.8974 16.4165 11.7959 16.59 11.6592 16.7394C11.5224 16.8889 11.3533 17.0111 11.1626 17.0981C10.9719 17.1852 10.764 17.2352 10.552 17.245C10.34 17.2548 10.1287 17.2242 9.93159 17.1551C7.75719 16.3506 5.82682 15.0899 4.2956 13.4741C2.86416 11.9919 1.81242 10.2362 1.21507 8.33173C0.546531 6.26931 0.422391 4.0859 0.852711 1.95837C0.894405 1.76886 0.978813 1.58882 1.10056 1.42972C1.22231 1.27061 1.37873 1.13593 1.55987 1.03424C1.741 0.932545 1.94289 0.866078 2.15266 0.839065C2.36243 0.812053 2.5755 0.825087 2.7783 0.877339L4.96883 1.44378C5.32423 1.53222 5.63051 1.7359 5.8306 2.01685C6.03069 2.29779 6.11093 2.63684 6.05637 2.9708C5.94072 3.63626 5.90786 4.31053 5.9584 4.98074C5.97906 5.24532 5.91601 5.51076 5.77671 5.7456C5.63741 5.98045 5.42772 6.17485 5.17246 6.30577L3.96986 6.91465C4.46664 8.85642 5.53091 10.633 7.05038 12.057L8.25299 11.4481C8.5098 11.3198 8.8006 11.2608 9.09095 11.2781C9.3813 11.2954 9.65902 11.3883 9.89121 11.5458C10.4803 11.9434 11.1177 12.2783 11.7913 12.5442C12.1311 12.6817 12.402 12.9289 12.5525 13.2389C12.7029 13.5489 12.7224 13.9 12.6072 14.2255Z" fill="white"/>
<path d="M12.6072 14.2255L11.9569 16.2302C11.8974 16.4165 11.7959 16.59 11.6592 16.7394C11.5224 16.8889 11.3533 17.0111 11.1626 17.0981C10.9719 17.1852 10.764 17.2352 10.552 17.245C10.34 17.2548 10.1287 17.2242 9.93159 17.1551C7.75719 16.3506 5.82682 15.0899 4.2956 13.4741C2.86416 11.9919 1.81242 10.2362 1.21507 8.33173C0.546531 6.26931 0.422391 4.0859 0.852711 1.95837C0.894405 1.76886 0.978813 1.58882 1.10056 1.42972C1.22231 1.27061 1.37873 1.13593 1.55987 1.03424C1.741 0.932545 1.94289 0.866078 2.15266 0.839065C2.36243 0.812053 2.5755 0.825087 2.7783 0.877339L4.96883 1.44378C5.32423 1.53222 5.63051 1.7359 5.8306 2.01685C6.03069 2.29779 6.11093 2.63684 6.05637 2.9708C5.94072 3.63626 5.90786 4.31053 5.9584 4.98074C5.97906 5.24532 5.91601 5.51076 5.77671 5.7456C5.63741 5.98045 5.42772 6.17485 5.17246 6.30577L3.96986 6.91465C4.46664 8.85642 5.53091 10.633 7.05038 12.057L8.25299 11.4481C8.5098 11.3198 8.8006 11.2608 9.09095 11.2781C9.3813 11.2954 9.65902 11.3883 9.89121 11.5458C10.4803 11.9434 11.1177 12.2783 11.7913 12.5442C12.1311 12.6817 12.402 12.9289 12.5525 13.2389C12.7029 13.5489 12.7224 13.9 12.6072 14.2255Z" fill="white"/>
<path d="M12.6072 14.2255L11.9569 16.2302C11.8974 16.4165 11.7959 16.59 11.6592 16.7394C11.5224 16.8889 11.3533 17.0111 11.1626 17.0981C10.9719 17.1852 10.764 17.2352 10.552 17.245C10.34 17.2548 10.1287 17.2242 9.93159 17.1551C7.75719 16.3506 5.82682 15.0899 4.2956 13.4741C2.86416 11.9919 1.81242 10.2362 1.21507 8.33173C0.546531 6.26931 0.422391 4.0859 0.852711 1.95837C0.894405 1.76886 0.978813 1.58882 1.10056 1.42972C1.22231 1.27061 1.37873 1.13593 1.55987 1.03424C1.741 0.932545 1.94289 0.866078 2.15266 0.839065C2.36243 0.812053 2.5755 0.825087 2.7783 0.877339L4.96883 1.44378C5.32423 1.53222 5.63051 1.7359 5.8306 2.01685C6.03069 2.29779 6.11093 2.63684 6.05637 2.9708C5.94072 3.63626 5.90786 4.31053 5.9584 4.98074C5.97906 5.24532 5.91601 5.51076 5.77671 5.7456C5.63741 5.98045 5.42772 6.17485 5.17246 6.30577L3.96986 6.91465C4.46664 8.85642 5.53091 10.633 7.05038 12.057L8.25299 11.4481C8.5098 11.3198 8.8006 11.2608 9.09095 11.2781C9.3813 11.2954 9.65902 11.3883 9.89121 11.5458C10.4803 11.9434 11.1177 12.2783 11.7913 12.5442C12.1311 12.6817 12.402 12.9289 12.5525 13.2389C12.7029 13.5489 12.7224 13.9 12.6072 14.2255Z" stroke="#A70230" stroke-width="2" stroke-linecap="round" stroke-linejoin="round"/>
</svg>
