<svg width="16" height="18" viewBox="0 0 16 18" xmlns="http://www.w3.org/2000/svg">
<path d="M13.6081 13.8378L12.9579 15.8425C12.8983 16.0288 12.7969 16.2023 12.6601 16.3517C12.5234 16.5012 12.3542 16.6234 12.1636 16.7104C11.9729 16.7975 11.7649 16.8475 11.553 16.8573C11.341 16.8671 11.1297 16.8365 10.9326 16.7674C8.75816 15.9629 6.8278 14.7022 5.29658 13.0864C3.86513 11.6042 2.8134 9.84852 2.21605 7.94403C1.54751 5.88161 1.42337 3.6982 1.85369 1.57068C1.89538 1.38117 1.97979 1.20113 2.10154 1.04202C2.22329 0.882917 2.37971 0.748231 2.56085 0.646541C2.74198 0.54485 2.94386 0.478382 3.15363 0.45137C3.36341 0.424357 3.57648 0.437392 3.77927 0.489643L5.96981 1.05609C6.3252 1.14453 6.63149 1.3482 6.83158 1.62915C7.03167 1.9101 7.11191 2.24915 7.05734 2.5831C6.9417 3.24857 6.90884 3.92284 6.95938 4.59304C6.98004 4.85763 6.91698 5.12307 6.77769 5.35791C6.63839 5.59275 6.42869 5.78715 6.17344 5.91807L4.97083 6.52695C5.46762 8.46872 6.53189 10.2453 8.05136 11.6693L9.25397 11.0604C9.51077 10.9321 9.80158 10.8731 10.0919 10.8904C10.3823 10.9077 10.66 11.0006 10.8922 11.1581C11.4813 11.5557 12.1187 11.8906 12.7923 12.1565C13.1321 12.294 13.403 12.5413 13.5534 12.8512C13.7039 13.1612 13.7233 13.5123 13.6081 13.8378Z" />
<path d="M13.6081 13.8378L12.9579 15.8425C12.8983 16.0288 12.7969 16.2023 12.6601 16.3517C12.5234 16.5012 12.3542 16.6234 12.1636 16.7104C11.9729 16.7975 11.7649 16.8475 11.553 16.8573C11.341 16.8671 11.1297 16.8365 10.9326 16.7674C8.75816 15.9629 6.8278 14.7022 5.29658 13.0864C3.86513 11.6042 2.8134 9.84852 2.21605 7.94403C1.54751 5.88161 1.42337 3.6982 1.85369 1.57068C1.89538 1.38117 1.97979 1.20113 2.10154 1.04202C2.22329 0.882917 2.37971 0.748231 2.56085 0.646541C2.74198 0.54485 2.94386 0.478382 3.15363 0.45137C3.36341 0.424357 3.57648 0.437392 3.77927 0.489643L5.96981 1.05609C6.3252 1.14453 6.63149 1.3482 6.83158 1.62915C7.03167 1.9101 7.11191 2.24915 7.05734 2.5831C6.9417 3.24857 6.90884 3.92284 6.95938 4.59304C6.98004 4.85763 6.91698 5.12307 6.77769 5.35791C6.63839 5.59275 6.42869 5.78715 6.17344 5.91807L4.97083 6.52695C5.46762 8.46872 6.53189 10.2453 8.05136 11.6693L9.25397 11.0604C9.51077 10.9321 9.80158 10.8731 10.0919 10.8904C10.3823 10.9077 10.66 11.0006 10.8922 11.1581C11.4813 11.5557 12.1187 11.8906 12.7923 12.1565C13.1321 12.294 13.403 12.5413 13.5534 12.8512C13.7039 13.1612 13.7233 13.5123 13.6081 13.8378Z" />
</svg>
