<svg width="90" height="89" viewBox="0 0 90 89" fill="none" xmlns="http://www.w3.org/2000/svg">
<g clip-path="url(#clip0)">
<path d="M83.382 27.1938H81.5498C80.5899 27.1938 79.8115 27.9723 79.8115 28.9321C79.8115 29.892 80.5899 30.6704 81.5498 30.6704H83.382C84.3418 30.6704 85.1202 29.892 85.1202 28.9321C85.1202 27.9723 84.342 27.1938 83.382 27.1938Z" fill="#A70230"/>
<path d="M78.4401 18.5247C78.8851 18.5247 79.3297 18.3548 79.6692 18.0155L80.9647 16.72C81.6435 16.0412 81.6435 14.9405 80.9647 14.2615C80.2858 13.5829 79.1854 13.5829 78.5063 14.2615L77.2108 15.5571C76.532 16.2359 76.532 17.3365 77.2108 18.0155C77.5504 18.355 77.9951 18.5247 78.4401 18.5247Z" fill="#A70230"/>
<path d="M79.6692 39.8489C78.9902 39.1703 77.8899 39.1703 77.2108 39.8489C76.532 40.5277 76.532 41.6284 77.2108 42.3074L78.5063 43.6029C78.8458 43.9422 79.2906 44.1121 79.7354 44.1121C80.1803 44.1121 80.6251 43.9422 80.9646 43.6029C81.6434 42.9241 81.6434 41.8235 80.9646 41.1445L79.6692 39.8489Z" fill="#A70230"/>
<path d="M10.1854 28.9321C10.1854 27.9723 9.40702 27.1938 8.44714 27.1938H6.61499C5.65511 27.1938 4.87671 27.9723 4.87671 28.9321C4.87671 29.892 5.65511 30.6704 6.61499 30.6704H8.44714C9.40702 30.6704 10.1854 29.8922 10.1854 28.9321Z" fill="#A70230"/>
<path d="M10.3293 39.8489L9.03376 41.1445C8.35496 41.8233 8.35496 42.924 9.03376 43.6029C9.37324 43.9422 9.81807 44.1121 10.2629 44.1121C10.7077 44.1121 11.1525 43.9422 11.492 43.6029L12.7876 42.3074C13.4664 41.6286 13.4664 40.5279 12.7876 39.8489C12.1086 39.1703 11.0083 39.1703 10.3293 39.8489Z" fill="#A70230"/>
<path d="M11.4912 14.261C10.8123 13.5824 9.71193 13.5824 9.03278 14.261C8.35398 14.9398 8.35398 16.0405 9.03278 16.7195L10.3283 18.015C10.6678 18.3543 11.1126 18.5242 11.5575 18.5242C12.0023 18.5242 12.4471 18.3543 12.7866 18.015C13.4654 17.3362 13.4654 16.2356 12.7866 15.5566L11.4912 14.261Z" fill="#A70230"/>
<path d="M73.8436 28.2659C73.5731 27.6172 72.9214 27.1887 72.2185 27.1948C71.4881 27.2012 70.8305 27.685 70.5944 28.373C70.3592 29.0582 70.5897 29.8436 71.159 30.2926C71.7305 30.7435 72.5373 30.7894 73.1566 30.4068C73.8733 29.964 74.1615 29.042 73.8436 28.2659Z" fill="#A70230"/>
<path d="M71.5788 35.1449C70.6603 34.8661 69.6897 35.3851 69.4108 36.3038C66.7076 45.2167 59.2907 51.9531 50.2642 53.8476V43.4866H55.7372C56.6086 43.4866 57.3453 42.8415 57.4602 41.9778L59.6554 25.4961C60.4001 25.2996 60.9494 24.6215 60.9494 23.8151C60.9494 22.8553 60.171 22.0769 59.2111 22.0769H30.8538C29.894 22.0769 29.1156 22.8553 29.1156 23.8151C29.1156 24.6215 29.6649 25.2998 30.4097 25.4961L32.6048 41.9776C32.7197 42.8413 33.4564 43.4864 34.3278 43.4864H39.6867V53.8236C28.0881 51.3382 19.5658 40.964 19.5658 28.932C19.5658 14.8959 30.9901 3.47656 45.0325 3.47656C56.1641 3.47656 66.1907 10.9187 69.4154 21.5747C69.6935 22.4934 70.6631 23.0124 71.5826 22.735C72.5015 22.4569 73.0209 21.4865 72.7429 20.5677C70.9815 14.7476 67.3209 9.51222 62.4349 5.82655C57.3818 2.01484 51.3642 0 45.0325 0C29.0732 0 16.0892 12.9789 16.0892 28.932C16.0892 41.2517 23.9511 52.0426 35.1488 56.126C33.6565 56.6608 32.5862 58.0874 32.5862 59.7592V70.8329C32.5862 70.8631 32.5871 73.8785 32.5928 74.0306C32.771 78.9383 35.178 82.0636 39.2136 82.6069C39.8465 82.6859 40.3237 83.2228 40.3237 83.8563V87.2617C40.3237 88.2216 41.1021 89 42.0619 89H58.5998C59.5596 89 60.3381 88.2216 60.3381 87.2617V84.4838C60.5938 84.3153 61.0855 84.0327 61.9885 83.6304C67.4773 81.1857 68.0753 79.4586 68.0753 73.7019V62.3622C68.0753 60.9311 67.4855 59.5318 66.4573 58.5227C65.4354 57.5199 64.0948 56.9796 62.6849 57.0092C61.4658 57.0318 55.9496 56.9982 52.177 56.9713C61.8903 54.4918 69.7868 47.0438 72.7379 37.3131C73.0164 36.394 72.4975 35.4234 71.5788 35.1449ZM33.9245 25.5536H56.1408L54.2153 40.01H49.022C48.0512 38.8593 46.5975 38.1268 44.9756 38.1268C43.3538 38.1268 41.9001 38.8593 40.9293 40.01H35.8502L33.9245 25.5536ZM62.7506 60.4849C63.2161 60.4772 63.6721 60.6603 64.0223 61.0039C64.3884 61.3632 64.5984 61.8583 64.5984 62.3621V73.7017C64.5984 76.1028 64.5204 77.382 64.0766 78.158C63.6648 78.8783 62.7155 79.5008 60.5739 80.4546C58.2817 81.4755 56.8613 82.4095 56.8613 83.9091V85.5234H43.8V83.8561C43.8 81.4724 42.0129 79.4523 39.6603 79.1592C37.3959 78.8542 36.1871 77.0917 36.0675 73.9188C36.0645 73.6635 36.0628 71.0735 36.0628 70.8329V59.7592C36.0628 59.5485 36.237 59.3771 36.4511 59.3771C38.2349 59.3771 39.6862 60.8192 39.6867 62.5919V69.3677C39.6867 70.3276 40.4652 71.106 41.425 71.106C42.3849 71.106 43.1633 70.3276 43.1633 69.3677V43.4052C43.1633 42.4116 43.9763 41.6033 44.9755 41.6033C45.9746 41.6033 46.7876 42.4116 46.7876 43.4052V58.6814C46.7876 59.6357 47.5572 60.4117 48.5115 60.4197C49.0132 60.4235 60.8194 60.5214 62.7506 60.4849Z" fill="#A70230"/>
<path d="M48.4869 37.0824C48.5555 37.0904 48.6237 37.0942 48.6911 37.0942C49.5608 37.0942 50.3119 36.4427 50.4155 35.5577L51.0322 30.2859C51.1438 29.3324 50.4612 28.4688 49.5076 28.3572C48.5531 28.2465 47.6906 28.9283 47.579 29.8819L46.9622 35.1537C46.8508 36.1074 47.5333 36.9709 48.4869 37.0824Z" fill="#A70230"/>
<path d="M41.3798 37.0941C41.4472 37.0941 41.5153 37.0903 41.584 37.0823C42.5375 36.9707 43.2201 36.1073 43.1086 35.1537L42.4919 29.8818C42.3803 28.9284 41.516 28.2468 40.5633 28.3572C39.6098 28.4688 38.9272 29.3322 39.0386 30.2858L39.6554 35.5577C39.759 36.4424 40.5101 37.0941 41.3798 37.0941Z" fill="#A70230"/>
<path d="M46.1825 10.1649C45.5263 9.58811 44.5437 9.58811 43.8875 10.1649L36.6832 16.4973C35.9621 17.131 35.8912 18.2295 36.5251 18.9503C37.1589 19.6714 38.2575 19.7425 38.9782 19.1083L45.0351 13.7847L51.0921 19.1083C51.4222 19.3986 51.8314 19.541 52.239 19.541C52.7214 19.541 53.2017 19.3413 53.5453 18.9503C54.1791 18.2293 54.1084 17.1309 53.3873 16.4973L46.1825 10.1649Z" fill="#A70230"/>
</g>
<defs>
<clipPath id="clip0">
<rect width="89" height="89" fill="white" transform="translate(0.5)"/>
</clipPath>
</defs>
</svg>
