<svg width="31" height="18" viewBox="0 0 31 18" fill="none" xmlns="http://www.w3.org/2000/svg">
<path d="M30.397 15.8592C30.3145 15.7211 29.8046 14.6131 27.3508 12.3357C24.782 9.95086 25.127 10.3381 28.2211 6.21455C30.1056 3.70324 30.859 2.16961 30.6232 1.51398C30.3989 0.889024 29.0129 1.05389 29.0129 1.05389L24.4043 1.08073C24.4043 1.08073 24.0631 1.03472 23.8081 1.18617C23.5608 1.33569 23.4017 1.68076 23.4017 1.68076C23.4017 1.68076 22.6713 3.62464 21.6975 5.27712C19.6443 8.76421 18.8219 8.94825 18.4864 8.73162C17.7062 8.22744 17.9017 6.7034 17.9017 5.62219C17.9017 2.24245 18.4136 0.83343 16.9029 0.469193C16.4007 0.34842 16.0326 0.267904 14.7501 0.254485C13.1053 0.237231 11.7116 0.260236 10.9237 0.64556C10.3984 0.902443 9.99394 1.47564 10.2412 1.50823C10.546 1.54849 11.2362 1.69418 11.6023 2.19261C12.0758 2.83482 12.0586 4.28026 12.0586 4.28026C12.0586 4.28026 12.3308 8.25812 11.4241 8.75271C10.801 9.09203 9.94793 8.39998 8.11716 5.23495C7.17973 3.61505 6.47043 1.82262 6.47043 1.82262C6.47043 1.82262 6.33432 1.48906 6.09085 1.31077C5.79563 1.09415 5.38155 1.02513 5.38155 1.02513L0.999204 1.05197C0.999204 1.05197 0.341661 1.07114 0.100114 1.35678C-0.114594 1.61175 0.0828606 2.13702 0.0828606 2.13702C0.0828606 2.13702 3.51436 10.1637 7.39827 14.2105C10.962 17.92 15.007 17.6765 15.007 17.6765H16.8397C16.8397 17.6765 17.3937 17.6152 17.6755 17.3104C17.9362 17.0305 17.9266 16.5052 17.9266 16.5052C17.9266 16.5052 17.8902 14.0457 19.0328 13.6833C20.1581 13.3268 21.6035 16.0605 23.1352 17.1129C24.2931 17.9085 25.173 17.734 25.173 17.734L29.2697 17.6765C29.2697 17.6765 31.413 17.5442 30.397 15.8592Z" fill="#548DB0"/>
</svg>
