<svg width="47" height="16" viewBox="0 0 47 16" fill="none" xmlns="http://www.w3.org/2000/svg">
<path fill-rule="evenodd" clip-rule="evenodd" d="M39.7071 0.292893C39.3166 -0.0976311 38.6834 -0.0976311 38.2929 0.292893C37.9024 0.683418 37.9024 1.31658 38.2929 1.70711L43.5545 6.96875L1 6.96876C0.447715 6.96876 0 7.41647 0 7.96876C0 8.52104 0.447715 8.96876 1 8.96876L43.617 8.96875L38.2929 14.2929C37.9024 14.6834 37.9024 15.3166 38.2929 15.7071C38.6834 16.0976 39.3166 16.0976 39.7071 15.7071L46.7071 8.70711C46.9063 8.50789 47.0039 8.24554 46.9999 7.98446C47 7.97924 47 7.974 47 7.96875C47 7.61677 46.8181 7.30726 46.5433 7.12905L39.7071 0.292893Z" fill="white"/>
</svg>
