<svg width="170" height="170" viewBox="0 0 170 170" fill="none" xmlns="http://www.w3.org/2000/svg">
<circle cx="85" cy="85" r="85" fill="#FDF0E2"/>
<path d="M107.07 107.882L111.792 112.604" stroke="#A70230" stroke-width="3" stroke-linecap="round" stroke-linejoin="round"/>
<rect x="45.5" y="46.5" width="25.6862" height="25.6862" rx="8" stroke="#A70230" stroke-width="3" fill="#FDF0E2"/>
<path fill="#FDF0E2" d="M114.249 89.7509C114.249 102.581 103.848 112.982 91.018 112.982C78.1879 112.982 67.7871 102.581 67.7871 89.7509C67.7871 76.9208 78.1879 66.52 91.018 66.52C99.5776 66.52 107.056 71.1494 111.086 78.041" stroke="#A70230" stroke-width="3" stroke-linecap="round" stroke-linejoin="round"/>
<circle cx="91.0179" cy="89.7508" r="15.6761" stroke="#A70230" stroke-width="3" fill="#FDF0E2"/>
<path d="M98.9495 89.7508C98.9495 85.2655 95.3134 81.6294 90.8281 81.6294" stroke="#A70230" stroke-width="3" stroke-linecap="round" stroke-linejoin="round"/>
<path d="M62.5933 63.4038C60.3768 61.1872 56.783 61.1872 54.5664 63.4038" stroke="#A70230" stroke-width="3" stroke-linecap="round" stroke-linejoin="round"/>
<rect x="115.748" y="110.338" width="20.7756" height="9.06571" rx="4.53285" transform="rotate(45 115.748 110.338)" stroke="#A70230" stroke-width="3" fill="#FDF0E2"/>
<circle cx="54.9434" cy="55.188" r="1.88869" fill="#A70230"/>
<circle cx="62.1211" cy="55.188" r="1.88869" fill="#A70230"/>
<circle cx="113.114" cy="83.5183" r="1.51095" fill="#A70230"/>
<path fill-rule="evenodd" clip-rule="evenodd" d="M88.252 45C83.0052 45 78.752 49.2533 78.752 54.5V64.1862C78.752 65.8666 79.1883 67.4452 79.9538 68.8147C80.841 68.3487 81.7618 67.938 82.7116 67.587C82.103 66.5977 81.752 65.4329 81.752 64.1862V54.5C81.752 50.9102 84.6621 48 88.252 48H97.9381C101.528 48 104.438 50.9101 104.438 54.5V64.1862C104.438 66.1419 103.574 67.8959 102.208 69.0875C103.108 69.5893 103.973 70.1487 104.795 70.7609C106.432 69.0542 107.438 66.7377 107.438 64.1862V54.5C107.438 49.2533 103.185 45 97.9381 45H88.252Z" fill="#A70230"/>
<path fill-rule="evenodd" clip-rule="evenodd" d="M68.4914 82.1255C66.9764 81.1038 65.151 80.5073 63.1862 80.5073H53.5C48.2533 80.5073 44 84.7606 44 90.0073V99.6935C44 104.94 48.2533 109.193 53.5 109.193H63.1862C67.2097 109.193 70.649 106.692 72.0339 103.16C71.1317 101.948 70.3437 100.647 69.6862 99.2708V99.6935C69.6862 103.283 66.776 106.193 63.1862 106.193H53.5C49.9102 106.193 47 103.283 47 99.6935V90.0073C47 86.4175 49.9101 83.5073 53.5 83.5073H63.1862C64.9501 83.5073 66.55 84.21 67.7211 85.3507C67.9027 84.2478 68.1614 83.1708 68.4914 82.1255Z" fill="#A70230"/>
</svg>
