<svg width="48" height="16" viewBox="0 0 48 16" fill="none" xmlns="http://www.w3.org/2000/svg">
<path fill-rule="evenodd" clip-rule="evenodd" d="M0.0507813 7.96875C0.0507813 7.41647 0.498496 6.96875 1.05078 6.96875L46.0508 6.96875C46.6031 6.96875 47.0508 7.41646 47.0508 7.96875C47.0508 8.52103 46.6031 8.96875 46.0508 8.96875L1.05078 8.96875C0.498497 8.96875 0.0507814 8.52103 0.0507813 7.96875Z" fill="black"/>
<path fill-rule="evenodd" clip-rule="evenodd" d="M38.3437 0.292893C38.7342 -0.0976311 39.3674 -0.0976311 39.7579 0.292893L46.7579 7.29289C47.1484 7.68342 47.1484 8.31658 46.7579 8.70711L39.7579 15.7071C39.3674 16.0976 38.7342 16.0976 38.3437 15.7071C37.9532 15.3166 37.9532 14.6834 38.3437 14.2929L44.6366 8L38.3437 1.70711C37.9532 1.31658 37.9532 0.683417 38.3437 0.292893Z" fill="black"/>
</svg>
