<svg width="48" height="16" viewBox="0 0 48 16" fill="none" xmlns="http://www.w3.org/2000/svg">
<path fill-rule="evenodd" clip-rule="evenodd" d="M47.0508 8.03125C47.0508 8.58353 46.6031 9.03125 46.0508 9.03125H1.05078C0.498497 9.03125 0.0507812 8.58353 0.0507812 8.03125C0.0507812 7.47897 0.498497 7.03125 1.05078 7.03125H46.0508C46.6031 7.03125 47.0508 7.47897 47.0508 8.03125Z" fill="black"/>
<path fill-rule="evenodd" clip-rule="evenodd" d="M8.75789 15.7071C8.36736 16.0976 7.7342 16.0976 7.34367 15.7071L0.343675 8.70711C-0.0468486 8.31658 -0.0468485 7.68342 0.343675 7.29289L7.34368 0.292893C7.7342 -0.0976297 8.36737 -0.0976296 8.75789 0.292893C9.14841 0.683417 9.14841 1.31658 8.75789 1.70711L2.465 8L8.75789 14.2929C9.14841 14.6834 9.14841 15.3166 8.75789 15.7071Z" fill="black"/>
</svg>
