<svg width="34" height="33" viewBox="0 0 34 33" fill="none" xmlns="http://www.w3.org/2000/svg">
<path fill-rule="evenodd" clip-rule="evenodd" d="M0.987305 16.397C0.987305 7.56042 8.27369 0.396973 17.2619 0.396973C26.2501 0.396973 33.5365 7.56042 33.5365 16.397C33.5365 25.2335 26.2501 32.397 17.2619 32.397C8.27369 32.397 0.987305 25.2335 0.987305 16.397Z" fill="white"/>
<path d="M24.0062 18.7388C24.4221 19.1371 24.852 19.549 25.2326 20.0103C25.4422 20.2659 25.6805 20.5747 25.8642 20.9335C26.0402 21.2786 26.0428 21.6679 25.8713 21.9753C25.7288 22.2305 25.4861 22.3876 25.2055 22.4066C25.1978 22.4071 25.1899 22.4073 25.1822 22.4073L22.7491 22.4062C22.0719 22.4588 21.4596 22.2076 20.9285 21.66C20.6938 21.4182 20.4698 21.1646 20.2531 20.9195L20.2528 20.9191L20.2397 20.9043C20.142 20.7937 20.0413 20.6798 19.9416 20.5694C19.8388 20.456 19.7139 20.3267 19.5687 20.2314C19.4894 20.1792 19.418 20.1543 19.3777 20.1645C19.3399 20.1741 19.2918 20.2268 19.2492 20.3053C19.097 20.586 19.0531 20.909 19.0341 21.3078C19.0001 22.0623 18.6885 22.3704 17.9226 22.4057C17.7771 22.4127 17.6335 22.4162 17.4923 22.4162C16.2509 22.4162 15.1809 22.1472 14.2322 21.5981C13.3291 21.0755 12.5463 20.3358 11.7687 19.2701C10.6643 17.7565 9.69641 16.0122 8.63043 13.6146C8.48131 13.2788 8.47622 12.9963 8.61526 12.7747C8.75413 12.5535 9.00815 12.4382 9.37039 12.4318C10.1384 12.4167 10.9262 12.4164 11.778 12.4307C12.2251 12.4374 12.5739 12.6938 12.7594 13.1529C13.2098 14.2733 13.7284 15.2457 14.3449 16.1261L14.3451 16.1264C14.4994 16.3466 14.659 16.5744 14.8707 16.7209C14.905 16.7446 14.9297 16.7571 14.9457 16.7636C14.9556 16.7494 14.9699 16.7252 14.9862 16.6863C15.045 16.5456 15.0814 16.3765 15.101 16.1539C15.1712 15.325 15.1595 14.6403 15.0641 14.0003C15.0159 13.6709 14.86 13.4986 14.5587 13.4407C14.4731 13.4244 14.2124 13.3744 14.125 13.1242C14.0385 12.877 14.2081 12.6748 14.272 12.5986L14.2721 12.5985C14.4927 12.3372 14.7679 12.0962 15.2882 12.0962H18.0538C18.0764 12.0962 18.0991 12.0984 18.1213 12.1029C18.815 12.2413 18.9312 12.6857 18.9908 13.1291C18.9929 13.1447 18.994 13.1605 18.994 13.1763L18.9964 16.2837L18.9962 16.2939C18.9924 16.4322 19.0762 16.6963 19.1489 16.7425C19.1871 16.7241 19.2614 16.6439 19.307 16.5945L19.3074 16.5941L19.3372 16.562C20.0078 15.8422 20.4704 14.9782 20.8345 14.2281C21.0248 13.8395 21.1891 13.4299 21.3282 13.0764C21.5019 12.6339 21.8208 12.4135 22.2805 12.4213L24.9392 12.4236C25.0307 12.4236 25.1292 12.4251 25.2329 12.4431C25.4452 12.4797 25.7465 12.5595 25.909 12.8289C26.0714 13.0982 26.0041 13.405 25.9392 13.6123C25.7121 14.3354 25.2884 14.9287 24.8785 15.5026L24.8313 15.5686C24.6212 15.8626 24.4021 16.155 24.1901 16.4377C23.9516 16.7558 23.705 17.0847 23.4737 17.413C23.319 17.6313 23.2518 17.779 23.2616 17.8786C23.2716 17.9798 23.3676 18.1171 23.5634 18.3102C23.7064 18.4515 23.8548 18.5937 23.9986 18.7314L24.0062 18.7388Z" stroke="#A70230" stroke-linecap="round" stroke-linejoin="round"/>
</svg>
