<svg width="33" height="33" viewBox="0 0 33 33" fill="none" xmlns="http://www.w3.org/2000/svg">
<path fill-rule="evenodd" clip-rule="evenodd" d="M0.206055 16.397C0.206055 7.56042 7.49244 0.396973 16.4807 0.396973C25.4689 0.396973 32.7553 7.56042 32.7553 16.397C32.7553 25.2335 25.4689 32.397 16.4807 32.397C7.49244 32.397 0.206055 25.2335 0.206055 16.397Z" fill="white"/>
<path fill-rule="evenodd" clip-rule="evenodd" d="M16.0239 8.39697C13.8858 8.39697 13.6175 8.40616 12.7777 8.44374C11.9395 8.48147 11.3674 8.61192 10.8669 8.80332C10.3491 9.00101 9.90982 9.26546 9.47221 9.69584C9.03429 10.1261 8.7653 10.5579 8.56355 11.0668C8.36837 11.5591 8.23552 12.1217 8.19779 12.9453C8.16023 13.7709 8.15039 14.0349 8.15039 16.137C8.15039 18.239 8.1599 18.502 8.19796 19.3276C8.2365 20.1516 8.36919 20.714 8.56372 21.2062C8.76497 21.7152 9.03396 22.1471 9.47172 22.5773C9.90916 23.0078 10.3484 23.2729 10.8659 23.4706C11.3668 23.662 11.9391 23.7925 12.777 23.8302C13.6168 23.8678 13.885 23.877 16.0229 23.877C18.1613 23.877 18.4288 23.8678 19.2685 23.8302C20.1067 23.7925 20.6794 23.662 21.1803 23.4706C21.698 23.2729 22.1366 23.0078 22.574 22.5773C23.0119 22.1471 23.2809 21.7152 23.4827 21.2063C23.6762 20.714 23.8091 20.1514 23.8484 19.3278C23.8862 18.5022 23.896 18.239 23.896 16.137C23.896 14.0349 23.8862 13.7711 23.8484 12.9455C23.8091 12.1215 23.6762 11.5591 23.4827 11.0669C23.2809 10.5579 23.0119 10.1261 22.574 9.69584C22.1361 9.2653 21.6981 9.00085 21.1798 8.80332C20.678 8.61192 20.1055 8.48147 19.2674 8.44374C18.4276 8.40616 18.1603 8.39697 16.0215 8.39697H16.0239ZM15.3342 9.94671C15.5387 9.9464 15.767 9.94671 16.0234 9.94671C18.0748 9.94671 18.3179 9.95395 19.128 9.99015C19.8771 10.0238 20.2836 10.1469 20.5544 10.2503C20.913 10.3872 21.1686 10.5509 21.4373 10.8153C21.7063 11.0797 21.8727 11.3315 22.0123 11.684C22.1174 11.95 22.2428 12.3497 22.2769 13.0863C22.3137 13.8826 22.3217 14.1218 22.3217 16.1378C22.3217 18.1539 22.3137 18.3931 22.2769 19.1894C22.2426 19.9259 22.1174 20.3257 22.0123 20.5917C21.873 20.9442 21.7063 21.1952 21.4373 21.4594C21.1684 21.7238 20.9131 21.8875 20.5544 22.0244C20.2839 22.1283 19.8771 22.2511 19.128 22.2847C18.3181 22.3209 18.0748 22.3288 16.0234 22.3288C13.9719 22.3288 13.7288 22.3209 12.9189 22.2847C12.1698 22.2507 11.7632 22.1277 11.4922 22.0243C11.1337 21.8873 10.8776 21.7237 10.6087 21.4593C10.3398 21.1949 10.1733 20.9437 10.0337 20.591C9.92857 20.3251 9.80325 19.9253 9.76915 19.1888C9.73234 18.3924 9.72498 18.1532 9.72498 16.1359C9.72498 14.1187 9.73234 13.8807 9.76915 13.0844C9.80341 12.3478 9.92857 11.9481 10.0337 11.6818C10.173 11.3293 10.3398 11.0775 10.6087 10.8131C10.8776 10.5487 11.1337 10.385 11.4922 10.2478C11.763 10.1439 12.1698 10.0212 12.9189 9.98732C13.6276 9.95584 13.9023 9.9464 15.3342 9.94482V9.94671ZM20.1665 11.1082C19.7318 11.1082 19.3792 11.4545 19.3792 11.8819C19.3792 12.3092 19.7318 12.6559 20.1665 12.6559C20.6011 12.6559 20.9538 12.3092 20.9538 11.8819C20.9538 11.4546 20.6011 11.1079 20.1665 11.1079V11.1082ZM16.0242 12.2671C13.8499 12.2671 12.087 14.0001 12.087 16.1375C12.087 18.2749 13.8499 20.0071 16.0242 20.0071C18.1985 20.0071 19.9607 18.2749 19.9607 16.1375C19.9607 14.0001 18.1984 12.2671 16.024 12.2671H16.0242ZM16.0235 13.8149C17.328 13.8149 18.3857 14.8545 18.3857 16.1369C18.3857 17.4193 17.328 18.4589 16.0235 18.4589C14.7189 18.4589 13.6614 17.4193 13.6614 16.1369C13.6614 14.8545 14.7189 13.8149 16.0235 13.8149Z" fill="#A70230"/>
</svg>
