<svg width="20" height="10" viewBox="0 0 20 10" fill="none" xmlns="http://www.w3.org/2000/svg">
<path d="M19.4141 0.125H0.585938C0.262344 0.125 0 0.387344 0 0.710938C0 3.78719 1.8675 6.55945 4.6875 7.73547V8.91406C4.6875 9.23766 4.94984 9.5 5.27344 9.5H14.7266C15.0502 9.5 15.3125 9.23766 15.3125 8.91406V7.73547C18.1464 6.55363 20 3.77277 20 0.710938C20 0.387344 19.7377 0.125 19.4141 0.125ZM18.2578 1.29688C18.221 1.6973 18.1084 2.08918 18 2.46875H2.11524C2.00684 2.08918 1.63633 1.6973 1.59957 1.29688H18.2578ZM14.531 6.78113C14.297 6.86398 14.1406 7.08527 14.1406 7.33348V8.32812H5.85938V7.33348C5.85938 7.08527 5.70297 6.86398 5.46898 6.78113C3.88234 6.21941 2.61785 5.07445 1.8818 3.64062H18.1182C17 5.125 15.5 5.625 14.531 6.78113Z" fill="#A70230"/>
</svg>
