<svg xmlns="http://www.w3.org/2000/svg" width="17" height="20.67" viewBox="0 0 17 20.67">
  <title>Сладкие подарки</title>
  <path d="M15,6.85H10.86a10.51,10.51,0,0,0,1.41-1.8,4.42,4.42,0,0,0,.67-1.85,2.54,2.54,0,0,0-.75-2.06A3,3,0,0,0,9.56.22,3.22,3.22,0,0,0,8.48.61,3.22,3.22,0,0,0,7.4.22a3,3,0,0,0-2.63.92A2.54,2.54,0,0,0,4,3.2a4.55,4.55,0,0,0,.66,1.85A11.07,11.07,0,0,0,6.1,6.85H2a2,2,0,0,0-2,2v12H17v-12A2,2,0,0,0,15,6.85Zm-7.48,12H2v-4H7.5Zm0-6H2v-4H7.5Zm1-6.39c-.09-.11-.19-.22-.29-.32A12.22,12.22,0,0,1,6.4,4,2.5,2.5,0,0,1,6,3a.53.53,0,0,1,.17-.48,1,1,0,0,1,.89-.36,1.33,1.33,0,0,1,.69.36l.71.71.71-.71-.71-.71h0l.71.71a1.33,1.33,0,0,1,.69-.36,1,1,0,0,1,.89.36.53.53,0,0,1,.17.48,2.5,2.5,0,0,1-.38,1A12.22,12.22,0,0,1,8.77,6.14C8.67,6.24,8.57,6.35,8.48,6.46ZM15,18.85H9.5v-4H15Zm0-6H9.5v-4H15Z" transform="translate(0.02 -0.18)" fill="#a71d33"/>
</svg>
