<svg xmlns="http://www.w3.org/2000/svg" width="21.02" height="21.02" viewBox="0 0 21.02 21.02">
  <title>Мармелад</title>
  <path d="M11.48.77a10.52,10.52,0,0,0-10,13.69.76.76,0,0,0,.06.16A10.5,10.5,0,1,0,11.48.77Zm0,19A8.5,8.5,0,0,1,3.42,14a7.27,7.27,0,0,1,3.83-5.8,5.22,5.22,0,0,1,5.47.07,2.81,2.81,0,0,1,1.36,3.48,2.28,2.28,0,0,1-2.2,1.74,1,1,0,0,1-.94-.78c0-.4.22-.75.73-1a1,1,0,0,0,.56-1.3,1,1,0,0,0-1.3-.56A2.93,2.93,0,0,0,9,13a3,3,0,0,0,2.67,2.51l.45,0a4.29,4.29,0,0,0,3.9-3.1,4.79,4.79,0,0,0-2.19-5.83A7.13,7.13,0,0,0,6.3,6.43,9.68,9.68,0,0,0,3.28,9a8.5,8.5,0,1,1,8.2,10.77Z" transform="translate(-0.97 -0.77)" fill="#a71d33"/>
</svg>
