<svg width="20" height="22" viewBox="0 0 20 22" fill="none" xmlns="http://www.w3.org/2000/svg">
<path d="M2.15124 21L1.10958 11H18.8904L17.8488 21H2.15124Z" stroke="#A70230" stroke-width="2" stroke-linecap="round" stroke-linejoin="round"/>
<path d="M6 17L6 15M10 17L10 15M14 17L14 15" stroke="#A70230" stroke-width="2" stroke-linecap="round" stroke-linejoin="round"/>
<path d="M1 10C1 7.23858 3.23858 5 6 5C8.76142 5 11 7.23858 11 10" stroke="#A70230" stroke-width="2" stroke-linecap="round" stroke-linejoin="round"/>
<path d="M11 10C11 7.79086 12.7909 6 15 6C17.2091 6 19 7.79086 19 10" stroke="#A70230" stroke-width="2" stroke-linecap="round" stroke-linejoin="round"/>
<path d="M16 6C16 3.23858 13.7125 1 10.8908 1C8.58462 1 6.63531 2.49531 6 4.54926" stroke="#A70230" stroke-width="2" stroke-linecap="round" stroke-linejoin="round"/>
</svg>
