<svg width="30" height="30" viewBox="0 0 30 30" fill="none" xmlns="http://www.w3.org/2000/svg">
<mask id="mask0" mask-type="alpha" maskUnits="userSpaceOnUse" x="0" y="6" width="22" height="18">
<path d="M0 6H22L15 15L22 24H0V6Z" fill="#C4C4C4"/>
</mask>
<g mask="url(#mask0)">
<path d="M21 8.71429C20.5 7.57143 19.4332 7 18.2776 7C15.9151 7 14 10.2871 14 15C14 19.7128 15.9151 23 18.2776 23C18.9055 23 20.5 22.4286 21 21.2857" stroke="#8E0732" stroke-width="2"/>
</g>
<path d="M22 7C22 7 15.6837 7 12.103 7C7.95654 7 5.0542 10.6101 5.0542 15C5.0542 19.6401 8.33813 23 12.103 23C15.9591 23 22 23 22 23M5.07423 13.8571C5.07423 13.8571 3.90781 12.472 3.19563 12.1429C1.58415 11.3981 1.61886 18.7074 3.19563 17.8571C3.96531 17.4421 5.0542 16.1429 5.0542 16.1429" stroke="#8E0732" stroke-width="2" stroke-linecap="round"/>
<path d="M27 15C27 19.4183 25.5 23 22.5 23C19.5 23 18 19.4183 18 15C18 10.5817 19.5 7 22.5 7C25.5 7 27 10.5817 27 15Z" stroke="#8E0732" stroke-width="2"/>
</svg>
