<svg width="28" height="16" viewBox="0 0 28 16" fill="none" xmlns="http://www.w3.org/2000/svg">
<path d="M25.9141 1H1.75193C1.33667 1 1 1.38831 1 1.86728C1 6.42061 3.39656 10.524 7.01547 12.2647V14.0092C7.01547 14.4882 7.35214 14.8765 7.76741 14.8765H19.8986C20.3139 14.8765 20.6505 14.4882 20.6505 14.0092V12.2647C24.2873 10.5154 26.666 6.39927 26.666 1.86728C26.666 1.38831 26.3293 1 25.9141 1ZM24.4302 2.73456C24.383 3.32726 24.2385 3.90729 24.0994 4.46912H3.71449C3.57538 3.90729 3.09991 3.32726 3.05274 2.73456H24.4302ZM19.6477 10.8521C19.3474 10.9748 19.1467 11.3023 19.1467 11.6697V13.1419H8.51934V11.6697C8.51934 11.3023 8.31862 10.9748 8.01835 10.8521C5.98221 10.0207 4.35949 8.32596 3.41491 6.20367H24.2511C22.8161 8.40078 20.8912 9.14086 19.6477 10.8521Z" fill="#A70230" stroke="#A70230"/>
</svg>
