<svg xmlns="http://www.w3.org/2000/svg" width="27.3" height="13.26" viewBox="0 0 27.3 13.26">
  <title>IconFrozen-bliny</title>
  <g>
    <g>
      <rect x="8.2" y="6.67" width="8.14" height="5.59" rx="2.79" stroke-width="2" stroke="#a71d33" stroke-linecap="round" stroke-linejoin="round" fill="none"/>
      <rect x="8.2" y="6.67" width="18.11" height="5.59" rx="2.79" stroke-width="2" stroke="#a71d33" stroke-linecap="round" stroke-linejoin="round" fill="none"/>
    </g>
    <g>
      <rect x="4.78" y="1" width="7.85" height="5.59" rx="2.79" stroke-width="2" stroke="#a71d33" stroke-linecap="round" stroke-linejoin="round" fill="none"/>
      <rect x="4.78" y="1" width="18.11" height="5.59" rx="2.79" stroke-width="2" stroke="#a71d33" stroke-linecap="round" stroke-linejoin="round" fill="none"/>
    </g>
    <g>
      <path d="M32.81-31.25a2.81,2.81,0,0,1-2.42,1.4H28.13a2.8,2.8,0,0,1-2.79-2.8h0a2.8,2.8,0,0,1,2.79-2.79h2.26A2.81,2.81,0,0,1,32.85-34" transform="translate(-24.34 42.1)" fill="none" stroke="#a71d33" stroke-linecap="round" stroke-linejoin="round" stroke-width="2"/>
      <path d="M40.65-29.85H28.13a2.8,2.8,0,0,1-2.79-2.8h0a2.8,2.8,0,0,1,2.79-2.79H40.65" transform="translate(-24.34 42.1)" fill="none" stroke="#a71d33" stroke-linecap="round" stroke-linejoin="round" stroke-width="2"/>
    </g>
  </g>
</svg>
