<svg width="17" height="24" viewBox="0 0 17 24" fill="none" xmlns="http://www.w3.org/2000/svg">
<path d="M3.74872 7.3396C3.2711 5.79814 3.90254 4.07699 5.35903 3.23609C7.04927 2.26023 9.21057 2.83935 10.1864 4.52959C10.7761 5.55092 10.798 6.74426 10.3501 7.74412" stroke="#A70230" stroke-width="2" stroke-linecap="round" stroke-linejoin="round"/>
<circle cx="12.5" cy="5" r="2" stroke="#A70230" stroke-width="2" stroke-linecap="round" stroke-linejoin="round"/>
<circle cx="3.5" cy="12" r="1" fill="#A70230"/>
<circle cx="6.5" cy="15" r="1" fill="#A70230"/>
<circle cx="4.5" cy="18" r="1" fill="#A70230"/>
<path d="M1 22.5001H10V17.5001C10 15.5001 10 11.5 8 9.5C6 7.5 2.33333 6.83344 1 7.00011V22.5001Z" stroke="#A70230" stroke-width="2" stroke-linecap="round" stroke-linejoin="round"/>
<path d="M6.5 22.5001H15.5V7.00011C14.1667 6.83344 10.5 7.5 8.5 9.5" stroke="#A70230" stroke-width="2" stroke-linecap="round" stroke-linejoin="round"/>
</svg>
