<svg width="26" height="17" viewBox="0 0 26 17" fill="none" xmlns="http://www.w3.org/2000/svg">
<path fill-rule="evenodd" clip-rule="evenodd" d="M11 1C11.5523 1 12 1.44772 12 2V6.60677V8.65393C12 8.65328 12 8.65344 12.0001 8.65432C12.0006 8.65902 12.003 8.6842 12.0157 8.72003C12.0295 8.75919 12.0507 8.79711 12.0798 8.82978C12.1065 8.85973 12.15 8.89706 12.2283 8.92969C12.3087 8.96319 12.4462 9 12.6667 9C12.8871 9 13.0246 8.96319 13.105 8.92969C13.1833 8.89706 13.2268 8.85973 13.2536 8.82978C13.2827 8.79711 13.3038 8.75919 13.3177 8.72003C13.3303 8.6842 13.3328 8.65902 13.3332 8.65432C13.3333 8.65344 13.3333 8.65328 13.3333 8.65393V5.48504C13.3333 5.05064 13.4848 4.4667 13.9202 3.9783C14.385 3.4569 15.0882 3.13897 16 3.13897C16.9118 3.13897 17.615 3.4569 18.0798 3.9783C18.5152 4.4667 18.6667 5.05064 18.6667 5.48504V6.38243C18.6667 6.38178 18.6667 6.38194 18.6668 6.38282C18.6672 6.38752 18.6697 6.4127 18.6823 6.44853C18.6962 6.48769 18.7173 6.52561 18.7464 6.55828C18.7732 6.58823 18.8167 6.62557 18.895 6.65819C18.9754 6.69169 19.1129 6.7285 19.3333 6.7285C19.5538 6.7285 19.6913 6.69169 19.7717 6.65819C19.85 6.62557 19.8935 6.58823 19.9202 6.55828C19.9493 6.52561 19.9705 6.4877 19.9843 6.44853C19.997 6.4127 19.9994 6.38752 19.9999 6.38282C20 6.38194 20 6.38178 20 6.38243V5C20 4.44772 20.4477 4 21 4C21.5523 4 22 4.44772 22 5V6.38243C22 6.81683 21.8485 7.40077 21.4131 7.88917C20.9483 8.41057 20.2451 8.7285 19.3333 8.7285C18.4215 8.7285 17.7184 8.41057 17.2536 7.88917C16.8182 7.40077 16.6667 6.81683 16.6667 6.38243V5.48504C16.6667 5.48569 16.6667 5.48553 16.6666 5.48465C16.6661 5.47995 16.6637 5.45477 16.651 5.41894C16.6371 5.37978 16.616 5.34186 16.5869 5.30919C16.5602 5.27924 16.5166 5.24191 16.4383 5.20928C16.3579 5.17578 16.2204 5.13897 16 5.13897C15.7796 5.13897 15.6421 5.17578 15.5617 5.20928C15.4834 5.24191 15.4398 5.27924 15.4131 5.30919C15.384 5.34186 15.3629 5.37978 15.349 5.41894C15.3363 5.45477 15.3339 5.47995 15.3334 5.48465C15.3333 5.48553 15.3333 5.48569 15.3333 5.48504V8.65393C15.3333 9.08833 15.1818 9.67227 14.7464 10.1607C14.2816 10.6821 13.5785 11 12.6667 11C11.7549 11 11.0517 10.6821 10.5869 10.1607C10.1515 9.67227 10 9.08833 10 8.65393V6.60677V2C10 1.44772 10.4477 1 11 1Z" fill="#A70230"/>
<path fill-rule="evenodd" clip-rule="evenodd" d="M-8.74228e-08 13C-3.91405e-08 12.4477 0.447715 12 1 12L25 12C25.5523 12 26 12.4477 26 13C26 13.5523 25.5523 14 25 14L1 14C0.447715 14 -1.35705e-07 13.5523 -8.74228e-08 13Z" fill="#A70230"/>
<path fill-rule="evenodd" clip-rule="evenodd" d="M4 16C4 15.4477 4.44772 15 5 15L21 15C21.5523 15 22 15.4477 22 16C22 16.5523 21.5523 17 21 17L5 17C4.44772 17 4 16.5523 4 16Z" fill="#A70230"/>
<path fill-rule="evenodd" clip-rule="evenodd" d="M18 2H8C6.89543 2 6 2.89543 6 4V12H20V4C20 2.89543 19.1046 2 18 2ZM8 0C5.79086 0 4 1.79086 4 4V14H22V4C22 1.79086 20.2091 0 18 0H8Z" fill="#A70230"/>
</svg>
