<svg width="29" height="30" viewBox="0 0 29 30" fill="none" xmlns="http://www.w3.org/2000/svg">
<path d="M18.4807 23.5519C21.3176 20.715 20.478 15.8249 17.3265 12.6734C14.175 9.52183 9.28486 8.68227 6.44796 11.5192C3.61106 14.3561 4.45061 19.2462 7.60215 22.3977C10.7537 25.5492 15.6438 26.3888 18.4807 23.5519Z" stroke="#A70230" stroke-width="2" stroke-linecap="round" stroke-linejoin="round"/>
<path d="M11.4174 9.40277C13.5023 5.31433 17.7862 3.32268 20.9859 4.9543C24.1855 6.58591 25.0892 11.2229 23.0044 15.3114C22.3348 16.6244 21.4385 17.7211 20.4241 18.5511" stroke="#A70230" stroke-width="2" stroke-linecap="round" stroke-linejoin="round"/>
<path d="M7.38892 11.4114C7.44828 11.8869 7.73651 13.5643 9.02205 15.127C10.9534 17.4747 12.5297 16.9681 15.1446 19.1671C16.3225 20.1577 17.5219 21.9603 17.9378 22.7923" stroke="#A70230" stroke-width="2" stroke-linecap="round" stroke-linejoin="round"/>
<path d="M22.0426 6.20423C21.5383 6.39784 19.7935 7.16464 18.6077 8.96032C17.6633 10.3905 17.5698 11.4945 17.4937 12.7203" stroke="#A70230" stroke-width="2" stroke-linecap="round" stroke-linejoin="round"/>
</svg>
