<svg width="20" height="16" viewBox="0 0 20 16" fill="none" xmlns="http://www.w3.org/2000/svg">
	<path fill-rule="evenodd" clip-rule="evenodd" d="M2 2V5H7V2H2ZM1 0C0.447715 0 0 0.447715 0 1V6C0 6.55228 0.447715 7 1 7H8C8.55229 7 9 6.55228 9 6V1C9 0.447715 8.55229 0 8 0H1Z" fill="#A70230"/>
	<path fill-rule="evenodd" clip-rule="evenodd" d="M13 2V5H18V2H13ZM12 0C11.4477 0 11 0.447715 11 1V6C11 6.55228 11.4477 7 12 7H19C19.5523 7 20 6.55228 20 6V1C20 0.447715 19.5523 0 19 0H12Z" fill="#A70230"/>
	<path fill-rule="evenodd" clip-rule="evenodd" d="M2 11V14H7V11H2ZM1 9C0.447715 9 0 9.44772 0 10V15C0 15.5523 0.447715 16 1 16H8C8.55229 16 9 15.5523 9 15V10C9 9.44772 8.55229 9 8 9H1Z" fill="#A70230"/>
	<path fill-rule="evenodd" clip-rule="evenodd" d="M13 11V14H18V11H13ZM12 9C11.4477 9 11 9.44772 11 10V15C11 15.5523 11.4477 16 12 16H19C19.5523 16 20 15.5523 20 15V10C20 9.44772 19.5523 9 19 9H12Z" fill="#A70230"/>
</svg>
