<svg width="30" height="30" viewBox="0 0 30 30" fill="none" xmlns="http://www.w3.org/2000/svg">
<mask id="path-1-inside-1" fill="white">
<path fill-rule="evenodd" clip-rule="evenodd" d="M6 4C4.89543 4 4 4.89543 4 6L4 12.2135C6.07726 12.6707 7.6316 14.5222 7.6316 16.7369C7.6316 18.9515 6.07726 20.8031 4 21.2602V24C4 25.1046 4.89543 26 6 26H24C25.1046 26 26 25.1046 26 24V6C26 4.89543 25.1046 4 24 4L6 4Z"/>
</mask>
<path d="M4 12.2135H2V13.8212L3.57014 14.1668L4 12.2135ZM4 21.2602L3.57014 19.307L2 19.6525V21.2602H4ZM6 6V6V2C3.79086 2 2 3.79086 2 6H6ZM6 12.2135V6H2L2 12.2135H6ZM3.57014 14.1668C4.74994 14.4264 5.6316 15.481 5.6316 16.7369H9.6316C9.6316 13.5635 7.40459 10.9149 4.42986 10.2603L3.57014 14.1668ZM5.6316 16.7369C5.6316 17.9927 4.74994 19.0473 3.57014 19.307L4.42986 23.2135C7.40459 22.5588 9.6316 19.9103 9.6316 16.7369H5.6316ZM6 24V21.2602H2V24H6ZM6 24H6H2C2 26.2091 3.79086 28 6 28L6 24ZM24 24H6L6 28H24V24ZM24 24V28C26.2091 28 28 26.2091 28 24H24ZM24 6V24H28V6L24 6ZM24 6L28 6C28 3.79086 26.2091 2 24 2V6ZM6 6L24 6V2L6 2V6Z" fill="#8E0732" mask="url(#path-1-inside-1)"/>
<circle cx="17" cy="18" r="3" stroke="#8E0732" stroke-width="2"/>
<circle cx="19.5" cy="10.5" r="1.75" stroke="#8E0732" stroke-width="1.5"/>
<path d="M15.1 10.5C15.1 11.9359 13.9359 13.1 12.5 13.1C11.0641 13.1 9.9 11.9359 9.9 10.5C9.9 9.06406 11.0641 7.9 12.5 7.9C13.9359 7.9 15.1 9.06406 15.1 10.5Z" stroke="#8E0732" stroke-width="1.8"/>
</svg>
