<svg width="19" height="18" viewBox="0 0 19 18" fill="none" xmlns="http://www.w3.org/2000/svg">
<path d="M16.9375 5.64614H13.5758C13.8169 5.48145 14.0241 5.31783 14.1686 5.1712C15.025 4.30952 15.025 2.90702 14.1686 2.04533C13.3367 1.20808 11.8853 1.20702 11.0523 2.04533C10.5923 2.50752 9.36931 4.3892 9.53825 5.64614H9.46175C9.62963 4.3892 8.40775 2.50752 7.94769 2.04533C7.11469 1.20702 5.66331 1.20808 4.83137 2.04533C3.975 2.90702 3.975 4.30952 4.83031 5.1712C4.97587 5.31783 5.18306 5.48145 5.42425 5.64614H2.0625C1.47706 5.64614 1 6.1232 1 6.70864V9.36489C1 9.65814 1.238 9.89614 1.53125 9.89614H2.0625V16.2711C2.0625 16.8566 2.53956 17.3336 3.125 17.3336L9.5 17.5L15.875 17.3336C16.4604 17.3336 16.9375 16.8566 16.9375 16.2711V9.89614H17.4688C17.762 9.89614 18 9.65814 18 9.36489V6.70864C18 6.1232 17.5229 5.64614 16.9375 5.64614ZM5.58469 2.79439C5.80038 2.57764 6.08619 2.45864 6.39006 2.45864C6.69287 2.45864 6.97869 2.57764 7.19438 2.79439C7.9105 3.51477 8.62238 5.35502 8.37481 5.61108C8.37481 5.61108 8.33019 5.64614 8.17825 5.64614C7.44406 5.64614 6.04263 4.88327 5.58469 4.42214C5.1395 3.97377 5.1395 3.24277 5.58469 2.79439ZM8.96875 16.2711H3.125V9.89614H8.96875V16.2711ZM8.96875 8.83364H2.0625V6.70864H8.17825H8.96875V8.83364ZM11.8056 2.79439C12.237 2.36195 12.985 2.36302 13.4153 2.79439C13.8605 3.24277 13.8605 3.97377 13.4153 4.42214C12.9574 4.88327 11.5559 5.64614 10.8218 5.64614C10.6698 5.64614 10.6241 5.61108 10.6241 5.61108C10.3776 5.35502 11.0895 3.51477 11.8056 2.79439ZM15.875 16.2711H10.0312V9.89614H15.875V16.2711ZM16.9375 8.83364H10.0312V6.70864H10.8218H16.9375V8.83364Z" fill="#A70230" stroke="#A70230"/>
</svg>
