<svg xmlns="http://www.w3.org/2000/svg" width="19.98" height="20.92" viewBox="0 0 19.98 20.92">
	<path d="M19.21,11l-3.83,1.2-2.82-1.68,2.91-1.66,3.77,1.2a1,1,0,0,0,1.26-.65,1,1,0,0,0-.65-1.26l-2-.63,1.45-.83a1,1,0,0,0,.37-1.36A1,1,0,0,0,18.29,5l-1.55.88.52-2.22a1,1,0,0,0-.11-.71,1,1,0,0,0-.64-.48,1,1,0,0,0-1.2.75l-.93,4L11.57,8.79V5.57l3-2.78a1,1,0,0,0,0-1.42,1,1,0,0,0-.73-.31,1,1,0,0,0-.69.27L11.57,2.84V1.05a1,1,0,0,0-2,0V2.82L8,1.36a1,1,0,0,0-.68-.26,1,1,0,0,0-.73.32,1,1,0,0,0,.06,1.41l3,2.7V8.75L6.75,7.08,5.87,3.17a1,1,0,0,0-1.2-.75A1,1,0,0,0,4,2.89a1,1,0,0,0-.11.72l.46,2.06L2.94,4.82a1,1,0,0,0-1,1.72l1.55.92L1.3,8.14a1,1,0,0,0-.56.45,1,1,0,0,0-.09.8,1,1,0,0,0,1.25.66L5.79,8.84l2.79,1.65-3,1.69L1.87,11a1,1,0,0,0-1.25.66,1,1,0,0,0,.08.79,1,1,0,0,0,.57.46l2,.63-1.39.79a1,1,0,0,0,1,1.74l1.53-.88-.52,2.26a1,1,0,0,0,.1.71,1,1,0,0,0,.65.49,1,1,0,0,0,1.2-.75l.93-4.05,2.83-1.61v3.3l-3,2.78a1,1,0,0,0,0,1.41A1,1,0,0,0,8,19.77l1.61-1.51V20a1,1,0,0,0,2,0v-1.7l1.62,1.48a1,1,0,0,0,.67.26,1,1,0,0,0,.67-1.74l-3-2.71V12.26l2.78,1.65.89,4a1,1,0,0,0,1.2.75,1,1,0,0,0,.64-.47,1,1,0,0,0,.11-.72l-.47-2.13,1.47.88a1.06,1.06,0,0,0,.51.14,1,1,0,0,0,.51-1.86l-1.52-.9,2.12-.66a1,1,0,0,0,.56-.45,1,1,0,0,0,.09-.8A1,1,0,0,0,19.21,11Z" transform="translate(-0.57 -0.05)" fill="#a71d33"/>
</svg>
