<svg xmlns="http://www.w3.org/2000/svg" width="21.02" height="21.02" viewBox="0 0 21.02 21.02">
  <title>Замороженная продукция</title>
  <g>
    <path d="M11,.6A10.51,10.51,0,1,0,21.55,11.1,10.5,10.5,0,0,0,11,.6Zm0,19a8.51,8.51,0,1,1,8.51-8.51A8.52,8.52,0,0,1,11,19.61Z" transform="translate(-0.53 -0.6)" fill="#a71d33"/>
    <path d="M16.68,7.63a6.62,6.62,0,1,0-11.3,6.89,6.26,6.26,0,0,0,4.93,3.13h.22c1.65,0,2.22-1,2.77-2,.13-.23.28-.49.45-.77a1,1,0,0,0-1.71-1c-.19.31-.34.6-.49.85l0,.07-1.06-1.17A1,1,0,0,0,9,14.89l.53.59a4.7,4.7,0,0,1-3-5.5,4.62,4.62,0,1,1,8.78,2.82,1,1,0,0,0,1.85.75A6.62,6.62,0,0,0,16.68,7.63Z" transform="translate(-0.53 -0.6)" fill="#a71d33"/>
  </g>
</svg>
