<svg width="17" height="24" viewBox="0 0 17 24" fill="none" xmlns="http://www.w3.org/2000/svg">
<path fill-rule="evenodd" clip-rule="evenodd" d="M4.04465 8.29482C3.51711 8.45827 2.95694 8.16312 2.79349 7.63558C2.18067 5.65778 2.98927 3.44957 4.859 2.37008C7.02753 1.11807 9.80042 1.86107 11.0524 4.0296C11.8093 5.3406 11.8361 6.87284 11.2627 8.15297C11.0369 8.65699 10.4452 8.88253 9.94121 8.65674C9.43719 8.43094 9.21165 7.83931 9.43744 7.33529C9.75981 6.61571 9.74281 5.76127 9.32038 5.0296C8.62066 3.81765 7.07095 3.40241 5.859 4.10213C4.81575 4.70445 4.36147 5.93853 4.70388 7.04365C4.86734 7.57119 4.57219 8.13136 4.04465 8.29482Z" fill="#A70230"/>
<path fill-rule="evenodd" clip-rule="evenodd" d="M12.5 6C13.0523 6 13.5 5.55228 13.5 5C13.5 4.44772 13.0523 4 12.5 4C11.9477 4 11.5 4.44772 11.5 5C11.5 5.55228 11.9477 6 12.5 6ZM12.5 8C14.1569 8 15.5 6.65685 15.5 5C15.5 3.34315 14.1569 2 12.5 2C10.8431 2 9.5 3.34315 9.5 5C9.5 6.65685 10.8431 8 12.5 8Z" fill="#A70230"/>
<path d="M4.5 12C4.5 12.5523 4.05228 13 3.5 13C2.94772 13 2.5 12.5523 2.5 12C2.5 11.4477 2.94772 11 3.5 11C4.05228 11 4.5 11.4477 4.5 12Z" fill="#A70230"/>
<path d="M7.5 15C7.5 15.5523 7.05228 16 6.5 16C5.94772 16 5.5 15.5523 5.5 15C5.5 14.4477 5.94772 14 6.5 14C7.05228 14 7.5 14.4477 7.5 15Z" fill="#A70230"/>
<path d="M5.5 18C5.5 18.5523 5.05228 19 4.5 19C3.94772 19 3.5 18.5523 3.5 18C3.5 17.4477 3.94772 17 4.5 17C5.05228 17 5.5 17.4477 5.5 18Z" fill="#A70230"/>
<path fill-rule="evenodd" clip-rule="evenodd" d="M2 8.00369V21.5H9V17.4999C9 16.4942 8.99821 15.072 8.76361 13.6643C8.52517 12.2336 8.07121 10.9853 7.29289 10.207C6.45522 9.36928 5.21319 8.76646 3.96542 8.39605C3.22352 8.17582 2.53699 8.05428 2 8.00369ZM4.53458 6.47875C5.95348 6.89996 7.54478 7.63041 8.70711 8.79274C9.92879 10.0144 10.4748 11.7661 10.7364 13.3355C11 14.9173 11 16.4848 11 17.4801V22.5C11 23.0522 10.5523 23.5 10 23.5H1C0.447715 23.5 0 23.0522 0 22.5V6.99996C0 6.49563 0.375536 6.07023 0.875965 6.00768C1.73101 5.9008 3.12952 6.06165 4.53458 6.47875Z" fill="#A70230"/>
<path fill-rule="evenodd" clip-rule="evenodd" d="M14.5 8.00369C13.963 8.05428 13.2765 8.17582 12.5346 8.39605C11.2868 8.76646 10.0448 9.36928 9.20711 10.207C8.81658 10.5975 8.18342 10.5975 7.79289 10.207C7.40237 9.81643 7.40237 9.18327 7.79289 8.79274C8.95522 7.63041 10.5465 6.89996 11.9654 6.47875C13.3705 6.06165 14.769 5.9008 15.624 6.00768C16.1245 6.07023 16.5 6.49563 16.5 6.99996V22.5C16.5 23.0522 16.0523 23.5 15.5 23.5H6.5C5.94771 23.5 5.5 23.0522 5.5 22.5C5.5 21.9477 5.94771 21.5 6.5 21.5H14.5V8.00369Z" fill="#A70230"/>
</svg>
