<svg xmlns="http://www.w3.org/2000/svg" width="27.4" height="20.84" viewBox="0 0 27.4 20.84">
  <title>IconFrozen-golubets</title>
  <g>
    <path d="M27-36.27l9.17-4.9,6.08-3.25A7.11,7.11,0,0,1,47.38-45l1.07.36a3,3,0,0,1,2.25,3.09v1.7a2.85,2.85,0,0,1-1,2.42L33.49-26.65" transform="translate(-24.3 46.24)" fill="none" stroke="#a71d33" stroke-linecap="round" stroke-linejoin="round" stroke-width="2"/>
    <path d="M30.23-33.83s2.3-.72,3.12,0c.62.56.79,1,.79,2.18v3.77a1.47,1.47,0,0,1-1.85,1.41l-3.88-1a4.2,4.2,0,0,1-3.11-4.05v-2a3.16,3.16,0,0,1,4-3.05l1.35.36" transform="translate(-24.3 46.24)" fill="none" stroke="#a71d33" stroke-linecap="round" stroke-linejoin="round" stroke-width="2"/>
    <path d="M42.32-39.95a18.36,18.36,0,0,0-5.51-1.16" transform="translate(-24.3 46.24)" fill="none" stroke="#a71d33" stroke-linecap="round" stroke-linejoin="round" stroke-width="2"/>
    <path d="M38.51-41.8A8.9,8.9,0,0,0,38-38.24" transform="translate(-24.3 46.24)" fill="none" stroke="#a71d33" stroke-linecap="round" stroke-linejoin="round" stroke-width="2"/>
  </g>
</svg>
