<svg xmlns="http://www.w3.org/2000/svg" width="21.13" height="19.51" viewBox="0 0 21.13 19.51">
  <title>суп</title>
  <g>
    <path d="M.26,9l.13,1.12A10,10,0,0,0,6.24,18H4.32a1,1,0,0,0,0,2h13a1,1,0,0,0,0-2H15.4a10,10,0,0,0,5.86-7.88L21.39,9Zm18.79,2a7.59,7.59,0,0,1-.87,2H3.46a7.59,7.59,0,0,1-.87-2Zm-2.61,4A8.9,8.9,0,0,1,5.2,15Z" transform="translate(-0.26 -0.49)" fill="#a71d33"/>
    <path d="M5.43,7.57a1,1,0,0,0,.63.23A1,1,0,0,0,6.7,6c-.11-.09-.4-.42.14-1.09a3.21,3.21,0,0,0,0-4.09A1,1,0,0,0,5.3,2.14a1.19,1.19,0,0,1,0,1.54A2.67,2.67,0,0,0,5.43,7.57Z" transform="translate(-0.26 -0.49)" fill="#a71d33"/>
    <path d="M10.18,7.57a1,1,0,0,0,.62.23,1,1,0,0,0,.75-.35A1,1,0,0,0,11.46,6c-.29-.26-.25-.64.13-1.1a3.21,3.21,0,0,0,0-4.09A1,1,0,0,0,10,2.14a1.16,1.16,0,0,1,0,1.54A2.68,2.68,0,0,0,10.18,7.57Z" transform="translate(-0.26 -0.49)" fill="#a71d33"/>
    <path d="M14.92,7.57a1,1,0,0,0,.64.23,1,1,0,0,0,.77-.36A1,1,0,0,0,16.19,6c-.1-.09-.4-.42.15-1.09a3.19,3.19,0,0,0,0-4.09,1,1,0,0,0-1.4-.12,1,1,0,0,0-.13,1.41,1.16,1.16,0,0,1,0,1.54A2.68,2.68,0,0,0,14.92,7.57Z" transform="translate(-0.26 -0.49)" fill="#a71d33"/>
  </g>
</svg>
