<svg width="13" height="17" viewBox="0 0 13 17" fill="none" xmlns="http://www.w3.org/2000/svg">
<path d="M12.1074 13.7255L11.4571 15.7302C11.3976 15.9165 11.2962 16.09 11.1594 16.2394C11.0226 16.3889 10.8535 16.511 10.6628 16.5981C10.4722 16.6852 10.2642 16.7352 10.0522 16.745C9.84024 16.7548 9.62894 16.7242 9.43184 16.6551C7.25743 15.8506 5.32706 14.5899 3.79584 12.9741C2.3644 11.4919 1.31266 9.73622 0.715317 7.83173C0.046775 5.76931 -0.0773647 3.5859 0.352955 1.45837C0.394649 1.26886 0.479057 1.08882 0.600806 0.929718C0.722555 0.770612 0.878977 0.635927 1.06011 0.534236C1.24125 0.432545 1.44313 0.366078 1.6529 0.339065C1.86267 0.312053 2.07574 0.325087 2.27854 0.377339L4.46908 0.943783C4.82447 1.03222 5.13076 1.2359 5.33085 1.51685C5.53094 1.79779 5.61118 2.13684 5.55661 2.4708C5.44097 3.13626 5.4081 3.81053 5.45865 4.48074C5.47931 4.74532 5.41625 5.01076 5.27695 5.2456C5.13766 5.48045 4.92796 5.67485 4.67271 5.80577L3.4701 6.41465C3.96689 8.35642 5.03116 10.133 6.55063 11.557L7.75323 10.9481C8.01004 10.8198 8.30085 10.7608 8.5912 10.7781C8.88155 10.7954 9.15927 10.8883 9.39145 11.0458C9.98054 11.4434 10.618 11.7783 11.2915 12.0442C11.6314 12.1817 11.9023 12.4289 12.0527 12.7389C12.2031 13.0489 12.2226 13.4 12.1074 13.7255Z" fill="#A70230"/>
<path d="M12.1074 13.7255L11.4571 15.7302C11.3976 15.9165 11.2962 16.09 11.1594 16.2394C11.0226 16.3889 10.8535 16.511 10.6628 16.5981C10.4722 16.6852 10.2642 16.7352 10.0522 16.745C9.84024 16.7548 9.62894 16.7242 9.43184 16.6551C7.25743 15.8506 5.32706 14.5899 3.79584 12.9741C2.3644 11.4919 1.31266 9.73622 0.715317 7.83173C0.046775 5.76931 -0.0773647 3.5859 0.352955 1.45837C0.394649 1.26886 0.479057 1.08882 0.600806 0.929718C0.722555 0.770612 0.878977 0.635927 1.06011 0.534236C1.24125 0.432545 1.44313 0.366078 1.6529 0.339065C1.86267 0.312053 2.07574 0.325087 2.27854 0.377339L4.46908 0.943783C4.82447 1.03222 5.13076 1.2359 5.33085 1.51685C5.53094 1.79779 5.61118 2.13684 5.55661 2.4708C5.44097 3.13626 5.4081 3.81053 5.45865 4.48074C5.47931 4.74532 5.41625 5.01076 5.27695 5.2456C5.13766 5.48045 4.92796 5.67485 4.67271 5.80577L3.4701 6.41465C3.96689 8.35642 5.03116 10.133 6.55063 11.557L7.75323 10.9481C8.01004 10.8198 8.30085 10.7608 8.5912 10.7781C8.88155 10.7954 9.15927 10.8883 9.39145 11.0458C9.98054 11.4434 10.618 11.7783 11.2915 12.0442C11.6314 12.1817 11.9023 12.4289 12.0527 12.7389C12.2031 13.0489 12.2226 13.4 12.1074 13.7255Z" fill="#A70230"/>
</svg>
