<svg width="11" height="12" viewBox="0 0 11 12" xmlns="http://www.w3.org/2000/svg">
<path fill-rule="evenodd" clip-rule="evenodd" d="M5.07639 9.07637C6.77544 9.07637 8.15278 7.69902 8.15278 5.99998C8.15278 4.30093 6.77544 2.92358 5.07639 2.92358C3.37735 2.92358 2 4.30093 2 5.99998C2 7.69902 3.37735 9.07637 5.07639 9.07637ZM5.07639 11.0764C7.88001 11.0764 10.1528 8.80359 10.1528 5.99998C10.1528 3.19636 7.88001 0.923584 5.07639 0.923584C2.27278 0.923584 0 3.19636 0 5.99998C0 8.80359 2.27278 11.0764 5.07639 11.0764Z" />
<path fill-rule="evenodd" clip-rule="evenodd" d="M4.87793 3.93738C5.15407 3.93738 5.37793 4.16124 5.37793 4.43738V5.92602L6.33911 6.89945C6.53313 7.09594 6.53113 7.41252 6.33463 7.60654C6.13814 7.80056 5.82156 7.79856 5.62754 7.60206L4.52214 6.48258C4.42974 6.389 4.37793 6.26278 4.37793 6.13127V4.43738C4.37793 4.16124 4.60179 3.93738 4.87793 3.93738Z" />
</svg>
