<svg width="16" height="18" viewBox="0 0 16 18" fill="none" xmlns="http://www.w3.org/2000/svg">
<path fill-rule="evenodd" clip-rule="evenodd" d="M5.82614 3.03629C5.9132 2.95271 6.03968 2.89893 6.1797 2.89893H9.1385C9.27851 2.89893 9.40499 2.95271 9.49206 3.03629C9.57773 3.11854 9.6179 3.22118 9.6179 3.31915V3.73937H5.7003V3.31915C5.7003 3.22118 5.74046 3.11854 5.82614 3.03629ZM11.6179 3.31915V3.73937H12.837L12.8489 3.73944H14.3146C14.8669 3.73944 15.3146 4.18716 15.3146 4.73944C15.3146 5.29173 14.8669 5.73944 14.3146 5.73944H13.837V14.6809C13.837 15.3363 13.5654 15.9561 13.0962 16.4066C12.6284 16.8557 12.0023 17.1012 11.3576 17.1012H3.9606C3.31589 17.1012 2.68979 16.8557 2.22198 16.4066C1.75277 15.9561 1.4812 15.3363 1.4812 14.6809V5.73944H1C0.447715 5.73944 0 5.29173 0 4.73944C0 4.18716 0.447715 3.73944 1 3.73944H2.4693L2.4812 3.73937H3.7003V3.31915C3.7003 2.66379 3.97187 2.04395 4.44107 1.59351C4.90889 1.14441 5.53499 0.898926 6.1797 0.898926H9.1385C9.7832 0.898926 10.4093 1.14441 10.8771 1.59351C11.3463 2.04395 11.6179 2.66379 11.6179 3.31915ZM3.4812 5.73944V14.6809C3.4812 14.7789 3.52136 14.8815 3.60704 14.9638C3.6941 15.0474 3.82058 15.1012 3.9606 15.1012H11.3576C11.4976 15.1012 11.6241 15.0474 11.7112 14.9638C11.7968 14.8815 11.837 14.7789 11.837 14.6809V5.73944H3.4812ZM6.17615 7.28992C6.72843 7.28992 7.17615 7.73763 7.17615 8.28992V12.5506C7.17615 13.1029 6.72843 13.5506 6.17615 13.5506C5.62386 13.5506 5.17615 13.1029 5.17615 12.5506V8.28992C5.17615 7.73763 5.62386 7.28992 6.17615 7.28992ZM10.1385 8.28995C10.1385 7.73766 9.69083 7.28995 9.13855 7.28995C8.58626 7.28995 8.13855 7.73766 8.13855 8.28995V12.5506C8.13855 13.1029 8.58626 13.5506 9.13855 13.5506C9.69083 13.5506 10.1385 13.1029 10.1385 12.5506V8.28995Z" fill="#A70230"/>
</svg>
