<svg width="16" height="17" viewBox="0 0 16 17" fill="none" xmlns="http://www.w3.org/2000/svg">
<path fill-rule="evenodd" clip-rule="evenodd" d="M5.82614 2.53629C5.9132 2.45271 6.03968 2.39893 6.1797 2.39893H9.1385C9.27851 2.39893 9.40499 2.45271 9.49206 2.53629C9.57773 2.61854 9.6179 2.72118 9.6179 2.81915V3.23937H5.7003V2.81915C5.7003 2.72118 5.74046 2.61854 5.82614 2.53629ZM11.6179 2.81915V3.23937H12.837L12.8489 3.23944H14.3146C14.8669 3.23944 15.3146 3.68716 15.3146 4.23944C15.3146 4.79173 14.8669 5.23944 14.3146 5.23944H13.837V14.1809C13.837 14.8363 13.5654 15.4561 13.0962 15.9066C12.6284 16.3557 12.0023 16.6012 11.3576 16.6012H3.9606C3.31589 16.6012 2.68979 16.3557 2.22198 15.9066C1.75277 15.4561 1.4812 14.8363 1.4812 14.1809V5.23944H1C0.447715 5.23944 0 4.79173 0 4.23944C0 3.68716 0.447715 3.23944 1 3.23944H2.4693L2.4812 3.23937H3.7003V2.81915C3.7003 2.16379 3.97187 1.54395 4.44107 1.09351C4.90889 0.644407 5.53499 0.398926 6.1797 0.398926H9.1385C9.7832 0.398926 10.4093 0.644407 10.8771 1.09351C11.3463 1.54395 11.6179 2.16379 11.6179 2.81915ZM3.4812 5.23944V14.1809C3.4812 14.2789 3.52136 14.3815 3.60704 14.4638C3.6941 14.5474 3.82058 14.6012 3.9606 14.6012H11.3576C11.4976 14.6012 11.6241 14.5474 11.7112 14.4638C11.7968 14.3815 11.837 14.2789 11.837 14.1809V5.23944H3.4812ZM6.17615 6.78992C6.72843 6.78992 7.17615 7.23763 7.17615 7.78992V12.0506C7.17615 12.6029 6.72843 13.0506 6.17615 13.0506C5.62386 13.0506 5.17615 12.6029 5.17615 12.0506V7.78992C5.17615 7.23763 5.62386 6.78992 6.17615 6.78992ZM10.1385 7.78995C10.1385 7.23766 9.69083 6.78995 9.13855 6.78995C8.58626 6.78995 8.13855 7.23766 8.13855 7.78995V12.0506C8.13855 12.6029 8.58626 13.0506 9.13855 13.0506C9.69083 13.0506 10.1385 12.6029 10.1385 12.0506V7.78995Z" fill="black"/>
</svg>
