<svg width="215" height="35" viewBox="0 0 215 35" fill="none" xmlns="http://www.w3.org/2000/svg">
<path d="M66.9491 20.2263H63.6258V9.0066H58.674V20.2263H55.3507V6.44074H66.9491V20.2263ZM76.8528 17.651H72.2986L71.5033 20.2263H67.9527L73.0087 6.44074H76.1332L81.227 20.2263H77.6576L76.8528 17.651ZM73.0939 15.0851H76.0575L74.571 10.3037L73.0939 15.0851ZM94.009 6.44074V20.2263H90.6857V9.0066H87.5896L87.3624 13.6365C87.2677 15.2335 87.0468 16.5085 86.6996 17.4616C86.3524 18.4148 85.857 19.1122 85.2131 19.5541C84.5756 19.9896 83.7045 20.2137 82.5999 20.2263H81.7099V17.6699L82.1739 17.6226C82.8366 17.5279 83.3163 17.1239 83.613 16.4107C83.9097 15.6911 84.1022 14.4823 84.1906 12.7844L84.4273 6.44074H94.009ZM99.4058 11.1843H101.12C102.212 11.1843 103.177 11.3705 104.017 11.7429C104.856 12.1153 105.5 12.6424 105.948 13.3241C106.403 13.9995 106.63 14.7758 106.63 15.6532C106.63 17.0103 106.125 18.1118 105.115 18.9576C104.111 19.8034 102.761 20.2263 101.063 20.2263H96.073V6.44074H99.4058V11.1843ZM110.947 20.2263H107.634V6.44074H110.947V20.2263ZM99.4058 13.7407V17.6699H101.11C101.785 17.6699 102.319 17.4806 102.71 17.1018C103.108 16.7231 103.307 16.2339 103.307 15.6343C103.307 15.0662 103.111 14.6086 102.72 14.2614C102.328 13.9142 101.785 13.7407 101.091 13.7407H99.4058ZM124.212 6.44074V20.2263H120.898V15.1325L119.923 15.2556L118.702 15.3313C116.846 15.3313 115.426 14.9305 114.441 14.1289C113.457 13.3209 112.958 12.1784 112.945 10.7014V6.44074H116.269V10.6541C116.269 11.4052 116.448 11.948 116.808 12.2826C117.174 12.6108 117.806 12.7749 118.702 12.7749L118.986 12.7654C119.762 12.7276 120.4 12.6676 120.898 12.5855V6.44074H124.212ZM132.374 15.5207H126.683V13.0495H132.374V15.5207ZM135.015 20.2263V6.44074H139.967C141.741 6.44074 143.089 6.76581 144.01 7.41596C144.938 8.0661 145.402 9.00976 145.402 10.2469C145.402 10.9602 145.238 11.5693 144.91 12.0743C144.581 12.5792 144.098 12.9516 143.461 13.1915C144.181 13.3809 144.733 13.7343 145.118 14.2519C145.503 14.7695 145.695 15.4007 145.695 16.1456C145.695 17.4963 145.266 18.5126 144.408 19.1943C143.556 19.8697 142.29 20.2137 140.611 20.2263H135.015ZM138.339 14.3656V17.6699H140.516C141.116 17.6699 141.577 17.5342 141.899 17.2628C142.221 16.9851 142.382 16.5969 142.382 16.0982C142.382 14.9494 141.81 14.3719 140.668 14.3656H138.339ZM138.339 12.1879H140.071C140.797 12.1816 141.315 12.049 141.624 11.7902C141.933 11.5314 142.088 11.1496 142.088 10.6446C142.088 10.0639 141.921 9.64728 141.586 9.39479C141.252 9.136 140.712 9.0066 139.967 9.0066H138.339V12.1879ZM156.082 14.3845H150.856V17.6699H157.029V20.2263H147.532V6.44074H157.048V9.0066H150.856V11.9133H156.082V14.3845ZM165.096 10.2659C165.096 9.83033 164.925 9.48001 164.584 9.2149C164.25 8.94979 163.795 8.81724 163.221 8.81724C162.684 8.81724 162.252 8.94664 161.924 9.20543C161.602 9.45791 161.441 9.79245 161.441 10.2091H158.127C158.127 9.4516 158.342 8.77305 158.771 8.17341C159.206 7.57376 159.819 7.10667 160.608 6.77213C161.397 6.43127 162.268 6.26085 163.221 6.26085C164.862 6.26085 166.137 6.60486 167.046 7.29287C167.961 7.98089 168.419 8.94348 168.419 10.1806C168.419 10.8119 168.233 11.3894 167.86 11.9133C167.494 12.4309 166.986 12.8412 166.336 13.1442C167.081 13.4093 167.649 13.8132 168.04 14.3561C168.438 14.8926 168.637 15.5617 168.637 16.3633C168.637 17.6005 168.144 18.5852 167.16 19.3174C166.175 20.0433 164.862 20.4062 163.221 20.4062C161.7 20.4062 160.437 20.0496 159.434 19.3363C158.43 18.6167 157.928 17.6384 157.928 16.4012H161.261C161.261 16.8115 161.444 17.1586 161.81 17.4427C162.176 17.7204 162.647 17.8593 163.221 17.8593C163.84 17.8593 164.341 17.7141 164.726 17.4238C165.111 17.1334 165.304 16.7547 165.304 16.2876C165.304 15.6059 165.14 15.1262 164.812 14.8484C164.483 14.5644 164.004 14.4224 163.372 14.4224H161.602V11.9607H163.486C164.559 11.9291 165.096 11.3642 165.096 10.2659ZM179.146 14.3845H173.92V17.6699H180.093V20.2263H170.597V6.44074H180.112V9.0066H173.92V11.9133H179.146V14.3845ZM192.458 9.0066H188.321V20.2263H184.998V9.0066H180.936V6.44074H192.458V9.0066Z" fill="#009580"/>
<path d="M56.5581 31.7739V25.5115H59.099C59.9556 25.5115 60.6077 25.6619 61.0553 25.9629C61.5029 26.26 61.7267 26.6883 61.7267 27.2478C61.7267 27.5372 61.636 27.7977 61.4547 28.0292C61.2772 28.2568 61.0129 28.4324 60.6617 28.5559C61.0707 28.6408 61.3949 28.8125 61.6341 29.071C61.8733 29.3295 61.9929 29.6343 61.9929 29.9855C61.9929 30.5681 61.7769 31.0119 61.3447 31.3167C60.9164 31.6215 60.299 31.7739 59.4926 31.7739H56.5581ZM57.9646 29.1057V30.6627H59.5042C60.2257 30.6627 60.5865 30.4041 60.5865 29.8871C60.5865 29.3662 60.2199 29.1057 59.4868 29.1057H57.9646ZM57.9646 28.0986H59.1222C59.9209 28.0986 60.3202 27.8633 60.3202 27.3925C60.3202 26.8986 59.9421 26.6439 59.1858 26.6285H57.9646V28.0986ZM68.9326 31.8897C68.0413 31.8897 67.3178 31.6099 66.7621 31.0504C66.2104 30.4871 65.9345 29.7385 65.9345 28.8047V28.6311C65.9345 28.006 66.0541 27.4485 66.2933 26.9584C66.5364 26.4645 66.876 26.0806 67.312 25.8066C67.748 25.5327 68.2342 25.3957 68.7705 25.3957C69.6233 25.3957 70.2812 25.6677 70.7442 26.2118C71.2111 26.7558 71.4445 27.5256 71.4445 28.5211V29.0884H67.3525C67.395 29.6054 67.5667 30.0144 67.8676 30.3154C68.1725 30.6164 68.5545 30.7668 69.0136 30.7668C69.658 30.7668 70.1828 30.5064 70.5879 29.9855L71.3461 30.709C71.0953 31.0832 70.7596 31.3746 70.339 31.5829C69.9223 31.7874 69.4535 31.8897 68.9326 31.8897ZM68.7647 26.5243C68.3789 26.5243 68.0663 26.6594 67.8271 26.9295C67.5917 27.1996 67.4413 27.5758 67.3757 28.0581H70.0554V27.9539C70.0246 27.4832 69.8992 27.1282 69.6792 26.889C69.4593 26.6459 69.1545 26.5243 68.7647 26.5243ZM80.2479 27.2247C80.2479 27.5025 80.163 27.7591 79.9932 27.9944C79.8273 28.226 79.5919 28.4112 79.2871 28.5501C80.0048 28.8009 80.3636 29.2851 80.3636 30.0028C80.3636 30.5778 80.1302 31.0369 79.6633 31.3804C79.1964 31.7199 78.5713 31.8897 77.788 31.8897C77.3096 31.8897 76.8735 31.8106 76.48 31.6524C76.0864 31.4903 75.7796 31.2627 75.5597 30.9694C75.3398 30.6723 75.2298 30.3212 75.2298 29.916H76.6305C76.6305 30.1707 76.7443 30.3848 76.9719 30.5585C77.1996 30.7283 77.4871 30.8131 77.8343 30.8131C78.1777 30.8131 78.4498 30.734 78.6504 30.5758C78.8549 30.4138 78.9572 30.2035 78.9572 29.945C78.9572 29.6401 78.8684 29.4202 78.6909 29.2851C78.5134 29.1501 78.2395 29.0826 77.8691 29.0826H76.862V28.0697H77.9038C78.5327 28.062 78.8472 27.8034 78.8472 27.2941C78.8472 27.0395 78.7565 26.8407 78.5752 26.698C78.3938 26.5552 78.1449 26.4838 77.8285 26.4838C77.5199 26.4838 77.2594 26.561 77.0472 26.7153C76.835 26.8658 76.7289 27.0568 76.7289 27.2883H75.3282C75.3282 26.7366 75.5597 26.2851 76.0227 25.934C76.4858 25.579 77.0742 25.4015 77.788 25.4015C78.5636 25.4015 79.1675 25.5597 79.5996 25.8761C80.0318 26.1925 80.2479 26.642 80.2479 27.2247ZM87.2801 31.8897C86.3888 31.8897 85.6653 31.6099 85.1097 31.0504C84.5579 30.4871 84.282 29.7385 84.282 28.8047V28.6311C84.282 28.006 84.4016 27.4485 84.6409 26.9584C84.884 26.4645 85.2235 26.0806 85.6595 25.8066C86.0956 25.5327 86.5817 25.3957 87.1181 25.3957C87.9708 25.3957 88.6287 25.6677 89.0917 26.2118C89.5586 26.7558 89.7921 27.5256 89.7921 28.5211V29.0884H85.7C85.7425 29.6054 85.9142 30.0144 86.2152 30.3154C86.52 30.6164 86.902 30.7668 87.3612 30.7668C88.0055 30.7668 88.5303 30.5064 88.9355 29.9855L89.6937 30.709C89.4429 31.0832 89.1072 31.3746 88.6866 31.5829C88.2699 31.7874 87.801 31.8897 87.2801 31.8897ZM87.1123 26.5243C86.7264 26.5243 86.4139 26.6594 86.1747 26.9295C85.9393 27.1996 85.7888 27.5758 85.7232 28.0581H88.403V27.9539C88.3721 27.4832 88.2467 27.1282 88.0268 26.889C87.8068 26.6459 87.502 26.5243 87.1123 26.5243ZM84.965 23.8677C84.965 23.6748 85.0287 23.5127 85.156 23.3815C85.2872 23.2503 85.4666 23.1847 85.6943 23.1847C85.9219 23.1847 86.1013 23.2503 86.2325 23.3815C86.3637 23.5127 86.4293 23.6748 86.4293 23.8677C86.4293 24.0606 86.3637 24.2227 86.2325 24.3539C86.1013 24.4851 85.9219 24.5507 85.6943 24.5507C85.4666 24.5507 85.2872 24.4851 85.156 24.3539C85.0287 24.2227 84.965 24.0606 84.965 23.8677ZM87.61 23.8735C87.61 23.6806 87.6737 23.5185 87.801 23.3873C87.9322 23.2561 88.1117 23.1905 88.3393 23.1905C88.567 23.1905 88.7464 23.2561 88.8776 23.3873C89.0088 23.5185 89.0744 23.6806 89.0744 23.8735C89.0744 24.0664 89.0088 24.2285 88.8776 24.3597C88.7464 24.4909 88.567 24.5565 88.3393 24.5565C88.1117 24.5565 87.9322 24.4909 87.801 24.3597C87.6737 24.2285 87.61 24.0664 87.61 23.8735ZM97.571 30.0434L99.4231 25.5115H101.183V31.7739H99.7761V27.6298L98.0514 31.7739H97.0964L95.3658 27.6067V31.7739H93.9593V25.5115H95.7304L97.571 30.0434ZM114.593 25.8587C115.38 25.8587 116.011 26.123 116.486 26.6517C116.96 27.1764 117.198 27.8903 117.198 28.7932V28.8626C117.198 29.7655 116.939 30.4967 116.422 31.0562C115.909 31.6157 115.21 31.8955 114.327 31.8955C113.466 31.8955 112.772 31.6099 112.243 31.0389C111.715 30.4678 111.45 29.6884 111.45 28.7006V28.2954C111.45 26.9449 111.69 25.8761 112.168 25.0889C112.646 24.3018 113.36 23.8098 114.309 23.613C114.842 23.505 115.185 23.3912 115.34 23.2715C115.498 23.1481 115.577 22.9822 115.577 22.7738H116.711C116.711 23.1635 116.648 23.4799 116.52 23.723C116.393 23.9661 116.198 24.1648 115.936 24.3192C115.673 24.4696 115.222 24.6124 114.582 24.7475C113.995 24.8709 113.547 25.0909 113.239 25.4073C112.934 25.7237 112.729 26.1616 112.625 26.7211C113.185 26.1462 113.841 25.8587 114.593 25.8587ZM114.315 26.9874C113.86 26.9874 113.503 27.1417 113.245 27.4504C112.986 27.7552 112.857 28.226 112.857 28.8626C112.857 29.4646 112.984 29.9334 113.239 30.2691C113.493 30.6048 113.856 30.7726 114.327 30.7726C114.794 30.7726 115.155 30.6048 115.409 30.2691C115.668 29.9295 115.797 29.4202 115.797 28.7411C115.797 28.2009 115.668 27.7745 115.409 27.462C115.155 27.1456 114.79 26.9874 114.315 26.9874ZM124.022 31.8897C123.13 31.8897 122.407 31.6099 121.851 31.0504C121.299 30.4871 121.023 29.7385 121.023 28.8047V28.6311C121.023 28.006 121.143 27.4485 121.382 26.9584C121.625 26.4645 121.965 26.0806 122.401 25.8066C122.837 25.5327 123.323 25.3957 123.859 25.3957C124.712 25.3957 125.37 25.6677 125.833 26.2118C126.3 26.7558 126.533 27.5256 126.533 28.5211V29.0884H122.441C122.484 29.6054 122.656 30.0144 122.957 30.3154C123.261 30.6164 123.643 30.7668 124.103 30.7668C124.747 30.7668 125.272 30.5064 125.677 29.9855L126.435 30.709C126.184 31.0832 125.849 31.3746 125.428 31.5829C125.011 31.7874 124.542 31.8897 124.022 31.8897ZM123.854 26.5243C123.468 26.5243 123.155 26.6594 122.916 26.9295C122.681 27.1996 122.53 27.5758 122.465 28.0581H125.144V27.9539C125.113 27.4832 124.988 27.1282 124.768 26.889C124.548 26.6459 124.243 26.5243 123.854 26.5243ZM133.166 30.7668C133.517 30.7668 133.809 30.6646 134.04 30.4601C134.272 30.2556 134.395 30.0028 134.411 29.7019H135.736C135.721 30.0916 135.599 30.4562 135.372 30.7958C135.144 31.1315 134.835 31.3977 134.445 31.5945C134.056 31.7913 133.635 31.8897 133.184 31.8897C132.308 31.8897 131.613 31.6061 131.1 31.0389C130.587 30.4717 130.33 29.6884 130.33 28.689V28.5443C130.33 27.5912 130.585 26.8292 131.094 26.2581C131.604 25.6832 132.298 25.3957 133.178 25.3957C133.923 25.3957 134.528 25.6137 134.995 26.0497C135.466 26.4819 135.713 27.051 135.736 27.7571H134.411C134.395 27.3983 134.272 27.1031 134.04 26.8716C133.813 26.6401 133.521 26.5243 133.166 26.5243C132.711 26.5243 132.36 26.6902 132.113 27.0221C131.866 27.3501 131.741 27.8498 131.737 28.5211V28.7469C131.737 29.426 131.858 29.9334 132.101 30.2691C132.348 30.6009 132.703 30.7668 133.166 30.7668ZM145.072 31.7739H143.666V26.6459H141.223V31.7739H139.817V25.5115H145.072V31.7739ZM154.853 25.5115V31.7739H153.447V26.6459H151.676L151.56 28.8279C151.487 29.8774 151.284 30.6318 150.952 31.091C150.624 31.5463 150.121 31.7739 149.442 31.7739H149.008L149.002 30.6048L149.291 30.5758C149.6 30.5334 149.824 30.3463 149.963 30.0144C150.106 29.6787 150.196 29.0691 150.235 28.1854L150.351 25.5115H154.853ZM163.055 31.7739C162.993 31.6543 162.939 31.4595 162.893 31.1894C162.445 31.6562 161.897 31.8897 161.249 31.8897C160.62 31.8897 160.107 31.7103 159.71 31.3514C159.312 30.9926 159.113 30.5488 159.113 30.0202C159.113 29.3527 159.36 28.8414 159.854 28.4864C160.352 28.1276 161.062 27.9481 161.984 27.9481H162.847V27.5372C162.847 27.2131 162.756 26.9546 162.575 26.7616C162.393 26.5648 162.117 26.4665 161.747 26.4665C161.427 26.4665 161.164 26.5475 160.96 26.7095C160.755 26.8677 160.653 27.0703 160.653 27.3173H159.246C159.246 26.9739 159.36 26.6536 159.588 26.3565C159.816 26.0555 160.124 25.8201 160.514 25.6504C160.908 25.4806 161.346 25.3957 161.828 25.3957C162.561 25.3957 163.146 25.5809 163.582 25.9513C164.018 26.3179 164.241 26.8349 164.253 27.5025V30.327C164.253 30.8903 164.332 31.3398 164.49 31.6755V31.7739H163.055ZM161.51 30.761C161.787 30.761 162.048 30.6935 162.291 30.5585C162.538 30.4234 162.723 30.2421 162.847 30.0144V28.8337H162.088C161.567 28.8337 161.176 28.9244 160.913 29.1057C160.651 29.2871 160.52 29.5437 160.52 29.8755C160.52 30.1456 160.609 30.3617 160.786 30.5237C160.967 30.6819 161.209 30.761 161.51 30.761ZM173.525 26.6285H171.494V31.7739H170.087V26.6285H168.079V25.5115H173.525V26.6285ZM182.734 31.7739H181.327V29.2446H178.891V31.7739H177.484V25.5115H178.891V28.1218H181.327V25.5115H182.734V31.7739ZM186.936 28.5848C186.936 27.9713 187.057 27.4195 187.3 26.9295C187.543 26.4356 187.885 26.0574 188.325 25.7951C188.765 25.5288 189.27 25.3957 189.841 25.3957C190.686 25.3957 191.371 25.6677 191.896 26.2118C192.424 26.7558 192.71 27.4774 192.752 28.3764L192.758 28.7064C192.758 29.3237 192.639 29.8755 192.399 30.3617C192.164 30.8479 191.824 31.2241 191.381 31.4903C190.941 31.7566 190.432 31.8897 189.853 31.8897C188.969 31.8897 188.261 31.5964 187.729 31.0099C187.2 30.4196 186.936 29.6343 186.936 28.6543V28.5848ZM188.342 28.7064C188.342 29.3507 188.475 29.8562 188.741 30.2228C189.008 30.5855 189.378 30.7668 189.853 30.7668C190.327 30.7668 190.696 30.5816 190.958 30.2112C191.224 29.8408 191.358 29.2986 191.358 28.5848C191.358 27.952 191.221 27.4504 190.947 27.08C190.677 26.7095 190.308 26.5243 189.841 26.5243C189.382 26.5243 189.017 26.7076 188.747 27.0742C188.477 27.4369 188.342 27.9809 188.342 28.7064Z" fill="#009580"/>
<path d="M34.4133 29.6264H17.5401V27.992H33.6357V8.49725H6.81641V6.86279H34.4133C34.8431 6.86279 35.191 7.2296 35.191 7.68272V28.8119C35.191 29.2596 34.8431 29.6264 34.4133 29.6264Z" fill="#009580"/>
<path d="M11.6333 27.9866H7.10547V29.6227H11.6333V27.9866Z" fill="#009580"/>
<path d="M36.9108 27.9866H34.4141V29.6227H36.9108V27.9866Z" fill="#009580"/>
<path d="M45.754 29.6269H42.8224V27.9924H45.754C46.0354 27.9924 46.2759 27.7389 46.2759 27.4422V21.4384C46.2759 21.1363 46.0405 20.8882 45.754 20.8882H45.3191C44.2908 20.8882 43.201 20.0953 42.8327 19.0865L41.6661 15.8662C41.528 15.4778 41.0215 15.1164 40.6327 15.1164H34.4062V13.4819H40.6327C41.661 13.4819 42.7508 14.2749 43.1192 15.2836L44.2856 18.504C44.4238 18.8923 44.9303 19.2538 45.3191 19.2538H45.754C46.8949 19.2538 47.8261 20.2355 47.8261 21.4384V27.4368C47.8312 28.6451 46.9 29.6269 45.754 29.6269Z" fill="#009580"/>
<path d="M41.0284 20.9619H36.8945V19.3279H39.6266L38.6698 17.71L39.9847 16.8418L41.6833 19.7108C41.8317 19.9642 41.8419 20.2824 41.7038 20.5413C41.5708 20.8001 41.3149 20.9619 41.0284 20.9619Z" fill="#009580"/>
<path d="M14.5786 32.745C12.5168 32.745 10.8438 30.981 10.8438 28.8072C10.8438 26.6387 12.5168 24.8694 14.5786 24.8694C16.6354 24.8694 18.3135 26.6333 18.3135 28.8072C18.3135 30.981 16.6354 32.745 14.5786 32.745ZM14.5786 26.5092C13.3763 26.5092 12.394 27.5395 12.394 28.8072C12.394 30.0748 13.3712 31.1051 14.5786 31.1051C15.781 31.1051 16.7582 30.0748 16.7582 28.8072C16.7582 27.5395 15.781 26.5092 14.5786 26.5092Z" fill="#009580"/>
<path d="M39.8715 32.7445C37.8148 32.7445 36.1367 30.9806 36.1367 28.8067C36.1367 26.6382 37.8097 24.8689 39.8715 24.8689C41.9282 24.8689 43.6064 26.6328 43.6064 28.8067C43.6064 30.9806 41.9334 32.7445 39.8715 32.7445ZM39.8715 26.5087C38.6692 26.5087 37.6869 27.539 37.6869 28.8067C37.6869 30.0743 38.6641 31.1046 39.8715 31.1046C41.0738 31.1046 42.051 30.0743 42.051 28.8067C42.0562 27.539 41.0738 26.5087 39.8715 26.5087Z" fill="#009580"/>
<path d="M13.7 11.6313H0.582031V13.2675H13.7V11.6313Z" fill="#009580"/>
<path d="M12.2692 17.4248H4.22656V19.0609H12.2692V17.4248Z" fill="#009580"/>
<path d="M7.8655 22.6086H2.05859V24.2448H7.8655V22.6086Z" fill="#009580"/>
<path d="M20.9247 26.9941C27.709 26.9941 33.2087 21.1593 33.2087 13.9617C33.2087 6.76403 27.709 0.929199 20.9247 0.929199C14.1404 0.929199 8.64062 6.76403 8.64062 13.9617C8.64062 21.1593 14.1404 26.9941 20.9247 26.9941Z" fill="white"/>
<path d="M22.0117 13.5501H32.2697C32.1264 10.3837 30.8116 7.54637 28.7651 5.50195L22.0117 13.5501Z" fill="#009580"/>
<path d="M20.6439 12.8783V2.26782C18.1165 2.36492 15.7989 3.33049 13.957 4.9056L20.6439 12.8783Z" fill="#009580"/>
<path d="M20.6437 25.9637V15.186L13.875 23.2558C15.7271 24.8741 18.0754 25.8666 20.6437 25.9637Z" fill="#009580"/>
<path d="M21.4453 2.26782V12.8729L28.1322 4.9056C26.2904 3.33049 23.9727 2.36492 21.4453 2.26782Z" fill="#009580"/>
<path d="M22.0078 14.5061L28.8379 22.6514C30.8793 20.5746 32.1737 17.6995 32.276 14.5061H22.0078Z" fill="#009580"/>
<path d="M20.0691 14.5061H9.80078C9.90311 17.6995 11.1976 20.5746 13.2389 22.6514L20.0691 14.5061Z" fill="#009580"/>
<path d="M21.4453 15.186V25.9637C24.0085 25.8666 26.362 24.8741 28.2141 23.2558L21.4453 15.186Z" fill="#009580"/>
<path d="M20.0678 13.5501L13.3144 5.50195C11.2628 7.54637 9.94794 10.3837 9.80469 13.5501H20.0678Z" fill="#009580"/>
<path fill-rule="evenodd" clip-rule="evenodd" d="M12.4006 9.193C12.3955 9.1984 12.3903 9.20379 12.3801 9.20919C11.981 9.59218 11.715 10.1478 11.4694 10.671C11.3466 10.9246 11.2494 11.1997 11.2341 11.4802C11.229 11.6204 11.2239 11.7607 11.2597 11.8955C11.3313 12.1976 11.7509 12.5644 12.0374 12.4727C12.4467 12.3486 12.6206 11.8308 12.7741 11.4478C13.0452 10.7789 13.3061 10.1316 13.9047 9.74322C13.9917 9.68927 14.2782 9.50048 14.4163 9.78637C14.4368 9.83492 14.4522 9.93201 14.4573 10.0021C14.4727 10.2665 14.401 10.466 14.2936 10.6926C14.135 11.0324 13.7155 12.0843 13.7001 12.2893C13.6848 12.4943 13.6848 12.6399 13.8689 12.7424C14.0992 12.8719 14.3806 12.71 14.575 12.5752C14.9996 12.2785 15.2964 11.8038 15.7875 11.6096C15.9205 11.5557 16.2582 11.4424 16.381 11.5557C16.514 11.6797 16.3503 11.9225 16.3094 12.0519C16.2173 12.3217 16.1354 12.6669 16.4884 12.7208C16.7494 12.7586 17.0103 12.5536 17.2405 12.4457C17.3889 12.3756 17.6038 12.23 17.7572 12.3378C17.9056 12.4457 17.7573 12.4457 17.7829 12.5752C17.8136 12.7154 17.9261 12.6399 17.9824 12.586C18.1256 12.4403 18.0182 12.2785 17.88 12.1706C17.701 12.0304 17.5731 12.1113 17.4043 12.2138C17.2047 12.3324 16.6215 12.5482 16.688 12.0573C16.7238 11.793 16.9029 11.5611 16.8773 11.2806C16.8517 10.9677 16.5498 10.6764 16.2735 10.7304C15.9973 10.7843 15.7517 11.0055 15.5675 11.2104C15.4652 11.3237 15.3731 11.4586 15.2759 11.5665C15.1531 11.7013 15.0303 11.8146 14.9127 11.9602C14.8155 12.0789 14.6517 12.2461 14.4982 12.149C14.3345 12.0466 14.3652 11.7822 14.401 11.615C14.488 11.1943 14.6875 10.8059 14.8308 10.4175C14.9894 9.98596 15.1838 9.59218 14.9996 9.12288C14.9024 8.88014 14.6824 8.58346 14.4163 8.62122C14.1657 8.65358 13.8945 8.92869 13.7206 9.11209C13.5364 9.30089 13.4085 9.54363 13.2448 9.74861C13.0401 10.0021 12.9531 10.342 12.8201 10.6387C12.7331 10.8328 12.6308 11.0216 12.5234 11.2104C12.4415 11.3561 12.2931 11.6474 12.1038 11.5125C11.981 11.4262 11.9964 11.1295 12.0271 10.9893C12.109 10.5793 12.2676 10.1262 12.4722 9.77018C12.5745 9.58678 12.6718 9.41417 12.7997 9.27392C12.9378 9.12827 13.0759 9.00421 13.2141 8.85317C13.4801 8.56188 13.5671 8.11416 13.4033 7.73117C13.3215 7.54776 13.1885 7.31581 12.9838 7.31042C12.7945 7.30502 12.6308 7.48843 12.5848 7.67183C12.5438 7.83366 12.5592 8.14653 12.7229 8.22204C12.8099 8.2598 12.9071 8.22744 12.948 8.13573C13.0094 7.9847 12.8815 8.04403 12.8764 7.92536C12.8712 7.76893 13.0503 7.82826 13.1015 7.90918C13.1424 7.97391 13.1373 8.09258 13.1373 8.1681C13.1168 8.55649 12.6359 8.96645 12.4006 9.193Z" fill="white"/>
<path fill-rule="evenodd" clip-rule="evenodd" d="M25.2169 4.42001C25.2118 4.41461 25.2067 4.40922 25.2016 4.39843C24.8486 3.96689 24.342 3.681 23.8662 3.41668C23.636 3.28722 23.3853 3.18473 23.1295 3.17394C23.0016 3.16855 22.8788 3.16854 22.756 3.2063C22.4849 3.29261 22.1677 3.76731 22.2495 4.08017C22.3723 4.52789 22.843 4.7113 23.1858 4.87312C23.7946 5.15902 24.383 5.43951 24.7411 6.09222C24.7923 6.18392 24.9713 6.49678 24.7104 6.65861C24.6695 6.68558 24.5774 6.70177 24.5211 6.70716C24.2806 6.72874 24.1016 6.65322 23.8969 6.53994C23.59 6.37272 22.6332 5.925 22.4491 5.91421C22.2649 5.90342 22.1318 5.90342 22.0449 6.11379C21.9374 6.37272 22.0858 6.68019 22.2086 6.89596C22.4848 7.35986 22.9197 7.68352 23.0988 8.22294C23.1499 8.36858 23.2626 8.74078 23.1602 8.88103C23.0528 9.03207 22.8276 8.85946 22.7151 8.81091C22.4695 8.71381 22.1574 8.6275 22.1165 9.02128C22.0858 9.31257 22.2751 9.59846 22.3774 9.85199C22.4439 10.0138 22.5769 10.2512 22.4849 10.4238C22.3928 10.591 22.3876 10.4238 22.2699 10.4561C22.1472 10.4885 22.2137 10.6126 22.2649 10.6773C22.3979 10.8337 22.5411 10.7097 22.6332 10.5532C22.756 10.3483 22.6793 10.2134 22.5821 10.03C22.4695 9.80884 22.2649 9.16693 22.71 9.22626C22.9453 9.25863 23.1602 9.45282 23.416 9.42046C23.6974 9.3827 23.9532 9.04825 23.8969 8.73539C23.8407 8.42792 23.6411 8.1636 23.4518 7.95862C23.3495 7.84534 23.2267 7.74825 23.1244 7.64036C23.0016 7.50551 22.8942 7.37065 22.7611 7.24658C22.6537 7.14409 22.5002 6.96069 22.5821 6.78807C22.6742 6.60467 22.9095 6.63703 23.063 6.6694C23.4416 6.75571 23.7946 6.97148 24.1476 7.12252C24.5365 7.28974 24.8997 7.50011 25.3141 7.28434C25.529 7.17106 25.7951 6.91754 25.7541 6.62625C25.7183 6.35114 25.4676 6.05446 25.2988 5.86026C25.1248 5.66068 24.9048 5.52582 24.7155 5.34781C24.4853 5.12665 24.1732 5.03495 23.9021 4.8947C23.723 4.803 23.5541 4.69511 23.3802 4.57644C23.2472 4.49013 22.9811 4.3283 23.0988 4.11253C23.1755 3.97768 23.4416 3.98847 23.5695 4.01544C23.9379 4.09635 24.3472 4.26357 24.6746 4.48474C24.8434 4.59802 25.0021 4.7005 25.1248 4.84075C25.2579 4.99179 25.3755 5.14283 25.5137 5.29387C25.7797 5.58516 26.1839 5.67147 26.5267 5.48267C26.6904 5.39097 26.895 5.23454 26.895 5.00798C26.895 4.7976 26.7262 4.61959 26.5625 4.57105C26.4141 4.52789 26.1327 4.55486 26.0713 4.73827C26.0355 4.83536 26.0662 4.94325 26.1532 4.9864C26.2913 5.05113 26.2299 4.91088 26.3425 4.90549C26.4858 4.90009 26.4346 5.09968 26.3629 5.15362C26.3066 5.19677 26.1992 5.19678 26.1327 5.19678C25.8053 5.20217 25.4267 4.67893 25.2169 4.42001Z" fill="white"/>
<path fill-rule="evenodd" clip-rule="evenodd" d="M29.6606 18.7354C29.6657 18.73 29.6709 18.7246 29.676 18.7192C30.0546 18.32 30.3001 17.7428 30.5252 17.2088C30.6327 16.9499 30.7248 16.6694 30.7248 16.3889C30.7248 16.2487 30.7197 16.1084 30.6839 15.9735C30.5969 15.6769 30.162 15.3316 29.8857 15.4341C29.4866 15.5798 29.3332 16.1084 29.195 16.4968C28.9546 17.1819 28.7192 17.8399 28.136 18.2553C28.0541 18.3146 27.7779 18.5196 27.6244 18.2391C27.5988 18.196 27.5834 18.0935 27.5732 18.0287C27.5476 17.7644 27.609 17.5594 27.7062 17.3275C27.8495 16.9823 28.2229 15.9088 28.228 15.6984C28.2332 15.4935 28.228 15.3478 28.0387 15.2507C27.8034 15.1374 27.5271 15.3101 27.3378 15.4557C26.9285 15.774 26.6472 16.2648 26.1663 16.4806C26.0332 16.5399 25.7058 16.6748 25.5779 16.5669C25.4397 16.4536 25.5932 16.2001 25.629 16.0706C25.7109 15.7955 25.7774 15.4503 25.4244 15.4125C25.1583 15.3856 24.9077 15.6067 24.6877 15.7254C24.5444 15.8009 24.3346 15.9574 24.176 15.8603C24.0225 15.7632 24.176 15.7524 24.1402 15.6229C24.1044 15.4881 23.9969 15.5636 23.9406 15.6229C23.8025 15.774 23.9202 15.9304 24.0584 16.0329C24.2426 16.1677 24.3653 16.076 24.529 15.9628C24.7234 15.8333 25.2965 15.5906 25.2555 16.0814C25.23 16.3457 25.0611 16.5885 25.0969 16.869C25.1378 17.1819 25.4449 17.457 25.7263 17.3868C25.9974 17.3167 26.2328 17.0848 26.4118 16.869C26.509 16.7503 26.596 16.6101 26.6881 16.4968C26.8057 16.3565 26.9234 16.2325 27.036 16.0814C27.1281 15.9574 27.2867 15.7847 27.4402 15.8711C27.609 15.9682 27.5885 16.2325 27.5579 16.3997C27.4913 16.8258 27.3072 17.225 27.1793 17.6188C27.036 18.0557 26.8621 18.4657 27.0667 18.9188C27.1742 19.1561 27.4095 19.442 27.6704 19.3935C27.916 19.3449 28.1769 19.059 28.3458 18.8648C28.5197 18.6653 28.6374 18.4171 28.7909 18.2068C28.9853 17.9424 29.0569 17.5972 29.1746 17.2951C29.2513 17.0955 29.3485 16.9014 29.4457 16.7072C29.5225 16.5615 29.6606 16.254 29.855 16.3835C29.9778 16.4644 29.9778 16.7611 29.9522 16.9014C29.8857 17.3113 29.7476 17.7752 29.5583 18.142C29.4611 18.3308 29.3741 18.5088 29.2513 18.6545C29.1234 18.8055 28.9853 18.9404 28.8574 19.0968C28.6016 19.4043 28.5351 19.852 28.7141 20.2296C28.8011 20.413 28.9495 20.6342 29.1541 20.6288C29.3434 20.6234 29.502 20.4346 29.5378 20.2458C29.5736 20.0786 29.5429 19.7711 29.3741 19.701C29.2871 19.6686 29.1899 19.701 29.1541 19.7981C29.0978 19.9545 29.2258 19.8844 29.236 20.0084C29.2462 20.1649 29.0671 20.1163 29.016 20.0408C28.975 19.9815 28.9699 19.8628 28.9699 19.7819C28.9751 19.4097 29.4355 18.9781 29.6606 18.7354Z" fill="white"/>
<path fill-rule="evenodd" clip-rule="evenodd" d="M17.2814 23.666C17.2865 23.6714 17.2916 23.6768 17.2967 23.6822C17.6855 24.076 18.2176 24.2972 18.7139 24.5075C18.9543 24.61 19.2153 24.6855 19.466 24.664C19.5939 24.6532 19.7167 24.637 19.8344 24.5885C20.0953 24.4698 20.3716 23.9627 20.259 23.6606C20.0953 23.2291 19.6144 23.0996 19.2562 22.9756C18.6218 22.7598 18.013 22.5494 17.5986 21.9399C17.5372 21.8536 17.3325 21.5623 17.573 21.3735C17.6088 21.3411 17.7009 21.3142 17.7571 21.3034C17.9925 21.2548 18.1767 21.3088 18.3967 21.3951C18.719 21.5245 19.7116 21.859 19.8958 21.8536C20.0799 21.8428 20.213 21.8266 20.2795 21.6108C20.3665 21.3411 20.1873 21.0498 20.0441 20.8503C19.7269 20.4187 19.2664 20.149 19.0362 19.6312C18.9748 19.4909 18.8264 19.1349 18.9134 18.9838C19.0055 18.822 19.246 18.9677 19.3637 19.0054C19.6143 19.0756 19.9316 19.1241 19.9367 18.7303C19.9418 18.4336 19.7269 18.1747 19.599 17.9374C19.5171 17.7863 19.3637 17.5598 19.4404 17.3818C19.5172 17.2038 19.5325 17.371 19.6501 17.3224C19.7678 17.2739 19.6911 17.1552 19.6348 17.1013C19.4865 16.961 19.3585 17.1013 19.2767 17.2631C19.1692 17.4789 19.2613 17.6083 19.3739 17.7809C19.5069 17.9859 19.7679 18.6063 19.3227 18.5955C19.0823 18.5901 18.852 18.4228 18.6013 18.4822C18.3251 18.5523 18.0999 18.9137 18.1869 19.2158C18.2688 19.5125 18.4939 19.7552 18.7036 19.9386C18.8162 20.0357 18.9493 20.122 19.0567 20.2191C19.1948 20.3378 19.3125 20.4619 19.4558 20.5698C19.5734 20.6615 19.7422 20.8233 19.6757 21.0013C19.6041 21.1955 19.3636 21.1901 19.2101 21.1739C18.8213 21.1308 18.453 20.9581 18.0897 20.8449C17.6855 20.7208 17.3069 20.5536 16.913 20.8179C16.7083 20.9527 16.473 21.2332 16.5344 21.5245C16.5958 21.7942 16.872 22.0586 17.0562 22.2312C17.2455 22.4092 17.4809 22.5225 17.6804 22.6789C17.9311 22.8731 18.2483 22.927 18.5297 23.0349C18.7139 23.105 18.898 23.1967 19.0771 23.2884C19.2153 23.3586 19.4966 23.488 19.3994 23.7146C19.3329 23.8602 19.0669 23.8764 18.939 23.8656C18.5655 23.8279 18.1409 23.7092 17.793 23.5258C17.619 23.4341 17.4502 23.3478 17.312 23.2237C17.1637 23.0889 17.0358 22.954 16.8823 22.8191C16.5907 22.5602 16.1763 22.5171 15.859 22.749C15.7004 22.8623 15.5163 23.0403 15.5367 23.2669C15.5572 23.4772 15.7414 23.6337 15.9102 23.666C16.0586 23.693 16.34 23.6337 16.386 23.4449C16.4116 23.3478 16.3706 23.2399 16.2837 23.2075C16.1404 23.159 16.2121 23.2938 16.1046 23.31C15.9665 23.3316 15.9972 23.132 16.0586 23.0673C16.1097 23.0187 16.2172 23.0026 16.2837 22.9972C16.6265 22.9486 17.046 23.4287 17.2814 23.666Z" fill="white"/>
<path d="M14.6142 17.4405C14.6194 17.2571 14.3841 17.1061 14.0822 17.0953C14.2868 16.8634 14.3636 16.5722 14.251 16.4428C14.1385 16.3134 13.8724 16.3943 13.6575 16.6208C13.6524 16.2918 13.5194 16.033 13.3557 16.033C13.2073 16.033 13.0845 16.2487 13.0589 16.5399C12.8748 16.3457 12.6548 16.2702 12.5422 16.3781C12.4194 16.4967 12.4757 16.7933 12.665 17.0468C12.3682 17.0306 12.1277 17.1601 12.1175 17.3434C12.1073 17.5268 12.3375 17.6885 12.6343 17.7155C12.4194 17.942 12.3324 18.2224 12.4398 18.3573C12.5473 18.4921 12.8133 18.422 13.0385 18.2063C13.0333 18.5352 13.1562 18.8049 13.3148 18.8102C13.4785 18.8156 13.6217 18.5568 13.637 18.2278C13.8417 18.4651 14.1026 18.5514 14.2203 18.4274C14.338 18.3033 14.2715 18.0067 14.072 17.764C14.3738 17.7587 14.6091 17.6184 14.6142 17.4405ZM13.3659 17.5807C13.3659 17.5807 13.3147 17.6238 13.2533 17.6993C13.2635 17.6023 13.2635 17.5322 13.2635 17.5322C13.2635 17.5322 13.2022 17.5214 13.1101 17.5214C13.1817 17.462 13.2226 17.4135 13.2226 17.4135C13.2226 17.4135 13.1869 17.3542 13.1203 17.2841C13.2073 17.3003 13.2687 17.2949 13.2687 17.2949C13.2687 17.2949 13.2789 17.2409 13.2789 17.1601C13.325 17.2194 13.3608 17.2517 13.3608 17.2517C13.3608 17.2517 13.4119 17.2086 13.4682 17.1277C13.4631 17.2248 13.4682 17.2949 13.4682 17.2949C13.4682 17.2949 13.5296 17.3003 13.6217 17.2949C13.5552 17.3596 13.5142 17.4081 13.5142 17.4081C13.5142 17.4081 13.5552 17.4621 13.6217 17.5322C13.5347 17.5214 13.4733 17.5268 13.4733 17.5268C13.4733 17.5268 13.4631 17.5969 13.4682 17.6993C13.4119 17.6238 13.3659 17.5807 13.3659 17.5807Z" fill="white"/>
<path d="M19.5243 5.5938C19.5294 5.41044 19.2941 5.25944 18.9923 5.24866C19.1969 5.01677 19.2736 4.72556 19.1611 4.59613C19.0485 4.4667 18.7825 4.5476 18.5676 4.77409C18.5625 4.44513 18.4295 4.18628 18.2658 4.18628C18.1174 4.18628 17.9946 4.40199 17.969 4.6932C17.7849 4.49906 17.5649 4.42356 17.4523 4.53142C17.3295 4.65006 17.3858 4.94666 17.5751 5.20013C17.2783 5.18395 17.0379 5.31337 17.0277 5.49673C17.0174 5.68008 17.2476 5.84187 17.5444 5.86883C17.3295 6.09533 17.2425 6.37575 17.3499 6.51057C17.4574 6.64539 17.7234 6.57528 17.9486 6.35957C17.9434 6.68853 18.0662 6.95817 18.2248 6.96357C18.3886 6.96896 18.5318 6.7101 18.5472 6.38114C18.7518 6.61843 19.0128 6.70471 19.1304 6.58068C19.2481 6.45664 19.1816 6.16004 18.982 5.91736C19.2839 5.91736 19.5243 5.77715 19.5243 5.5938ZM18.276 5.7394C18.276 5.7394 18.2249 5.78254 18.1635 5.85804C18.1737 5.76097 18.1737 5.69087 18.1737 5.69087C18.1737 5.69087 18.1123 5.68008 18.0202 5.68008C18.0918 5.62076 18.1327 5.57223 18.1327 5.57223C18.1327 5.57223 18.0969 5.51291 18.0304 5.4428C18.1174 5.45898 18.1788 5.45358 18.1788 5.45358C18.1788 5.45358 18.189 5.39966 18.189 5.31876C18.235 5.37808 18.2709 5.41044 18.2709 5.41044C18.2709 5.41044 18.322 5.3673 18.3783 5.28641C18.3732 5.38348 18.3783 5.45358 18.3783 5.45358C18.3783 5.45358 18.4397 5.45898 18.5318 5.45358C18.4653 5.5183 18.4244 5.56684 18.4244 5.56684C18.4244 5.56684 18.4653 5.62076 18.5318 5.69087C18.4448 5.68008 18.3834 5.68547 18.3834 5.68547C18.3834 5.68547 18.3732 5.75558 18.3783 5.85804C18.322 5.78254 18.276 5.7394 18.276 5.7394Z" fill="white"/>
<path d="M29.9736 10.2447C29.9787 10.0613 29.7434 9.91033 29.4415 9.89954C29.6462 9.66765 29.7229 9.37644 29.6104 9.24701C29.4978 9.11759 29.2318 9.19847 29.0169 9.42497C29.0118 9.09601 28.8788 8.83716 28.715 8.83716C28.5667 8.83716 28.4438 9.05287 28.4183 9.34408C28.2341 9.14994 28.0141 9.07444 27.9015 9.1823C27.7787 9.30094 27.8351 9.59754 28.0244 9.85101C27.7276 9.83483 27.4871 9.96426 27.4769 10.1476C27.4667 10.331 27.6969 10.4928 27.9936 10.5197C27.7788 10.7462 27.6918 11.0266 27.7992 11.1615C27.9067 11.2963 28.1727 11.2262 28.3978 11.0105C28.3927 11.3394 28.5155 11.6091 28.6741 11.6145C28.8378 11.6198 28.981 11.361 28.9964 11.032C29.201 11.2693 29.462 11.3556 29.5797 11.2316C29.6973 11.1075 29.6309 10.8109 29.4313 10.5682C29.7332 10.5629 29.9685 10.4226 29.9736 10.2447ZM28.7253 10.3849C28.7253 10.3849 28.6741 10.428 28.6127 10.5035C28.6229 10.4065 28.6229 10.3364 28.6229 10.3364C28.6229 10.3364 28.5616 10.3256 28.4695 10.3256C28.5411 10.2663 28.582 10.2177 28.582 10.2177C28.582 10.2177 28.5462 10.1584 28.4797 10.0883C28.5666 10.1045 28.628 10.0991 28.628 10.0991C28.628 10.0991 28.6383 10.0451 28.6383 9.96425C28.6843 10.0236 28.7202 10.0559 28.7202 10.0559C28.7202 10.0559 28.7713 10.0128 28.8276 9.9319C28.8225 10.029 28.8276 10.0991 28.8276 10.0991C28.8276 10.0991 28.889 10.1045 28.9811 10.0991C28.9146 10.1638 28.8736 10.2123 28.8736 10.2123C28.8736 10.2123 28.9146 10.2663 28.9811 10.3364C28.8941 10.3256 28.8327 10.331 28.8327 10.331C28.8327 10.331 28.8225 10.4011 28.8276 10.5035C28.7713 10.428 28.7253 10.3849 28.7253 10.3849Z" fill="white"/>
<path d="M25.1377 22.2679C25.1428 22.0845 24.9074 21.9335 24.6056 21.9227C24.8102 21.6908 24.8869 21.3996 24.7744 21.2702C24.6618 21.1408 24.3958 21.2217 24.1809 21.4482C24.1758 21.1192 24.0428 20.8604 23.879 20.8604C23.7307 20.8604 23.6079 21.0761 23.5823 21.3673C23.3981 21.1731 23.1781 21.0976 23.0656 21.2055C22.9428 21.3241 22.9991 21.6207 23.1884 21.8742C22.8916 21.858 22.6512 21.9874 22.641 22.1708C22.6307 22.3542 22.861 22.5159 23.1577 22.5429C22.9428 22.7694 22.8558 23.0498 22.9633 23.1847C23.0707 23.3195 23.3367 23.2494 23.5618 23.0337C23.5567 23.3626 23.6744 23.6323 23.8381 23.6376C24.0019 23.643 24.1451 23.3842 24.1605 23.0552C24.3651 23.2925 24.626 23.3788 24.7437 23.2548C24.8614 23.1307 24.7949 22.8341 24.5953 22.5914C24.8921 22.5861 25.1326 22.4458 25.1377 22.2679ZM23.8893 22.4081C23.8893 22.4081 23.8381 22.4512 23.7767 22.5267C23.787 22.4297 23.787 22.3596 23.787 22.3596C23.787 22.3596 23.7256 22.3488 23.6335 22.3488C23.7051 22.2894 23.746 22.2409 23.746 22.2409C23.746 22.2409 23.7102 22.1816 23.6437 22.1115C23.7307 22.1277 23.7921 22.1223 23.7921 22.1223C23.7921 22.1223 23.8023 22.0683 23.8023 21.9874C23.8484 22.0468 23.8842 22.0791 23.8842 22.0791C23.8842 22.0791 23.9354 22.036 23.9916 21.9551C23.9865 22.0522 23.9916 22.1223 23.9916 22.1223C23.9916 22.1223 24.053 22.1277 24.1451 22.1223C24.0786 22.187 24.0377 22.2355 24.0377 22.2355C24.0377 22.2355 24.0786 22.2894 24.1451 22.3596C24.0581 22.3488 23.9968 22.3542 23.9968 22.3542C23.9968 22.3542 23.9865 22.4243 23.9916 22.5267C23.9354 22.4512 23.8893 22.4081 23.8893 22.4081Z" fill="white"/>
</svg>
