<svg width="191" height="28" viewBox="0 0 191 28" fill="none" xmlns="http://www.w3.org/2000/svg">
<path d="M52.6901 7.27344V16.839H49.5427V9.50693H46.5781V16.839H43.4307V7.27344H52.6901Z" fill="#E85F27"/>
<path d="M60.5319 7.27344L63.9927 16.839H60.8388L60.4666 15.5758H57.3387L56.9796 16.839H53.8975L57.3322 7.27344H60.5319ZM59.918 13.5832L58.9124 10.1581L57.9395 13.5832H59.8985H59.918Z" fill="#E85F27"/>
<path d="M74.5387 7.27344V16.839H71.3912V9.50693H69.1384V12.2288C69.1384 16.0837 67.9239 17.0344 66.1281 17.0344C65.5537 17.041 64.9808 16.9732 64.4238 16.8325V14.6055C64.6555 14.6802 64.8991 14.7111 65.1421 14.6967C65.7951 14.6967 66.1281 14.4427 66.1281 12.1962V7.27344H74.5321H74.5387Z" fill="#E85F27"/>
<path d="M79.6652 10.6074H81.1541C83.5767 10.6074 85.1112 11.6948 85.1112 13.7851C85.1112 15.8753 83.6028 16.839 81.1149 16.839H76.5439V7.27344H79.6652V10.6074ZM79.6652 14.6055H80.821C81.5916 14.6055 82.1793 14.4493 82.1793 13.7265C82.1793 12.8865 81.4479 12.8344 80.4488 12.8344H79.6652V14.599V14.6055ZM89.6168 16.839H86.4759V7.27344H89.6168V16.839Z" fill="#E85F27"/>
<path d="M94.6383 7.27344V9.76739C94.6237 9.92419 94.6457 10.0822 94.7025 10.2291C94.7593 10.3761 94.8493 10.5079 94.9656 10.6145C95.0819 10.721 95.2213 10.7993 95.3729 10.8432C95.5246 10.8872 95.6843 10.8956 95.8398 10.8679C96.3199 10.879 96.7992 10.822 97.2633 10.6986V7.27344H100.404V16.839H97.2633V12.9711C96.4069 13.1635 95.5278 13.2358 94.6513 13.186C94.2472 13.2118 93.8421 13.1547 93.4611 13.0181C93.0801 12.8814 92.7312 12.6683 92.4361 12.3917C92.1411 12.1152 91.9061 11.7812 91.7457 11.4104C91.5854 11.0397 91.5031 10.64 91.5039 10.2362V7.27344H94.6513H94.6383Z" fill="#E85F27"/>
<path d="M101.958 13.0623H108.142V14.4297H101.958V13.0623Z" fill="#E85F27"/>
<path d="M110.212 10.9265C110.467 8.47162 112.106 7.01953 115.031 7.01953C117.708 7.01953 119.811 8.97302 119.811 12.04C119.811 15.107 117.891 17.0865 114.724 17.0865C112.191 17.0865 110.421 15.5953 110.153 13.1274H113.177C113.294 14.0456 113.777 14.7488 114.79 14.7488C116.096 14.7488 116.546 13.8828 116.657 12.8344H114.607V11.0698H116.566C116.35 9.93023 115.749 9.33116 114.888 9.33116C114.671 9.31509 114.453 9.34367 114.247 9.41514C114.042 9.48661 113.853 9.59944 113.693 9.74661C113.534 9.89378 113.406 10.0722 113.318 10.2707C113.23 10.4691 113.184 10.6835 113.183 10.9005H110.199L110.212 10.9265Z" fill="#E85F27"/>
<path d="M123.741 10.373L126.497 7.27995H130.187L126.68 10.8744L130.559 16.839H126.791L124.492 13.0232L123.748 13.8046V16.8325H120.601V7.27344H123.748V10.3665L123.741 10.373Z" fill="#E85F27"/>
<path d="M136.573 10.9265C136.572 10.7096 136.526 10.4952 136.439 10.2967C136.351 10.0982 136.223 9.91983 136.063 9.77266C135.903 9.62548 135.715 9.51266 135.509 9.44119C135.304 9.36972 135.086 9.34113 134.869 9.35721C133.766 9.35721 133.1 10.3014 133.1 12.1442C133.1 13.4856 133.393 14.7488 134.993 14.7488C136.005 14.7488 136.489 14.0456 136.606 13.1274H139.629C139.349 15.5953 137.579 17.0865 135.058 17.0865C131.885 17.0865 129.972 15.133 129.972 12.04C129.972 8.94697 132.074 7.01953 134.752 7.01953C137.684 7.01953 139.323 8.46511 139.577 10.9265H136.593H136.573Z" fill="#E85F27"/>
<path d="M149.535 7.27344V16.839H146.401V9.50693H143.43V16.839H140.282V7.27344H149.535Z" fill="#E85F27"/>
<path d="M153.891 16.839H150.743V7.27344H155.366C158.122 7.27344 159.454 8.53669 159.454 10.5293C159.454 12.5218 158.226 13.8893 155.471 13.8893H153.884V16.8651L153.891 16.839ZM153.891 11.6297H155.197C155.928 11.6297 156.463 11.3367 156.463 10.5162C156.463 9.69576 155.451 9.50693 154.759 9.50693H153.864V11.6297H153.891Z" fill="#E85F27"/>
<path d="M168.06 7.27344V9.50693H163.385V10.8744H167.342V13.1079H163.385V14.6055H168.25V16.839H160.244V7.27344H168.08H168.06Z" fill="#E85F27"/>
<path d="M175.321 10.9265C175.32 10.7096 175.274 10.4952 175.187 10.2967C175.099 10.0982 174.971 9.91983 174.811 9.77266C174.651 9.62548 174.463 9.51266 174.257 9.44119C174.052 9.36972 173.834 9.34113 173.617 9.35721C172.514 9.35721 171.848 10.3014 171.848 12.1442C171.848 13.4856 172.141 14.7488 173.741 14.7488C174.753 14.7488 175.237 14.0456 175.354 13.1274H178.377C178.097 15.5953 176.327 17.0865 173.807 17.0865C170.633 17.0865 168.72 15.133 168.72 12.04C168.72 8.94697 170.822 7.01953 173.5 7.01953C176.432 7.01953 178.071 8.46511 178.325 10.9265H175.341H175.321Z" fill="#E85F27"/>
<path d="M185.247 10.9265C185.246 10.7096 185.2 10.4952 185.112 10.2967C185.025 10.0982 184.897 9.91983 184.737 9.77266C184.577 9.62548 184.389 9.51266 184.183 9.44119C183.978 9.36972 183.76 9.34113 183.543 9.35721C182.439 9.35721 181.773 10.3014 181.773 12.1442C181.773 13.4856 182.067 14.7488 183.667 14.7488C184.679 14.7488 185.162 14.0456 185.28 13.1274H188.303C188.022 15.5953 186.253 17.0865 183.732 17.0865C180.559 17.0865 178.646 15.133 178.646 12.04C178.646 8.94697 180.748 7.01953 183.425 7.01953C186.357 7.01953 187.996 8.46511 188.251 10.9265H185.267H185.247Z" fill="#E85F27"/>
<path d="M43.13 24.093C43.3702 23.6118 43.5396 23.0986 43.6328 22.5692C43.7125 22.0259 43.7518 21.4774 43.7503 20.9283V19.1311H47.4724V24.093H47.9752V26.0465H47.2569V24.8027H43.339V26.0465H42.6533V24.093H43.13ZM44.4948 19.7823V21.0455C44.5043 21.5901 44.4694 22.1345 44.3903 22.6734C44.2987 23.1674 44.1359 23.6455 43.9071 24.093H46.6823V19.8148H44.4948V19.7823Z" fill="#E85F27"/>
<path d="M58.5214 21.9702C58.5423 22.6666 58.3386 23.3513 57.9403 23.9237C57.6757 24.2454 57.3428 24.5045 56.9657 24.6824C56.5885 24.8603 56.1765 24.9526 55.7593 24.9526C55.3421 24.9526 54.93 24.8603 54.5529 24.6824C54.1758 24.5045 53.8429 24.2454 53.5783 23.9237C53.1965 23.3433 52.9932 22.6643 52.9932 21.9702C52.9932 21.2761 53.1965 20.5971 53.5783 20.0167C53.8429 19.6951 54.1758 19.4359 54.5529 19.258C54.93 19.0801 55.3421 18.9878 55.7593 18.9878C56.1765 18.9878 56.5885 19.0801 56.9657 19.258C57.3428 19.4359 57.6757 19.6951 57.9403 20.0167C58.3386 20.5891 58.5423 21.2738 58.5214 21.9702ZM57.7378 21.9702C57.7638 21.3707 57.5739 20.7818 57.2024 20.3097C57.0188 20.1083 56.795 19.9474 56.5453 19.8372C56.2957 19.7271 56.0257 19.6702 55.7527 19.6702C55.4798 19.6702 55.2098 19.7271 54.9602 19.8372C54.7105 19.9474 54.4867 20.1083 54.3031 20.3097C53.9316 20.7818 53.7417 21.3707 53.7676 21.9702C53.7417 22.5697 53.9316 23.1587 54.3031 23.6307C54.4867 23.8321 54.7105 23.9931 54.9602 24.1032C55.2098 24.2133 55.4798 24.2702 55.7527 24.2702C56.0257 24.2702 56.2957 24.2133 56.5453 24.1032C56.795 23.9931 57.0188 23.8321 57.2024 23.6307C57.5739 23.1587 57.7638 22.5697 57.7378 21.9702Z" fill="#E85F27"/>
<path d="M68.7143 20.8373H67.9698C67.9383 20.6397 67.8634 20.4514 67.7505 20.286C67.6376 20.1205 67.4896 19.9819 67.3168 19.8801C67.0316 19.7298 66.7121 19.6557 66.3896 19.6652C66.1441 19.6575 65.8999 19.7037 65.6742 19.8005C65.4485 19.8972 65.2469 20.0422 65.0836 20.2252C64.6971 20.6996 64.5036 21.3016 64.5416 21.9117C64.5038 22.4996 64.6449 23.0851 64.9465 23.5917C65.117 23.8161 65.3418 23.9935 65.6 24.1075C65.8581 24.2214 66.1411 24.268 66.4223 24.2428C66.745 24.2485 67.061 24.1503 67.3234 23.9628C67.7255 23.6401 67.9837 23.172 68.0417 22.6605H68.7861C68.7347 23.2263 68.5063 23.7616 68.1331 24.1908C67.8487 24.477 67.4923 24.6816 67.1014 24.7833C66.8508 24.8554 66.5916 24.8926 66.3308 24.894C66.0056 24.9068 65.6813 24.8528 65.3779 24.7351C65.0746 24.6175 64.7988 24.4388 64.5678 24.2103C64.2874 23.8948 64.0732 23.5267 63.9375 23.1275C63.8018 22.7283 63.7474 22.3061 63.7776 21.8856C63.7407 21.1103 63.9944 20.3489 64.4894 19.7498C64.9579 19.2768 65.5839 18.9911 66.2491 18.9467C66.9144 18.9024 67.5729 19.1023 68.1004 19.5089C68.4698 19.8557 68.6899 20.3319 68.7143 20.8373Z" fill="#E85F27"/>
<path d="M73.788 19.815V19.1638H78.3589V19.815H76.3999V24.8094H75.6816V19.815H73.7227H73.788Z" fill="#E85F27"/>
<path d="M86.1948 23.1488H83.9224L83.3282 24.8027H82.5381L84.6799 19.1311H85.5418L87.5922 24.8027H86.7564L86.1948 23.1488ZM84.1575 22.4976H85.9206L85.0848 20.0037L84.1575 22.4976Z" fill="#E85F27"/>
<path d="M92.8359 24.8029V19.1313H95.3369C95.5553 19.119 95.774 19.1501 95.9802 19.2227C96.1865 19.2954 96.3762 19.4082 96.5384 19.5545C96.7442 19.7663 96.8801 20.0357 96.928 20.3267C96.9758 20.6176 96.9333 20.9163 96.8061 21.1824C96.6688 21.4368 96.4506 21.6383 96.1858 21.7555C96.4248 21.8405 96.6461 21.9685 96.8388 22.1331C96.9696 22.2639 97.0711 22.421 97.1363 22.5939C97.2016 22.7668 97.2293 22.9516 97.2175 23.1359C97.224 23.3563 97.1831 23.5756 97.0975 23.7789C97.0119 23.9822 96.8836 24.1648 96.7212 24.3145C96.3247 24.6639 95.8065 24.8439 95.2781 24.8159H92.8359V24.8029ZM93.6065 19.789V21.5341H94.9908C95.2933 21.556 95.5955 21.488 95.8593 21.3387C95.9676 21.2551 96.0531 21.1457 96.1078 21.0205C96.1626 20.8954 96.1849 20.7585 96.1727 20.6224C96.1797 20.5044 96.1578 20.3863 96.1089 20.2786C96.06 20.1708 95.9855 20.0765 95.8919 20.0038C95.623 19.8425 95.3101 19.7696 94.9973 19.7955H93.5999L93.6065 19.789ZM93.6065 22.1592V24.1517H95.2455C95.5681 24.1721 95.8869 24.0723 96.1401 23.8717C96.244 23.7748 96.3253 23.6564 96.3783 23.5248C96.4313 23.3931 96.4548 23.2515 96.447 23.1099C96.4555 22.9502 96.4167 22.7916 96.3354 22.6538C96.2541 22.516 96.134 22.4051 95.9899 22.335C95.7092 22.2011 95.3996 22.1384 95.0888 22.1527H93.5738L93.6065 22.1592Z" fill="#E85F27"/>
<path d="M103.421 19.1311V23.7739L106.307 19.1311H107.182V24.8027H106.437V20.2446L103.532 24.8027H102.644V19.1311H103.414H103.421Z" fill="#E85F27"/>
<path d="M118.355 24.8027H117.61V21.4492V20.0362L115.997 24.8027H115.24L113.64 20.0362V24.8027H112.896V19.1311H113.993L115.605 23.9302L117.244 19.1311H118.335V24.8027H118.355Z" fill="#E85F27"/>
<path d="M134.817 19.8148H131.552V21.5274H133.432C133.675 21.5131 133.917 21.5517 134.142 21.6406C134.368 21.7295 134.571 21.8664 134.738 22.0418C135.012 22.3647 135.154 22.7784 135.137 23.2009C135.139 23.4168 135.094 23.6306 135.005 23.8274C134.916 24.0242 134.785 24.1993 134.621 24.3404C134.294 24.6463 133.861 24.8143 133.413 24.8092H130.762V19.1311H134.765V19.7823L134.817 19.8148ZM131.552 22.1851V24.1385H133.237C133.519 24.1528 133.799 24.0751 134.033 23.9172C134.144 23.829 134.231 23.7154 134.288 23.5861C134.345 23.4568 134.37 23.3157 134.36 23.1748C134.373 23.0266 134.352 22.8772 134.296 22.7391C134.24 22.6009 134.152 22.478 134.04 22.3804C133.791 22.2228 133.498 22.1497 133.204 22.172H131.552V22.1851Z" fill="#E85F27"/>
<path d="M141.399 19.1311V21.5209H143.279C143.525 21.5054 143.77 21.5468 143.997 21.6417C144.223 21.7366 144.425 21.8824 144.585 22.0678C144.847 22.3893 144.983 22.7938 144.971 23.2074C144.978 23.4195 144.941 23.6307 144.862 23.8279C144.783 24.0251 144.665 24.204 144.514 24.3534C144.349 24.5053 144.156 24.6227 143.945 24.6987C143.734 24.7748 143.51 24.8079 143.286 24.7962H140.635V19.1311H141.405H141.399ZM141.399 22.1785V24.132H143.044C143.324 24.1488 143.603 24.0783 143.841 23.9302C143.953 23.8435 144.042 23.7302 144.099 23.6005C144.156 23.4708 144.18 23.3289 144.167 23.1878C144.182 23.0417 144.161 22.8943 144.108 22.7575C144.055 22.6206 143.97 22.4981 143.861 22.3999C143.611 22.2262 143.309 22.1414 143.005 22.159H141.392L141.399 22.1785ZM146.44 19.1311V24.8027H145.669V19.1311H146.44Z" fill="#E85F27"/>
<path d="M156.927 20.8373H156.183C156.151 20.6397 156.076 20.4514 155.963 20.286C155.851 20.1205 155.702 19.9819 155.53 19.8801C155.244 19.7298 154.925 19.6557 154.602 19.6652C154.357 19.6575 154.113 19.7037 153.887 19.8005C153.661 19.8972 153.46 20.0422 153.297 20.2252C152.91 20.6996 152.717 21.3016 152.755 21.9117C152.717 22.4996 152.858 23.0851 153.159 23.5917C153.33 23.8161 153.555 23.9935 153.813 24.1075C154.071 24.2214 154.354 24.268 154.635 24.2428C154.958 24.2485 155.274 24.1503 155.536 23.9628C155.938 23.6401 156.197 23.172 156.255 22.6605H156.999C156.948 23.2263 156.719 23.7616 156.346 24.1908C156.062 24.477 155.705 24.6816 155.314 24.7833C155.064 24.8554 154.804 24.8926 154.544 24.894C154.219 24.9068 153.894 24.8528 153.591 24.7351C153.287 24.6175 153.012 24.4388 152.781 24.2103C152.5 23.8948 152.286 23.5267 152.15 23.1275C152.015 22.7283 151.96 22.3061 151.991 21.8856C151.954 21.1103 152.207 20.3489 152.702 19.7498C153.171 19.2768 153.797 18.9911 154.462 18.9467C155.127 18.9024 155.786 19.1023 156.313 19.5089C156.683 19.8557 156.903 20.3319 156.927 20.8373Z" fill="#E85F27"/>
<path d="M161.941 19.815V19.1638H166.558V19.815H164.599V24.8094H163.9V19.815H161.941Z" fill="#E85F27"/>
<path d="M172.684 22.4131V24.8028H171.913V19.1312H174.473C174.697 19.1195 174.921 19.1526 175.132 19.2287C175.342 19.3047 175.536 19.4222 175.7 19.574C175.852 19.7234 175.97 19.9023 176.049 20.0995C176.127 20.2967 176.164 20.5079 176.158 20.72C176.17 21.1326 176.036 21.5364 175.779 21.8596C175.618 22.0454 175.417 22.1915 175.19 22.2865C174.964 22.3814 174.718 22.4225 174.473 22.4066H172.677L172.684 22.4131ZM172.684 19.8084V21.7619H174.212C174.507 21.7814 174.801 21.7036 175.047 21.5405C175.161 21.4406 175.249 21.3154 175.305 21.175C175.36 21.0347 175.382 20.8833 175.367 20.7331C175.379 20.5968 175.357 20.4597 175.304 20.3337C175.25 20.2078 175.167 20.0967 175.061 20.0103C174.817 19.8512 174.529 19.7737 174.238 19.7889H172.677L172.684 19.8084Z" fill="#E85F27"/>
<path d="M186.905 21.9702C186.926 22.6666 186.722 23.3513 186.324 23.9237C186.059 24.2454 185.727 24.5045 185.349 24.6824C184.972 24.8603 184.56 24.9526 184.143 24.9526C183.726 24.9526 183.314 24.8603 182.937 24.6824C182.56 24.5045 182.227 24.2454 181.962 23.9237C181.58 23.3433 181.377 22.6643 181.377 21.9702C181.377 21.2761 181.58 20.5971 181.962 20.0167C182.227 19.6951 182.56 19.4359 182.937 19.258C183.314 19.0801 183.726 18.9878 184.143 18.9878C184.56 18.9878 184.972 19.0801 185.349 19.258C185.727 19.4359 186.059 19.6951 186.324 20.0167C186.722 20.5891 186.926 21.2738 186.905 21.9702ZM186.122 21.9702C186.148 21.3707 185.958 20.7818 185.586 20.3097C185.403 20.1083 185.179 19.9474 184.929 19.8372C184.679 19.7271 184.41 19.6702 184.137 19.6702C183.864 19.6702 183.594 19.7271 183.344 19.8372C183.094 19.9474 182.87 20.1083 182.687 20.3097C182.315 20.7818 182.125 21.3707 182.151 21.9702C182.125 22.5697 182.315 23.1587 182.687 23.6307C182.87 23.8321 183.094 23.9931 183.344 24.1032C183.594 24.2133 183.864 24.2702 184.137 24.2702C184.41 24.2702 184.679 24.2133 184.929 24.1032C185.179 23.9931 185.403 23.8321 185.586 23.6307C185.951 23.156 186.134 22.5673 186.102 21.9702H186.122Z" fill="#E85F27"/>
<path d="M29.5679 6.6875C27.754 4.89285 25.3733 3.77931 22.8298 3.53586C20.2863 3.29241 17.7367 3.93404 15.6136 5.35186C13.4905 6.76968 11.9247 8.87636 11.182 11.3144C10.4393 13.7524 10.5653 16.3716 11.5388 18.7275C12.1664 20.2336 13.1211 21.5823 14.3341 22.6763C15.5472 23.7703 16.9885 24.5824 18.5541 25.0542C20.1198 25.526 21.7708 25.6457 23.3884 25.4046C25.0061 25.1636 26.5499 24.5679 27.9089 23.6603C29.2679 22.7528 30.4082 21.556 31.2476 20.1562C32.087 18.7564 32.6047 17.1884 32.7633 15.5651C32.922 13.9418 32.7177 12.3037 32.1652 10.7686C31.6126 9.23346 30.7256 7.83965 29.5679 6.6875ZM22.274 24.3535C22.3139 24.2726 22.334 24.1833 22.3328 24.0931V23.2335C22.3414 23.1518 22.3328 23.0692 22.3074 22.9911C22.282 22.9129 22.2403 22.841 22.1852 22.7799C22.1301 22.7188 22.0627 22.67 21.9875 22.6365C21.9122 22.6031 21.8307 22.5858 21.7483 22.5858C21.6659 22.5858 21.5845 22.6031 21.5092 22.6365C21.4339 22.67 21.3666 22.7188 21.3115 22.7799C21.2563 22.841 21.2147 22.9129 21.1893 22.9911C21.1639 23.0692 21.1552 23.1518 21.1639 23.2335V24.0931C21.1657 24.1816 21.1881 24.2686 21.2292 24.347C19.3194 24.2426 17.4808 23.589 15.9353 22.4652C14.3899 21.3415 13.2038 19.7956 12.5202 18.0142C11.8366 16.2329 11.6847 14.2923 12.083 12.4268C12.4813 10.5613 13.4126 8.85064 14.7646 7.50145C16.4885 5.77132 18.7992 4.74696 21.2423 4.62982C21.1966 4.71154 21.1719 4.80326 21.1704 4.8968V5.77587C21.1618 5.85758 21.1704 5.94019 21.1958 6.01835C21.2213 6.0965 21.2629 6.16846 21.318 6.22954C21.3731 6.29062 21.4405 6.33946 21.5157 6.37289C21.591 6.40633 21.6725 6.42361 21.7549 6.42361C21.8373 6.42361 21.9187 6.40633 21.994 6.37289C22.0693 6.33946 22.1366 6.29062 22.1918 6.22954C22.2469 6.16846 22.2885 6.0965 22.3139 6.01835C22.3393 5.94019 22.348 5.85758 22.3393 5.77587V4.90331C22.3368 4.81198 22.3121 4.72262 22.2675 4.64285C24.7072 4.77473 27.0117 5.80228 28.737 7.52755C30.4623 9.25282 31.4863 11.5537 31.6118 13.987C31.5318 13.9425 31.4422 13.9179 31.3506 13.9154H30.4756C30.3936 13.9068 30.3108 13.9154 30.2324 13.9407C30.154 13.9661 30.0819 14.0076 30.0206 14.0625C29.9594 14.1175 29.9104 14.1847 29.8769 14.2597C29.8433 14.3348 29.826 14.416 29.826 14.4982C29.826 14.5804 29.8433 14.6616 29.8769 14.7367C29.9104 14.8117 29.9594 14.8789 30.0206 14.9339C30.0819 14.9888 30.154 15.0303 30.2324 15.0557C30.3108 15.081 30.3936 15.0896 30.4756 15.081H31.344C31.4356 15.0785 31.5252 15.0539 31.6052 15.0094C31.4801 17.4405 30.4579 19.7397 28.7354 21.4647C27.0128 23.1896 24.7114 24.2186 22.274 24.3535Z" fill="#E85F27"/>
<path d="M25.2381 17.0929C25.1349 17.0933 25.0335 17.0663 24.9442 17.0147L21.4573 14.9766C21.3688 14.9257 21.2952 14.8527 21.2437 14.7647C21.1922 14.6768 21.1645 14.577 21.1634 14.4752V9.2659C21.1547 9.18419 21.1634 9.10158 21.1888 9.02342C21.2142 8.94526 21.2559 8.87331 21.311 8.81223C21.3661 8.75115 21.4334 8.70231 21.5087 8.66887C21.584 8.63544 21.6655 8.61816 21.7478 8.61816C21.8302 8.61816 21.9117 8.63544 21.987 8.66887C22.0622 8.70231 22.1296 8.75115 22.1847 8.81223C22.2398 8.87331 22.2815 8.94526 22.3069 9.02342C22.3323 9.10158 22.341 9.18419 22.3323 9.2659V14.1626L25.5319 16.0054C25.641 16.0712 25.7257 16.1706 25.7732 16.2885C25.8207 16.4065 25.8284 16.5367 25.7953 16.6594C25.7621 16.7821 25.6898 16.8908 25.5893 16.969C25.4888 17.0472 25.3655 17.0907 25.2381 17.0929Z" fill="#E85F27"/>
<path d="M20.406 13.5702V5.50879C18.6067 5.58871 16.8934 6.29889 15.5674 7.51437L20.406 13.5702Z" fill="#E85F27"/>
<path d="M20.4059 23.5069V15.3218L15.502 21.4492C16.8379 22.6969 18.5773 23.4268 20.4059 23.5069Z" fill="#E85F27"/>
<path d="M19.9945 14.8074H12.5635C12.6027 17.098 13.4753 19.2964 15.0187 20.9934L19.9945 14.8074Z" fill="#E85F27"/>
<path d="M19.9945 14.0846L15.1036 7.97021C13.5433 9.63501 12.6409 11.8073 12.5635 14.0846H19.9945Z" fill="#E85F27"/>
</svg>
