<svg width="15" height="15" viewBox="0 0 15 15" fill="none" xmlns="http://www.w3.org/2000/svg">
<path fill-rule="evenodd" clip-rule="evenodd" d="M0.225303 0.231232C0.525706 -0.0770772 1.01276 -0.0770772 1.31316 0.231232L7.5 6.58088L13.6868 0.231232C13.9872 -0.0770772 14.4743 -0.0770772 14.7747 0.231232C15.0751 0.53954 15.0751 1.03941 14.7747 1.34772L8.58786 7.69737L14.3901 13.6523C14.6905 13.9606 14.6905 14.4605 14.3901 14.7688C14.0897 15.0771 13.6026 15.0771 13.3022 14.7688L7.5 8.81385L1.69777 14.7688C1.39737 15.0771 0.910321 15.0771 0.609918 14.7688C0.309515 14.4605 0.309515 13.9606 0.609918 13.6523L6.41214 7.69737L0.225303 1.34772C-0.0751008 1.03941 -0.0751008 0.53954 0.225303 0.231232Z" fill="black"/>
</svg>
