<svg width="245" height="45" viewBox="0 0 245 45" fill="none" xmlns="http://www.w3.org/2000/svg">
<path d="M89.4271 33.3584V40.6295H87.0492V35.0583H84.7991V40.6295H82.4114V33.3584H89.4271Z" fill="white"/>
<path d="M110.16 38.1534L109.393 35.5496L108.656 38.1534H110.16ZM110.621 33.3584L113.225 40.6197H110.857L110.572 39.6371H108.204L107.929 40.6197H105.6L108.204 33.3584H110.621Z" fill="white"/>
<path d="M144.736 35.8934H146.986V33.3584H149.364V40.6295H146.986V37.5933H144.736V40.6295H142.348V33.3584H144.736V35.8934Z" fill="white"/>
<path d="M161.922 33.3584V40.6295H159.642V38.3204L159.76 36.4634L157.137 40.6295H154.906V33.3584H157.186V35.6773L157.068 37.5344L159.691 33.3584H161.922Z" fill="white"/>
<path d="M169.842 35.7166L171.935 33.3584H174.725L172.072 36.0998L175.01 40.6295H172.161L170.412 37.7309L169.842 38.3303V40.6295H167.464V33.3584H169.842V35.7166Z" fill="white"/>
<path d="M203.751 35.7166L205.844 33.3584H208.634L205.981 36.0998L208.919 40.6295H206.06L204.311 37.7309L203.751 38.3303V40.6295H201.373V33.3584H203.751V35.7166Z" fill="white"/>
<path d="M239.312 38.1534L238.546 35.5496L237.809 38.1534H239.312ZM239.774 33.3584L242.378 40.6197H240.01L239.725 39.6371H237.357L237.082 40.6197H234.753L237.357 33.3584H239.774Z" fill="white"/>
<path d="M23.8691 33.722H24.4783V35.4808H24.9991V33.722H25.6181V33.2504H23.8691V33.722Z" fill="white"/>
<path d="M29.873 35.4808H30.3938V33.722H31.2683V33.2504H29.873V35.4808Z" fill="white"/>
<path d="M137.977 8.13493L131.099 27.1284H137.191L137.977 24.6424H144.178L144.915 27.148H151.115L144.305 8.15457H137.977V8.13493ZM139.137 20.7121L141.102 13.9125L143.067 20.7121H139.137ZM89.7618 15.6714L86.7257 8.17421H79.7001L86.6962 21.9305C86.597 22.2422 86.4001 22.5137 86.1347 22.7048C85.8693 22.8959 85.5493 22.9965 85.2223 22.9917C84.7749 22.9859 84.3347 22.8784 83.9351 22.6772V27.0006C84.876 27.3654 85.8739 27.5616 86.8829 27.5803C89.2607 27.5803 90.8722 26.3128 92.4738 22.9131L99.4895 8.08578H92.7784L89.7618 15.6714ZM110.396 27.1775H116.626V12.5664H122.521V27.1284H128.751V8.13493H110.406V27.1284L110.396 27.1775ZM215.533 14.9344C214.615 15.1851 213.665 15.3009 212.713 15.2783C211.21 15.2783 210.345 14.5905 210.345 13.0872V8.17421H204.116V14.0697C204.116 18.1868 207.545 19.9653 210.345 19.9653C212.089 20.0718 213.839 19.9295 215.543 19.5428V27.2266H221.773V8.13493H215.602V14.8853L215.533 14.9344ZM194.673 27.1775H200.902V8.13493H194.673V27.1284V27.1775ZM237.298 8.18405H230.97L224.16 27.1775H230.252L230.97 24.6719H237.219L237.956 27.1775H244.097L237.298 8.18405ZM232.188 20.7121L234.153 13.9125L236.118 20.7121H232.188ZM155.831 17.9706C155.831 22.4218 155.124 22.8836 153.866 22.8836C153.384 22.9094 152.901 22.8461 152.441 22.6969V27.1284C153.542 27.409 154.675 27.5445 155.811 27.5312C159.378 27.5312 161.776 25.6348 161.776 17.9805V12.5762H166.237V27.1382H172.457V8.13493H155.831V17.9608V17.9706ZM185.142 14.7576H182.194V8.13493H175.974V27.1284H185.073C189.986 27.1284 192.993 25.1632 192.993 21.0658C192.993 16.9684 189.956 14.7576 185.132 14.7576H185.142ZM184.483 22.6772H182.194V19.1694H183.746C185.712 19.1694 187.176 19.2677 187.176 20.9381C187.176 22.3628 186.016 22.6772 184.483 22.6772Z" fill="white"/>
<path d="M35.3751 44.6973C26.2566 44.6973 17.6393 42.9286 11.1248 39.7155C4.08943 36.247 0.20816 31.4421 0.20816 26.1853C0.20816 20.9284 4.07961 16.1334 11.1248 12.6649C16.5132 10.1499 22.2988 8.5938 28.2218 8.06635V7.56522C28.2936 5.77626 29.0458 4.08222 30.3245 2.82913C31.3381 1.83565 32.6141 1.15201 34.0026 0.858495C35.3912 0.564978 36.8348 0.673784 38.1637 1.17212C39.4926 1.67046 40.6516 2.53762 41.5048 3.6718C42.358 4.80599 42.8699 6.16009 42.9803 7.57505V8.10566C48.7438 8.66481 54.3696 10.2033 59.6155 12.655C66.6508 16.1236 70.5222 20.9186 70.5222 26.1755C70.5222 31.4323 66.6508 36.2273 59.6155 39.7057C53.1009 42.9188 44.4935 44.6874 35.3652 44.6874" fill="white"/>
<path d="M59.1236 13.6669C53.687 11.1404 47.8448 9.60002 41.8693 9.11758V7.58475C41.7805 6.00183 41.0801 4.51536 39.9159 3.43918C38.7517 2.36299 37.2149 1.7813 35.6299 1.81692C34.7942 1.79646 33.9629 1.9452 33.1862 2.25421C32.4095 2.56322 31.7032 3.02613 31.11 3.61508C30.0467 4.65684 29.4122 6.05907 29.3315 7.54543V9.05863C23.2069 9.50576 17.2143 11.0605 11.6449 13.6473C5.01239 16.9193 1.34735 21.3606 1.34735 26.1753C1.34735 30.99 5.00256 35.4313 11.6449 38.7033C18.012 41.8476 26.4427 43.6163 35.4039 43.6163C44.3651 43.6163 52.7957 41.8869 59.1629 38.7033C65.7953 35.4313 69.4506 30.99 69.4506 26.1753C69.4506 21.3606 65.7953 16.9193 59.1629 13.6473" fill="white"/>
<path d="M47.9438 16.7821C49.1819 16.5266 49.3391 18.1479 48.327 18.6588C47.7302 18.8949 47.176 19.2268 46.6861 19.6414C46.2243 20.1524 45.0157 22.6482 46.6272 22.658C48.4843 22.658 49.5749 20.6928 49.7911 20.2408C50.4592 18.5802 50.6754 18.1675 51.5204 18.5802C52.051 18.8357 51.3141 20.2113 51.1667 20.6633C49.8254 24.3895 49.4303 28.3904 50.017 32.307C50.1251 33.2896 49.8893 33.9676 49.1131 34.0658C48.3368 34.1641 47.7277 33.9283 47.482 32.5232C46.7451 28.3177 49.0345 22.5204 49.0345 22.5204C49.0345 22.5204 46.5879 25.8317 44.7799 24.2301C43.4927 23.0313 44.9666 20.2998 45.0157 20.0738C44.5735 20.4177 44.0331 20.4668 43.9348 20.1426C43.6007 19.2484 45.5168 19.2877 45.841 18.7571C46.5289 17.4896 47.1184 16.9098 47.9536 16.733" fill="#A70230"/>
<path d="M13.1901 22.8445C13.3768 21.7539 16.187 15.1508 26.229 13.4706C26.9952 13.2938 27.7916 13.2938 28.5578 13.4706C29.2456 13.677 29.0491 14.3156 28.5578 14.3549C28.0665 14.3942 18.5255 15.4358 16.0494 23.2474C15.1945 25.2125 12.8953 24.5935 13.2097 22.7954" fill="#A70230"/>
<path d="M27.3182 33.8789C26.3356 34.5667 24.5276 31.167 25.2154 21.4787C25.3235 19.936 27.6326 19.8279 27.4459 21.8521C26.3945 33.1715 27.8881 33.4466 27.328 33.8789" fill="#A70230"/>
<path d="M14.761 35.402C16.1563 33.2206 17.1684 32.5623 17.7088 30.1157C17.5176 30.5065 17.2422 30.8502 16.9025 31.122C16.5627 31.3938 16.1669 31.587 15.7436 31.6878C15.3065 31.6653 14.8837 31.5246 14.5202 31.2806C14.1568 31.0366 13.8665 30.6985 13.6802 30.3023C13.1012 29.0506 12.8801 27.663 13.0415 26.2934C13.0415 24.5444 15.8517 24.8588 15.783 26.0477C15.5865 28.514 16.1072 29.192 16.5985 29.3787C17.0898 29.5654 18.1215 28.8579 18.3475 27.6199C18.5047 26.8829 18.6227 26.4997 18.6227 26.4997C18.6298 26.412 18.654 26.3265 18.6942 26.2481C18.7343 26.1698 18.7895 26.1001 18.8566 26.0431C18.9236 25.986 19.0013 25.9428 19.0851 25.9158C19.1688 25.8888 19.2571 25.8785 19.3449 25.8856C19.4326 25.8927 19.5181 25.917 19.5964 25.9571C19.6748 25.9973 19.7445 26.0524 19.8015 26.1195C19.8585 26.1866 19.9018 26.2642 19.9288 26.348C19.9558 26.4318 19.9661 26.5201 19.959 26.6078C19.6249 30.7445 18.829 33.9379 16.8441 37.0331C16.3233 37.8486 13.8276 36.6204 14.7218 35.4118" fill="#A70230"/>
<path d="M24.6545 18.5309C24.6054 18.9927 22.7876 36.866 22.6894 37.3573C22.5223 38.7722 19.6237 39.0965 19.9381 36.1782C20.0855 34.9008 22.3062 18.5506 22.3455 18.2853C22.601 16.4969 24.8314 16.6542 24.6054 18.5309" fill="#A70230"/>
<path d="M32.151 29.3396C32.0211 29.6271 31.8206 29.8771 31.568 30.0661C31.3154 30.2551 31.0191 30.377 30.7066 30.4205C29.6552 30.4205 29.9205 28.9073 30.3626 28.2489C30.4886 27.9713 30.6878 27.7332 30.9388 27.5601C31.1898 27.387 31.4831 27.2855 31.7874 27.2664C32.711 27.4629 31.2273 28.416 31.7874 28.7009L32.0822 28.8385C32.0822 28.8385 32.4556 28.9662 32.151 29.3592V29.3396ZM42.9594 26.6375C43.264 26.8045 42.4387 27.8264 42.3601 27.9345C42.3601 27.8166 42.6745 26.4803 42.9594 26.6375ZM47.0568 32.8573C46.3199 31.1967 45.9269 30.3615 46.3494 28.5142C46.4575 28.1507 46.428 27.4629 45.7205 27.5316C45.013 27.6004 45.1015 28.5142 44.5709 28.3767C42.8907 27.9836 43.097 28.9367 43.1953 29.1726C43.6178 30.106 43.3721 30.7545 42.7727 30.7545C42.1734 30.7545 41.5249 29.6933 42.6254 28.642C42.5566 28.7108 45.3864 26.0774 43.942 25.2619C42.8514 24.7018 41.8589 26.2936 41.4757 27.227C40.2868 30.1748 39.8839 30.7349 39.5105 30.8135C39.1372 30.8921 39.5597 29.0055 39.8741 28.1802C40.3064 27.0895 40.5226 25.7826 39.7955 25.7826C38.2234 25.7826 36.6709 28.8778 36.0322 29.8505C35.0496 31.2851 35.1774 29.939 34.5092 29.9783C33.6642 30.0569 33.7722 31.01 33.3694 30.9609C32.7405 30.9609 33.9197 28.4553 34.0867 27.8854C34.1672 27.7649 34.2157 27.6259 34.2277 27.4816C34.2397 27.3372 34.2149 27.1921 34.1555 27.06C33.7035 26.5785 33.3301 27.227 33.2416 27.3155C33.2416 25.6844 32.2001 25.6352 31.1585 26.0872C30.2661 26.5117 29.5001 27.1621 28.9365 27.9739C28.3729 28.7857 28.0313 29.7307 27.9455 30.7152C27.7392 32.5821 29.7338 34.6456 31.6204 31.5799C31.6204 31.5799 31.4435 33.1324 32.5342 33.1422C33.2908 33.1422 34.0572 31.521 34.0572 31.521C34.0572 31.521 34.0572 33.1422 35.0398 33.1422C35.8455 33.1422 36.6119 30.9805 37.005 30.0569C37.3181 29.3807 37.6726 28.7245 38.0662 28.0917C38.302 27.7478 38.4297 27.905 38.3216 28.0917C36.8576 31.5406 37.5847 33.1422 38.3216 33.1422C39.0586 33.1422 39.6678 32.7197 40.5128 31.2753C40.538 31.7793 40.7562 32.2543 41.122 32.6018C41.4878 32.9494 41.9734 33.1429 42.478 33.1422C43.6767 33.1422 44.5316 31.0493 44.1778 29.6442C44.0108 28.9367 44.7281 29.0153 44.7379 29.4182C44.6527 30.0993 44.7539 30.7909 45.0308 31.419C45.3076 32.0472 45.7498 32.5884 46.3101 32.985C46.5066 33.1324 47.2927 33.3879 46.9881 32.7885" fill="#A70230"/>
<path d="M54.212 29.1137C53.7895 29.4772 54.3889 29.7622 54.3889 29.7622C54.5461 29.8899 54.3005 30.2437 53.7502 30.4009C53.5641 30.4802 53.3579 30.5002 53.16 30.458C52.9621 30.4158 52.7821 30.3135 52.6445 30.1652C52.5069 30.0168 52.4184 29.8296 52.3912 29.6291C52.364 29.4286 52.3994 29.2246 52.4925 29.0449C52.7774 27.9248 54.0449 27.0208 54.7426 27.3057C55.4402 27.5907 54.8507 28.4652 54.2022 29.1039L54.212 29.1137ZM56.639 34.2625C56.0178 32.8526 55.8165 31.2935 56.0593 29.772C56.1182 29.0842 55.3322 29.2807 55.3322 29.2807C55.7389 28.6271 55.9089 27.8535 55.8136 27.0896C55.7252 26.3919 54.9097 25.9694 53.7305 26.3133C51.5688 26.952 50.6256 29.2611 50.4683 30.9512C50.3111 32.6412 51.9029 34.7341 54.4773 31.4916C54.6689 32.6654 55.2587 33.7376 56.1477 34.5278C56.3344 34.6752 56.9632 34.7931 56.639 34.2625Z" fill="#A70230"/>
<path d="M39.5123 9.61873C38.2644 15.0524 36.6923 16.8997 36.3483 17.2633C36.0044 17.6268 35.4247 17.5875 35.1889 16.7917C35.1201 16.5558 34.2751 13.7653 31.9169 14.4924C31.9169 14.4924 31.7007 14.571 31.6614 14.3941C31.6722 14.3223 31.7028 14.2549 31.7496 14.1994C31.7964 14.1439 31.8577 14.1025 31.9267 14.0797C33.8919 13.0185 35.5623 14.9739 35.5917 15.0033C36.1223 15.5634 36.8494 14.797 37.0656 13.9323C37.2425 13.2347 37.1934 12.1047 35.5917 12.7532C35.3559 12.8318 33.43 13.4607 34.0687 11.6723C34.2259 11.1614 34.5797 10.3753 34.7958 9.76611C35.238 8.52805 35.012 6.45481 33.2433 7.54548C32.7234 7.95991 32.2724 8.45404 31.907 9.00953C31.7891 9.17657 31.5926 9.09796 31.6909 8.85231C32.0854 7.83316 32.79 6.96361 33.7052 6.36636C34.7565 5.82594 36.82 6.51375 35.6704 9.31413C35.2478 10.395 35.3657 11.5544 36.2501 11.5544C36.8781 11.4987 37.4794 11.2737 37.9899 10.9034C38.5003 10.5332 38.9007 10.0315 39.1487 9.45171C39.2666 9.18641 39.5516 9.27484 39.473 9.62857" fill="#A70230"/>
<path d="M35.374 41.4056C17.6874 41.4056 3.38091 34.5275 3.38091 26.1264C3.38091 18.6882 14.5038 12.4979 29.223 11.1321H29.5473V23.5225H41.6822V11.1615H41.8886C56.4506 12.5961 67.4359 18.7471 67.4359 26.1264C67.4359 34.5668 53.1097 41.4056 35.4428 41.4056H35.374ZM31.5124 7.91901C31.5484 6.84868 32.005 5.83568 32.7831 5.09986C33.5612 4.36404 34.5981 3.96477 35.6688 3.98866C36.7428 3.95951 37.7847 4.35644 38.5671 5.09281C39.3495 5.82918 39.8088 6.84519 39.8448 7.91901V20.6927H31.4928V7.93866L31.5124 7.91901ZM59.2018 13.6573C53.7653 11.1308 47.923 9.59038 41.9475 9.10794V7.5751C41.8587 5.99219 41.1583 4.50572 39.9941 3.42953C38.8299 2.35335 37.2931 1.77168 35.7081 1.80731C34.8724 1.78684 34.0412 1.93559 33.2644 2.2446C32.4877 2.55361 31.7814 3.01649 31.1882 3.60543C30.1249 4.6472 29.4904 6.04943 29.4097 7.53579V9.04899C23.2851 9.49612 17.2925 11.0509 11.7231 13.6377C5.09061 16.9097 1.42557 21.351 1.42557 26.1657C1.42557 30.9804 5.08078 35.4217 11.7231 38.6937C18.0903 41.838 26.5209 43.6066 35.4821 43.6066C44.4433 43.6066 52.8739 41.8773 59.2411 38.6937C65.8736 35.4217 69.5288 30.9804 69.5288 26.1657C69.5288 21.351 65.8736 16.9097 59.2411 13.6377" fill="#A70230"/>
<path d="M44.6302 16.7819C44.2928 16.7703 43.9663 16.6597 43.6914 16.4639C43.4165 16.2681 43.2053 15.9956 43.0842 15.6806C42.963 15.3655 42.9373 15.0218 43.0101 14.6922C43.083 14.3626 43.2512 14.0618 43.4939 13.8272C43.7365 13.5926 44.0429 13.4345 44.3747 13.3728C44.7066 13.3111 45.0492 13.3485 45.36 13.4802C45.6708 13.6119 45.936 13.8321 46.1224 14.1135C46.3089 14.3948 46.4084 14.7248 46.4086 15.0624C46.4048 15.2921 46.3557 15.5188 46.2643 15.7295C46.1728 15.9402 46.0408 16.1309 45.8756 16.2906C45.7104 16.4502 45.5154 16.5758 45.3017 16.6601C45.088 16.7444 44.8598 16.7858 44.6302 16.7819ZM44.6302 12.9989C44.2224 13.0105 43.8271 13.1422 43.4938 13.3774C43.1605 13.6125 42.904 13.9408 42.7564 14.3211C42.6088 14.7014 42.5766 15.1168 42.664 15.5152C42.7513 15.9137 42.9542 16.2775 43.2473 16.5612C43.5404 16.8449 43.9108 17.0358 44.3119 17.11C44.713 17.1842 45.1271 17.1385 45.5023 16.9785C45.8776 16.8185 46.1973 16.5514 46.4214 16.2105C46.6455 15.8697 46.7641 15.4703 46.7624 15.0624C46.7495 14.5072 46.5185 13.9795 46.1195 13.5933C45.7205 13.2072 45.1854 12.9936 44.6302 12.9989Z" fill="#A70230"/>
<path d="M44.7411 14.8169H44.3088V14.2765H44.7117C44.8885 14.2765 45.085 14.2765 45.085 14.5222C45.085 14.7678 44.9573 14.8169 44.7411 14.8169ZM45.6058 14.5222C45.6058 14.0112 45.2816 13.8343 44.7117 13.8245H43.7291V16.1238H44.2302V15.1412H44.4562L44.6625 15.4949L44.9966 16.1041H45.6156L45.0163 15.1215C45.0945 15.1247 45.1724 15.1111 45.245 15.0816C45.3175 15.0522 45.383 15.0076 45.4369 14.9509C45.4908 14.8942 45.5321 14.8266 45.5578 14.7526C45.5835 14.6787 45.5932 14.6001 45.5861 14.5222" fill="#A70230"/>
<path d="M214.953 33.3584L216.112 36.2275L217.262 33.3584H219.826L217.144 39.0279C216.525 40.3249 215.916 40.8162 215.002 40.8162C214.618 40.807 214.239 40.7305 213.882 40.5902V38.9395C214.036 39.0092 214.204 39.0428 214.373 39.0377C214.499 39.0416 214.622 39.0044 214.725 38.9317C214.828 38.859 214.904 38.7548 214.943 38.6349L212.27 33.3584H214.953Z" fill="white"/>
<path d="M228.573 36.3258C228.571 36.161 228.535 35.9985 228.468 35.8481C228.4 35.6977 228.303 35.5626 228.181 35.4513C228.06 35.3399 227.917 35.2546 227.761 35.2005C227.606 35.1465 227.441 35.1248 227.276 35.1369C226.441 35.1369 225.93 35.8541 225.93 37.2592C225.93 38.2418 226.156 39.2244 227.365 39.2244C227.525 39.2244 227.685 39.1926 227.833 39.1307C227.982 39.0689 228.116 38.9783 228.23 38.8641C228.343 38.7499 228.432 38.6144 228.493 38.4655C228.554 38.3165 228.584 38.157 228.583 37.9962H230.872C230.81 38.8542 230.409 39.6524 229.759 40.2159C229.109 40.7794 228.262 41.0624 227.404 41.0029C226.39 41.0342 225.406 40.6615 224.667 39.9668C223.928 39.2721 223.495 38.3123 223.464 37.2986C223.433 36.2848 223.805 35.3002 224.5 34.5613C225.195 33.8223 226.154 33.3896 227.168 33.3584C229.389 33.3584 230.627 34.4589 230.823 36.3061H228.563L228.573 36.3258Z" fill="white"/>
<path d="M192.018 38.9689H193.06C193.649 38.9689 194.042 38.851 194.042 38.3008C194.042 37.7505 193.492 37.6228 192.736 37.6228H192.018V38.9689ZM192.018 36.3061H193.001C193.097 36.3245 193.196 36.322 193.292 36.2989C193.387 36.2757 193.476 36.2325 193.554 36.172C193.631 36.1115 193.694 36.0352 193.74 35.9482C193.785 35.8611 193.811 35.7654 193.816 35.6674C193.816 35.0975 193.355 35.0877 192.834 35.0877H192.018V36.2963V36.3061ZM189.64 33.3584H193.109C194.74 33.3584 196.057 33.7416 196.057 35.186C196.036 35.5103 195.936 35.8246 195.765 36.1007C195.593 36.3768 195.356 36.6061 195.074 36.768C195.437 36.8646 195.756 37.0836 195.976 37.388C196.196 37.6923 196.304 38.0633 196.283 38.4383C196.283 40.0596 195.045 40.6295 193.158 40.6295H189.621V33.3682L189.64 33.3584Z" fill="white"/>
<path d="M132.248 35.0582V35.8443C132.318 36.9073 132.111 37.9702 131.649 38.9296H133.663V35.0582H132.238H132.248ZM136.05 33.3584V38.9296H136.689V42.2999H134.41V40.6197H131.02V42.2999H128.74V38.9296H129.31C129.83 37.7675 130.056 36.4954 129.968 35.2253V33.3584H136.011H136.05Z" fill="white"/>
<path d="M119.876 36.1684H120.073C120.819 36.1684 121.242 36.021 121.242 35.4315C121.222 35.3228 121.18 35.2191 121.12 35.1265C121.06 35.034 120.982 34.9543 120.89 34.8921C120.799 34.83 120.696 34.7866 120.588 34.7645C120.479 34.7424 120.368 34.742 120.259 34.7633C120.029 34.7411 119.798 34.8009 119.608 34.9321C119.417 35.0633 119.279 35.2576 119.218 35.4806H117.253C117.38 33.7905 118.844 33.0732 120.397 33.0732C122.224 33.0732 123.502 33.9478 123.502 35.1662C123.498 35.5095 123.396 35.8447 123.208 36.132C123.02 36.4193 122.754 36.6467 122.441 36.7874C122.817 36.883 123.148 37.1074 123.376 37.4215C123.604 37.7356 123.714 38.1197 123.689 38.507C123.689 39.8826 122.539 40.7276 120.358 40.7276C118.176 40.7276 117.095 39.9022 116.938 37.996H118.903C118.912 38.1535 118.954 38.3074 119.027 38.4476C119.099 38.5877 119.2 38.711 119.324 38.8094C119.447 38.9077 119.59 38.9788 119.743 39.0182C119.895 39.0575 120.055 39.0641 120.21 39.0376C121.016 39.0376 121.419 38.7035 121.419 38.2711C121.419 37.6128 120.8 37.5047 120.053 37.5047H119.856V36.1782L119.876 36.1684Z" fill="white"/>
<path d="M98.1228 36.5712H99.1054C99.2283 36.5992 99.356 36.598 99.4783 36.5677C99.6007 36.5373 99.7142 36.4787 99.8098 36.3965C99.9054 36.3143 99.9803 36.2108 100.029 36.0944C100.077 35.978 100.097 35.8519 100.088 35.7262C100.088 35.0482 99.3215 34.9597 98.8204 34.9597H98.1424V36.5712H98.1228ZM98.1228 40.5016H95.7253V33.2402H99.2233C101.316 33.2402 102.318 34.2228 102.318 35.6967C102.318 37.1706 101.395 38.2514 99.3019 38.2514H98.1031V40.5114L98.1228 40.5016Z" fill="white"/>
</svg>
