<?xml version="1.0" encoding="UTF-8"?>
<!DOCTYPE svg PUBLIC "-//W3C//DTD SVG 1.1//EN" "http://www.w3.org/Graphics/SVG/1.1/DTD/svg11.dtd">
<svg xmlns="http://www.w3.org/2000/svg" xmlns:xlink="http://www.w3.org/1999/xlink">
<symbol id="geotag" viewBox="0 0 15 18">
	<path fill-rule="evenodd" d="M3.48 4.083a5.051 5.051 0 018.623 3.572c0 1.952-1.279 3.893-2.752 5.448a19.448 19.448 0 01-2.3 2.058 19.447 19.447 0 01-2.3-2.058C3.28 11.548 2 9.607 2 7.655c0-1.34.532-2.624 1.48-3.572zm3.016 13.145l.555-.832-.554.832a1 1 0 001.109 0l-.555-.832.556.832.002-.002.005-.003.017-.011.058-.04a19.48 19.48 0 00.931-.697 21.471 21.471 0 002.183-1.997c1.552-1.639 3.3-4.067 3.3-6.823A7.051 7.051 0 100 7.655c0 2.756 1.747 5.184 3.3 6.823a21.466 21.466 0 003.114 2.694l.058.04.017.01.005.004.001.001h.001zm-.462-9.573a1.017 1.017 0 112.034 0 1.017 1.017 0 01-2.034 0zm1.017-3.017a3.017 3.017 0 100 6.034 3.017 3.017 0 000-6.034z" clip-rule="evenodd"/>
</symbol>
<symbol id="phone" viewBox="0 0 16 18">
	<path d="M13.608 13.838l-.65 2.005c-.06.186-.161.36-.298.509-.137.15-.306.271-.496.358a1.656 1.656 0 01-1.231.057c-2.175-.804-4.105-2.065-5.636-3.68a13.018 13.018 0 01-3.08-5.143 12.546 12.546 0 01-.363-6.373c.041-.19.126-.37.248-.529.121-.16.278-.294.459-.395A1.661 1.661 0 013.779.49l2.19.566c.356.089.662.292.863.573.2.281.28.62.225.954a8.152 8.152 0 00-.098 2.01c.021.265-.042.53-.181.765-.14.235-.35.43-.605.56l-1.202.609c.497 1.942 1.56 3.718 3.08 5.142l1.203-.609a1.66 1.66 0 01.838-.17c.29.018.568.11.8.268a9.88 9.88 0 001.9.998c.34.138.611.385.761.695.15.31.17.661.055.987z"/>
	<path d="M13.608 13.838l-.65 2.005c-.06.186-.161.36-.298.509-.137.15-.306.271-.496.358a1.656 1.656 0 01-1.231.057c-2.175-.804-4.105-2.065-5.636-3.68a13.018 13.018 0 01-3.08-5.143 12.546 12.546 0 01-.363-6.373c.041-.19.126-.37.248-.529.121-.16.278-.294.459-.395A1.661 1.661 0 013.779.49l2.19.566c.356.089.662.292.863.573.2.281.28.62.225.954a8.152 8.152 0 00-.098 2.01c.021.265-.042.53-.181.765-.14.235-.35.43-.605.56l-1.202.609c.497 1.942 1.56 3.718 3.08 5.142l1.203-.609a1.66 1.66 0 01.838-.17c.29.018.568.11.8.268a9.88 9.88 0 001.9.998c.34.138.611.385.761.695.15.31.17.661.055.987z"/>
</symbol>
<symbol id="logo" viewBox="0 0 249 46">
	<path fill="#A70230" d="M90.851 33.852v7.4h-2.42v-5.67h-2.29v5.67h-2.43v-7.4h7.14zM111.951 38.732l-.78-2.65-.75 2.65h1.53zm.47-4.88l2.65 7.39h-2.41l-.29-1h-2.41l-.28 1h-2.37l2.65-7.39h2.46zM147.141 36.432h2.29v-2.58h2.42v7.4h-2.42v-3.09h-2.29v3.09h-2.43v-7.4h2.43v2.58zM164.63 33.852v7.4h-2.32v-2.35l.12-1.89-2.67 4.24h-2.27v-7.4h2.32v2.36l-.12 1.89 2.67-4.25h2.27zM172.69 36.252l2.13-2.4h2.84l-2.7 2.79 2.99 4.61h-2.901l-1.779-2.95-.58.61v2.34h-2.42v-7.4h2.42v2.4zM207.201 36.252l2.13-2.4h2.84l-2.7 2.79 2.99 4.61h-2.91l-1.78-2.95-.57.61v2.34h-2.42v-7.4h2.42v2.4zM243.39 38.732l-.78-2.65-.75 2.65h1.53zm.47-4.88l2.65 7.39h-2.41l-.29-1h-2.41l-.28 1h-2.37l2.65-7.39h2.46z"/>
	<path fill="#fff" d="M24.13 34.222h.62v1.79h.53v-1.79h.63v-.48h-1.78v.48zM30.24 36.012h.53v-1.79h.89v-.48h-1.42v2.27z"/>
	<path fill="#A70230" d="M140.261 8.182l-7 19.33h6.2l.8-2.53h6.31l.75 2.55h6.31l-6.93-19.33h-6.44v-.02zm1.18 12.8l2-6.92 2 6.92h-4zm-50.25-5.13l-3.09-7.63h-7.15l7.12 14a1.55 1.55 0 01-1.5 1.08 2.999 2.999 0 01-1.31-.32v4.4a8.748 8.748 0 003 .59c2.42 0 4.06-1.29 5.69-4.75l7.14-15.09h-6.83l-3.07 7.72zm21 11.71h6.34v-14.87h6v14.82h6.34V8.182h-18.67v19.33l-.01.05zm107-12.46a9.994 9.994 0 01-2.87.35c-1.53 0-2.41-.7-2.41-2.23v-5h-6.34v6c0 4.19 3.49 6 6.34 6a18.737 18.737 0 005.29-.43v7.82h6.34V8.182h-6.28v6.87l-.07.05zm-21.23 12.46h6.34V8.182h-6.34v19.38zm43.38-19.33h-6.44l-6.93 19.33h6.2l.73-2.55h6.36l.75 2.55h6.25l-6.92-19.33zm-5.2 12.75l2-6.92 2 6.92h-4zm-77.71-2.79c0 4.53-.72 5-2 5a4.001 4.001 0 01-1.45-.19v4.51a13.26 13.26 0 003.43.41c3.63 0 6.07-1.93 6.07-9.72v-5.5h4.54v14.82h6.33V8.182h-16.92v10.01zm29.83-3.27h-3v-6.74h-6.33v19.33h9.26c5 0 8.06-2 8.06-6.17s-3.09-6.42-8-6.42h.01zm-.67 8.06h-2.33v-3.57h1.58c2 0 3.49.1 3.49 1.8 0 1.45-1.18 1.77-2.74 1.77zM35.84 45.392c-9.28 0-18.05-1.8-24.68-5.07C4 36.792.05 31.902.05 26.552s3.94-10.23 11.11-13.76a52.06 52.06 0 0117.4-4.68v-.51a7.15 7.15 0 012.14-4.82 7.59 7.59 0 0112.88 4.83v.54a51.801 51.801 0 0116.93 4.63c7.16 3.53 11.1 8.41 11.1 13.76s-3.94 10.23-11.1 13.77c-6.63 3.27-15.39 5.07-24.68 5.07"/>
	<path fill="#A70230" d="M60.01 13.812a51.5 51.5 0 00-17.56-4.63v-1.56a6.22 6.22 0 00-6.349-5.87 6.31 6.31 0 00-4.6 1.83 6.06 6.06 0 00-1.81 4v1.54a51.66 51.66 0 00-18 4.67c-6.75 3.33-10.48 7.85-10.48 12.75s3.72 9.42 10.48 12.75c6.48 3.2 15.06 5 24.18 5s17.7-1.76 24.18-5c6.75-3.33 10.47-7.85 10.47-12.75s-3.72-9.42-10.47-12.75"/>
	<path fill="#fff" d="M48.631 16.982c1.26-.26 1.42 1.39.39 1.91a6 6 0 00-1.67 1c-.47.52-1.7 3.06-.06 3.07 1.89 0 3-2 3.22-2.46.68-1.69.9-2.11 1.76-1.69.54.26-.21 1.66-.36 2.12a24.34 24.34 0 00-1.17 11.85c.11 1-.13 1.69-.92 1.79-.79.1-1.41-.14-1.66-1.57-.75-4.28 1.58-10.18 1.58-10.18s-2.49 3.37-4.33 1.74c-1.31-1.22.19-4 .24-4.23-.45.35-1 .4-1.1.07-.34-.91 1.61-.87 1.94-1.41.7-1.29 1.3-1.88 2.15-2.06M13.26 23.152c.19-1.11 3.05-7.83 13.27-9.54.78-.18 1.59-.18 2.37 0 .7.21.5.86 0 .9-.5.04-10.21 1.1-12.73 9.05-.87 2-3.21 1.37-2.89-.46M27.64 34.382c-1 .7-2.84-2.76-2.14-12.62.11-1.57 2.46-1.68 2.27.38-1.07 11.52.45 11.8-.12 12.24"/>
	<path fill="#fff" d="M14.86 35.932c1.42-2.22 2.45-2.89 3-5.38a3 3 0 01-2 1.6 2.46 2.46 0 01-2.1-1.41 7.6 7.6 0 01-.65-4.08c0-1.78 2.86-1.46 2.79-.25-.2 2.51.33 3.2.83 3.39.5.19 1.55-.53 1.78-1.79.16-.75.28-1.14.28-1.14a.683.683 0 111.36.11c-.34 4.21-1.15 7.46-3.17 10.61-.53.83-3.07-.42-2.16-1.65M24.93 18.762c-.05.47-1.9 18.66-2 19.16-.17 1.44-3.12 1.77-2.8-1.2.15-1.3 2.41-17.94 2.45-18.21.26-1.82 2.53-1.66 2.3.25M32.56 29.762a1.899 1.899 0 01-1.47 1.1c-1.07 0-.8-1.54-.35-2.21a1.71 1.71 0 011.45-1c.94.2-.57 1.17 0 1.46l.3.14s.38.13.07.53v-.02zm11-2.75c.31.17-.53 1.21-.61 1.32 0-.12.32-1.48.61-1.32zm4.17 6.33c-.75-1.69-1.15-2.54-.72-4.42.11-.37.08-1.07-.64-1-.72.07-.63 1-1.17.86-1.71-.4-1.5.57-1.4.81.43.95.18 1.61-.43 1.61s-1.27-1.08-.15-2.15c-.07.07 2.81-2.61 1.34-3.44-1.11-.57-2.12 1.05-2.51 2-1.21 3-1.62 3.57-2 3.65-.38.08.05-1.84.37-2.68.44-1.11.66-2.44-.08-2.44-1.6 0-3.18 3.15-3.83 4.14-1 1.46-.87.09-1.55.13-.86.08-.75 1.05-1.16 1-.64 0 .56-2.55.73-3.13a.87.87 0 00.07-.84c-.46-.49-.84.17-.93.26 0-1.66-1.06-1.71-2.12-1.25a5.77 5.77 0 00-3.27 4.71c-.21 1.9 1.82 4 3.74.88 0 0-.18 1.58.93 1.59.77 0 1.55-1.65 1.55-1.65s0 1.65 1 1.65c.82 0 1.6-2.2 2-3.14.32-.688.68-1.356 1.08-2 .24-.35.37-.19.26 0-1.49 3.51-.75 5.14 0 5.14s1.37-.43 2.23-1.9a2 2 0 002 1.9c1.22 0 2.09-2.13 1.73-3.56-.17-.72.56-.64.57-.23a3.86 3.86 0 001.6 3.63c.2.15 1 .41.69-.2M55.01 29.532c-.43.37.18.66.18.66.16.13-.09.49-.65.65a1 1 0 01-1.28-1.38c.29-1.14 1.58-2.06 2.29-1.77.71.29.11 1.18-.55 1.83l.01.01zm2.47 5.24a8.15 8.15 0 01-.59-4.57c.06-.7-.74-.5-.74-.5a3.42 3.42 0 00.49-2.23c-.09-.71-.92-1.14-2.12-.79-2.2.65-3.16 3-3.32 4.72-.16 1.72 1.46 3.85 4.08.55a5.27 5.27 0 001.7 3.09c.19.15.83.27.5-.27zM40.05 9.692c-1.27 5.53-2.87 7.41-3.22 7.78-.35.37-.94.33-1.18-.48-.07-.24-.93-3.08-3.33-2.34 0 0-.22.08-.26-.1a.4.4 0 01.27-.32c2-1.08 3.7.91 3.73.94.54.57 1.28-.21 1.5-1.09.18-.71.13-1.86-1.5-1.2-.24.08-2.2.72-1.55-1.1.16-.52.52-1.32.74-1.94.45-1.26.22-3.37-1.58-2.26-.529.422-.988.925-1.36 1.49-.12.17-.32.09-.22-.16a5.31 5.31 0 012.05-2.53c1.07-.55 3.17.15 2 3-.43 1.1-.31 2.28.59 2.28a3.55 3.55 0 002.95-2.14c.12-.27.41-.18.33.18"/>
	<path fill="#fff" d="M35.841 42.042c-18 0-32.56-7-32.56-15.55 0-7.57 11.32-13.87 26.3-15.26h.33v12.61h12.35v-12.58h.21c14.82 1.46 26 7.72 26 15.23 0 8.59-14.58 15.55-32.56 15.55h-.07zm-3.93-34.08a4.14 4.14 0 014.23-4 4.14 4.14 0 014.25 4v13h-8.5V7.982l.02-.02zm28.18 5.84a51.5 51.5 0 00-17.56-4.63v-1.56a6.22 6.22 0 00-6.35-5.87 6.31 6.31 0 00-4.6 1.83 6.06 6.06 0 00-1.81 4v1.54a51.66 51.66 0 00-18 4.67c-6.75 3.33-10.48 7.85-10.48 12.75s3.72 9.42 10.48 12.75c6.48 3.2 15.06 5 24.18 5s17.7-1.76 24.18-5c6.75-3.33 10.47-7.85 10.47-12.75s-3.72-9.42-10.47-12.75"/>
	<path fill="#fff" d="M45.26 16.982a1.75 1.75 0 111.81-1.75 1.78 1.78 0 01-1.81 1.75zm0-3.85a2.11 2.11 0 102.17 2.1 2.15 2.15 0 00-2.17-2.1z"/>
	<path fill="#fff" d="M45.37 14.982h-.44v-.55h.41c.18 0 .38 0 .38.25s-.13.3-.35.3zm.88-.3c0-.52-.33-.7-.91-.71h-1v2.34h.51v-1h.23l.21.36.34.62h.63l-.61-1a.562.562 0 00.58-.61"/>
	<path fill="#A70230" d="M218.601 33.852l1.18 2.92 1.17-2.92h2.61l-2.73 5.77c-.63 1.32-1.25 1.82-2.18 1.82a3.343 3.343 0 01-1.14-.23v-1.68c.157.071.328.105.5.1a.591.591 0 00.58-.41l-2.72-5.37h2.73zM232.464 36.872a1.236 1.236 0 00-.827-1.145 1.225 1.225 0 00-.493-.065c-.85 0-1.37.73-1.37 2.16 0 1 .23 2 1.46 2a1.237 1.237 0 001.148-.772c.062-.152.093-.314.092-.478h2.33a3.31 3.31 0 01-3.53 3.06 3.892 3.892 0 11-.24-7.78c2.26 0 3.52 1.12 3.72 3h-2.3l.01.02zM195.26 39.562h1.06c.6 0 1-.12 1-.68s-.56-.69-1.33-.69h-.73v1.37zm0-2.71h1a.702.702 0 00.83-.65c0-.58-.47-.59-1-.59h-.83v1.24zm-2.42-3h3.53c1.66 0 3 .39 3 1.86a1.995 1.995 0 01-1 1.61 1.658 1.658 0 011.23 1.7c0 1.65-1.26 2.23-3.18 2.23h-3.6v-7.39l.02-.01zM134.431 35.582v.8a6.28 6.28 0 01-.61 3.14h2.05v-3.94h-1.45.01zm3.87-1.73v5.67h.65v3.43h-2.32v-1.71h-3.45v1.71h-2.32v-3.43h.58a7.892 7.892 0 00.67-3.77v-1.9h6.19zM121.842 36.712h.2c.76 0 1.19-.15 1.19-.75a.859.859 0 00-.666-.679.85.85 0 00-.334-.001 1.002 1.002 0 00-1.06.73h-2c.13-1.72 1.62-2.45 3.2-2.45 1.86 0 3.16.89 3.16 2.13a1.836 1.836 0 01-1.08 1.65 1.692 1.692 0 011.27 1.75c0 1.4-1.17 2.26-3.39 2.26s-3.32-.84-3.48-2.78h2a1.136 1.136 0 00.854 1.04c.155.04.317.047.476.02.82 0 1.23-.34 1.23-.78 0-.67-.63-.78-1.39-.78h-.2v-1.35l.02-.01zM99.702 37.122h1a.816.816 0 00.939-.485.816.816 0 00.061-.375c0-.69-.78-.78-1.29-.78h-.69v1.64h-.02zm0 4h-2.44v-7.39h3.56c2.13 0 3.15 1 3.15 2.5s-.94 2.6-3.07 2.6h-1.22v2.3l.02-.01z"/>
</symbol>
<symbol id="delivery-company" viewBox="0 0 29 20">
	<path fill-rule="evenodd" d="M4.5 0a1 1 0 000 2H18v5a2 2 0 002 2h5.52L27 10.85V15h-2.145a3.502 3.502 0 00-6.71 0h-4.29a3.502 3.502 0 00-6.71 0H4a1 1 0 100 2h3.145a3.502 3.502 0 006.71 0h4.29a3.502 3.502 0 006.71 0H27a2 2 0 002-2v-4.15a2 2 0 00-.438-1.249l-1.726-2.157-2.674-4.902A2 2 0 0022.406 1.5h-2.469A2 2 0 0018 0H4.5zM20 16a1.5 1.5 0 103 0 1.5 1.5 0 00-3 0zM9 16a1.5 1.5 0 103 0 1.5 1.5 0 00-3 0zm11-9V3.5h2.406l1.91 3.5H20zM0 5.5a1 1 0 011-1h8a1 1 0 110 2H1a1 1 0 01-1-1zm1 3a1 1 0 100 2h8a1 1 0 100-2H1z" clip-rule="evenodd"/>
</symbol>
<symbol id="delivery-self" viewBox="0 0 19 19">
	<path fill-rule="evenodd" d="M4 0a1 1 0 00-.894.553l-3 6A.996.996 0 000 7.02V17a2 2 0 002 2h15a2 2 0 002-2V7.019a.995.995 0 00-.105-.466l-3-6A1 1 0 0015 0H4zm12.382 6l-2-4H10.5v4h5.882zM8.5 6V2H4.618l-2 4H8.5zm-1.36 7.268l1.36-1.133V15a1 1 0 102 0v-2.865l1.36 1.133a1 1 0 101.28-1.536l-3-2.5a1 1 0 00-1.28 0l-3 2.5a1 1 0 101.28 1.536zM2 8h15v9H2V8z" clip-rule="evenodd"/>
</symbol>
<symbol id="cart" viewBox="0 0 21 22">
	<path fill-rule="evenodd" d="M6.216 1.64A1.4 1.4 0 004.862.613h-3.46C.628.612 0 1.234 0 2.002 0 2.767.628 3.39 1.402 3.39h2.385l2.548 9.392c.46 1.693 1.957 2.83 3.728 2.83h5.445c1.756 0 3.24-1.091 3.694-2.716l1.692-6.068c.227-.813.086-1.621-.398-2.277a2.614 2.614 0 00-2.124-1.068H6.716l-.5-1.842zm11.927 4.621L16.5 12.157c-.115.411-.504.678-.991.678h-5.445a1.03 1.03 0 01-1.02-.774l-1.573-5.8h10.673zM9 17.612c-1.102 0-2 .899-2 2 0 1.102.898 2 2 2 1.102 0 2-.898 2-2 0-1.101-.898-2-2-2zM16 17.612c-1.102 0-2 .899-2 2 0 1.102.898 2 2 2 1.102 0 2-.898 2-2 0-1.101-.898-2-2-2z" clip-rule="evenodd"/>
</symbol>
<symbol id="menu" viewBox="0 0 17 14">
	<path fill-rule="evenodd" d="M.05 1.086C.05.486.538 0 1.138 0h13.828a1.086 1.086 0 010 2.172H1.137c-.6 0-1.086-.487-1.086-1.086zm0 5.428c0-.6.487-1.086 1.087-1.086h13.828a1.086 1.086 0 110 2.172H1.137C.537 7.6.05 7.114.05 6.514zm1.087 4.343a1.086 1.086 0 000 2.171h13.828a1.086 1.086 0 000-2.171H1.137z" clip-rule="evenodd"/>
</symbol>
<symbol id="search" viewBox="0 0 15 15">
	<path fill-rule="evenodd" d="M6.5 1.75a4.75 4.75 0 100 9.5 4.75 4.75 0 000-9.5zM.25 6.5a6.25 6.25 0 1112.5 0 6.25 6.25 0 01-12.5 0z" clip-rule="evenodd"/>
	<path fill-rule="evenodd" d="M10.47 10.47a.75.75 0 011.06 0l3 3a.75.75 0 11-1.06 1.06l-3-3a.75.75 0 010-1.06z" clip-rule="evenodd"/>
</symbol>
<symbol id="button-arrow" viewBox="0 0 19 10">
	<path fill-rule="evenodd" d="M12.232.302a1 1 0 011.414-.018l4.103 4a1 1 0 010 1.432l-4.103 4a1 1 0 11-1.396-1.432L14.593 6H1.05a1 1 0 110-2h13.542L12.25 1.716a1 1 0 01-.018-1.414z" clip-rule="evenodd"/>
</symbol>
<symbol id="slider-arrow-left" viewBox="0 0 48 16">
	<path fill="#000" fill-rule="evenodd" d="M47.05 8.031a1 1 0 01-1 1h-45a1 1 0 010-2h45a1 1 0 011 1z" clip-rule="evenodd"/>
	<path fill="#000" fill-rule="evenodd" d="M8.758 15.707a1 1 0 01-1.414 0l-7-7a1 1 0 010-1.414l7-7a1 1 0 111.414 1.414L2.465 8l6.293 6.293a1 1 0 010 1.414z" clip-rule="evenodd"/>
</symbol>
<symbol id="slider-arrow-right" viewBox="0 0 48 16">
	<path fill="#000" fill-rule="evenodd" d="M.05 7.969a1 1 0 011-1h45a1 1 0 110 2h-45a1 1 0 01-1-1z" clip-rule="evenodd"/>
	<path fill="#000" fill-rule="evenodd" d="M38.344.293a1 1 0 011.414 0l7 7a1 1 0 010 1.414l-7 7a1 1 0 01-1.414-1.414L44.637 8l-6.293-6.293a1 1 0 010-1.414z" clip-rule="evenodd"/>
</symbol>
<symbol id="timer" viewBox="0 0 11 12">
	<path fill-rule="evenodd" d="M5.076 9.076a3.076 3.076 0 100-6.152 3.076 3.076 0 000 6.152zm0 2a5.076 5.076 0 100-10.152 5.076 5.076 0 000 10.152z" clip-rule="evenodd"/>
	<path fill-rule="evenodd" d="M4.878 3.937a.5.5 0 01.5.5v1.489l.961.973a.5.5 0 11-.711.703l-1.106-1.12a.5.5 0 01-.144-.35V4.436a.5.5 0 01.5-.5z" clip-rule="evenodd"/>
</symbol>
<symbol id="star" viewBox="0 0 12 10">
	<path fill-rule="evenodd" d="M11.124 3.777c-.084-.243-.332-.41-.681-.46l-2.847-.392L6.323.473c-.156-.3-.4-.473-.67-.473s-.514.173-.67.473L3.71 2.925l-2.847.393c-.35.048-.598.216-.681.46-.083.243.014.517.267.75l2.06 1.909-.487 2.695c-.062.344.044.55.144.663a.63.63 0 00.481.205c.145 0 .3-.04.46-.12l2.546-1.272L8.199 9.88c.16.08.314.12.46.12a.63.63 0 00.48-.205c.1-.112.207-.319.144-.663l-.486-2.695 2.06-1.908c.253-.234.35-.508.267-.752zM4.042 7.512l1.61-.805 1.612.805-.305-1.69 1.193-1.104-1.66-.23-.84-1.616-.839 1.616-1.659.23 1.193 1.105-.305 1.69z" clip-rule="evenodd"/>
</symbol>
<symbol id="product_add_to_cart" viewBox="0 0 20 14">
	<path fill-rule="evenodd" d="M9.677.25c.392 0 .736.281.838.686l.31 1.228h7.214c.526 0 1.005.26 1.315.712.3.437.388.976.247 1.518l-1.048 4.045c-.28 1.083-1.2 1.811-2.286 1.811h-3.371c-1.096 0-2.023-.758-2.308-1.887L9.011 2.102H7.535c-.48 0-.869-.415-.869-.926 0-.511.39-.926.869-.926h2.142zm7.203 7.696l1.018-3.93h-6.607l.974 3.866c.079.314.326.516.63.516h3.372c.301 0 .542-.177.613-.452zM10.667 12.5c0-.688.561-1.25 1.25-1.25.688 0 1.25.562 1.25 1.25s-.562 1.25-1.25 1.25c-.689 0-1.25-.562-1.25-1.25zm6.25-1.25c-.689 0-1.25.562-1.25 1.25s.561 1.25 1.25 1.25c.688 0 1.25-.562 1.25-1.25s-.562-1.25-1.25-1.25zm-11.25-6a1 1 0 10-2 0v2h-2a1 1 0 000 2h2v2a1 1 0 102 0v-2h2a1 1 0 100-2h-2v-2z" clip-rule="evenodd"/>
</symbol>
<symbol id="product_in_cart" viewBox="0 0 19 19">
	<path fill-rule="evenodd" d="M13.874 6.793a1 1 0 010 1.414l-4 4a1 1 0 01-1.415 0l-2.5-2.5a1 1 0 111.415-1.414l1.792 1.793 3.293-3.293a1 1 0 011.415 0z" clip-rule="evenodd"/>
	<path fill-rule="evenodd" d="M9.666 16.8a7.3 7.3 0 100-14.6 7.3 7.3 0 000 14.6zm0 1.7a9 9 0 100-18 9 9 0 000 18z" clip-rule="evenodd"/>
</symbol>
</svg>