<?xml version="1.0" encoding="UTF-8"?>
<!DOCTYPE svg PUBLIC "-//W3C//DTD SVG 1.1//EN" "http://www.w3.org/Graphics/SVG/1.1/DTD/svg11.dtd">
<svg xmlns="http://www.w3.org/2000/svg" xmlns:xlink="http://www.w3.org/1999/xlink">
<symbol id="geotag" viewBox="0 0 15 17">
	<path d="M4.252 3.48a5.051 5.051 0 018.623 3.572c0 1.952-1.278 3.893-2.752 5.448a19.452 19.452 0 01-2.3 2.058 19.447 19.447 0 01-2.3-2.058c-1.472-1.555-2.75-3.496-2.75-5.448 0-1.34.532-2.624 1.479-3.572zm3.017 13.145l.555-.832-.555.832a1 1 0 001.11 0l-.555-.832.555.832.002-.002.005-.003.017-.012a7.464 7.464 0 00.266-.187 21.471 21.471 0 002.906-2.546c1.553-1.639 3.3-4.068 3.3-6.823a7.051 7.051 0 10-14.103 0c0 2.755 1.748 5.184 3.3 6.823a21.466 21.466 0 003.114 2.694l.059.04.016.01.005.004.002.001zm-.462-9.573a1.017 1.017 0 112.034 0 1.017 1.017 0 01-2.034 0zm1.017-3.017a3.017 3.017 0 100 6.034 3.017 3.017 0 000-6.034z"/>
</symbol>
<symbol id="phone" viewBox="0 0 13 18">
	<path fill="#fff" d="M12.607 14.226l-.65 2.004c-.06.186-.161.36-.298.51-.137.149-.306.271-.496.358a1.656 1.656 0 01-1.231.057c-2.175-.804-4.105-2.065-5.636-3.68a13.018 13.018 0 01-3.08-5.143 12.546 12.546 0 01-.363-6.374c.041-.19.126-.37.248-.528.121-.16.278-.294.459-.396A1.661 1.661 0 012.778.877l2.19.567c.356.088.663.292.863.573.2.28.28.62.225.954a8.152 8.152 0 00-.098 2.01c.021.264-.042.53-.181.765-.14.234-.35.429-.605.56l-1.202.609c.497 1.941 1.56 3.718 3.08 5.142l1.203-.609a1.66 1.66 0 01.838-.17c.29.017.568.11.8.268a9.88 9.88 0 001.9.998c.34.138.611.385.761.695.15.31.17.661.055.986z"/>
	<path fill="#fff" d="M12.607 14.226l-.65 2.004c-.06.186-.161.36-.298.51-.137.149-.306.271-.496.358a1.656 1.656 0 01-1.231.057c-2.175-.804-4.105-2.065-5.636-3.68a13.018 13.018 0 01-3.08-5.143 12.546 12.546 0 01-.363-6.374c.041-.19.126-.37.248-.528.121-.16.278-.294.459-.396A1.661 1.661 0 012.778.877l2.19.567c.356.088.663.292.863.573.2.28.28.62.225.954a8.152 8.152 0 00-.098 2.01c.021.264-.042.53-.181.765-.14.234-.35.429-.605.56l-1.202.609c.497 1.941 1.56 3.718 3.08 5.142l1.203-.609a1.66 1.66 0 01.838-.17c.29.017.568.11.8.268a9.88 9.88 0 001.9.998c.34.138.611.385.761.695.15.31.17.661.055.986z"/>
	<path stroke="#A70230" stroke-linecap="round" stroke-linejoin="round" stroke-width="2" d="M12.607 14.226l-.65 2.004c-.06.186-.161.36-.298.51-.137.149-.306.271-.496.358a1.656 1.656 0 01-1.231.057c-2.175-.804-4.105-2.065-5.636-3.68a13.018 13.018 0 01-3.08-5.143 12.546 12.546 0 01-.363-6.374c.041-.19.126-.37.248-.528.121-.16.278-.294.459-.396A1.661 1.661 0 012.778.877l2.19.567c.356.088.663.292.863.573.2.28.28.62.225.954a8.152 8.152 0 00-.098 2.01c.021.264-.042.53-.181.765-.14.234-.35.429-.605.56l-1.202.609c.497 1.941 1.56 3.718 3.08 5.142l1.203-.609a1.66 1.66 0 01.838-.17c.29.017.568.11.8.268a9.88 9.88 0 001.9.998c.34.138.611.385.761.695.15.31.17.661.055.986z"/>
</symbol>
<symbol id="logo" viewBox="0 0 249 46">
	<path fill="#A70230" d="M90.851 33.852v7.4h-2.42v-5.67h-2.29v5.67h-2.43v-7.4h7.14zM111.951 38.732l-.78-2.65-.75 2.65h1.53zm.47-4.88l2.65 7.39h-2.41l-.29-1h-2.41l-.28 1h-2.37l2.65-7.39h2.46zM147.141 36.432h2.29v-2.58h2.42v7.4h-2.42v-3.09h-2.29v3.09h-2.43v-7.4h2.43v2.58zM164.63 33.852v7.4h-2.32v-2.35l.12-1.89-2.67 4.24h-2.27v-7.4h2.32v2.36l-.12 1.89 2.67-4.25h2.27zM172.69 36.252l2.13-2.4h2.84l-2.7 2.79 2.99 4.61h-2.901l-1.779-2.95-.58.61v2.34h-2.42v-7.4h2.42v2.4zM207.201 36.252l2.13-2.4h2.84l-2.7 2.79 2.99 4.61h-2.91l-1.78-2.95-.57.61v2.34h-2.42v-7.4h2.42v2.4zM243.39 38.732l-.78-2.65-.75 2.65h1.53zm.47-4.88l2.65 7.39h-2.41l-.29-1h-2.41l-.28 1h-2.37l2.65-7.39h2.46z"/>
	<path fill="#fff" d="M24.13 34.222h.62v1.79h.53v-1.79h.63v-.48h-1.78v.48zM30.24 36.012h.53v-1.79h.89v-.48h-1.42v2.27z"/>
	<path fill="#A70230" d="M140.261 8.182l-7 19.33h6.2l.8-2.53h6.31l.75 2.55h6.31l-6.93-19.33h-6.44v-.02zm1.18 12.8l2-6.92 2 6.92h-4zm-50.25-5.13l-3.09-7.63h-7.15l7.12 14a1.55 1.55 0 01-1.5 1.08 2.999 2.999 0 01-1.31-.32v4.4a8.748 8.748 0 003 .59c2.42 0 4.06-1.29 5.69-4.75l7.14-15.09h-6.83l-3.07 7.72zm21 11.71h6.34v-14.87h6v14.82h6.34V8.182h-18.67v19.33l-.01.05zm107-12.46a9.994 9.994 0 01-2.87.35c-1.53 0-2.41-.7-2.41-2.23v-5h-6.34v6c0 4.19 3.49 6 6.34 6a18.737 18.737 0 005.29-.43v7.82h6.34V8.182h-6.28v6.87l-.07.05zm-21.23 12.46h6.34V8.182h-6.34v19.38zm43.38-19.33h-6.44l-6.93 19.33h6.2l.73-2.55h6.36l.75 2.55h6.25l-6.92-19.33zm-5.2 12.75l2-6.92 2 6.92h-4zm-77.71-2.79c0 4.53-.72 5-2 5a4.001 4.001 0 01-1.45-.19v4.51a13.26 13.26 0 003.43.41c3.63 0 6.07-1.93 6.07-9.72v-5.5h4.54v14.82h6.33V8.182h-16.92v10.01zm29.83-3.27h-3v-6.74h-6.33v19.33h9.26c5 0 8.06-2 8.06-6.17s-3.09-6.42-8-6.42h.01zm-.67 8.06h-2.33v-3.57h1.58c2 0 3.49.1 3.49 1.8 0 1.45-1.18 1.77-2.74 1.77zM35.84 45.392c-9.28 0-18.05-1.8-24.68-5.07C4 36.792.05 31.902.05 26.552s3.94-10.23 11.11-13.76a52.06 52.06 0 0117.4-4.68v-.51a7.15 7.15 0 012.14-4.82 7.59 7.59 0 0112.88 4.83v.54a51.801 51.801 0 0116.93 4.63c7.16 3.53 11.1 8.41 11.1 13.76s-3.94 10.23-11.1 13.77c-6.63 3.27-15.39 5.07-24.68 5.07"/>
	<path fill="#A70230" d="M60.01 13.812a51.5 51.5 0 00-17.56-4.63v-1.56a6.22 6.22 0 00-6.349-5.87 6.31 6.31 0 00-4.6 1.83 6.06 6.06 0 00-1.81 4v1.54a51.66 51.66 0 00-18 4.67c-6.75 3.33-10.48 7.85-10.48 12.75s3.72 9.42 10.48 12.75c6.48 3.2 15.06 5 24.18 5s17.7-1.76 24.18-5c6.75-3.33 10.47-7.85 10.47-12.75s-3.72-9.42-10.47-12.75"/>
	<path fill="#fff" d="M48.631 16.982c1.26-.26 1.42 1.39.39 1.91a6 6 0 00-1.67 1c-.47.52-1.7 3.06-.06 3.07 1.89 0 3-2 3.22-2.46.68-1.69.9-2.11 1.76-1.69.54.26-.21 1.66-.36 2.12a24.34 24.34 0 00-1.17 11.85c.11 1-.13 1.69-.92 1.79-.79.1-1.41-.14-1.66-1.57-.75-4.28 1.58-10.18 1.58-10.18s-2.49 3.37-4.33 1.74c-1.31-1.22.19-4 .24-4.23-.45.35-1 .4-1.1.07-.34-.91 1.61-.87 1.94-1.41.7-1.29 1.3-1.88 2.15-2.06M13.26 23.152c.19-1.11 3.05-7.83 13.27-9.54.78-.18 1.59-.18 2.37 0 .7.21.5.86 0 .9-.5.04-10.21 1.1-12.73 9.05-.87 2-3.21 1.37-2.89-.46M27.64 34.382c-1 .7-2.84-2.76-2.14-12.62.11-1.57 2.46-1.68 2.27.38-1.07 11.52.45 11.8-.12 12.24"/>
	<path fill="#fff" d="M14.86 35.932c1.42-2.22 2.45-2.89 3-5.38a3 3 0 01-2 1.6 2.46 2.46 0 01-2.1-1.41 7.6 7.6 0 01-.65-4.08c0-1.78 2.86-1.46 2.79-.25-.2 2.51.33 3.2.83 3.39.5.19 1.55-.53 1.78-1.79.16-.75.28-1.14.28-1.14a.683.683 0 111.36.11c-.34 4.21-1.15 7.46-3.17 10.61-.53.83-3.07-.42-2.16-1.65M24.93 18.762c-.05.47-1.9 18.66-2 19.16-.17 1.44-3.12 1.77-2.8-1.2.15-1.3 2.41-17.94 2.45-18.21.26-1.82 2.53-1.66 2.3.25M32.56 29.762a1.899 1.899 0 01-1.47 1.1c-1.07 0-.8-1.54-.35-2.21a1.71 1.71 0 011.45-1c.94.2-.57 1.17 0 1.46l.3.14s.38.13.07.53v-.02zm11-2.75c.31.17-.53 1.21-.61 1.32 0-.12.32-1.48.61-1.32zm4.17 6.33c-.75-1.69-1.15-2.54-.72-4.42.11-.37.08-1.07-.64-1-.72.07-.63 1-1.17.86-1.71-.4-1.5.57-1.4.81.43.95.18 1.61-.43 1.61s-1.27-1.08-.15-2.15c-.07.07 2.81-2.61 1.34-3.44-1.11-.57-2.12 1.05-2.51 2-1.21 3-1.62 3.57-2 3.65-.38.08.05-1.84.37-2.68.44-1.11.66-2.44-.08-2.44-1.6 0-3.18 3.15-3.83 4.14-1 1.46-.87.09-1.55.13-.86.08-.75 1.05-1.16 1-.64 0 .56-2.55.73-3.13a.87.87 0 00.07-.84c-.46-.49-.84.17-.93.26 0-1.66-1.06-1.71-2.12-1.25a5.77 5.77 0 00-3.27 4.71c-.21 1.9 1.82 4 3.74.88 0 0-.18 1.58.93 1.59.77 0 1.55-1.65 1.55-1.65s0 1.65 1 1.65c.82 0 1.6-2.2 2-3.14.32-.688.68-1.356 1.08-2 .24-.35.37-.19.26 0-1.49 3.51-.75 5.14 0 5.14s1.37-.43 2.23-1.9a2 2 0 002 1.9c1.22 0 2.09-2.13 1.73-3.56-.17-.72.56-.64.57-.23a3.86 3.86 0 001.6 3.63c.2.15 1 .41.69-.2M55.01 29.532c-.43.37.18.66.18.66.16.13-.09.49-.65.65a1 1 0 01-1.28-1.38c.29-1.14 1.58-2.06 2.29-1.77.71.29.11 1.18-.55 1.83l.01.01zm2.47 5.24a8.15 8.15 0 01-.59-4.57c.06-.7-.74-.5-.74-.5a3.42 3.42 0 00.49-2.23c-.09-.71-.92-1.14-2.12-.79-2.2.65-3.16 3-3.32 4.72-.16 1.72 1.46 3.85 4.08.55a5.27 5.27 0 001.7 3.09c.19.15.83.27.5-.27zM40.05 9.692c-1.27 5.53-2.87 7.41-3.22 7.78-.35.37-.94.33-1.18-.48-.07-.24-.93-3.08-3.33-2.34 0 0-.22.08-.26-.1a.4.4 0 01.27-.32c2-1.08 3.7.91 3.73.94.54.57 1.28-.21 1.5-1.09.18-.71.13-1.86-1.5-1.2-.24.08-2.2.72-1.55-1.1.16-.52.52-1.32.74-1.94.45-1.26.22-3.37-1.58-2.26-.529.422-.988.925-1.36 1.49-.12.17-.32.09-.22-.16a5.31 5.31 0 012.05-2.53c1.07-.55 3.17.15 2 3-.43 1.1-.31 2.28.59 2.28a3.55 3.55 0 002.95-2.14c.12-.27.41-.18.33.18"/>
	<path fill="#fff" d="M35.841 42.042c-18 0-32.56-7-32.56-15.55 0-7.57 11.32-13.87 26.3-15.26h.33v12.61h12.35v-12.58h.21c14.82 1.46 26 7.72 26 15.23 0 8.59-14.58 15.55-32.56 15.55h-.07zm-3.93-34.08a4.14 4.14 0 014.23-4 4.14 4.14 0 014.25 4v13h-8.5V7.982l.02-.02zm28.18 5.84a51.5 51.5 0 00-17.56-4.63v-1.56a6.22 6.22 0 00-6.35-5.87 6.31 6.31 0 00-4.6 1.83 6.06 6.06 0 00-1.81 4v1.54a51.66 51.66 0 00-18 4.67c-6.75 3.33-10.48 7.85-10.48 12.75s3.72 9.42 10.48 12.75c6.48 3.2 15.06 5 24.18 5s17.7-1.76 24.18-5c6.75-3.33 10.47-7.85 10.47-12.75s-3.72-9.42-10.47-12.75"/>
	<path fill="#fff" d="M45.26 16.982a1.75 1.75 0 111.81-1.75 1.78 1.78 0 01-1.81 1.75zm0-3.85a2.11 2.11 0 102.17 2.1 2.15 2.15 0 00-2.17-2.1z"/>
	<path fill="#fff" d="M45.37 14.982h-.44v-.55h.41c.18 0 .38 0 .38.25s-.13.3-.35.3zm.88-.3c0-.52-.33-.7-.91-.71h-1v2.34h.51v-1h.23l.21.36.34.62h.63l-.61-1a.562.562 0 00.58-.61"/>
	<path fill="#A70230" d="M218.601 33.852l1.18 2.92 1.17-2.92h2.61l-2.73 5.77c-.63 1.32-1.25 1.82-2.18 1.82a3.343 3.343 0 01-1.14-.23v-1.68c.157.071.328.105.5.1a.591.591 0 00.58-.41l-2.72-5.37h2.73zM232.464 36.872a1.236 1.236 0 00-.827-1.145 1.225 1.225 0 00-.493-.065c-.85 0-1.37.73-1.37 2.16 0 1 .23 2 1.46 2a1.237 1.237 0 001.148-.772c.062-.152.093-.314.092-.478h2.33a3.31 3.31 0 01-3.53 3.06 3.892 3.892 0 11-.24-7.78c2.26 0 3.52 1.12 3.72 3h-2.3l.01.02zM195.26 39.562h1.06c.6 0 1-.12 1-.68s-.56-.69-1.33-.69h-.73v1.37zm0-2.71h1a.702.702 0 00.83-.65c0-.58-.47-.59-1-.59h-.83v1.24zm-2.42-3h3.53c1.66 0 3 .39 3 1.86a1.995 1.995 0 01-1 1.61 1.658 1.658 0 011.23 1.7c0 1.65-1.26 2.23-3.18 2.23h-3.6v-7.39l.02-.01zM134.431 35.582v.8a6.28 6.28 0 01-.61 3.14h2.05v-3.94h-1.45.01zm3.87-1.73v5.67h.65v3.43h-2.32v-1.71h-3.45v1.71h-2.32v-3.43h.58a7.892 7.892 0 00.67-3.77v-1.9h6.19zM121.842 36.712h.2c.76 0 1.19-.15 1.19-.75a.859.859 0 00-.666-.679.85.85 0 00-.334-.001 1.002 1.002 0 00-1.06.73h-2c.13-1.72 1.62-2.45 3.2-2.45 1.86 0 3.16.89 3.16 2.13a1.836 1.836 0 01-1.08 1.65 1.692 1.692 0 011.27 1.75c0 1.4-1.17 2.26-3.39 2.26s-3.32-.84-3.48-2.78h2a1.136 1.136 0 00.854 1.04c.155.04.317.047.476.02.82 0 1.23-.34 1.23-.78 0-.67-.63-.78-1.39-.78h-.2v-1.35l.02-.01zM99.702 37.122h1a.816.816 0 00.939-.485.816.816 0 00.061-.375c0-.69-.78-.78-1.29-.78h-.69v1.64h-.02zm0 4h-2.44v-7.39h3.56c2.13 0 3.15 1 3.15 2.5s-.94 2.6-3.07 2.6h-1.22v2.3l.02-.01z"/>
</symbol>
<symbol id="delivery-company" viewBox="0 0 29 20">
	<path fill-rule="evenodd" d="M4.5 0a1 1 0 000 2H18v5a2 2 0 002 2h5.52L27 10.85V15h-2.145a3.502 3.502 0 00-6.71 0h-4.29a3.502 3.502 0 00-6.71 0H4a1 1 0 100 2h3.145a3.502 3.502 0 006.71 0h4.29a3.502 3.502 0 006.71 0H27a2 2 0 002-2v-4.15a2 2 0 00-.438-1.249l-1.726-2.157-2.674-4.902A2 2 0 0022.406 1.5h-2.469A2 2 0 0018 0H4.5zM20 16a1.5 1.5 0 103 0 1.5 1.5 0 00-3 0zM9 16a1.5 1.5 0 103 0 1.5 1.5 0 00-3 0zm11-9V3.5h2.406l1.91 3.5H20zM0 5.5a1 1 0 011-1h8a1 1 0 110 2H1a1 1 0 01-1-1zm1 3a1 1 0 100 2h8a1 1 0 100-2H1z" clip-rule="evenodd"/>
</symbol>
<symbol id="delivery-self" viewBox="0 0 19 19">
	<path fill-rule="evenodd" d="M4 0a1 1 0 00-.894.553l-3 6A.996.996 0 000 7.02V17a2 2 0 002 2h15a2 2 0 002-2V7.019a.995.995 0 00-.105-.466l-3-6A1 1 0 0015 0H4zm12.382 6l-2-4H10.5v4h5.882zM8.5 6V2H4.618l-2 4H8.5zm-1.36 7.268l1.36-1.133V15a1 1 0 102 0v-2.865l1.36 1.133a1 1 0 101.28-1.536l-3-2.5a1 1 0 00-1.28 0l-3 2.5a1 1 0 101.28 1.536zM2 8h15v9H2V8z" clip-rule="evenodd"/>
</symbol>
<symbol id="cart" viewBox="0 0 21 22">
	<path fill-rule="evenodd" d="M6.216 1.64A1.4 1.4 0 004.862.613h-3.46C.628.612 0 1.234 0 2.002 0 2.767.628 3.39 1.402 3.39h2.385l2.548 9.392c.46 1.693 1.957 2.83 3.728 2.83h5.445c1.756 0 3.24-1.091 3.694-2.716l1.692-6.068c.227-.813.086-1.621-.398-2.277a2.614 2.614 0 00-2.124-1.068H6.716l-.5-1.842zm11.927 4.621L16.5 12.157c-.115.411-.504.678-.991.678h-5.445a1.03 1.03 0 01-1.02-.774l-1.573-5.8h10.673zM9 17.612c-1.102 0-2 .899-2 2 0 1.102.898 2 2 2 1.102 0 2-.898 2-2 0-1.101-.898-2-2-2zM16 17.612c-1.102 0-2 .899-2 2 0 1.102.898 2 2 2 1.102 0 2-.898 2-2 0-1.101-.898-2-2-2z" clip-rule="evenodd"/>
</symbol>
<symbol id="menu" viewBox="0 0 17 14">
	<path fill-rule="evenodd" d="M.05 1.086C.05.486.538 0 1.138 0h13.828a1.086 1.086 0 010 2.172H1.137c-.6 0-1.086-.487-1.086-1.086zm0 5.428c0-.6.487-1.086 1.087-1.086h13.828a1.086 1.086 0 110 2.172H1.137C.537 7.6.05 7.114.05 6.514zm1.087 4.343a1.086 1.086 0 000 2.171h13.828a1.086 1.086 0 000-2.171H1.137z" clip-rule="evenodd"/>
</symbol>
<symbol id="search" viewBox="0 0 15 15">
	<path fill-rule="evenodd" d="M6.5 1.75a4.75 4.75 0 100 9.5 4.75 4.75 0 000-9.5zM.25 6.5a6.25 6.25 0 1112.5 0 6.25 6.25 0 01-12.5 0z" clip-rule="evenodd"/>
	<path fill-rule="evenodd" d="M10.47 10.47a.75.75 0 011.06 0l3 3a.75.75 0 11-1.06 1.06l-3-3a.75.75 0 010-1.06z" clip-rule="evenodd"/>
</symbol>
<symbol id="button-arrow" viewBox="0 0 19 10">
	<path fill-rule="evenodd" d="M12.232.302a1 1 0 011.414-.018l4.103 4a1 1 0 010 1.432l-4.103 4a1 1 0 11-1.396-1.432L14.593 6H1.05a1 1 0 110-2h13.542L12.25 1.716a1 1 0 01-.018-1.414z" clip-rule="evenodd"/>
</symbol>
<symbol id="slider-arrow-left" viewBox="0 0 48 16">
	<path fill="#000" fill-rule="evenodd" d="M47.05 8.031a1 1 0 01-1 1h-45a1 1 0 010-2h45a1 1 0 011 1z" clip-rule="evenodd"/>
	<path fill="#000" fill-rule="evenodd" d="M8.758 15.707a1 1 0 01-1.414 0l-7-7a1 1 0 010-1.414l7-7a1 1 0 111.414 1.414L2.465 8l6.293 6.293a1 1 0 010 1.414z" clip-rule="evenodd"/>
</symbol>
<symbol id="slider-arrow-right" viewBox="0 0 48 16">
	<path fill="#000" fill-rule="evenodd" d="M.05 7.969a1 1 0 011-1h45a1 1 0 110 2h-45a1 1 0 01-1-1z" clip-rule="evenodd"/>
	<path fill="#000" fill-rule="evenodd" d="M38.344.293a1 1 0 011.414 0l7 7a1 1 0 010 1.414l-7 7a1 1 0 01-1.414-1.414L44.637 8l-6.293-6.293a1 1 0 010-1.414z" clip-rule="evenodd"/>
</symbol>
<symbol id="timer" viewBox="0 0 11 12">
	<path fill-rule="evenodd" d="M5.076 9.076a3.076 3.076 0 100-6.152 3.076 3.076 0 000 6.152zm0 2a5.076 5.076 0 100-10.152 5.076 5.076 0 000 10.152z" clip-rule="evenodd"/>
	<path fill-rule="evenodd" d="M4.878 3.937a.5.5 0 01.5.5v1.489l.961.973a.5.5 0 11-.711.703l-1.106-1.12a.5.5 0 01-.144-.35V4.436a.5.5 0 01.5-.5z" clip-rule="evenodd"/>
</symbol>
<symbol id="star" viewBox="0 0 12 10">
	<path fill-rule="evenodd" d="M11.124 3.777c-.084-.243-.332-.41-.681-.46l-2.847-.392L6.323.473c-.156-.3-.4-.473-.67-.473s-.514.173-.67.473L3.71 2.925l-2.847.393c-.35.048-.598.216-.681.46-.083.243.014.517.267.75l2.06 1.909-.487 2.695c-.062.344.044.55.144.663a.63.63 0 00.481.205c.145 0 .3-.04.46-.12l2.546-1.272L8.199 9.88c.16.08.314.12.46.12a.63.63 0 00.48-.205c.1-.112.207-.319.144-.663l-.486-2.695 2.06-1.908c.253-.234.35-.508.267-.752zM4.042 7.512l1.61-.805 1.612.805-.305-1.69 1.193-1.104-1.66-.23-.84-1.616-.839 1.616-1.659.23 1.193 1.105-.305 1.69z" clip-rule="evenodd"/>
</symbol>
<symbol id="product_add_to_cart" viewBox="0 0 20 14">
	<path fill-rule="evenodd" d="M9.677.25c.392 0 .736.281.838.686l.31 1.228h7.214c.526 0 1.005.26 1.315.712.3.437.388.976.247 1.518l-1.048 4.045c-.28 1.083-1.2 1.811-2.286 1.811h-3.371c-1.096 0-2.023-.758-2.308-1.887L9.011 2.102H7.535c-.48 0-.869-.415-.869-.926 0-.511.39-.926.869-.926h2.142zm7.203 7.696l1.018-3.93h-6.607l.974 3.866c.079.314.326.516.63.516h3.372c.301 0 .542-.177.613-.452zM10.667 12.5c0-.688.561-1.25 1.25-1.25.688 0 1.25.562 1.25 1.25s-.562 1.25-1.25 1.25c-.689 0-1.25-.562-1.25-1.25zm6.25-1.25c-.689 0-1.25.562-1.25 1.25s.561 1.25 1.25 1.25c.688 0 1.25-.562 1.25-1.25s-.562-1.25-1.25-1.25zm-11.25-6a1 1 0 10-2 0v2h-2a1 1 0 000 2h2v2a1 1 0 102 0v-2h2a1 1 0 100-2h-2v-2z" clip-rule="evenodd"/>
</symbol>
<symbol id="product_in_cart" viewBox="0 0 19 19">
	<path fill-rule="evenodd" d="M13.874 6.793a1 1 0 010 1.414l-4 4a1 1 0 01-1.415 0l-2.5-2.5a1 1 0 111.415-1.414l1.792 1.793 3.293-3.293a1 1 0 011.415 0z" clip-rule="evenodd"/>
	<path fill-rule="evenodd" d="M9.666 16.8a7.3 7.3 0 100-14.6 7.3 7.3 0 000 14.6zm0 1.7a9 9 0 100-18 9 9 0 000 18z" clip-rule="evenodd"/>
</symbol>
<symbol id="arrow-more" viewBox="0 0 20 10">
	<path fill-rule="evenodd" d="M15.3.47a.84.84 0 00-1.132 0 .717.717 0 000 1.06l2.885 2.702H.852c-.443 0-.801.336-.801.75s.358.75.8.75h16.24L14.168 8.47a.717.717 0 000 1.06.84.84 0 001.132 0l4.272-4a.737.737 0 00-.113-1.166L15.3.47z" clip-rule="evenodd"/>
</symbol>
<symbol id="logo-with-text" viewBox="0 0 245 45">
	<path fill="#fff" d="M89.427 33.358v7.272H87.05v-5.572H84.8v5.572h-2.388v-7.272h7.016zM110.16 38.153l-.767-2.603-.737 2.603h1.504zm.461-4.795l2.604 7.262h-2.368l-.285-.983h-2.368l-.275.983H105.6l2.604-7.262h2.417zM144.736 35.893h2.25v-2.535h2.378v7.272h-2.378v-3.037h-2.25v3.036h-2.388v-7.27h2.388v2.534zM161.922 33.358v7.272h-2.28v-2.31l.118-1.857-2.623 4.166h-2.231v-7.27h2.28v2.318l-.118 1.857 2.623-4.176h2.231zM169.842 35.717l2.093-2.359h2.79l-2.653 2.742 2.938 4.53h-2.849l-1.749-2.9-.57.6v2.3h-2.378v-7.272h2.378v2.359zM203.751 35.717l2.093-2.359h2.79l-2.653 2.742 2.938 4.53h-2.859l-1.749-2.9-.56.6v2.3h-2.378v-7.272h2.378v2.359zM239.312 38.153l-.766-2.603-.737 2.603h1.503zm.462-4.795l2.604 7.262h-2.368l-.285-.983h-2.368l-.275.983h-2.329l2.604-7.262h2.417zM23.87 33.722h.608v1.759H25v-1.759h.62v-.472h-1.75v.472zM29.873 35.48h.52v-1.758h.875v-.472h-1.395v2.23zM137.977 8.135l-6.878 18.993h6.092l.786-2.486h6.201l.737 2.506h6.2l-6.81-18.993h-6.328v-.02zm1.16 12.577l1.965-6.8 1.965 6.8h-3.93zm-49.375-5.04l-3.036-7.498H79.7l6.996 13.756a1.524 1.524 0 01-1.474 1.062 2.947 2.947 0 01-1.287-.315v4.324c.941.364 1.939.56 2.948.58 2.378 0 3.99-1.268 5.59-4.668L99.49 8.086h-6.712l-3.016 7.585zm20.634 11.505h6.23v-14.61h5.895v14.561h6.23V8.135h-18.345v18.993l-.01.05zm105.137-12.243a9.82 9.82 0 01-2.82.344c-1.503 0-2.368-.688-2.368-2.19V8.173h-6.229v5.896c0 4.117 3.429 5.895 6.229 5.895a18.414 18.414 0 005.198-.422v7.684h6.23V8.135h-6.171v6.75l-.069.05zm-20.86 12.243h6.229V8.135h-6.229v19.043zm42.625-18.993h-6.328l-6.81 18.993h6.092l.718-2.505h6.249l.737 2.505h6.141l-6.799-18.993zm-5.11 12.528l1.965-6.8 1.965 6.8h-3.93zm-76.357-2.741c0 4.45-.707 4.913-1.965 4.913a3.937 3.937 0 01-1.425-.187v4.431c1.101.281 2.234.416 3.37.403 3.567 0 5.965-1.896 5.965-9.55v-5.405h4.461v14.562h6.22V8.135h-16.626v9.836zm29.311-3.213h-2.948V8.135h-6.22v18.993h9.099c4.913 0 7.92-1.965 7.92-6.062 0-4.098-3.037-6.308-7.861-6.308h.01zm-.659 7.92h-2.289v-3.509h1.552c1.966 0 3.43.099 3.43 1.77 0 1.424-1.16 1.738-2.693 1.738z"/>
	<path fill="#fff" d="M35.375 44.697c-9.118 0-17.736-1.768-24.25-4.982C4.089 36.248.208 31.442.208 26.185s3.872-10.052 10.917-13.52a51.151 51.151 0 0117.097-4.599v-.5a7.026 7.026 0 012.102-4.737A7.458 7.458 0 0142.98 7.575v.53a50.898 50.898 0 0116.636 4.55c7.035 3.469 10.906 8.264 10.906 13.52 0 5.257-3.871 10.052-10.907 13.53-6.514 3.214-15.122 4.982-24.25 4.982"/>
	<path fill="#fff" d="M59.124 13.667a50.605 50.605 0 00-17.255-4.55V7.586a6.112 6.112 0 00-6.24-5.768 6.2 6.2 0 00-4.519 1.798 5.954 5.954 0 00-1.779 3.93V9.06a50.76 50.76 0 00-17.686 4.588C5.012 16.92 1.347 21.361 1.347 26.175c0 4.815 3.656 9.256 10.298 12.528 6.367 3.145 14.798 4.913 23.759 4.913s17.392-1.73 23.759-4.913c6.632-3.272 10.288-7.713 10.288-12.528 0-4.814-3.656-9.256-10.288-12.528"/>
	<path fill="#A70230" d="M47.944 16.782c1.238-.255 1.395 1.366.383 1.877a5.9 5.9 0 00-1.64.982c-.463.511-1.671 3.007-.06 3.017 1.857 0 2.948-1.965 3.164-2.417.668-1.66.884-2.073 1.73-1.66.53.255-.207 1.63-.354 2.082a23.917 23.917 0 00-1.15 11.644c.108.983-.128 1.66-.904 1.759-.776.098-1.385-.138-1.631-1.543-.737-4.205 1.553-10.003 1.553-10.003s-2.447 3.312-4.255 1.71c-1.287-1.199.187-3.93.236-4.156-.442.344-.983.393-1.081.069-.334-.895 1.582-.855 1.906-1.386.688-1.267 1.277-1.847 2.113-2.024M13.19 22.845c.187-1.091 2.997-7.694 13.039-9.374a5.179 5.179 0 012.329 0c.688.206.491.845 0 .884-.491.04-10.032 1.08-12.509 8.892-.854 1.965-3.154 1.346-2.84-.452M27.318 33.879c-.982.688-2.79-2.712-2.103-12.4.108-1.543 2.418-1.651 2.23.373-1.05 11.32.443 11.595-.117 12.027"/>
	<path fill="#A70230" d="M14.761 35.402c1.395-2.181 2.407-2.84 2.948-5.286a2.948 2.948 0 01-1.965 1.572 2.418 2.418 0 01-2.064-1.386 7.467 7.467 0 01-.639-4.009c0-1.749 2.81-1.434 2.742-.245-.197 2.466.324 3.144.816 3.33.49.187 1.523-.52 1.748-1.758.158-.737.276-1.12.276-1.12a.67.67 0 111.336.108c-.334 4.136-1.13 7.33-3.115 10.425-.52.816-3.016-.413-2.122-1.621M24.654 18.53c-.049.463-1.866 18.336-1.965 18.827-.167 1.415-3.065 1.74-2.75-1.179.146-1.277 2.367-17.627 2.407-17.893.255-1.788 2.485-1.63 2.26.246M32.151 29.34a1.868 1.868 0 01-1.444 1.08c-1.052 0-.787-1.513-.344-2.171a1.68 1.68 0 011.424-.983c.924.197-.56 1.15 0 1.435l.295.137s.374.128.069.521v-.02zm10.808-2.703c.305.168-.52 1.19-.599 1.297 0-.117.315-1.454.6-1.297zm4.098 6.22c-.737-1.66-1.13-2.495-.708-4.343.109-.363.079-1.051-.628-.982-.708.068-.62.982-1.15.845-1.68-.393-1.474.56-1.376.796.423.933.177 1.582-.422 1.582-.6 0-1.248-1.062-.148-2.113-.068.069 2.761-2.565 1.317-3.38-1.09-.56-2.083 1.032-2.466 1.965-1.19 2.948-1.592 3.508-1.965 3.587-.374.078.049-1.808.363-2.634.432-1.09.649-2.397-.079-2.397-1.572 0-3.124 3.095-3.763 4.067-.982 1.435-.855.089-1.523.128-.845.079-.737 1.032-1.14.983-.629 0 .55-2.506.718-3.076a.854.854 0 00.069-.825c-.453-.482-.826.167-.914.256 0-1.632-1.042-1.68-2.083-1.229a5.67 5.67 0 00-3.213 4.628c-.207 1.867 1.788 3.93 3.674.865 0 0-.177 1.552.914 1.562.757 0 1.523-1.621 1.523-1.621s0 1.621.983 1.621c.806 0 1.572-2.162 1.965-3.085.313-.676.668-1.332 1.061-1.965.236-.344.364-.187.256 0-1.464 3.449-.737 5.05 0 5.05s1.346-.422 2.19-1.867a1.965 1.965 0 001.966 1.867c1.199 0 2.054-2.093 1.7-3.498-.167-.707.55-.629.56-.226a3.793 3.793 0 001.572 3.567c.197.147.983.403.678-.197M54.212 29.114c-.423.363.177.648.177.648.157.128-.089.482-.639.639a.983.983 0 01-1.258-1.356c.285-1.12 1.553-2.024 2.25-1.74.698.286.109 1.16-.54 1.799l.01.01zm2.427 5.149a8.007 8.007 0 01-.58-4.491c.06-.688-.727-.491-.727-.491a3.36 3.36 0 00.482-2.191c-.089-.698-.904-1.12-2.084-.777-2.161.639-3.104 2.948-3.262 4.638-.157 1.69 1.435 3.783 4.01.54a5.178 5.178 0 001.67 3.037c.186.147.815.265.491-.265zM39.512 9.619c-1.248 5.433-2.82 7.28-3.164 7.644-.344.364-.923.324-1.16-.471-.068-.236-.913-3.027-3.271-2.3 0 0-.216.079-.256-.098a.393.393 0 01.266-.314c1.965-1.062 3.635.894 3.665.923.53.56 1.257-.206 1.474-1.07.176-.698.127-1.828-1.474-1.18-.236.079-2.162.708-1.523-1.08.157-.512.51-1.298.727-1.907.442-1.238.216-3.311-1.553-2.22a6.3 6.3 0 00-1.336 1.464c-.118.167-.314.088-.216-.158a5.218 5.218 0 012.014-2.486c1.052-.54 3.115.148 1.965 2.948-.422 1.081-.304 2.24.58 2.24a3.488 3.488 0 002.899-2.102c.118-.266.403-.177.324.177"/>
	<path fill="#A70230" d="M35.374 41.406c-17.687 0-31.993-6.878-31.993-15.28 0-7.438 11.123-13.628 25.842-14.994h.324v12.39h12.135v-12.36h.207c14.562 1.434 25.547 7.585 25.547 14.964 0 8.44-14.326 15.28-31.993 15.28h-.069zM31.512 7.919a4.068 4.068 0 014.157-3.93 4.068 4.068 0 014.176 3.93v12.774h-8.352V7.939l.02-.02zm27.69 5.738a50.604 50.604 0 00-17.255-4.55V7.576a6.112 6.112 0 00-6.239-5.768 6.2 6.2 0 00-4.52 1.798 5.954 5.954 0 00-1.778 3.93V9.05a50.76 50.76 0 00-17.687 4.589C5.091 16.91 1.426 21.35 1.426 26.166c0 4.814 3.655 9.256 10.297 12.528 6.367 3.144 14.798 4.913 23.76 4.913 8.96 0 17.39-1.73 23.758-4.913 6.633-3.272 10.288-7.714 10.288-12.528 0-4.815-3.655-9.256-10.288-12.528"/>
	<path fill="#A70230" d="M44.63 16.782a1.72 1.72 0 111.779-1.72 1.75 1.75 0 01-1.779 1.72zm0-3.783a2.073 2.073 0 102.132 2.063A2.113 2.113 0 0044.63 13z"/>
	<path fill="#A70230" d="M44.741 14.817h-.432v-.54h.403c.176 0 .373 0 .373.245 0 .246-.128.295-.344.295zm.865-.295c0-.51-.324-.688-.894-.697h-.983v2.299h.501v-.983h.226l.206.354.335.61h.619l-.6-.984a.548.548 0 00.57-.599"/>
	<path fill="#fff" d="M214.953 33.358l1.159 2.87 1.15-2.87h2.564l-2.682 5.67c-.619 1.297-1.228 1.788-2.142 1.788a3.276 3.276 0 01-1.12-.226v-1.65c.154.07.322.103.491.098a.578.578 0 00.57-.403l-2.673-5.277h2.683zM228.573 36.326a1.21 1.21 0 00-.812-1.126 1.206 1.206 0 00-.485-.063c-.835 0-1.346.717-1.346 2.122 0 .983.226 1.965 1.435 1.965a1.216 1.216 0 001.218-1.228h2.289a3.249 3.249 0 01-3.468 3.007 3.823 3.823 0 11-.236-7.645c2.221 0 3.459 1.1 3.655 2.948h-2.26l.01.02zM192.018 38.969h1.042c.589 0 .982-.118.982-.668s-.55-.678-1.306-.678h-.718v1.346zm0-2.663h.983a.689.689 0 00.815-.639c0-.57-.461-.58-.982-.58h-.816v1.22zm-2.378-2.948h3.469c1.631 0 2.948.384 2.948 1.828a1.97 1.97 0 01-.983 1.582 1.63 1.63 0 011.209 1.67c0 1.622-1.238 2.191-3.125 2.191h-3.537v-7.26l.019-.01zM132.248 35.058v.786a6.177 6.177 0 01-.599 3.086h2.014v-3.872h-1.425.01zm3.802-1.7v5.572h.639v3.37h-2.279v-1.68h-3.39v1.68h-2.28v-3.37h.57a7.756 7.756 0 00.658-3.705v-1.867h6.082zM119.876 36.168h.197c.746 0 1.169-.147 1.169-.736a.842.842 0 00-.352-.54.833.833 0 00-.631-.129.98.98 0 00-1.041.718h-1.965c.127-1.69 1.591-2.408 3.144-2.408 1.827 0 3.105.875 3.105 2.093a1.802 1.802 0 01-1.061 1.621 1.662 1.662 0 011.248 1.72c0 1.376-1.15 2.22-3.331 2.22-2.182 0-3.263-.825-3.42-2.731h1.965a1.115 1.115 0 00.421.813 1.118 1.118 0 00.886.229c.806 0 1.209-.334 1.209-.767 0-.658-.619-.766-1.366-.766h-.197v-1.327l.02-.01zM98.123 36.571h.982a.806.806 0 00.983-.845c0-.678-.766-.766-1.268-.766h-.678v1.611h-.02zm0 3.93h-2.398v-7.26h3.498c2.093 0 3.095.982 3.095 2.456s-.923 2.554-3.016 2.554h-1.199v2.26l.02-.01z"/>
</symbol>
<symbol id="percentage" viewBox="0 0 19 17">
	<path fill="#FFD400" fill-rule="evenodd" d="M4.576 6.176a2 2 0 100-4 2 2 0 000 4zm0 2a4 4 0 100-8 4 4 0 000 8zM14.576 14.175a2 2 0 100-4 2 2 0 000 4zm0 2a4 4 0 100-8 4 4 0 000 8zM17.283.468a1 1 0 010 1.415l-14 14a1 1 0 11-1.414-1.415l14-14a1 1 0 011.414 0z" clip-rule="evenodd"/>
</symbol>
<symbol id="mail" viewBox="0 0 16 14">
	<g fill="#A70230" fill-rule="evenodd" clip-rule="evenodd" opacity=".9">
		<path d="M2.814 2.143c-.135 0-.32.132-.32.375v8.25c0 .243.185.375.32.375h10.558c.136 0 .32-.132.32-.375v-8.25c0-.243-.184-.375-.32-.375H2.814zm-2.32.375c0-1.27 1.004-2.375 2.32-2.375h10.558c1.317 0 2.32 1.105 2.32 2.375v8.25c0 1.27-1.003 2.375-2.32 2.375H2.814c-1.316 0-2.32-1.106-2.32-2.375v-8.25z"/>
		<path d="M.686 1.929a1 1 0 011.397-.22l6.01 4.384 6.01-4.383a1 1 0 111.178 1.616L8.682 8.138a1 1 0 01-1.178 0L.905 3.326a1 1 0 01-.219-1.397z"/>
	</g>
</symbol>
<symbol id="tooltip-arrow-down" viewBox="0 0 9 6">
	<path fill="#000" fill-rule="evenodd" d="M.778.376a.778.778 0 011.131 0L4.544 3.12 7.178.376a.778.778 0 011.131 0 .858.858 0 010 1.178l-3.2 3.333a.778.778 0 01-1.131 0l-3.2-3.333a.858.858 0 010-1.178z" clip-rule="evenodd"/>
</symbol>
<symbol id="checkbox_ok" viewBox="0 0 10 8">
	<path fill="#000" fill-rule="evenodd" d="M.35 3.753L1.75 2.326l2.208 2.17L8.35.182 9.752 1.61 3.959 7.3.35 3.753z" clip-rule="evenodd"/>
</symbol>
<symbol id="advant-icon-1" viewBox="0 0 63 61">
	<path fill="#A70230" d="M62.784 33.682a24.845 24.845 0 00-7.14-15.069 24.65 24.65 0 00-12.128-6.659V8.835a4.18 4.18 0 003.167-4.05A4.179 4.179 0 0042.509.61h-8.84a4.179 4.179 0 00-4.173 4.174 4.181 4.181 0 003.166 4.05v3.128a24.65 24.65 0 00-12.09 6.65 24.917 24.917 0 00-2.084 2.366c-.03-.002-.061-.005-.093-.005H9.647a1.228 1.228 0 000 2.455h7.17a24.61 24.61 0 00-2.177 4.719H1.278a1.228 1.228 0 000 2.455h12.668a24.968 24.968 0 00-.61 4.719H7.908a1.228 1.228 0 000 2.455h5.468c.103 1.59.359 3.17.766 4.72H6.19a1.228 1.228 0 000 2.454h8.737a24.657 24.657 0 005.647 8.733 24.844 24.844 0 0015.084 7.143 24.858 24.858 0 0015.966-3.88 1.228 1.228 0 00-1.34-2.058c-8.784 5.72-20.55 4.483-27.974-2.941-8.712-8.712-8.712-22.887 0-31.599 8.711-8.711 22.886-8.711 31.598 0 7.415 7.416 8.659 19.17 2.957 27.95a1.228 1.228 0 102.06 1.338c3.045-4.691 4.417-10.358 3.86-15.955zM31.951 4.785c0-.948.771-1.719 1.719-1.719h8.839a1.72 1.72 0 011.719 1.719 1.72 1.72 0 01-1.719 1.719H33.67a1.72 1.72 0 01-1.719-1.719zm3.167 6.756V8.96h5.943v2.578a25.015 25.015 0 00-5.943.004z"/>
	<path fill="#A70230" d="M54.776 51.587a1.232 1.232 0 00-1.228 1.228 1.232 1.232 0 001.227 1.228c.323 0 .639-.13.868-.36.229-.228.36-.545.36-.868 0-.323-.131-.64-.36-.868a1.24 1.24 0 00-.867-.36zM38.108 17.104c-10.501 0-19.044 8.543-19.044 19.044 0 10.501 8.543 19.045 19.044 19.045 10.501 0 19.044-8.544 19.044-19.045 0-10.501-8.543-19.044-19.044-19.044zm0 35.633c-9.147 0-16.59-7.442-16.59-16.589 0-9.147 7.443-16.589 16.59-16.589s16.589 7.442 16.589 16.59c0 9.146-7.442 16.588-16.59 16.588z"/>
	<path fill="#A70230" d="M45.873 26.647l-6.08 6.08a3.792 3.792 0 00-1.685-.393c-.605 0-1.177.142-1.685.393L33.7 30.006a1.228 1.228 0 00-1.736 1.736l2.721 2.721a3.79 3.79 0 00-.393 1.685 3.819 3.819 0 003.815 3.815 3.819 3.819 0 003.815-3.815 3.79 3.79 0 00-.394-1.685l5.902-5.902.178-.178a1.228 1.228 0 10-1.736-1.736zm-7.765 10.86c-.75 0-1.36-.609-1.36-1.359s.61-1.36 1.36-1.36c.75 0 1.36.61 1.36 1.36 0 .75-.61 1.36-1.36 1.36zM51.234 34.935h-1.137a1.228 1.228 0 000 2.456h1.137a1.228 1.228 0 000-2.456zM26.12 34.906h-1.137a1.228 1.228 0 000 2.455h1.137a1.228 1.228 0 000-2.455zM38.123 25.387c.678 0 1.228-.55 1.228-1.227v-1.137a1.228 1.228 0 00-2.456 0v1.137c0 .678.55 1.227 1.228 1.227zM38.093 46.91c-.678 0-1.228.549-1.228 1.227v1.137a1.228 1.228 0 002.456 0v-1.137c0-.678-.55-1.228-1.228-1.228zM1.278 42.496c-.322 0-.64.131-.868.36-.228.228-.36.544-.36.867 0 .324.132.64.36.868.229.228.546.36.868.36.323 0 .64-.132.868-.36.229-.228.36-.545.36-.868 0-.323-.131-.64-.36-.868a1.237 1.237 0 00-.868-.36z"/>
</symbol>
<symbol id="advant-icon-2" viewBox="0 0 58 58">
	<path fill="#A70230" d="M32.496 22.16c.43 0 .859-.165 1.186-.492l1.87-1.87c2.168-.016 8.34-.433 12.36-4.454 4.84-4.841 4.46-12.8 4.442-13.137A1.677 1.677 0 0050.772.625c-.337-.019-8.297-.4-13.137 4.441-4.02 4.02-4.439 10.192-4.455 12.36l-1.87 1.87a1.677 1.677 0 001.186 2.863zm7.51-14.722c2.635-2.634 6.722-3.28 8.968-3.43-.145 2.243-.786 6.317-3.433 8.964-1.753 1.753-4.15 2.625-6.219 3.056l6.219-6.219a1.677 1.677 0 00-2.372-2.371l-6.228 6.228c.43-2.067 1.302-4.464 3.066-6.228z"/>
	<path fill="#A70230" d="M55.898 25.431H27.015l-4.532-7.85c-1.631-2.825-2.835-6.076-3.903-10.543a8.351 8.351 0 00-.892-2.233A8.356 8.356 0 0011.753.717C9.25.315 6.71 1.07 4.785 2.785c-2.43 2.167-3.37 5.702-2.341 8.796a8.517 8.517 0 002.319 3.6c3.038 2.776 5.35 5.572 7.068 8.547l.983 1.703H2.01c-.926 0-1.677.751-1.677 1.677V37.17c0 6.857 4.963 12.575 11.485 13.753l-2.252 4.504a1.677 1.677 0 001.5 2.427h35.777a1.677 1.677 0 001.5-2.427l-2.252-4.504c6.522-1.178 11.485-6.896 11.485-13.753V27.108c0-.926-.751-1.677-1.677-1.677zM7.025 12.704a5.085 5.085 0 01-1.399-2.181c-.612-1.843-.053-3.946 1.391-5.235 1.186-1.057 2.679-1.504 4.204-1.26a5.015 5.015 0 013.562 2.454c.243.42.423.87.534 1.337 1.131 4.729 2.485 8.364 4.261 11.44l3.564 6.172h-6.455l-1.951-3.38c-1.893-3.277-4.415-6.335-7.71-9.347zM13.78 54.5l1.677-3.354H42.45l1.677 3.354h-30.35zM54.22 37.17c0 5.857-4.765 10.622-10.621 10.622H14.306c-5.856 0-10.62-4.765-10.62-10.622v-1.677H54.22v1.677zm0-5.03H3.686v-3.355h50.535v3.354z"/>
</symbol>
<symbol id="advant-icon-3" viewBox="0 0 61 53">
	<path fill="#A70230" d="M45.198 6.175c-2.102-.6-4.617-.441-6.66.52l-2.006.945c-1.037-1.922-3.394-2.263-5.333-2.322v-.013a2.349 2.349 0 012.346-2.347 1.173 1.173 0 000-2.347 4.698 4.698 0 00-4.692 4.694v.018c-3.42.121-5.864 1.148-5.864 4.675 0 1.115.267 2.4.746 3.653L.687 24.185a1.18 1.18 0 00-.685 1.068v25.815c0 .648.525 1.174 1.173 1.174h57.703c.648 0 1.173-.526 1.173-1.174V25.253c0-8.733-6.22-16.61-14.853-19.078zm-5.662 2.644c1.445-.68 3.378-.855 5.018-.388 7.347 2.101 12.59 8.436 13.108 15.648H44.1a1.173 1.173 0 000 2.347h13.605v7.055a4.548 4.548 0 01-1.731-.962c-2.565-2.34-6.288-2.34-8.852 0-1.676 1.528-4.016 1.528-5.691 0-2.578-2.352-6.04-2.352-8.618 0-1.683 1.535-3.774 1.535-5.456 0-2.578-2.352-6.04-2.352-8.618 0-1.675 1.528-4.015 1.528-5.69 0-2.565-2.34-6.288-2.34-8.852 0-.501.456-1.163.802-1.85.991v-7.084h32.37a1.173 1.173 0 000-2.347H6.566l18.205-8.32c1.407 2.29 3.318 3.627 5.256 3.627 4.008 0 7.037-5.57 7.037-9.388v-.014l2.473-1.165zM2.348 35.917a6.927 6.927 0 003.429-1.664c1.675-1.529 4.015-1.529 5.69 0 2.565 2.34 6.288 2.34 8.853 0 1.683-1.536 3.773-1.536 5.456 0 2.577 2.351 6.04 2.351 8.618 0 1.683-1.536 3.773-1.536 5.456 0 2.565 2.34 6.288 2.34 8.852 0 1.676-1.529 4.016-1.529 5.691 0 .905.825 2.088 1.403 3.312 1.641v4.627a4.548 4.548 0 01-1.731-.962c-2.565-2.34-6.288-2.34-8.852 0-1.676 1.529-4.016 1.529-5.691 0-2.578-2.351-6.04-2.351-8.618 0-1.683 1.535-3.774 1.535-5.456 0-2.578-2.351-6.04-2.351-8.618 0-1.675 1.529-4.015 1.529-5.69 0-2.565-2.34-6.288-2.34-8.852 0-.501.457-1.163.803-1.85.992v-4.634zM30.026 7.651c3.361 0 4.448.418 4.653 1.786v.001c.39 2.599-2.07 7.6-4.653 7.6-2.44 0-4.691-4.348-4.691-7.04 0-1.732.709-2.347 4.691-2.347zM2.348 49.895v-6.937a6.928 6.928 0 003.429-1.665c1.675-1.528 4.015-1.528 5.69 0 2.565 2.34 6.288 2.34 8.853 0 1.683-1.535 3.773-1.535 5.456 0 2.577 2.352 6.04 2.352 8.618 0 1.683-1.535 3.773-1.535 5.456 0 2.565 2.34 6.288 2.34 8.852 0 1.676-1.528 4.016-1.528 5.691 0 .905.825 2.088 1.403 3.312 1.642v6.96H2.348z"/>
	<path fill="#A70230" d="M52.756 46.63a1.122 1.122 0 11-2.245 0 1.122 1.122 0 012.245 0zM38.164 46.63a1.122 1.122 0 11-2.245 0 1.122 1.122 0 012.245 0zM24.134 46.63a1.122 1.122 0 11-2.245 0 1.122 1.122 0 012.245 0zM9.543 46.63a1.122 1.122 0 11-2.245 0 1.122 1.122 0 012.245 0zM40.409 25.304a1.122 1.122 0 11-2.245 0 1.122 1.122 0 012.245 0z"/>
</symbol>
<symbol id="metro" viewBox="0 0 20 16">
	<path fill="#fff" fill-rule="evenodd" d="M5.785.901a1 1 0 011.035.669l3.555 10.27L13.93 1.57a1 1 0 011.934.175l2 13a1 1 0 11-1.977.304L14.5 6.037l-3.18 9.187a1 1 0 01-1.89 0L6.25 6.037l-1.386 9.012a1 1 0 01-1.977-.304l2-13A1 1 0 015.785.9z" clip-rule="evenodd"/>
	<path fill="#fff" fill-rule="evenodd" d="M.875 14.897a1 1 0 011-1h4a1 1 0 110 2h-4a1 1 0 01-1-1zM13.875 14.897a1 1 0 011-1h4a1 1 0 110 2h-4a1 1 0 01-1-1z" clip-rule="evenodd"/>
</symbol>
<symbol id="map" viewBox="0 0 19 17">
	<path fill="#fff" fill-rule="evenodd" d="M6.263 1.029a1 1 0 01.943-.026l5.103 2.551 4.42-2.525a1 1 0 011.496.868V13.06a1 1 0 01-.504.869l-4.884 2.79a1 1 0 01-.944.027L6.79 14.194 2.371 16.72a1 1 0 01-1.496-.868V4.688a1 1 0 01.504-.868l4.884-2.791zm1.496 11.413l3.582 1.791V5.306L7.759 3.515v8.927zm-2-8.822v8.86l-2.884 1.648v-8.86L5.759 3.62zm7.582 1.648v8.86l2.884-1.648V3.62L13.34 5.268z" clip-rule="evenodd"/>
</symbol>
<symbol id="clock" viewBox="0 0 16 16">
	<path fill="#A70230" d="M8 16A8 8 0 108 0a8 8 0 000 16z"/>
	<path fill="#fff" fill-rule="evenodd" d="M7 4a1 1 0 011 1v3.288l2.523 1.06a1 1 0 01-.774 1.845L6.613 9.875A1 1 0 016 8.953V5a1 1 0 011-1z" clip-rule="evenodd"/>
</symbol>
<symbol id="tel" viewBox="0 0 13 17">
	<path fill="#A70230" d="M12.107 13.726l-.65 2.004c-.06.186-.16.36-.298.51-.136.149-.306.271-.496.358a1.655 1.655 0 01-1.231.057c-2.175-.804-4.105-2.065-5.636-3.68a13.018 13.018 0 01-3.08-5.143 12.546 12.546 0 01-.363-6.374c.042-.19.126-.37.248-.528.122-.16.278-.294.46-.396A1.661 1.661 0 012.278.377l2.19.567c.355.088.662.292.862.573.2.28.28.62.226.954a8.152 8.152 0 00-.098 2.01c.02.264-.043.53-.182.765-.14.234-.349.429-.604.56l-1.203.609c.497 1.941 1.561 3.718 3.08 5.142l1.203-.609a1.66 1.66 0 01.838-.17c.29.017.568.11.8.268.59.397 1.227.732 1.9.998.34.138.611.385.762.695.15.31.17.661.054.986z"/>
	<path fill="#A70230" d="M12.107 13.726l-.65 2.004c-.06.186-.16.36-.298.51-.136.149-.306.271-.496.358a1.655 1.655 0 01-1.231.057c-2.175-.804-4.105-2.065-5.636-3.68a13.018 13.018 0 01-3.08-5.143 12.546 12.546 0 01-.363-6.374c.042-.19.126-.37.248-.528.122-.16.278-.294.46-.396A1.661 1.661 0 012.278.377l2.19.567c.355.088.662.292.862.573.2.28.28.62.226.954a8.152 8.152 0 00-.098 2.01c.02.264-.043.53-.182.765-.14.234-.349.429-.604.56l-1.203.609c.497 1.941 1.561 3.718 3.08 5.142l1.203-.609a1.66 1.66 0 01.838-.17c.29.017.568.11.8.268.59.397 1.227.732 1.9.998.34.138.611.385.762.695.15.31.17.661.054.986z"/>
</symbol>
</svg>