<?xml version="1.0" encoding="UTF-8"?>
<!DOCTYPE svg PUBLIC "-//W3C//DTD SVG 1.1//EN" "http://www.w3.org/Graphics/SVG/1.1/DTD/svg11.dtd">
<svg xmlns="http://www.w3.org/2000/svg" xmlns:xlink="http://www.w3.org/1999/xlink">
	<defs>
		<clipPath id="clip0">
			<path fill="#fff" d="M0 0h17v17H0z" transform="translate(.96 .397)"/>
		</clipPath>

		<clipPath id="clip0">
			<path fill="#fff" d="M0 0h89v89H0z" transform="translate(.5)"/>
		</clipPath>

		<clipPath id="clip0">
			<path fill="#fff" d="M0 0h89v89H0z" transform="translate(40 42)"/>
		</clipPath>
	</defs>
<symbol id="geotag" viewBox="0 0 15 17">
	<path d="M4.252 3.48a5.051 5.051 0 018.623 3.572c0 1.952-1.278 3.893-2.752 5.448a19.452 19.452 0 01-2.3 2.058 19.447 19.447 0 01-2.3-2.058c-1.472-1.555-2.75-3.496-2.75-5.448 0-1.34.532-2.624 1.479-3.572zm3.017 13.145l.555-.832-.555.832a1 1 0 001.11 0l-.555-.832.555.832.002-.002.005-.003.017-.012a7.464 7.464 0 00.266-.187 21.471 21.471 0 002.906-2.546c1.553-1.639 3.3-4.068 3.3-6.823a7.051 7.051 0 10-14.103 0c0 2.755 1.748 5.184 3.3 6.823a21.466 21.466 0 003.114 2.694l.059.04.016.01.005.004.002.001zm-.462-9.573a1.017 1.017 0 112.034 0 1.017 1.017 0 01-2.034 0zm1.017-3.017a3.017 3.017 0 100 6.034 3.017 3.017 0 000-6.034z"/>
</symbol>
<symbol id="phone" viewBox="0 0 13 18">
	<path fill="#fff" d="M12.607 14.226l-.65 2.004c-.06.186-.161.36-.298.51-.137.149-.306.271-.496.358a1.656 1.656 0 01-1.231.057c-2.175-.804-4.105-2.065-5.636-3.68a13.018 13.018 0 01-3.08-5.143 12.546 12.546 0 01-.363-6.374c.041-.19.126-.37.248-.528.121-.16.278-.294.459-.396A1.661 1.661 0 012.778.877l2.19.567c.356.088.663.292.863.573.2.28.28.62.225.954a8.152 8.152 0 00-.098 2.01c.021.264-.042.53-.181.765-.14.234-.35.429-.605.56l-1.202.609c.497 1.941 1.56 3.718 3.08 5.142l1.203-.609a1.66 1.66 0 01.838-.17c.29.017.568.11.8.268a9.88 9.88 0 001.9.998c.34.138.611.385.761.695.15.31.17.661.055.986z"/>
	<path fill="#fff" d="M12.607 14.226l-.65 2.004c-.06.186-.161.36-.298.51-.137.149-.306.271-.496.358a1.656 1.656 0 01-1.231.057c-2.175-.804-4.105-2.065-5.636-3.68a13.018 13.018 0 01-3.08-5.143 12.546 12.546 0 01-.363-6.374c.041-.19.126-.37.248-.528.121-.16.278-.294.459-.396A1.661 1.661 0 012.778.877l2.19.567c.356.088.663.292.863.573.2.28.28.62.225.954a8.152 8.152 0 00-.098 2.01c.021.264-.042.53-.181.765-.14.234-.35.429-.605.56l-1.202.609c.497 1.941 1.56 3.718 3.08 5.142l1.203-.609a1.66 1.66 0 01.838-.17c.29.017.568.11.8.268a9.88 9.88 0 001.9.998c.34.138.611.385.761.695.15.31.17.661.055.986z"/>
	<path stroke="#A70230" stroke-linecap="round" stroke-linejoin="round" stroke-width="2" d="M12.607 14.226l-.65 2.004c-.06.186-.161.36-.298.51-.137.149-.306.271-.496.358a1.656 1.656 0 01-1.231.057c-2.175-.804-4.105-2.065-5.636-3.68a13.018 13.018 0 01-3.08-5.143 12.546 12.546 0 01-.363-6.374c.041-.19.126-.37.248-.528.121-.16.278-.294.459-.396A1.661 1.661 0 012.778.877l2.19.567c.356.088.663.292.863.573.2.28.28.62.225.954a8.152 8.152 0 00-.098 2.01c.021.264-.042.53-.181.765-.14.234-.35.429-.605.56l-1.202.609c.497 1.941 1.56 3.718 3.08 5.142l1.203-.609a1.66 1.66 0 01.838-.17c.29.017.568.11.8.268a9.88 9.88 0 001.9.998c.34.138.611.385.761.695.15.31.17.661.055.986z"/>
</symbol>
<symbol id="logo" viewBox="0 0 249 46">
	<path fill="#A70230" d="M90.851 33.852v7.4h-2.42v-5.67h-2.29v5.67h-2.43v-7.4h7.14zM111.951 38.732l-.78-2.65-.75 2.65h1.53zm.47-4.88l2.65 7.39h-2.41l-.29-1h-2.41l-.28 1h-2.37l2.65-7.39h2.46zM147.141 36.432h2.29v-2.58h2.42v7.4h-2.42v-3.09h-2.29v3.09h-2.43v-7.4h2.43v2.58zM164.63 33.852v7.4h-2.32v-2.35l.12-1.89-2.67 4.24h-2.27v-7.4h2.32v2.36l-.12 1.89 2.67-4.25h2.27zM172.69 36.252l2.13-2.4h2.84l-2.7 2.79 2.99 4.61h-2.901l-1.779-2.95-.58.61v2.34h-2.42v-7.4h2.42v2.4zM207.201 36.252l2.13-2.4h2.84l-2.7 2.79 2.99 4.61h-2.91l-1.78-2.95-.57.61v2.34h-2.42v-7.4h2.42v2.4zM243.39 38.732l-.78-2.65-.75 2.65h1.53zm.47-4.88l2.65 7.39h-2.41l-.29-1h-2.41l-.28 1h-2.37l2.65-7.39h2.46z"/>
	<path fill="#fff" d="M24.13 34.222h.62v1.79h.53v-1.79h.63v-.48h-1.78v.48zM30.24 36.012h.53v-1.79h.89v-.48h-1.42v2.27z"/>
	<path fill="#A70230" d="M140.261 8.182l-7 19.33h6.2l.8-2.53h6.31l.75 2.55h6.31l-6.93-19.33h-6.44v-.02zm1.18 12.8l2-6.92 2 6.92h-4zm-50.25-5.13l-3.09-7.63h-7.15l7.12 14a1.55 1.55 0 01-1.5 1.08 2.999 2.999 0 01-1.31-.32v4.4a8.748 8.748 0 003 .59c2.42 0 4.06-1.29 5.69-4.75l7.14-15.09h-6.83l-3.07 7.72zm21 11.71h6.34v-14.87h6v14.82h6.34V8.182h-18.67v19.33l-.01.05zm107-12.46a9.994 9.994 0 01-2.87.35c-1.53 0-2.41-.7-2.41-2.23v-5h-6.34v6c0 4.19 3.49 6 6.34 6a18.737 18.737 0 005.29-.43v7.82h6.34V8.182h-6.28v6.87l-.07.05zm-21.23 12.46h6.34V8.182h-6.34v19.38zm43.38-19.33h-6.44l-6.93 19.33h6.2l.73-2.55h6.36l.75 2.55h6.25l-6.92-19.33zm-5.2 12.75l2-6.92 2 6.92h-4zm-77.71-2.79c0 4.53-.72 5-2 5a4.001 4.001 0 01-1.45-.19v4.51a13.26 13.26 0 003.43.41c3.63 0 6.07-1.93 6.07-9.72v-5.5h4.54v14.82h6.33V8.182h-16.92v10.01zm29.83-3.27h-3v-6.74h-6.33v19.33h9.26c5 0 8.06-2 8.06-6.17s-3.09-6.42-8-6.42h.01zm-.67 8.06h-2.33v-3.57h1.58c2 0 3.49.1 3.49 1.8 0 1.45-1.18 1.77-2.74 1.77zM35.84 45.392c-9.28 0-18.05-1.8-24.68-5.07C4 36.792.05 31.902.05 26.552s3.94-10.23 11.11-13.76a52.06 52.06 0 0117.4-4.68v-.51a7.15 7.15 0 012.14-4.82 7.59 7.59 0 0112.88 4.83v.54a51.801 51.801 0 0116.93 4.63c7.16 3.53 11.1 8.41 11.1 13.76s-3.94 10.23-11.1 13.77c-6.63 3.27-15.39 5.07-24.68 5.07"/>
	<path fill="#A70230" d="M60.01 13.812a51.5 51.5 0 00-17.56-4.63v-1.56a6.22 6.22 0 00-6.349-5.87 6.31 6.31 0 00-4.6 1.83 6.06 6.06 0 00-1.81 4v1.54a51.66 51.66 0 00-18 4.67c-6.75 3.33-10.48 7.85-10.48 12.75s3.72 9.42 10.48 12.75c6.48 3.2 15.06 5 24.18 5s17.7-1.76 24.18-5c6.75-3.33 10.47-7.85 10.47-12.75s-3.72-9.42-10.47-12.75"/>
	<path fill="#fff" d="M48.631 16.982c1.26-.26 1.42 1.39.39 1.91a6 6 0 00-1.67 1c-.47.52-1.7 3.06-.06 3.07 1.89 0 3-2 3.22-2.46.68-1.69.9-2.11 1.76-1.69.54.26-.21 1.66-.36 2.12a24.34 24.34 0 00-1.17 11.85c.11 1-.13 1.69-.92 1.79-.79.1-1.41-.14-1.66-1.57-.75-4.28 1.58-10.18 1.58-10.18s-2.49 3.37-4.33 1.74c-1.31-1.22.19-4 .24-4.23-.45.35-1 .4-1.1.07-.34-.91 1.61-.87 1.94-1.41.7-1.29 1.3-1.88 2.15-2.06M13.26 23.152c.19-1.11 3.05-7.83 13.27-9.54.78-.18 1.59-.18 2.37 0 .7.21.5.86 0 .9-.5.04-10.21 1.1-12.73 9.05-.87 2-3.21 1.37-2.89-.46M27.64 34.382c-1 .7-2.84-2.76-2.14-12.62.11-1.57 2.46-1.68 2.27.38-1.07 11.52.45 11.8-.12 12.24"/>
	<path fill="#fff" d="M14.86 35.932c1.42-2.22 2.45-2.89 3-5.38a3 3 0 01-2 1.6 2.46 2.46 0 01-2.1-1.41 7.6 7.6 0 01-.65-4.08c0-1.78 2.86-1.46 2.79-.25-.2 2.51.33 3.2.83 3.39.5.19 1.55-.53 1.78-1.79.16-.75.28-1.14.28-1.14a.683.683 0 111.36.11c-.34 4.21-1.15 7.46-3.17 10.61-.53.83-3.07-.42-2.16-1.65M24.93 18.762c-.05.47-1.9 18.66-2 19.16-.17 1.44-3.12 1.77-2.8-1.2.15-1.3 2.41-17.94 2.45-18.21.26-1.82 2.53-1.66 2.3.25M32.56 29.762a1.899 1.899 0 01-1.47 1.1c-1.07 0-.8-1.54-.35-2.21a1.71 1.71 0 011.45-1c.94.2-.57 1.17 0 1.46l.3.14s.38.13.07.53v-.02zm11-2.75c.31.17-.53 1.21-.61 1.32 0-.12.32-1.48.61-1.32zm4.17 6.33c-.75-1.69-1.15-2.54-.72-4.42.11-.37.08-1.07-.64-1-.72.07-.63 1-1.17.86-1.71-.4-1.5.57-1.4.81.43.95.18 1.61-.43 1.61s-1.27-1.08-.15-2.15c-.07.07 2.81-2.61 1.34-3.44-1.11-.57-2.12 1.05-2.51 2-1.21 3-1.62 3.57-2 3.65-.38.08.05-1.84.37-2.68.44-1.11.66-2.44-.08-2.44-1.6 0-3.18 3.15-3.83 4.14-1 1.46-.87.09-1.55.13-.86.08-.75 1.05-1.16 1-.64 0 .56-2.55.73-3.13a.87.87 0 00.07-.84c-.46-.49-.84.17-.93.26 0-1.66-1.06-1.71-2.12-1.25a5.77 5.77 0 00-3.27 4.71c-.21 1.9 1.82 4 3.74.88 0 0-.18 1.58.93 1.59.77 0 1.55-1.65 1.55-1.65s0 1.65 1 1.65c.82 0 1.6-2.2 2-3.14.32-.688.68-1.356 1.08-2 .24-.35.37-.19.26 0-1.49 3.51-.75 5.14 0 5.14s1.37-.43 2.23-1.9a2 2 0 002 1.9c1.22 0 2.09-2.13 1.73-3.56-.17-.72.56-.64.57-.23a3.86 3.86 0 001.6 3.63c.2.15 1 .41.69-.2M55.01 29.532c-.43.37.18.66.18.66.16.13-.09.49-.65.65a1 1 0 01-1.28-1.38c.29-1.14 1.58-2.06 2.29-1.77.71.29.11 1.18-.55 1.83l.01.01zm2.47 5.24a8.15 8.15 0 01-.59-4.57c.06-.7-.74-.5-.74-.5a3.42 3.42 0 00.49-2.23c-.09-.71-.92-1.14-2.12-.79-2.2.65-3.16 3-3.32 4.72-.16 1.72 1.46 3.85 4.08.55a5.27 5.27 0 001.7 3.09c.19.15.83.27.5-.27zM40.05 9.692c-1.27 5.53-2.87 7.41-3.22 7.78-.35.37-.94.33-1.18-.48-.07-.24-.93-3.08-3.33-2.34 0 0-.22.08-.26-.1a.4.4 0 01.27-.32c2-1.08 3.7.91 3.73.94.54.57 1.28-.21 1.5-1.09.18-.71.13-1.86-1.5-1.2-.24.08-2.2.72-1.55-1.1.16-.52.52-1.32.74-1.94.45-1.26.22-3.37-1.58-2.26-.529.422-.988.925-1.36 1.49-.12.17-.32.09-.22-.16a5.31 5.31 0 012.05-2.53c1.07-.55 3.17.15 2 3-.43 1.1-.31 2.28.59 2.28a3.55 3.55 0 002.95-2.14c.12-.27.41-.18.33.18"/>
	<path fill="#fff" d="M35.841 42.042c-18 0-32.56-7-32.56-15.55 0-7.57 11.32-13.87 26.3-15.26h.33v12.61h12.35v-12.58h.21c14.82 1.46 26 7.72 26 15.23 0 8.59-14.58 15.55-32.56 15.55h-.07zm-3.93-34.08a4.14 4.14 0 014.23-4 4.14 4.14 0 014.25 4v13h-8.5V7.982l.02-.02zm28.18 5.84a51.5 51.5 0 00-17.56-4.63v-1.56a6.22 6.22 0 00-6.35-5.87 6.31 6.31 0 00-4.6 1.83 6.06 6.06 0 00-1.81 4v1.54a51.66 51.66 0 00-18 4.67c-6.75 3.33-10.48 7.85-10.48 12.75s3.72 9.42 10.48 12.75c6.48 3.2 15.06 5 24.18 5s17.7-1.76 24.18-5c6.75-3.33 10.47-7.85 10.47-12.75s-3.72-9.42-10.47-12.75"/>
	<path fill="#fff" d="M45.26 16.982a1.75 1.75 0 111.81-1.75 1.78 1.78 0 01-1.81 1.75zm0-3.85a2.11 2.11 0 102.17 2.1 2.15 2.15 0 00-2.17-2.1z"/>
	<path fill="#fff" d="M45.37 14.982h-.44v-.55h.41c.18 0 .38 0 .38.25s-.13.3-.35.3zm.88-.3c0-.52-.33-.7-.91-.71h-1v2.34h.51v-1h.23l.21.36.34.62h.63l-.61-1a.562.562 0 00.58-.61"/>
	<path fill="#A70230" d="M218.601 33.852l1.18 2.92 1.17-2.92h2.61l-2.73 5.77c-.63 1.32-1.25 1.82-2.18 1.82a3.343 3.343 0 01-1.14-.23v-1.68c.157.071.328.105.5.1a.591.591 0 00.58-.41l-2.72-5.37h2.73zM232.464 36.872a1.236 1.236 0 00-.827-1.145 1.225 1.225 0 00-.493-.065c-.85 0-1.37.73-1.37 2.16 0 1 .23 2 1.46 2a1.237 1.237 0 001.148-.772c.062-.152.093-.314.092-.478h2.33a3.31 3.31 0 01-3.53 3.06 3.892 3.892 0 11-.24-7.78c2.26 0 3.52 1.12 3.72 3h-2.3l.01.02zM195.26 39.562h1.06c.6 0 1-.12 1-.68s-.56-.69-1.33-.69h-.73v1.37zm0-2.71h1a.702.702 0 00.83-.65c0-.58-.47-.59-1-.59h-.83v1.24zm-2.42-3h3.53c1.66 0 3 .39 3 1.86a1.995 1.995 0 01-1 1.61 1.658 1.658 0 011.23 1.7c0 1.65-1.26 2.23-3.18 2.23h-3.6v-7.39l.02-.01zM134.431 35.582v.8a6.28 6.28 0 01-.61 3.14h2.05v-3.94h-1.45.01zm3.87-1.73v5.67h.65v3.43h-2.32v-1.71h-3.45v1.71h-2.32v-3.43h.58a7.892 7.892 0 00.67-3.77v-1.9h6.19zM121.842 36.712h.2c.76 0 1.19-.15 1.19-.75a.859.859 0 00-.666-.679.85.85 0 00-.334-.001 1.002 1.002 0 00-1.06.73h-2c.13-1.72 1.62-2.45 3.2-2.45 1.86 0 3.16.89 3.16 2.13a1.836 1.836 0 01-1.08 1.65 1.692 1.692 0 011.27 1.75c0 1.4-1.17 2.26-3.39 2.26s-3.32-.84-3.48-2.78h2a1.136 1.136 0 00.854 1.04c.155.04.317.047.476.02.82 0 1.23-.34 1.23-.78 0-.67-.63-.78-1.39-.78h-.2v-1.35l.02-.01zM99.702 37.122h1a.816.816 0 00.939-.485.816.816 0 00.061-.375c0-.69-.78-.78-1.29-.78h-.69v1.64h-.02zm0 4h-2.44v-7.39h3.56c2.13 0 3.15 1 3.15 2.5s-.94 2.6-3.07 2.6h-1.22v2.3l.02-.01z"/>
</symbol>
<symbol id="delivery-company" viewBox="0 0 29 20">
	<path fill-rule="evenodd" d="M4.5 0a1 1 0 000 2H18v5a2 2 0 002 2h5.52L27 10.85V15h-2.145a3.502 3.502 0 00-6.71 0h-4.29a3.502 3.502 0 00-6.71 0H4a1 1 0 100 2h3.145a3.502 3.502 0 006.71 0h4.29a3.502 3.502 0 006.71 0H27a2 2 0 002-2v-4.15a2 2 0 00-.438-1.249l-1.726-2.157-2.674-4.902A2 2 0 0022.406 1.5h-2.469A2 2 0 0018 0H4.5zM20 16a1.5 1.5 0 103 0 1.5 1.5 0 00-3 0zM9 16a1.5 1.5 0 103 0 1.5 1.5 0 00-3 0zm11-9V3.5h2.406l1.91 3.5H20zM0 5.5a1 1 0 011-1h8a1 1 0 110 2H1a1 1 0 01-1-1zm1 3a1 1 0 100 2h8a1 1 0 100-2H1z" clip-rule="evenodd"/>
</symbol>
<symbol id="delivery-self" viewBox="0 0 19 19">
	<path fill-rule="evenodd" d="M4 0a1 1 0 00-.894.553l-3 6A.996.996 0 000 7.02V17a2 2 0 002 2h15a2 2 0 002-2V7.019a.995.995 0 00-.105-.466l-3-6A1 1 0 0015 0H4zm12.382 6l-2-4H10.5v4h5.882zM8.5 6V2H4.618l-2 4H8.5zm-1.36 7.268l1.36-1.133V15a1 1 0 102 0v-2.865l1.36 1.133a1 1 0 101.28-1.536l-3-2.5a1 1 0 00-1.28 0l-3 2.5a1 1 0 101.28 1.536zM2 8h15v9H2V8z" clip-rule="evenodd"/>
</symbol>
<symbol id="cart" viewBox="0 0 21 22">
	<path fill-rule="evenodd" d="M6.216 1.64A1.4 1.4 0 004.862.613h-3.46C.628.612 0 1.234 0 2.002 0 2.767.628 3.39 1.402 3.39h2.385l2.548 9.392c.46 1.693 1.957 2.83 3.728 2.83h5.445c1.756 0 3.24-1.091 3.694-2.716l1.692-6.068c.227-.813.086-1.621-.398-2.277a2.614 2.614 0 00-2.124-1.068H6.716l-.5-1.842zm11.927 4.621L16.5 12.157c-.115.411-.504.678-.991.678h-5.445a1.03 1.03 0 01-1.02-.774l-1.573-5.8h10.673zM9 17.612c-1.102 0-2 .899-2 2 0 1.102.898 2 2 2 1.102 0 2-.898 2-2 0-1.101-.898-2-2-2zM16 17.612c-1.102 0-2 .899-2 2 0 1.102.898 2 2 2 1.102 0 2-.898 2-2 0-1.101-.898-2-2-2z" clip-rule="evenodd"/>
</symbol>
<symbol id="menu" viewBox="0 0 17 14">
	<path fill-rule="evenodd" d="M.05 1.086C.05.486.538 0 1.138 0h13.828a1.086 1.086 0 010 2.172H1.137c-.6 0-1.086-.487-1.086-1.086zm0 5.428c0-.6.487-1.086 1.087-1.086h13.828a1.086 1.086 0 110 2.172H1.137C.537 7.6.05 7.114.05 6.514zm1.087 4.343a1.086 1.086 0 000 2.171h13.828a1.086 1.086 0 000-2.171H1.137z" clip-rule="evenodd"/>
</symbol>
<symbol id="search" viewBox="0 0 15 15">
	<path fill-rule="evenodd" d="M6.5 1.75a4.75 4.75 0 100 9.5 4.75 4.75 0 000-9.5zM.25 6.5a6.25 6.25 0 1112.5 0 6.25 6.25 0 01-12.5 0z" clip-rule="evenodd"/>
	<path fill-rule="evenodd" d="M10.47 10.47a.75.75 0 011.06 0l3 3a.75.75 0 11-1.06 1.06l-3-3a.75.75 0 010-1.06z" clip-rule="evenodd"/>
</symbol>
<symbol id="button-arrow" viewBox="0 0 19 10">
	<path fill-rule="evenodd" d="M12.232.302a1 1 0 011.414-.018l4.103 4a1 1 0 010 1.432l-4.103 4a1 1 0 11-1.396-1.432L14.593 6H1.05a1 1 0 110-2h13.542L12.25 1.716a1 1 0 01-.018-1.414z" clip-rule="evenodd"/>
</symbol>
<symbol id="slider-arrow-left" viewBox="0 0 48 16">
	<path fill="#000" fill-rule="evenodd" d="M47.05 8.031a1 1 0 01-1 1h-45a1 1 0 010-2h45a1 1 0 011 1z" clip-rule="evenodd"/>
	<path fill="#000" fill-rule="evenodd" d="M8.758 15.707a1 1 0 01-1.414 0l-7-7a1 1 0 010-1.414l7-7a1 1 0 111.414 1.414L2.465 8l6.293 6.293a1 1 0 010 1.414z" clip-rule="evenodd"/>
</symbol>
<symbol id="slider-arrow-right" viewBox="0 0 48 16">
	<path fill="#000" fill-rule="evenodd" d="M.05 7.969a1 1 0 011-1h45a1 1 0 110 2h-45a1 1 0 01-1-1z" clip-rule="evenodd"/>
	<path fill="#000" fill-rule="evenodd" d="M38.344.293a1 1 0 011.414 0l7 7a1 1 0 010 1.414l-7 7a1 1 0 01-1.414-1.414L44.637 8l-6.293-6.293a1 1 0 010-1.414z" clip-rule="evenodd"/>
</symbol>
<symbol id="timer" viewBox="0 0 11 12">
	<path fill-rule="evenodd" d="M5.076 9.076a3.076 3.076 0 100-6.152 3.076 3.076 0 000 6.152zm0 2a5.076 5.076 0 100-10.152 5.076 5.076 0 000 10.152z" clip-rule="evenodd"/>
	<path fill-rule="evenodd" d="M4.878 3.937a.5.5 0 01.5.5v1.489l.961.973a.5.5 0 11-.711.703l-1.106-1.12a.5.5 0 01-.144-.35V4.436a.5.5 0 01.5-.5z" clip-rule="evenodd"/>
</symbol>
<symbol id="star" viewBox="0 0 12 10">
	<path fill-rule="evenodd" d="M11.124 3.777c-.084-.243-.332-.41-.681-.46l-2.847-.392L6.323.473c-.156-.3-.4-.473-.67-.473s-.514.173-.67.473L3.71 2.925l-2.847.393c-.35.048-.598.216-.681.46-.083.243.014.517.267.75l2.06 1.909-.487 2.695c-.062.344.044.55.144.663a.63.63 0 00.481.205c.145 0 .3-.04.46-.12l2.546-1.272L8.199 9.88c.16.08.314.12.46.12a.63.63 0 00.48-.205c.1-.112.207-.319.144-.663l-.486-2.695 2.06-1.908c.253-.234.35-.508.267-.752zM4.042 7.512l1.61-.805 1.612.805-.305-1.69 1.193-1.104-1.66-.23-.84-1.616-.839 1.616-1.659.23 1.193 1.105-.305 1.69z" clip-rule="evenodd"/>
</symbol>
<symbol id="product_add_to_cart" viewBox="0 0 20 14">
	<path fill-rule="evenodd" d="M9.677.25c.392 0 .736.281.838.686l.31 1.228h7.214c.526 0 1.005.26 1.315.712.3.437.388.976.247 1.518l-1.048 4.045c-.28 1.083-1.2 1.811-2.286 1.811h-3.371c-1.096 0-2.023-.758-2.308-1.887L9.011 2.102H7.535c-.48 0-.869-.415-.869-.926 0-.511.39-.926.869-.926h2.142zm7.203 7.696l1.018-3.93h-6.607l.974 3.866c.079.314.326.516.63.516h3.372c.301 0 .542-.177.613-.452zM10.667 12.5c0-.688.561-1.25 1.25-1.25.688 0 1.25.562 1.25 1.25s-.562 1.25-1.25 1.25c-.689 0-1.25-.562-1.25-1.25zm6.25-1.25c-.689 0-1.25.562-1.25 1.25s.561 1.25 1.25 1.25c.688 0 1.25-.562 1.25-1.25s-.562-1.25-1.25-1.25zm-11.25-6a1 1 0 10-2 0v2h-2a1 1 0 000 2h2v2a1 1 0 102 0v-2h2a1 1 0 100-2h-2v-2z" clip-rule="evenodd"/>
</symbol>
<symbol id="product_in_cart" viewBox="0 0 19 19">
	<path fill-rule="evenodd" d="M13.874 6.793a1 1 0 010 1.414l-4 4a1 1 0 01-1.415 0l-2.5-2.5a1 1 0 111.415-1.414l1.792 1.793 3.293-3.293a1 1 0 011.415 0z" clip-rule="evenodd"/>
	<path fill-rule="evenodd" d="M9.666 16.8a7.3 7.3 0 100-14.6 7.3 7.3 0 000 14.6zm0 1.7a9 9 0 100-18 9 9 0 000 18z" clip-rule="evenodd"/>
</symbol>
<symbol id="arrow-more" viewBox="0 0 20 10">
	<path fill-rule="evenodd" d="M15.3.47a.84.84 0 00-1.132 0 .717.717 0 000 1.06l2.885 2.702H.852c-.443 0-.801.336-.801.75s.358.75.8.75h16.24L14.168 8.47a.717.717 0 000 1.06.84.84 0 001.132 0l4.272-4a.737.737 0 00-.113-1.166L15.3.47z" clip-rule="evenodd"/>
</symbol>
<symbol id="logo-with-text" viewBox="0 0 245 45">
	<path fill="#fff" d="M89.427 33.358v7.272H87.05v-5.572H84.8v5.572h-2.388v-7.272h7.016zM110.16 38.153l-.767-2.603-.737 2.603h1.504zm.461-4.795l2.604 7.262h-2.368l-.285-.983h-2.368l-.275.983H105.6l2.604-7.262h2.417zM144.736 35.893h2.25v-2.535h2.378v7.272h-2.378v-3.037h-2.25v3.036h-2.388v-7.27h2.388v2.534zM161.922 33.358v7.272h-2.28v-2.31l.118-1.857-2.623 4.166h-2.231v-7.27h2.28v2.318l-.118 1.857 2.623-4.176h2.231zM169.842 35.717l2.093-2.359h2.79l-2.653 2.742 2.938 4.53h-2.849l-1.749-2.9-.57.6v2.3h-2.378v-7.272h2.378v2.359zM203.751 35.717l2.093-2.359h2.79l-2.653 2.742 2.938 4.53h-2.859l-1.749-2.9-.56.6v2.3h-2.378v-7.272h2.378v2.359zM239.312 38.153l-.766-2.603-.737 2.603h1.503zm.462-4.795l2.604 7.262h-2.368l-.285-.983h-2.368l-.275.983h-2.329l2.604-7.262h2.417zM23.87 33.722h.608v1.759H25v-1.759h.62v-.472h-1.75v.472zM29.873 35.48h.52v-1.758h.875v-.472h-1.395v2.23zM137.977 8.135l-6.878 18.993h6.092l.786-2.486h6.201l.737 2.506h6.2l-6.81-18.993h-6.328v-.02zm1.16 12.577l1.965-6.8 1.965 6.8h-3.93zm-49.375-5.04l-3.036-7.498H79.7l6.996 13.756a1.524 1.524 0 01-1.474 1.062 2.947 2.947 0 01-1.287-.315v4.324c.941.364 1.939.56 2.948.58 2.378 0 3.99-1.268 5.59-4.668L99.49 8.086h-6.712l-3.016 7.585zm20.634 11.505h6.23v-14.61h5.895v14.561h6.23V8.135h-18.345v18.993l-.01.05zm105.137-12.243a9.82 9.82 0 01-2.82.344c-1.503 0-2.368-.688-2.368-2.19V8.173h-6.229v5.896c0 4.117 3.429 5.895 6.229 5.895a18.414 18.414 0 005.198-.422v7.684h6.23V8.135h-6.171v6.75l-.069.05zm-20.86 12.243h6.229V8.135h-6.229v19.043zm42.625-18.993h-6.328l-6.81 18.993h6.092l.718-2.505h6.249l.737 2.505h6.141l-6.799-18.993zm-5.11 12.528l1.965-6.8 1.965 6.8h-3.93zm-76.357-2.741c0 4.45-.707 4.913-1.965 4.913a3.937 3.937 0 01-1.425-.187v4.431c1.101.281 2.234.416 3.37.403 3.567 0 5.965-1.896 5.965-9.55v-5.405h4.461v14.562h6.22V8.135h-16.626v9.836zm29.311-3.213h-2.948V8.135h-6.22v18.993h9.099c4.913 0 7.92-1.965 7.92-6.062 0-4.098-3.037-6.308-7.861-6.308h.01zm-.659 7.92h-2.289v-3.509h1.552c1.966 0 3.43.099 3.43 1.77 0 1.424-1.16 1.738-2.693 1.738z"/>
	<path fill="#fff" d="M35.375 44.697c-9.118 0-17.736-1.768-24.25-4.982C4.089 36.248.208 31.442.208 26.185s3.872-10.052 10.917-13.52a51.151 51.151 0 0117.097-4.599v-.5a7.026 7.026 0 012.102-4.737A7.458 7.458 0 0142.98 7.575v.53a50.898 50.898 0 0116.636 4.55c7.035 3.469 10.906 8.264 10.906 13.52 0 5.257-3.871 10.052-10.907 13.53-6.514 3.214-15.122 4.982-24.25 4.982"/>
	<path fill="#fff" d="M59.124 13.667a50.605 50.605 0 00-17.255-4.55V7.586a6.112 6.112 0 00-6.24-5.768 6.2 6.2 0 00-4.519 1.798 5.954 5.954 0 00-1.779 3.93V9.06a50.76 50.76 0 00-17.686 4.588C5.012 16.92 1.347 21.361 1.347 26.175c0 4.815 3.656 9.256 10.298 12.528 6.367 3.145 14.798 4.913 23.759 4.913s17.392-1.73 23.759-4.913c6.632-3.272 10.288-7.713 10.288-12.528 0-4.814-3.656-9.256-10.288-12.528"/>
	<path fill="#A70230" d="M47.944 16.782c1.238-.255 1.395 1.366.383 1.877a5.9 5.9 0 00-1.64.982c-.463.511-1.671 3.007-.06 3.017 1.857 0 2.948-1.965 3.164-2.417.668-1.66.884-2.073 1.73-1.66.53.255-.207 1.63-.354 2.082a23.917 23.917 0 00-1.15 11.644c.108.983-.128 1.66-.904 1.759-.776.098-1.385-.138-1.631-1.543-.737-4.205 1.553-10.003 1.553-10.003s-2.447 3.312-4.255 1.71c-1.287-1.199.187-3.93.236-4.156-.442.344-.983.393-1.081.069-.334-.895 1.582-.855 1.906-1.386.688-1.267 1.277-1.847 2.113-2.024M13.19 22.845c.187-1.091 2.997-7.694 13.039-9.374a5.179 5.179 0 012.329 0c.688.206.491.845 0 .884-.491.04-10.032 1.08-12.509 8.892-.854 1.965-3.154 1.346-2.84-.452M27.318 33.879c-.982.688-2.79-2.712-2.103-12.4.108-1.543 2.418-1.651 2.23.373-1.05 11.32.443 11.595-.117 12.027"/>
	<path fill="#A70230" d="M14.761 35.402c1.395-2.181 2.407-2.84 2.948-5.286a2.948 2.948 0 01-1.965 1.572 2.418 2.418 0 01-2.064-1.386 7.467 7.467 0 01-.639-4.009c0-1.749 2.81-1.434 2.742-.245-.197 2.466.324 3.144.816 3.33.49.187 1.523-.52 1.748-1.758.158-.737.276-1.12.276-1.12a.67.67 0 111.336.108c-.334 4.136-1.13 7.33-3.115 10.425-.52.816-3.016-.413-2.122-1.621M24.654 18.53c-.049.463-1.866 18.336-1.965 18.827-.167 1.415-3.065 1.74-2.75-1.179.146-1.277 2.367-17.627 2.407-17.893.255-1.788 2.485-1.63 2.26.246M32.151 29.34a1.868 1.868 0 01-1.444 1.08c-1.052 0-.787-1.513-.344-2.171a1.68 1.68 0 011.424-.983c.924.197-.56 1.15 0 1.435l.295.137s.374.128.069.521v-.02zm10.808-2.703c.305.168-.52 1.19-.599 1.297 0-.117.315-1.454.6-1.297zm4.098 6.22c-.737-1.66-1.13-2.495-.708-4.343.109-.363.079-1.051-.628-.982-.708.068-.62.982-1.15.845-1.68-.393-1.474.56-1.376.796.423.933.177 1.582-.422 1.582-.6 0-1.248-1.062-.148-2.113-.068.069 2.761-2.565 1.317-3.38-1.09-.56-2.083 1.032-2.466 1.965-1.19 2.948-1.592 3.508-1.965 3.587-.374.078.049-1.808.363-2.634.432-1.09.649-2.397-.079-2.397-1.572 0-3.124 3.095-3.763 4.067-.982 1.435-.855.089-1.523.128-.845.079-.737 1.032-1.14.983-.629 0 .55-2.506.718-3.076a.854.854 0 00.069-.825c-.453-.482-.826.167-.914.256 0-1.632-1.042-1.68-2.083-1.229a5.67 5.67 0 00-3.213 4.628c-.207 1.867 1.788 3.93 3.674.865 0 0-.177 1.552.914 1.562.757 0 1.523-1.621 1.523-1.621s0 1.621.983 1.621c.806 0 1.572-2.162 1.965-3.085.313-.676.668-1.332 1.061-1.965.236-.344.364-.187.256 0-1.464 3.449-.737 5.05 0 5.05s1.346-.422 2.19-1.867a1.965 1.965 0 001.966 1.867c1.199 0 2.054-2.093 1.7-3.498-.167-.707.55-.629.56-.226a3.793 3.793 0 001.572 3.567c.197.147.983.403.678-.197M54.212 29.114c-.423.363.177.648.177.648.157.128-.089.482-.639.639a.983.983 0 01-1.258-1.356c.285-1.12 1.553-2.024 2.25-1.74.698.286.109 1.16-.54 1.799l.01.01zm2.427 5.149a8.007 8.007 0 01-.58-4.491c.06-.688-.727-.491-.727-.491a3.36 3.36 0 00.482-2.191c-.089-.698-.904-1.12-2.084-.777-2.161.639-3.104 2.948-3.262 4.638-.157 1.69 1.435 3.783 4.01.54a5.178 5.178 0 001.67 3.037c.186.147.815.265.491-.265zM39.512 9.619c-1.248 5.433-2.82 7.28-3.164 7.644-.344.364-.923.324-1.16-.471-.068-.236-.913-3.027-3.271-2.3 0 0-.216.079-.256-.098a.393.393 0 01.266-.314c1.965-1.062 3.635.894 3.665.923.53.56 1.257-.206 1.474-1.07.176-.698.127-1.828-1.474-1.18-.236.079-2.162.708-1.523-1.08.157-.512.51-1.298.727-1.907.442-1.238.216-3.311-1.553-2.22a6.3 6.3 0 00-1.336 1.464c-.118.167-.314.088-.216-.158a5.218 5.218 0 012.014-2.486c1.052-.54 3.115.148 1.965 2.948-.422 1.081-.304 2.24.58 2.24a3.488 3.488 0 002.899-2.102c.118-.266.403-.177.324.177"/>
	<path fill="#A70230" d="M35.374 41.406c-17.687 0-31.993-6.878-31.993-15.28 0-7.438 11.123-13.628 25.842-14.994h.324v12.39h12.135v-12.36h.207c14.562 1.434 25.547 7.585 25.547 14.964 0 8.44-14.326 15.28-31.993 15.28h-.069zM31.512 7.919a4.068 4.068 0 014.157-3.93 4.068 4.068 0 014.176 3.93v12.774h-8.352V7.939l.02-.02zm27.69 5.738a50.604 50.604 0 00-17.255-4.55V7.576a6.112 6.112 0 00-6.239-5.768 6.2 6.2 0 00-4.52 1.798 5.954 5.954 0 00-1.778 3.93V9.05a50.76 50.76 0 00-17.687 4.589C5.091 16.91 1.426 21.35 1.426 26.166c0 4.814 3.655 9.256 10.297 12.528 6.367 3.144 14.798 4.913 23.76 4.913 8.96 0 17.39-1.73 23.758-4.913 6.633-3.272 10.288-7.714 10.288-12.528 0-4.815-3.655-9.256-10.288-12.528"/>
	<path fill="#A70230" d="M44.63 16.782a1.72 1.72 0 111.779-1.72 1.75 1.75 0 01-1.779 1.72zm0-3.783a2.073 2.073 0 102.132 2.063A2.113 2.113 0 0044.63 13z"/>
	<path fill="#A70230" d="M44.741 14.817h-.432v-.54h.403c.176 0 .373 0 .373.245 0 .246-.128.295-.344.295zm.865-.295c0-.51-.324-.688-.894-.697h-.983v2.299h.501v-.983h.226l.206.354.335.61h.619l-.6-.984a.548.548 0 00.57-.599"/>
	<path fill="#fff" d="M214.953 33.358l1.159 2.87 1.15-2.87h2.564l-2.682 5.67c-.619 1.297-1.228 1.788-2.142 1.788a3.276 3.276 0 01-1.12-.226v-1.65c.154.07.322.103.491.098a.578.578 0 00.57-.403l-2.673-5.277h2.683zM228.573 36.326a1.21 1.21 0 00-.812-1.126 1.206 1.206 0 00-.485-.063c-.835 0-1.346.717-1.346 2.122 0 .983.226 1.965 1.435 1.965a1.216 1.216 0 001.218-1.228h2.289a3.249 3.249 0 01-3.468 3.007 3.823 3.823 0 11-.236-7.645c2.221 0 3.459 1.1 3.655 2.948h-2.26l.01.02zM192.018 38.969h1.042c.589 0 .982-.118.982-.668s-.55-.678-1.306-.678h-.718v1.346zm0-2.663h.983a.689.689 0 00.815-.639c0-.57-.461-.58-.982-.58h-.816v1.22zm-2.378-2.948h3.469c1.631 0 2.948.384 2.948 1.828a1.97 1.97 0 01-.983 1.582 1.63 1.63 0 011.209 1.67c0 1.622-1.238 2.191-3.125 2.191h-3.537v-7.26l.019-.01zM132.248 35.058v.786a6.177 6.177 0 01-.599 3.086h2.014v-3.872h-1.425.01zm3.802-1.7v5.572h.639v3.37h-2.279v-1.68h-3.39v1.68h-2.28v-3.37h.57a7.756 7.756 0 00.658-3.705v-1.867h6.082zM119.876 36.168h.197c.746 0 1.169-.147 1.169-.736a.842.842 0 00-.352-.54.833.833 0 00-.631-.129.98.98 0 00-1.041.718h-1.965c.127-1.69 1.591-2.408 3.144-2.408 1.827 0 3.105.875 3.105 2.093a1.802 1.802 0 01-1.061 1.621 1.662 1.662 0 011.248 1.72c0 1.376-1.15 2.22-3.331 2.22-2.182 0-3.263-.825-3.42-2.731h1.965a1.115 1.115 0 00.421.813 1.118 1.118 0 00.886.229c.806 0 1.209-.334 1.209-.767 0-.658-.619-.766-1.366-.766h-.197v-1.327l.02-.01zM98.123 36.571h.982a.806.806 0 00.983-.845c0-.678-.766-.766-1.268-.766h-.678v1.611h-.02zm0 3.93h-2.398v-7.26h3.498c2.093 0 3.095.982 3.095 2.456s-.923 2.554-3.016 2.554h-1.199v2.26l.02-.01z"/>
</symbol>
<symbol id="percentage" viewBox="0 0 19 17">
	<path fill="#FFD400" fill-rule="evenodd" d="M4.576 6.176a2 2 0 100-4 2 2 0 000 4zm0 2a4 4 0 100-8 4 4 0 000 8zM14.576 14.175a2 2 0 100-4 2 2 0 000 4zm0 2a4 4 0 100-8 4 4 0 000 8zM17.283.468a1 1 0 010 1.415l-14 14a1 1 0 11-1.414-1.415l14-14a1 1 0 011.414 0z" clip-rule="evenodd"/>
</symbol>
<symbol id="mail" viewBox="0 0 16 14">
	<g clip-rule="evenodd" opacity=".9">
		<path d="M2.814 2.143c-.135 0-.32.132-.32.375v8.25c0 .243.185.375.32.375h10.558c.136 0 .32-.132.32-.375v-8.25c0-.243-.184-.375-.32-.375H2.814zm-2.32.375c0-1.27 1.004-2.375 2.32-2.375h10.558c1.317 0 2.32 1.105 2.32 2.375v8.25c0 1.27-1.003 2.375-2.32 2.375H2.814c-1.316 0-2.32-1.106-2.32-2.375v-8.25z"/>
		<path d="M.686 1.929a1 1 0 011.397-.22l6.01 4.384 6.01-4.383a1 1 0 111.178 1.616L8.682 8.138a1 1 0 01-1.178 0L.905 3.326a1 1 0 01-.219-1.397z"/>
	</g>
</symbol>
<symbol id="tooltip-arrow-down" viewBox="0 0 9 6">
	<path fill="#000" fill-rule="evenodd" d="M.778.376a.778.778 0 011.131 0L4.544 3.12 7.178.376a.778.778 0 011.131 0 .858.858 0 010 1.178l-3.2 3.333a.778.778 0 01-1.131 0l-3.2-3.333a.858.858 0 010-1.178z" clip-rule="evenodd"/>
</symbol>
<symbol id="checkbox_ok" viewBox="0 0 10 8">
	<path fill="#000" fill-rule="evenodd" d="M.35 3.753L1.75 2.326l2.208 2.17L8.35.182 9.752 1.61 3.959 7.3.35 3.753z" clip-rule="evenodd"/>
</symbol>
<symbol id="advant-icon-1" viewBox="0 0 63 61">
	<path fill="#A70230" d="M62.784 33.682a24.845 24.845 0 00-7.14-15.069 24.65 24.65 0 00-12.128-6.659V8.835a4.18 4.18 0 003.167-4.05A4.179 4.179 0 0042.509.61h-8.84a4.179 4.179 0 00-4.173 4.174 4.181 4.181 0 003.166 4.05v3.128a24.65 24.65 0 00-12.09 6.65 24.917 24.917 0 00-2.084 2.366c-.03-.002-.061-.005-.093-.005H9.647a1.228 1.228 0 000 2.455h7.17a24.61 24.61 0 00-2.177 4.719H1.278a1.228 1.228 0 000 2.455h12.668a24.968 24.968 0 00-.61 4.719H7.908a1.228 1.228 0 000 2.455h5.468c.103 1.59.359 3.17.766 4.72H6.19a1.228 1.228 0 000 2.454h8.737a24.657 24.657 0 005.647 8.733 24.844 24.844 0 0015.084 7.143 24.858 24.858 0 0015.966-3.88 1.228 1.228 0 00-1.34-2.058c-8.784 5.72-20.55 4.483-27.974-2.941-8.712-8.712-8.712-22.887 0-31.599 8.711-8.711 22.886-8.711 31.598 0 7.415 7.416 8.659 19.17 2.957 27.95a1.228 1.228 0 102.06 1.338c3.045-4.691 4.417-10.358 3.86-15.955zM31.951 4.785c0-.948.771-1.719 1.719-1.719h8.839a1.72 1.72 0 011.719 1.719 1.72 1.72 0 01-1.719 1.719H33.67a1.72 1.72 0 01-1.719-1.719zm3.167 6.756V8.96h5.943v2.578a25.015 25.015 0 00-5.943.004z"/>
	<path fill="#A70230" d="M54.776 51.587a1.232 1.232 0 00-1.228 1.228 1.232 1.232 0 001.227 1.228c.323 0 .639-.13.868-.36.229-.228.36-.545.36-.868 0-.323-.131-.64-.36-.868a1.24 1.24 0 00-.867-.36zM38.108 17.104c-10.501 0-19.044 8.543-19.044 19.044 0 10.501 8.543 19.045 19.044 19.045 10.501 0 19.044-8.544 19.044-19.045 0-10.501-8.543-19.044-19.044-19.044zm0 35.633c-9.147 0-16.59-7.442-16.59-16.589 0-9.147 7.443-16.589 16.59-16.589s16.589 7.442 16.589 16.59c0 9.146-7.442 16.588-16.59 16.588z"/>
	<path fill="#A70230" d="M45.873 26.647l-6.08 6.08a3.792 3.792 0 00-1.685-.393c-.605 0-1.177.142-1.685.393L33.7 30.006a1.228 1.228 0 00-1.736 1.736l2.721 2.721a3.79 3.79 0 00-.393 1.685 3.819 3.819 0 003.815 3.815 3.819 3.819 0 003.815-3.815 3.79 3.79 0 00-.394-1.685l5.902-5.902.178-.178a1.228 1.228 0 10-1.736-1.736zm-7.765 10.86c-.75 0-1.36-.609-1.36-1.359s.61-1.36 1.36-1.36c.75 0 1.36.61 1.36 1.36 0 .75-.61 1.36-1.36 1.36zM51.234 34.935h-1.137a1.228 1.228 0 000 2.456h1.137a1.228 1.228 0 000-2.456zM26.12 34.906h-1.137a1.228 1.228 0 000 2.455h1.137a1.228 1.228 0 000-2.455zM38.123 25.387c.678 0 1.228-.55 1.228-1.227v-1.137a1.228 1.228 0 00-2.456 0v1.137c0 .678.55 1.227 1.228 1.227zM38.093 46.91c-.678 0-1.228.549-1.228 1.227v1.137a1.228 1.228 0 002.456 0v-1.137c0-.678-.55-1.228-1.228-1.228zM1.278 42.496c-.322 0-.64.131-.868.36-.228.228-.36.544-.36.867 0 .324.132.64.36.868.229.228.546.36.868.36.323 0 .64-.132.868-.36.229-.228.36-.545.36-.868 0-.323-.131-.64-.36-.868a1.237 1.237 0 00-.868-.36z"/>
</symbol>
<symbol id="advant-icon-2" viewBox="0 0 58 58">
	<path fill="#A70230" d="M32.496 22.16c.43 0 .859-.165 1.186-.492l1.87-1.87c2.168-.016 8.34-.433 12.36-4.454 4.84-4.841 4.46-12.8 4.442-13.137A1.677 1.677 0 0050.772.625c-.337-.019-8.297-.4-13.137 4.441-4.02 4.02-4.439 10.192-4.455 12.36l-1.87 1.87a1.677 1.677 0 001.186 2.863zm7.51-14.722c2.635-2.634 6.722-3.28 8.968-3.43-.145 2.243-.786 6.317-3.433 8.964-1.753 1.753-4.15 2.625-6.219 3.056l6.219-6.219a1.677 1.677 0 00-2.372-2.371l-6.228 6.228c.43-2.067 1.302-4.464 3.066-6.228z"/>
	<path fill="#A70230" d="M55.898 25.431H27.015l-4.532-7.85c-1.631-2.825-2.835-6.076-3.903-10.543a8.351 8.351 0 00-.892-2.233A8.356 8.356 0 0011.753.717C9.25.315 6.71 1.07 4.785 2.785c-2.43 2.167-3.37 5.702-2.341 8.796a8.517 8.517 0 002.319 3.6c3.038 2.776 5.35 5.572 7.068 8.547l.983 1.703H2.01c-.926 0-1.677.751-1.677 1.677V37.17c0 6.857 4.963 12.575 11.485 13.753l-2.252 4.504a1.677 1.677 0 001.5 2.427h35.777a1.677 1.677 0 001.5-2.427l-2.252-4.504c6.522-1.178 11.485-6.896 11.485-13.753V27.108c0-.926-.751-1.677-1.677-1.677zM7.025 12.704a5.085 5.085 0 01-1.399-2.181c-.612-1.843-.053-3.946 1.391-5.235 1.186-1.057 2.679-1.504 4.204-1.26a5.015 5.015 0 013.562 2.454c.243.42.423.87.534 1.337 1.131 4.729 2.485 8.364 4.261 11.44l3.564 6.172h-6.455l-1.951-3.38c-1.893-3.277-4.415-6.335-7.71-9.347zM13.78 54.5l1.677-3.354H42.45l1.677 3.354h-30.35zM54.22 37.17c0 5.857-4.765 10.622-10.621 10.622H14.306c-5.856 0-10.62-4.765-10.62-10.622v-1.677H54.22v1.677zm0-5.03H3.686v-3.355h50.535v3.354z"/>
</symbol>
<symbol id="advant-icon-3" viewBox="0 0 61 53">
	<path fill="#A70230" d="M45.198 6.175c-2.102-.6-4.617-.441-6.66.52l-2.006.945c-1.037-1.922-3.394-2.263-5.333-2.322v-.013a2.349 2.349 0 012.346-2.347 1.173 1.173 0 000-2.347 4.698 4.698 0 00-4.692 4.694v.018c-3.42.121-5.864 1.148-5.864 4.675 0 1.115.267 2.4.746 3.653L.687 24.185a1.18 1.18 0 00-.685 1.068v25.815c0 .648.525 1.174 1.173 1.174h57.703c.648 0 1.173-.526 1.173-1.174V25.253c0-8.733-6.22-16.61-14.853-19.078zm-5.662 2.644c1.445-.68 3.378-.855 5.018-.388 7.347 2.101 12.59 8.436 13.108 15.648H44.1a1.173 1.173 0 000 2.347h13.605v7.055a4.548 4.548 0 01-1.731-.962c-2.565-2.34-6.288-2.34-8.852 0-1.676 1.528-4.016 1.528-5.691 0-2.578-2.352-6.04-2.352-8.618 0-1.683 1.535-3.774 1.535-5.456 0-2.578-2.352-6.04-2.352-8.618 0-1.675 1.528-4.015 1.528-5.69 0-2.565-2.34-6.288-2.34-8.852 0-.501.456-1.163.802-1.85.991v-7.084h32.37a1.173 1.173 0 000-2.347H6.566l18.205-8.32c1.407 2.29 3.318 3.627 5.256 3.627 4.008 0 7.037-5.57 7.037-9.388v-.014l2.473-1.165zM2.348 35.917a6.927 6.927 0 003.429-1.664c1.675-1.529 4.015-1.529 5.69 0 2.565 2.34 6.288 2.34 8.853 0 1.683-1.536 3.773-1.536 5.456 0 2.577 2.351 6.04 2.351 8.618 0 1.683-1.536 3.773-1.536 5.456 0 2.565 2.34 6.288 2.34 8.852 0 1.676-1.529 4.016-1.529 5.691 0 .905.825 2.088 1.403 3.312 1.641v4.627a4.548 4.548 0 01-1.731-.962c-2.565-2.34-6.288-2.34-8.852 0-1.676 1.529-4.016 1.529-5.691 0-2.578-2.351-6.04-2.351-8.618 0-1.683 1.535-3.774 1.535-5.456 0-2.578-2.351-6.04-2.351-8.618 0-1.675 1.529-4.015 1.529-5.69 0-2.565-2.34-6.288-2.34-8.852 0-.501.457-1.163.803-1.85.992v-4.634zM30.026 7.651c3.361 0 4.448.418 4.653 1.786v.001c.39 2.599-2.07 7.6-4.653 7.6-2.44 0-4.691-4.348-4.691-7.04 0-1.732.709-2.347 4.691-2.347zM2.348 49.895v-6.937a6.928 6.928 0 003.429-1.665c1.675-1.528 4.015-1.528 5.69 0 2.565 2.34 6.288 2.34 8.853 0 1.683-1.535 3.773-1.535 5.456 0 2.577 2.352 6.04 2.352 8.618 0 1.683-1.535 3.773-1.535 5.456 0 2.565 2.34 6.288 2.34 8.852 0 1.676-1.528 4.016-1.528 5.691 0 .905.825 2.088 1.403 3.312 1.642v6.96H2.348z"/>
	<path fill="#A70230" d="M52.756 46.63a1.122 1.122 0 11-2.245 0 1.122 1.122 0 012.245 0zM38.164 46.63a1.122 1.122 0 11-2.245 0 1.122 1.122 0 012.245 0zM24.134 46.63a1.122 1.122 0 11-2.245 0 1.122 1.122 0 012.245 0zM9.543 46.63a1.122 1.122 0 11-2.245 0 1.122 1.122 0 012.245 0zM40.409 25.304a1.122 1.122 0 11-2.245 0 1.122 1.122 0 012.245 0z"/>
</symbol>
<symbol id="metro" viewBox="0 0 20 16">
	<path fill-rule="evenodd" d="M5.785.901a1 1 0 011.035.669l3.555 10.27L13.93 1.57a1 1 0 011.934.175l2 13a1 1 0 11-1.977.304L14.5 6.037l-3.18 9.187a1 1 0 01-1.89 0L6.25 6.037l-1.386 9.012a1 1 0 01-1.977-.304l2-13A1 1 0 015.785.9z" clip-rule="evenodd"/>
	<path fill-rule="evenodd" d="M.875 14.897a1 1 0 011-1h4a1 1 0 110 2h-4a1 1 0 01-1-1zM13.875 14.897a1 1 0 011-1h4a1 1 0 110 2h-4a1 1 0 01-1-1z" clip-rule="evenodd"/>
</symbol>
<symbol id="map" viewBox="0 0 19 17">
	<path fill-rule="evenodd" d="M6.263 1.029a1 1 0 01.943-.026l5.103 2.551 4.42-2.525a1 1 0 011.496.868V13.06a1 1 0 01-.504.869l-4.884 2.79a1 1 0 01-.944.027L6.79 14.194 2.371 16.72a1 1 0 01-1.496-.868V4.688a1 1 0 01.504-.868l4.884-2.791zm1.496 11.413l3.582 1.791V5.306L7.759 3.515v8.927zm-2-8.822v8.86l-2.884 1.648v-8.86L5.759 3.62zm7.582 1.648v8.86l2.884-1.648V3.62L13.34 5.268z" clip-rule="evenodd"/>
</symbol>
<symbol id="clock" viewBox="0 0 16 16">
	<path fill="#A70230" d="M8 16A8 8 0 108 0a8 8 0 000 16z"/>
	<path fill="#fff" fill-rule="evenodd" d="M7 4a1 1 0 011 1v3.288l2.523 1.06a1 1 0 01-.774 1.845L6.613 9.875A1 1 0 016 8.953V5a1 1 0 011-1z" clip-rule="evenodd"/>
</symbol>
<symbol id="tel" viewBox="0 0 13 17">
	<path fill="#A70230" d="M12.107 13.726l-.65 2.004c-.06.186-.16.36-.298.51-.136.149-.306.271-.496.358a1.655 1.655 0 01-1.231.057c-2.175-.804-4.105-2.065-5.636-3.68a13.018 13.018 0 01-3.08-5.143 12.546 12.546 0 01-.363-6.374c.042-.19.126-.37.248-.528.122-.16.278-.294.46-.396A1.661 1.661 0 012.278.377l2.19.567c.355.088.662.292.862.573.2.28.28.62.226.954a8.152 8.152 0 00-.098 2.01c.02.264-.043.53-.182.765-.14.234-.349.429-.604.56l-1.203.609c.497 1.941 1.561 3.718 3.08 5.142l1.203-.609a1.66 1.66 0 01.838-.17c.29.017.568.11.8.268.59.397 1.227.732 1.9.998.34.138.611.385.762.695.15.31.17.661.054.986z"/>
	<path fill="#A70230" d="M12.107 13.726l-.65 2.004c-.06.186-.16.36-.298.51-.136.149-.306.271-.496.358a1.655 1.655 0 01-1.231.057c-2.175-.804-4.105-2.065-5.636-3.68a13.018 13.018 0 01-3.08-5.143 12.546 12.546 0 01-.363-6.374c.042-.19.126-.37.248-.528.122-.16.278-.294.46-.396A1.661 1.661 0 012.278.377l2.19.567c.355.088.662.292.862.573.2.28.28.62.226.954a8.152 8.152 0 00-.098 2.01c.02.264-.043.53-.182.765-.14.234-.349.429-.604.56l-1.203.609c.497 1.941 1.561 3.718 3.08 5.142l1.203-.609a1.66 1.66 0 01.838-.17c.29.017.568.11.8.268.59.397 1.227.732 1.9.998.34.138.611.385.762.695.15.31.17.661.054.986z"/>
</symbol>
<symbol id="btn-arrow-form" viewBox="0 0 18 18">
	<g clip-path="url(#clip0)">
		<path fill="#A70230" fill-rule="evenodd" d="M9.671 1.106A1 1 0 108.257 2.52l5.293 5.293H1.964a1 1 0 100 2H13.55l-5.293 5.293A1 1 0 109.67 16.52l7-7a.997.997 0 00.294-.705l-.001-.002V8.81a.998.998 0 00-.287-.698l-.007-.007m-6.999-7l7 7z" clip-rule="evenodd"/>
	</g>

</symbol>
<symbol id="social-inst" viewBox="0 0 33 33">
	<path fill="#fff" fill-rule="evenodd" d="M.206 16.397c0-8.837 7.286-16 16.275-16 8.988 0 16.274 7.163 16.274 16s-7.286 16-16.274 16c-8.989 0-16.275-7.163-16.275-16z" clip-rule="evenodd"/>
	<path fill="#A70230" fill-rule="evenodd" d="M16.024 8.397c-2.138 0-2.407.01-3.246.047-.838.037-1.41.168-1.911.36a3.863 3.863 0 00-1.395.892c-.438.43-.707.862-.908 1.37-.196.493-.328 1.056-.366 1.88-.038.825-.048 1.089-.048 3.191s.01 2.365.048 3.19c.038.825.171 1.387.366 1.88.201.508.47.94.908 1.37.437.43.876.696 1.394.894.5.191 1.073.322 1.911.36.84.037 1.108.046 3.246.046s2.406-.01 3.245-.047 1.411-.168 1.912-.36a3.86 3.86 0 001.394-.893c.438-.43.707-.862.909-1.37.193-.493.326-1.056.365-1.88.038-.825.048-1.088.048-3.19s-.01-2.366-.048-3.192c-.039-.824-.172-1.386-.365-1.878a3.795 3.795 0 00-.909-1.371 3.855 3.855 0 00-1.394-.893c-.502-.191-1.075-.322-1.913-.36-.84-.037-1.107-.046-3.245-.046h.002zm-.69 1.55h.69c2.05 0 2.294.007 3.104.043.75.034 1.156.157 1.426.26.359.137.615.3.883.565.27.265.436.517.575.869.105.266.23.666.265 1.402.037.797.045 1.036.045 3.052s-.008 2.255-.045 3.051c-.034.737-.16 1.137-.265 1.403-.139.352-.306.603-.575.867a2.38 2.38 0 01-.883.565c-.27.104-.677.227-1.426.26-.81.037-1.053.045-3.105.045-2.051 0-2.294-.008-3.104-.044-.75-.034-1.156-.157-1.427-.26a2.385 2.385 0 01-.883-.566 2.339 2.339 0 01-.575-.868c-.105-.266-.23-.666-.265-1.402-.037-.797-.044-1.036-.044-3.053s.007-2.255.044-3.052c.034-.736.16-1.136.265-1.402.139-.353.306-.604.575-.869.269-.264.525-.428.883-.565.271-.104.678-.227 1.427-.26.709-.032.983-.042 2.415-.043v.002zm4.832 1.161a.78.78 0 00-.787.774.78.78 0 00.787.774.781.781 0 00.788-.774.781.781 0 00-.788-.774zm-4.142 1.16c-2.174 0-3.937 1.732-3.937 3.87 0 2.137 1.763 3.87 3.937 3.87s3.937-1.733 3.937-3.87c0-2.138-1.763-3.87-3.937-3.87zm0 1.547c1.304 0 2.362 1.04 2.362 2.322s-1.058 2.322-2.363 2.322c-1.304 0-2.362-1.04-2.362-2.322 0-1.283 1.058-2.322 2.362-2.322z" clip-rule="evenodd"/>
</symbol>
<symbol id="social-vk" viewBox="0 0 34 33">
	<path fill="#fff" fill-rule="evenodd" d="M.987 16.397c0-8.837 7.287-16 16.275-16s16.274 7.163 16.274 16-7.286 16-16.274 16c-8.988 0-16.275-7.163-16.275-16z" clip-rule="evenodd"/>
	<path stroke="#A70230" stroke-linecap="round" stroke-linejoin="round" d="M24.006 18.739c.416.398.846.81 1.227 1.271.21.256.447.565.631.923.176.346.179.735.007 1.042a.819.819 0 01-.689.432H22.75c-.677.052-1.29-.2-1.82-.747-.235-.242-.46-.495-.676-.74h0l-.013-.016-.298-.335a2.022 2.022 0 00-.373-.338c-.08-.052-.151-.077-.191-.067-.038.01-.086.063-.129.141-.152.281-.196.604-.215 1.003-.034.754-.345 1.062-1.111 1.098a8.96 8.96 0 01-.43.01c-1.242 0-2.312-.269-3.26-.818-.904-.522-1.687-1.262-2.464-2.328-1.105-1.514-2.073-3.258-3.139-5.655-.149-.336-.154-.619-.015-.84.14-.222.393-.337.755-.343a65.596 65.596 0 012.408-.001c.447.006.796.263.981.722a14.62 14.62 0 001.586 2.973h0c.154.22.314.448.526.595a.404.404 0 00.075.043.42.42 0 00.04-.078c.059-.14.095-.31.115-.532.07-.829.058-1.514-.037-2.154-.048-.33-.204-.501-.505-.56-.086-.016-.347-.066-.434-.316-.086-.247.083-.45.147-.525h0c.22-.262.496-.503 1.016-.503h2.766a.34.34 0 01.067.007c.694.138.81.583.87 1.026a.354.354 0 01.003.047l.002 3.108v.01c-.004.138.08.402.153.448a.885.885 0 00.158-.148h0l.03-.032c.67-.72 1.133-1.584 1.497-2.334.19-.389.355-.798.494-1.152.174-.442.493-.662.953-.655l2.658.003c.092 0 .19.001.294.02.212.036.514.115.676.385.162.27.095.576.03.783-.227.723-.65 1.317-1.06 1.89l-.048.067c-.21.294-.429.586-.64.869-.24.318-.486.647-.717.975-.155.218-.222.366-.212.466.01.1.106.238.301.431.143.142.292.284.436.421l.007.008z"/>
</symbol>
<symbol id="triangle" viewBox="0 0 17 10">
	<path fill="#fff" d="M8.167.372L16.284 10H.05L8.167.372z"/>
</symbol>
<symbol id="dropdown-input-search" viewBox="0 0 17 16">
	<path fill="#A70230" fill-rule="evenodd" d="M2.5 7.222a5.222 5.222 0 118.994 3.612 1.009 1.009 0 00-.161.16A5.222 5.222 0 012.5 7.222zm9.572 5.765a7.222 7.222 0 111.414-1.414l2.72 2.72a1 1 0 01-1.414 1.414l-2.72-2.72z" clip-rule="evenodd"/>
</symbol>
<symbol id="submenu-icon-stock" viewBox="0 0 18 16">
	<circle cx="4" cy="4" r="3" stroke="#A70230" stroke-width="2"/>
	<circle cx="14" cy="12" r="3" stroke="#A70230" stroke-width="2"/>
	<path stroke="#A70230" stroke-linecap="round" stroke-linejoin="round" stroke-width="2" d="M2 15L16 1"/>
</symbol>
<symbol id="submenu-icon-cakes" viewBox="0 0 25 21">
	<path stroke="#A70230" stroke-width="2" d="M5 9a1 1 0 011-1h13a1 1 0 011 1v11H5V9z"/>
	<path stroke="#A70230" stroke-linecap="round" stroke-linejoin="round" stroke-width="2" d="M1 20h23"/>
	<path fill="#A70230" d="M11.5 7l.707-.707L11.5 7zm-2-5l-.707-.707L9.5 2zm4 5l-.707-.707L13.5 7zm2-5l-.707.707L15.5 2zm-3 0l-.707.707.707.707.707-.707L12.5 2zm-.293 4.293c-.513-.513-1.298-1.305-1.787-2.12-.244-.407-.364-.74-.384-.984a.543.543 0 01.171-.482L8.793 1.293a2.536 2.536 0 00-.75 2.065c.057.677.344 1.314.662 1.844.636 1.06 1.601 2.018 2.088 2.505l1.414-1.414zM13.5 9c0-.604-.31-1.723-1.293-2.707l-1.414 1.414c.3.3.48.606.585.854.052.125.084.233.102.315.02.088.02.13.02.124h2zm0 0c0 .006 0-.036.02-.124.018-.082.05-.19.102-.315.104-.248.284-.553.585-.854l-1.414-1.414C11.809 7.277 11.5 8.396 11.5 9h2zm.707-1.293c.487-.487 1.452-1.445 2.088-2.505.318-.53.605-1.167.662-1.844a2.536 2.536 0 00-.75-2.065l-1.414 1.414a.543.543 0 01.171.482c-.02.245-.14.577-.384.984-.49.815-1.274 1.607-1.787 2.12l1.414 1.414zm2-6.414c-.83-.83-1.78-1.056-2.63-.918a3.368 3.368 0 00-1.784.918l1.414 1.414c.137-.137.405-.31.691-.358.225-.036.525-.011.895.358l1.414-1.414zm-6 1.414c.37-.37.67-.394.895-.358.286.047.554.221.69.358l1.415-1.414a3.368 3.368 0 00-1.784-.918c-.85-.138-1.8.087-2.63.918l1.414 1.414z"/>
	<path stroke="#A70230" stroke-linecap="round" stroke-linejoin="round" stroke-width="2" d="M5 15.5c.167.167.7.2 1.5-1C7.5 13 8.5 12 9 12s1 .5 2 2 1 1.5 1.5 1.5.5 0 1.5-1.5 1.5-2 2-2 1.5 2 2 2.5 1 1 1.5 1"/>
</symbol>
<symbol id="submenu-icon-cakes-on-order" viewBox="0 0 20 24">
	<path stroke="#A70230" stroke-linecap="round" stroke-linejoin="round" stroke-width="2" d="M10.53 6L19 12.032M1 14.774l18-2.742M1 14.774v4.113m0-4.113L6.652 9.5M19 12.032v4.113M1 18.887V23l18-2.742v-4.113M1 18.887l18-2.742"/>
	<circle cx="8.5" cy="7.5" r="2.5" stroke="#A70230" stroke-width="2"/>
	<path stroke="#A70230" stroke-linecap="round" stroke-linejoin="round" stroke-width="2" d="M6 2.223c.463.197.89.498 1.247.9.356.402.602.862.742 1.346"/>
</symbol>
<symbol id="submenu-icon-confectionary" viewBox="0 0 22 23">
	<path stroke="#A70230" stroke-linecap="round" stroke-linejoin="round" stroke-width="2" d="M4.895 22l-.778-7h13.766l-.778 7H4.895z"/>
	<rect width="20" height="5" x="1" y="10" stroke="#A70230" stroke-linecap="round" stroke-linejoin="round" stroke-width="2" rx="2.5"/>
	<rect width="14" height="5" x="4" y="5" stroke="#A70230" stroke-linecap="round" stroke-linejoin="round" stroke-width="2" rx="2.5"/>
	<path stroke="#A70230" stroke-linecap="round" stroke-linejoin="round" stroke-width="2" d="M11 4V1M9 19v-1m4 1v-1"/>
</symbol>
<symbol id="submenu-icon-pies" viewBox="0 0 24 23">
	<path stroke="#A70230" stroke-width="2" d="M9.5 12.5v1h10.448c-.5 4.777-4.539 8.5-9.448 8.5A9.5 9.5 0 011 12.5c0-4.909 3.723-8.948 8.5-9.448V12.5z"/>
	<path stroke="#A70230" stroke-linecap="round" stroke-linejoin="round" stroke-width="2" d="M14 1.052c4.448.465 7.983 4 8.448 8.448H14V1.052z"/>
	<circle cx="6" cy="9" r="1" fill="#A70230"/>
	<circle cx="5" cy="13" r="1" fill="#A70230"/>
	<circle cx="7" cy="17" r="1" fill="#A70230"/>
	<circle cx="15" cy="17" r="1" fill="#A70230"/>
	<circle cx="11" cy="18" r="1" fill="#A70230"/>
</symbol>
<symbol id="submenu-icon-cooked-foods" viewBox="0 0 21 20">
	<path stroke="#A70230" stroke-linecap="round" stroke-linejoin="round" stroke-width="2" d="M4 19h13"/>
	<path stroke="#A70230" stroke-width="2" d="M19.942 10c-.524 4.465-4.512 8-9.442 8-4.93 0-8.918-3.535-9.442-8h18.884z"/>
	<path stroke="#A70230" stroke-linecap="round" stroke-linejoin="round" stroke-width="2" d="M3 14h15M2 9a5 5 0 0110 0M12 9c0-2.21 1.567-4 3.5-4S19 6.79 19 9M15 4c0-1.657-1.373-3-3.066-3C10.552 1 9.381 1.897 9 3.13"/>
</symbol>
<symbol id="submenu-icon-pancakes" viewBox="0 0 21 18">
	<path stroke="#A70230" stroke-width="2" d="M2.133 11.104C1.41 11.668 1 12.314 1 13c0 2.21 4.253 4 9.5 4s9.5-1.79 9.5-4c0-.643-.36-1.25-1-1.788"/>
	<path stroke="#A70230" stroke-width="2" d="M2.133 7C1.41 7.564 1 8.21 1 8.896c0 1.995 3.466 3.648 8 3.95m3.674-.055c1.995-.196 3.748-.658 5.038-1.291"/>
	<path fill="#A70230" fill-rule="evenodd" d="M2 5c0-.208.096-.494.452-.848.36-.359.932-.728 1.719-1.059C5.74 2.433 7.977 2 10.5 2c2.523 0 4.76.433 6.33 1.093.786.331 1.358.7 1.718 1.059.356.354.452.64.452.848v4.8a.64.64 0 01-.138.364c-.069.083-.234.236-.695.236-.461 0-.627-.153-.696-.236a.64.64 0 01-.138-.364V8.733c0-.457-.147-1.094-.595-1.636-.481-.583-1.232-.964-2.238-.964s-1.757.38-2.238.964a2.632 2.632 0 00-.595 1.636V12.5a.64.64 0 01-.138.364c-.07.083-.235.236-.696.236-.46 0-.626-.153-.695-.236A.64.64 0 0110 12.5V8a1 1 0 00-1.994-.11 1.001 1.001 0 00-.252-.068c-1.838-.246-3.36-.724-4.39-1.308C2.28 5.9 2 5.336 2 5zm6 4.739a.995.995 0 01-.511.065c-2.002-.267-3.791-.802-5.111-1.55C1.11 7.536 0 6.451 0 5c0-.897.436-1.663 1.041-2.266.601-.598 1.42-1.091 2.353-1.484C5.264.463 7.776 0 10.5 0c2.723 0 5.236.463 7.106 1.25.932.393 1.752.886 2.353 1.484C20.564 3.337 21 4.104 21 5v4.8c0 .457-.148 1.094-.595 1.636-.481.584-1.233.964-2.238.964-1.006 0-1.757-.38-2.238-.964a2.632 2.632 0 01-.596-1.636V8.733a.64.64 0 00-.138-.363c-.069-.084-.234-.237-.695-.237-.461 0-.626.153-.695.237a.64.64 0 00-.138.363V12.5c0 .457-.148 1.094-.596 1.636-.48.584-1.232.964-2.238.964-1.005 0-1.757-.38-2.238-.964A2.632 2.632 0 018 12.5V9.739z" clip-rule="evenodd"/>
</symbol>
<symbol id="submenu-icon-cheese" viewBox="0 0 21 23">
	<path stroke="#A70230" stroke-linecap="round" stroke-linejoin="round" stroke-width="2" d="M20 16L10.5 1 1 16M20 16.5c0 3.038-4.253 5.5-9.5 5.5S1 19.538 1 16.5"/>
	<path stroke="#A70230" stroke-linecap="round" stroke-linejoin="round" stroke-width="2" d="M6.5 8.111A4.502 4.502 0 015.5 17a4.494 4.494 0 01-3.65-1.866"/>
	<circle cx="15" cy="19" r="2" stroke="#A70230" stroke-linecap="round" stroke-linejoin="round" stroke-width="2"/>
	<circle cx="14" cy="13" r="1" fill="#A70230"/>
</symbol>
<symbol id="submenu-icon-freeze" viewBox="0 0 25 17">
	<path stroke="#A70230" stroke-linecap="round" stroke-linejoin="round" stroke-width="2" d="M4 16c-1.657 0-3-1.567-3-3.5S2.343 9 4 9"/>
	<path stroke="#A70230" stroke-width="2" d="M4 16h17"/>
	<path stroke="#A70230" stroke-linecap="round" stroke-linejoin="round" stroke-width="2" d="M21 16c1.657 0 3-1.567 3-3.5S22.657 9 21 9M4.03 8.531c-.837-1.674-.34-3.815 1.109-4.781 1.45-.966 3.303-.393 4.14 1.281M20.97 8.531c.837-1.674.34-3.815-1.109-4.781-1.45-.966-3.303-.393-4.14 1.281M9 4c0-1.657 1.567-3 3.5-3S16 2.343 16 4M8 11c.9-1.5 2.015-3 4.5-3s3.6 1.5 4.5 3"/>
</symbol>
<symbol id="submenu-icon-salad" viewBox="0 0 24 25">
	<path stroke="#A70230" stroke-linecap="round" stroke-linejoin="round" stroke-width="2" d="M1 20.875c1.167-.833 3.5-3.2 3.5-6 0-3.5-.5-6 .5-8s2.5-2 3-1.5c.4.4.5 1.167.5 1.5.167-.833.8-2.9 2-4.5 1.5-2 3.5-1.5 4-.5.4.8.5 1.667.5 2 .5-.667 1.3-1.6 2.5-2 1.5-.5 3.21-.29 4 .5 1 1 1.5 2.5 1 4-.4 1.2-1.833 2.167-2.5 2.5.667.167 2.1.8 2.5 2 .5 1.5-.5 3-2 4-1.2.8-2.667.5-3 .5.5.167 1.9 1.3 1.5 2.5-.5 1.5-1.5 2-5.5 2s-5.5.5-7.5 1.5c-1.6.8-2.333 1.667-2.5 2"/>
	<path stroke="#A70230" stroke-linecap="round" stroke-linejoin="round" stroke-width="2" d="M8 16.875c1.167-.5 3.8-2.2 5-5 1.2-2.8 3.833-4.5 5-5"/>
	<path stroke="#A70230" stroke-linecap="round" stroke-linejoin="round" stroke-width="2" d="M9.5 11.375c1 1 1 1.7 1 2.5s0 1.5-1.5 2.5M13 11.875c1-1 1.7-1 2.5-1s1.667.333 2 .5"/>
</symbol>
<symbol id="submenu-icon-meat" viewBox="0 0 28 17">
	<circle cx="8.5" cy="8.5" r="7.5" stroke="#A70230" stroke-width="2"/>
	<rect width="21" height="15" x="1" y="1" stroke="#A70230" stroke-width="2" rx="7.5"/>
	<path stroke="#A70230" stroke-linecap="round" stroke-linejoin="round" stroke-width="2" d="M22 6.5L25 5c.667.5 2 1.9 2 3.5s-1.333 3-2 3.5l-3-1.5"/>
	<circle cx="10" cy="6" r="1" fill="#A70230"/>
	<circle cx="7" cy="11" r="1" fill="#A70230"/>
	<circle cx="11" cy="10" r="1" fill="#A70230"/>
	<circle cx="5" cy="7" r="1" fill="#A70230"/>
</symbol>
<symbol id="submenu-icon-icecream" viewBox="0 0 20 22">
	<path stroke="#A70230" stroke-linecap="round" stroke-linejoin="round" stroke-width="2" d="M2.151 21L1.11 11h17.78L17.85 21H2.15zM6 17v-2m4 2v-2m4 2v-2M1 10a5 5 0 0110 0M11 10a4 4 0 018 0"/>
	<path stroke="#A70230" stroke-linecap="round" stroke-linejoin="round" stroke-width="2" d="M16 6c0-2.761-2.287-5-5.11-5C8.586 1 6.636 2.495 6 4.55"/>
</symbol>
<symbol id="submenu-icon-jp" viewBox="0 0 20 17">
	<circle cx="10" cy="5" r="4" stroke="#A70230" stroke-width="2"/>
	<circle cx="5" cy="12" r="4" stroke="#A70230" stroke-width="2"/>
	<circle cx="15" cy="12" r="4" stroke="#A70230" stroke-width="2"/>
	<circle cx="5" cy="12" r="1" fill="#A70230"/>
	<circle cx="10" cy="5" r="1" fill="#A70230"/>
	<circle cx="15" cy="12" r="1" fill="#A70230"/>
</symbol>
<symbol id="submenu-icon-burito" viewBox="0 0 17 24">
	<path stroke="#A70230" stroke-linecap="round" stroke-linejoin="round" stroke-width="2" d="M3.749 7.34a3.535 3.535 0 116.601.404"/>
	<circle cx="12.5" cy="5" r="2" stroke="#A70230" stroke-linecap="round" stroke-linejoin="round" stroke-width="2"/>
	<circle cx="3.5" cy="12" r="1" fill="#A70230"/>
	<circle cx="6.5" cy="15" r="1" fill="#A70230"/>
	<circle cx="4.5" cy="18" r="1" fill="#A70230"/>
	<path stroke="#A70230" stroke-linecap="round" stroke-linejoin="round" stroke-width="2" d="M1 22.5h9v-5c0-2 0-6-2-8S2.333 6.833 1 7v15.5z"/>
	<path stroke="#A70230" stroke-linecap="round" stroke-linejoin="round" stroke-width="2" d="M6.5 22.5h9V7c-1.333-.167-5 .5-7 2.5"/>
</symbol>
<symbol id="submenu-icon-musli" viewBox="0 0 28 20">
	<path stroke="#A70230" stroke-width="2" d="M6 16h15"/>
	<circle cx="10" cy="3" r="2" stroke="#A70230" stroke-linecap="round" stroke-linejoin="round" stroke-width="2"/>
	<path stroke="#A70230" stroke-linecap="round" stroke-linejoin="round" stroke-width="2" d="M6 16c-1.105 0-2-1.343-2-3s.895-3 2-3M21 16a3 3 0 100-6M6.315 10.025c-.738-1.34-.3-3.052.977-3.825 1.278-.773 2.911-.315 3.649 1.025"/>
	<path stroke="#A70230" stroke-linecap="round" stroke-linejoin="round" stroke-width="2" d="M21.245 10.025c.738-1.34.3-3.052-.978-3.825-1.277-.773-2.91-.315-3.648 1.025M11 6c0-1.105 1.343-2 3-2s3 .895 3 2M10.575 12.87c.015-.806.124-1.66 1.217-2.233 1.092-.573 1.963-.231 2.739.16M1 16h26M6 19h16"/>
</symbol>
<symbol id="submenu-icon-coffee" viewBox="0 0 29 30">
	<path stroke="#A70230" stroke-linecap="round" stroke-linejoin="round" stroke-width="2" d="M18.48 23.552c2.838-2.837 1.998-7.727-1.154-10.879-3.151-3.151-8.041-3.99-10.878-1.154-2.837 2.837-1.997 7.727 1.154 10.879 3.152 3.151 8.042 3.99 10.879 1.154z"/>
	<path stroke="#A70230" stroke-linecap="round" stroke-linejoin="round" stroke-width="2" d="M11.417 9.403c2.085-4.089 6.37-6.08 9.569-4.449 3.2 1.632 4.103 6.269 2.018 10.357a10.119 10.119 0 01-2.58 3.24M7.389 11.411c.06.476.348 2.153 1.633 3.716 1.931 2.348 3.508 1.841 6.123 4.04 1.178.99 2.377 2.793 2.793 3.625"/>
	<path stroke="#A70230" stroke-linecap="round" stroke-linejoin="round" stroke-width="2" d="M22.043 6.204c-.505.194-2.25.96-3.435 2.756-.945 1.43-1.038 2.534-1.114 3.76"/>
</symbol>
<symbol id="submenu-icon-butter" viewBox="0 0 26 17">
	<path fill="#A70230" fill-rule="evenodd" d="M11 1a1 1 0 011 1v6.654a.33.33 0 00.08.175c.027.03.07.068.148.1.08.034.218.071.439.071.22 0 .358-.037.438-.07a.395.395 0 00.149-.1.331.331 0 00.08-.176V5.485c0-.434.15-1.018.586-1.507.465-.521 1.168-.839 2.08-.839.912 0 1.615.318 2.08.84a2.31 2.31 0 01.587 1.506v.897a.331.331 0 00.08.175c.026.031.07.069.148.101.08.034.218.07.438.07s.358-.036.439-.07a.393.393 0 00.148-.1.33.33 0 00.064-.11c.013-.035.015-.06.016-.065 0-.001 0-.001 0 0V5a1 1 0 112 0v1.382a2.31 2.31 0 01-.587 1.507c-.465.522-1.168.84-2.08.84-.911 0-1.615-.318-2.08-.84a2.31 2.31 0 01-.586-1.507v-.897a.331.331 0 00-.08-.175.394.394 0 00-.149-.1A1.14 1.14 0 0016 5.138c-.22 0-.358.037-.438.07a.394.394 0 00-.149.1.331.331 0 00-.064.11c-.013.036-.015.061-.016.066v3.169a2.31 2.31 0 01-.587 1.507c-.464.521-1.168.839-2.08.839-.911 0-1.614-.318-2.08-.84A2.31 2.31 0 0110 8.655V2a1 1 0 011-1z" clip-rule="evenodd"/>
	<path stroke="#A70230" stroke-linecap="round" stroke-linejoin="round" stroke-width="2" d="M1 13h24M5 16h16"/>
	<path stroke="#A70230" stroke-width="2" d="M5 4a3 3 0 013-3h10a3 3 0 013 3v9H5V4z"/>
</symbol>
<symbol id="submenu-icon-pizza" viewBox="0 0 33 32">
	<path stroke="#A70230" stroke-linecap="round" stroke-linejoin="round" stroke-width="2" d="M20.385 25.546l3.89-17.324L6.95 12.11M20.385 25.546c-2.733 2.733-7.957 1.942-11.667-1.768S4.217 14.845 6.95 12.111"/>
	<path stroke="#A70230" stroke-linecap="round" stroke-linejoin="round" stroke-width="2" d="M9.778 12.11c-.581 2.822.248 5.906 2.475 8.133 2.227 2.226 5.31 3.056 8.132 2.474"/>
	<circle cx="14.021" cy="14.939" r="1" fill="#A70230" transform="rotate(45 14.021 14.94)"/>
	<circle cx="19.678" cy="16.354" r="1" fill="#A70230" transform="rotate(45 19.678 16.354)"/>
	<path stroke="#A70230" stroke-linecap="round" stroke-linejoin="round" stroke-width="2" d="M18.97 12.818l-1.767.354m-1.06 6.01v-1.414"/>
</symbol>
<symbol id="has-submenu" viewBox="0 0 4 6">
	<path fill="#A70230" fill-rule="evenodd" d="M.197 5.481a.5.5 0 010-.707l1.647-1.646L.197 1.48A.5.5 0 11.904.774l2 2a.5.5 0 010 .707l-2 2a.5.5 0 01-.707 0z" clip-rule="evenodd"/>
</symbol>
<symbol id="express-close" viewBox="0 0 15 15">
	<path fill="#000" fill-rule="evenodd" d="M.225.231a.755.755 0 011.088 0L7.5 6.581 13.687.23a.755.755 0 011.088 0c.3.309.3.808 0 1.117l-6.187 6.35 5.802 5.954c.3.309.3.809 0 1.117a.755.755 0 01-1.088 0L7.5 8.814l-5.802 5.955a.755.755 0 01-1.088 0 .804.804 0 010-1.117l5.802-5.955-6.187-6.35a.804.804 0 010-1.116z" clip-rule="evenodd"/>
</symbol>
<symbol id="catalog-tags-deactive" viewBox="0 0 10 9">
	<path fill="#FDF0E2" fill-rule="evenodd" d="M1.084 7.293a1 1 0 001.414 1.414l2.793-2.793 2.793 2.793a1 1 0 001.414-1.414L6.705 4.5l2.793-2.793A1 1 0 108.084.293L5.291 3.086 2.498.293a1 1 0 10-1.414 1.414L3.877 4.5 1.084 7.293z" clip-rule="evenodd"/>
</symbol>
<symbol id="express-deliveryman" viewBox="0 0 82 71">
	<path fill="#fff" fill-rule="evenodd" d="M58.18 14.207a5.683 5.683 0 100-11.365 5.683 5.683 0 000 11.365zm0 2.841A8.524 8.524 0 1058.18 0a8.524 8.524 0 000 17.048z" clip-rule="evenodd"/>
	<path fill="#fff" fill-rule="evenodd" d="M50.225 7.767c0-.785.636-1.42 1.42-1.42h20.837a1.42 1.42 0 010 2.84H51.645a1.42 1.42 0 01-1.42-1.42zM5.425 14.965c0-.784.636-1.42 1.42-1.42h1.326a1.42 1.42 0 010 2.84H6.845a1.42 1.42 0 01-1.42-1.42zM.5 47.357c0-.785.636-1.421 1.42-1.421h10.987a1.42 1.42 0 010 2.841H1.921A1.42 1.42 0 01.5 47.357zM3.72 8.714c0-.785.636-1.421 1.421-1.421h12.881a1.42 1.42 0 010 2.841H5.141a1.42 1.42 0 01-1.42-1.42zM37.438 2.084c0-.785.636-1.42 1.42-1.42h5.115a1.42 1.42 0 010 2.84H38.86a1.42 1.42 0 01-1.421-1.42z" clip-rule="evenodd"/>
	<path fill="transparent" stroke="#fff" stroke-miterlimit="10" stroke-width="3" d="M46.906 18.917L35.294 37.136l-1.693 2.658a4.78 4.78 0 01-6.603 1.462l-9.226-5.88a4.781 4.781 0 01-1.462-6.603l1.567-2.459 9.912-15.554 1.826-2.864a4.781 4.781 0 016.604-1.462l9.225 5.88a4.78 4.78 0 011.462 6.603z"/>
	<path fill="#fff" fill-rule="evenodd" d="M26.096 11.943a1.42 1.42 0 011.956-.46L43.49 21.05a1.42 1.42 0 11-1.496 2.415L26.555 13.9a1.42 1.42 0 01-.459-1.956zm-8.692 13.322a1.42 1.42 0 011.968-.405l15.817 10.418a1.42 1.42 0 11-1.563 2.373L17.809 27.232a1.42 1.42 0 01-.405-1.967z" clip-rule="evenodd"/>
	<path fill="#fff" fill-rule="evenodd" d="M38.104 6.756c.663.42.86 1.298.44 1.96l-4.926 7.767a1.42 1.42 0 01-2.4-1.521l4.926-7.767a1.42 1.42 0 011.96-.439zm5.956 3.877c.667.414.871 1.29.457 1.957l-4.83 7.766a1.42 1.42 0 01-2.414-1.5l4.83-7.767a1.42 1.42 0 011.957-.456zm9.628 14.22a1.42 1.42 0 011.708 1.058l2.557 10.892a1.42 1.42 0 11-2.766.65L52.63 26.56a1.42 1.42 0 011.058-1.707zM34.01 36.764a1.42 1.42 0 011.803-.886l16.67 5.682a1.42 1.42 0 11-.918 2.69l-16.67-5.683a1.42 1.42 0 01-.885-1.803z" clip-rule="evenodd"/>
	<path fill="#fff" fill-rule="evenodd" d="M60.688 17.346c.765.553 1.54 1.2 1.939 1.822.206.32.338.713.43 1.03.1.35.192.758.276 1.195.168.876.32 1.95.457 3.072.211 1.742.388 3.651.518 5.213l12.026.45a5.363 5.363 0 015.162 5.557v.001a5.363 5.363 0 01-5.56 5.16l-16.141-.603a5.335 5.335 0 01-3.748-1.733l-2.523 4.221 4.224 4.224c1.425 1.424 2.327 3.166 2.327 5.232 0 .878-.293 1.725-.666 2.43a7.271 7.271 0 01-1.444 1.887l-13.568 12.59v.001a5.362 5.362 0 01-7.579-.283 5.362 5.362 0 01.283-7.58l.003-.002 9.03-8.293-5.758-4.496L20.53 66.857a5.362 5.362 0 01-7.578-.282 5.362 5.362 0 01.283-7.58l16.04-14.882L47.049 16.08l.003-.005 1.194.771c-1.194-.77-1.193-.772-1.193-.772l.001-.002.002-.003.004-.007.01-.014a2.655 2.655 0 01.09-.125c.053-.068.123-.153.213-.25.18-.193.435-.432.784-.679.702-.497 1.749-1.006 3.238-1.254.99-.165 2.134.08 3.148.41 1.064.345 2.197.855 3.252 1.413 1.057.56 2.07 1.187 2.893 1.783zm-11.268.3a2.225 2.225 0 01.38-.334c.35-.248.994-.591 2.062-.77.29-.048.89.013 1.804.31.864.28 1.842.715 2.799 1.222a22.32 22.32 0 012.557 1.574c.737.533 1.108.904 1.205 1.042 0 .004.039.085.099.294.068.236.14.553.216.945.15.782.294 1.783.427 2.879.265 2.186.477 4.665.607 6.352l.097 1.263 14.558.544a2.521 2.521 0 012.426 2.614M49.42 17.646l-17.944 28.3-16.31 15.133a2.52 2.52 0 103.43 3.697v-.001l21.622-20.063 10.308 8.05-11.492 10.554-.003.002a2.52 2.52 0 00-.13 3.56v.001a2.52 2.52 0 003.563.134L56.032 54.42c.32-.297.636-.702.867-1.136.236-.445.334-.83.334-1.098 0-1.155-.48-2.208-1.494-3.223l-5.79-5.79 5.367-8.98h1.986l.218 1.157a2.521 2.521 0 002.38 2.053l16.142.602a2.522 2.522 0 002.615-2.425" clip-rule="evenodd"/>
</symbol>
<symbol id="filter-reset" viewBox="0 0 18 16">
	<path fill="#A70230" fill-rule="evenodd" d="M4 4.462A6.22 6.22 0 018.987 2c3.432 0 6.173 2.71 6.173 6s-2.74 6-6.173 6a6.218 6.218 0 01-5.022-2.511 1 1 0 00-1.61 1.186A8.218 8.218 0 008.986 16c4.49 0 8.173-3.559 8.173-8s-3.682-8-8.173-8A8.223 8.223 0 002.5 3.133V1.659a1 1 0 10-2 0v3.803a1 1 0 001 1h3.803a1 1 0 100-2H4.001z" clip-rule="evenodd"/>
</symbol>
<symbol id="button-plus" viewBox="0 0 11 10">
	<path fill="#fff" fill-rule="evenodd" d="M6.5 1a1 1 0 00-2 0v3h-3a1 1 0 000 2h3v3a1 1 0 102 0V6h3a1 1 0 100-2h-3V1z" clip-rule="evenodd"/>
</symbol>
<symbol id="products-pickup-icon" viewBox="0 0 90 89">
	<g fill="#A70230" clip-path="url(#clip0)">
		<path d="M83.382 27.194H81.55a1.739 1.739 0 000 3.476h1.832a1.738 1.738 0 000-3.476zM78.44 18.525c.445 0 .89-.17 1.23-.51l1.295-1.295a1.739 1.739 0 00-2.459-2.458l-1.295 1.295a1.738 1.738 0 001.23 2.968zM79.67 39.849a1.739 1.739 0 00-2.46 2.458l1.296 1.296c.34.34.785.51 1.23.51a1.738 1.738 0 001.23-2.968l-1.297-1.296zM10.185 28.932c0-.96-.778-1.738-1.738-1.738H6.615a1.739 1.739 0 000 3.476h1.832c.96 0 1.738-.778 1.738-1.738zM10.33 39.849l-1.296 1.296a1.738 1.738 0 002.458 2.458l1.296-1.296a1.739 1.739 0 00-2.459-2.458zM11.491 14.261a1.739 1.739 0 00-2.458 2.459l1.295 1.295c.34.34.785.51 1.23.51a1.738 1.738 0 001.23-2.968L11.49 14.26zM73.844 28.266a1.756 1.756 0 00-1.625-1.071c-.73.006-1.388.49-1.625 1.178a1.749 1.749 0 00.565 1.92c.572.45 1.378.496 1.998.114a1.754 1.754 0 00.687-2.141z"/>
		<path d="M71.579 35.145a1.738 1.738 0 00-2.168 1.159c-2.703 8.913-10.12 15.65-19.147 17.544V43.487h5.473c.872 0 1.608-.645 1.723-1.51l2.195-16.48a1.74 1.74 0 00-.444-3.42H30.854a1.738 1.738 0 00-.444 3.42l2.195 16.48a1.738 1.738 0 001.723 1.51h5.359v10.337c-11.599-2.486-20.121-12.86-20.121-24.892 0-14.036 11.424-25.455 25.466-25.455 11.132 0 21.159 7.442 24.383 18.098a1.739 1.739 0 003.328-1.007c-1.761-5.82-5.422-11.056-10.308-14.741A28.677 28.677 0 0045.032 0C29.073 0 16.09 12.979 16.09 28.932c0 12.32 7.862 23.11 19.06 27.194a3.866 3.866 0 00-2.563 3.633v11.074c0 .03.001 3.046.007 3.198.178 4.907 2.585 8.033 6.62 8.576.633.079 1.11.616 1.11 1.25v3.405c0 .96.78 1.738 1.739 1.738H58.6c.96 0 1.738-.778 1.738-1.738v-2.778c.256-.169.748-.451 1.65-.854 5.49-2.444 6.087-4.171 6.087-9.928v-11.34c0-1.43-.59-2.83-1.618-3.84a5.201 5.201 0 00-3.772-1.513c-1.22.023-6.735-.01-10.508-.038 9.713-2.48 17.61-9.927 20.56-19.658.28-.919-.24-1.89-1.158-2.168zm-37.654-9.591H56.14L54.215 40.01h-5.193a5.284 5.284 0 00-4.046-1.883 5.284 5.284 0 00-4.047 1.883H35.85l-1.925-14.456zm28.826 34.93c.465-.007.921.176 1.271.52.366.36.576.854.576 1.358v11.34c0 2.4-.078 3.68-.521 4.456-.412.72-1.361 1.343-3.503 2.297-2.292 1.02-3.713 1.954-3.713 3.454v1.614H43.8v-1.667a4.742 4.742 0 00-4.14-4.697c-2.264-.305-3.473-2.067-3.592-5.24-.003-.255-.005-2.846-.005-3.086V59.759c0-.21.174-.382.388-.382 1.784 0 3.235 1.442 3.236 3.215v6.776a1.739 1.739 0 003.476 0V43.405a1.81 1.81 0 011.813-1.802c.999 0 1.812.809 1.812 1.802v15.276c0 .955.77 1.73 1.724 1.739.501.003 12.307.101 14.239.065z"/>
		<path d="M48.487 37.082a1.739 1.739 0 001.929-1.525l.616-5.271a1.738 1.738 0 00-3.453-.404l-.617 5.272a1.739 1.739 0 001.525 1.928zM41.38 37.094a1.738 1.738 0 001.729-1.94l-.617-5.272a1.739 1.739 0 00-3.453.404l.616 5.272a1.739 1.739 0 001.725 1.536zM46.182 10.165a1.738 1.738 0 00-2.294 0l-7.205 6.332a1.738 1.738 0 102.295 2.611l6.057-5.323 6.057 5.323a1.734 1.734 0 002.453-.158 1.738 1.738 0 00-.158-2.453l-7.205-6.332z"/>
	</g>

</symbol>
<symbol id="404" viewBox="0 0 422 240">
	<path fill="#fff" stroke="#A70230" stroke-linecap="round" stroke-linejoin="round" stroke-width="4" d="M65.846 181V53M80.5 142.6H2L47.5 79M404.846 181V53m14.654 89.6H341L386.5 79"/>
	<circle cx="212" cy="119" r="117" fill="#fff" stroke="#A70230" stroke-width="4"/>
	<circle cx="212" cy="119" r="96" fill="#fff" stroke="#A70230" stroke-width="4"/>
	<path fill="#fff" stroke="#A70230" stroke-linecap="round" stroke-linejoin="round" stroke-width="4" d="M322.5 7v15m-7.5-7.5h15M92.5 211v27M79 224.5h27"/>
	<circle cx="334.5" cy="36.5" r="4.5" fill="#fff" stroke="#A70230" stroke-width="4"/>
	<path fill="#A70230" d="M243.88 153.424c-1.794-5.361-3.887-10.419-6.428-15.251.075-.076.149-.227.299-.302 5.755-6.569 8.221-15.78 3.812-24.84-3.812-7.852-12.258-14.42-23.319-18.648-10.688-4.152-23.843-6.115-37.446-5.134-1.046.076-1.868.982-1.793 2.038.074.529.299 1.057.747 1.36 6.876 5.964 9.343 14.948 11.884 23.933 1.495 5.285 2.915 10.494 5.306 15.326 0 .076.075.076.075.151 5.755 11.25 14.575 15.327 22.946 14.798 3.438-.226 6.726-1.208 9.791-2.718a29.96 29.96 0 004.858-3.171c2.167 4.379 4.11 8.909 5.68 13.741.299.982 1.42 1.51 2.392 1.208 1.046-.453 1.569-1.51 1.196-2.491zm-14.874-28.69c-6.502-8.381-14.574-15.553-24.589-21.216-.897-.528-2.093-.226-2.542.755-.523.906-.224 2.114.748 2.567 9.492 5.436 17.265 12.231 23.468 20.234a91.983 91.983 0 016.727 10.193c-1.495 1.434-3.064 2.567-4.783 3.397-2.616 1.359-5.382 2.19-8.297 2.341-7.025.453-14.425-3.02-19.432-12.76v-.075c-2.168-4.53-3.588-9.589-5.008-14.723-2.317-8.154-4.559-16.308-10.015-22.725 11.51-.302 22.497 1.586 31.615 5.134 10.165 3.926 17.938 9.815 21.301 16.761 3.513 7.172 1.719 14.496-2.69 19.856a84.71 84.71 0 00-6.503-9.739z"/>
</symbol>
<symbol id="search-result" viewBox="0 0 170 170">
	<circle cx="85" cy="85" r="85" fill="#FDF0E2"/>
	<path stroke="#A70230" stroke-linecap="round" stroke-linejoin="round" stroke-width="3" d="M107.07 107.882l4.722 4.722"/>
	<rect width="25.686" height="25.686" x="45.5" y="46.5" fill="#FDF0E2" stroke="#A70230" stroke-width="3" rx="8"/>
	<path fill="#FDF0E2" stroke="#A70230" stroke-linecap="round" stroke-linejoin="round" stroke-width="3" d="M114.249 89.75c0 12.831-10.401 23.232-23.231 23.232-12.83 0-23.23-10.401-23.23-23.231 0-12.83 10.4-23.231 23.23-23.231 8.56 0 16.038 4.63 20.068 11.521"/>
	<circle cx="91.018" cy="89.751" r="15.676" fill="#FDF0E2" stroke="#A70230" stroke-width="3"/>
	<path stroke="#A70230" stroke-linecap="round" stroke-linejoin="round" stroke-width="3" d="M98.95 89.75a8.121 8.121 0 00-8.122-8.12M62.593 63.404a5.676 5.676 0 00-8.027 0"/>
	<rect width="20.776" height="9.066" x="115.748" y="110.338" fill="#FDF0E2" stroke="#A70230" stroke-width="3" rx="4.533" transform="rotate(45 115.748 110.338)"/>
	<circle cx="54.943" cy="55.188" r="1.889" fill="#A70230"/>
	<circle cx="62.121" cy="55.188" r="1.889" fill="#A70230"/>
	<circle cx="113.114" cy="83.518" r="1.511" fill="#A70230"/>
	<path fill="#A70230" fill-rule="evenodd" d="M88.252 45a9.5 9.5 0 00-9.5 9.5v9.686c0 1.68.436 3.26 1.202 4.629a23.297 23.297 0 012.758-1.228 6.47 6.47 0 01-.96-3.4V54.5a6.5 6.5 0 016.5-6.5h9.686a6.5 6.5 0 016.5 6.5v9.686c0 1.956-.864 3.71-2.23 4.901.9.502 1.765 1.062 2.587 1.674a9.467 9.467 0 002.643-6.575V54.5a9.5 9.5 0 00-9.5-9.5h-9.686zM68.491 82.126a9.456 9.456 0 00-5.305-1.619H53.5a9.5 9.5 0 00-9.5 9.5v9.686a9.5 9.5 0 009.5 9.5h9.686a9.503 9.503 0 008.848-6.033 23.426 23.426 0 01-2.348-3.89v.424a6.5 6.5 0 01-6.5 6.499H53.5a6.5 6.5 0 01-6.5-6.5v-9.686a6.5 6.5 0 016.5-6.5h9.686c1.764 0 3.364.703 4.535 1.844.182-1.103.44-2.18.77-3.225z" clip-rule="evenodd"/>
</symbol>
<symbol id="search-new" viewBox="0 0 15 15">
	<path fill="transparent" d="M6.5 12a5.5 5.5 0 100-11 5.5 5.5 0 000 11zM14 14l-3-3"/>
</symbol>
<symbol id="close" viewBox="0 0 19 19">
	<path fill="#000" fill-rule="evenodd" d="M.285 1.182c.38-.362.998-.362 1.378 0L9.5 8.624l7.837-7.442c.38-.362.997-.362 1.378 0 .38.361.38.947 0 1.308l-7.837 7.443 7.35 6.98c.38.362.38.947 0 1.309-.381.361-.998.361-1.379 0L9.5 11.242l-7.35 6.98c-.38.361-.997.361-1.377 0a.893.893 0 010-1.309l7.35-6.98L.284 2.49a.893.893 0 010-1.308z" clip-rule="evenodd"/>
</symbol>
<symbol id="logo-mobile" viewBox="0 0 139 25">
	<path fill="#A70230" d="M50.692 18.558v4.131h-1.35v-3.166h-1.28v3.166h-1.356v-4.131h3.986zM62.472 21.282l-.435-1.48-.419 1.48h.854zm.263-2.724l1.48 4.125h-1.346l-.162-.558H61.36l-.156.558h-1.323l1.48-4.125h1.373zM82.118 19.998h1.279v-1.44h1.35v4.131h-1.35v-1.725h-1.279v1.725h-1.356v-4.131h1.356v1.44zM91.884 18.558v4.131h-1.296v-1.312l.067-1.055-1.49 2.367h-1.268v-4.131h1.296v1.317l-.067 1.055 1.49-2.372h1.268zM96.383 19.898l1.19-1.34h1.585l-1.507 1.557 1.669 2.574H97.7l-.993-1.647-.324.34v1.307h-1.35v-4.131h1.35v1.34zM115.65 19.898l1.189-1.34h1.586l-1.508 1.557 1.669 2.574h-1.624l-.994-1.647-.318.34v1.307h-1.351v-4.131h1.351v1.34zM135.854 21.282l-.435-1.48-.419 1.48h.854zm.263-2.724l1.479 4.125h-1.345l-.162-.558h-1.346l-.156.558h-1.323l1.479-4.125h1.374z"/>
	<path fill="#fff" d="M13.444 18.764h.346v.999h.296v-1h.352v-.267h-.994v.268zM16.855 19.763h.295v-1h.497v-.267h-.792v1.267z"/>
	<path fill="#A70230" d="M78.278 4.226L74.37 15.018h3.462l.446-1.413h3.523l.419 1.424h3.523l-3.87-10.792h-3.595v-.01zm.659 7.146l1.117-3.863 1.116 3.863h-2.233zM50.883 8.508l-1.725-4.26h-3.992l3.975 7.817a.865.865 0 01-.837.603 1.675 1.675 0 01-.732-.18v2.457a4.885 4.885 0 001.675.33c1.351 0 2.267-.72 3.177-2.652l3.986-8.425h-3.813l-1.714 4.31zm11.724 6.538h3.54V6.744h3.35v8.274h3.539V4.226H62.613v10.792l-.006.028zm59.737-6.956a5.585 5.585 0 01-1.602.195c-.855 0-1.346-.39-1.346-1.245V4.248h-3.539v3.35c0 2.34 1.948 3.35 3.539 3.35.991.06 1.985-.02 2.954-.24v4.366h3.539V4.226h-3.506v3.836l-.039.028zm-11.853 6.956h3.54V4.226h-3.54v10.82zM134.71 4.254h-3.595l-3.869 10.792h3.461l.408-1.424h3.55l.419 1.424h3.489L134.71 4.254zm-2.903 7.118l1.117-3.863 1.116 3.863h-2.233zM88.422 9.815c0 2.529-.402 2.791-1.116 2.791a2.233 2.233 0 01-.81-.106v2.518c.626.16 1.27.236 1.915.229 2.027 0 3.389-1.078 3.389-5.427V6.75h2.535v8.274h3.534V4.226h-9.447v5.589zm16.654-1.826h-1.675V4.226h-3.534v10.792h5.17c2.791 0 4.5-1.117 4.5-3.445s-1.725-3.584-4.467-3.584h.006zm-.374 4.5h-1.301v-1.993h.882c1.117 0 1.949.056 1.949 1.005 0 .81-.659.988-1.53.988zM19.981 25c-5.18 0-10.077-1.005-13.778-2.83C2.205 20.198 0 17.468 0 14.482S2.2 8.77 6.203 6.8a29.064 29.064 0 019.714-2.613v-.285a3.992 3.992 0 011.195-2.69 4.237 4.237 0 017.19 2.696v.301a28.92 28.92 0 019.452 2.585c3.998 1.97 6.197 4.695 6.197 7.682s-2.2 5.711-6.197 7.688c-3.701 1.825-8.592 2.83-13.778 2.83"/>
	<path fill="#A70230" d="M33.475 7.37a28.752 28.752 0 00-9.804-2.586v-.87A3.473 3.473 0 0020.126.635a3.523 3.523 0 00-2.568 1.022 3.384 3.384 0 00-1.01 2.233v.86a28.841 28.841 0 00-10.05 2.607C2.73 9.218.648 11.741.648 14.476c0 2.736 2.076 5.26 5.85 7.118 3.618 1.787 8.408 2.792 13.5 2.792 5.091 0 9.881-.983 13.5-2.791 3.768-1.86 5.845-4.383 5.845-7.119 0-2.735-2.077-5.259-5.846-7.118"/>
	<path fill="#fff" d="M27.122 9.14c.704-.146.793.775.218 1.066-.34.134-.654.322-.932.558-.263.29-.95 1.708-.034 1.714 1.055 0 1.675-1.117 1.798-1.374.38-.943.502-1.178.982-.943.302.145-.117.927-.2 1.184a13.588 13.588 0 00-.654 6.615c.062.558-.072.944-.513 1-.441.055-.788-.079-.927-.877-.419-2.39.882-5.683.882-5.683s-1.39 1.881-2.418.971c-.73-.681.107-2.233.134-2.362-.25.196-.558.224-.614.04-.19-.508.9-.486 1.083-.788.391-.72.726-1.05 1.2-1.15M7.375 12.584c.106-.62 1.702-4.371 7.408-5.326.436-.1.888-.1 1.323 0 .391.117.28.48 0 .502-.279.023-5.7.615-7.107 5.053-.485 1.117-1.792.765-1.613-.257M15.403 18.853c-.558.391-1.585-1.54-1.194-7.045.061-.877 1.373-.938 1.267.212-.597 6.431.251 6.588-.067 6.833"/>
	<path fill="#fff" d="M8.268 19.719c.793-1.24 1.368-1.614 1.675-3.004a1.675 1.675 0 01-1.117.893 1.373 1.373 0 01-1.172-.787 4.243 4.243 0 01-.363-2.278c0-.993 1.597-.815 1.558-.14-.112 1.402.184 1.787.463 1.894.279.106.865-.296.994-1 .089-.418.156-.636.156-.636a.38.38 0 11.76.061c-.19 2.35-.643 4.165-1.77 5.924-.296.463-1.714-.235-1.206-.922M13.89 10.133c-.028.262-1.061 10.418-1.117 10.697-.095.804-1.742.988-1.563-.67.084-.726 1.345-10.016 1.368-10.167.145-1.016 1.412-.927 1.284.14M18.15 16.274a1.061 1.061 0 01-.82.614c-.598 0-.447-.86-.196-1.234a.955.955 0 01.81-.558c.524.112-.319.653 0 .815l.167.079s.212.072.039.295v-.01zm6.141-1.535c.173.095-.296.675-.34.737 0-.067.178-.826.34-.737zm2.328 3.534c-.419-.944-.642-1.418-.402-2.468.062-.206.045-.597-.357-.558-.402.039-.352.558-.653.48-.955-.223-.838.318-.782.452.24.53.1.9-.24.9-.34 0-.71-.604-.084-1.201-.039.039 1.569-1.457.748-1.92-.62-.319-1.183.585-1.401 1.116-.676 1.675-.904 1.993-1.117 2.038-.212.044.028-1.028.207-1.497.246-.62.368-1.362-.045-1.362-.893 0-1.775 1.759-2.138 2.311-.558.816-.486.05-.865.073-.48.045-.419.586-.648.558-.357 0 .313-1.423.408-1.747a.485.485 0 00.039-.469c-.257-.274-.47.095-.52.145 0-.927-.591-.955-1.183-.698a3.22 3.22 0 00-1.826 2.63c-.117 1.06 1.016 2.233 2.088.491 0 0-.1.882.52.888.43 0 .865-.921.865-.921s0 .92.558.92c.458 0 .893-1.228 1.117-1.752.178-.384.38-.757.603-1.117.134-.195.206-.106.145 0-.832 1.96-.419 2.87 0 2.87s.765-.24 1.245-1.061a1.117 1.117 0 001.116 1.06c.681 0 1.167-1.188.966-1.987-.095-.402.313-.357.319-.128a2.155 2.155 0 00.893 2.026c.111.084.558.23.385-.111M30.684 16.146c-.24.206.1.368.1.368.09.073-.05.274-.362.363a.558.558 0 01-.715-.77c.162-.637.882-1.15 1.278-.989.397.162.062.66-.307 1.022l.006.006zm1.379 2.925a4.55 4.55 0 01-.33-2.551c.034-.391-.413-.28-.413-.28.232-.37.328-.81.274-1.244-.05-.397-.514-.637-1.184-.441-1.228.363-1.764 1.675-1.853 2.635-.09.96.815 2.15 2.278.307.108.667.444 1.276.949 1.725.106.084.463.15.279-.15zM22.332 5.069c-.71 3.087-1.602 4.137-1.798 4.343-.195.207-.525.185-.659-.268-.039-.133-.519-1.719-1.859-1.306 0 0-.123.045-.145-.056a.224.224 0 01.15-.178c1.117-.603 2.066.508 2.083.524.302.319.715-.117.838-.608.1-.397.072-1.039-.838-.67-.134.045-1.228.402-.865-.614.09-.29.29-.737.413-1.083.251-.704.123-1.882-.882-1.262a3.578 3.578 0 00-.76.832c-.066.095-.178.05-.122-.09a2.964 2.964 0 011.144-1.412c.598-.307 1.77.084 1.117 1.675-.24.614-.173 1.273.33 1.273a1.982 1.982 0 001.646-1.195c.067-.15.23-.1.184.1"/>
	<path fill="#fff" d="M19.981 23.13c-10.049 0-18.178-3.908-18.178-8.681 0-4.227 6.32-7.744 14.683-8.52h.185v7.04h6.895V5.946h.117c8.274.815 14.515 4.31 14.515 8.503 0 4.795-8.14 8.681-18.178 8.681h-.039zM17.787 4.104A2.311 2.311 0 0120.15 1.87a2.311 2.311 0 012.372 2.234v7.257h-4.745V4.115l.011-.011zm15.733 3.26a28.752 28.752 0 00-9.804-2.585v-.87A3.472 3.472 0 0020.171.63a3.523 3.523 0 00-2.568 1.022 3.383 3.383 0 00-1.01 2.233v.86a28.841 28.841 0 00-10.05 2.607C2.775 9.212.693 11.735.693 14.47c0 2.735 2.076 5.259 5.85 7.118 3.618 1.787 8.408 2.792 13.5 2.792 5.091 0 9.881-.983 13.5-2.792 3.768-1.859 5.844-4.383 5.844-7.118 0-2.736-2.076-5.26-5.845-7.118"/>
	<path fill="#fff" d="M25.24 9.14a.977.977 0 111.01-.978.995.995 0 01-1.01.977zm0-2.15a1.178 1.178 0 101.212 1.172A1.2 1.2 0 0025.24 6.99z"/>
	<path fill="#fff" d="M25.302 8.022h-.246v-.307h.229c.1 0 .212 0 .212.14s-.073.167-.195.167zm.49-.167c0-.29-.183-.39-.507-.397h-.558v1.307h.284v-.558h.129l.117.2.19.347h.352l-.341-.559a.312.312 0 00.324-.34"/>
	<path fill="#A70230" d="M122.013 18.558l.659 1.63.653-1.63h1.458l-1.525 3.22c-.351.738-.697 1.017-1.217 1.017a1.86 1.86 0 01-.636-.128v-.938a.63.63 0 00.279.056.327.327 0 00.324-.23l-1.519-2.997h1.524zM129.753 20.244a.684.684 0 00-.737-.676c-.475 0-.765.408-.765 1.206 0 .558.128 1.117.815 1.117a.692.692 0 00.692-.698h1.301a1.85 1.85 0 01-1.971 1.708 2.172 2.172 0 01-.134-4.343c1.262 0 1.966.625 2.077 1.675h-1.284l.006.01zM108.983 21.745h.592c.335 0 .558-.067.558-.38 0-.312-.312-.384-.742-.384h-.408v.764zm0-1.512h.559a.39.39 0 00.463-.363c0-.324-.262-.33-.558-.33h-.464V20.233zm-1.351-1.675h1.971c.927 0 1.675.217 1.675 1.038a1.128 1.128 0 01-.558.899.926.926 0 01.686.949c0 .921-.703 1.245-1.775 1.245h-2.01v-4.126l.011-.005zM75.023 19.523v.447a3.506 3.506 0 01-.34 1.753h1.144v-2.2h-.81.006zm2.16-.965v3.165h.364v1.915h-1.295v-.955h-1.926v.955H73.03v-1.915h.324a4.41 4.41 0 00.374-2.105v-1.06h3.456zM67.995 20.154h.111c.424 0 .665-.084.665-.42a.475.475 0 00-.559-.379.558.558 0 00-.592.408h-1.116c.072-.96.904-1.368 1.786-1.368 1.039 0 1.765.497 1.765 1.19a1.022 1.022 0 01-.603.92.943.943 0 01.709.977c0 .782-.654 1.262-1.893 1.262-1.24 0-1.853-.469-1.943-1.552h1.117a.635.635 0 00.742.592c.458 0 .687-.19.687-.436 0-.374-.352-.435-.776-.435h-.112v-.754l.011-.005zM55.634 20.383h.558a.456.456 0 00.558-.48c0-.386-.435-.436-.72-.436h-.385v.916h-.011zm0 2.233h-1.362V18.49h1.987c1.19 0 1.759.559 1.759 1.396 0 .837-.525 1.451-1.714 1.451h-.681v1.285l.01-.006z"/>
</symbol>
<symbol id="catalog-filter" viewBox="0 0 17 17">
	<path fill="#A70230" fill-rule="evenodd" d="M.086 1.084A1 1 0 011 .49h14.57a1 1 0 01.739 1.672l-5.136 5.65v5.549a1 1 0 01-.504.868l-3.777 2.159a1 1 0 01-1.496-.869V7.811L.26 2.16a1 1 0 01-.174-1.077zM3.26 2.49l3.875 4.263a1 1 0 01.26.672v6.371l1.777-1.015V7.424a1 1 0 01.26-.672l3.876-4.263H3.26z" clip-rule="evenodd"/>
</symbol>
<symbol id="catalog-sort" viewBox="0 0 16 17">
	<path fill="#A70230" fill-rule="evenodd" d="M14.62.55a1 1 0 01.642.933v14.04a1 1 0 01-1 1H1.614a1 1 0 01-.743-1.668L13.52.815A1 1 0 0114.62.55zM3.86 14.524h9.402V4.088L3.86 14.524z" clip-rule="evenodd"/>
</symbol>
<symbol id="catalog-tags" viewBox="0 0 17 17">
	<path fill="#A70230" fill-rule="evenodd" d="M9.155.505a1 1 0 01.714.293l6.452 6.453a1 1 0 01-.014 1.428l-7.849 7.544a1 1 0 01-.693.279H1.57a1 1 0 01-1-1V9.304a1 1 0 01.284-.698L8.445.808a1 1 0 01.71-.303zm.016 2.424L2.57 9.71v4.792h4.794l6.823-6.558L9.17 2.929z" clip-rule="evenodd"/>
	<path fill="#A70230" d="M5.784 12.31a1 1 0 11-2 0 1 1 0 012 0z"/>
</symbol>
<symbol id="clock-empty" viewBox="0 0 18 19">
	<circle cx="9" cy="9.5" r="8" stroke="#A70230" stroke-width="2"/>
	<path stroke="#A70230" stroke-linecap="round" stroke-linejoin="round" stroke-width="2" d="M8.4 6.5v3.6h2.4"/>
</symbol>
<symbol id="minus" viewBox="0 0 19 3">
	<path fill="#000" fill-rule="evenodd" d="M.5 1.5a1 1 0 011-1h16a1 1 0 110 2h-16a1 1 0 01-1-1z" clip-rule="evenodd"/>
</symbol>
<symbol id="plus" viewBox="0 0 19 19">
	<path fill="#000" fill-rule="evenodd" d="M10.5 1.5a1 1 0 10-2 0v7h-7a1 1 0 100 2h7v7a1 1 0 102 0v-7h7a1 1 0 100-2h-7v-7z" clip-rule="evenodd"/>
</symbol>
<symbol id="prodcuct-share-fb" viewBox="0 0 22 22">
	<path fill="#3C47A7" d="M11 0C4.925 0 0 4.925 0 11s4.925 11 11 11 11-4.925 11-11S17.075 0 11 0zm4.197 5.602h-1.522c-1.193 0-1.424.567-1.424 1.4v1.834h2.845l-.001 2.873h-2.843v7.372H9.284V11.71h-2.48V8.835h2.48v-2.12c0-2.458 1.502-3.797 3.696-3.797l2.217.003v2.68z"/>
</symbol>
<symbol id="prodcuct-share-ok" viewBox="0 0 19 28">
	<path fill="#FFB800" fill-rule="evenodd" d="M16.79 7.091c0 3.904-3.313 7.075-7.37 7.075-4.06 0-7.373-3.171-7.373-7.075C2.047 3.171 5.361 0 9.42 0c4.057 0 7.37 3.171 7.37 7.091zm-3.75 0c0-1.934-1.627-3.499-3.62-3.499-1.995 0-3.622 1.564-3.62 3.5 0 1.917 1.626 3.482 3.62 3.482 1.993 0 3.62-1.565 3.62-3.483zM2.878 18.254c-1.853-1.148-2.665-1.82-1.95-3.226.421-.798 1.574-1.471 3.101-.312 0 0 2.063 1.581 5.393 1.581 3.328 0 5.392-1.58 5.392-1.58 1.528-1.154 2.676-.487 3.102.311.705 1.406-.107 2.077-1.96 3.23l.001.002c-1.556.952-3.7 1.328-5.114 1.47a5166.164 5166.164 0 015.525 5.299c1.586 1.563-.994 4.007-2.597 2.498-1.067-1.044-2.625-2.542-4.256-4.111l-.08-.078-4.337 4.183c-1.602 1.504-4.183-.962-2.58-2.498l5.508-5.298c-.01.01-.2.192 0 0-1.398-.142-3.573-.498-5.148-1.471z" clip-rule="evenodd"/>
</symbol>
<symbol id="prodcuct-share-tg" viewBox="0 0 27 22">
	<path fill="#3593CD" d="M10.873 14.5l-.43 6.142c.615 0 .881-.269 1.201-.59l2.885-2.8 5.978 4.445c1.096.62 1.869.293 2.165-1.024l3.923-18.67h.002c.347-1.646-.587-2.29-1.655-1.886L1.877 9.083c-1.574.62-1.55 1.511-.267 1.915l5.897 1.863 13.696-8.703c.645-.433 1.231-.193.75.24L10.872 14.5z"/>
</symbol>
<symbol id="prodcuct-share-vk" viewBox="0 0 31 18">
	<path fill="#548DB0" d="M30.397 15.86c-.082-.139-.592-1.247-3.046-3.524-2.569-2.385-2.224-1.998.87-6.121 1.885-2.512 2.638-4.045 2.402-4.701-.224-.625-1.61-.46-1.61-.46l-4.609.027s-.34-.046-.596.105c-.247.15-.406.495-.406.495s-.73 1.944-1.704 3.596c-2.054 3.487-2.876 3.671-3.212 3.455-.78-.505-.584-2.029-.584-3.11 0-3.38.512-4.789-1-5.153-.501-.12-.87-.201-2.152-.215-1.645-.017-3.038.006-3.826.392-.526.256-.93.83-.683.862.305.04.995.186 1.361.685.474.642.457 2.087.457 2.087s.272 3.978-.635 4.473c-.623.339-1.476-.353-3.307-3.518C7.18 3.615 6.47 1.823 6.47 1.823s-.136-.334-.38-.512c-.294-.217-.708-.286-.708-.286l-4.383.027s-.657.02-.899.305c-.215.255-.017.78-.017.78s3.431 8.027 7.315 12.073c3.564 3.71 7.609 3.466 7.609 3.466h1.833s.554-.06.835-.366c.261-.28.252-.805.252-.805s-.037-2.46 1.106-2.822c1.125-.356 2.57 2.378 4.102 3.43 1.158.796 2.038.621 2.038.621l4.097-.058s2.143-.132 1.127-1.817z"/>
</symbol>
<symbol id="prodcuct-share-wa" viewBox="0 0 22 22">
	<path fill="#46C831" d="M11.173.5h-.005C5.378.5.67 5.21.67 11c0 2.297.74 4.426 2 6.154l-1.31 3.901 4.037-1.29a10.41 10.41 0 005.776 1.735c5.79 0 10.497-4.71 10.497-10.5S16.962.5 11.173.5zm6.11 14.827c-.254.716-1.259 1.309-2.06 1.482-.55.117-1.266.21-3.679-.79-3.085-1.278-5.072-4.414-5.227-4.617-.149-.204-1.247-1.66-1.247-3.167s.765-2.24 1.074-2.556c.253-.258.672-.377 1.073-.377.13 0 .247.007.352.012.308.013.463.032.667.519.253.61.87 2.117.943 2.272.075.154.15.364.045.568-.098.21-.185.303-.34.482-.155.178-.302.315-.457.506-.141.167-.302.345-.123.654.178.302.795 1.308 1.704 2.117 1.172 1.043 2.122 1.377 2.462 1.518.253.106.555.08.74-.116.235-.254.525-.674.82-1.087.21-.297.476-.333.754-.228.283.098 1.783.84 2.092.993.308.155.512.229.586.358.074.13.074.74-.18 1.457z"/>
</symbol>
<symbol id="share" viewBox="0 0 17 19">
	<path fill="#A70230" fill-rule="evenodd" d="M14.773 3.979a1 1 0 11-2 0 1 1 0 012 0zm2 0a3 3 0 01-4.587 2.546L6.773 9.908V10.049l5.413 3.383a3 3 0 11-1.252 1.576l-4.897-3.06a3 3 0 110-3.938l4.897-3.061a3 3 0 115.84-.97zm-12 6a1 1 0 10-2 0 1 1 0 002 0zm10 6a1 1 0 11-2 0 1 1 0 012 0z" clip-rule="evenodd"/>
</symbol>
<symbol id="submenu-icon-chocolat" viewBox="0 0 20 16">
	<path fill="#A70230" fill-rule="evenodd" d="M2 2v3h5V2H2zM1 0a1 1 0 00-1 1v5a1 1 0 001 1h7a1 1 0 001-1V1a1 1 0 00-1-1H1zM13 2v3h5V2h-5zm-1-2a1 1 0 00-1 1v5a1 1 0 001 1h7a1 1 0 001-1V1a1 1 0 00-1-1h-7zM2 11v3h5v-3H2zM1 9a1 1 0 00-1 1v5a1 1 0 001 1h7a1 1 0 001-1v-5a1 1 0 00-1-1H1zM13 11v3h5v-3h-5zm-1-2a1 1 0 00-1 1v5a1 1 0 001 1h7a1 1 0 001-1v-5a1 1 0 00-1-1h-7z" clip-rule="evenodd"/>
</symbol>
<symbol id="pen" viewBox="0 0 18 18">
	<path fill="#A70230" fill-rule="evenodd" d="M14.2 2.564a1.122 1.122 0 00-.794.329L3.47 12.83l-.595 2.18 2.18-.594 9.938-9.937a1.12 1.12 0 00-.364-1.83 1.122 1.122 0 00-.429-.085zM13.004.802a3.12 3.12 0 013.401 5.09L6.281 16.019a1 1 0 01-.444.258L1.712 17.4a1 1 0 01-1.228-1.228l1.125-4.125a1 1 0 01.258-.444L11.992 1.479c.29-.29.634-.52 1.013-.677z" clip-rule="evenodd"/>
</symbol>
<symbol id="trash" viewBox="0 0 16 17">
	<path fill="#000" fill-rule="evenodd" d="M5.826 2.536A.512.512 0 016.18 2.4h2.959c.14 0 .266.054.353.137a.392.392 0 01.126.283v.42H5.7v-.42c0-.098.04-.2.126-.283zm5.792.283v.42h2.697a1 1 0 110 2h-.478v8.942c0 .655-.272 1.275-.74 1.726a2.511 2.511 0 01-1.74.694H3.962c-.645 0-1.271-.245-1.739-.694-.47-.45-.74-1.07-.74-1.726V5.239H1a1 1 0 110-2H3.701v-.42c0-.655.27-1.275.74-1.725A2.511 2.511 0 016.18.399h2.959c.644 0 1.27.245 1.738.695.47.45.74 1.07.74 1.725zM3.48 5.24v8.942c0 .098.04.2.126.283a.511.511 0 00.354.137h7.397c.14 0 .266-.054.353-.137a.393.393 0 00.126-.283V5.239H3.481zm2.695 1.55a1 1 0 011 1v4.262a1 1 0 11-2 0V7.79a1 1 0 011-1zM10.14 7.79a1 1 0 10-2 0v4.26a1 1 0 102 0V7.79z" clip-rule="evenodd"/>
</symbol>
<symbol id="calendar" viewBox="0 0 16 17">
	<path fill="#A70230" fill-rule="evenodd" d="M11.842 1a1 1 0 10-2 0v.404H6.227V1a1 1 0 10-2 0v.404H3.122A2.404 2.404 0 00.72 3.807v9.826a2.404 2.404 0 002.403 2.404h9.826a2.404 2.404 0 002.404-2.404V3.807a2.404 2.404 0 00-2.404-2.403h-1.106V1zM2.72 7.615v6.018c0 .223.18.404.403.404h9.826c.223 0 .404-.18.404-.404V7.615H2.719zm10.633-2H2.719V3.807c0-.223.18-.403.403-.403h1.105v.403a1 1 0 002 0v-.403h3.615v.403a1 1 0 002 0v-.403h1.106c.223 0 .404.18.404.403v1.808z" clip-rule="evenodd"/>
</symbol>
<symbol id="trash-red" viewBox="0 0 16 18">
	<path fill="#A70230" fill-rule="evenodd" d="M5.826 3.036A.512.512 0 016.18 2.9h2.959c.14 0 .266.054.353.137a.392.392 0 01.126.283v.42H5.7v-.42c0-.098.04-.2.126-.283zm5.792.283v.42h2.697a1 1 0 110 2h-.478v8.942c0 .655-.272 1.275-.74 1.726a2.511 2.511 0 01-1.74.694H3.962c-.645 0-1.271-.245-1.739-.694-.47-.45-.74-1.07-.74-1.726V5.739H1a1 1 0 110-2H3.701v-.42c0-.655.27-1.275.74-1.725A2.511 2.511 0 016.18.899h2.959c.644 0 1.27.245 1.738.695.47.45.74 1.07.74 1.725zM3.48 5.74v8.942c0 .098.04.2.126.283a.511.511 0 00.354.137h7.397c.14 0 .266-.054.353-.137a.393.393 0 00.126-.283V5.739H3.481zm2.695 1.55a1 1 0 011 1v4.262a1 1 0 11-2 0V8.29a1 1 0 011-1zm3.963 1a1 1 0 10-2 0v4.262a1 1 0 102 0V8.29z" clip-rule="evenodd"/>
</symbol>
<symbol id="loader" viewBox="0 0 22 22">
	<path stroke="#A70230" stroke-linecap="round" stroke-linejoin="round" stroke-width="2" d="M11 1v4M11 17v4M3.93 3.93l2.83 2.83M15.24 15.24l2.83 2.83M1 11h4M17 11h4M3.93 18.07l2.83-2.83M15.24 6.76l2.83-2.83"/>
</symbol>
<symbol id="thx-order" viewBox="0 0 170 170">
	<circle cx="85" cy="85" r="85" fill="#fff"/>
	<g fill="#A70230" clip-path="url(#clip0)">
		<path d="M122.879 69.194h-1.832a1.738 1.738 0 000 3.476h1.832a1.738 1.738 0 000-3.476zM117.938 60.525c.445 0 .889-.17 1.229-.51l1.295-1.295a1.738 1.738 0 10-2.458-2.459l-1.296 1.296a1.74 1.74 0 001.23 2.968zM119.167 81.849a1.74 1.74 0 00-2.459 2.458l1.296 1.296c.339.34.784.509 1.229.509a1.738 1.738 0 001.229-2.968l-1.295-1.295zM49.684 70.932c0-.96-.779-1.738-1.739-1.738h-1.832a1.739 1.739 0 000 3.476h1.832c.96 0 1.739-.778 1.739-1.738zM49.828 81.849l-1.296 1.295a1.738 1.738 0 002.459 2.459l1.295-1.296a1.739 1.739 0 00-2.458-2.458zM50.991 56.26a1.739 1.739 0 00-2.459 2.46l1.296 1.295c.34.34.784.51 1.23.51a1.738 1.738 0 001.23-2.968L50.99 56.26zM113.34 70.266a1.756 1.756 0 00-1.625-1.071c-.73.006-1.388.49-1.624 1.178a1.75 1.75 0 00.565 1.92c.571.45 1.378.496 1.997.114a1.754 1.754 0 00.687-2.141z"/>
		<path d="M111.076 77.145a1.738 1.738 0 00-2.168 1.159c-2.704 8.913-10.12 15.65-19.147 17.544V85.487h5.473c.871 0 1.608-.645 1.723-1.51l2.195-16.48a1.74 1.74 0 00-.444-3.42H70.35a1.738 1.738 0 00-.445 3.42l2.195 16.48a1.738 1.738 0 001.724 1.51h5.358v10.337c-11.598-2.486-20.12-12.86-20.12-24.892 0-14.036 11.424-25.455 25.466-25.455 11.132 0 21.158 7.442 24.383 18.098a1.739 1.739 0 003.328-1.007c-1.762-5.82-5.422-11.056-10.308-14.741A28.68 28.68 0 0084.529 42c-15.96 0-28.943 12.979-28.943 28.932 0 12.32 7.862 23.11 19.06 27.194a3.865 3.865 0 00-2.563 3.633v11.074c0 .03 0 3.046.007 3.198.178 4.907 2.585 8.033 6.62 8.576.633.079 1.11.616 1.11 1.249v3.406c0 .96.779 1.738 1.739 1.738h16.538c.96 0 1.738-.778 1.738-1.738v-2.778c.255-.169.747-.451 1.65-.854 5.489-2.444 6.087-4.171 6.087-9.928v-11.34c0-1.431-.59-2.83-1.618-3.839a5.2 5.2 0 00-3.772-1.514c-1.219.023-6.736-.01-10.508-.038 9.713-2.48 17.61-9.927 20.561-19.658a1.74 1.74 0 00-1.159-2.168zm-37.655-9.591h22.216L93.713 82.01h-5.193a5.284 5.284 0 00-4.047-1.883 5.284 5.284 0 00-4.046 1.883h-5.08l-1.925-14.456zm28.826 34.931a1.77 1.77 0 011.272.519c.366.359.576.854.576 1.358v11.34c0 2.401-.078 3.68-.522 4.456-.412.72-1.361 1.343-3.502 2.297-2.293 1.021-3.713 1.954-3.713 3.454v1.614H83.297v-1.667a4.741 4.741 0 00-4.14-4.697c-2.264-.305-3.473-2.067-3.593-5.24-.003-.256-.004-2.846-.004-3.086v-11.074c0-.211.174-.382.388-.382 1.784 0 3.235 1.442 3.236 3.215v6.776a1.738 1.738 0 003.476 0V85.405a1.81 1.81 0 011.812-1.802c1 0 1.812.809 1.812 1.802v15.276c0 .955.77 1.731 1.724 1.739.502.004 12.308.101 14.239.065z"/>
		<path d="M87.986 79.082a1.739 1.739 0 001.929-1.525l.616-5.271a1.738 1.738 0 00-3.453-.404l-.617 5.271a1.738 1.738 0 001.525 1.93zM80.876 79.094a1.739 1.739 0 001.729-1.94l-.616-5.272a1.738 1.738 0 00-3.453.404l.616 5.272a1.739 1.739 0 001.724 1.536zM85.68 52.165a1.738 1.738 0 00-2.295 0l-7.204 6.332a1.738 1.738 0 102.295 2.611l6.056-5.323 6.058 5.324c.33.29.739.432 1.147.432a1.738 1.738 0 001.148-3.044l-7.205-6.332z"/>
	</g>

</symbol>
</svg>