<svg width="170" height="170" viewBox="0 0 170 170" fill="none" xmlns="http://www.w3.org/2000/svg">
<circle cx="85" cy="85" r="85" fill="white"/>
<g clip-path="url(#clip0)">
<path d="M122.879 69.1938H121.047C120.087 69.1938 119.309 69.9723 119.309 70.9321C119.309 71.892 120.087 72.6704 121.047 72.6704H122.879C123.839 72.6704 124.617 71.892 124.617 70.9321C124.617 69.9723 123.839 69.1938 122.879 69.1938Z" fill="#A70230"/>
<path d="M117.938 60.5245C118.383 60.5245 118.827 60.3547 119.167 60.0154L120.462 58.7199C121.141 58.0411 121.141 56.9404 120.462 56.2614C119.783 55.5828 118.683 55.5828 118.004 56.2614L116.708 57.557C116.03 58.2357 116.03 59.3364 116.708 60.0154C117.048 60.3549 117.493 60.5245 117.938 60.5245Z" fill="#A70230"/>
<path d="M119.167 81.8488C118.488 81.1702 117.387 81.1702 116.708 81.8488C116.03 82.5276 116.03 83.6283 116.708 84.3073L118.004 85.6028C118.343 85.9421 118.788 86.112 119.233 86.112C119.678 86.112 120.123 85.9421 120.462 85.6028C121.141 84.924 121.141 83.8233 120.462 83.1444L119.167 81.8488Z" fill="#A70230"/>
<path d="M49.6837 70.9321C49.6837 69.9723 48.9053 69.1938 47.9454 69.1938H46.1133C45.1534 69.1938 44.375 69.9723 44.375 70.9321C44.375 71.892 45.1534 72.6704 46.1133 72.6704H47.9454C48.9053 72.6704 49.6837 71.8922 49.6837 70.9321Z" fill="#A70230"/>
<path d="M49.8281 81.8488L48.5325 83.1444C47.8537 83.8232 47.8537 84.9238 48.5325 85.6028C48.872 85.9421 49.3168 86.112 49.7617 86.112C50.2065 86.112 50.6513 85.9421 50.9908 85.6028L52.2864 84.3073C52.9652 83.6285 52.9652 82.5278 52.2864 81.8488C51.6074 81.1702 50.507 81.1702 49.8281 81.8488Z" fill="#A70230"/>
<path d="M50.991 56.2609C50.312 55.5823 49.2117 55.5823 48.5325 56.2609C47.8537 56.9397 47.8537 58.0404 48.5325 58.7194L49.8281 60.0149C50.1676 60.3542 50.6124 60.5241 51.0572 60.5241C51.502 60.5241 51.9469 60.3542 52.2864 60.0149C52.9652 59.3361 52.9652 58.2354 52.2864 57.5565L50.991 56.2609Z" fill="#A70230"/>
<path d="M113.34 70.266C113.07 69.6173 112.418 69.1888 111.715 69.1949C110.985 69.2013 110.327 69.6851 110.091 70.3731C109.856 71.0583 110.087 71.8437 110.656 72.2927C111.227 72.7436 112.034 72.7895 112.653 72.4069C113.37 71.9641 113.658 71.0422 113.34 70.266Z" fill="#A70230"/>
<path d="M111.076 77.1449C110.157 76.8661 109.186 77.3851 108.908 78.3038C106.204 87.2167 98.7874 93.9531 89.7609 95.8476V85.4866H95.2339C96.1053 85.4866 96.842 84.8415 96.9569 83.9778L99.1521 67.4961C99.8968 67.2996 100.446 66.6215 100.446 65.8151C100.446 64.8553 99.6677 64.0769 98.7078 64.0769H70.3506C69.3907 64.0769 68.6123 64.8553 68.6123 65.8151C68.6123 66.6215 69.1616 67.2998 69.9064 67.4961L72.1015 83.9776C72.2164 84.8413 72.9531 85.4864 73.8245 85.4864H79.1835V95.8236C67.5848 93.3382 59.0625 82.964 59.0625 70.932C59.0625 56.8959 70.4868 45.4766 84.5292 45.4766C95.6608 45.4766 105.687 52.9187 108.912 63.5747C109.19 64.4934 110.16 65.0124 111.079 64.735C111.998 64.4569 112.518 63.4865 112.24 62.5677C110.478 56.7476 106.818 51.5122 101.932 47.8265C96.8785 44.0148 90.8609 42 84.5292 42C68.5699 42 55.5859 54.9789 55.5859 70.932C55.5859 83.2517 63.4478 94.0426 74.6455 98.126C73.1532 98.6608 72.0829 100.087 72.0829 101.759V112.833C72.0829 112.863 72.0838 115.879 72.0895 116.031C72.2677 120.938 74.6747 124.064 78.7103 124.607C79.3432 124.686 79.8204 125.223 79.8204 125.856V129.262C79.8204 130.222 80.5988 131 81.5586 131H98.0965C99.0564 131 99.8348 130.222 99.8348 129.262V126.484C100.09 126.315 100.582 126.033 101.485 125.63C106.974 123.186 107.572 121.459 107.572 115.702V104.362C107.572 102.931 106.982 101.532 105.954 100.523C104.932 99.5199 103.592 98.9796 102.182 99.0092C100.963 99.0318 95.4463 98.9982 91.6737 98.9713C101.387 96.4918 109.284 89.0438 112.235 79.3131C112.513 78.394 111.994 77.4234 111.076 77.1449ZM73.4212 67.5536H95.6375L93.712 82.01H88.5187C87.5479 80.8593 86.0942 80.1268 84.4723 80.1268C82.8505 80.1268 81.3968 80.8593 80.426 82.01H75.3469L73.4212 67.5536ZM102.247 102.485C102.713 102.477 103.169 102.66 103.519 103.004C103.885 103.363 104.095 103.858 104.095 104.362V115.702C104.095 118.103 104.017 119.382 103.573 120.158C103.161 120.878 102.212 121.501 100.071 122.455C97.7784 123.476 96.358 124.409 96.358 125.909V127.523H83.2967V125.856C83.2967 123.472 81.5096 121.452 79.157 121.159C76.8926 120.854 75.6838 119.092 75.5642 115.919C75.5612 115.663 75.5595 113.073 75.5595 112.833V101.759C75.5595 101.548 75.7337 101.377 75.9478 101.377C77.7316 101.377 79.1829 102.819 79.1835 104.592V111.368C79.1835 112.328 79.9619 113.106 80.9217 113.106C81.8816 113.106 82.66 112.328 82.66 111.368V85.4052C82.66 84.4116 83.473 83.6033 84.4722 83.6033C85.4713 83.6033 86.2843 84.4116 86.2843 85.4052V100.681C86.2843 101.636 87.0539 102.412 88.0082 102.42C88.5099 102.424 100.316 102.521 102.247 102.485Z" fill="#A70230"/>
<path d="M87.9858 79.0821C88.0544 79.0901 88.1226 79.0939 88.19 79.0939C89.0597 79.0939 89.8108 78.4424 89.9144 77.5575L90.5311 72.2856C90.6427 71.3322 89.9601 70.4686 89.0065 70.357C88.052 70.2463 87.1895 70.928 87.0779 71.8816L86.4611 77.1535C86.3497 78.1071 87.0322 78.9707 87.9858 79.0821Z" fill="#A70230"/>
<path d="M80.8765 79.0944C80.9439 79.0944 81.012 79.0905 81.0807 79.0826C82.0342 78.971 82.7168 78.1075 82.6054 77.1539L81.9886 71.8821C81.877 70.9286 81.0127 70.247 80.06 70.3574C79.1065 70.469 78.4239 71.3324 78.5354 72.286L79.1521 77.5579C79.2557 78.4427 80.0068 79.0944 80.8765 79.0944Z" fill="#A70230"/>
<path d="M85.6799 52.165C85.0237 51.5882 84.0411 51.5882 83.3849 52.165L76.1806 58.4974C75.4596 59.1312 75.3886 60.2296 76.0226 60.9504C76.6564 61.6715 77.755 61.7426 78.4756 61.1085L84.5325 55.7848L90.5895 61.1085C90.9196 61.3987 91.3288 61.5411 91.7365 61.5411C92.2188 61.5411 92.6991 61.3414 93.0428 60.9504C93.6766 60.2294 93.6058 59.131 92.8848 58.4974L85.6799 52.165Z" fill="#A70230"/>
</g>
<defs>
<clipPath id="clip0">
<rect width="89" height="89" fill="white" transform="translate(40 42)"/>
</clipPath>
</defs>
</svg>
